ISO-10303-21;
HEADER;
/* Generated by software containing ST-Developer
 * from STEP Tools, Inc. (www.steptools.com) 
 */

FILE_DESCRIPTION(
/* description */ (''),
/* implementation_level */ '2;1');

FILE_NAME(
/* name */ 'main-body.step',
/* time_stamp */ '2026-07-20T14:13:25-07:00',
/* author */ (''),
/* organization */ (''),
/* preprocessor_version */ 'ST-DEVELOPER v20.1',
/* originating_system */ 'Autodesk Translation Framework v15.8.0.0',
/* authorisation */ '');

FILE_SCHEMA (('AUTOMOTIVE_DESIGN { 1 0 10303 214 3 1 1 }'));
ENDSEC;

DATA;
#10=MECHANICAL_DESIGN_GEOMETRIC_PRESENTATION_REPRESENTATION('',(#13),#1777);
#11=SHAPE_REPRESENTATION_RELATIONSHIP('SRR','None',#1784,#12);
#12=ADVANCED_BREP_SHAPE_REPRESENTATION('',(#14),#1776);
#13=STYLED_ITEM('',(#1794),#14);
#14=MANIFOLD_SOLID_BREP('Body1',#1037);
#15=B_SPLINE_CURVE_WITH_KNOTS('',3,(#1587,#1588,#1589,#1590,#1591,#1592,
#1593,#1594,#1595,#1596),.UNSPECIFIED.,.F.,.F.,(4,2,2,2,4),(0.308370457887817,
0.32728133100556,0.346192204123303,0.366297379414486,0.386402554705669),
 .UNSPECIFIED.);
#16=B_SPLINE_CURVE_WITH_KNOTS('',3,(#1599,#1600,#1601,#1602,#1603,#1604,
#1605,#1606,#1607,#1608),.UNSPECIFIED.,.F.,.F.,(4,2,2,2,4),(0.230334955425454,
0.250097128864665,0.269859302303876,0.289114880095849,0.308370457887821),
 .UNSPECIFIED.);
#17=FACE_BOUND('',#124,.T.);
#18=FACE_BOUND('',#125,.T.);
#19=FACE_BOUND('',#126,.T.);
#20=FACE_BOUND('',#127,.T.);
#21=FACE_BOUND('',#137,.T.);
#22=FACE_BOUND('',#138,.T.);
#23=FACE_BOUND('',#139,.T.);
#24=FACE_BOUND('',#143,.T.);
#25=FACE_BOUND('',#144,.T.);
#26=FACE_BOUND('',#147,.T.);
#27=FACE_BOUND('',#148,.T.);
#28=FACE_BOUND('',#151,.T.);
#29=FACE_BOUND('',#152,.T.);
#30=FACE_BOUND('',#153,.T.);
#31=FACE_BOUND('',#154,.T.);
#32=FACE_BOUND('',#156,.T.);
#33=FACE_BOUND('',#157,.T.);
#34=FACE_BOUND('',#158,.T.);
#35=FACE_BOUND('',#159,.T.);
#36=FACE_BOUND('',#171,.T.);
#37=FACE_BOUND('',#172,.T.);
#38=FACE_BOUND('',#173,.T.);
#39=PLANE('',#1054);
#40=PLANE('',#1058);
#41=PLANE('',#1064);
#42=PLANE('',#1065);
#43=PLANE('',#1069);
#44=PLANE('',#1070);
#45=PLANE('',#1078);
#46=PLANE('',#1080);
#47=PLANE('',#1081);
#48=PLANE('',#1087);
#49=PLANE('',#1096);
#50=PLANE('',#1103);
#51=PLANE('',#1104);
#52=PLANE('',#1112);
#53=PLANE('',#1119);
#54=PLANE('',#1120);
#55=PLANE('',#1127);
#56=PLANE('',#1128);
#57=PLANE('',#1131);
#58=PLANE('',#1132);
#59=PLANE('',#1135);
#60=PLANE('',#1136);
#61=PLANE('',#1137);
#62=PLANE('',#1139);
#63=PLANE('',#1141);
#64=PLANE('',#1143);
#65=PLANE('',#1146);
#66=FACE_OUTER_BOUND('',#120,.T.);
#67=FACE_OUTER_BOUND('',#121,.T.);
#68=FACE_OUTER_BOUND('',#122,.T.);
#69=FACE_OUTER_BOUND('',#123,.T.);
#70=FACE_OUTER_BOUND('',#128,.T.);
#71=FACE_OUTER_BOUND('',#129,.T.);
#72=FACE_OUTER_BOUND('',#130,.T.);
#73=FACE_OUTER_BOUND('',#131,.T.);
#74=FACE_OUTER_BOUND('',#132,.T.);
#75=FACE_OUTER_BOUND('',#133,.T.);
#76=FACE_OUTER_BOUND('',#134,.T.);
#77=FACE_OUTER_BOUND('',#135,.T.);
#78=FACE_OUTER_BOUND('',#136,.T.);
#79=FACE_OUTER_BOUND('',#140,.T.);
#80=FACE_OUTER_BOUND('',#141,.T.);
#81=FACE_OUTER_BOUND('',#142,.T.);
#82=FACE_OUTER_BOUND('',#145,.T.);
#83=FACE_OUTER_BOUND('',#146,.T.);
#84=FACE_OUTER_BOUND('',#149,.T.);
#85=FACE_OUTER_BOUND('',#150,.T.);
#86=FACE_OUTER_BOUND('',#155,.T.);
#87=FACE_OUTER_BOUND('',#160,.T.);
#88=FACE_OUTER_BOUND('',#161,.T.);
#89=FACE_OUTER_BOUND('',#162,.T.);
#90=FACE_OUTER_BOUND('',#163,.T.);
#91=FACE_OUTER_BOUND('',#164,.T.);
#92=FACE_OUTER_BOUND('',#165,.T.);
#93=FACE_OUTER_BOUND('',#166,.T.);
#94=FACE_OUTER_BOUND('',#167,.T.);
#95=FACE_OUTER_BOUND('',#168,.T.);
#96=FACE_OUTER_BOUND('',#169,.T.);
#97=FACE_OUTER_BOUND('',#170,.T.);
#98=FACE_OUTER_BOUND('',#174,.T.);
#99=FACE_OUTER_BOUND('',#175,.T.);
#100=FACE_OUTER_BOUND('',#176,.T.);
#101=FACE_OUTER_BOUND('',#177,.T.);
#102=FACE_OUTER_BOUND('',#178,.T.);
#103=FACE_OUTER_BOUND('',#179,.T.);
#104=FACE_OUTER_BOUND('',#180,.T.);
#105=FACE_OUTER_BOUND('',#181,.T.);
#106=FACE_OUTER_BOUND('',#182,.T.);
#107=FACE_OUTER_BOUND('',#183,.T.);
#108=FACE_OUTER_BOUND('',#184,.T.);
#109=FACE_OUTER_BOUND('',#185,.T.);
#110=FACE_OUTER_BOUND('',#186,.T.);
#111=FACE_OUTER_BOUND('',#187,.T.);
#112=FACE_OUTER_BOUND('',#188,.T.);
#113=FACE_OUTER_BOUND('',#189,.T.);
#114=FACE_OUTER_BOUND('',#190,.T.);
#115=FACE_OUTER_BOUND('',#191,.T.);
#116=FACE_OUTER_BOUND('',#192,.T.);
#117=FACE_OUTER_BOUND('',#193,.T.);
#118=FACE_OUTER_BOUND('',#194,.T.);
#119=FACE_OUTER_BOUND('',#195,.T.);
#120=EDGE_LOOP('',(#668,#669,#670,#671));
#121=EDGE_LOOP('',(#672,#673,#674,#675));
#122=EDGE_LOOP('',(#676,#677,#678,#679));
#123=EDGE_LOOP('',(#680,#681,#682,#683,#684,#685,#686,#687,#688,#689));
#124=EDGE_LOOP('',(#690));
#125=EDGE_LOOP('',(#691));
#126=EDGE_LOOP('',(#692));
#127=EDGE_LOOP('',(#693));
#128=EDGE_LOOP('',(#694,#695,#696,#697));
#129=EDGE_LOOP('',(#698,#699,#700,#701));
#130=EDGE_LOOP('',(#702,#703,#704,#705));
#131=EDGE_LOOP('',(#706,#707,#708,#709,#710));
#132=EDGE_LOOP('',(#711,#712,#713,#714,#715,#716,#717,#718,#719,#720));
#133=EDGE_LOOP('',(#721,#722,#723,#724));
#134=EDGE_LOOP('',(#725,#726,#727,#728,#729,#730));
#135=EDGE_LOOP('',(#731,#732,#733,#734));
#136=EDGE_LOOP('',(#735,#736,#737,#738));
#137=EDGE_LOOP('',(#739));
#138=EDGE_LOOP('',(#740));
#139=EDGE_LOOP('',(#741,#742,#743,#744));
#140=EDGE_LOOP('',(#745,#746,#747,#748));
#141=EDGE_LOOP('',(#749,#750,#751,#752,#753));
#142=EDGE_LOOP('',(#754,#755,#756,#757));
#143=EDGE_LOOP('',(#758,#759,#760));
#144=EDGE_LOOP('',(#761,#762,#763));
#145=EDGE_LOOP('',(#764,#765,#766,#767));
#146=EDGE_LOOP('',(#768,#769,#770,#771));
#147=EDGE_LOOP('',(#772,#773,#774));
#148=EDGE_LOOP('',(#775,#776,#777));
#149=EDGE_LOOP('',(#778,#779,#780,#781,#782,#783,#784,#785,#786,#787,#788,
#789));
#150=EDGE_LOOP('',(#790,#791,#792,#793,#794,#795,#796,#797,#798,#799,#800,
#801,#802,#803,#804,#805,#806,#807,#808,#809,#810,#811));
#151=EDGE_LOOP('',(#812));
#152=EDGE_LOOP('',(#813));
#153=EDGE_LOOP('',(#814));
#154=EDGE_LOOP('',(#815));
#155=EDGE_LOOP('',(#816,#817,#818,#819,#820,#821,#822,#823));
#156=EDGE_LOOP('',(#824));
#157=EDGE_LOOP('',(#825));
#158=EDGE_LOOP('',(#826));
#159=EDGE_LOOP('',(#827));
#160=EDGE_LOOP('',(#828,#829,#830,#831));
#161=EDGE_LOOP('',(#832,#833,#834,#835));
#162=EDGE_LOOP('',(#836,#837,#838,#839));
#163=EDGE_LOOP('',(#840,#841,#842,#843));
#164=EDGE_LOOP('',(#844,#845,#846,#847));
#165=EDGE_LOOP('',(#848,#849,#850,#851));
#166=EDGE_LOOP('',(#852,#853,#854,#855));
#167=EDGE_LOOP('',(#856,#857,#858,#859));
#168=EDGE_LOOP('',(#860,#861,#862,#863));
#169=EDGE_LOOP('',(#864,#865,#866,#867,#868));
#170=EDGE_LOOP('',(#869,#870,#871,#872));
#171=EDGE_LOOP('',(#873));
#172=EDGE_LOOP('',(#874));
#173=EDGE_LOOP('',(#875,#876,#877,#878));
#174=EDGE_LOOP('',(#879,#880,#881,#882));
#175=EDGE_LOOP('',(#883,#884,#885,#886));
#176=EDGE_LOOP('',(#887,#888,#889,#890));
#177=EDGE_LOOP('',(#891,#892,#893,#894));
#178=EDGE_LOOP('',(#895,#896,#897,#898));
#179=EDGE_LOOP('',(#899,#900,#901,#902));
#180=EDGE_LOOP('',(#903));
#181=EDGE_LOOP('',(#904));
#182=EDGE_LOOP('',(#905));
#183=EDGE_LOOP('',(#906));
#184=EDGE_LOOP('',(#907,#908,#909,#910));
#185=EDGE_LOOP('',(#911,#912,#913,#914));
#186=EDGE_LOOP('',(#915,#916,#917,#918,#919));
#187=EDGE_LOOP('',(#920,#921,#922,#923));
#188=EDGE_LOOP('',(#924,#925,#926,#927));
#189=EDGE_LOOP('',(#928,#929,#930,#931));
#190=EDGE_LOOP('',(#932,#933,#934,#935));
#191=EDGE_LOOP('',(#936,#937,#938,#939));
#192=EDGE_LOOP('',(#940,#941,#942,#943));
#193=EDGE_LOOP('',(#944,#945,#946,#947));
#194=EDGE_LOOP('',(#948,#949,#950,#951));
#195=EDGE_LOOP('',(#952,#953,#954,#955));
#196=LINE('',#1467,#286);
#197=LINE('',#1470,#287);
#198=LINE('',#1473,#288);
#199=LINE('',#1475,#289);
#200=LINE('',#1476,#290);
#201=LINE('',#1481,#291);
#202=LINE('',#1485,#292);
#203=LINE('',#1487,#293);
#204=LINE('',#1489,#294);
#205=LINE('',#1493,#295);
#206=LINE('',#1495,#296);
#207=LINE('',#1496,#297);
#208=LINE('',#1507,#298);
#209=LINE('',#1508,#299);
#210=LINE('',#1511,#300);
#211=LINE('',#1512,#301);
#212=LINE('',#1518,#302);
#213=LINE('',#1521,#303);
#214=LINE('',#1524,#304);
#215=LINE('',#1526,#305);
#216=LINE('',#1528,#306);
#217=LINE('',#1529,#307);
#218=LINE('',#1532,#308);
#219=LINE('',#1536,#309);
#220=LINE('',#1540,#310);
#221=LINE('',#1544,#311);
#222=LINE('',#1551,#312);
#223=LINE('',#1554,#313);
#224=LINE('',#1557,#314);
#225=LINE('',#1561,#315);
#226=LINE('',#1563,#316);
#227=LINE('',#1564,#317);
#228=LINE('',#1567,#318);
#229=LINE('',#1568,#319);
#230=LINE('',#1571,#320);
#231=LINE('',#1572,#321);
#232=LINE('',#1579,#322);
#233=LINE('',#1581,#323);
#234=LINE('',#1583,#324);
#235=LINE('',#1584,#325);
#236=LINE('',#1598,#326);
#237=LINE('',#1611,#327);
#238=LINE('',#1614,#328);
#239=LINE('',#1617,#329);
#240=LINE('',#1618,#330);
#241=LINE('',#1634,#331);
#242=LINE('',#1637,#332);
#243=LINE('',#1638,#333);
#244=LINE('',#1652,#334);
#245=LINE('',#1653,#335);
#246=LINE('',#1656,#336);
#247=LINE('',#1657,#337);
#248=LINE('',#1661,#338);
#249=LINE('',#1665,#339);
#250=LINE('',#1666,#340);
#251=LINE('',#1670,#341);
#252=LINE('',#1671,#342);
#253=LINE('',#1682,#343);
#254=LINE('',#1685,#344);
#255=LINE('',#1686,#345);
#256=LINE('',#1696,#346);
#257=LINE('',#1697,#347);
#258=LINE('',#1701,#348);
#259=LINE('',#1702,#349);
#260=LINE('',#1704,#350);
#261=LINE('',#1707,#351);
#262=LINE('',#1708,#352);
#263=LINE('',#1710,#353);
#264=LINE('',#1713,#354);
#265=LINE('',#1714,#355);
#266=LINE('',#1722,#356);
#267=LINE('',#1724,#357);
#268=LINE('',#1726,#358);
#269=LINE('',#1727,#359);
#270=LINE('',#1729,#360);
#271=LINE('',#1730,#361);
#272=LINE('',#1732,#362);
#273=LINE('',#1734,#363);
#274=LINE('',#1736,#364);
#275=LINE('',#1738,#365);
#276=LINE('',#1753,#366);
#277=LINE('',#1755,#367);
#278=LINE('',#1758,#368);
#279=LINE('',#1760,#369);
#280=LINE('',#1762,#370);
#281=LINE('',#1764,#371);
#282=LINE('',#1766,#372);
#283=LINE('',#1768,#373);
#284=LINE('',#1770,#374);
#285=LINE('',#1773,#375);
#286=VECTOR('',#1163,10.);
#287=VECTOR('',#1166,10.);
#288=VECTOR('',#1169,10.);
#289=VECTOR('',#1170,10.);
#290=VECTOR('',#1171,10.);
#291=VECTOR('',#1176,10.);
#292=VECTOR('',#1181,10.);
#293=VECTOR('',#1182,10.);
#294=VECTOR('',#1183,10.);
#295=VECTOR('',#1186,10.);
#296=VECTOR('',#1187,10.);
#297=VECTOR('',#1188,10.);
#298=VECTOR('',#1199,10.);
#299=VECTOR('',#1200,10.);
#300=VECTOR('',#1203,10.);
#301=VECTOR('',#1204,10.);
#302=VECTOR('',#1209,10.);
#303=VECTOR('',#1212,10.);
#304=VECTOR('',#1215,10.);
#305=VECTOR('',#1216,10.);
#306=VECTOR('',#1217,10.);
#307=VECTOR('',#1218,10.);
#308=VECTOR('',#1221,10.);
#309=VECTOR('',#1224,10.);
#310=VECTOR('',#1227,10.);
#311=VECTOR('',#1230,10.);
#312=VECTOR('',#1237,10.);
#313=VECTOR('',#1240,10.);
#314=VECTOR('',#1243,10.);
#315=VECTOR('',#1246,10.);
#316=VECTOR('',#1247,10.);
#317=VECTOR('',#1248,10.);
#318=VECTOR('',#1251,10.);
#319=VECTOR('',#1252,10.);
#320=VECTOR('',#1255,10.);
#321=VECTOR('',#1256,10.);
#322=VECTOR('',#1261,10.);
#323=VECTOR('',#1262,10.);
#324=VECTOR('',#1263,10.);
#325=VECTOR('',#1264,10.);
#326=VECTOR('',#1267,10.);
#327=VECTOR('',#1270,10.);
#328=VECTOR('',#1273,10.);
#329=VECTOR('',#1276,10.);
#330=VECTOR('',#1277,10.);
#331=VECTOR('',#1294,10.);
#332=VECTOR('',#1297,10.);
#333=VECTOR('',#1298,10.);
#334=VECTOR('',#1313,10.);
#335=VECTOR('',#1314,10.);
#336=VECTOR('',#1317,10.);
#337=VECTOR('',#1318,10.);
#338=VECTOR('',#1321,10.);
#339=VECTOR('',#1324,10.);
#340=VECTOR('',#1325,10.);
#341=VECTOR('',#1328,10.);
#342=VECTOR('',#1329,10.);
#343=VECTOR('',#1340,10.);
#344=VECTOR('',#1343,10.);
#345=VECTOR('',#1344,10.);
#346=VECTOR('',#1355,10.);
#347=VECTOR('',#1356,10.);
#348=VECTOR('',#1363,10.);
#349=VECTOR('',#1364,10.);
#350=VECTOR('',#1367,10.);
#351=VECTOR('',#1372,10.);
#352=VECTOR('',#1373,10.);
#353=VECTOR('',#1376,10.);
#354=VECTOR('',#1381,10.);
#355=VECTOR('',#1382,10.);
#356=VECTOR('',#1389,10.);
#357=VECTOR('',#1390,10.);
#358=VECTOR('',#1391,10.);
#359=VECTOR('',#1392,10.);
#360=VECTOR('',#1395,10.);
#361=VECTOR('',#1396,10.);
#362=VECTOR('',#1399,10.);
#363=VECTOR('',#1402,2.5);
#364=VECTOR('',#1405,4.);
#365=VECTOR('',#1408,10.);
#366=VECTOR('',#1429,10.);
#367=VECTOR('',#1432,10.);
#368=VECTOR('',#1437,1.25);
#369=VECTOR('',#1440,1.25);
#370=VECTOR('',#1443,1.25);
#371=VECTOR('',#1446,1.25);
#372=VECTOR('',#1449,1.49999999999999);
#373=VECTOR('',#1452,1.5);
#374=VECTOR('',#1455,1.5);
#375=VECTOR('',#1460,1.49999999999999);
#376=CIRCLE('',#1052,1.);
#377=CIRCLE('',#1053,1.);
#378=CIRCLE('',#1056,1.);
#379=CIRCLE('',#1057,1.);
#380=CIRCLE('',#1059,12.);
#381=CIRCLE('',#1060,1.9);
#382=CIRCLE('',#1061,1.9);
#383=CIRCLE('',#1062,1.99999999999999);
#384=CIRCLE('',#1063,1.99999999999999);
#385=CIRCLE('',#1067,0.5);
#386=CIRCLE('',#1068,0.5);
#387=CIRCLE('',#1071,2.75000000000006);
#388=CIRCLE('',#1072,2.74999999999999);
#389=CIRCLE('',#1073,2.74999999999999);
#390=CIRCLE('',#1074,2.74999999999999);
#391=CIRCLE('',#1076,2.);
#392=CIRCLE('',#1077,2.);
#393=CIRCLE('',#1079,2.);
#394=CIRCLE('',#1082,2.5);
#395=CIRCLE('',#1083,4.);
#396=CIRCLE('',#1086,2.74999999999999);
#397=CIRCLE('',#1088,4.4750000000024);
#398=CIRCLE('',#1089,5.00308975726767);
#399=CIRCLE('',#1090,5.00308975726537);
#400=CIRCLE('',#1091,4.65000000000003);
#401=CIRCLE('',#1092,5.17808979545137);
#402=CIRCLE('',#1093,5.17808979545129);
#403=CIRCLE('',#1095,2.);
#404=CIRCLE('',#1097,4.65000000000003);
#405=CIRCLE('',#1098,5.17808979545129);
#406=CIRCLE('',#1099,5.17808979545137);
#407=CIRCLE('',#1100,4.4750000000024);
#408=CIRCLE('',#1101,5.00308975726537);
#409=CIRCLE('',#1102,5.00308975726767);
#410=CIRCLE('',#1105,2.74999999999999);
#411=CIRCLE('',#1106,2.75000000000006);
#412=CIRCLE('',#1107,2.74999999999999);
#413=CIRCLE('',#1108,1.25);
#414=CIRCLE('',#1109,1.25);
#415=CIRCLE('',#1110,1.25);
#416=CIRCLE('',#1111,1.25);
#417=CIRCLE('',#1113,12.);
#418=CIRCLE('',#1114,1.9);
#419=CIRCLE('',#1115,1.9);
#420=CIRCLE('',#1116,1.99999999999999);
#421=CIRCLE('',#1117,1.99999999999999);
#422=CIRCLE('',#1129,2.5);
#423=CIRCLE('',#1130,4.);
#424=CIRCLE('',#1138,1.25);
#425=CIRCLE('',#1140,1.25);
#426=CIRCLE('',#1142,1.25);
#427=CIRCLE('',#1144,1.25);
#428=VERTEX_POINT('',#1463);
#429=VERTEX_POINT('',#1464);
#430=VERTEX_POINT('',#1466);
#431=VERTEX_POINT('',#1468);
#432=VERTEX_POINT('',#1472);
#433=VERTEX_POINT('',#1474);
#434=VERTEX_POINT('',#1478);
#435=VERTEX_POINT('',#1480);
#436=VERTEX_POINT('',#1484);
#437=VERTEX_POINT('',#1486);
#438=VERTEX_POINT('',#1488);
#439=VERTEX_POINT('',#1490);
#440=VERTEX_POINT('',#1492);
#441=VERTEX_POINT('',#1494);
#442=VERTEX_POINT('',#1497);
#443=VERTEX_POINT('',#1499);
#444=VERTEX_POINT('',#1501);
#445=VERTEX_POINT('',#1503);
#446=VERTEX_POINT('',#1506);
#447=VERTEX_POINT('',#1510);
#448=VERTEX_POINT('',#1514);
#449=VERTEX_POINT('',#1515);
#450=VERTEX_POINT('',#1517);
#451=VERTEX_POINT('',#1519);
#452=VERTEX_POINT('',#1523);
#453=VERTEX_POINT('',#1525);
#454=VERTEX_POINT('',#1527);
#455=VERTEX_POINT('',#1531);
#456=VERTEX_POINT('',#1533);
#457=VERTEX_POINT('',#1535);
#458=VERTEX_POINT('',#1537);
#459=VERTEX_POINT('',#1539);
#460=VERTEX_POINT('',#1541);
#461=VERTEX_POINT('',#1543);
#462=VERTEX_POINT('',#1547);
#463=VERTEX_POINT('',#1548);
#464=VERTEX_POINT('',#1550);
#465=VERTEX_POINT('',#1552);
#466=VERTEX_POINT('',#1556);
#467=VERTEX_POINT('',#1558);
#468=VERTEX_POINT('',#1560);
#469=VERTEX_POINT('',#1562);
#470=VERTEX_POINT('',#1566);
#471=VERTEX_POINT('',#1570);
#472=VERTEX_POINT('',#1573);
#473=VERTEX_POINT('',#1575);
#474=VERTEX_POINT('',#1577);
#475=VERTEX_POINT('',#1578);
#476=VERTEX_POINT('',#1580);
#477=VERTEX_POINT('',#1582);
#478=VERTEX_POINT('',#1586);
#479=VERTEX_POINT('',#1597);
#480=VERTEX_POINT('',#1610);
#481=VERTEX_POINT('',#1612);
#482=VERTEX_POINT('',#1616);
#483=VERTEX_POINT('',#1619);
#484=VERTEX_POINT('',#1620);
#485=VERTEX_POINT('',#1622);
#486=VERTEX_POINT('',#1625);
#487=VERTEX_POINT('',#1626);
#488=VERTEX_POINT('',#1628);
#489=VERTEX_POINT('',#1632);
#490=VERTEX_POINT('',#1636);
#491=VERTEX_POINT('',#1639);
#492=VERTEX_POINT('',#1640);
#493=VERTEX_POINT('',#1642);
#494=VERTEX_POINT('',#1645);
#495=VERTEX_POINT('',#1646);
#496=VERTEX_POINT('',#1648);
#497=VERTEX_POINT('',#1655);
#498=VERTEX_POINT('',#1658);
#499=VERTEX_POINT('',#1660);
#500=VERTEX_POINT('',#1662);
#501=VERTEX_POINT('',#1664);
#502=VERTEX_POINT('',#1667);
#503=VERTEX_POINT('',#1669);
#504=VERTEX_POINT('',#1672);
#505=VERTEX_POINT('',#1674);
#506=VERTEX_POINT('',#1676);
#507=VERTEX_POINT('',#1678);
#508=VERTEX_POINT('',#1681);
#509=VERTEX_POINT('',#1683);
#510=VERTEX_POINT('',#1687);
#511=VERTEX_POINT('',#1689);
#512=VERTEX_POINT('',#1691);
#513=VERTEX_POINT('',#1693);
#514=VERTEX_POINT('',#1716);
#515=VERTEX_POINT('',#1718);
#516=VERTEX_POINT('',#1720);
#517=VERTEX_POINT('',#1721);
#518=VERTEX_POINT('',#1723);
#519=VERTEX_POINT('',#1725);
#520=VERTEX_POINT('',#1741);
#521=VERTEX_POINT('',#1744);
#522=VERTEX_POINT('',#1747);
#523=VERTEX_POINT('',#1750);
#524=EDGE_CURVE('',#428,#429,#376,.T.);
#525=EDGE_CURVE('',#428,#430,#196,.T.);
#526=EDGE_CURVE('',#430,#431,#377,.T.);
#527=EDGE_CURVE('',#431,#429,#197,.T.);
#528=EDGE_CURVE('',#432,#428,#198,.T.);
#529=EDGE_CURVE('',#433,#432,#199,.T.);
#530=EDGE_CURVE('',#433,#430,#200,.T.);
#531=EDGE_CURVE('',#434,#432,#378,.T.);
#532=EDGE_CURVE('',#434,#435,#201,.T.);
#533=EDGE_CURVE('',#435,#433,#379,.T.);
#534=EDGE_CURVE('',#429,#436,#202,.T.);
#535=EDGE_CURVE('',#437,#436,#203,.T.);
#536=EDGE_CURVE('',#437,#438,#204,.T.);
#537=EDGE_CURVE('',#438,#439,#380,.T.);
#538=EDGE_CURVE('',#439,#440,#205,.T.);
#539=EDGE_CURVE('',#441,#440,#206,.T.);
#540=EDGE_CURVE('',#441,#434,#207,.T.);
#541=EDGE_CURVE('',#442,#442,#381,.F.);
#542=EDGE_CURVE('',#443,#443,#382,.F.);
#543=EDGE_CURVE('',#444,#444,#383,.F.);
#544=EDGE_CURVE('',#445,#445,#384,.F.);
#545=EDGE_CURVE('',#431,#446,#208,.T.);
#546=EDGE_CURVE('',#436,#446,#209,.T.);
#547=EDGE_CURVE('',#447,#441,#210,.T.);
#548=EDGE_CURVE('',#435,#447,#211,.F.);
#549=EDGE_CURVE('',#448,#449,#385,.T.);
#550=EDGE_CURVE('',#448,#450,#212,.T.);
#551=EDGE_CURVE('',#451,#450,#386,.T.);
#552=EDGE_CURVE('',#451,#449,#213,.T.);
#553=EDGE_CURVE('',#452,#450,#214,.T.);
#554=EDGE_CURVE('',#452,#453,#215,.T.);
#555=EDGE_CURVE('',#454,#453,#216,.T.);
#556=EDGE_CURVE('',#454,#451,#217,.T.);
#557=EDGE_CURVE('',#455,#448,#218,.T.);
#558=EDGE_CURVE('',#456,#455,#387,.T.);
#559=EDGE_CURVE('',#456,#457,#219,.T.);
#560=EDGE_CURVE('',#458,#457,#388,.T.);
#561=EDGE_CURVE('',#459,#458,#220,.T.);
#562=EDGE_CURVE('',#460,#459,#389,.T.);
#563=EDGE_CURVE('',#461,#460,#221,.T.);
#564=EDGE_CURVE('',#452,#461,#390,.T.);
#565=EDGE_CURVE('',#462,#463,#391,.T.);
#566=EDGE_CURVE('',#463,#464,#222,.T.);
#567=EDGE_CURVE('',#464,#465,#392,.T.);
#568=EDGE_CURVE('',#465,#462,#223,.T.);
#569=EDGE_CURVE('',#466,#464,#224,.F.);
#570=EDGE_CURVE('',#467,#466,#393,.T.);
#571=EDGE_CURVE('',#468,#467,#225,.F.);
#572=EDGE_CURVE('',#469,#468,#226,.F.);
#573=EDGE_CURVE('',#465,#469,#227,.T.);
#574=EDGE_CURVE('',#470,#463,#228,.T.);
#575=EDGE_CURVE('',#466,#470,#229,.T.);
#576=EDGE_CURVE('',#471,#469,#230,.T.);
#577=EDGE_CURVE('',#462,#471,#231,.F.);
#578=EDGE_CURVE('',#472,#472,#394,.F.);
#579=EDGE_CURVE('',#473,#473,#395,.F.);
#580=EDGE_CURVE('',#474,#475,#232,.F.);
#581=EDGE_CURVE('',#474,#476,#233,.F.);
#582=EDGE_CURVE('',#476,#477,#234,.F.);
#583=EDGE_CURVE('',#477,#475,#235,.F.);
#584=EDGE_CURVE('',#478,#458,#15,.T.);
#585=EDGE_CURVE('',#478,#479,#236,.T.);
#586=EDGE_CURVE('',#459,#479,#16,.T.);
#587=EDGE_CURVE('',#480,#479,#237,.T.);
#588=EDGE_CURVE('',#481,#480,#396,.T.);
#589=EDGE_CURVE('',#481,#460,#238,.T.);
#590=EDGE_CURVE('',#482,#478,#239,.T.);
#591=EDGE_CURVE('',#480,#482,#240,.T.);
#592=EDGE_CURVE('',#483,#484,#397,.T.);
#593=EDGE_CURVE('',#484,#485,#398,.T.);
#594=EDGE_CURVE('',#485,#483,#399,.T.);
#595=EDGE_CURVE('',#486,#487,#400,.T.);
#596=EDGE_CURVE('',#487,#488,#401,.T.);
#597=EDGE_CURVE('',#488,#486,#402,.T.);
#598=EDGE_CURVE('',#470,#489,#403,.T.);
#599=EDGE_CURVE('',#489,#467,#241,.T.);
#600=EDGE_CURVE('',#490,#489,#242,.T.);
#601=EDGE_CURVE('',#468,#490,#243,.T.);
#602=EDGE_CURVE('',#491,#492,#404,.T.);
#603=EDGE_CURVE('',#492,#493,#405,.T.);
#604=EDGE_CURVE('',#493,#491,#406,.T.);
#605=EDGE_CURVE('',#494,#495,#407,.T.);
#606=EDGE_CURVE('',#495,#496,#408,.T.);
#607=EDGE_CURVE('',#496,#494,#409,.T.);
#608=EDGE_CURVE('',#490,#447,#244,.T.);
#609=EDGE_CURVE('',#446,#471,#245,.T.);
#610=EDGE_CURVE('',#497,#440,#246,.T.);
#611=EDGE_CURVE('',#497,#481,#247,.T.);
#612=EDGE_CURVE('',#482,#498,#410,.T.);
#613=EDGE_CURVE('',#498,#499,#248,.T.);
#614=EDGE_CURVE('',#499,#500,#411,.T.);
#615=EDGE_CURVE('',#500,#501,#249,.T.);
#616=EDGE_CURVE('',#501,#454,#250,.T.);
#617=EDGE_CURVE('',#453,#502,#412,.T.);
#618=EDGE_CURVE('',#502,#503,#251,.T.);
#619=EDGE_CURVE('',#437,#503,#252,.T.);
#620=EDGE_CURVE('',#504,#504,#413,.T.);
#621=EDGE_CURVE('',#505,#505,#414,.T.);
#622=EDGE_CURVE('',#506,#506,#415,.T.);
#623=EDGE_CURVE('',#507,#507,#416,.T.);
#624=EDGE_CURVE('',#508,#497,#253,.T.);
#625=EDGE_CURVE('',#508,#509,#417,.T.);
#626=EDGE_CURVE('',#503,#509,#254,.T.);
#627=EDGE_CURVE('',#502,#461,#255,.T.);
#628=EDGE_CURVE('',#510,#510,#418,.T.);
#629=EDGE_CURVE('',#511,#511,#419,.T.);
#630=EDGE_CURVE('',#512,#512,#420,.T.);
#631=EDGE_CURVE('',#513,#513,#421,.T.);
#632=EDGE_CURVE('',#439,#508,#256,.T.);
#633=EDGE_CURVE('',#438,#509,#257,.T.);
#634=EDGE_CURVE('',#493,#488,#258,.T.);
#635=EDGE_CURVE('',#492,#486,#259,.T.);
#636=EDGE_CURVE('',#491,#487,#260,.T.);
#637=EDGE_CURVE('',#496,#485,#261,.T.);
#638=EDGE_CURVE('',#495,#483,#262,.T.);
#639=EDGE_CURVE('',#494,#484,#263,.T.);
#640=EDGE_CURVE('',#449,#501,#264,.T.);
#641=EDGE_CURVE('',#500,#455,#265,.T.);
#642=EDGE_CURVE('',#514,#514,#422,.T.);
#643=EDGE_CURVE('',#515,#515,#423,.T.);
#644=EDGE_CURVE('',#516,#517,#266,.T.);
#645=EDGE_CURVE('',#518,#516,#267,.T.);
#646=EDGE_CURVE('',#519,#518,#268,.T.);
#647=EDGE_CURVE('',#517,#519,#269,.T.);
#648=EDGE_CURVE('',#516,#477,#270,.T.);
#649=EDGE_CURVE('',#518,#476,#271,.T.);
#650=EDGE_CURVE('',#517,#475,#272,.T.);
#651=EDGE_CURVE('',#472,#514,#273,.T.);
#652=EDGE_CURVE('',#473,#515,#274,.T.);
#653=EDGE_CURVE('',#474,#519,#275,.T.);
#654=EDGE_CURVE('',#520,#520,#424,.T.);
#655=EDGE_CURVE('',#521,#521,#425,.T.);
#656=EDGE_CURVE('',#522,#522,#426,.T.);
#657=EDGE_CURVE('',#523,#523,#427,.T.);
#658=EDGE_CURVE('',#499,#456,#276,.T.);
#659=EDGE_CURVE('',#498,#457,#277,.F.);
#660=EDGE_CURVE('',#505,#520,#278,.T.);
#661=EDGE_CURVE('',#504,#521,#279,.T.);
#662=EDGE_CURVE('',#507,#522,#280,.T.);
#663=EDGE_CURVE('',#506,#523,#281,.T.);
#664=EDGE_CURVE('',#444,#512,#282,.T.);
#665=EDGE_CURVE('',#443,#511,#283,.T.);
#666=EDGE_CURVE('',#442,#510,#284,.T.);
#667=EDGE_CURVE('',#445,#513,#285,.T.);
#668=ORIENTED_EDGE('',*,*,#524,.F.);
#669=ORIENTED_EDGE('',*,*,#525,.T.);
#670=ORIENTED_EDGE('',*,*,#526,.T.);
#671=ORIENTED_EDGE('',*,*,#527,.T.);
#672=ORIENTED_EDGE('',*,*,#525,.F.);
#673=ORIENTED_EDGE('',*,*,#528,.F.);
#674=ORIENTED_EDGE('',*,*,#529,.F.);
#675=ORIENTED_EDGE('',*,*,#530,.T.);
#676=ORIENTED_EDGE('',*,*,#531,.F.);
#677=ORIENTED_EDGE('',*,*,#532,.T.);
#678=ORIENTED_EDGE('',*,*,#533,.T.);
#679=ORIENTED_EDGE('',*,*,#529,.T.);
#680=ORIENTED_EDGE('',*,*,#524,.T.);
#681=ORIENTED_EDGE('',*,*,#534,.T.);
#682=ORIENTED_EDGE('',*,*,#535,.F.);
#683=ORIENTED_EDGE('',*,*,#536,.T.);
#684=ORIENTED_EDGE('',*,*,#537,.T.);
#685=ORIENTED_EDGE('',*,*,#538,.T.);
#686=ORIENTED_EDGE('',*,*,#539,.F.);
#687=ORIENTED_EDGE('',*,*,#540,.T.);
#688=ORIENTED_EDGE('',*,*,#531,.T.);
#689=ORIENTED_EDGE('',*,*,#528,.T.);
#690=ORIENTED_EDGE('',*,*,#541,.T.);
#691=ORIENTED_EDGE('',*,*,#542,.T.);
#692=ORIENTED_EDGE('',*,*,#543,.F.);
#693=ORIENTED_EDGE('',*,*,#544,.F.);
#694=ORIENTED_EDGE('',*,*,#527,.F.);
#695=ORIENTED_EDGE('',*,*,#545,.T.);
#696=ORIENTED_EDGE('',*,*,#546,.F.);
#697=ORIENTED_EDGE('',*,*,#534,.F.);
#698=ORIENTED_EDGE('',*,*,#532,.F.);
#699=ORIENTED_EDGE('',*,*,#540,.F.);
#700=ORIENTED_EDGE('',*,*,#547,.F.);
#701=ORIENTED_EDGE('',*,*,#548,.F.);
#702=ORIENTED_EDGE('',*,*,#549,.F.);
#703=ORIENTED_EDGE('',*,*,#550,.T.);
#704=ORIENTED_EDGE('',*,*,#551,.F.);
#705=ORIENTED_EDGE('',*,*,#552,.T.);
#706=ORIENTED_EDGE('',*,*,#551,.T.);
#707=ORIENTED_EDGE('',*,*,#553,.F.);
#708=ORIENTED_EDGE('',*,*,#554,.T.);
#709=ORIENTED_EDGE('',*,*,#555,.F.);
#710=ORIENTED_EDGE('',*,*,#556,.T.);
#711=ORIENTED_EDGE('',*,*,#550,.F.);
#712=ORIENTED_EDGE('',*,*,#557,.F.);
#713=ORIENTED_EDGE('',*,*,#558,.F.);
#714=ORIENTED_EDGE('',*,*,#559,.T.);
#715=ORIENTED_EDGE('',*,*,#560,.F.);
#716=ORIENTED_EDGE('',*,*,#561,.F.);
#717=ORIENTED_EDGE('',*,*,#562,.F.);
#718=ORIENTED_EDGE('',*,*,#563,.F.);
#719=ORIENTED_EDGE('',*,*,#564,.F.);
#720=ORIENTED_EDGE('',*,*,#553,.T.);
#721=ORIENTED_EDGE('',*,*,#565,.T.);
#722=ORIENTED_EDGE('',*,*,#566,.T.);
#723=ORIENTED_EDGE('',*,*,#567,.T.);
#724=ORIENTED_EDGE('',*,*,#568,.T.);
#725=ORIENTED_EDGE('',*,*,#567,.F.);
#726=ORIENTED_EDGE('',*,*,#569,.F.);
#727=ORIENTED_EDGE('',*,*,#570,.F.);
#728=ORIENTED_EDGE('',*,*,#571,.F.);
#729=ORIENTED_EDGE('',*,*,#572,.F.);
#730=ORIENTED_EDGE('',*,*,#573,.F.);
#731=ORIENTED_EDGE('',*,*,#566,.F.);
#732=ORIENTED_EDGE('',*,*,#574,.F.);
#733=ORIENTED_EDGE('',*,*,#575,.F.);
#734=ORIENTED_EDGE('',*,*,#569,.T.);
#735=ORIENTED_EDGE('',*,*,#568,.F.);
#736=ORIENTED_EDGE('',*,*,#573,.T.);
#737=ORIENTED_EDGE('',*,*,#576,.F.);
#738=ORIENTED_EDGE('',*,*,#577,.F.);
#739=ORIENTED_EDGE('',*,*,#578,.T.);
#740=ORIENTED_EDGE('',*,*,#579,.T.);
#741=ORIENTED_EDGE('',*,*,#580,.F.);
#742=ORIENTED_EDGE('',*,*,#581,.T.);
#743=ORIENTED_EDGE('',*,*,#582,.T.);
#744=ORIENTED_EDGE('',*,*,#583,.T.);
#745=ORIENTED_EDGE('',*,*,#584,.F.);
#746=ORIENTED_EDGE('',*,*,#585,.T.);
#747=ORIENTED_EDGE('',*,*,#586,.F.);
#748=ORIENTED_EDGE('',*,*,#561,.T.);
#749=ORIENTED_EDGE('',*,*,#586,.T.);
#750=ORIENTED_EDGE('',*,*,#587,.F.);
#751=ORIENTED_EDGE('',*,*,#588,.F.);
#752=ORIENTED_EDGE('',*,*,#589,.T.);
#753=ORIENTED_EDGE('',*,*,#562,.T.);
#754=ORIENTED_EDGE('',*,*,#585,.F.);
#755=ORIENTED_EDGE('',*,*,#590,.F.);
#756=ORIENTED_EDGE('',*,*,#591,.F.);
#757=ORIENTED_EDGE('',*,*,#587,.T.);
#758=ORIENTED_EDGE('',*,*,#592,.T.);
#759=ORIENTED_EDGE('',*,*,#593,.T.);
#760=ORIENTED_EDGE('',*,*,#594,.T.);
#761=ORIENTED_EDGE('',*,*,#595,.T.);
#762=ORIENTED_EDGE('',*,*,#596,.T.);
#763=ORIENTED_EDGE('',*,*,#597,.T.);
#764=ORIENTED_EDGE('',*,*,#598,.T.);
#765=ORIENTED_EDGE('',*,*,#599,.T.);
#766=ORIENTED_EDGE('',*,*,#570,.T.);
#767=ORIENTED_EDGE('',*,*,#575,.T.);
#768=ORIENTED_EDGE('',*,*,#599,.F.);
#769=ORIENTED_EDGE('',*,*,#600,.F.);
#770=ORIENTED_EDGE('',*,*,#601,.F.);
#771=ORIENTED_EDGE('',*,*,#571,.T.);
#772=ORIENTED_EDGE('',*,*,#602,.T.);
#773=ORIENTED_EDGE('',*,*,#603,.T.);
#774=ORIENTED_EDGE('',*,*,#604,.T.);
#775=ORIENTED_EDGE('',*,*,#605,.T.);
#776=ORIENTED_EDGE('',*,*,#606,.T.);
#777=ORIENTED_EDGE('',*,*,#607,.T.);
#778=ORIENTED_EDGE('',*,*,#526,.F.);
#779=ORIENTED_EDGE('',*,*,#530,.F.);
#780=ORIENTED_EDGE('',*,*,#533,.F.);
#781=ORIENTED_EDGE('',*,*,#548,.T.);
#782=ORIENTED_EDGE('',*,*,#608,.F.);
#783=ORIENTED_EDGE('',*,*,#600,.T.);
#784=ORIENTED_EDGE('',*,*,#598,.F.);
#785=ORIENTED_EDGE('',*,*,#574,.T.);
#786=ORIENTED_EDGE('',*,*,#565,.F.);
#787=ORIENTED_EDGE('',*,*,#577,.T.);
#788=ORIENTED_EDGE('',*,*,#609,.F.);
#789=ORIENTED_EDGE('',*,*,#545,.F.);
#790=ORIENTED_EDGE('',*,*,#539,.T.);
#791=ORIENTED_EDGE('',*,*,#610,.F.);
#792=ORIENTED_EDGE('',*,*,#611,.T.);
#793=ORIENTED_EDGE('',*,*,#588,.T.);
#794=ORIENTED_EDGE('',*,*,#591,.T.);
#795=ORIENTED_EDGE('',*,*,#612,.T.);
#796=ORIENTED_EDGE('',*,*,#613,.T.);
#797=ORIENTED_EDGE('',*,*,#614,.T.);
#798=ORIENTED_EDGE('',*,*,#615,.T.);
#799=ORIENTED_EDGE('',*,*,#616,.T.);
#800=ORIENTED_EDGE('',*,*,#555,.T.);
#801=ORIENTED_EDGE('',*,*,#617,.T.);
#802=ORIENTED_EDGE('',*,*,#618,.T.);
#803=ORIENTED_EDGE('',*,*,#619,.F.);
#804=ORIENTED_EDGE('',*,*,#535,.T.);
#805=ORIENTED_EDGE('',*,*,#546,.T.);
#806=ORIENTED_EDGE('',*,*,#609,.T.);
#807=ORIENTED_EDGE('',*,*,#576,.T.);
#808=ORIENTED_EDGE('',*,*,#572,.T.);
#809=ORIENTED_EDGE('',*,*,#601,.T.);
#810=ORIENTED_EDGE('',*,*,#608,.T.);
#811=ORIENTED_EDGE('',*,*,#547,.T.);
#812=ORIENTED_EDGE('',*,*,#620,.T.);
#813=ORIENTED_EDGE('',*,*,#621,.T.);
#814=ORIENTED_EDGE('',*,*,#622,.T.);
#815=ORIENTED_EDGE('',*,*,#623,.T.);
#816=ORIENTED_EDGE('',*,*,#611,.F.);
#817=ORIENTED_EDGE('',*,*,#624,.F.);
#818=ORIENTED_EDGE('',*,*,#625,.T.);
#819=ORIENTED_EDGE('',*,*,#626,.F.);
#820=ORIENTED_EDGE('',*,*,#618,.F.);
#821=ORIENTED_EDGE('',*,*,#627,.T.);
#822=ORIENTED_EDGE('',*,*,#563,.T.);
#823=ORIENTED_EDGE('',*,*,#589,.F.);
#824=ORIENTED_EDGE('',*,*,#628,.T.);
#825=ORIENTED_EDGE('',*,*,#629,.T.);
#826=ORIENTED_EDGE('',*,*,#630,.F.);
#827=ORIENTED_EDGE('',*,*,#631,.F.);
#828=ORIENTED_EDGE('',*,*,#625,.F.);
#829=ORIENTED_EDGE('',*,*,#632,.F.);
#830=ORIENTED_EDGE('',*,*,#537,.F.);
#831=ORIENTED_EDGE('',*,*,#633,.T.);
#832=ORIENTED_EDGE('',*,*,#538,.F.);
#833=ORIENTED_EDGE('',*,*,#632,.T.);
#834=ORIENTED_EDGE('',*,*,#624,.T.);
#835=ORIENTED_EDGE('',*,*,#610,.T.);
#836=ORIENTED_EDGE('',*,*,#626,.T.);
#837=ORIENTED_EDGE('',*,*,#633,.F.);
#838=ORIENTED_EDGE('',*,*,#536,.F.);
#839=ORIENTED_EDGE('',*,*,#619,.T.);
#840=ORIENTED_EDGE('',*,*,#597,.F.);
#841=ORIENTED_EDGE('',*,*,#634,.F.);
#842=ORIENTED_EDGE('',*,*,#603,.F.);
#843=ORIENTED_EDGE('',*,*,#635,.T.);
#844=ORIENTED_EDGE('',*,*,#595,.F.);
#845=ORIENTED_EDGE('',*,*,#635,.F.);
#846=ORIENTED_EDGE('',*,*,#602,.F.);
#847=ORIENTED_EDGE('',*,*,#636,.T.);
#848=ORIENTED_EDGE('',*,*,#596,.F.);
#849=ORIENTED_EDGE('',*,*,#636,.F.);
#850=ORIENTED_EDGE('',*,*,#604,.F.);
#851=ORIENTED_EDGE('',*,*,#634,.T.);
#852=ORIENTED_EDGE('',*,*,#594,.F.);
#853=ORIENTED_EDGE('',*,*,#637,.F.);
#854=ORIENTED_EDGE('',*,*,#606,.F.);
#855=ORIENTED_EDGE('',*,*,#638,.T.);
#856=ORIENTED_EDGE('',*,*,#592,.F.);
#857=ORIENTED_EDGE('',*,*,#638,.F.);
#858=ORIENTED_EDGE('',*,*,#605,.F.);
#859=ORIENTED_EDGE('',*,*,#639,.T.);
#860=ORIENTED_EDGE('',*,*,#593,.F.);
#861=ORIENTED_EDGE('',*,*,#639,.F.);
#862=ORIENTED_EDGE('',*,*,#607,.F.);
#863=ORIENTED_EDGE('',*,*,#637,.T.);
#864=ORIENTED_EDGE('',*,*,#549,.T.);
#865=ORIENTED_EDGE('',*,*,#640,.T.);
#866=ORIENTED_EDGE('',*,*,#615,.F.);
#867=ORIENTED_EDGE('',*,*,#641,.T.);
#868=ORIENTED_EDGE('',*,*,#557,.T.);
#869=ORIENTED_EDGE('',*,*,#552,.F.);
#870=ORIENTED_EDGE('',*,*,#556,.F.);
#871=ORIENTED_EDGE('',*,*,#616,.F.);
#872=ORIENTED_EDGE('',*,*,#640,.F.);
#873=ORIENTED_EDGE('',*,*,#642,.F.);
#874=ORIENTED_EDGE('',*,*,#643,.F.);
#875=ORIENTED_EDGE('',*,*,#644,.F.);
#876=ORIENTED_EDGE('',*,*,#645,.F.);
#877=ORIENTED_EDGE('',*,*,#646,.F.);
#878=ORIENTED_EDGE('',*,*,#647,.F.);
#879=ORIENTED_EDGE('',*,*,#645,.T.);
#880=ORIENTED_EDGE('',*,*,#648,.T.);
#881=ORIENTED_EDGE('',*,*,#582,.F.);
#882=ORIENTED_EDGE('',*,*,#649,.F.);
#883=ORIENTED_EDGE('',*,*,#644,.T.);
#884=ORIENTED_EDGE('',*,*,#650,.T.);
#885=ORIENTED_EDGE('',*,*,#583,.F.);
#886=ORIENTED_EDGE('',*,*,#648,.F.);
#887=ORIENTED_EDGE('',*,*,#578,.F.);
#888=ORIENTED_EDGE('',*,*,#651,.T.);
#889=ORIENTED_EDGE('',*,*,#642,.T.);
#890=ORIENTED_EDGE('',*,*,#651,.F.);
#891=ORIENTED_EDGE('',*,*,#579,.F.);
#892=ORIENTED_EDGE('',*,*,#652,.T.);
#893=ORIENTED_EDGE('',*,*,#643,.T.);
#894=ORIENTED_EDGE('',*,*,#652,.F.);
#895=ORIENTED_EDGE('',*,*,#647,.T.);
#896=ORIENTED_EDGE('',*,*,#653,.F.);
#897=ORIENTED_EDGE('',*,*,#580,.T.);
#898=ORIENTED_EDGE('',*,*,#650,.F.);
#899=ORIENTED_EDGE('',*,*,#646,.T.);
#900=ORIENTED_EDGE('',*,*,#649,.T.);
#901=ORIENTED_EDGE('',*,*,#581,.F.);
#902=ORIENTED_EDGE('',*,*,#653,.T.);
#903=ORIENTED_EDGE('',*,*,#654,.F.);
#904=ORIENTED_EDGE('',*,*,#655,.F.);
#905=ORIENTED_EDGE('',*,*,#656,.F.);
#906=ORIENTED_EDGE('',*,*,#657,.F.);
#907=ORIENTED_EDGE('',*,*,#658,.T.);
#908=ORIENTED_EDGE('',*,*,#558,.T.);
#909=ORIENTED_EDGE('',*,*,#641,.F.);
#910=ORIENTED_EDGE('',*,*,#614,.F.);
#911=ORIENTED_EDGE('',*,*,#659,.T.);
#912=ORIENTED_EDGE('',*,*,#559,.F.);
#913=ORIENTED_EDGE('',*,*,#658,.F.);
#914=ORIENTED_EDGE('',*,*,#613,.F.);
#915=ORIENTED_EDGE('',*,*,#584,.T.);
#916=ORIENTED_EDGE('',*,*,#560,.T.);
#917=ORIENTED_EDGE('',*,*,#659,.F.);
#918=ORIENTED_EDGE('',*,*,#612,.F.);
#919=ORIENTED_EDGE('',*,*,#590,.T.);
#920=ORIENTED_EDGE('',*,*,#621,.F.);
#921=ORIENTED_EDGE('',*,*,#660,.T.);
#922=ORIENTED_EDGE('',*,*,#654,.T.);
#923=ORIENTED_EDGE('',*,*,#660,.F.);
#924=ORIENTED_EDGE('',*,*,#620,.F.);
#925=ORIENTED_EDGE('',*,*,#661,.T.);
#926=ORIENTED_EDGE('',*,*,#655,.T.);
#927=ORIENTED_EDGE('',*,*,#661,.F.);
#928=ORIENTED_EDGE('',*,*,#623,.F.);
#929=ORIENTED_EDGE('',*,*,#662,.T.);
#930=ORIENTED_EDGE('',*,*,#656,.T.);
#931=ORIENTED_EDGE('',*,*,#662,.F.);
#932=ORIENTED_EDGE('',*,*,#622,.F.);
#933=ORIENTED_EDGE('',*,*,#663,.T.);
#934=ORIENTED_EDGE('',*,*,#657,.T.);
#935=ORIENTED_EDGE('',*,*,#663,.F.);
#936=ORIENTED_EDGE('',*,*,#543,.T.);
#937=ORIENTED_EDGE('',*,*,#664,.T.);
#938=ORIENTED_EDGE('',*,*,#630,.T.);
#939=ORIENTED_EDGE('',*,*,#664,.F.);
#940=ORIENTED_EDGE('',*,*,#542,.F.);
#941=ORIENTED_EDGE('',*,*,#665,.T.);
#942=ORIENTED_EDGE('',*,*,#629,.F.);
#943=ORIENTED_EDGE('',*,*,#665,.F.);
#944=ORIENTED_EDGE('',*,*,#541,.F.);
#945=ORIENTED_EDGE('',*,*,#666,.T.);
#946=ORIENTED_EDGE('',*,*,#628,.F.);
#947=ORIENTED_EDGE('',*,*,#666,.F.);
#948=ORIENTED_EDGE('',*,*,#554,.F.);
#949=ORIENTED_EDGE('',*,*,#564,.T.);
#950=ORIENTED_EDGE('',*,*,#627,.F.);
#951=ORIENTED_EDGE('',*,*,#617,.F.);
#952=ORIENTED_EDGE('',*,*,#544,.T.);
#953=ORIENTED_EDGE('',*,*,#667,.T.);
#954=ORIENTED_EDGE('',*,*,#631,.T.);
#955=ORIENTED_EDGE('',*,*,#667,.F.);
#956=CYLINDRICAL_SURFACE('',#1051,1.);
#957=CYLINDRICAL_SURFACE('',#1055,1.);
#958=CYLINDRICAL_SURFACE('',#1066,0.5);
#959=CYLINDRICAL_SURFACE('',#1075,2.);
#960=CYLINDRICAL_SURFACE('',#1084,0.5);
#961=CYLINDRICAL_SURFACE('',#1085,2.74999999999999);
#962=CYLINDRICAL_SURFACE('',#1094,2.);
#963=CYLINDRICAL_SURFACE('',#1118,12.);
#964=CYLINDRICAL_SURFACE('',#1121,5.17808979545129);
#965=CYLINDRICAL_SURFACE('',#1122,4.65000000000003);
#966=CYLINDRICAL_SURFACE('',#1123,5.17808979545137);
#967=CYLINDRICAL_SURFACE('',#1124,5.00308975726537);
#968=CYLINDRICAL_SURFACE('',#1125,4.4750000000024);
#969=CYLINDRICAL_SURFACE('',#1126,5.00308975726767);
#970=CYLINDRICAL_SURFACE('',#1133,2.5);
#971=CYLINDRICAL_SURFACE('',#1134,4.);
#972=CYLINDRICAL_SURFACE('',#1145,2.75000000000006);
#973=CYLINDRICAL_SURFACE('',#1147,2.74999999999999);
#974=CYLINDRICAL_SURFACE('',#1148,1.25);
#975=CYLINDRICAL_SURFACE('',#1149,1.25);
#976=CYLINDRICAL_SURFACE('',#1150,1.25);
#977=CYLINDRICAL_SURFACE('',#1151,1.25);
#978=CYLINDRICAL_SURFACE('',#1152,1.99999999999999);
#979=CYLINDRICAL_SURFACE('',#1153,1.9);
#980=CYLINDRICAL_SURFACE('',#1154,1.9);
#981=CYLINDRICAL_SURFACE('',#1155,2.74999999999999);
#982=CYLINDRICAL_SURFACE('',#1156,1.99999999999999);
#983=ADVANCED_FACE('',(#66),#956,.F.);
#984=ADVANCED_FACE('',(#67),#39,.T.);
#985=ADVANCED_FACE('',(#68),#957,.F.);
#986=ADVANCED_FACE('',(#69,#17,#18,#19,#20),#40,.T.);
#987=ADVANCED_FACE('',(#70),#41,.T.);
#988=ADVANCED_FACE('',(#71),#42,.T.);
#989=ADVANCED_FACE('',(#72),#958,.F.);
#990=ADVANCED_FACE('',(#73),#43,.F.);
#991=ADVANCED_FACE('',(#74),#44,.T.);
#992=ADVANCED_FACE('',(#75),#959,.T.);
#993=ADVANCED_FACE('',(#76),#45,.F.);
#994=ADVANCED_FACE('',(#77),#46,.F.);
#995=ADVANCED_FACE('',(#78,#21,#22,#23),#47,.T.);
#996=ADVANCED_FACE('',(#79),#960,.F.);
#997=ADVANCED_FACE('',(#80),#961,.T.);
#998=ADVANCED_FACE('',(#81,#24,#25),#48,.F.);
#999=ADVANCED_FACE('',(#82),#962,.T.);
#1000=ADVANCED_FACE('',(#83,#26,#27),#49,.F.);
#1001=ADVANCED_FACE('',(#84),#50,.T.);
#1002=ADVANCED_FACE('',(#85,#28,#29,#30,#31),#51,.F.);
#1003=ADVANCED_FACE('',(#86,#32,#33,#34,#35),#52,.F.);
#1004=ADVANCED_FACE('',(#87),#963,.F.);
#1005=ADVANCED_FACE('',(#88),#53,.F.);
#1006=ADVANCED_FACE('',(#89),#54,.F.);
#1007=ADVANCED_FACE('',(#90),#964,.F.);
#1008=ADVANCED_FACE('',(#91),#965,.F.);
#1009=ADVANCED_FACE('',(#92),#966,.F.);
#1010=ADVANCED_FACE('',(#93),#967,.F.);
#1011=ADVANCED_FACE('',(#94),#968,.F.);
#1012=ADVANCED_FACE('',(#95),#969,.F.);
#1013=ADVANCED_FACE('',(#96),#55,.F.);
#1014=ADVANCED_FACE('',(#97,#36,#37,#38),#56,.T.);
#1015=ADVANCED_FACE('',(#98),#57,.F.);
#1016=ADVANCED_FACE('',(#99),#58,.F.);
#1017=ADVANCED_FACE('',(#100),#970,.F.);
#1018=ADVANCED_FACE('',(#101),#971,.F.);
#1019=ADVANCED_FACE('',(#102),#59,.T.);
#1020=ADVANCED_FACE('',(#103),#60,.F.);
#1021=ADVANCED_FACE('',(#104),#61,.F.);
#1022=ADVANCED_FACE('',(#105),#62,.F.);
#1023=ADVANCED_FACE('',(#106),#63,.F.);
#1024=ADVANCED_FACE('',(#107),#64,.F.);
#1025=ADVANCED_FACE('',(#108),#972,.T.);
#1026=ADVANCED_FACE('',(#109),#65,.T.);
#1027=ADVANCED_FACE('',(#110),#973,.T.);
#1028=ADVANCED_FACE('',(#111),#974,.F.);
#1029=ADVANCED_FACE('',(#112),#975,.F.);
#1030=ADVANCED_FACE('',(#113),#976,.F.);
#1031=ADVANCED_FACE('',(#114),#977,.F.);
#1032=ADVANCED_FACE('',(#115),#978,.F.);
#1033=ADVANCED_FACE('',(#116),#979,.F.);
#1034=ADVANCED_FACE('',(#117),#980,.F.);
#1035=ADVANCED_FACE('',(#118),#981,.T.);
#1036=ADVANCED_FACE('',(#119),#982,.F.);
#1037=CLOSED_SHELL('',(#983,#984,#985,#986,#987,#988,#989,#990,#991,#992,
#993,#994,#995,#996,#997,#998,#999,#1000,#1001,#1002,#1003,#1004,#1005,
#1006,#1007,#1008,#1009,#1010,#1011,#1012,#1013,#1014,#1015,#1016,#1017,
#1018,#1019,#1020,#1021,#1022,#1023,#1024,#1025,#1026,#1027,#1028,#1029,
#1030,#1031,#1032,#1033,#1034,#1035,#1036));
#1038=DERIVED_UNIT_ELEMENT(#1040,1.);
#1039=DERIVED_UNIT_ELEMENT(#1779,-3.);
#1040=(
MASS_UNIT()
NAMED_UNIT(*)
SI_UNIT(.KILO.,.GRAM.)
);
#1041=DERIVED_UNIT((#1038,#1039));
#1042=MEASURE_REPRESENTATION_ITEM('density measure',
POSITIVE_RATIO_MEASURE(7850.),#1041);
#1043=PROPERTY_DEFINITION_REPRESENTATION(#1048,#1045);
#1044=PROPERTY_DEFINITION_REPRESENTATION(#1049,#1046);
#1045=REPRESENTATION('material name',(#1047),#1776);
#1046=REPRESENTATION('density',(#1042),#1776);
#1047=DESCRIPTIVE_REPRESENTATION_ITEM('Steel','Steel');
#1048=PROPERTY_DEFINITION('material property','material name',#1786);
#1049=PROPERTY_DEFINITION('material property','density of part',#1786);
#1050=AXIS2_PLACEMENT_3D('',#1461,#1157,#1158);
#1051=AXIS2_PLACEMENT_3D('',#1462,#1159,#1160);
#1052=AXIS2_PLACEMENT_3D('',#1465,#1161,#1162);
#1053=AXIS2_PLACEMENT_3D('',#1469,#1164,#1165);
#1054=AXIS2_PLACEMENT_3D('',#1471,#1167,#1168);
#1055=AXIS2_PLACEMENT_3D('',#1477,#1172,#1173);
#1056=AXIS2_PLACEMENT_3D('',#1479,#1174,#1175);
#1057=AXIS2_PLACEMENT_3D('',#1482,#1177,#1178);
#1058=AXIS2_PLACEMENT_3D('',#1483,#1179,#1180);
#1059=AXIS2_PLACEMENT_3D('',#1491,#1184,#1185);
#1060=AXIS2_PLACEMENT_3D('',#1498,#1189,#1190);
#1061=AXIS2_PLACEMENT_3D('',#1500,#1191,#1192);
#1062=AXIS2_PLACEMENT_3D('',#1502,#1193,#1194);
#1063=AXIS2_PLACEMENT_3D('',#1504,#1195,#1196);
#1064=AXIS2_PLACEMENT_3D('',#1505,#1197,#1198);
#1065=AXIS2_PLACEMENT_3D('',#1509,#1201,#1202);
#1066=AXIS2_PLACEMENT_3D('',#1513,#1205,#1206);
#1067=AXIS2_PLACEMENT_3D('',#1516,#1207,#1208);
#1068=AXIS2_PLACEMENT_3D('',#1520,#1210,#1211);
#1069=AXIS2_PLACEMENT_3D('',#1522,#1213,#1214);
#1070=AXIS2_PLACEMENT_3D('',#1530,#1219,#1220);
#1071=AXIS2_PLACEMENT_3D('',#1534,#1222,#1223);
#1072=AXIS2_PLACEMENT_3D('',#1538,#1225,#1226);
#1073=AXIS2_PLACEMENT_3D('',#1542,#1228,#1229);
#1074=AXIS2_PLACEMENT_3D('',#1545,#1231,#1232);
#1075=AXIS2_PLACEMENT_3D('',#1546,#1233,#1234);
#1076=AXIS2_PLACEMENT_3D('',#1549,#1235,#1236);
#1077=AXIS2_PLACEMENT_3D('',#1553,#1238,#1239);
#1078=AXIS2_PLACEMENT_3D('',#1555,#1241,#1242);
#1079=AXIS2_PLACEMENT_3D('',#1559,#1244,#1245);
#1080=AXIS2_PLACEMENT_3D('',#1565,#1249,#1250);
#1081=AXIS2_PLACEMENT_3D('',#1569,#1253,#1254);
#1082=AXIS2_PLACEMENT_3D('',#1574,#1257,#1258);
#1083=AXIS2_PLACEMENT_3D('',#1576,#1259,#1260);
#1084=AXIS2_PLACEMENT_3D('',#1585,#1265,#1266);
#1085=AXIS2_PLACEMENT_3D('',#1609,#1268,#1269);
#1086=AXIS2_PLACEMENT_3D('',#1613,#1271,#1272);
#1087=AXIS2_PLACEMENT_3D('',#1615,#1274,#1275);
#1088=AXIS2_PLACEMENT_3D('',#1621,#1278,#1279);
#1089=AXIS2_PLACEMENT_3D('',#1623,#1280,#1281);
#1090=AXIS2_PLACEMENT_3D('',#1624,#1282,#1283);
#1091=AXIS2_PLACEMENT_3D('',#1627,#1284,#1285);
#1092=AXIS2_PLACEMENT_3D('',#1629,#1286,#1287);
#1093=AXIS2_PLACEMENT_3D('',#1630,#1288,#1289);
#1094=AXIS2_PLACEMENT_3D('',#1631,#1290,#1291);
#1095=AXIS2_PLACEMENT_3D('',#1633,#1292,#1293);
#1096=AXIS2_PLACEMENT_3D('',#1635,#1295,#1296);
#1097=AXIS2_PLACEMENT_3D('',#1641,#1299,#1300);
#1098=AXIS2_PLACEMENT_3D('',#1643,#1301,#1302);
#1099=AXIS2_PLACEMENT_3D('',#1644,#1303,#1304);
#1100=AXIS2_PLACEMENT_3D('',#1647,#1305,#1306);
#1101=AXIS2_PLACEMENT_3D('',#1649,#1307,#1308);
#1102=AXIS2_PLACEMENT_3D('',#1650,#1309,#1310);
#1103=AXIS2_PLACEMENT_3D('',#1651,#1311,#1312);
#1104=AXIS2_PLACEMENT_3D('',#1654,#1315,#1316);
#1105=AXIS2_PLACEMENT_3D('',#1659,#1319,#1320);
#1106=AXIS2_PLACEMENT_3D('',#1663,#1322,#1323);
#1107=AXIS2_PLACEMENT_3D('',#1668,#1326,#1327);
#1108=AXIS2_PLACEMENT_3D('',#1673,#1330,#1331);
#1109=AXIS2_PLACEMENT_3D('',#1675,#1332,#1333);
#1110=AXIS2_PLACEMENT_3D('',#1677,#1334,#1335);
#1111=AXIS2_PLACEMENT_3D('',#1679,#1336,#1337);
#1112=AXIS2_PLACEMENT_3D('',#1680,#1338,#1339);
#1113=AXIS2_PLACEMENT_3D('',#1684,#1341,#1342);
#1114=AXIS2_PLACEMENT_3D('',#1688,#1345,#1346);
#1115=AXIS2_PLACEMENT_3D('',#1690,#1347,#1348);
#1116=AXIS2_PLACEMENT_3D('',#1692,#1349,#1350);
#1117=AXIS2_PLACEMENT_3D('',#1694,#1351,#1352);
#1118=AXIS2_PLACEMENT_3D('',#1695,#1353,#1354);
#1119=AXIS2_PLACEMENT_3D('',#1698,#1357,#1358);
#1120=AXIS2_PLACEMENT_3D('',#1699,#1359,#1360);
#1121=AXIS2_PLACEMENT_3D('',#1700,#1361,#1362);
#1122=AXIS2_PLACEMENT_3D('',#1703,#1365,#1366);
#1123=AXIS2_PLACEMENT_3D('',#1705,#1368,#1369);
#1124=AXIS2_PLACEMENT_3D('',#1706,#1370,#1371);
#1125=AXIS2_PLACEMENT_3D('',#1709,#1374,#1375);
#1126=AXIS2_PLACEMENT_3D('',#1711,#1377,#1378);
#1127=AXIS2_PLACEMENT_3D('',#1712,#1379,#1380);
#1128=AXIS2_PLACEMENT_3D('',#1715,#1383,#1384);
#1129=AXIS2_PLACEMENT_3D('',#1717,#1385,#1386);
#1130=AXIS2_PLACEMENT_3D('',#1719,#1387,#1388);
#1131=AXIS2_PLACEMENT_3D('',#1728,#1393,#1394);
#1132=AXIS2_PLACEMENT_3D('',#1731,#1397,#1398);
#1133=AXIS2_PLACEMENT_3D('',#1733,#1400,#1401);
#1134=AXIS2_PLACEMENT_3D('',#1735,#1403,#1404);
#1135=AXIS2_PLACEMENT_3D('',#1737,#1406,#1407);
#1136=AXIS2_PLACEMENT_3D('',#1739,#1409,#1410);
#1137=AXIS2_PLACEMENT_3D('',#1740,#1411,#1412);
#1138=AXIS2_PLACEMENT_3D('',#1742,#1413,#1414);
#1139=AXIS2_PLACEMENT_3D('',#1743,#1415,#1416);
#1140=AXIS2_PLACEMENT_3D('',#1745,#1417,#1418);
#1141=AXIS2_PLACEMENT_3D('',#1746,#1419,#1420);
#1142=AXIS2_PLACEMENT_3D('',#1748,#1421,#1422);
#1143=AXIS2_PLACEMENT_3D('',#1749,#1423,#1424);
#1144=AXIS2_PLACEMENT_3D('',#1751,#1425,#1426);
#1145=AXIS2_PLACEMENT_3D('',#1752,#1427,#1428);
#1146=AXIS2_PLACEMENT_3D('',#1754,#1430,#1431);
#1147=AXIS2_PLACEMENT_3D('',#1756,#1433,#1434);
#1148=AXIS2_PLACEMENT_3D('',#1757,#1435,#1436);
#1149=AXIS2_PLACEMENT_3D('',#1759,#1438,#1439);
#1150=AXIS2_PLACEMENT_3D('',#1761,#1441,#1442);
#1151=AXIS2_PLACEMENT_3D('',#1763,#1444,#1445);
#1152=AXIS2_PLACEMENT_3D('',#1765,#1447,#1448);
#1153=AXIS2_PLACEMENT_3D('',#1767,#1450,#1451);
#1154=AXIS2_PLACEMENT_3D('',#1769,#1453,#1454);
#1155=AXIS2_PLACEMENT_3D('',#1771,#1456,#1457);
#1156=AXIS2_PLACEMENT_3D('',#1772,#1458,#1459);
#1157=DIRECTION('axis',(0.,0.,1.));
#1158=DIRECTION('refdir',(1.,0.,0.));
#1159=DIRECTION('center_axis',(-1.26217744835362E-29,5.71413472132131E-15,
1.));
#1160=DIRECTION('ref_axis',(-0.70710678118656,-0.707106781186535,0.));
#1161=DIRECTION('center_axis',(1.44620366871132E-13,2.4653574746267E-14,
1.));
#1162=DIRECTION('ref_axis',(-0.70710678118656,-0.707106781186535,0.));
#1163=DIRECTION('',(-1.26217744835362E-29,5.71413472132131E-15,1.));
#1164=DIRECTION('center_axis',(1.02409405763533E-27,-4.93038065763132E-28,
1.));
#1165=DIRECTION('ref_axis',(-0.70710678118656,-0.707106781186535,0.));
#1166=DIRECTION('',(1.26217744835362E-29,-5.71413472132131E-15,-1.));
#1167=DIRECTION('center_axis',(1.,1.57199720651977E-16,1.17235141015767E-29));
#1168=DIRECTION('ref_axis',(1.57199720651977E-16,-1.,-2.39513948043204E-26));
#1169=DIRECTION('',(1.57199720651977E-16,-1.,2.4653574746267E-14));
#1170=DIRECTION('',(1.26217744835362E-29,-5.71413472132131E-15,-1.));
#1171=DIRECTION('',(1.57199720651977E-16,-1.,-2.39513948043204E-26));
#1172=DIRECTION('center_axis',(-1.26217744835362E-29,5.71413472132131E-15,
1.));
#1173=DIRECTION('ref_axis',(-0.707106781186623,0.707106781186472,0.));
#1174=DIRECTION('center_axis',(1.44620366871132E-13,2.4653574746267E-14,
1.));
#1175=DIRECTION('ref_axis',(-0.707106781186623,0.707106781186472,0.));
#1176=DIRECTION('',(-1.26217744835362E-29,5.71413472132131E-15,1.));
#1177=DIRECTION('center_axis',(1.02409405763533E-27,-4.93038065763132E-28,
1.));
#1178=DIRECTION('ref_axis',(-0.707106781186623,0.707106781186472,0.));
#1179=DIRECTION('center_axis',(1.44620366871132E-13,2.4653574746267E-14,
1.));
#1180=DIRECTION('ref_axis',(1.,1.26217744835362E-29,-1.44620366871132E-13));
#1181=DIRECTION('',(1.,4.6592966658146E-15,-1.44620366871132E-13));
#1182=DIRECTION('',(0.,-1.,2.46813303217559E-14));
#1183=DIRECTION('',(-1.,-1.01230384988249E-28,1.44620366871132E-13));
#1184=DIRECTION('center_axis',(-1.44620366871132E-13,-2.4653574746267E-14,
-1.));
#1185=DIRECTION('ref_axis',(0.208333333333239,-0.978057882858812,-6.01661997690356E-15));
#1186=DIRECTION('',(1.,1.01230384988249E-28,-1.44620366871132E-13));
#1187=DIRECTION('',(0.,-1.,2.46813303217559E-14));
#1188=DIRECTION('',(-1.,-1.84042218299695E-13,1.44620366871137E-13));
#1189=DIRECTION('center_axis',(1.44620366871132E-13,2.4653574746267E-14,
1.));
#1190=DIRECTION('ref_axis',(1.,1.45472979506118E-28,-1.43437228850848E-13));
#1191=DIRECTION('center_axis',(1.44620366871132E-13,2.4653574746267E-14,
1.));
#1192=DIRECTION('ref_axis',(1.,1.45472979506118E-28,-1.43437228850848E-13));
#1193=DIRECTION('center_axis',(-1.44620366871132E-13,-2.4653574746267E-14,
-1.));
#1194=DIRECTION('ref_axis',(1.,1.01230384988249E-28,0.));
#1195=DIRECTION('center_axis',(-1.44620366871132E-13,-2.4653574746267E-14,
-1.));
#1196=DIRECTION('ref_axis',(1.,1.01230384988249E-28,0.));
#1197=DIRECTION('center_axis',(-4.65929666581543E-15,1.,-5.71413472132131E-15));
#1198=DIRECTION('ref_axis',(1.,4.65929666581543E-15,2.07032786948497E-26));
#1199=DIRECTION('',(1.,4.65929666581543E-15,-1.02409405763533E-27));
#1200=DIRECTION('',(0.,5.71413472132131E-15,1.));
#1201=DIRECTION('center_axis',(1.84042218299696E-13,-1.,5.71413472132131E-15));
#1202=DIRECTION('ref_axis',(-1.,-1.84042218299696E-13,1.02409405763524E-27));
#1203=DIRECTION('',(0.,-5.71413472132131E-15,-1.));
#1204=DIRECTION('',(-1.,-1.84042218299696E-13,1.02409405763524E-27));
#1205=DIRECTION('center_axis',(-2.48360463883849E-14,-9.73346213369995E-15,
-1.));
#1206=DIRECTION('ref_axis',(-0.707106781186673,-0.707106781186422,0.));
#1207=DIRECTION('center_axis',(3.83401667036756E-75,0.,1.));
#1208=DIRECTION('ref_axis',(-0.707106781186673,-0.707106781186422,0.));
#1209=DIRECTION('',(2.48360463883849E-14,9.73346213369995E-15,1.));
#1210=DIRECTION('center_axis',(0.,0.,-1.));
#1211=DIRECTION('ref_axis',(-0.707106781186673,-0.707106781186422,0.));
#1212=DIRECTION('',(-2.48360463883849E-14,-9.73346213369995E-15,-1.));
#1213=DIRECTION('center_axis',(0.,0.,1.));
#1214=DIRECTION('ref_axis',(-1.,0.,0.));
#1215=DIRECTION('',(0.,-1.,0.));
#1216=DIRECTION('',(1.,0.,0.));
#1217=DIRECTION('',(0.,1.,0.));
#1218=DIRECTION('',(-1.,0.,0.));
#1219=DIRECTION('center_axis',(1.,-2.9026734941618E-27,-2.48360463883849E-14));
#1220=DIRECTION('ref_axis',(3.31927050005006E-27,1.,1.67826606307979E-14));
#1221=DIRECTION('',(0.,-1.,0.));
#1222=DIRECTION('center_axis',(1.,-2.9026734941618E-27,-2.48360463883849E-14));
#1223=DIRECTION('ref_axis',(1.26217744835362E-29,-5.71413472132131E-15,
-1.));
#1224=DIRECTION('',(2.76075697915358E-27,1.,-5.71413472132131E-15));
#1225=DIRECTION('center_axis',(1.,-2.49877671068864E-27,-2.48360463883849E-14));
#1226=DIRECTION('ref_axis',(1.26217744835362E-29,-5.71413472132131E-15,
-1.));
#1227=DIRECTION('',(-2.48360463883849E-14,6.618562182153E-26,-1.));
#1228=DIRECTION('center_axis',(1.,-2.49877671068864E-27,-2.48360463883849E-14));
#1229=DIRECTION('ref_axis',(1.26217744835362E-29,-5.71413472132131E-15,
-1.));
#1230=DIRECTION('',(2.290376168124E-27,1.,-2.4653574746267E-14));
#1231=DIRECTION('center_axis',(1.,-2.9026734941618E-27,-2.48360463883849E-14));
#1232=DIRECTION('ref_axis',(1.26217744835362E-29,-5.71413472132131E-15,
-1.));
#1233=DIRECTION('center_axis',(-1.26217744835362E-29,5.71413472132131E-15,
1.));
#1234=DIRECTION('ref_axis',(-0.707106781186566,-0.707106781186529,0.));
#1235=DIRECTION('center_axis',(-1.02409405763533E-27,4.93038065763132E-28,
-1.));
#1236=DIRECTION('ref_axis',(-0.707106781186566,-0.707106781186529,0.));
#1237=DIRECTION('',(1.26217744835362E-29,-5.71413472132131E-15,-1.));
#1238=DIRECTION('center_axis',(-1.26217744835362E-29,5.71413472132131E-15,
1.));
#1239=DIRECTION('ref_axis',(-0.707106781186566,-0.707106781186529,0.));
#1240=DIRECTION('',(-1.26217744835362E-29,5.71413472132131E-15,1.));
#1241=DIRECTION('center_axis',(-1.26217744835362E-29,5.71413472132131E-15,
1.));
#1242=DIRECTION('ref_axis',(1.,1.01230384988249E-28,1.26217744835356E-29));
#1243=DIRECTION('',(-1.01230384988249E-28,1.,-5.71413472132131E-15));
#1244=DIRECTION('center_axis',(-1.26217744835362E-29,5.71413472132131E-15,
1.));
#1245=DIRECTION('ref_axis',(-0.707106781186428,0.707106781186667,0.));
#1246=DIRECTION('',(1.,-2.44355930410905E-13,1.40890448080526E-27));
#1247=DIRECTION('',(0.,-1.,5.71413472132131E-15));
#1248=DIRECTION('',(1.,1.01230384988249E-28,1.26217744835356E-29));
#1249=DIRECTION('center_axis',(1.,1.01230384988249E-28,1.26217744835356E-29));
#1250=DIRECTION('ref_axis',(1.26217744835362E-29,-5.71413472132131E-15,
-1.));
#1251=DIRECTION('',(1.01230384988249E-28,-1.,-4.93038065763132E-28));
#1252=DIRECTION('',(-1.26217744835362E-29,5.71413472132131E-15,1.));
#1253=DIRECTION('center_axis',(1.01230384988249E-28,-1.,5.71413472132131E-15));
#1254=DIRECTION('ref_axis',(1.26217744835362E-29,-5.71413472132131E-15,
-1.));
#1255=DIRECTION('',(0.,-5.71413472132131E-15,-1.));
#1256=DIRECTION('',(-1.,-1.01230384988243E-28,1.02409405763533E-27));
#1257=DIRECTION('center_axis',(1.01230384988249E-28,-1.,5.71413472132131E-15));
#1258=DIRECTION('ref_axis',(1.26217744835356E-29,0.,-1.));
#1259=DIRECTION('center_axis',(1.01230384988249E-28,-1.,5.71413472132131E-15));
#1260=DIRECTION('ref_axis',(1.26217744835356E-29,0.,-1.));
#1261=DIRECTION('',(5.55436012439584E-59,5.71413472132131E-15,1.));
#1262=DIRECTION('',(-1.,-1.01230384988249E-28,0.));
#1263=DIRECTION('',(5.55436012439584E-59,5.71413472132131E-15,1.));
#1264=DIRECTION('',(1.,1.01230384988249E-28,0.));
#1265=DIRECTION('center_axis',(-2.48360463883849E-14,6.618562182153E-26,
-1.));
#1266=DIRECTION('ref_axis',(-0.707106781185518,0.707106781187578,0.));
#1267=DIRECTION('',(2.48360463883849E-14,-6.618562182153E-26,1.));
#1268=DIRECTION('center_axis',(1.,5.05127168461407E-28,1.26217744835333E-29));
#1269=DIRECTION('ref_axis',(1.26217744835362E-29,-5.71413472132131E-15,
-1.));
#1270=DIRECTION('',(-1.,-4.03896783473158E-28,2.30793857074297E-42));
#1271=DIRECTION('center_axis',(1.,4.03896783473158E-28,-2.30793857074297E-42));
#1272=DIRECTION('ref_axis',(1.26217744835362E-29,-5.71413472132131E-15,
-1.));
#1273=DIRECTION('',(-1.,-5.05127168461407E-28,-1.26217744835333E-29));
#1274=DIRECTION('center_axis',(2.66490168308282E-12,1.,-6.15042938162472E-54));
#1275=DIRECTION('ref_axis',(2.30793857074297E-42,9.32168965176724E-70,1.));
#1276=DIRECTION('',(-1.,-5.05127168461407E-28,-1.26217744835333E-29));
#1277=DIRECTION('',(-2.30793857074297E-42,-9.32168965176724E-70,-1.));
#1278=DIRECTION('center_axis',(2.66490168308282E-12,1.,-6.15042938162472E-54));
#1279=DIRECTION('ref_axis',(4.02860463796428E-8,0.,-0.999999999999999));
#1280=DIRECTION('center_axis',(2.66490168308282E-12,1.,-6.15042938162472E-54));
#1281=DIRECTION('ref_axis',(1.24994942914273E-6,0.,0.999999999999219));
#1282=DIRECTION('center_axis',(2.66490168308282E-12,1.,-6.15042938162472E-54));
#1283=DIRECTION('ref_axis',(0.994413707792933,0.,-0.105552724993298));
#1284=DIRECTION('center_axis',(2.66490168308282E-12,1.,-6.15042938162472E-54));
#1285=DIRECTION('ref_axis',(-7.16339771252116E-10,0.,-1.));
#1286=DIRECTION('center_axis',(2.66490168308282E-12,1.,-6.15042938162472E-54));
#1287=DIRECTION('ref_axis',(-1.60051366811812E-8,0.,1.));
#1288=DIRECTION('center_axis',(2.66490168308282E-12,1.,-6.15042938162472E-54));
#1289=DIRECTION('ref_axis',(0.994785890970377,0.,-0.101985445659039));
#1290=DIRECTION('center_axis',(-1.26217744835362E-29,5.71413472132131E-15,
1.));
#1291=DIRECTION('ref_axis',(-0.707106781186428,0.707106781186667,0.));
#1292=DIRECTION('center_axis',(-1.02409405763533E-27,4.93038065763132E-28,
-1.));
#1293=DIRECTION('ref_axis',(-0.707106781186428,0.707106781186667,0.));
#1294=DIRECTION('',(1.26217744835362E-29,-5.71413472132131E-15,-1.));
#1295=DIRECTION('center_axis',(-2.44355930410905E-13,-1.,5.71413472132131E-15));
#1296=DIRECTION('ref_axis',(1.26217744835362E-29,-5.71413472132131E-15,
-1.));
#1297=DIRECTION('',(-1.,-1.83365868867021E-13,1.02409405763524E-27));
#1298=DIRECTION('',(1.79364690060122E-47,5.71413472132131E-15,1.));
#1299=DIRECTION('center_axis',(-2.44355930410905E-13,-1.,5.71413472132131E-15));
#1300=DIRECTION('ref_axis',(-7.16339771252116E-10,6.96309984802311E-54,
-1.));
#1301=DIRECTION('center_axis',(-2.44355930410905E-13,-1.,5.71413472132131E-15));
#1302=DIRECTION('ref_axis',(0.994785890970377,-9.66970390897572E-45,-0.101985445659039));
#1303=DIRECTION('center_axis',(-2.44355930410905E-13,-1.,5.71413472132131E-15));
#1304=DIRECTION('ref_axis',(-1.60051366811812E-8,1.55576123600568E-52,1.));
#1305=DIRECTION('center_axis',(-2.44355930410905E-13,-1.,5.71413472132131E-15));
#1306=DIRECTION('ref_axis',(4.02860463796428E-8,-3.91595964207347E-52,-0.999999999999999));
#1307=DIRECTION('center_axis',(-2.44355930410905E-13,-1.,5.71413472132131E-15));
#1308=DIRECTION('ref_axis',(0.994413707792933,-9.66608614443116E-45,-0.105552724993298));
#1309=DIRECTION('center_axis',(-2.44355930410905E-13,-1.,5.71413472132131E-15));
#1310=DIRECTION('ref_axis',(1.24994942914273E-6,-1.21499922653842E-50,0.999999999999219));
#1311=DIRECTION('center_axis',(1.02409405763533E-27,-4.93038065763132E-28,
1.));
#1312=DIRECTION('ref_axis',(1.,1.01230384988249E-28,-1.02409405763533E-27));
#1313=DIRECTION('',(-4.00746103777451E-14,-1.,-4.93038065763132E-28));
#1314=DIRECTION('',(-4.00746103777451E-14,-1.,-4.93038065763132E-28));
#1315=DIRECTION('center_axis',(-1.,0.,0.));
#1316=DIRECTION('ref_axis',(0.,0.,1.));
#1317=DIRECTION('',(0.,0.,1.));
#1318=DIRECTION('',(9.72038706695294E-45,1.,-2.4653574746267E-14));
#1319=DIRECTION('center_axis',(1.,4.03896783473158E-28,-2.30793857074297E-42));
#1320=DIRECTION('ref_axis',(1.26217744835362E-29,-5.71413472132131E-15,
-1.));
#1321=DIRECTION('',(0.,-1.,5.71413472132131E-15));
#1322=DIRECTION('center_axis',(1.,-9.72038706695294E-45,-3.83401667036756E-75));
#1323=DIRECTION('ref_axis',(1.26217744835362E-29,-5.71413472132131E-15,
-1.));
#1324=DIRECTION('',(0.,-1.,0.));
#1325=DIRECTION('',(0.,9.73346213369995E-15,1.));
#1326=DIRECTION('center_axis',(1.,-9.72038706695294E-45,-3.83401667036756E-75));
#1327=DIRECTION('ref_axis',(1.26217744835362E-29,-5.71413472132131E-15,
-1.));
#1328=DIRECTION('',(9.72038706695294E-45,1.,-2.4653574746267E-14));
#1329=DIRECTION('',(0.,0.,-1.));
#1330=DIRECTION('center_axis',(-1.,-1.21592416695104E-27,-1.4210854715202E-13));
#1331=DIRECTION('ref_axis',(1.26217744835362E-29,-5.71413472132131E-15,
-1.));
#1332=DIRECTION('center_axis',(-1.,-1.21592416695104E-27,-1.4210854715202E-13));
#1333=DIRECTION('ref_axis',(1.26217744835362E-29,-5.71413472132131E-15,
-1.));
#1334=DIRECTION('center_axis',(-1.,-8.12027383477881E-28,-1.4210854715202E-13));
#1335=DIRECTION('ref_axis',(1.26217744835362E-29,-5.71413472132131E-15,
-1.));
#1336=DIRECTION('center_axis',(-1.,-8.12027383477881E-28,-1.4210854715202E-13));
#1337=DIRECTION('ref_axis',(1.26217744835362E-29,-5.71413472132131E-15,
-1.));
#1338=DIRECTION('center_axis',(1.44620366871132E-13,2.4653574746267E-14,
1.));
#1339=DIRECTION('ref_axis',(1.,1.26217744835365E-29,-1.44620366871132E-13));
#1340=DIRECTION('',(1.,1.01230384988249E-28,-1.44620366871132E-13));
#1341=DIRECTION('center_axis',(1.44620366871132E-13,2.4653574746267E-14,
1.));
#1342=DIRECTION('ref_axis',(0.208333333333239,-0.978057882858812,-6.01661997690356E-15));
#1343=DIRECTION('',(-1.,-1.01230384988249E-28,1.44620366871132E-13));
#1344=DIRECTION('',(-1.,9.72038706695294E-45,3.83401667036756E-75));
#1345=DIRECTION('center_axis',(1.44620366871132E-13,2.4653574746267E-14,
1.));
#1346=DIRECTION('ref_axis',(1.,1.45472979506118E-28,-1.43437228850848E-13));
#1347=DIRECTION('center_axis',(1.44620366871132E-13,2.4653574746267E-14,
1.));
#1348=DIRECTION('ref_axis',(1.,1.45472979506118E-28,-1.43437228850848E-13));
#1349=DIRECTION('center_axis',(-1.44620366871132E-13,-2.4653574746267E-14,
-1.));
#1350=DIRECTION('ref_axis',(1.,1.01230384988249E-28,0.));
#1351=DIRECTION('center_axis',(-1.44620366871132E-13,-2.4653574746267E-14,
-1.));
#1352=DIRECTION('ref_axis',(1.,1.01230384988249E-28,0.));
#1353=DIRECTION('center_axis',(1.43437228850848E-13,0.,1.));
#1354=DIRECTION('ref_axis',(-1.,-2.54426109814125E-16,1.43437228850848E-13));
#1355=DIRECTION('',(-1.43437228850848E-13,0.,-1.));
#1356=DIRECTION('',(-1.43437228850848E-13,0.,-1.));
#1357=DIRECTION('center_axis',(-1.01230384988249E-28,1.,0.));
#1358=DIRECTION('ref_axis',(1.,1.01230384988249E-28,1.34106353887566E-29));
#1359=DIRECTION('center_axis',(1.01230384988249E-28,-1.,0.));
#1360=DIRECTION('ref_axis',(-1.,-1.01230384988249E-28,-5.54049511860181E-30));
#1361=DIRECTION('center_axis',(0.,-1.,0.));
#1362=DIRECTION('ref_axis',(0.994785890970377,0.,-0.101985445659039));
#1363=DIRECTION('',(0.,-1.,0.));
#1364=DIRECTION('',(0.,-1.,0.));
#1365=DIRECTION('center_axis',(0.,-1.,0.));
#1366=DIRECTION('ref_axis',(-7.16339771252116E-10,0.,-1.));
#1367=DIRECTION('',(0.,-1.,0.));
#1368=DIRECTION('center_axis',(0.,-1.,0.));
#1369=DIRECTION('ref_axis',(-1.60051366811812E-8,0.,1.));
#1370=DIRECTION('center_axis',(0.,-1.,0.));
#1371=DIRECTION('ref_axis',(0.994413707792933,0.,-0.105552724993298));
#1372=DIRECTION('',(0.,-1.,0.));
#1373=DIRECTION('',(0.,-1.,0.));
#1374=DIRECTION('center_axis',(0.,-1.,0.));
#1375=DIRECTION('ref_axis',(-0.999999999999761,0.,6.91679919864954E-7));
#1376=DIRECTION('',(0.,-1.,0.));
#1377=DIRECTION('center_axis',(0.,-1.,0.));
#1378=DIRECTION('ref_axis',(1.24994942914273E-6,0.,0.999999999999219));
#1379=DIRECTION('center_axis',(-3.83401667036756E-75,0.,-1.));
#1380=DIRECTION('ref_axis',(1.,-9.72038706695294E-45,-3.83401667036756E-75));
#1381=DIRECTION('',(1.,-9.72038706695294E-45,-3.83401667036756E-75));
#1382=DIRECTION('',(-1.,9.72038706695294E-45,3.83401667036756E-75));
#1383=DIRECTION('center_axis',(9.72038706695294E-45,1.,-9.73346213369995E-15));
#1384=DIRECTION('ref_axis',(9.46130194410932E-59,9.73346213369995E-15,1.));
#1385=DIRECTION('center_axis',(9.72038706695294E-45,1.,-9.73346213369995E-15));
#1386=DIRECTION('ref_axis',(1.26217744835356E-29,0.,-1.));
#1387=DIRECTION('center_axis',(9.72038706695294E-45,1.,-9.73346213369995E-15));
#1388=DIRECTION('ref_axis',(1.26217744835356E-29,0.,-1.));
#1389=DIRECTION('',(-1.,1.94407741339059E-44,0.));
#1390=DIRECTION('',(-9.46130194410932E-59,-9.73346213369995E-15,-1.));
#1391=DIRECTION('',(1.,-9.72038706695294E-45,0.));
#1392=DIRECTION('',(9.46130194410933E-59,9.73346213369995E-15,1.));
#1393=DIRECTION('center_axis',(1.,-9.72038706695294E-45,-3.83401667036756E-75));
#1394=DIRECTION('ref_axis',(3.83401667036755E-75,7.88860905221012E-31,-1.));
#1395=DIRECTION('',(-2.91611612008588E-44,-1.,-7.88860905221012E-31));
#1396=DIRECTION('',(-2.91611612008588E-44,-1.,-7.88860905221012E-31));
#1397=DIRECTION('center_axis',(0.,0.,-1.));
#1398=DIRECTION('ref_axis',(-1.,1.94407741339059E-44,0.));
#1399=DIRECTION('',(-2.91611612008589E-44,-1.,0.));
#1400=DIRECTION('center_axis',(1.09553058212568E-28,1.,0.));
#1401=DIRECTION('ref_axis',(1.26217744835356E-29,0.,-1.));
#1402=DIRECTION('',(1.09553058212568E-28,1.,0.));
#1403=DIRECTION('center_axis',(1.09553058212568E-28,1.,0.));
#1404=DIRECTION('ref_axis',(1.26217744835356E-29,0.,-1.));
#1405=DIRECTION('',(1.09553058212568E-28,1.,0.));
#1406=DIRECTION('center_axis',(1.,-9.72038706695295E-45,0.));
#1407=DIRECTION('ref_axis',(0.,0.,-1.));
#1408=DIRECTION('',(1.94407741339059E-44,1.,0.));
#1409=DIRECTION('center_axis',(0.,0.,1.));
#1410=DIRECTION('ref_axis',(1.,-9.72038706695295E-45,0.));
#1411=DIRECTION('center_axis',(-1.,-7.71089279128413E-36,0.));
#1412=DIRECTION('ref_axis',(0.,5.71413466063738E-15,1.));
#1413=DIRECTION('center_axis',(-1.,-7.71089279128413E-36,0.));
#1414=DIRECTION('ref_axis',(1.26217744835362E-29,-5.71413472132131E-15,
-1.));
#1415=DIRECTION('center_axis',(-1.,-7.71089279128413E-36,0.));
#1416=DIRECTION('ref_axis',(0.,5.71413466063738E-15,1.));
#1417=DIRECTION('center_axis',(-1.,-7.71089279128413E-36,0.));
#1418=DIRECTION('ref_axis',(1.26217744835362E-29,-5.71413472132131E-15,
-1.));
#1419=DIRECTION('center_axis',(-1.,-7.71089281370491E-36,2.80259692864963E-45));
#1420=DIRECTION('ref_axis',(2.80259692864963E-45,5.71413466063738E-15,1.));
#1421=DIRECTION('center_axis',(-1.,-7.71089281370491E-36,2.80259692864963E-45));
#1422=DIRECTION('ref_axis',(1.26217744835362E-29,-5.71413472132131E-15,
-1.));
#1423=DIRECTION('center_axis',(-1.,-7.71089281370491E-36,2.80259692864963E-45));
#1424=DIRECTION('ref_axis',(2.80259692864963E-45,5.71413466063738E-15,1.));
#1425=DIRECTION('center_axis',(-1.,-7.71089281370491E-36,2.80259692864963E-45));
#1426=DIRECTION('ref_axis',(1.26217744835362E-29,-5.71413472132131E-15,
-1.));
#1427=DIRECTION('center_axis',(1.,1.01230384988249E-28,1.26217744835356E-29));
#1428=DIRECTION('ref_axis',(-9.32242346486202E-29,0.856571230721304,0.516028804138481));
#1429=DIRECTION('',(-1.,-1.01230384988249E-28,-1.26217744835356E-29));
#1430=DIRECTION('center_axis',(-1.26217744835362E-29,5.71413472132131E-15,
1.));
#1431=DIRECTION('ref_axis',(1.,1.01230384988249E-28,1.26217744835356E-29));
#1432=DIRECTION('',(1.,5.05127168461407E-28,1.26217744835333E-29));
#1433=DIRECTION('center_axis',(1.,5.05127168461407E-28,1.26217744835333E-29));
#1434=DIRECTION('ref_axis',(4.26164201168395E-28,-0.856571230724123,0.516028804133802));
#1435=DIRECTION('center_axis',(1.,5.05127168461407E-28,1.26217744835333E-29));
#1436=DIRECTION('ref_axis',(1.26217744835362E-29,-5.71413472132131E-15,
-1.));
#1437=DIRECTION('',(-1.,-5.05127168461407E-28,-1.26217744835333E-29));
#1438=DIRECTION('center_axis',(1.,5.05127168461407E-28,1.26217744835333E-29));
#1439=DIRECTION('ref_axis',(1.26217744835362E-29,-5.71413472132131E-15,
-1.));
#1440=DIRECTION('',(-1.,-5.05127168461407E-28,-1.26217744835333E-29));
#1441=DIRECTION('center_axis',(1.,1.01230384988249E-28,1.26217744835356E-29));
#1442=DIRECTION('ref_axis',(1.26217744835362E-29,-5.71413472132131E-15,
-1.));
#1443=DIRECTION('',(-1.,-1.01230384988249E-28,-1.26217744835356E-29));
#1444=DIRECTION('center_axis',(1.,1.01230384988249E-28,1.26217744835356E-29));
#1445=DIRECTION('ref_axis',(1.26217744835362E-29,-5.71413472132131E-15,
-1.));
#1446=DIRECTION('',(-1.,-1.01230384988249E-28,-1.26217744835356E-29));
#1447=DIRECTION('center_axis',(0.,0.,-1.));
#1448=DIRECTION('ref_axis',(1.,1.01230384988249E-28,0.));
#1449=DIRECTION('',(0.,0.,-1.));
#1450=DIRECTION('center_axis',(1.43437228850848E-13,0.,1.));
#1451=DIRECTION('ref_axis',(1.,1.45472979506118E-28,-1.43437228850848E-13));
#1452=DIRECTION('',(-1.43437228850848E-13,0.,-1.));
#1453=DIRECTION('center_axis',(1.43437228850848E-13,0.,1.));
#1454=DIRECTION('ref_axis',(1.,1.45472979506118E-28,-1.43437228850848E-13));
#1455=DIRECTION('',(-1.43437228850848E-13,0.,-1.));
#1456=DIRECTION('center_axis',(1.,1.01230384988249E-28,1.26217744835356E-29));
#1457=DIRECTION('ref_axis',(1.26217744835362E-29,-5.71413472132131E-15,
-1.));
#1458=DIRECTION('center_axis',(0.,0.,-1.));
#1459=DIRECTION('ref_axis',(1.,1.01230384988249E-28,0.));
#1460=DIRECTION('',(0.,0.,-1.));
#1461=CARTESIAN_POINT('',(0.,0.,0.));
#1462=CARTESIAN_POINT('Origin',(-156.823260127774,-989.930149183505,464.635831986621));
#1463=CARTESIAN_POINT('',(-157.823260127774,-989.930149183505,460.188831945199));
#1464=CARTESIAN_POINT('',(-156.823260127774,-990.930149183505,460.188831945199));
#1465=CARTESIAN_POINT('Origin',(-156.823260127774,-989.930149183505,460.188831945195));
#1466=CARTESIAN_POINT('',(-157.823260127774,-989.930149183505,464.635831986621));
#1467=CARTESIAN_POINT('',(-157.823260127774,-989.930149183505,464.635831986621));
#1468=CARTESIAN_POINT('',(-156.823260127774,-990.930149183505,464.635831986621));
#1469=CARTESIAN_POINT('Origin',(-156.823260127774,-989.930149183505,464.635831986621));
#1470=CARTESIAN_POINT('',(-156.823260127774,-990.930149183505,464.635831986621));
#1471=CARTESIAN_POINT('Origin',(-157.823260127774,-931.230149309648,464.635831986621));
#1472=CARTESIAN_POINT('',(-157.823260127774,-931.730149309648,460.188831945198));
#1473=CARTESIAN_POINT('',(-157.823260127774,-948.105171778111,460.188831945198));
#1474=CARTESIAN_POINT('',(-157.823260127774,-931.730149309648,464.635831986621));
#1475=CARTESIAN_POINT('',(-157.823260127774,-931.730149309648,464.635831986621));
#1476=CARTESIAN_POINT('',(-157.823260127774,-931.230149309648,464.635831986621));
#1477=CARTESIAN_POINT('Origin',(-156.823260127774,-931.730149309648,464.635831986621));
#1478=CARTESIAN_POINT('',(-156.823260127774,-930.730149309648,460.188831945198));
#1479=CARTESIAN_POINT('Origin',(-156.823260127774,-931.730149309648,460.188831945195));
#1480=CARTESIAN_POINT('',(-156.823260127774,-930.730149309648,464.635831986621));
#1481=CARTESIAN_POINT('',(-156.823260127774,-930.730149309648,464.635831986621));
#1482=CARTESIAN_POINT('Origin',(-156.823260127774,-931.730149309648,464.635831986621));
#1483=CARTESIAN_POINT('Origin',(-135.801132375738,-964.980194246573,460.188831945195));
#1484=CARTESIAN_POINT('',(-94.3232606237133,-990.930149183504,460.18883194519));
#1485=CARTESIAN_POINT('',(-146.562196251756,-990.930149183505,460.188831945198));
#1486=CARTESIAN_POINT('',(-94.3232606237133,-971.030149183508,460.188831945189));
#1487=CARTESIAN_POINT('',(-94.3232606237133,-962.140269843622,460.188831945189));
#1488=CARTESIAN_POINT('',(-135.823260623702,-971.030149183508,460.188831945178));
#1489=CARTESIAN_POINT('',(-118.912196499726,-971.030149183508,460.188831945193));
#1490=CARTESIAN_POINT('',(-135.823260623702,-947.030149183508,460.188831945178));
#1491=CARTESIAN_POINT('Origin',(-135.823260623702,-959.030149183508,460.188831945195));
#1492=CARTESIAN_POINT('',(-94.3232606237133,-947.030149183508,460.188831945189));
#1493=CARTESIAN_POINT('',(-135.81219649972,-947.030149183508,460.188831945195));
#1494=CARTESIAN_POINT('',(-94.3232606237133,-930.730149309637,460.188831945188));
#1495=CARTESIAN_POINT('',(-94.3232606237133,-962.140269843622,460.188831945189));
#1496=CARTESIAN_POINT('',(-116.062196499724,-930.730149309641,460.188831945192));
#1497=CARTESIAN_POINT('',(-122.290186599241,-943.53060880019,460.188831945193));
#1498=CARTESIAN_POINT('Origin',(-120.390186599241,-943.53060880019,460.188831945193));
#1499=CARTESIAN_POINT('',(-153.290186599241,-943.530608800185,460.188831945198));
#1500=CARTESIAN_POINT('Origin',(-151.390186599241,-943.530608800185,460.188831945198));
#1501=CARTESIAN_POINT('',(-153.323260623703,-974.530149183507,460.188831945195));
#1502=CARTESIAN_POINT('Origin',(-151.323260623703,-974.530149183507,460.188831945195));
#1503=CARTESIAN_POINT('',(-122.323260623703,-974.530149183509,460.188831945195));
#1504=CARTESIAN_POINT('Origin',(-120.323260623703,-974.530149183509,460.188831945195));
#1505=CARTESIAN_POINT('Origin',(-157.323260127774,-990.930149183505,464.635831986621));
#1506=CARTESIAN_POINT('',(-94.3232606237063,-990.930149183504,464.635831986621));
#1507=CARTESIAN_POINT('',(-142.823260251756,-990.930149183505,464.635831986621));
#1508=CARTESIAN_POINT('',(-94.3232606237133,-990.930149183504,443.634081929833));
#1509=CARTESIAN_POINT('Origin',(-96.3232606237033,-930.730149309637,464.635831986621));
#1510=CARTESIAN_POINT('',(-94.3232606237039,-930.730149309637,464.635831986621));
#1511=CARTESIAN_POINT('',(-94.3232606237133,-930.730149309637,443.634081929832));
#1512=CARTESIAN_POINT('',(-112.323260499724,-930.73014930964,464.635831986621));
#1513=CARTESIAN_POINT('Origin',(-157.323260336886,-990.430149183707,430.135817762332));
#1514=CARTESIAN_POINT('',(-157.823260336886,-990.430149183707,411.335322164542));
#1515=CARTESIAN_POINT('',(-157.323260336886,-990.930149183707,411.335322164542));
#1516=CARTESIAN_POINT('Origin',(-157.323260336886,-990.430149183707,411.335322164542));
#1517=CARTESIAN_POINT('',(-157.823260336886,-990.430149183707,453.936342202417));
#1518=CARTESIAN_POINT('',(-157.823260336886,-990.430149183707,430.135817762332));
#1519=CARTESIAN_POINT('',(-157.323260336885,-990.930149183707,453.936342202417));
#1520=CARTESIAN_POINT('Origin',(-157.323260336885,-990.430149183707,453.936342202418));
#1521=CARTESIAN_POINT('',(-157.323260336886,-990.930149183707,430.135817762332));
#1522=CARTESIAN_POINT('Origin',(-94.3232606381594,-988.230149183707,453.936342202417));
#1523=CARTESIAN_POINT('',(-157.823260336886,-988.230149183707,453.936342202417));
#1524=CARTESIAN_POINT('',(-157.823260336886,-988.230149183707,453.936342202417));
#1525=CARTESIAN_POINT('',(-94.3232606381594,-988.230149183707,453.936342202417));
#1526=CARTESIAN_POINT('',(-96.3232606381594,-988.230149183707,453.936342202417));
#1527=CARTESIAN_POINT('',(-94.3232606381594,-990.930149183707,453.936342202417));
#1528=CARTESIAN_POINT('',(-94.3232606237133,-976.515269715135,453.936342202417));
#1529=CARTESIAN_POINT('',(-96.3232606381594,-990.930149183707,453.936342202417));
#1530=CARTESIAN_POINT('Origin',(-157.823260336886,-960.440519911726,432.335832421762));
#1531=CARTESIAN_POINT('',(-157.823260336886,-988.230149183707,411.335322164542));
#1532=CARTESIAN_POINT('',(-157.823260336886,-988.230149183707,411.335322164542));
#1533=CARTESIAN_POINT('',(-157.823260336886,-985.399010353622,406.63583242176));
#1534=CARTESIAN_POINT('Origin',(-157.823260336886,-986.980149183705,408.88583242176));
#1535=CARTESIAN_POINT('',(-157.823260336886,-933.561287721113,406.635832421759));
#1536=CARTESIAN_POINT('',(-157.823260336886,-960.120455079149,406.635832421759));
#1537=CARTESIAN_POINT('',(-157.823260336886,-931.230148891102,411.531583732845));
#1538=CARTESIAN_POINT('Origin',(-157.823260336886,-931.980148891029,408.885832421759));
#1539=CARTESIAN_POINT('',(-157.823260336886,-931.230148891102,453.740080634114));
#1540=CARTESIAN_POINT('',(-157.823260336886,-931.230148891102,445.08583218348));
#1541=CARTESIAN_POINT('',(-157.823260336885,-934.429638633812,457.6358319452));
#1542=CARTESIAN_POINT('Origin',(-157.823260336886,-931.980148891029,456.385831945199));
#1543=CARTESIAN_POINT('',(-157.823260336885,-984.530659440924,457.635831945201));
#1544=CARTESIAN_POINT('',(-157.823260336885,-966.210357079149,457.635831945198));
#1545=CARTESIAN_POINT('Origin',(-157.823260336886,-986.980149183706,456.385831945199));
#1546=CARTESIAN_POINT('Origin',(-157.623260127774,-990.730149183505,457.035831945197));
#1547=CARTESIAN_POINT('',(-157.623260127774,-992.730149183505,464.635831986621));
#1548=CARTESIAN_POINT('',(-159.623260127774,-990.730149183505,464.635831986621));
#1549=CARTESIAN_POINT('Origin',(-157.623260127774,-990.730149183505,464.635831986621));
#1550=CARTESIAN_POINT('',(-159.623260127774,-990.730149183506,404.835831945202));
#1551=CARTESIAN_POINT('',(-159.623260127774,-990.730149183505,457.035831945197));
#1552=CARTESIAN_POINT('',(-157.623260127774,-992.730149183506,404.835831945202));
#1553=CARTESIAN_POINT('Origin',(-157.623260127774,-990.730149183506,404.835831945202));
#1554=CARTESIAN_POINT('',(-157.623260127774,-992.730149183505,457.035831945197));
#1555=CARTESIAN_POINT('Origin',(-176.826795127777,-937.024147738891,404.835831945201));
#1556=CARTESIAN_POINT('',(-159.623260127774,-930.930149309627,404.835831945201));
#1557=CARTESIAN_POINT('',(-159.623260127774,-932.377423524264,404.835831945201));
#1558=CARTESIAN_POINT('',(-157.623260127774,-928.930149309627,404.835831945201));
#1559=CARTESIAN_POINT('Origin',(-157.623260127774,-930.930149309627,404.835831945201));
#1560=CARTESIAN_POINT('',(-94.3232606237134,-928.930149309642,404.835831945201));
#1561=CARTESIAN_POINT('',(-144.015858375735,-928.930149309631,404.835831945201));
#1562=CARTESIAN_POINT('',(-94.3232606237133,-992.730149183506,404.835831945202));
#1563=CARTESIAN_POINT('',(-94.3232606237133,-950.912268992727,404.835831945202));
#1564=CARTESIAN_POINT('',(-169.093730127775,-992.730149183506,404.835831945202));
#1565=CARTESIAN_POINT('Origin',(-159.623260127774,-927.730699309637,456.235831945198));
#1566=CARTESIAN_POINT('',(-159.623260127774,-930.930149309627,464.635831986621));
#1567=CARTESIAN_POINT('',(-159.623260127774,-943.605424278104,464.635831986621));
#1568=CARTESIAN_POINT('',(-159.623260127774,-930.930149309627,457.035831945196));
#1569=CARTESIAN_POINT('Origin',(-161.360665127773,-992.730149183505,457.835831945196));
#1570=CARTESIAN_POINT('',(-94.3232606237064,-992.730149183505,464.635831986621));
#1571=CARTESIAN_POINT('',(-94.3232606237133,-992.730149183505,440.23408190912));
#1572=CARTESIAN_POINT('',(-144.841962751756,-992.730149183505,464.635831986621));
#1573=CARTESIAN_POINT('',(-103.768260638079,-992.730149183505,420.135831945166));
#1574=CARTESIAN_POINT('Origin',(-103.768260638079,-992.730149183505,417.635831945166));
#1575=CARTESIAN_POINT('',(-106.318260638093,-992.730149183505,432.628331945179));
#1576=CARTESIAN_POINT('Origin',(-106.318260638093,-992.730149183505,428.628331945179));
#1577=CARTESIAN_POINT('',(-104.533260638168,-992.730149183505,453.485831945185));
#1578=CARTESIAN_POINT('',(-104.533260638168,-992.730149183506,439.845831945185));
#1579=CARTESIAN_POINT('',(-104.533260638168,-992.730149183505,449.175831945191));
#1580=CARTESIAN_POINT('',(-98.3184566381683,-992.730149183505,453.485831945185));
#1581=CARTESIAN_POINT('',(-136.334560882971,-992.730149183505,453.485831945185));
#1582=CARTESIAN_POINT('',(-98.3184566381682,-992.730149183506,439.845831945185));
#1583=CARTESIAN_POINT('',(-98.3184566381683,-992.730149183505,453.795831945191));
#1584=CARTESIAN_POINT('',(-132.089560882971,-992.730149183505,439.845831945185));
#1585=CARTESIAN_POINT('Origin',(-157.323260336885,-931.230148891102,445.08583218348));
#1586=CARTESIAN_POINT('',(-157.323260336885,-930.730148891054,411.335322164556));
#1587=CARTESIAN_POINT('Ctrl Pts',(-157.323260336886,-930.730148891102,411.33532216458));
#1588=CARTESIAN_POINT('Ctrl Pts',(-157.386296580612,-930.730148891102,411.33532216458));
#1589=CARTESIAN_POINT('Ctrl Pts',(-157.452874882883,-930.742806364282,411.341897753318));
#1590=CARTESIAN_POINT('Ctrl Pts',(-157.574194074403,-930.792730365586,411.366419178387));
#1591=CARTESIAN_POINT('Ctrl Pts',(-157.628994165961,-930.829951851662,411.38416334422));
#1592=CARTESIAN_POINT('Ctrl Pts',(-157.718043606751,-930.916700167173,411.422358086444));
#1593=CARTESIAN_POINT('Ctrl Pts',(-157.75747717544,-930.973204088275,411.445706041574));
#1594=CARTESIAN_POINT('Ctrl Pts',(-157.810099970931,-931.097664657665,411.491233036434));
#1595=CARTESIAN_POINT('Ctrl Pts',(-157.823260336886,-931.16567217124,411.513306300764));
#1596=CARTESIAN_POINT('Ctrl Pts',(-157.823260336886,-931.230148891102,411.531583732845));
#1597=CARTESIAN_POINT('',(-157.323260336884,-930.730148891259,453.936342202299));
#1598=CARTESIAN_POINT('',(-157.323260336884,-930.730148891102,445.08583218348));
#1599=CARTESIAN_POINT('Ctrl Pts',(-157.823260336885,-931.230148891102,453.740080634114));
#1600=CARTESIAN_POINT('Ctrl Pts',(-157.823260336885,-931.16677216833,453.75804624633));
#1601=CARTESIAN_POINT('Ctrl Pts',(-157.810538748486,-931.099838513079,453.779718815675));
#1602=CARTESIAN_POINT('Ctrl Pts',(-157.759548412821,-930.977020951922,453.824483405214));
#1603=CARTESIAN_POINT('Ctrl Pts',(-157.72130743418,-930.92108920721,453.84747573135));
#1604=CARTESIAN_POINT('Ctrl Pts',(-157.633460599683,-930.833242372713,453.885962810211));
#1605=CARTESIAN_POINT('Ctrl Pts',(-157.578106754625,-930.794834111621,453.904228899814));
#1606=CARTESIAN_POINT('Ctrl Pts',(-157.455130476229,-930.743265045297,453.929525127052));
#1607=CARTESIAN_POINT('Ctrl Pts',(-157.387445596192,-930.730148891102,453.936342202379));
#1608=CARTESIAN_POINT('Ctrl Pts',(-157.323260336885,-930.730148891102,453.936342202379));
#1609=CARTESIAN_POINT('Origin',(-175.108456336908,-931.980148891029,456.385831945199));
#1610=CARTESIAN_POINT('',(-94.3232606381593,-930.730148891054,453.936342202403));
#1611=CARTESIAN_POINT('',(-98.3085126381593,-930.730148891259,453.936342202299));
#1612=CARTESIAN_POINT('',(-94.3232606237132,-934.429638633818,457.635831945189));
#1613=CARTESIAN_POINT('Origin',(-94.3232606237132,-931.980148891029,456.385831945199));
#1614=CARTESIAN_POINT('',(-175.108456336908,-934.429638633812,457.6358319452));
#1615=CARTESIAN_POINT('Origin',(-157.073004127719,-930.730148891102,457.835831945198));
#1616=CARTESIAN_POINT('',(-94.3232606381593,-930.730148891259,411.33532216466));
#1617=CARTESIAN_POINT('',(-175.108456336918,-930.730148891054,411.335322164556));
#1618=CARTESIAN_POINT('',(-94.3232606237132,-930.730148891264,440.234081909121));
#1619=CARTESIAN_POINT('',(-103.768260457799,-930.730148891244,413.160831945172));
#1620=CARTESIAN_POINT('',(-103.768254267263,-930.730148891244,422.11083194517));
#1621=CARTESIAN_POINT('Origin',(-103.768260638079,-930.730148891102,417.635831945172));
#1622=CARTESIAN_POINT('',(-98.7931194849295,-930.730148891258,417.635831945171));
#1623=CARTESIAN_POINT('Origin',(-103.768260520872,-930.730148891102,417.107742187906));
#1624=CARTESIAN_POINT('Origin',(-103.768260520873,-930.730148891102,418.163921702437));
#1625=CARTESIAN_POINT('',(-103.768260641408,-930.730148891244,442.985831945172));
#1626=CARTESIAN_POINT('',(-103.768260638076,-930.730148891244,452.285831945172));
#1627=CARTESIAN_POINT('Origin',(-103.768260638077,-930.730148891102,447.635831945172));
#1628=CARTESIAN_POINT('',(-98.6171698845075,-930.730148891258,447.635831945171));
#1629=CARTESIAN_POINT('Origin',(-103.7682605552,-930.730148891102,447.107742149721));
#1630=CARTESIAN_POINT('Origin',(-103.7682605552,-930.730148891102,448.163921740623));
#1631=CARTESIAN_POINT('Origin',(-157.623260127774,-930.930149309627,457.035831945196));
#1632=CARTESIAN_POINT('',(-157.623260127774,-928.930149309648,464.635831986621));
#1633=CARTESIAN_POINT('Origin',(-157.623260127774,-930.930149309627,464.635831986621));
#1634=CARTESIAN_POINT('',(-157.623260127774,-928.930149309627,457.035831945196));
#1635=CARTESIAN_POINT('Origin',(-111.204921623695,-928.930149309639,457.835831945195));
#1636=CARTESIAN_POINT('',(-94.323260623704,-928.930149309637,464.635831986621));
#1637=CARTESIAN_POINT('',(-96.323260623704,-928.930149309637,464.635831986621));
#1638=CARTESIAN_POINT('',(-94.3232606237134,-928.930149309642,440.234081909119));
#1639=CARTESIAN_POINT('',(-103.768260638076,-928.930149309623,452.285831945172));
#1640=CARTESIAN_POINT('',(-103.768260641408,-928.930149309623,442.985831945172));
#1641=CARTESIAN_POINT('Origin',(-103.768260638077,-928.930149309639,447.635831945172));
#1642=CARTESIAN_POINT('',(-98.6171698845076,-928.930149309623,447.635831945171));
#1643=CARTESIAN_POINT('Origin',(-103.7682605552,-928.930149309639,448.163921740623));
#1644=CARTESIAN_POINT('Origin',(-103.7682605552,-928.930149309639,447.107742149721));
#1645=CARTESIAN_POINT('',(-103.768254267263,-928.930149309623,422.11083194517));
#1646=CARTESIAN_POINT('',(-103.768260457799,-928.930149309623,413.160831945172));
#1647=CARTESIAN_POINT('Origin',(-103.768260638079,-928.930149309639,417.635831945172));
#1648=CARTESIAN_POINT('',(-98.7931194849297,-928.930149309623,417.635831945171));
#1649=CARTESIAN_POINT('Origin',(-103.768260520873,-928.930149309639,418.163921702437));
#1650=CARTESIAN_POINT('Origin',(-103.768260520873,-928.930149309639,417.107742187906));
#1651=CARTESIAN_POINT('Origin',(-128.323260375739,-959.480149246571,464.635831986621));
#1652=CARTESIAN_POINT('',(-94.3232606237063,-990.730149183504,464.635831986621));
#1653=CARTESIAN_POINT('',(-94.3232606237063,-990.730149183504,464.635831986621));
#1654=CARTESIAN_POINT('Origin',(-94.3232606237133,-964.800390246563,422.632331873044));
#1655=CARTESIAN_POINT('',(-94.3232606237133,-947.030149183508,457.635831945189));
#1656=CARTESIAN_POINT('',(-94.3232606237133,-947.030149183508,441.410581909111));
#1657=CARTESIAN_POINT('',(-94.3232606237133,-968.390292246568,457.63583194519));
#1658=CARTESIAN_POINT('',(-94.3232606237132,-933.561287721113,406.635832421759));
#1659=CARTESIAN_POINT('Origin',(-94.3232606237132,-931.980148891029,408.885832421759));
#1660=CARTESIAN_POINT('',(-94.3232606237133,-985.399010353622,406.63583242176));
#1661=CARTESIAN_POINT('',(-94.3232606237133,-962.300390246568,406.635832421759));
#1662=CARTESIAN_POINT('',(-94.3232606381594,-988.230149183707,411.335322164542));
#1663=CARTESIAN_POINT('Origin',(-94.3232606237133,-986.980149183705,408.88583242176));
#1664=CARTESIAN_POINT('',(-94.3232606381594,-990.930149183707,411.335322164542));
#1665=CARTESIAN_POINT('',(-94.3232606237133,-976.515269715135,411.335322164542));
#1666=CARTESIAN_POINT('',(-94.3232606237133,-990.930149183707,425.284067487973));
#1667=CARTESIAN_POINT('',(-94.3232606381594,-984.530659440924,457.635831945201));
#1668=CARTESIAN_POINT('Origin',(-94.3232606237133,-986.980149183706,456.385831945199));
#1669=CARTESIAN_POINT('',(-94.3232606237133,-971.030149183508,457.635831945189));
#1670=CARTESIAN_POINT('',(-94.3232606237133,-968.390292246568,457.63583194519));
#1671=CARTESIAN_POINT('',(-94.3232606237133,-971.030149183508,441.410581909111));
#1672=CARTESIAN_POINT('',(-94.3232606235437,-931.980148891029,410.13583242176));
#1673=CARTESIAN_POINT('Origin',(-94.3232606235437,-931.980148891029,408.88583242176));
#1674=CARTESIAN_POINT('',(-94.3232606235504,-931.980148891029,457.635831945199));
#1675=CARTESIAN_POINT('Origin',(-94.3232606235504,-931.980148891029,456.385831945199));
#1676=CARTESIAN_POINT('',(-94.3232606235505,-986.980149183706,457.6358319452));
#1677=CARTESIAN_POINT('Origin',(-94.3232606235505,-986.980149183706,456.3858319452));
#1678=CARTESIAN_POINT('',(-94.3232606235438,-986.980149183705,410.13583242176));
#1679=CARTESIAN_POINT('Origin',(-94.3232606235438,-986.980149183705,408.88583242176));
#1680=CARTESIAN_POINT('Origin',(-135.801132375738,-968.480194246573,457.635831945195));
#1681=CARTESIAN_POINT('',(-135.823260623702,-947.030149183508,457.635831945195));
#1682=CARTESIAN_POINT('',(-135.81219649972,-947.030149183508,457.635831945195));
#1683=CARTESIAN_POINT('',(-135.823260623702,-971.030149183508,457.635831945195));
#1684=CARTESIAN_POINT('Origin',(-135.823260623702,-959.030149183508,457.635831945195));
#1685=CARTESIAN_POINT('',(-118.912196499727,-971.030149183508,457.635831945193));
#1686=CARTESIAN_POINT('',(-98.3085126381594,-984.530659440918,457.63583194519));
#1687=CARTESIAN_POINT('',(-122.290186599241,-943.53060880019,457.635831945193));
#1688=CARTESIAN_POINT('Origin',(-120.390186599241,-943.53060880019,457.635831945193));
#1689=CARTESIAN_POINT('',(-153.290186599241,-943.530608800185,457.635831945198));
#1690=CARTESIAN_POINT('Origin',(-151.390186599241,-943.530608800185,457.635831945197));
#1691=CARTESIAN_POINT('',(-153.323260623703,-974.530149183507,457.635831945195));
#1692=CARTESIAN_POINT('Origin',(-151.323260623703,-974.530149183507,457.635831945195));
#1693=CARTESIAN_POINT('',(-122.323260623703,-974.530149183509,457.635831945195));
#1694=CARTESIAN_POINT('Origin',(-120.323260623703,-974.530149183509,457.635831945195));
#1695=CARTESIAN_POINT('Origin',(-135.823260623702,-959.030149183508,457.835831945195));
#1696=CARTESIAN_POINT('',(-135.823260623702,-947.030149183508,457.835831945195));
#1697=CARTESIAN_POINT('',(-135.823260623702,-971.030149183508,457.835831945195));
#1698=CARTESIAN_POINT('Origin',(-135.823260623702,-947.030149183508,460.188831945178));
#1699=CARTESIAN_POINT('Origin',(-102.023260623715,-971.030149183508,460.188831945178));
#1700=CARTESIAN_POINT('Origin',(-103.7682605552,-928.230149309623,448.163921740623));
#1701=CARTESIAN_POINT('',(-98.6171698845075,-928.230149309623,447.635831945171));
#1702=CARTESIAN_POINT('',(-103.768260641408,-928.230149309623,442.985831945172));
#1703=CARTESIAN_POINT('Origin',(-103.768260638077,-928.230149309623,447.635831945172));
#1704=CARTESIAN_POINT('',(-103.768260638076,-928.230149309623,452.285831945172));
#1705=CARTESIAN_POINT('Origin',(-103.7682605552,-928.230149309623,447.107742149721));
#1706=CARTESIAN_POINT('Origin',(-103.768260520873,-928.230149309623,418.163921702437));
#1707=CARTESIAN_POINT('',(-98.7931194849295,-928.230149309623,417.635831945171));
#1708=CARTESIAN_POINT('',(-103.768260457799,-928.230149309623,413.160831945172));
#1709=CARTESIAN_POINT('Origin',(-103.768260638079,-928.230149309623,417.635831945172));
#1710=CARTESIAN_POINT('',(-103.768254267263,-928.230149309623,422.11083194517));
#1711=CARTESIAN_POINT('Origin',(-103.768260520872,-928.230149309623,417.107742187906));
#1712=CARTESIAN_POINT('Origin',(-157.823260336886,-988.230149183707,411.335322164542));
#1713=CARTESIAN_POINT('',(-98.3085126381594,-990.930149183707,411.335322164542));
#1714=CARTESIAN_POINT('',(-98.3085126381594,-988.230149183707,411.335322164542));
#1715=CARTESIAN_POINT('Origin',(-144.337529692805,-990.930149183707,427.935803102902));
#1716=CARTESIAN_POINT('',(-103.768260638079,-990.930149183707,420.135831945166));
#1717=CARTESIAN_POINT('Origin',(-103.768260638079,-990.930149183707,417.635831945166));
#1718=CARTESIAN_POINT('',(-106.318260638093,-990.930149183707,432.628331945179));
#1719=CARTESIAN_POINT('Origin',(-106.318260638093,-990.930149183707,428.628331945179));
#1720=CARTESIAN_POINT('',(-98.3184566381682,-990.930149183505,439.845831945185));
#1721=CARTESIAN_POINT('',(-104.533260638168,-990.930149183707,439.845831945185));
#1722=CARTESIAN_POINT('',(-123.577993165487,-990.930149183707,439.845831945185));
#1723=CARTESIAN_POINT('',(-98.3184566381683,-990.930149183505,453.485831945185));
#1724=CARTESIAN_POINT('',(-98.3184566381683,-990.930149183707,438.845817524044));
#1725=CARTESIAN_POINT('',(-104.533260638168,-990.930149183505,453.485831945185));
#1726=CARTESIAN_POINT('',(-127.822993165487,-990.930149183707,453.485831945185));
#1727=CARTESIAN_POINT('',(-104.533260638168,-990.930149183707,434.225817524044));
#1728=CARTESIAN_POINT('Origin',(-98.3184566381683,-990.730149183505,449.755831945185));
#1729=CARTESIAN_POINT('',(-98.3184566381682,-990.730149183505,439.845831945185));
#1730=CARTESIAN_POINT('',(-98.3184566381683,-990.730149183505,453.485831945185));
#1731=CARTESIAN_POINT('Origin',(-102.818456638168,-990.730149183505,439.845831945185));
#1732=CARTESIAN_POINT('',(-104.533260638168,-990.730149183505,439.845831945185));
#1733=CARTESIAN_POINT('Origin',(-103.768260638079,-988.730149183505,417.635831945166));
#1734=CARTESIAN_POINT('',(-103.768260638079,-988.730149183505,420.135831945166));
#1735=CARTESIAN_POINT('Origin',(-106.318260638093,-988.730149183505,428.628331945179));
#1736=CARTESIAN_POINT('',(-106.318260638093,-988.730149183505,432.628331945179));
#1737=CARTESIAN_POINT('Origin',(-104.533260638168,-990.730149183505,440.515831945185));
#1738=CARTESIAN_POINT('',(-104.533260638168,-990.730149183505,453.485831945185));
#1739=CARTESIAN_POINT('Origin',(-111.308456638168,-990.730149183505,453.485831945185));
#1740=CARTESIAN_POINT('Origin',(-110.323260127774,-931.980148891029,456.385831945199));
#1741=CARTESIAN_POINT('',(-110.323260127774,-931.980148891029,457.635831945199));
#1742=CARTESIAN_POINT('Origin',(-110.323260127774,-931.980148891029,456.385831945199));
#1743=CARTESIAN_POINT('Origin',(-110.323260127774,-931.980148891028,408.885832421759));
#1744=CARTESIAN_POINT('',(-110.323260127774,-931.980148891029,410.135832421759));
#1745=CARTESIAN_POINT('Origin',(-110.323260127774,-931.980148891029,408.885832421759));
#1746=CARTESIAN_POINT('Origin',(-110.323260127774,-986.980149183705,408.88583242176));
#1747=CARTESIAN_POINT('',(-110.323260127774,-986.980149183705,410.13583242176));
#1748=CARTESIAN_POINT('Origin',(-110.323260127774,-986.980149183705,408.88583242176));
#1749=CARTESIAN_POINT('Origin',(-110.323260127774,-986.980149183705,456.385831945199));
#1750=CARTESIAN_POINT('',(-110.323260127774,-986.980149183706,457.635831945199));
#1751=CARTESIAN_POINT('Origin',(-110.323260127774,-986.980149183706,456.385831945199));
#1752=CARTESIAN_POINT('Origin',(-175.108456336883,-986.980149183705,408.88583242176));
#1753=CARTESIAN_POINT('',(-175.108456336883,-985.399010353622,406.63583242176));
#1754=CARTESIAN_POINT('Origin',(-146.165858375745,-959.800390246571,406.635832421759));
#1755=CARTESIAN_POINT('',(-175.108456336918,-933.561287721113,406.635832421759));
#1756=CARTESIAN_POINT('Origin',(-175.108456336918,-931.980148891029,408.885832421759));
#1757=CARTESIAN_POINT('Origin',(-175.108456336908,-931.980148891029,456.385831945199));
#1758=CARTESIAN_POINT('',(-175.108456336908,-931.980148891029,457.635831945199));
#1759=CARTESIAN_POINT('Origin',(-175.108456336918,-931.980148891029,408.885832421759));
#1760=CARTESIAN_POINT('',(-175.108456336918,-931.980148891029,410.135832421759));
#1761=CARTESIAN_POINT('Origin',(-175.108456336883,-986.980149183705,408.88583242176));
#1762=CARTESIAN_POINT('',(-175.108456336883,-986.980149183705,410.13583242176));
#1763=CARTESIAN_POINT('Origin',(-175.108456336895,-986.980149183706,456.385831945199));
#1764=CARTESIAN_POINT('',(-175.108456336895,-986.980149183706,457.635831945199));
#1765=CARTESIAN_POINT('Origin',(-151.323260623703,-974.530149183507,460.188831945178));
#1766=CARTESIAN_POINT('',(-153.323260623703,-974.530149183507,460.188831945178));
#1767=CARTESIAN_POINT('Origin',(-151.390186599241,-943.530608800185,457.835831945197));
#1768=CARTESIAN_POINT('',(-153.290186599241,-943.530608800185,457.835831945198));
#1769=CARTESIAN_POINT('Origin',(-120.390186599241,-943.53060880019,457.835831945193));
#1770=CARTESIAN_POINT('',(-122.290186599241,-943.53060880019,457.835831945193));
#1771=CARTESIAN_POINT('Origin',(-175.108456336895,-986.980149183706,456.385831945199));
#1772=CARTESIAN_POINT('Origin',(-120.323260623703,-974.530149183509,460.188831945178));
#1773=CARTESIAN_POINT('',(-122.323260623703,-974.530149183509,460.188831945178));
#1774=UNCERTAINTY_MEASURE_WITH_UNIT(LENGTH_MEASURE(0.01),#1778,
'DISTANCE_ACCURACY_VALUE',
'Maximum model space distance between geometric entities at asserted c
onnectivities');
#1775=UNCERTAINTY_MEASURE_WITH_UNIT(LENGTH_MEASURE(0.01),#1778,
'DISTANCE_ACCURACY_VALUE',
'Maximum model space distance between geometric entities at asserted c
onnectivities');
#1776=(
GEOMETRIC_REPRESENTATION_CONTEXT(3)
GLOBAL_UNCERTAINTY_ASSIGNED_CONTEXT((#1774))
GLOBAL_UNIT_ASSIGNED_CONTEXT((#1778,#1780,#1781))
REPRESENTATION_CONTEXT('','3D')
);
#1777=(
GEOMETRIC_REPRESENTATION_CONTEXT(3)
GLOBAL_UNCERTAINTY_ASSIGNED_CONTEXT((#1775))
GLOBAL_UNIT_ASSIGNED_CONTEXT((#1778,#1780,#1781))
REPRESENTATION_CONTEXT('','3D')
);
#1778=(
LENGTH_UNIT()
NAMED_UNIT(*)
SI_UNIT(.MILLI.,.METRE.)
);
#1779=(
LENGTH_UNIT()
NAMED_UNIT(*)
SI_UNIT($,.METRE.)
);
#1780=(
NAMED_UNIT(*)
PLANE_ANGLE_UNIT()
SI_UNIT($,.RADIAN.)
);
#1781=(
NAMED_UNIT(*)
SI_UNIT($,.STERADIAN.)
SOLID_ANGLE_UNIT()
);
#1782=SHAPE_DEFINITION_REPRESENTATION(#1783,#1784);
#1783=PRODUCT_DEFINITION_SHAPE('',$,#1786);
#1784=SHAPE_REPRESENTATION('',(#1050),#1776);
#1785=PRODUCT_DEFINITION_CONTEXT('part definition',#1790,'design');
#1786=PRODUCT_DEFINITION('2026-07-20-14-13-24-938','main-body',#1787,#1785);
#1787=PRODUCT_DEFINITION_FORMATION('',$,#1792);
#1788=PRODUCT_RELATED_PRODUCT_CATEGORY('main-body','main-body',(#1792));
#1789=APPLICATION_PROTOCOL_DEFINITION('international standard',
'automotive_design',2009,#1790);
#1790=APPLICATION_CONTEXT(
'Core Data for Automotive Mechanical Design Process');
#1791=PRODUCT_CONTEXT('part definition',#1790,'mechanical');
#1792=PRODUCT('2026-07-20-14-13-24-938','main-body',$,(#1791));
#1793=PRESENTATION_STYLE_ASSIGNMENT((#1795));
#1794=PRESENTATION_STYLE_ASSIGNMENT((#1796));
#1795=SURFACE_STYLE_USAGE(.BOTH.,#1797);
#1796=SURFACE_STYLE_USAGE(.BOTH.,#1798);
#1797=SURFACE_SIDE_STYLE('',(#1799));
#1798=SURFACE_SIDE_STYLE('',(#1800));
#1799=SURFACE_STYLE_FILL_AREA(#1801);
#1800=SURFACE_STYLE_FILL_AREA(#1802);
#1801=FILL_AREA_STYLE('Steel - Satin',(#1803));
#1802=FILL_AREA_STYLE('Plastic - Translucent Matte (White) 3D Printed',
(#1804));
#1803=FILL_AREA_STYLE_COLOUR('Steel - Satin',#1805);
#1804=FILL_AREA_STYLE_COLOUR(
'Plastic - Translucent Matte (White) 3D Printed',#1806);
#1805=COLOUR_RGB('Steel - Satin',0.627450980392157,0.627450980392157,0.627450980392157);
#1806=COLOUR_RGB('Plastic - Translucent Matte (White) 3D Printed',0.964705882352941,
0.964705882352941,0.952941176470588);
ENDSEC;
END-ISO-10303-21;
