ISO-10303-21;
HEADER;
/* Generated by software containing ST-Developer
 * from STEP Tools, Inc. (www.steptools.com) 
 */

FILE_DESCRIPTION(
/* description */ (''),
/* implementation_level */ '2;1');

FILE_NAME(
/* name */ 'carriage-bottom-right.step',
/* time_stamp */ '2026-06-23T13:26:36-07:00',
/* author */ (''),
/* organization */ (''),
/* preprocessor_version */ 'ST-DEVELOPER v20.1',
/* originating_system */ 'Autodesk Translation Framework v15.8.0.0',
/* authorisation */ '');

FILE_SCHEMA (('AUTOMOTIVE_DESIGN { 1 0 10303 214 3 1 1 }'));
ENDSEC;

DATA;
#10=MECHANICAL_DESIGN_GEOMETRIC_PRESENTATION_REPRESENTATION('',(#13),#1684);
#11=SHAPE_REPRESENTATION_RELATIONSHIP('SRR','None',#1691,#12);
#12=ADVANCED_BREP_SHAPE_REPRESENTATION('',(#14),#1683);
#13=STYLED_ITEM('',(#1701),#14);
#14=MANIFOLD_SOLID_BREP('Body2',#977);
#15=B_SPLINE_CURVE_WITH_KNOTS('',3,(#1570,#1571,#1572,#1573,#1574,#1575,
#1576,#1577,#1578,#1579,#1580,#1581,#1582,#1583,#1584,#1585,#1586,#1587,
#1588,#1589,#1590,#1591,#1592),.UNSPECIFIED.,.F.,.F.,(4,2,2,2,2,2,2,2,2,
3,4),(0.522708924988273,0.535132593805455,0.587455623599882,0.63977865339431,
0.691028802718294,0.742278952042279,0.793529102576258,0.844779253110238,
0.897102279835166,0.949425306560093,0.961848999454857),.UNSPECIFIED.);
#16=B_SPLINE_CURVE_WITH_KNOTS('',3,(#1633,#1634,#1635,#1636,#1637,#1638,
#1639,#1640,#1641,#1642,#1643,#1644,#1645,#1646,#1647,#1648,#1649,#1650,
#1651,#1652,#1653,#1654,#1655),.UNSPECIFIED.,.F.,.F.,(4,2,2,2,2,2,2,2,2,
3,4),(0.522708924988273,0.535132593805455,0.587455623599882,0.63977865339431,
0.691028802718294,0.742278952042279,0.793529102576258,0.844779253110238,
0.897102279835166,0.949425306560093,0.961848999454857),.UNSPECIFIED.);
#17=CONICAL_SURFACE('',#1035,2.4,0.380506377112366);
#18=CONICAL_SURFACE('',#1046,2.4,0.380506377112366);
#19=CONICAL_SURFACE('',#1059,2.4,0.380506377112366);
#20=CONICAL_SURFACE('',#1068,2.4,0.380506377112366);
#21=CYLINDRICAL_SURFACE('',#1006,2.7);
#22=CYLINDRICAL_SURFACE('',#1020,1.25);
#23=CYLINDRICAL_SURFACE('',#1024,1.25);
#24=CYLINDRICAL_SURFACE('',#1025,2.);
#25=CYLINDRICAL_SURFACE('',#1030,2.);
#26=CYLINDRICAL_SURFACE('',#1038,1.25);
#27=CYLINDRICAL_SURFACE('',#1044,1.49999999999998);
#28=CYLINDRICAL_SURFACE('',#1064,1.49999999999998);
#29=CYLINDRICAL_SURFACE('',#1067,1.25);
#30=(
BOUNDED_CURVE()
B_SPLINE_CURVE(2,(#1350,#1351,#1352),.UNSPECIFIED.,.F.,.F.)
B_SPLINE_CURVE_WITH_KNOTS((3,3),(5.94434219041023E-9,0.295167051047262),
 .UNSPECIFIED.)
CURVE()
GEOMETRIC_REPRESENTATION_ITEM()
RATIONAL_B_SPLINE_CURVE((1.00000000057052,1.01416457471483,1.))
REPRESENTATION_ITEM('')
);
#31=(
BOUNDED_CURVE()
B_SPLINE_CURVE(2,(#1355,#1356,#1357),.UNSPECIFIED.,.F.,.F.)
B_SPLINE_CURVE_WITH_KNOTS((3,3),(0.,0.295167051826242),.UNSPECIFIED.)
CURVE()
GEOMETRIC_REPRESENTATION_ITEM()
RATIONAL_B_SPLINE_CURVE((1.,1.01416457488106,1.))
REPRESENTATION_ITEM('')
);
#32=(
BOUNDED_CURVE()
B_SPLINE_CURVE(2,(#1541,#1542,#1543,#1544),.UNSPECIFIED.,.F.,.F.)
B_SPLINE_CURVE_WITH_KNOTS((3,1,3),(11647.7498846104,15179.4785493817,18125.7912644067),
 .UNSPECIFIED.)
CURVE()
GEOMETRIC_REPRESENTATION_ITEM()
RATIONAL_B_SPLINE_CURVE((13246.9774695922,12891.1565827104,9608.97529202857,
7118.48160415135))
REPRESENTATION_ITEM('')
);
#33=(
BOUNDED_CURVE()
B_SPLINE_CURVE(2,(#1547,#1548,#1549,#1550),.UNSPECIFIED.,.F.,.F.)
B_SPLINE_CURVE_WITH_KNOTS((3,1,3),(11647.7153449851,15179.4732475945,17044.6695262657),
 .UNSPECIFIED.)
CURVE()
GEOMETRIC_REPRESENTATION_ITEM()
RATIONAL_B_SPLINE_CURVE((13246.9706006377,12891.1611595274,10156.7324629591,
8811.86218383432))
REPRESENTATION_ITEM('')
);
#34=(
BOUNDED_CURVE()
B_SPLINE_CURVE(2,(#1554,#1555,#1556,#1557,#1558),.UNSPECIFIED.,.F.,.F.)
B_SPLINE_CURVE_WITH_KNOTS((3,1,1,3),(3416.52301594106,4868.65191558486,
8018.16655628104,9894.59571273007),.UNSPECIFIED.)
CURVE()
GEOMETRIC_REPRESENTATION_ITEM()
RATIONAL_B_SPLINE_CURVE((7118.47962077928,8345.95030992369,11467.6722711601,
13057.9284216865,13246.970600638))
REPRESENTATION_ITEM('')
);
#35=(
BOUNDED_CURVE()
B_SPLINE_CURVE(2,(#1594,#1595,#1596,#1597,#1598),.UNSPECIFIED.,.F.,.F.)
B_SPLINE_CURVE_WITH_KNOTS((3,1,1,3),(3416.51979404113,4868.65566856266,
8018.17438458511,9894.56117382883),.UNSPECIFIED.)
CURVE()
GEOMETRIC_REPRESENTATION_ITEM()
RATIONAL_B_SPLINE_CURVE((7118.48160416334,8345.96000826813,11467.6907399861,
13057.9319129094,13246.9774695919))
REPRESENTATION_ITEM('')
);
#36=(
BOUNDED_CURVE()
B_SPLINE_CURVE(2,(#1627,#1628,#1629,#1630),.UNSPECIFIED.,.F.,.F.)
B_SPLINE_CURVE_WITH_KNOTS((3,1,3),(11647.715348425,15179.4732884959,18125.788058472),
 .UNSPECIFIED.)
CURVE()
GEOMETRIC_REPRESENTATION_ITEM()
RATIONAL_B_SPLINE_CURVE((13246.9707066747,12891.1612575267,9608.97140953119,
7118.47964989568))
REPRESENTATION_ITEM('')
);
#37=(
BOUNDED_CURVE()
B_SPLINE_CURVE(2,(#1656,#1657,#1658,#1659),.UNSPECIFIED.,.F.,.F.)
B_SPLINE_CURVE_WITH_KNOTS((3,1,3),(11647.7498819022,15179.4785921641,18125.7912816795),
 .UNSPECIFIED.)
CURVE()
GEOMETRIC_REPRESENTATION_ITEM()
RATIONAL_B_SPLINE_CURVE((13246.9775816928,12891.1566883301,9608.97532802854,
7118.48163489024))
REPRESENTATION_ITEM('')
);
#38=(
BOUNDED_CURVE()
B_SPLINE_CURVE(2,(#1662,#1663,#1664,#1665,#1666),.UNSPECIFIED.,.F.,.F.)
B_SPLINE_CURVE_WITH_KNOTS((3,1,1,3),(4497.64151475033,4868.65194453825,
8018.16661667777,9894.59570928467),.UNSPECIFIED.)
CURVE()
GEOMETRIC_REPRESENTATION_ITEM()
RATIONAL_B_SPLINE_CURVE((8811.86223074929,9079.37343657855,11467.6724136877,
13057.9285318883,13246.9707066741))
REPRESENTATION_ITEM('')
);
#39=(
BOUNDED_CURVE()
B_SPLINE_CURVE(2,(#1670,#1671,#1672,#1673),.UNSPECIFIED.,.F.,.F.)
B_SPLINE_CURVE_WITH_KNOTS((3,1,3),(11647.7498819021,15179.4785921641,18125.791281685),
 .UNSPECIFIED.)
CURVE()
GEOMETRIC_REPRESENTATION_ITEM()
RATIONAL_B_SPLINE_CURVE((13246.9775816928,12891.1566883301,9608.97532802574,
7118.48163488091))
REPRESENTATION_ITEM('')
);
#40=FACE_BOUND('',#101,.T.);
#41=FACE_BOUND('',#108,.T.);
#42=FACE_BOUND('',#111,.T.);
#43=FACE_BOUND('',#112,.T.);
#44=FACE_BOUND('',#113,.T.);
#45=FACE_BOUND('',#114,.T.);
#46=FACE_BOUND('',#121,.T.);
#47=FACE_BOUND('',#122,.T.);
#48=FACE_BOUND('',#123,.T.);
#49=FACE_BOUND('',#124,.T.);
#50=FACE_OUTER_BOUND('',#100,.T.);
#51=FACE_OUTER_BOUND('',#102,.T.);
#52=FACE_OUTER_BOUND('',#103,.T.);
#53=FACE_OUTER_BOUND('',#104,.T.);
#54=FACE_OUTER_BOUND('',#105,.T.);
#55=FACE_OUTER_BOUND('',#106,.T.);
#56=FACE_OUTER_BOUND('',#107,.T.);
#57=FACE_OUTER_BOUND('',#109,.T.);
#58=FACE_OUTER_BOUND('',#110,.T.);
#59=FACE_OUTER_BOUND('',#115,.T.);
#60=FACE_OUTER_BOUND('',#116,.T.);
#61=FACE_OUTER_BOUND('',#117,.T.);
#62=FACE_OUTER_BOUND('',#118,.T.);
#63=FACE_OUTER_BOUND('',#119,.T.);
#64=FACE_OUTER_BOUND('',#120,.T.);
#65=FACE_OUTER_BOUND('',#125,.T.);
#66=FACE_OUTER_BOUND('',#126,.T.);
#67=FACE_OUTER_BOUND('',#127,.T.);
#68=FACE_OUTER_BOUND('',#128,.T.);
#69=FACE_OUTER_BOUND('',#129,.T.);
#70=FACE_OUTER_BOUND('',#130,.T.);
#71=FACE_OUTER_BOUND('',#131,.T.);
#72=FACE_OUTER_BOUND('',#132,.T.);
#73=FACE_OUTER_BOUND('',#133,.T.);
#74=FACE_OUTER_BOUND('',#134,.T.);
#75=FACE_OUTER_BOUND('',#135,.T.);
#76=FACE_OUTER_BOUND('',#136,.T.);
#77=FACE_OUTER_BOUND('',#137,.T.);
#78=FACE_OUTER_BOUND('',#138,.T.);
#79=FACE_OUTER_BOUND('',#139,.T.);
#80=FACE_OUTER_BOUND('',#140,.T.);
#81=FACE_OUTER_BOUND('',#141,.T.);
#82=FACE_OUTER_BOUND('',#142,.T.);
#83=FACE_OUTER_BOUND('',#143,.T.);
#84=FACE_OUTER_BOUND('',#144,.T.);
#85=FACE_OUTER_BOUND('',#145,.T.);
#86=FACE_OUTER_BOUND('',#146,.T.);
#87=FACE_OUTER_BOUND('',#147,.T.);
#88=FACE_OUTER_BOUND('',#148,.T.);
#89=FACE_OUTER_BOUND('',#149,.T.);
#90=FACE_OUTER_BOUND('',#150,.T.);
#91=FACE_OUTER_BOUND('',#151,.T.);
#92=FACE_OUTER_BOUND('',#152,.T.);
#93=FACE_OUTER_BOUND('',#153,.T.);
#94=FACE_OUTER_BOUND('',#154,.T.);
#95=FACE_OUTER_BOUND('',#155,.T.);
#96=FACE_OUTER_BOUND('',#156,.T.);
#97=FACE_OUTER_BOUND('',#157,.T.);
#98=FACE_OUTER_BOUND('',#158,.T.);
#99=FACE_OUTER_BOUND('',#159,.T.);
#100=EDGE_LOOP('',(#614,#615,#616,#617,#618,#619,#620,#621));
#101=EDGE_LOOP('',(#622));
#102=EDGE_LOOP('',(#623,#624,#625,#626));
#103=EDGE_LOOP('',(#627,#628,#629,#630,#631,#632,#633,#634,#635,#636));
#104=EDGE_LOOP('',(#637,#638,#639,#640,#641,#642,#643,#644,#645,#646,#647,
#648));
#105=EDGE_LOOP('',(#649,#650,#651,#652));
#106=EDGE_LOOP('',(#653,#654,#655,#656));
#107=EDGE_LOOP('',(#657,#658,#659,#660,#661,#662,#663,#664));
#108=EDGE_LOOP('',(#665));
#109=EDGE_LOOP('',(#666,#667,#668,#669));
#110=EDGE_LOOP('',(#670,#671,#672,#673,#674,#675,#676,#677));
#111=EDGE_LOOP('',(#678,#679,#680,#681));
#112=EDGE_LOOP('',(#682,#683,#684,#685));
#113=EDGE_LOOP('',(#686));
#114=EDGE_LOOP('',(#687));
#115=EDGE_LOOP('',(#688,#689,#690,#691,#692,#693));
#116=EDGE_LOOP('',(#694,#695,#696,#697));
#117=EDGE_LOOP('',(#698,#699,#700,#701));
#118=EDGE_LOOP('',(#702,#703,#704,#705));
#119=EDGE_LOOP('',(#706,#707,#708,#709));
#120=EDGE_LOOP('',(#710,#711,#712,#713,#714,#715,#716,#717,#718,#719,#720,
#721));
#121=EDGE_LOOP('',(#722));
#122=EDGE_LOOP('',(#723));
#123=EDGE_LOOP('',(#724,#725,#726,#727));
#124=EDGE_LOOP('',(#728,#729,#730,#731));
#125=EDGE_LOOP('',(#732,#733,#734,#735));
#126=EDGE_LOOP('',(#736,#737,#738,#739));
#127=EDGE_LOOP('',(#740,#741,#742,#743,#744,#745,#746,#747));
#128=EDGE_LOOP('',(#748,#749,#750,#751,#752));
#129=EDGE_LOOP('',(#753,#754,#755,#756));
#130=EDGE_LOOP('',(#757,#758,#759,#760));
#131=EDGE_LOOP('',(#761,#762,#763,#764));
#132=EDGE_LOOP('',(#765,#766,#767,#768,#769));
#133=EDGE_LOOP('',(#770,#771,#772,#773,#774,#775));
#134=EDGE_LOOP('',(#776,#777,#778,#779,#780,#781));
#135=EDGE_LOOP('',(#782,#783,#784,#785));
#136=EDGE_LOOP('',(#786));
#137=EDGE_LOOP('',(#787,#788,#789,#790,#791));
#138=EDGE_LOOP('',(#792,#793,#794,#795));
#139=EDGE_LOOP('',(#796,#797,#798,#799));
#140=EDGE_LOOP('',(#800,#801,#802,#803));
#141=EDGE_LOOP('',(#804,#805,#806,#807,#808,#809));
#142=EDGE_LOOP('',(#810,#811,#812,#813));
#143=EDGE_LOOP('',(#814,#815,#816,#817));
#144=EDGE_LOOP('',(#818,#819,#820,#821));
#145=EDGE_LOOP('',(#822,#823,#824,#825));
#146=EDGE_LOOP('',(#826,#827,#828,#829));
#147=EDGE_LOOP('',(#830,#831,#832,#833));
#148=EDGE_LOOP('',(#834,#835,#836,#837));
#149=EDGE_LOOP('',(#838,#839,#840,#841));
#150=EDGE_LOOP('',(#842,#843,#844,#845));
#151=EDGE_LOOP('',(#846,#847,#848,#849,#850));
#152=EDGE_LOOP('',(#851,#852,#853,#854,#855,#856));
#153=EDGE_LOOP('',(#857,#858,#859,#860,#861,#862));
#154=EDGE_LOOP('',(#863,#864,#865,#866,#867,#868,#869,#870));
#155=EDGE_LOOP('',(#871,#872,#873,#874));
#156=EDGE_LOOP('',(#875,#876,#877,#878));
#157=EDGE_LOOP('',(#879));
#158=EDGE_LOOP('',(#880,#881,#882,#883));
#159=EDGE_LOOP('',(#884,#885,#886,#887,#888,#889));
#160=LINE('',#1331,#258);
#161=LINE('',#1333,#259);
#162=LINE('',#1335,#260);
#163=LINE('',#1337,#261);
#164=LINE('',#1339,#262);
#165=LINE('',#1342,#263);
#166=LINE('',#1348,#264);
#167=LINE('',#1354,#265);
#168=LINE('',#1361,#266);
#169=LINE('',#1363,#267);
#170=LINE('',#1367,#268);
#171=LINE('',#1372,#269);
#172=LINE('',#1375,#270);
#173=LINE('',#1378,#271);
#174=LINE('',#1380,#272);
#175=LINE('',#1384,#273);
#176=LINE('',#1389,#274);
#177=LINE('',#1393,#275);
#178=LINE('',#1394,#276);
#179=LINE('',#1398,#277);
#180=LINE('',#1401,#278);
#181=LINE('',#1402,#279);
#182=LINE('',#1407,#280);
#183=LINE('',#1409,#281);
#184=LINE('',#1411,#282);
#185=LINE('',#1412,#283);
#186=LINE('',#1418,#284);
#187=LINE('',#1420,#285);
#188=LINE('',#1422,#286);
#189=LINE('',#1423,#287);
#190=LINE('',#1426,#288);
#191=LINE('',#1428,#289);
#192=LINE('',#1429,#290);
#193=LINE('',#1430,#291);
#194=LINE('',#1433,#292);
#195=LINE('',#1435,#293);
#196=LINE('',#1437,#294);
#197=LINE('',#1438,#295);
#198=LINE('',#1441,#296);
#199=LINE('',#1443,#297);
#200=LINE('',#1445,#298);
#201=LINE('',#1446,#299);
#202=LINE('',#1453,#300);
#203=LINE('',#1455,#301);
#204=LINE('',#1457,#302);
#205=LINE('',#1458,#303);
#206=LINE('',#1461,#304);
#207=LINE('',#1462,#305);
#208=LINE('',#1465,#306);
#209=LINE('',#1466,#307);
#210=LINE('',#1470,#308);
#211=LINE('',#1471,#309);
#212=LINE('',#1472,#310);
#213=LINE('',#1476,#311);
#214=LINE('',#1478,#312);
#215=LINE('',#1480,#313);
#216=LINE('',#1481,#314);
#217=LINE('',#1483,#315);
#218=LINE('',#1484,#316);
#219=LINE('',#1486,#317);
#220=LINE('',#1487,#318);
#221=LINE('',#1492,#319);
#222=LINE('',#1494,#320);
#223=LINE('',#1496,#321);
#224=LINE('',#1497,#322);
#225=LINE('',#1499,#323);
#226=LINE('',#1501,#324);
#227=LINE('',#1502,#325);
#228=LINE('',#1504,#326);
#229=LINE('',#1509,#327);
#230=LINE('',#1510,#328);
#231=LINE('',#1513,#329);
#232=LINE('',#1515,#330);
#233=LINE('',#1518,#331);
#234=LINE('',#1519,#332);
#235=LINE('',#1522,#333);
#236=LINE('',#1523,#334);
#237=LINE('',#1528,#335);
#238=LINE('',#1529,#336);
#239=LINE('',#1531,#337);
#240=LINE('',#1535,#338);
#241=LINE('',#1537,#339);
#242=LINE('',#1538,#340);
#243=LINE('',#1553,#341);
#244=LINE('',#1561,#342);
#245=LINE('',#1567,#343);
#246=LINE('',#1601,#344);
#247=LINE('',#1602,#345);
#248=LINE('',#1604,#346);
#249=LINE('',#1606,#347);
#250=LINE('',#1609,#348);
#251=LINE('',#1611,#349);
#252=LINE('',#1616,#350);
#253=LINE('',#1620,#351);
#254=LINE('',#1623,#352);
#255=LINE('',#1661,#353);
#256=LINE('',#1668,#354);
#257=LINE('',#1679,#355);
#258=VECTOR('',#1075,10.);
#259=VECTOR('',#1076,10.);
#260=VECTOR('',#1077,10.);
#261=VECTOR('',#1078,10.);
#262=VECTOR('',#1079,10.);
#263=VECTOR('',#1082,10.);
#264=VECTOR('',#1087,10.);
#265=VECTOR('',#1088,10.);
#266=VECTOR('',#1091,10.);
#267=VECTOR('',#1092,10.);
#268=VECTOR('',#1095,10.);
#269=VECTOR('',#1100,10.);
#270=VECTOR('',#1103,10.);
#271=VECTOR('',#1106,10.);
#272=VECTOR('',#1107,10.);
#273=VECTOR('',#1110,10.);
#274=VECTOR('',#1115,10.);
#275=VECTOR('',#1118,10.);
#276=VECTOR('',#1119,10.);
#277=VECTOR('',#1124,10.);
#278=VECTOR('',#1127,10.);
#279=VECTOR('',#1128,10.);
#280=VECTOR('',#1133,10.);
#281=VECTOR('',#1134,10.);
#282=VECTOR('',#1135,10.);
#283=VECTOR('',#1136,10.);
#284=VECTOR('',#1141,10.);
#285=VECTOR('',#1142,10.);
#286=VECTOR('',#1143,10.);
#287=VECTOR('',#1144,10.);
#288=VECTOR('',#1147,10.);
#289=VECTOR('',#1148,10.);
#290=VECTOR('',#1149,10.);
#291=VECTOR('',#1150,10.);
#292=VECTOR('',#1151,10.);
#293=VECTOR('',#1152,10.);
#294=VECTOR('',#1153,10.);
#295=VECTOR('',#1154,10.);
#296=VECTOR('',#1155,10.);
#297=VECTOR('',#1156,10.);
#298=VECTOR('',#1157,10.);
#299=VECTOR('',#1158,10.);
#300=VECTOR('',#1165,10.);
#301=VECTOR('',#1166,10.);
#302=VECTOR('',#1167,10.);
#303=VECTOR('',#1168,10.);
#304=VECTOR('',#1171,10.);
#305=VECTOR('',#1172,10.);
#306=VECTOR('',#1175,10.);
#307=VECTOR('',#1176,10.);
#308=VECTOR('',#1179,10.);
#309=VECTOR('',#1180,10.);
#310=VECTOR('',#1181,10.);
#311=VECTOR('',#1186,1.25);
#312=VECTOR('',#1189,10.);
#313=VECTOR('',#1190,10.);
#314=VECTOR('',#1191,10.);
#315=VECTOR('',#1192,10.);
#316=VECTOR('',#1193,10.);
#317=VECTOR('',#1194,10.);
#318=VECTOR('',#1195,10.);
#319=VECTOR('',#1198,10.);
#320=VECTOR('',#1199,10.);
#321=VECTOR('',#1200,10.);
#322=VECTOR('',#1201,10.);
#323=VECTOR('',#1202,10.);
#324=VECTOR('',#1203,10.);
#325=VECTOR('',#1204,10.);
#326=VECTOR('',#1207,1.25);
#327=VECTOR('',#1212,10.);
#328=VECTOR('',#1213,10.);
#329=VECTOR('',#1216,10.);
#330=VECTOR('',#1217,10.);
#331=VECTOR('',#1220,10.);
#332=VECTOR('',#1221,10.);
#333=VECTOR('',#1224,10.);
#334=VECTOR('',#1225,10.);
#335=VECTOR('',#1230,10.);
#336=VECTOR('',#1231,10.);
#337=VECTOR('',#1234,10.);
#338=VECTOR('',#1239,10.);
#339=VECTOR('',#1240,10.);
#340=VECTOR('',#1241,10.);
#341=VECTOR('',#1248,10.);
#342=VECTOR('',#1251,1.25);
#343=VECTOR('',#1260,10.);
#344=VECTOR('',#1271,10.);
#345=VECTOR('',#1272,10.);
#346=VECTOR('',#1275,10.);
#347=VECTOR('',#1278,10.);
#348=VECTOR('',#1283,10.);
#349=VECTOR('',#1286,10.);
#350=VECTOR('',#1291,10.);
#351=VECTOR('',#1294,10.);
#352=VECTOR('',#1299,10.);
#353=VECTOR('',#1308,10.);
#354=VECTOR('',#1311,10.);
#355=VECTOR('',#1322,1.25);
#356=CIRCLE('',#992,2.7);
#357=CIRCLE('',#993,1.49999999999999);
#358=CIRCLE('',#994,1.25);
#359=CIRCLE('',#997,2.);
#360=CIRCLE('',#998,3.04000000002309);
#361=CIRCLE('',#999,3.0400000000213);
#362=CIRCLE('',#1000,2.);
#363=CIRCLE('',#1002,4.12000000002861);
#364=CIRCLE('',#1003,4.1200000000308);
#365=CIRCLE('',#1004,4.1200000000308);
#366=CIRCLE('',#1005,4.1200000000308);
#367=CIRCLE('',#1007,2.7);
#368=CIRCLE('',#1010,1.49999999999998);
#369=CIRCLE('',#1011,1.25);
#370=CIRCLE('',#1014,1.25);
#371=CIRCLE('',#1015,1.25);
#372=CIRCLE('',#1021,1.25);
#373=CIRCLE('',#1023,1.25);
#374=CIRCLE('',#1026,2.);
#375=CIRCLE('',#1028,4.1200000000308);
#376=CIRCLE('',#1031,2.);
#377=CIRCLE('',#1036,1.52000000002157);
#378=CIRCLE('',#1039,1.25);
#379=CIRCLE('',#1043,1.52000000002157);
#380=CIRCLE('',#1055,1.5200000000236);
#381=CIRCLE('',#1056,1.5200000000236);
#382=CIRCLE('',#1060,4.1200000000308);
#383=CIRCLE('',#1066,1.25);
#384=VERTEX_POINT('',#1327);
#385=VERTEX_POINT('',#1328);
#386=VERTEX_POINT('',#1330);
#387=VERTEX_POINT('',#1332);
#388=VERTEX_POINT('',#1334);
#389=VERTEX_POINT('',#1336);
#390=VERTEX_POINT('',#1338);
#391=VERTEX_POINT('',#1340);
#392=VERTEX_POINT('',#1343);
#393=VERTEX_POINT('',#1346);
#394=VERTEX_POINT('',#1347);
#395=VERTEX_POINT('',#1349);
#396=VERTEX_POINT('',#1353);
#397=VERTEX_POINT('',#1359);
#398=VERTEX_POINT('',#1360);
#399=VERTEX_POINT('',#1362);
#400=VERTEX_POINT('',#1364);
#401=VERTEX_POINT('',#1366);
#402=VERTEX_POINT('',#1369);
#403=VERTEX_POINT('',#1371);
#404=VERTEX_POINT('',#1373);
#405=VERTEX_POINT('',#1377);
#406=VERTEX_POINT('',#1379);
#407=VERTEX_POINT('',#1381);
#408=VERTEX_POINT('',#1383);
#409=VERTEX_POINT('',#1386);
#410=VERTEX_POINT('',#1388);
#411=VERTEX_POINT('',#1390);
#412=VERTEX_POINT('',#1392);
#413=VERTEX_POINT('',#1396);
#414=VERTEX_POINT('',#1400);
#415=VERTEX_POINT('',#1404);
#416=VERTEX_POINT('',#1406);
#417=VERTEX_POINT('',#1408);
#418=VERTEX_POINT('',#1410);
#419=VERTEX_POINT('',#1413);
#420=VERTEX_POINT('',#1416);
#421=VERTEX_POINT('',#1417);
#422=VERTEX_POINT('',#1419);
#423=VERTEX_POINT('',#1421);
#424=VERTEX_POINT('',#1425);
#425=VERTEX_POINT('',#1427);
#426=VERTEX_POINT('',#1431);
#427=VERTEX_POINT('',#1432);
#428=VERTEX_POINT('',#1434);
#429=VERTEX_POINT('',#1436);
#430=VERTEX_POINT('',#1439);
#431=VERTEX_POINT('',#1440);
#432=VERTEX_POINT('',#1442);
#433=VERTEX_POINT('',#1444);
#434=VERTEX_POINT('',#1447);
#435=VERTEX_POINT('',#1449);
#436=VERTEX_POINT('',#1452);
#437=VERTEX_POINT('',#1454);
#438=VERTEX_POINT('',#1456);
#439=VERTEX_POINT('',#1460);
#440=VERTEX_POINT('',#1464);
#441=VERTEX_POINT('',#1468);
#442=VERTEX_POINT('',#1469);
#443=VERTEX_POINT('',#1474);
#444=VERTEX_POINT('',#1479);
#445=VERTEX_POINT('',#1482);
#446=VERTEX_POINT('',#1485);
#447=VERTEX_POINT('',#1488);
#448=VERTEX_POINT('',#1490);
#449=VERTEX_POINT('',#1491);
#450=VERTEX_POINT('',#1493);
#451=VERTEX_POINT('',#1495);
#452=VERTEX_POINT('',#1498);
#453=VERTEX_POINT('',#1500);
#454=VERTEX_POINT('',#1506);
#455=VERTEX_POINT('',#1507);
#456=VERTEX_POINT('',#1512);
#457=VERTEX_POINT('',#1514);
#458=VERTEX_POINT('',#1516);
#459=VERTEX_POINT('',#1521);
#460=VERTEX_POINT('',#1525);
#461=VERTEX_POINT('',#1526);
#462=VERTEX_POINT('',#1534);
#463=VERTEX_POINT('',#1536);
#464=VERTEX_POINT('',#1540);
#465=VERTEX_POINT('',#1545);
#466=VERTEX_POINT('',#1552);
#467=VERTEX_POINT('',#1560);
#468=VERTEX_POINT('',#1566);
#469=VERTEX_POINT('',#1614);
#470=VERTEX_POINT('',#1615);
#471=VERTEX_POINT('',#1617);
#472=VERTEX_POINT('',#1619);
#473=VERTEX_POINT('',#1626);
#474=VERTEX_POINT('',#1631);
#475=VERTEX_POINT('',#1676);
#476=EDGE_CURVE('',#384,#385,#356,.T.);
#477=EDGE_CURVE('',#386,#384,#160,.T.);
#478=EDGE_CURVE('',#386,#387,#161,.T.);
#479=EDGE_CURVE('',#388,#387,#162,.T.);
#480=EDGE_CURVE('',#389,#388,#163,.T.);
#481=EDGE_CURVE('',#390,#389,#164,.T.);
#482=EDGE_CURVE('',#391,#390,#357,.F.);
#483=EDGE_CURVE('',#385,#391,#165,.T.);
#484=EDGE_CURVE('',#392,#392,#358,.T.);
#485=EDGE_CURVE('',#393,#394,#166,.T.);
#486=EDGE_CURVE('',#395,#394,#30,.T.);
#487=EDGE_CURVE('',#396,#395,#167,.F.);
#488=EDGE_CURVE('',#393,#396,#31,.T.);
#489=EDGE_CURVE('',#397,#398,#168,.T.);
#490=EDGE_CURVE('',#397,#399,#169,.T.);
#491=EDGE_CURVE('',#400,#399,#359,.F.);
#492=EDGE_CURVE('',#400,#401,#170,.T.);
#493=EDGE_CURVE('',#394,#401,#360,.T.);
#494=EDGE_CURVE('',#402,#393,#361,.T.);
#495=EDGE_CURVE('',#402,#403,#171,.T.);
#496=EDGE_CURVE('',#404,#403,#362,.F.);
#497=EDGE_CURVE('',#404,#398,#172,.T.);
#498=EDGE_CURVE('',#405,#385,#173,.T.);
#499=EDGE_CURVE('',#391,#406,#174,.T.);
#500=EDGE_CURVE('',#406,#407,#363,.T.);
#501=EDGE_CURVE('',#408,#407,#175,.T.);
#502=EDGE_CURVE('',#396,#408,#364,.T.);
#503=EDGE_CURVE('',#395,#409,#365,.T.);
#504=EDGE_CURVE('',#409,#410,#176,.T.);
#505=EDGE_CURVE('',#410,#411,#366,.T.);
#506=EDGE_CURVE('',#412,#411,#177,.T.);
#507=EDGE_CURVE('',#405,#412,#178,.T.);
#508=EDGE_CURVE('',#413,#405,#367,.T.);
#509=EDGE_CURVE('',#384,#413,#179,.T.);
#510=EDGE_CURVE('',#414,#413,#180,.T.);
#511=EDGE_CURVE('',#414,#386,#181,.T.);
#512=EDGE_CURVE('',#412,#415,#368,.T.);
#513=EDGE_CURVE('',#415,#416,#182,.T.);
#514=EDGE_CURVE('',#417,#416,#183,.T.);
#515=EDGE_CURVE('',#417,#418,#184,.T.);
#516=EDGE_CURVE('',#418,#414,#185,.T.);
#517=EDGE_CURVE('',#419,#419,#369,.T.);
#518=EDGE_CURVE('',#420,#421,#186,.T.);
#519=EDGE_CURVE('',#421,#422,#187,.T.);
#520=EDGE_CURVE('',#422,#423,#188,.T.);
#521=EDGE_CURVE('',#423,#420,#189,.T.);
#522=EDGE_CURVE('',#424,#423,#190,.T.);
#523=EDGE_CURVE('',#425,#424,#191,.T.);
#524=EDGE_CURVE('',#425,#387,#192,.T.);
#525=EDGE_CURVE('',#420,#418,#193,.T.);
#526=EDGE_CURVE('',#426,#427,#194,.T.);
#527=EDGE_CURVE('',#428,#426,#195,.T.);
#528=EDGE_CURVE('',#429,#428,#196,.T.);
#529=EDGE_CURVE('',#427,#429,#197,.T.);
#530=EDGE_CURVE('',#430,#431,#198,.T.);
#531=EDGE_CURVE('',#432,#430,#199,.T.);
#532=EDGE_CURVE('',#433,#432,#200,.T.);
#533=EDGE_CURVE('',#431,#433,#201,.T.);
#534=EDGE_CURVE('',#434,#434,#370,.T.);
#535=EDGE_CURVE('',#435,#435,#371,.T.);
#536=EDGE_CURVE('',#436,#422,#202,.T.);
#537=EDGE_CURVE('',#437,#436,#203,.T.);
#538=EDGE_CURVE('',#437,#438,#204,.T.);
#539=EDGE_CURVE('',#424,#438,#205,.T.);
#540=EDGE_CURVE('',#439,#425,#206,.T.);
#541=EDGE_CURVE('',#438,#439,#207,.T.);
#542=EDGE_CURVE('',#440,#437,#208,.T.);
#543=EDGE_CURVE('',#440,#439,#209,.T.);
#544=EDGE_CURVE('',#441,#442,#210,.T.);
#545=EDGE_CURVE('',#433,#441,#211,.T.);
#546=EDGE_CURVE('',#432,#442,#212,.T.);
#547=EDGE_CURVE('',#443,#443,#372,.T.);
#548=EDGE_CURVE('',#443,#434,#213,.T.);
#549=EDGE_CURVE('',#388,#440,#214,.T.);
#550=EDGE_CURVE('',#444,#436,#215,.T.);
#551=EDGE_CURVE('',#417,#444,#216,.T.);
#552=EDGE_CURVE('',#416,#445,#217,.T.);
#553=EDGE_CURVE('',#397,#445,#218,.T.);
#554=EDGE_CURVE('',#446,#398,#219,.T.);
#555=EDGE_CURVE('',#389,#446,#220,.T.);
#556=EDGE_CURVE('',#447,#447,#373,.T.);
#557=EDGE_CURVE('',#448,#449,#221,.T.);
#558=EDGE_CURVE('',#449,#450,#222,.T.);
#559=EDGE_CURVE('',#450,#451,#223,.T.);
#560=EDGE_CURVE('',#451,#448,#224,.T.);
#561=EDGE_CURVE('',#442,#452,#225,.T.);
#562=EDGE_CURVE('',#452,#453,#226,.T.);
#563=EDGE_CURVE('',#453,#441,#227,.T.);
#564=EDGE_CURVE('',#435,#447,#228,.T.);
#565=EDGE_CURVE('',#454,#455,#374,.T.);
#566=EDGE_CURVE('',#455,#404,#229,.T.);
#567=EDGE_CURVE('',#403,#454,#230,.T.);
#568=EDGE_CURVE('',#456,#454,#231,.T.);
#569=EDGE_CURVE('',#456,#457,#232,.T.);
#570=EDGE_CURVE('',#458,#457,#375,.T.);
#571=EDGE_CURVE('',#390,#458,#233,.F.);
#572=EDGE_CURVE('',#455,#446,#234,.T.);
#573=EDGE_CURVE('',#459,#402,#235,.T.);
#574=EDGE_CURVE('',#456,#459,#236,.T.);
#575=EDGE_CURVE('',#460,#461,#376,.T.);
#576=EDGE_CURVE('',#461,#400,#237,.T.);
#577=EDGE_CURVE('',#399,#460,#238,.T.);
#578=EDGE_CURVE('',#445,#460,#239,.T.);
#579=EDGE_CURVE('',#462,#461,#240,.T.);
#580=EDGE_CURVE('',#463,#462,#241,.T.);
#581=EDGE_CURVE('',#401,#463,#242,.T.);
#582=EDGE_CURVE('',#464,#408,#32,.T.);
#583=EDGE_CURVE('',#465,#464,#377,.T.);
#584=EDGE_CURVE('',#402,#465,#33,.F.);
#585=EDGE_CURVE('',#466,#465,#243,.T.);
#586=EDGE_CURVE('',#466,#457,#34,.F.);
#587=EDGE_CURVE('',#392,#467,#244,.T.);
#588=EDGE_CURVE('',#467,#467,#378,.T.);
#589=EDGE_CURVE('',#464,#468,#245,.T.);
#590=EDGE_CURVE('',#468,#466,#379,.T.);
#591=EDGE_CURVE('',#406,#458,#15,.T.);
#592=EDGE_CURVE('',#407,#468,#35,.T.);
#593=EDGE_CURVE('',#429,#450,#246,.T.);
#594=EDGE_CURVE('',#428,#451,#247,.T.);
#595=EDGE_CURVE('',#426,#448,#248,.T.);
#596=EDGE_CURVE('',#427,#449,#249,.T.);
#597=EDGE_CURVE('',#431,#453,#250,.T.);
#598=EDGE_CURVE('',#430,#452,#251,.T.);
#599=EDGE_CURVE('',#469,#470,#252,.T.);
#600=EDGE_CURVE('',#470,#471,#380,.T.);
#601=EDGE_CURVE('',#471,#472,#253,.T.);
#602=EDGE_CURVE('',#472,#469,#381,.F.);
#603=EDGE_CURVE('',#444,#421,#254,.T.);
#604=EDGE_CURVE('',#470,#473,#36,.T.);
#605=EDGE_CURVE('',#474,#473,#382,.T.);
#606=EDGE_CURVE('',#411,#474,#16,.T.);
#607=EDGE_CURVE('',#410,#471,#37,.F.);
#608=EDGE_CURVE('',#462,#473,#255,.T.);
#609=EDGE_CURVE('',#401,#469,#38,.T.);
#610=EDGE_CURVE('',#415,#474,#256,.F.);
#611=EDGE_CURVE('',#472,#409,#39,.T.);
#612=EDGE_CURVE('',#475,#475,#383,.T.);
#613=EDGE_CURVE('',#419,#475,#257,.T.);
#614=ORIENTED_EDGE('',*,*,#476,.F.);
#615=ORIENTED_EDGE('',*,*,#477,.F.);
#616=ORIENTED_EDGE('',*,*,#478,.T.);
#617=ORIENTED_EDGE('',*,*,#479,.F.);
#618=ORIENTED_EDGE('',*,*,#480,.F.);
#619=ORIENTED_EDGE('',*,*,#481,.F.);
#620=ORIENTED_EDGE('',*,*,#482,.F.);
#621=ORIENTED_EDGE('',*,*,#483,.F.);
#622=ORIENTED_EDGE('',*,*,#484,.T.);
#623=ORIENTED_EDGE('',*,*,#485,.T.);
#624=ORIENTED_EDGE('',*,*,#486,.F.);
#625=ORIENTED_EDGE('',*,*,#487,.F.);
#626=ORIENTED_EDGE('',*,*,#488,.F.);
#627=ORIENTED_EDGE('',*,*,#489,.F.);
#628=ORIENTED_EDGE('',*,*,#490,.T.);
#629=ORIENTED_EDGE('',*,*,#491,.F.);
#630=ORIENTED_EDGE('',*,*,#492,.T.);
#631=ORIENTED_EDGE('',*,*,#493,.F.);
#632=ORIENTED_EDGE('',*,*,#485,.F.);
#633=ORIENTED_EDGE('',*,*,#494,.F.);
#634=ORIENTED_EDGE('',*,*,#495,.T.);
#635=ORIENTED_EDGE('',*,*,#496,.F.);
#636=ORIENTED_EDGE('',*,*,#497,.T.);
#637=ORIENTED_EDGE('',*,*,#498,.T.);
#638=ORIENTED_EDGE('',*,*,#483,.T.);
#639=ORIENTED_EDGE('',*,*,#499,.T.);
#640=ORIENTED_EDGE('',*,*,#500,.T.);
#641=ORIENTED_EDGE('',*,*,#501,.F.);
#642=ORIENTED_EDGE('',*,*,#502,.F.);
#643=ORIENTED_EDGE('',*,*,#487,.T.);
#644=ORIENTED_EDGE('',*,*,#503,.T.);
#645=ORIENTED_EDGE('',*,*,#504,.T.);
#646=ORIENTED_EDGE('',*,*,#505,.T.);
#647=ORIENTED_EDGE('',*,*,#506,.F.);
#648=ORIENTED_EDGE('',*,*,#507,.F.);
#649=ORIENTED_EDGE('',*,*,#476,.T.);
#650=ORIENTED_EDGE('',*,*,#498,.F.);
#651=ORIENTED_EDGE('',*,*,#508,.F.);
#652=ORIENTED_EDGE('',*,*,#509,.F.);
#653=ORIENTED_EDGE('',*,*,#477,.T.);
#654=ORIENTED_EDGE('',*,*,#509,.T.);
#655=ORIENTED_EDGE('',*,*,#510,.F.);
#656=ORIENTED_EDGE('',*,*,#511,.T.);
#657=ORIENTED_EDGE('',*,*,#508,.T.);
#658=ORIENTED_EDGE('',*,*,#507,.T.);
#659=ORIENTED_EDGE('',*,*,#512,.T.);
#660=ORIENTED_EDGE('',*,*,#513,.T.);
#661=ORIENTED_EDGE('',*,*,#514,.F.);
#662=ORIENTED_EDGE('',*,*,#515,.T.);
#663=ORIENTED_EDGE('',*,*,#516,.T.);
#664=ORIENTED_EDGE('',*,*,#510,.T.);
#665=ORIENTED_EDGE('',*,*,#517,.T.);
#666=ORIENTED_EDGE('',*,*,#518,.T.);
#667=ORIENTED_EDGE('',*,*,#519,.T.);
#668=ORIENTED_EDGE('',*,*,#520,.T.);
#669=ORIENTED_EDGE('',*,*,#521,.T.);
#670=ORIENTED_EDGE('',*,*,#521,.F.);
#671=ORIENTED_EDGE('',*,*,#522,.F.);
#672=ORIENTED_EDGE('',*,*,#523,.F.);
#673=ORIENTED_EDGE('',*,*,#524,.T.);
#674=ORIENTED_EDGE('',*,*,#478,.F.);
#675=ORIENTED_EDGE('',*,*,#511,.F.);
#676=ORIENTED_EDGE('',*,*,#516,.F.);
#677=ORIENTED_EDGE('',*,*,#525,.F.);
#678=ORIENTED_EDGE('',*,*,#526,.F.);
#679=ORIENTED_EDGE('',*,*,#527,.F.);
#680=ORIENTED_EDGE('',*,*,#528,.F.);
#681=ORIENTED_EDGE('',*,*,#529,.F.);
#682=ORIENTED_EDGE('',*,*,#530,.F.);
#683=ORIENTED_EDGE('',*,*,#531,.F.);
#684=ORIENTED_EDGE('',*,*,#532,.F.);
#685=ORIENTED_EDGE('',*,*,#533,.F.);
#686=ORIENTED_EDGE('',*,*,#534,.F.);
#687=ORIENTED_EDGE('',*,*,#535,.F.);
#688=ORIENTED_EDGE('',*,*,#520,.F.);
#689=ORIENTED_EDGE('',*,*,#536,.F.);
#690=ORIENTED_EDGE('',*,*,#537,.F.);
#691=ORIENTED_EDGE('',*,*,#538,.T.);
#692=ORIENTED_EDGE('',*,*,#539,.F.);
#693=ORIENTED_EDGE('',*,*,#522,.T.);
#694=ORIENTED_EDGE('',*,*,#540,.T.);
#695=ORIENTED_EDGE('',*,*,#523,.T.);
#696=ORIENTED_EDGE('',*,*,#539,.T.);
#697=ORIENTED_EDGE('',*,*,#541,.T.);
#698=ORIENTED_EDGE('',*,*,#541,.F.);
#699=ORIENTED_EDGE('',*,*,#538,.F.);
#700=ORIENTED_EDGE('',*,*,#542,.F.);
#701=ORIENTED_EDGE('',*,*,#543,.T.);
#702=ORIENTED_EDGE('',*,*,#544,.F.);
#703=ORIENTED_EDGE('',*,*,#545,.F.);
#704=ORIENTED_EDGE('',*,*,#532,.T.);
#705=ORIENTED_EDGE('',*,*,#546,.T.);
#706=ORIENTED_EDGE('',*,*,#547,.F.);
#707=ORIENTED_EDGE('',*,*,#548,.T.);
#708=ORIENTED_EDGE('',*,*,#534,.T.);
#709=ORIENTED_EDGE('',*,*,#548,.F.);
#710=ORIENTED_EDGE('',*,*,#480,.T.);
#711=ORIENTED_EDGE('',*,*,#549,.T.);
#712=ORIENTED_EDGE('',*,*,#542,.T.);
#713=ORIENTED_EDGE('',*,*,#537,.T.);
#714=ORIENTED_EDGE('',*,*,#550,.F.);
#715=ORIENTED_EDGE('',*,*,#551,.F.);
#716=ORIENTED_EDGE('',*,*,#514,.T.);
#717=ORIENTED_EDGE('',*,*,#552,.T.);
#718=ORIENTED_EDGE('',*,*,#553,.F.);
#719=ORIENTED_EDGE('',*,*,#489,.T.);
#720=ORIENTED_EDGE('',*,*,#554,.F.);
#721=ORIENTED_EDGE('',*,*,#555,.F.);
#722=ORIENTED_EDGE('',*,*,#547,.T.);
#723=ORIENTED_EDGE('',*,*,#556,.T.);
#724=ORIENTED_EDGE('',*,*,#557,.T.);
#725=ORIENTED_EDGE('',*,*,#558,.T.);
#726=ORIENTED_EDGE('',*,*,#559,.T.);
#727=ORIENTED_EDGE('',*,*,#560,.T.);
#728=ORIENTED_EDGE('',*,*,#561,.T.);
#729=ORIENTED_EDGE('',*,*,#562,.T.);
#730=ORIENTED_EDGE('',*,*,#563,.T.);
#731=ORIENTED_EDGE('',*,*,#544,.T.);
#732=ORIENTED_EDGE('',*,*,#535,.T.);
#733=ORIENTED_EDGE('',*,*,#564,.T.);
#734=ORIENTED_EDGE('',*,*,#556,.F.);
#735=ORIENTED_EDGE('',*,*,#564,.F.);
#736=ORIENTED_EDGE('',*,*,#565,.T.);
#737=ORIENTED_EDGE('',*,*,#566,.T.);
#738=ORIENTED_EDGE('',*,*,#496,.T.);
#739=ORIENTED_EDGE('',*,*,#567,.T.);
#740=ORIENTED_EDGE('',*,*,#565,.F.);
#741=ORIENTED_EDGE('',*,*,#568,.F.);
#742=ORIENTED_EDGE('',*,*,#569,.T.);
#743=ORIENTED_EDGE('',*,*,#570,.F.);
#744=ORIENTED_EDGE('',*,*,#571,.F.);
#745=ORIENTED_EDGE('',*,*,#481,.T.);
#746=ORIENTED_EDGE('',*,*,#555,.T.);
#747=ORIENTED_EDGE('',*,*,#572,.F.);
#748=ORIENTED_EDGE('',*,*,#567,.F.);
#749=ORIENTED_EDGE('',*,*,#495,.F.);
#750=ORIENTED_EDGE('',*,*,#573,.F.);
#751=ORIENTED_EDGE('',*,*,#574,.F.);
#752=ORIENTED_EDGE('',*,*,#568,.T.);
#753=ORIENTED_EDGE('',*,*,#575,.T.);
#754=ORIENTED_EDGE('',*,*,#576,.T.);
#755=ORIENTED_EDGE('',*,*,#491,.T.);
#756=ORIENTED_EDGE('',*,*,#577,.T.);
#757=ORIENTED_EDGE('',*,*,#577,.F.);
#758=ORIENTED_EDGE('',*,*,#490,.F.);
#759=ORIENTED_EDGE('',*,*,#553,.T.);
#760=ORIENTED_EDGE('',*,*,#578,.T.);
#761=ORIENTED_EDGE('',*,*,#566,.F.);
#762=ORIENTED_EDGE('',*,*,#572,.T.);
#763=ORIENTED_EDGE('',*,*,#554,.T.);
#764=ORIENTED_EDGE('',*,*,#497,.F.);
#765=ORIENTED_EDGE('',*,*,#576,.F.);
#766=ORIENTED_EDGE('',*,*,#579,.F.);
#767=ORIENTED_EDGE('',*,*,#580,.F.);
#768=ORIENTED_EDGE('',*,*,#581,.F.);
#769=ORIENTED_EDGE('',*,*,#492,.F.);
#770=ORIENTED_EDGE('',*,*,#488,.T.);
#771=ORIENTED_EDGE('',*,*,#502,.T.);
#772=ORIENTED_EDGE('',*,*,#582,.F.);
#773=ORIENTED_EDGE('',*,*,#583,.F.);
#774=ORIENTED_EDGE('',*,*,#584,.F.);
#775=ORIENTED_EDGE('',*,*,#494,.T.);
#776=ORIENTED_EDGE('',*,*,#574,.T.);
#777=ORIENTED_EDGE('',*,*,#573,.T.);
#778=ORIENTED_EDGE('',*,*,#584,.T.);
#779=ORIENTED_EDGE('',*,*,#585,.F.);
#780=ORIENTED_EDGE('',*,*,#586,.T.);
#781=ORIENTED_EDGE('',*,*,#569,.F.);
#782=ORIENTED_EDGE('',*,*,#484,.F.);
#783=ORIENTED_EDGE('',*,*,#587,.T.);
#784=ORIENTED_EDGE('',*,*,#588,.T.);
#785=ORIENTED_EDGE('',*,*,#587,.F.);
#786=ORIENTED_EDGE('',*,*,#588,.F.);
#787=ORIENTED_EDGE('',*,*,#540,.F.);
#788=ORIENTED_EDGE('',*,*,#543,.F.);
#789=ORIENTED_EDGE('',*,*,#549,.F.);
#790=ORIENTED_EDGE('',*,*,#479,.T.);
#791=ORIENTED_EDGE('',*,*,#524,.F.);
#792=ORIENTED_EDGE('',*,*,#585,.T.);
#793=ORIENTED_EDGE('',*,*,#583,.T.);
#794=ORIENTED_EDGE('',*,*,#589,.T.);
#795=ORIENTED_EDGE('',*,*,#590,.T.);
#796=ORIENTED_EDGE('',*,*,#591,.F.);
#797=ORIENTED_EDGE('',*,*,#499,.F.);
#798=ORIENTED_EDGE('',*,*,#482,.T.);
#799=ORIENTED_EDGE('',*,*,#571,.T.);
#800=ORIENTED_EDGE('',*,*,#589,.F.);
#801=ORIENTED_EDGE('',*,*,#582,.T.);
#802=ORIENTED_EDGE('',*,*,#501,.T.);
#803=ORIENTED_EDGE('',*,*,#592,.T.);
#804=ORIENTED_EDGE('',*,*,#590,.F.);
#805=ORIENTED_EDGE('',*,*,#592,.F.);
#806=ORIENTED_EDGE('',*,*,#500,.F.);
#807=ORIENTED_EDGE('',*,*,#591,.T.);
#808=ORIENTED_EDGE('',*,*,#570,.T.);
#809=ORIENTED_EDGE('',*,*,#586,.F.);
#810=ORIENTED_EDGE('',*,*,#559,.F.);
#811=ORIENTED_EDGE('',*,*,#593,.F.);
#812=ORIENTED_EDGE('',*,*,#528,.T.);
#813=ORIENTED_EDGE('',*,*,#594,.T.);
#814=ORIENTED_EDGE('',*,*,#560,.F.);
#815=ORIENTED_EDGE('',*,*,#594,.F.);
#816=ORIENTED_EDGE('',*,*,#527,.T.);
#817=ORIENTED_EDGE('',*,*,#595,.T.);
#818=ORIENTED_EDGE('',*,*,#526,.T.);
#819=ORIENTED_EDGE('',*,*,#596,.T.);
#820=ORIENTED_EDGE('',*,*,#557,.F.);
#821=ORIENTED_EDGE('',*,*,#595,.F.);
#822=ORIENTED_EDGE('',*,*,#558,.F.);
#823=ORIENTED_EDGE('',*,*,#596,.F.);
#824=ORIENTED_EDGE('',*,*,#529,.T.);
#825=ORIENTED_EDGE('',*,*,#593,.T.);
#826=ORIENTED_EDGE('',*,*,#563,.F.);
#827=ORIENTED_EDGE('',*,*,#597,.F.);
#828=ORIENTED_EDGE('',*,*,#533,.T.);
#829=ORIENTED_EDGE('',*,*,#545,.T.);
#830=ORIENTED_EDGE('',*,*,#561,.F.);
#831=ORIENTED_EDGE('',*,*,#546,.F.);
#832=ORIENTED_EDGE('',*,*,#531,.T.);
#833=ORIENTED_EDGE('',*,*,#598,.T.);
#834=ORIENTED_EDGE('',*,*,#530,.T.);
#835=ORIENTED_EDGE('',*,*,#597,.T.);
#836=ORIENTED_EDGE('',*,*,#562,.F.);
#837=ORIENTED_EDGE('',*,*,#598,.F.);
#838=ORIENTED_EDGE('',*,*,#599,.T.);
#839=ORIENTED_EDGE('',*,*,#600,.T.);
#840=ORIENTED_EDGE('',*,*,#601,.T.);
#841=ORIENTED_EDGE('',*,*,#602,.T.);
#842=ORIENTED_EDGE('',*,*,#519,.F.);
#843=ORIENTED_EDGE('',*,*,#603,.F.);
#844=ORIENTED_EDGE('',*,*,#550,.T.);
#845=ORIENTED_EDGE('',*,*,#536,.T.);
#846=ORIENTED_EDGE('',*,*,#518,.F.);
#847=ORIENTED_EDGE('',*,*,#525,.T.);
#848=ORIENTED_EDGE('',*,*,#515,.F.);
#849=ORIENTED_EDGE('',*,*,#551,.T.);
#850=ORIENTED_EDGE('',*,*,#603,.T.);
#851=ORIENTED_EDGE('',*,*,#600,.F.);
#852=ORIENTED_EDGE('',*,*,#604,.T.);
#853=ORIENTED_EDGE('',*,*,#605,.F.);
#854=ORIENTED_EDGE('',*,*,#606,.F.);
#855=ORIENTED_EDGE('',*,*,#505,.F.);
#856=ORIENTED_EDGE('',*,*,#607,.T.);
#857=ORIENTED_EDGE('',*,*,#580,.T.);
#858=ORIENTED_EDGE('',*,*,#608,.T.);
#859=ORIENTED_EDGE('',*,*,#604,.F.);
#860=ORIENTED_EDGE('',*,*,#599,.F.);
#861=ORIENTED_EDGE('',*,*,#609,.F.);
#862=ORIENTED_EDGE('',*,*,#581,.T.);
#863=ORIENTED_EDGE('',*,*,#575,.F.);
#864=ORIENTED_EDGE('',*,*,#578,.F.);
#865=ORIENTED_EDGE('',*,*,#552,.F.);
#866=ORIENTED_EDGE('',*,*,#513,.F.);
#867=ORIENTED_EDGE('',*,*,#610,.T.);
#868=ORIENTED_EDGE('',*,*,#605,.T.);
#869=ORIENTED_EDGE('',*,*,#608,.F.);
#870=ORIENTED_EDGE('',*,*,#579,.T.);
#871=ORIENTED_EDGE('',*,*,#601,.F.);
#872=ORIENTED_EDGE('',*,*,#607,.F.);
#873=ORIENTED_EDGE('',*,*,#504,.F.);
#874=ORIENTED_EDGE('',*,*,#611,.F.);
#875=ORIENTED_EDGE('',*,*,#512,.F.);
#876=ORIENTED_EDGE('',*,*,#506,.T.);
#877=ORIENTED_EDGE('',*,*,#606,.T.);
#878=ORIENTED_EDGE('',*,*,#610,.F.);
#879=ORIENTED_EDGE('',*,*,#612,.F.);
#880=ORIENTED_EDGE('',*,*,#517,.F.);
#881=ORIENTED_EDGE('',*,*,#613,.T.);
#882=ORIENTED_EDGE('',*,*,#612,.T.);
#883=ORIENTED_EDGE('',*,*,#613,.F.);
#884=ORIENTED_EDGE('',*,*,#486,.T.);
#885=ORIENTED_EDGE('',*,*,#493,.T.);
#886=ORIENTED_EDGE('',*,*,#609,.T.);
#887=ORIENTED_EDGE('',*,*,#602,.F.);
#888=ORIENTED_EDGE('',*,*,#611,.T.);
#889=ORIENTED_EDGE('',*,*,#503,.F.);
#890=PLANE('',#991);
#891=PLANE('',#995);
#892=PLANE('',#996);
#893=PLANE('',#1001);
#894=PLANE('',#1008);
#895=PLANE('',#1009);
#896=PLANE('',#1012);
#897=PLANE('',#1013);
#898=PLANE('',#1016);
#899=PLANE('',#1017);
#900=PLANE('',#1018);
#901=PLANE('',#1019);
#902=PLANE('',#1022);
#903=PLANE('',#1027);
#904=PLANE('',#1029);
#905=PLANE('',#1032);
#906=PLANE('',#1033);
#907=PLANE('',#1034);
#908=PLANE('',#1037);
#909=PLANE('',#1040);
#910=PLANE('',#1041);
#911=PLANE('',#1042);
#912=PLANE('',#1045);
#913=PLANE('',#1047);
#914=PLANE('',#1048);
#915=PLANE('',#1049);
#916=PLANE('',#1050);
#917=PLANE('',#1051);
#918=PLANE('',#1052);
#919=PLANE('',#1053);
#920=PLANE('',#1054);
#921=PLANE('',#1057);
#922=PLANE('',#1058);
#923=PLANE('',#1061);
#924=PLANE('',#1062);
#925=PLANE('',#1063);
#926=PLANE('',#1065);
#927=ADVANCED_FACE('',(#50,#40),#890,.F.);
#928=ADVANCED_FACE('',(#51),#891,.F.);
#929=ADVANCED_FACE('',(#52),#892,.T.);
#930=ADVANCED_FACE('',(#53),#893,.F.);
#931=ADVANCED_FACE('',(#54),#21,.F.);
#932=ADVANCED_FACE('',(#55),#894,.F.);
#933=ADVANCED_FACE('',(#56,#41),#895,.F.);
#934=ADVANCED_FACE('',(#57),#896,.T.);
#935=ADVANCED_FACE('',(#58,#42,#43,#44,#45),#897,.F.);
#936=ADVANCED_FACE('',(#59),#898,.T.);
#937=ADVANCED_FACE('',(#60),#899,.T.);
#938=ADVANCED_FACE('',(#61),#900,.T.);
#939=ADVANCED_FACE('',(#62),#901,.F.);
#940=ADVANCED_FACE('',(#63),#22,.F.);
#941=ADVANCED_FACE('',(#64,#46,#47,#48,#49),#902,.T.);
#942=ADVANCED_FACE('',(#65),#23,.F.);
#943=ADVANCED_FACE('',(#66),#24,.T.);
#944=ADVANCED_FACE('',(#67),#903,.T.);
#945=ADVANCED_FACE('',(#68),#904,.T.);
#946=ADVANCED_FACE('',(#69),#25,.T.);
#947=ADVANCED_FACE('',(#70),#905,.T.);
#948=ADVANCED_FACE('',(#71),#906,.T.);
#949=ADVANCED_FACE('',(#72),#907,.T.);
#950=ADVANCED_FACE('',(#73),#17,.F.);
#951=ADVANCED_FACE('',(#74),#908,.T.);
#952=ADVANCED_FACE('',(#75),#26,.F.);
#953=ADVANCED_FACE('',(#76),#909,.F.);
#954=ADVANCED_FACE('',(#77),#910,.F.);
#955=ADVANCED_FACE('',(#78),#911,.F.);
#956=ADVANCED_FACE('',(#79),#27,.F.);
#957=ADVANCED_FACE('',(#80),#912,.F.);
#958=ADVANCED_FACE('',(#81),#18,.F.);
#959=ADVANCED_FACE('',(#82),#913,.F.);
#960=ADVANCED_FACE('',(#83),#914,.F.);
#961=ADVANCED_FACE('',(#84),#915,.F.);
#962=ADVANCED_FACE('',(#85),#916,.F.);
#963=ADVANCED_FACE('',(#86),#917,.F.);
#964=ADVANCED_FACE('',(#87),#918,.F.);
#965=ADVANCED_FACE('',(#88),#919,.F.);
#966=ADVANCED_FACE('',(#89),#920,.F.);
#967=ADVANCED_FACE('',(#90),#921,.F.);
#968=ADVANCED_FACE('',(#91),#922,.F.);
#969=ADVANCED_FACE('',(#92),#19,.F.);
#970=ADVANCED_FACE('',(#93),#923,.F.);
#971=ADVANCED_FACE('',(#94),#924,.F.);
#972=ADVANCED_FACE('',(#95),#925,.T.);
#973=ADVANCED_FACE('',(#96),#28,.F.);
#974=ADVANCED_FACE('',(#97),#926,.F.);
#975=ADVANCED_FACE('',(#98),#29,.F.);
#976=ADVANCED_FACE('',(#99),#20,.F.);
#977=CLOSED_SHELL('',(#927,#928,#929,#930,#931,#932,#933,#934,#935,#936,
#937,#938,#939,#940,#941,#942,#943,#944,#945,#946,#947,#948,#949,#950,#951,
#952,#953,#954,#955,#956,#957,#958,#959,#960,#961,#962,#963,#964,#965,#966,
#967,#968,#969,#970,#971,#972,#973,#974,#975,#976));
#978=DERIVED_UNIT_ELEMENT(#980,1.);
#979=DERIVED_UNIT_ELEMENT(#1686,-3.);
#980=(
MASS_UNIT()
NAMED_UNIT(*)
SI_UNIT(.KILO.,.GRAM.)
);
#981=DERIVED_UNIT((#978,#979));
#982=MEASURE_REPRESENTATION_ITEM('density measure',
POSITIVE_RATIO_MEASURE(7850.),#981);
#983=PROPERTY_DEFINITION_REPRESENTATION(#988,#985);
#984=PROPERTY_DEFINITION_REPRESENTATION(#989,#986);
#985=REPRESENTATION('material name',(#987),#1683);
#986=REPRESENTATION('density',(#982),#1683);
#987=DESCRIPTIVE_REPRESENTATION_ITEM('Steel','Steel');
#988=PROPERTY_DEFINITION('material property','material name',#1693);
#989=PROPERTY_DEFINITION('material property','density of part',#1693);
#990=AXIS2_PLACEMENT_3D('',#1325,#1069,#1070);
#991=AXIS2_PLACEMENT_3D('',#1326,#1071,#1072);
#992=AXIS2_PLACEMENT_3D('',#1329,#1073,#1074);
#993=AXIS2_PLACEMENT_3D('',#1341,#1080,#1081);
#994=AXIS2_PLACEMENT_3D('',#1344,#1083,#1084);
#995=AXIS2_PLACEMENT_3D('',#1345,#1085,#1086);
#996=AXIS2_PLACEMENT_3D('',#1358,#1089,#1090);
#997=AXIS2_PLACEMENT_3D('',#1365,#1093,#1094);
#998=AXIS2_PLACEMENT_3D('',#1368,#1096,#1097);
#999=AXIS2_PLACEMENT_3D('',#1370,#1098,#1099);
#1000=AXIS2_PLACEMENT_3D('',#1374,#1101,#1102);
#1001=AXIS2_PLACEMENT_3D('',#1376,#1104,#1105);
#1002=AXIS2_PLACEMENT_3D('',#1382,#1108,#1109);
#1003=AXIS2_PLACEMENT_3D('',#1385,#1111,#1112);
#1004=AXIS2_PLACEMENT_3D('',#1387,#1113,#1114);
#1005=AXIS2_PLACEMENT_3D('',#1391,#1116,#1117);
#1006=AXIS2_PLACEMENT_3D('',#1395,#1120,#1121);
#1007=AXIS2_PLACEMENT_3D('',#1397,#1122,#1123);
#1008=AXIS2_PLACEMENT_3D('',#1399,#1125,#1126);
#1009=AXIS2_PLACEMENT_3D('',#1403,#1129,#1130);
#1010=AXIS2_PLACEMENT_3D('',#1405,#1131,#1132);
#1011=AXIS2_PLACEMENT_3D('',#1414,#1137,#1138);
#1012=AXIS2_PLACEMENT_3D('',#1415,#1139,#1140);
#1013=AXIS2_PLACEMENT_3D('',#1424,#1145,#1146);
#1014=AXIS2_PLACEMENT_3D('',#1448,#1159,#1160);
#1015=AXIS2_PLACEMENT_3D('',#1450,#1161,#1162);
#1016=AXIS2_PLACEMENT_3D('',#1451,#1163,#1164);
#1017=AXIS2_PLACEMENT_3D('',#1459,#1169,#1170);
#1018=AXIS2_PLACEMENT_3D('',#1463,#1173,#1174);
#1019=AXIS2_PLACEMENT_3D('',#1467,#1177,#1178);
#1020=AXIS2_PLACEMENT_3D('',#1473,#1182,#1183);
#1021=AXIS2_PLACEMENT_3D('',#1475,#1184,#1185);
#1022=AXIS2_PLACEMENT_3D('',#1477,#1187,#1188);
#1023=AXIS2_PLACEMENT_3D('',#1489,#1196,#1197);
#1024=AXIS2_PLACEMENT_3D('',#1503,#1205,#1206);
#1025=AXIS2_PLACEMENT_3D('',#1505,#1208,#1209);
#1026=AXIS2_PLACEMENT_3D('',#1508,#1210,#1211);
#1027=AXIS2_PLACEMENT_3D('',#1511,#1214,#1215);
#1028=AXIS2_PLACEMENT_3D('',#1517,#1218,#1219);
#1029=AXIS2_PLACEMENT_3D('',#1520,#1222,#1223);
#1030=AXIS2_PLACEMENT_3D('',#1524,#1226,#1227);
#1031=AXIS2_PLACEMENT_3D('',#1527,#1228,#1229);
#1032=AXIS2_PLACEMENT_3D('',#1530,#1232,#1233);
#1033=AXIS2_PLACEMENT_3D('',#1532,#1235,#1236);
#1034=AXIS2_PLACEMENT_3D('',#1533,#1237,#1238);
#1035=AXIS2_PLACEMENT_3D('',#1539,#1242,#1243);
#1036=AXIS2_PLACEMENT_3D('',#1546,#1244,#1245);
#1037=AXIS2_PLACEMENT_3D('',#1551,#1246,#1247);
#1038=AXIS2_PLACEMENT_3D('',#1559,#1249,#1250);
#1039=AXIS2_PLACEMENT_3D('',#1562,#1252,#1253);
#1040=AXIS2_PLACEMENT_3D('',#1563,#1254,#1255);
#1041=AXIS2_PLACEMENT_3D('',#1564,#1256,#1257);
#1042=AXIS2_PLACEMENT_3D('',#1565,#1258,#1259);
#1043=AXIS2_PLACEMENT_3D('',#1568,#1261,#1262);
#1044=AXIS2_PLACEMENT_3D('',#1569,#1263,#1264);
#1045=AXIS2_PLACEMENT_3D('',#1593,#1265,#1266);
#1046=AXIS2_PLACEMENT_3D('',#1599,#1267,#1268);
#1047=AXIS2_PLACEMENT_3D('',#1600,#1269,#1270);
#1048=AXIS2_PLACEMENT_3D('',#1603,#1273,#1274);
#1049=AXIS2_PLACEMENT_3D('',#1605,#1276,#1277);
#1050=AXIS2_PLACEMENT_3D('',#1607,#1279,#1280);
#1051=AXIS2_PLACEMENT_3D('',#1608,#1281,#1282);
#1052=AXIS2_PLACEMENT_3D('',#1610,#1284,#1285);
#1053=AXIS2_PLACEMENT_3D('',#1612,#1287,#1288);
#1054=AXIS2_PLACEMENT_3D('',#1613,#1289,#1290);
#1055=AXIS2_PLACEMENT_3D('',#1618,#1292,#1293);
#1056=AXIS2_PLACEMENT_3D('',#1621,#1295,#1296);
#1057=AXIS2_PLACEMENT_3D('',#1622,#1297,#1298);
#1058=AXIS2_PLACEMENT_3D('',#1624,#1300,#1301);
#1059=AXIS2_PLACEMENT_3D('',#1625,#1302,#1303);
#1060=AXIS2_PLACEMENT_3D('',#1632,#1304,#1305);
#1061=AXIS2_PLACEMENT_3D('',#1660,#1306,#1307);
#1062=AXIS2_PLACEMENT_3D('',#1667,#1309,#1310);
#1063=AXIS2_PLACEMENT_3D('',#1669,#1312,#1313);
#1064=AXIS2_PLACEMENT_3D('',#1674,#1314,#1315);
#1065=AXIS2_PLACEMENT_3D('',#1675,#1316,#1317);
#1066=AXIS2_PLACEMENT_3D('',#1677,#1318,#1319);
#1067=AXIS2_PLACEMENT_3D('',#1678,#1320,#1321);
#1068=AXIS2_PLACEMENT_3D('',#1680,#1323,#1324);
#1069=DIRECTION('axis',(0.,0.,1.));
#1070=DIRECTION('refdir',(1.,0.,0.));
#1071=DIRECTION('center_axis',(-9.24808134800129E-58,3.78653234506086E-29,
1.));
#1072=DIRECTION('ref_axis',(1.,3.82628354038228E-29,-5.24026503903017E-58));
#1073=DIRECTION('center_axis',(9.24808134800129E-58,-3.78653234506086E-29,
-1.));
#1074=DIRECTION('ref_axis',(1.,-1.27526154495439E-24,-7.10418065487043E-14));
#1075=DIRECTION('',(4.27263046380539E-14,1.,1.27122620547681E-9));
#1076=DIRECTION('',(-1.,-3.05311330475494E-16,1.15607122815893E-44));
#1077=DIRECTION('',(-5.34156052725197E-14,-1.,5.55111512348677E-17));
#1078=DIRECTION('',(-1.,-8.79257278441381E-16,3.32933612444838E-44));
#1079=DIRECTION('',(4.27263046380539E-14,1.,1.27122620547681E-9));
#1080=DIRECTION('center_axis',(6.30272886234833E-14,-1.27122620547681E-9,
1.));
#1081=DIRECTION('ref_axis',(-5.68257532045831E-14,1.,1.2712266636886E-9));
#1082=DIRECTION('',(4.27263046380539E-14,1.,1.27122620547681E-9));
#1083=DIRECTION('center_axis',(-9.24808134800129E-58,3.78653234506086E-29,
1.));
#1084=DIRECTION('ref_axis',(5.34156052725197E-14,1.,-5.5511151234874E-17));
#1085=DIRECTION('center_axis',(1.39824694071246E-14,-1.,-1.27117871784321E-9));
#1086=DIRECTION('ref_axis',(1.,1.39824694943E-14,-6.85784029902375E-14));
#1087=DIRECTION('',(5.9211894646675E-14,-1.27117871784321E-9,1.));
#1088=DIRECTION('',(-6.57046332624093E-14,1.27117909501314E-9,-1.));
#1089=DIRECTION('center_axis',(1.,0.,-5.9211894646675E-14));
#1090=DIRECTION('ref_axis',(-5.9211894646675E-14,0.,-1.));
#1091=DIRECTION('',(-6.29613320544002E-14,1.27122720197855E-9,-1.));
#1092=DIRECTION('',(-7.52689003180276E-23,-1.,-1.27117871784321E-9));
#1093=DIRECTION('center_axis',(-1.,0.,5.9211894646675E-14));
#1094=DIRECTION('ref_axis',(-8.83177008009623E-14,-0.707106780287685,-0.70710678208541));
#1095=DIRECTION('',(5.9211894646675E-14,-1.27117871784321E-9,1.));
#1096=DIRECTION('center_axis',(1.,1.18783807257657E-23,-6.85562717706034E-14));
#1097=DIRECTION('ref_axis',(5.75270223309243E-14,5.58535473974391E-14,1.));
#1098=DIRECTION('center_axis',(1.,4.76638325372829E-24,-6.29613320544002E-14));
#1099=DIRECTION('ref_axis',(-7.40786685619452E-14,2.54246161224914E-9,-1.));
#1100=DIRECTION('',(5.9211894646675E-14,-1.27122639900048E-9,1.));
#1101=DIRECTION('center_axis',(-1.,0.,5.9211894646675E-14));
#1102=DIRECTION('ref_axis',(4.7102773760513E-15,-0.707106782085438,0.707106780287657));
#1103=DIRECTION('',(7.52717236096883E-23,1.,1.27122639900048E-9));
#1104=DIRECTION('center_axis',(-1.,4.27263045539906E-14,4.81174721482132E-15));
#1105=DIRECTION('ref_axis',(-4.81174726913854E-15,-1.27128217707361E-9,
-1.));
#1106=DIRECTION('',(-7.1041806548666E-14,1.17057297053953E-15,-1.));
#1107=DIRECTION('',(4.81174716050855E-15,-1.27117871784321E-9,1.));
#1108=DIRECTION('center_axis',(-1.,4.27263045539906E-14,4.81174721482132E-15));
#1109=DIRECTION('ref_axis',(-7.40786685619452E-14,2.54246161224914E-9,-1.));
#1110=DIRECTION('',(-1.26793943678046E-13,2.54246148978446E-9,-1.));
#1111=DIRECTION('center_axis',(1.,-4.27263044768701E-14,-1.26793943786676E-13));
#1112=DIRECTION('ref_axis',(-7.40786685619452E-14,2.54246161224914E-9,-1.));
#1113=DIRECTION('center_axis',(-1.,4.27263045539906E-14,4.81174721482132E-15));
#1114=DIRECTION('ref_axis',(5.75270223309243E-14,5.58535473980506E-14,1.));
#1115=DIRECTION('',(4.81174721482371E-15,5.57310827176979E-14,1.));
#1116=DIRECTION('center_axis',(-1.,4.27263045539906E-14,4.81174721482132E-15));
#1117=DIRECTION('ref_axis',(5.75270223309243E-14,5.58535473980506E-14,1.));
#1118=DIRECTION('',(-6.57046332624093E-14,1.27117909501314E-9,-1.));
#1119=DIRECTION('',(4.27263045601072E-14,1.,1.27117955322494E-9));
#1120=DIRECTION('center_axis',(7.1041806548666E-14,-1.17057297053953E-15,
1.));
#1121=DIRECTION('ref_axis',(-1.,4.2755028826796E-14,7.10418065486278E-14));
#1122=DIRECTION('center_axis',(-7.10542735760089E-14,1.11022302462136E-15,
-1.));
#1123=DIRECTION('ref_axis',(1.,-1.27524241353668E-24,-7.10418065487043E-14));
#1124=DIRECTION('',(7.1041806548666E-14,-1.17057297053953E-15,1.));
#1125=DIRECTION('center_axis',(-1.,4.27263045539906E-14,4.81174721482132E-15));
#1126=DIRECTION('ref_axis',(-4.81174726913854E-15,-1.27128217707361E-9,
-1.));
#1127=DIRECTION('',(4.27263045601072E-14,1.,1.27117955322494E-9));
#1128=DIRECTION('',(-4.81174716050855E-15,1.27117855672319E-9,-1.));
#1129=DIRECTION('center_axis',(-7.10542735760089E-14,1.11022302462136E-15,
-1.));
#1130=DIRECTION('ref_axis',(-5.35960165135435E-14,1.,1.11022302462518E-15));
#1131=DIRECTION('center_axis',(-7.10542735760089E-14,1.11022302462136E-15,
-1.));
#1132=DIRECTION('ref_axis',(-6.866813532109E-14,1.,1.11022302462515E-15));
#1133=DIRECTION('',(4.27263045601072E-14,1.,1.27117955322494E-9));
#1134=DIRECTION('',(1.,8.79257368767507E-16,-7.10542735760089E-14));
#1135=DIRECTION('',(-5.34156050272787E-14,-1.,-1.11022302461756E-15));
#1136=DIRECTION('',(1.,3.05311420798163E-16,-7.10542735760089E-14));
#1137=DIRECTION('center_axis',(-7.10542735760089E-14,1.11022302462136E-15,
-1.));
#1138=DIRECTION('ref_axis',(-5.34156052725197E-14,-1.,5.55111512348613E-17));
#1139=DIRECTION('center_axis',(4.76276506344585E-14,-0.707106782085402,
0.707106780287693));
#1140=DIRECTION('ref_axis',(1.,0.,-6.73556695568394E-14));
#1141=DIRECTION('',(3.77705366613697E-14,0.707106780287693,0.707106782085402));
#1142=DIRECTION('',(-1.,-3.05311415708433E-16,6.70503581403548E-14));
#1143=DIRECTION('',(1.96261557086882E-17,-0.707106780287693,-0.707106782085402));
#1144=DIRECTION('',(1.,3.05311415708433E-16,-6.70503581403548E-14));
#1145=DIRECTION('center_axis',(-3.05311330475456E-16,1.,1.27117855672319E-9));
#1146=DIRECTION('ref_axis',(1.,3.05311417761206E-16,-6.86652279943553E-14));
#1147=DIRECTION('',(1.31605690892834E-13,-1.27117855672319E-9,1.));
#1148=DIRECTION('',(-1.,-3.0531141253681E-16,6.45553327517386E-14));
#1149=DIRECTION('',(0.,0.,1.));
#1150=DIRECTION('',(-1.31605690960773E-13,1.27117855672319E-9,-1.));
#1151=DIRECTION('',(-1.,-3.05311470193334E-16,1.09912079437865E-13));
#1152=DIRECTION('',(1.08135722598465E-13,-1.27117855672319E-9,1.));
#1153=DIRECTION('',(1.,3.05311470193334E-16,-1.09912079437864E-13));
#1154=DIRECTION('',(-9.74775815620629E-14,1.27117855672319E-9,-1.));
#1155=DIRECTION('',(-1.,-3.05311458903E-16,1.01030295240863E-13));
#1156=DIRECTION('',(1.08135722598465E-13,-1.27117855672319E-9,1.));
#1157=DIRECTION('',(1.,3.05311458903E-16,-1.01030295240863E-13));
#1158=DIRECTION('',(-9.74775815620629E-14,1.27117855672319E-9,-1.));
#1159=DIRECTION('center_axis',(3.05311330475456E-16,-1.,-1.27117855672319E-9));
#1160=DIRECTION('ref_axis',(1.,3.05311413741666E-16,-6.55031584528549E-14));
#1161=DIRECTION('center_axis',(3.05311330475456E-16,-1.,-1.27117855672319E-9));
#1162=DIRECTION('ref_axis',(1.,3.05311413741666E-16,-6.55031584528549E-14));
#1163=DIRECTION('center_axis',(-1.,-2.77555756157551E-17,4.12674871238234E-47));
#1164=DIRECTION('ref_axis',(-4.12888692415043E-47,7.70371977754893E-34,
-1.));
#1165=DIRECTION('',(2.77556535625478E-17,-1.,-1.27117855672319E-9));
#1166=DIRECTION('',(3.52836427293206E-26,-1.27122720197855E-9,1.));
#1167=DIRECTION('',(2.77555756157149E-17,-1.,-1.27122720197855E-9));
#1168=DIRECTION('',(-1.96261557585854E-17,0.707106782085429,-0.707106780287666));
#1169=DIRECTION('center_axis',(-4.5431625838632E-14,-0.707106780287666,
-0.707106782085429));
#1170=DIRECTION('ref_axis',(-1.,0.,6.4250021339978E-14));
#1171=DIRECTION('',(-3.77705367573969E-14,-0.707106782085429,0.707106780287666));
#1172=DIRECTION('',(1.,3.0531141253681E-16,-6.45553327517386E-14));
#1173=DIRECTION('center_axis',(-6.45553327521267E-14,1.27122720197855E-9,
-1.));
#1174=DIRECTION('ref_axis',(-1.29638251029166E-14,1.,1.27122720197855E-9));
#1175=DIRECTION('',(-1.,-8.79257360505838E-16,6.4555332751009E-14));
#1176=DIRECTION('',(-5.34156052725197E-14,-1.,-1.27122720197855E-9));
#1177=DIRECTION('center_axis',(-1.01030295240863E-13,5.2245789394125E-16,
-1.));
#1178=DIRECTION('ref_axis',(-1.,1.93270921778981E-28,1.01030295240863E-13));
#1179=DIRECTION('',(1.,8.79257406873802E-16,-1.01030295240863E-13));
#1180=DIRECTION('',(0.,1.,5.2245789394125E-16));
#1181=DIRECTION('',(0.,1.,5.2245789394125E-16));
#1182=DIRECTION('center_axis',(-5.3332338545676E-14,-1.,-4.7850612361341E-14));
#1183=DIRECTION('ref_axis',(1.,-5.33323385456728E-14,-6.55031584528574E-14));
#1184=DIRECTION('center_axis',(8.79257278441343E-16,-1.,-1.27122720197855E-9));
#1185=DIRECTION('ref_axis',(1.,8.79257361710742E-16,-6.55031584528548E-14));
#1186=DIRECTION('',(-5.3332338545676E-14,-1.,-4.7850612361341E-14));
#1187=DIRECTION('center_axis',(-8.79257278441343E-16,1.,1.27122720197855E-9));
#1188=DIRECTION('ref_axis',(1.,8.79257358452969E-16,-6.29404628970084E-14));
#1189=DIRECTION('',(6.79033704325762E-23,1.27122720197855E-9,-1.));
#1190=DIRECTION('',(-1.,-8.79257441621142E-16,6.70503581396252E-14));
#1191=DIRECTION('',(1.31605690960773E-13,-1.27117855672319E-9,1.));
#1192=DIRECTION('',(-4.81174716050856E-15,1.27117855672319E-9,-1.));
#1193=DIRECTION('',(1.,8.79257365620074E-16,-6.8578403006894E-14));
#1194=DIRECTION('',(-1.,-8.79257358563346E-16,6.30272878837401E-14));
#1195=DIRECTION('',(6.30343730428624E-14,-1.27122639900048E-9,1.));
#1196=DIRECTION('center_axis',(8.79257278441343E-16,-1.,-1.27122720197855E-9));
#1197=DIRECTION('ref_axis',(1.,8.79257361710742E-16,-6.55031584528548E-14));
#1198=DIRECTION('',(-1.,-8.79257418164568E-16,1.09912079437865E-13));
#1199=DIRECTION('',(-1.08135722598464E-13,1.27122720197855E-9,-1.));
#1200=DIRECTION('',(1.,8.79257418164568E-16,-1.09912079437864E-13));
#1201=DIRECTION('',(9.39248678832618E-14,-1.27122720197855E-9,1.));
#1202=DIRECTION('',(1.08135722598465E-13,-1.27122720197855E-9,1.));
#1203=DIRECTION('',(-1.,-8.79257406873802E-16,1.01030295240863E-13));
#1204=DIRECTION('',(-9.74775815620629E-14,1.27122720197855E-9,-1.));
#1205=DIRECTION('center_axis',(-5.3332338545676E-14,-1.,-4.7850612361341E-14));
#1206=DIRECTION('ref_axis',(1.,-5.33323385456728E-14,-6.55031584528574E-14));
#1207=DIRECTION('',(5.3332338545676E-14,1.,4.7850612361341E-14));
#1208=DIRECTION('center_axis',(1.,-5.6362832443442E-14,-6.30343731145123E-14));
#1209=DIRECTION('ref_axis',(4.7102773760513E-15,-0.707106782085438,0.707106780287657));
#1210=DIRECTION('center_axis',(-1.,4.27263044768701E-14,1.26793943786676E-13));
#1211=DIRECTION('ref_axis',(4.7102773760513E-15,-0.707106782085438,0.707106780287657));
#1212=DIRECTION('',(-1.,5.6362832443442E-14,6.30343731145123E-14));
#1213=DIRECTION('',(1.,-5.6362832443442E-14,-6.30343731145123E-14));
#1214=DIRECTION('center_axis',(1.,-4.27263044768701E-14,-1.26793943786676E-13));
#1215=DIRECTION('ref_axis',(1.26793943623731E-13,-3.81368793577536E-9,1.));
#1216=DIRECTION('',(6.30343730428624E-14,-1.27122639900048E-9,1.));
#1217=DIRECTION('',(-1.26793943678046E-13,2.54246148978446E-9,-1.));
#1218=DIRECTION('center_axis',(1.,-4.27263044768701E-14,-1.26793943786676E-13));
#1219=DIRECTION('ref_axis',(-7.40786685619452E-14,2.54246161224914E-9,-1.));
#1220=DIRECTION('',(-6.59010576304602E-14,1.2712266636886E-9,-1.));
#1221=DIRECTION('',(4.27263046380539E-14,1.,1.27122624954554E-9));
#1222=DIRECTION('center_axis',(-5.63628325235729E-14,-1.,-1.27122639900048E-9));
#1223=DIRECTION('ref_axis',(1.,-5.6362832443451E-14,-6.30272879565078E-14));
#1224=DIRECTION('',(6.29613320544002E-14,-2.54246148978446E-9,1.));
#1225=DIRECTION('',(-1.,5.6362832443451E-14,6.30272879565078E-14));
#1226=DIRECTION('center_axis',(-1.,5.63628323584789E-14,6.85562718422506E-14));
#1227=DIRECTION('ref_axis',(-8.83177008009623E-14,-0.707106780287685,-0.70710678208541));
#1228=DIRECTION('center_axis',(-1.,4.27263045539906E-14,4.81174721482132E-15));
#1229=DIRECTION('ref_axis',(-8.83177008009623E-14,-0.707106780287685,-0.70710678208541));
#1230=DIRECTION('',(-1.,5.63628323584789E-14,6.85562718422506E-14));
#1231=DIRECTION('',(1.,-5.63628323584789E-14,-6.85562718422506E-14));
#1232=DIRECTION('center_axis',(-6.85562717706034E-14,1.27117871784321E-9,
-1.));
#1233=DIRECTION('ref_axis',(-1.,0.,6.85562717706034E-14));
#1234=DIRECTION('',(-4.27263045601072E-14,-1.,-1.2711795091562E-9));
#1235=DIRECTION('center_axis',(6.30343730428624E-14,-1.27122639900048E-9,
1.));
#1236=DIRECTION('ref_axis',(1.,0.,-6.30343730428624E-14));
#1237=DIRECTION('center_axis',(-5.63628324456262E-14,-1.,-1.27117871784321E-9));
#1238=DIRECTION('ref_axis',(-1.,5.63628323584508E-14,6.8578403079659E-14));
#1239=DIRECTION('',(-6.85562717706034E-14,1.27117871784321E-9,-1.));
#1240=DIRECTION('',(1.,-5.63628323584508E-14,-6.8578403079659E-14));
#1241=DIRECTION('',(6.85562717706034E-14,5.57310827176945E-14,1.));
#1242=DIRECTION('center_axis',(1.,-5.639058799211E-14,-7.36299180755601E-14));
#1243=DIRECTION('ref_axis',(7.31813469282635E-14,3.18285087758213E-6,0.999999999994935));
#1244=DIRECTION('center_axis',(1.,1.38004351465321E-14,-6.42969470120908E-14));
#1245=DIRECTION('ref_axis',(-7.40786685619452E-14,2.54246161224914E-9,-1.));
#1246=DIRECTION('center_axis',(-5.63628326036954E-14,-1.,-2.54246148978446E-9));
#1247=DIRECTION('ref_axis',(-7.40786685619452E-14,2.54246148978446E-9,-1.));
#1248=DIRECTION('',(6.42969470471779E-14,-2.54246148978446E-9,1.));
#1249=DIRECTION('center_axis',(-5.69115811462647E-26,5.55111512348361E-17,
1.));
#1250=DIRECTION('ref_axis',(5.34156052725197E-14,1.,-5.55111512348361E-17));
#1251=DIRECTION('',(-5.69115811462647E-26,5.55111512348361E-17,1.));
#1252=DIRECTION('center_axis',(-5.69115811462647E-26,5.55111512348361E-17,
1.));
#1253=DIRECTION('ref_axis',(5.34156052725197E-14,1.,-5.55111512348361E-17));
#1254=DIRECTION('center_axis',(-5.69115811462647E-26,5.55111512348361E-17,
1.));
#1255=DIRECTION('ref_axis',(5.34156052725197E-14,1.,-5.55111512348361E-17));
#1256=DIRECTION('center_axis',(-1.,5.34156052725197E-14,0.));
#1257=DIRECTION('ref_axis',(-5.34156052725197E-14,-1.,5.55111512348298E-17));
#1258=DIRECTION('center_axis',(-1.,-1.38004351465321E-14,6.42969470120908E-14));
#1259=DIRECTION('ref_axis',(-6.42969470120908E-14,1.22464679704423E-16,
-1.));
#1260=DIRECTION('',(-6.42969470471779E-14,2.54246148978446E-9,-1.));
#1261=DIRECTION('center_axis',(1.,1.38004351465321E-14,-6.42969470120908E-14));
#1262=DIRECTION('ref_axis',(-7.40786685619452E-14,2.54246161224914E-9,-1.));
#1263=DIRECTION('center_axis',(-6.59010576304602E-14,1.2712266636886E-9,
-1.));
#1264=DIRECTION('ref_axis',(-6.86681351596209E-14,1.,1.2712266636886E-9));
#1265=DIRECTION('center_axis',(-5.63905881793112E-14,-1.,-2.54246148978446E-9));
#1266=DIRECTION('ref_axis',(-6.29717768957877E-14,2.54246148978446E-9,-1.));
#1267=DIRECTION('center_axis',(1.,-5.639058799211E-14,-7.36299180755601E-14));
#1268=DIRECTION('ref_axis',(-7.40786685619452E-14,2.54246161224914E-9,-1.));
#1269=DIRECTION('center_axis',(-1.09912079437864E-13,5.2245789394125E-16,
-1.));
#1270=DIRECTION('ref_axis',(-1.,1.97412441531389E-28,1.09912079437864E-13));
#1271=DIRECTION('',(0.,1.,5.2245789394125E-16));
#1272=DIRECTION('',(0.,1.,5.2245789394125E-16));
#1273=DIRECTION('center_axis',(1.,5.64963618886091E-29,-1.08135722598465E-13));
#1274=DIRECTION('ref_axis',(-1.08135722598465E-13,5.67979851759128E-29,
-1.));
#1275=DIRECTION('',(0.,1.,5.2245789394125E-16));
#1276=DIRECTION('center_axis',(1.09912079437865E-13,-5.2245789394125E-16,
1.));
#1277=DIRECTION('ref_axis',(1.,-1.97412441531371E-28,-1.09912079437865E-13));
#1278=DIRECTION('',(0.,1.,5.2245789394125E-16));
#1279=DIRECTION('center_axis',(-1.,-5.09279319694018E-29,9.74775815620628E-14));
#1280=DIRECTION('ref_axis',(9.74775815620629E-14,-4.44089209850132E-16,
1.));
#1281=DIRECTION('center_axis',(-1.,-5.09279319694018E-29,9.74775815620628E-14));
#1282=DIRECTION('ref_axis',(9.74775815620629E-14,-4.44089209850132E-16,
1.));
#1283=DIRECTION('',(0.,1.,5.2245789394125E-16));
#1284=DIRECTION('center_axis',(1.,5.64963618886091E-29,-1.08135722598465E-13));
#1285=DIRECTION('ref_axis',(-1.08135722598465E-13,5.67979851759128E-29,
-1.));
#1286=DIRECTION('',(0.,1.,5.2245789394125E-16));
#1287=DIRECTION('center_axis',(1.01030295240863E-13,-5.2245789394125E-16,
1.));
#1288=DIRECTION('ref_axis',(1.,2.77555756156102E-16,-1.01030295240863E-13));
#1289=DIRECTION('center_axis',(-1.,-1.38004351465321E-14,6.42969470120908E-14));
#1290=DIRECTION('ref_axis',(-6.42969470120908E-14,1.22464679704442E-16,
-1.));
#1291=DIRECTION('',(6.429694701209E-14,5.57310827176947E-14,1.));
#1292=DIRECTION('center_axis',(1.,1.38004351465321E-14,-6.42969470120908E-14));
#1293=DIRECTION('ref_axis',(5.75270223309243E-14,5.58535473974391E-14,1.));
#1294=DIRECTION('',(-6.429694701209E-14,-5.57310827176947E-14,-1.));
#1295=DIRECTION('center_axis',(-1.,-1.38004351465321E-14,6.42969470120908E-14));
#1296=DIRECTION('ref_axis',(5.75270223309243E-14,5.58535473974391E-14,1.));
#1297=DIRECTION('center_axis',(-6.70503581407429E-14,1.27117855672319E-9,
-1.));
#1298=DIRECTION('ref_axis',(-1.29638251808634E-14,1.,1.27117855672319E-9));
#1299=DIRECTION('',(-5.34156051945729E-14,-1.,-1.27117855672319E-9));
#1300=DIRECTION('center_axis',(-1.,5.34156052725197E-14,0.));
#1301=DIRECTION('ref_axis',(-5.34156052725197E-14,-1.,5.55111512348298E-17));
#1302=DIRECTION('center_axis',(1.,-5.6390587934066E-14,-5.79757729606773E-14));
#1303=DIRECTION('ref_axis',(5.75270223309243E-14,5.58535473974391E-14,1.));
#1304=DIRECTION('center_axis',(-1.,4.27263045539906E-14,4.81174721482132E-15));
#1305=DIRECTION('ref_axis',(5.75270223309243E-14,5.58535473980506E-14,1.));
#1306=DIRECTION('center_axis',(5.63628323584469E-14,1.,-5.57310827176984E-14));
#1307=DIRECTION('ref_axis',(5.75270223309243E-14,5.57310827176951E-14,1.));
#1308=DIRECTION('',(4.81174721482371E-15,5.57310827176979E-14,1.));
#1309=DIRECTION('center_axis',(-1.,4.27263045539906E-14,4.81174721482132E-15));
#1310=DIRECTION('ref_axis',(-4.81174726913854E-15,-1.27128217707361E-9,
-1.));
#1311=DIRECTION('',(6.57046332624093E-14,-1.27117909501314E-9,1.));
#1312=DIRECTION('center_axis',(5.63905879340628E-14,1.,-5.57310827176984E-14));
#1313=DIRECTION('ref_axis',(6.86339139970819E-14,5.57310827176945E-14,1.));
#1314=DIRECTION('center_axis',(-6.57046332624093E-14,1.27117909501314E-9,
-1.));
#1315=DIRECTION('ref_axis',(-6.86681352375676E-14,1.,1.27117909501314E-9));
#1316=DIRECTION('center_axis',(5.69115811462647E-26,-5.55111512348361E-17,
-1.));
#1317=DIRECTION('ref_axis',(-5.34156052725197E-14,-1.,5.55111512348361E-17));
#1318=DIRECTION('center_axis',(5.69115811462647E-26,-5.55111512348361E-17,
-1.));
#1319=DIRECTION('ref_axis',(-5.34156052725197E-14,-1.,5.55111512348361E-17));
#1320=DIRECTION('center_axis',(5.69115811462647E-26,-5.55111512348361E-17,
-1.));
#1321=DIRECTION('ref_axis',(-5.34156052725197E-14,-1.,5.55111512348361E-17));
#1322=DIRECTION('',(5.69115811462647E-26,-5.55111512348361E-17,-1.));
#1323=DIRECTION('center_axis',(1.,-5.6390587934066E-14,-5.79757729606773E-14));
#1324=DIRECTION('ref_axis',(-5.84243439967718E-14,3.18481104863593E-6,-0.999999999994929));
#1325=CARTESIAN_POINT('',(0.,0.,0.));
#1326=CARTESIAN_POINT('Origin',(-7.30118608225357,90.2692132023207,-102.505851935621));
#1327=CARTESIAN_POINT('',(-0.60118608222879,83.2210205059341,-102.5058523588));
#1328=CARTESIAN_POINT('',(-0.601186082228559,88.6173155312275,-102.50585235194));
#1329=CARTESIAN_POINT('Origin',(-0.501186082236566,85.9191680185808,-102.505851935622));
#1330=CARTESIAN_POINT('',(-0.601186082228463,81.3191684744805,-102.505852361218));
#1331=CARTESIAN_POINT('',(-0.601186082228065,90.6316681258949,-102.505852349379));
#1332=CARTESIAN_POINT('',(-11.0011860822566,81.3191683123479,-102.505851935621));
#1333=CARTESIAN_POINT('',(-12.1011860822477,81.3191684920303,-102.505851935621));
#1334=CARTESIAN_POINT('',(-11.0011860822557,99.2191679422935,-102.505851935621));
#1335=CARTESIAN_POINT('',(-11.0011860822551,109.857300005372,-102.505851935621));
#1336=CARTESIAN_POINT('',(-0.601186082227698,99.2191682773087,-102.505852338463));
#1337=CARTESIAN_POINT('',(-12.1011860821364,99.2191682773087,-102.505851935621));
#1338=CARTESIAN_POINT('',(-0.601186082227831,96.115831233099,-102.505852342408));
#1339=CARTESIAN_POINT('',(-0.601186082228065,90.6316681258949,-102.505852349379));
#1340=CARTESIAN_POINT('',(-0.601186082227959,93.1225053236798,-102.505852346213));
#1341=CARTESIAN_POINT('Origin',(-0.501186082228643,94.6191682783894,-102.50585234431));
#1342=CARTESIAN_POINT('',(-0.601186082228065,90.6316681258949,-102.505852349379));
#1343=CARTESIAN_POINT('',(-6.63818608225533,89.019258633722,-102.505851935621));
#1344=CARTESIAN_POINT('Origin',(-6.63818608225526,90.269258633722,-102.505851935621));
#1345=CARTESIAN_POINT('Origin',(-3.30118608224798,93.1225057680398,-75.5058868823073));
#1346=CARTESIAN_POINT('',(-3.30118608225,93.1225057728099,-93.0582355422829));
#1347=CARTESIAN_POINT('',(-3.30118608224772,93.1225057632699,-71.753504204734));
#1348=CARTESIAN_POINT('',(-3.30118608224853,93.1225057799206,-84.8521240185297));
#1349=CARTESIAN_POINT('',(-0.601186082228509,93.1225053028912,-72.9459915283254));
#1350=CARTESIAN_POINT('Ctrl Pts',(-0.601186147514641,93.1225057647858,-72.9459916803906));
#1351=CARTESIAN_POINT('Ctrl Pts',(-2.19944491110574,93.1225057639135,-72.2598117381443));
#1352=CARTESIAN_POINT('Ctrl Pts',(-3.301186082248,93.1225057632699,-71.7535042047339));
#1353=CARTESIAN_POINT('',(-0.601186082226372,93.1225053093912,-91.8657482186947));
#1354=CARTESIAN_POINT('',(-0.601186082228704,93.1225053062724,-75.6058868823075));
#1355=CARTESIAN_POINT('Ctrl Pts',(-3.301186082251,93.1225058224879,-93.0582355141845));
#1356=CARTESIAN_POINT('Ctrl Pts',(-2.19944496451565,93.1225058218443,-92.551928009042));
#1357=CARTESIAN_POINT('Ctrl Pts',(-0.601186154535364,93.1225058209721,-91.8657480502717));
#1358=CARTESIAN_POINT('Origin',(-3.30118608224909,87.7251687016852,-94.1983611616131));
#1359=CARTESIAN_POINT('',(-3.30118608224733,99.2191682100857,-75.5058868745573));
#1360=CARTESIAN_POINT('',(-3.30118608224984,99.2191682597658,-89.3058528569622));
#1361=CARTESIAN_POINT('',(-3.3011860822508,99.219168269872,-122.536252878971));
#1362=CARTESIAN_POINT('',(-3.30118608224798,98.1191682469937,-75.5058868759557));
#1363=CARTESIAN_POINT('',(-3.30118608224798,88.9971685181426,-75.5058868875513));
#1364=CARTESIAN_POINT('',(-3.30118608224786,96.1191682444514,-73.505886878498));
#1365=CARTESIAN_POINT('Origin',(-3.30118608224708,98.1191682444514,-73.5058868759556));
#1366=CARTESIAN_POINT('',(-3.30118608224772,96.119168242065,-71.7516127355616));
#1367=CARTESIAN_POINT('',(-3.30118608224842,96.1191682563321,-82.8521240147204));
#1368=CARTESIAN_POINT('Origin',(-3.30118608224787,94.6191674592021,-69.1074498273505));
#1369=CARTESIAN_POINT('',(-3.30118608225053,96.119168251602,-93.0601269967189));
#1370=CARTESIAN_POINT('Origin',(-3.30118608225068,94.6191674754612,-95.7042899158641));
#1371=CARTESIAN_POINT('',(-3.30118608224892,96.1191682492736,-91.305852860903));
#1372=CARTESIAN_POINT('',(-3.30118608224906,96.1191682522562,-93.6521070059227));
#1373=CARTESIAN_POINT('',(-3.3011860822488,98.1191682467312,-89.3058528583605));
#1374=CARTESIAN_POINT('Origin',(-3.30118608224832,98.1191682492736,-91.3058528583605));
#1375=CARTESIAN_POINT('',(-3.3011860822488,88.9971685269094,-89.3058528699566));
#1376=CARTESIAN_POINT('Origin',(-0.601186082228757,90.9941678425007,-68.6058868553311));
#1377=CARTESIAN_POINT('',(-0.601186082228897,88.6173155312274,-62.3058874037341));
#1378=CARTESIAN_POINT('',(-0.601186082229026,88.6173155312275,-103.225487403734));
#1379=CARTESIAN_POINT('',(-0.601186082227727,93.1225053191504,-99.5428316168388));
#1380=CARTESIAN_POINT('',(-0.601186082228683,93.1225057636543,-46.7754868674664));
#1381=CARTESIAN_POINT('',(-0.601186082227507,93.1191682679242,-99.5415288161208));
#1382=CARTESIAN_POINT('Origin',(-0.60118608223241,94.619167475461,-95.7042899158643));
#1383=CARTESIAN_POINT('',(-0.601186082225088,93.1191682484121,-91.8670510232344));
#1384=CARTESIAN_POINT('',(-0.601186082226528,93.1191682482902,-91.8190830106477));
#1385=CARTESIAN_POINT('Origin',(-0.601186082226934,94.619167475461,-95.7042899158643));
#1386=CARTESIAN_POINT('',(-0.60118608222723,93.1191682419088,-72.9446887237942));
#1387=CARTESIAN_POINT('Origin',(-0.601186082228597,94.6191674592019,-69.1074498273507));
#1388=CARTESIAN_POINT('',(-0.601186082228651,93.1191682419093,-65.2702109309078));
#1389=CARTESIAN_POINT('',(-0.601186082228704,93.1191682419088,-72.9926567363809));
#1390=CARTESIAN_POINT('',(-0.601186082228864,93.1225052931321,-65.2689081301813));
#1391=CARTESIAN_POINT('Origin',(-0.601186082228597,94.6191674592019,-69.1074498273507));
#1392=CARTESIAN_POINT('',(-0.601186082228704,93.1225052886029,-62.305887400807));
#1393=CARTESIAN_POINT('',(-0.601186082228633,93.1225052884758,-61.6058874008071));
#1394=CARTESIAN_POINT('',(-0.601186082228811,90.631668090818,-62.3058874039734));
#1395=CARTESIAN_POINT('Origin',(-0.501186082236624,85.9191680185808,-103.225487403734));
#1396=CARTESIAN_POINT('',(-0.601186082229127,83.2210205059342,-62.3058874037341));
#1397=CARTESIAN_POINT('Origin',(-0.501186082233746,85.9191680185808,-62.3058874037333));
#1398=CARTESIAN_POINT('',(-0.601186082229256,83.2210205059341,-103.225487403734));
#1399=CARTESIAN_POINT('Origin',(-0.601186082228757,90.9941678425007,-68.6058868553311));
#1400=CARTESIAN_POINT('',(-0.601186082229201,81.3191684394036,-62.3058874158112));
#1401=CARTESIAN_POINT('',(-0.601186082228811,90.631668090818,-62.3058874039734));
#1402=CARTESIAN_POINT('',(-0.601186082229193,81.319168453895,-73.10588688247));
#1403=CARTESIAN_POINT('Origin',(-12.8891860822562,93.3701689373194,-62.3058874037324));
#1404=CARTESIAN_POINT('',(-0.601186082228544,96.1158311980221,-62.305887397002));
#1405=CARTESIAN_POINT('Origin',(-0.501186082230155,94.6191682433127,-62.3058874037333));
#1406=CARTESIAN_POINT('',(-0.60118608222842,99.2191682422318,-62.3058873930571));
#1407=CARTESIAN_POINT('',(-0.601186082228811,90.631668090818,-62.3058874039734));
#1408=CARTESIAN_POINT('',(-11.0011860822564,99.2191679072166,-62.3058877958975));
#1409=CARTESIAN_POINT('',(-14.8951860821353,99.2191681925428,-62.3058874037323));
#1410=CARTESIAN_POINT('',(-11.0011860822574,81.319168277271,-62.3058878414065));
#1411=CARTESIAN_POINT('',(-11.0011860822566,96.2947134918018,-62.3058874037326));
#1412=CARTESIAN_POINT('',(-14.8951860822485,81.3191684394036,-62.3058874037323));
#1413=CARTESIAN_POINT('',(-6.63818608225059,91.5192585436171,-62.3058874037323));
#1414=CARTESIAN_POINT('Origin',(-6.63818608225073,90.2692585436171,-62.3058874037324));
#1415=CARTESIAN_POINT('Origin',(-15.3506860822486,82.3191684352087,-58.4058868520222));
#1416=CARTESIAN_POINT('',(-11.001186082257,81.3191684364799,-59.4058868532937));
#1417=CARTESIAN_POINT('',(-11.0011860822566,83.3191684339375,-57.4058868507513));
#1418=CARTESIAN_POINT('',(-11.001186082257,74.2941993178388,-66.4308559897946));
#1419=CARTESIAN_POINT('',(-16.9011860822555,83.3191684339375,-57.4058868507509));
#1420=CARTESIAN_POINT('',(-15.3506860822485,83.3191684339375,-57.405886850751));
#1421=CARTESIAN_POINT('',(-16.9011860822557,81.3191684364799,-59.4058868532933));
#1422=CARTESIAN_POINT('',(-16.9011860822554,73.0556338373913,-67.6694214733906));
#1423=CARTESIAN_POINT('',(-15.3506860822486,81.3191684364799,-59.4058868532934));
#1424=CARTESIAN_POINT('Origin',(-16.9011860822419,81.3191684596153,-77.6058868973102));
#1425=CARTESIAN_POINT('',(-16.9011860822618,81.319168494954,-105.405852923734));
#1426=CARTESIAN_POINT('',(-16.9011860822587,81.3191684654279,-82.1785005876107));
#1427=CARTESIAN_POINT('',(-11.0011860822566,81.3191684569458,-105.405852923734));
#1428=CARTESIAN_POINT('',(-15.35068608225,81.319168494954,-105.405852923734));
#1429=CARTESIAN_POINT('',(-11.0011860822566,81.3191684569458,-78.8156699224093));
#1430=CARTESIAN_POINT('',(-11.0011860822581,81.3191684467764,-67.5058868579812));
#1431=CARTESIAN_POINT('',(-10.9011860822516,81.3191684569458,-63.5194946235339));
#1432=CARTESIAN_POINT('',(-14.9011860822515,81.3191684569458,-63.5194946235335));
#1433=CARTESIAN_POINT('',(-15.9011860822459,81.319168441709,-63.5194946235334));
#1434=CARTESIAN_POINT('',(-10.9011860822518,81.3191684569458,-66.0194946235339));
#1435=CARTESIAN_POINT('',(-10.9011860822538,81.3191684554271,-74.3111277828764));
#1436=CARTESIAN_POINT('',(-14.9011860822517,81.3191684569458,-66.0194946235335));
#1437=CARTESIAN_POINT('',(-13.9011860822462,81.3191684448869,-66.0194946235336));
#1438=CARTESIAN_POINT('',(-14.9011860822539,81.319168457016,-75.561127782876));
#1439=CARTESIAN_POINT('',(-10.9011860822535,81.3191684569458,-71.016368668442));
#1440=CARTESIAN_POINT('',(-14.9011860822534,81.3191684569458,-71.0163686684416));
#1441=CARTESIAN_POINT('',(-15.9011860822473,81.3191684512389,-71.0163686684415));
#1442=CARTESIAN_POINT('',(-10.9011860822537,81.3191684569458,-73.5163686684419));
#1443=CARTESIAN_POINT('',(-10.9011860822538,81.3191684554271,-74.3111277828764));
#1444=CARTESIAN_POINT('',(-14.9011860822537,81.3191684569458,-73.5163686684415));
#1445=CARTESIAN_POINT('',(-13.9011860822476,81.3191684544168,-73.5163686684416));
#1446=CARTESIAN_POINT('',(-14.9011860822539,81.319168457016,-75.561127782876));
#1447=CARTESIAN_POINT('',(-10.9126005829401,81.319168446474,-68.5178868268542));
#1448=CARTESIAN_POINT('Origin',(-9.66260058294008,81.3191684480628,-68.5178868268542));
#1449=CARTESIAN_POINT('',(-10.9126005829422,81.3191684816403,-96.2938519874726));
#1450=CARTESIAN_POINT('Origin',(-9.66260058294221,81.319168483371,-96.2938519874727));
#1451=CARTESIAN_POINT('Origin',(-16.9011860822554,90.2001686997791,-103.341025487826));
#1452=CARTESIAN_POINT('',(-16.9011860822555,99.2191678962844,-57.4058868240711));
#1453=CARTESIAN_POINT('',(-16.9011860822555,91.7851687856704,-57.4058868399891));
#1454=CARTESIAN_POINT('',(-16.9011860822554,99.2191679422936,-107.405852907447));
#1455=CARTESIAN_POINT('',(-16.9011860822554,99.2191682627244,-91.6332391886696));
#1456=CARTESIAN_POINT('',(-16.9011860822554,83.3191684974964,-107.405852921191));
#1457=CARTESIAN_POINT('',(-16.9011860822554,91.7851688316796,-107.405852910429));
#1458=CARTESIAN_POINT('',(-16.9011860822554,83.5232116934638,-107.60989611664));
#1459=CARTESIAN_POINT('Origin',(-15.35068608225,82.3191684962252,-106.405852922462));
#1460=CARTESIAN_POINT('',(-11.0011860822565,83.3191684974964,-107.405852921191));
#1461=CARTESIAN_POINT('',(-11.0011860822563,86.7941909092735,-110.880875324134));
#1462=CARTESIAN_POINT('',(-15.3506860822501,83.3191684974964,-107.405852921191));
#1463=CARTESIAN_POINT('Origin',(-13.8001860822564,93.3701689360488,-107.405852908414));
#1464=CARTESIAN_POINT('',(-11.0011860822557,99.2191679422935,-107.405852935621));
#1465=CARTESIAN_POINT('',(-15.3506860821379,99.219168282775,-107.405852900979));
#1466=CARTESIAN_POINT('',(-11.0011860822558,96.2947135141711,-107.405852904697));
#1467=CARTESIAN_POINT('Origin',(-10.9011860822537,81.3191684569458,-73.5163686684419));
#1468=CARTESIAN_POINT('',(-14.9011860822537,99.2191682075566,-73.5163686684415));
#1469=CARTESIAN_POINT('',(-10.9011860822537,99.2191682075566,-73.5163686684419));
#1470=CARTESIAN_POINT('',(-13.9011860821337,99.2191682075566,-73.5163686684416));
#1471=CARTESIAN_POINT('',(-14.9011860822537,81.3191684569458,-73.5163686684415));
#1472=CARTESIAN_POINT('',(-10.9011860822537,81.3191684569458,-73.5163686684419));
#1473=CARTESIAN_POINT('Origin',(-9.66260058293953,91.6192584272468,-68.5178868268537));
#1474=CARTESIAN_POINT('',(-10.9126005829391,99.2191681988989,-68.5178868268533));
#1475=CARTESIAN_POINT('Origin',(-9.66260058293912,99.2191681988989,-68.5178868268534));
#1476=CARTESIAN_POINT('',(-10.9126005829395,91.6192584272469,-68.5178868268537));
#1477=CARTESIAN_POINT('Origin',(-16.9011860820193,99.2191682799783,-130.486252900979));
#1478=CARTESIAN_POINT('',(-11.0011860822557,99.2191682813766,-106.3058529183));
#1479=CARTESIAN_POINT('',(-11.0011860822558,99.2191678962843,-57.4058867958975));
#1480=CARTESIAN_POINT('',(-15.350686082138,99.2191682367658,-57.4058868305393));
#1481=CARTESIAN_POINT('',(-11.0011860822559,99.2191682381641,-58.5058868132187));
#1482=CARTESIAN_POINT('',(-0.601186082228455,99.2191682597741,-75.5058868745575));
#1483=CARTESIAN_POINT('',(-0.601186082228384,99.2191682452827,-64.1058868377075));
#1484=CARTESIAN_POINT('',(-11.3511860821259,99.2191682100855,-75.5058868745568));
#1485=CARTESIAN_POINT('',(-0.601186082225949,99.2191682597658,-89.3058528569624));
#1486=CARTESIAN_POINT('',(-11.3511860821261,99.2191682597658,-89.3058528569617));
#1487=CARTESIAN_POINT('',(-0.601186082226188,99.2191682645964,-93.1058528569624));
#1488=CARTESIAN_POINT('',(-10.9126005829413,99.2191682388154,-96.2938519874717));
#1489=CARTESIAN_POINT('Origin',(-9.66260058294126,99.2191682388154,-96.2938519874719));
#1490=CARTESIAN_POINT('',(-10.9011860822516,99.2191681948483,-63.5194946235339));
#1491=CARTESIAN_POINT('',(-14.9011860822515,99.2191681948483,-63.5194946235335));
#1492=CARTESIAN_POINT('',(-15.9011860821317,99.2191681948483,-63.5194946235334));
#1493=CARTESIAN_POINT('',(-14.9011860822517,99.2191681980264,-66.0194946235334));
#1494=CARTESIAN_POINT('',(-14.9011860822552,99.2191682390023,-98.2528737508786));
#1495=CARTESIAN_POINT('',(-10.9011860822518,99.2191681980264,-66.0194946235339));
#1496=CARTESIAN_POINT('',(-13.901186082132,99.2191681980264,-66.0194946235335));
#1497=CARTESIAN_POINT('',(-10.9011860822547,99.2191682374133,-97.002873750879));
#1498=CARTESIAN_POINT('',(-10.9011860822535,99.2191682043785,-71.016368668442));
#1499=CARTESIAN_POINT('',(-10.9011860822567,99.2191682421784,-100.751310773333));
#1500=CARTESIAN_POINT('',(-14.9011860822534,99.2191682043785,-71.0163686684416));
#1501=CARTESIAN_POINT('',(-15.9011860821334,99.2191682043785,-71.0163686684415));
#1502=CARTESIAN_POINT('',(-14.9011860822564,99.2191682437674,-102.001310773333));
#1503=CARTESIAN_POINT('Origin',(-9.66260058294166,91.6192584272483,-96.2938519874722));
#1504=CARTESIAN_POINT('',(-10.9126005829417,91.6192584272484,-96.2938519874721));
#1505=CARTESIAN_POINT('Origin',(-4.55118608224193,98.1191682492737,-91.3058528583605));
#1506=CARTESIAN_POINT('',(-0.601186082226207,96.1191682492735,-91.3058528609031));
#1507=CARTESIAN_POINT('',(-0.601186082226238,98.119168246731,-89.3058528583607));
#1508=CARTESIAN_POINT('Origin',(-0.601186082226465,98.1191682492734,-91.3058528583607));
#1509=CARTESIAN_POINT('',(-4.5511860822418,98.1191682467312,-89.3058528583605));
#1510=CARTESIAN_POINT('',(-4.55118608224204,96.1191682492737,-91.3058528609029));
#1511=CARTESIAN_POINT('Origin',(-0.601186082227175,90.9941678600349,-96.2058528971001));
#1512=CARTESIAN_POINT('',(-0.60118608222632,96.1191682515617,-93.1058528609032));
#1513=CARTESIAN_POINT('',(-0.60118608222632,96.1191682515617,-93.1058528609032));
#1514=CARTESIAN_POINT('',(-0.601186082225653,96.1191682679241,-99.5415281965642));
#1515=CARTESIAN_POINT('',(-0.60118608222663,96.1191682529016,-93.6328843688424));
#1516=CARTESIAN_POINT('',(-0.601186082227603,96.1158312285696,-99.5428309942408));
#1517=CARTESIAN_POINT('Origin',(-0.601186082226934,94.619167475461,-95.7042899158643));
#1518=CARTESIAN_POINT('',(-0.601186082227844,96.1158312332261,-103.205852342408));
#1519=CARTESIAN_POINT('',(-0.601186082226558,90.6316681048082,-89.305852867879));
#1520=CARTESIAN_POINT('Origin',(-3.30118608225053,96.1191682515618,-93.105852860903));
#1521=CARTESIAN_POINT('',(-3.30118608225053,96.1191682515618,-93.105852860903));
#1522=CARTESIAN_POINT('',(-3.30118608225035,96.1191682441303,-90.182884355354));
#1523=CARTESIAN_POINT('',(-4.10118608226897,96.1191682515619,-93.1058528609029));
#1524=CARTESIAN_POINT('Origin',(-3.20118608223205,98.1191682444514,-73.5058868759556));
#1525=CARTESIAN_POINT('',(-0.601186082228741,98.1191682469936,-75.5058868759558));
#1526=CARTESIAN_POINT('',(-0.601186082228439,96.1191682444512,-73.5058868784982));
#1527=CARTESIAN_POINT('Origin',(-0.601186082228692,98.1191682444512,-73.5058868759558));
#1528=CARTESIAN_POINT('',(-3.20118608223216,96.1191682444514,-73.505886878498));
#1529=CARTESIAN_POINT('',(-3.20118608223219,98.1191682469937,-75.5058868759556));
#1530=CARTESIAN_POINT('Origin',(-5.80118608223636,90.2691683583614,-75.5058868859342));
#1531=CARTESIAN_POINT('',(-0.601186082229061,90.6316681048165,-75.5058868854738));
#1532=CARTESIAN_POINT('Origin',(-5.80118608223386,90.2691683583531,-89.3058528683395));
#1533=CARTESIAN_POINT('Origin',(-0.601186082228302,96.1191682419089,-71.5058868784982));
#1534=CARTESIAN_POINT('',(-0.601186082228302,96.1191682419089,-71.5058868784982));
#1535=CARTESIAN_POINT('',(-0.601186082228302,96.1191682419089,-71.5058868784982));
#1536=CARTESIAN_POINT('',(-3.30118608224771,96.119168241909,-71.505886878498));
#1537=CARTESIAN_POINT('',(-4.10118608227094,96.1191682419091,-71.5058868784979));
#1538=CARTESIAN_POINT('',(-3.30118608224792,96.1191682419089,-74.6288553801719));
#1539=CARTESIAN_POINT('Origin',(-4.90118608230392,94.6191674754613,-95.704289915864));
#1540=CARTESIAN_POINT('',(-7.10118608225019,93.1191682575434,-95.4585210278599));
#1541=CARTESIAN_POINT('Ctrl Pts',(-7.10118608225019,93.1191682577034,-95.4585210303281));
#1542=CARTESIAN_POINT('Ctrl Pts',(-6.89279152063576,93.1191682563926,-94.9429802298761));
#1543=CARTESIAN_POINT('Ctrl Pts',(-4.24272222727331,93.1191682525483,-93.4310015151741));
#1544=CARTESIAN_POINT('Ctrl Pts',(-0.601186071823554,93.1191682485718,-91.8670510474534));
#1545=CARTESIAN_POINT('',(-7.10118608225,96.1191682575436,-95.4585305746003));
#1546=CARTESIAN_POINT('Origin',(-7.10118608224999,94.6191674754614,-95.7042899158638));
#1547=CARTESIAN_POINT('Ctrl Pts',(-7.10118608225023,96.1191682577001,-95.4585305788775));
#1548=CARTESIAN_POINT('Ctrl Pts',(-6.8927981900329,96.1191682563893,-94.9429862316137));
#1549=CARTESIAN_POINT('Ctrl Pts',(-4.80405918384098,96.1191682533593,-93.7512696096815));
#1550=CARTESIAN_POINT('Ctrl Pts',(-3.30118608225053,96.119168251602,-93.0601269967189));
#1551=CARTESIAN_POINT('Origin',(-2.40118608230404,96.1191682463601,-91.0599158536145));
#1552=CARTESIAN_POINT('',(-7.10118608225026,96.1191682589497,-95.9500492451234));
#1553=CARTESIAN_POINT('',(-7.10118608224924,96.1191682182125,-79.9889384969429));
#1554=CARTESIAN_POINT('Ctrl Pts',(-0.601186071817989,96.1191682680806,-99.5415281723308));
#1555=CARTESIAN_POINT('Ctrl Pts',(-2.66757332554398,96.1191682658244,-98.6540653847843));
#1556=CARTESIAN_POINT('Ctrl Pts',(-5.92974473131316,96.1191682618884,-97.1059140074385));
#1557=CARTESIAN_POINT('Ctrl Pts',(-6.99188323302319,96.1191682596372,-96.2204606661483));
#1558=CARTESIAN_POINT('Ctrl Pts',(-7.10118608225026,96.1191682589497,-95.9500492451234));
#1559=CARTESIAN_POINT('Origin',(-6.63818608225526,90.269258633722,-98.105851935622));
#1560=CARTESIAN_POINT('',(-6.63818608225533,89.019258633722,-93.105851935622));
#1561=CARTESIAN_POINT('',(-6.63818608225533,89.019258633722,-98.105851935622));
#1562=CARTESIAN_POINT('Origin',(-6.63818608225528,90.269258633722,-93.105851935622));
#1563=CARTESIAN_POINT('Origin',(-6.63818608225528,90.269258633722,-93.105851935622));
#1564=CARTESIAN_POINT('Origin',(-11.0011860822557,99.2192580922935,-107.405852935621));
#1565=CARTESIAN_POINT('Origin',(-7.10118608224841,87.7251687016851,-68.9179611616129));
#1566=CARTESIAN_POINT('',(-7.10118608225022,93.1191682589531,-95.9500588090892));
#1567=CARTESIAN_POINT('',(-7.10118608224908,93.119168213601,-78.1751371387482));
#1568=CARTESIAN_POINT('Origin',(-7.10118608224999,94.6191674754614,-95.7042899158638));
#1569=CARTESIAN_POINT('Origin',(-0.501186082228479,94.6191682607195,-89.20585286281));
#1570=CARTESIAN_POINT('Ctrl Pts',(-0.601186082227738,93.1225053191504,-99.5428316168388));
#1571=CARTESIAN_POINT('Ctrl Pts',(-0.640239558453441,93.1251146892696,-99.5270822026026));
#1572=CARTESIAN_POINT('Ctrl Pts',(-0.679081833113074,93.1292478279957,-99.5120144186494));
#1573=CARTESIAN_POINT('Ctrl Pts',(-0.879467834688574,93.1584550277607,-99.4373708159611));
#1574=CARTESIAN_POINT('Ctrl Pts',(-1.05355135989886,93.2127424348611,-99.3843501027315));
#1575=CARTESIAN_POINT('Ctrl Pts',(-1.3739389112393,93.3857004815481,-99.3107060919505));
#1576=CARTESIAN_POINT('Ctrl Pts',(-1.52000543836306,93.5045825572425,-99.2895474457514));
#1577=CARTESIAN_POINT('Ctrl Pts',(-1.74582103893613,93.7647980962044,-99.2674440682951));
#1578=CARTESIAN_POINT('Ctrl Pts',(-1.84249014423896,93.9233373096048,-99.2643413049435));
#1579=CARTESIAN_POINT('Ctrl Pts',(-1.97017149915312,94.2651073169749,-99.2631204508511));
#1580=CARTESIAN_POINT('Ctrl Pts',(-2.00118606919377,94.4483343279761,-99.264289953912));
#1581=CARTESIAN_POINT('Ctrl Pts',(-2.00118609526297,94.7900019941693,-99.2642898778769));
#1582=CARTESIAN_POINT('Ctrl Pts',(-1.97017155184345,94.9732290135107,-99.2631202931243));
#1583=CARTESIAN_POINT('Ctrl Pts',(-1.8424902435869,95.3149990469629,-99.2643409904349));
#1584=CARTESIAN_POINT('Ctrl Pts',(-1.74582115835373,95.4735382784462,-99.2674436784491));
#1585=CARTESIAN_POINT('Ctrl Pts',(-1.52000559134058,95.7337538490395,-99.2895469295632));
#1586=CARTESIAN_POINT('Ctrl Pts',(-1.37393908442231,95.8526359424364,-99.3107055150927));
#1587=CARTESIAN_POINT('Ctrl Pts',(-1.05355156512301,96.0255940313221,-99.3843494359275));
#1588=CARTESIAN_POINT('Ctrl Pts',(-0.879468051694982,96.0798814628251,-99.4373701202966));
#1589=CARTESIAN_POINT('Ctrl Pts',(-0.717532349326113,96.1034843764953,-99.4976910116905));
#1590=CARTESIAN_POINT('Ctrl Pts',(-0.679081985101097,96.1090887034851,-99.5120137349105));
#1591=CARTESIAN_POINT('Ctrl Pts',(-0.640239634607681,96.1132218533221,-99.5270815478398));
#1592=CARTESIAN_POINT('Ctrl Pts',(-0.601186082227367,96.1158312285696,-99.5428309942408));
#1593=CARTESIAN_POINT('Origin',(-0.900843637238981,93.119168237137,-87.4323131295979));
#1594=CARTESIAN_POINT('Ctrl Pts',(-0.601186071849465,93.1191682680839,-99.5415287919564));
#1595=CARTESIAN_POINT('Ctrl Pts',(-2.66758333626476,93.1191682658277,-98.6540618466273));
#1596=CARTESIAN_POINT('Ctrl Pts',(-5.92975486242647,93.1191682618918,-97.1059098824793));
#1597=CARTESIAN_POINT('Ctrl Pts',(-6.99188136594946,93.1191682596406,-96.2204643345423));
#1598=CARTESIAN_POINT('Ctrl Pts',(-7.10118608225022,93.1191682589531,-95.9500588090892));
#1599=CARTESIAN_POINT('Origin',(-4.90118608230392,94.6191674754613,-95.704289915864));
#1600=CARTESIAN_POINT('Origin',(-10.9011860822518,81.3191684569458,-66.0194946235339));
#1601=CARTESIAN_POINT('',(-14.9011860822517,81.3191684569458,-66.0194946235335));
#1602=CARTESIAN_POINT('',(-10.9011860822518,81.3191684569458,-66.0194946235339));
#1603=CARTESIAN_POINT('Origin',(-10.9011860822535,81.3191684569458,-71.016368668442));
#1604=CARTESIAN_POINT('',(-10.9011860822516,81.3191684569458,-63.5194946235339));
#1605=CARTESIAN_POINT('Origin',(-14.9011860822515,81.3191684569458,-63.5194946235335));
#1606=CARTESIAN_POINT('',(-14.9011860822515,81.3191684569458,-63.5194946235335));
#1607=CARTESIAN_POINT('Origin',(-14.9011860822537,81.3191684569458,-73.5163686684415));
#1608=CARTESIAN_POINT('Origin',(-14.9011860822537,81.3191684569458,-73.5163686684415));
#1609=CARTESIAN_POINT('',(-14.9011860822534,81.3191684569458,-71.0163686684416));
#1610=CARTESIAN_POINT('Origin',(-10.9011860822535,81.3191684569458,-71.016368668442));
#1611=CARTESIAN_POINT('',(-10.9011860822535,81.3191684569458,-71.016368668442));
#1612=CARTESIAN_POINT('Origin',(-14.9011860822534,81.3191684569458,-71.0163686684416));
#1613=CARTESIAN_POINT('Origin',(-7.10118608224843,87.7251687016851,-94.198361161613));
#1614=CARTESIAN_POINT('',(-7.10118608224694,96.1191682420653,-69.3532091594407));
#1615=CARTESIAN_POINT('',(-7.10118608224659,96.1191682419094,-68.8616904898881));
#1616=CARTESIAN_POINT('',(-7.10118608224788,96.1191682419083,-83.9750925237));
#1617=CARTESIAN_POINT('',(-7.10118608224687,93.1191682417736,-68.8616809407825));
#1618=CARTESIAN_POINT('Origin',(-7.10118608224658,94.6191674592023,-69.1074498273503));
#1619=CARTESIAN_POINT('',(-7.10118608224658,93.1191682419094,-69.3532187191825));
#1620=CARTESIAN_POINT('',(-7.10118608224796,93.1191682419082,-85.7888938895219));
#1621=CARTESIAN_POINT('Origin',(-7.10118608224658,94.6191674592023,-69.1074498273503));
#1622=CARTESIAN_POINT('Origin',(-13.8001860822565,93.3701688900396,-57.4058868379745));
#1623=CARTESIAN_POINT('',(-11.0011860822559,96.2947134681619,-57.4058868342571));
#1624=CARTESIAN_POINT('Origin',(-11.0011860822557,99.2192580922935,-107.405852935621));
#1625=CARTESIAN_POINT('Origin',(-4.90118608230558,94.6191674592022,-69.1074498273504));
#1626=CARTESIAN_POINT('',(-0.601186082226786,96.1191682419092,-65.2702115428372));
#1627=CARTESIAN_POINT('Ctrl Pts',(-7.10118608224691,96.1191682420654,-68.8616904951991));
#1628=CARTESIAN_POINT('Ctrl Pts',(-6.89279818857421,96.1191682420654,-68.3461461463328));
#1629=CARTESIAN_POINT('Ctrl Pts',(-4.24272187609667,96.1191682420653,-66.834162140331));
#1630=CARTESIAN_POINT('Ctrl Pts',(-0.601186068853122,96.1191682420652,-65.2702115739766));
#1631=CARTESIAN_POINT('',(-0.60118608222874,96.1158312025514,-65.268908745169));
#1632=CARTESIAN_POINT('Origin',(-0.601186082228597,94.6191674592019,-69.1074498273507));
#1633=CARTESIAN_POINT('Ctrl Pts',(-0.601186082228873,93.1225052931321,-65.2689081301813));
#1634=CARTESIAN_POINT('Ctrl Pts',(-0.640239558454585,93.1251146632914,-65.2846575444108));
#1635=CARTESIAN_POINT('Ctrl Pts',(-0.679081833114221,93.1292478020558,-65.2997253283535));
#1636=CARTESIAN_POINT('Ctrl Pts',(-0.87946783468972,93.1584550020106,-65.3743689309675));
#1637=CARTESIAN_POINT('Ctrl Pts',(-1.05355135990003,93.2127424092458,-65.4273896440591));
#1638=CARTESIAN_POINT('Ctrl Pts',(-1.37393891124047,93.38570045612,-65.5010336544003));
#1639=CARTESIAN_POINT('Ctrl Pts',(-1.52000543836426,93.5045825318682,-65.5221923002972));
#1640=CARTESIAN_POINT('Ctrl Pts',(-1.74582103893732,93.7647980708863,-65.5442956770918));
#1641=CARTESIAN_POINT('Ctrl Pts',(-1.84249014424013,93.9233372842946,-65.5473984400403));
#1642=CARTESIAN_POINT('Ctrl Pts',(-1.97017149915432,94.2651072916679,-65.5486192932638));
#1643=CARTESIAN_POINT('Ctrl Pts',(-2.00118606919494,94.4483343026661,-65.5474497897371));
#1644=CARTESIAN_POINT('Ctrl Pts',(-2.00118609526413,94.7900019688593,-65.5474498649035));
#1645=CARTESIAN_POINT('Ctrl Pts',(-1.97017155184465,94.9732289882037,-65.5486194491903));
#1646=CARTESIAN_POINT('Ctrl Pts',(-1.84249024358808,95.3149990216527,-65.5473987510108));
#1647=CARTESIAN_POINT('Ctrl Pts',(-1.74582115835491,95.4735382531281,-65.5442960625935));
#1648=CARTESIAN_POINT('Ctrl Pts',(-1.52000559134176,95.7337538236652,-65.522192810818));
#1649=CARTESIAN_POINT('Ctrl Pts',(-1.3739390844235,95.8526359170083,-65.5010342249862));
#1650=CARTESIAN_POINT('Ctrl Pts',(-1.05355156512417,96.0255940057068,-65.4273903037117));
#1651=CARTESIAN_POINT('Ctrl Pts',(-0.879468051696133,96.079881437075,-65.3743696192046));
#1652=CARTESIAN_POINT('Ctrl Pts',(-0.717532349327268,96.1034843505918,-65.3140487277507));
#1653=CARTESIAN_POINT('Ctrl Pts',(-0.679081985102241,96.1090886775452,-65.2997260045164));
#1654=CARTESIAN_POINT('Ctrl Pts',(-0.640239634608827,96.1132218273439,-65.2846581915766));
#1655=CARTESIAN_POINT('Ctrl Pts',(-0.601186082228504,96.1158312025514,-65.268908745169));
#1656=CARTESIAN_POINT('Ctrl Pts',(-7.10118608224687,93.1191682417736,-68.8616809407825));
#1657=CARTESIAN_POINT('Ctrl Pts',(-6.8927915203076,93.1191682417736,-68.3461401379565));
#1658=CARTESIAN_POINT('Ctrl Pts',(-4.24272220237837,93.1191682417735,-66.8341614196998));
#1659=CARTESIAN_POINT('Ctrl Pts',(-0.601186068606112,93.1191682417734,-65.2702109626267));
#1660=CARTESIAN_POINT('Origin',(-2.40118608230629,96.1191682419089,-73.7518238857866));
#1661=CARTESIAN_POINT('',(-0.601186082228544,96.1191682419089,-71.178855370559));
#1662=CARTESIAN_POINT('Ctrl Pts',(-3.30118608224772,96.119168242065,-71.7516127355616));
#1663=CARTESIAN_POINT('Ctrl Pts',(-3.63559821528285,96.119168242065,-71.5978229878547));
#1664=CARTESIAN_POINT('Ctrl Pts',(-5.92974477927408,96.1191682420652,-70.5090738908666));
#1665=CARTESIAN_POINT('Ctrl Pts',(-6.99188323722624,96.1191682420653,-69.6236205690112));
#1666=CARTESIAN_POINT('Ctrl Pts',(-7.10118608224694,96.1191682420653,-69.3532091594407));
#1667=CARTESIAN_POINT('Origin',(-0.601186082228757,90.9941678425007,-68.6058868553311));
#1668=CARTESIAN_POINT('',(-0.601186082228509,96.115831197895,-61.605887397002));
#1669=CARTESIAN_POINT('Origin',(-0.900843637241699,93.1191682419086,-77.3794266174307));
#1670=CARTESIAN_POINT('Ctrl Pts',(-7.1011860822469,93.1191682417735,-69.3532187138722));
#1671=CARTESIAN_POINT('Ctrl Pts',(-6.89279152030769,93.1191682417735,-69.8687595166983));
#1672=CARTESIAN_POINT('Ctrl Pts',(-4.2427222023756,93.1191682417732,-71.380738234957));
#1673=CARTESIAN_POINT('Ctrl Pts',(-0.601186068588129,93.119168241773,-72.9446886920367));
#1674=CARTESIAN_POINT('Origin',(-0.501186082230998,94.6191682609821,-75.605886880405));
#1675=CARTESIAN_POINT('Origin',(-6.63818608225066,90.2692585436171,-71.705887403734));
#1676=CARTESIAN_POINT('',(-6.63818608225059,91.5192585436171,-71.705887403734));
#1677=CARTESIAN_POINT('Origin',(-6.63818608225066,90.2692585436171,-71.705887403734));
#1678=CARTESIAN_POINT('Origin',(-6.63818608225066,90.2692585436171,-66.705887403734));
#1679=CARTESIAN_POINT('',(-6.63818608225059,91.5192585436171,-66.705887403734));
#1680=CARTESIAN_POINT('Origin',(-4.90118608230558,94.6191674592022,-69.1074498273504));
#1681=UNCERTAINTY_MEASURE_WITH_UNIT(LENGTH_MEASURE(0.01),#1685,
'DISTANCE_ACCURACY_VALUE',
'Maximum model space distance between geometric entities at asserted c
onnectivities');
#1682=UNCERTAINTY_MEASURE_WITH_UNIT(LENGTH_MEASURE(0.01),#1685,
'DISTANCE_ACCURACY_VALUE',
'Maximum model space distance between geometric entities at asserted c
onnectivities');
#1683=(
GEOMETRIC_REPRESENTATION_CONTEXT(3)
GLOBAL_UNCERTAINTY_ASSIGNED_CONTEXT((#1681))
GLOBAL_UNIT_ASSIGNED_CONTEXT((#1685,#1687,#1688))
REPRESENTATION_CONTEXT('','3D')
);
#1684=(
GEOMETRIC_REPRESENTATION_CONTEXT(3)
GLOBAL_UNCERTAINTY_ASSIGNED_CONTEXT((#1682))
GLOBAL_UNIT_ASSIGNED_CONTEXT((#1685,#1687,#1688))
REPRESENTATION_CONTEXT('','3D')
);
#1685=(
LENGTH_UNIT()
NAMED_UNIT(*)
SI_UNIT(.MILLI.,.METRE.)
);
#1686=(
LENGTH_UNIT()
NAMED_UNIT(*)
SI_UNIT($,.METRE.)
);
#1687=(
NAMED_UNIT(*)
PLANE_ANGLE_UNIT()
SI_UNIT($,.RADIAN.)
);
#1688=(
NAMED_UNIT(*)
SI_UNIT($,.STERADIAN.)
SOLID_ANGLE_UNIT()
);
#1689=SHAPE_DEFINITION_REPRESENTATION(#1690,#1691);
#1690=PRODUCT_DEFINITION_SHAPE('',$,#1693);
#1691=SHAPE_REPRESENTATION('',(#990),#1683);
#1692=PRODUCT_DEFINITION_CONTEXT('part definition',#1697,'design');
#1693=PRODUCT_DEFINITION('2026-06-23-13-26-36-263',
'carriage-bottom-right',#1694,#1692);
#1694=PRODUCT_DEFINITION_FORMATION('',$,#1699);
#1695=PRODUCT_RELATED_PRODUCT_CATEGORY('carriage-bottom-right',
'carriage-bottom-right',(#1699));
#1696=APPLICATION_PROTOCOL_DEFINITION('international standard',
'automotive_design',2009,#1697);
#1697=APPLICATION_CONTEXT(
'Core Data for Automotive Mechanical Design Process');
#1698=PRODUCT_CONTEXT('part definition',#1697,'mechanical');
#1699=PRODUCT('2026-06-23-13-26-36-263','carriage-bottom-right',$,(#1698));
#1700=PRESENTATION_STYLE_ASSIGNMENT((#1702));
#1701=PRESENTATION_STYLE_ASSIGNMENT((#1703));
#1702=SURFACE_STYLE_USAGE(.BOTH.,#1704);
#1703=SURFACE_STYLE_USAGE(.BOTH.,#1705);
#1704=SURFACE_SIDE_STYLE('',(#1706));
#1705=SURFACE_SIDE_STYLE('',(#1707));
#1706=SURFACE_STYLE_FILL_AREA(#1708);
#1707=SURFACE_STYLE_FILL_AREA(#1709);
#1708=FILL_AREA_STYLE('Steel - Satin',(#1710));
#1709=FILL_AREA_STYLE('ABS (White)',(#1711));
#1710=FILL_AREA_STYLE_COLOUR('Steel - Satin',#1712);
#1711=FILL_AREA_STYLE_COLOUR('ABS (White)',#1713);
#1712=COLOUR_RGB('Steel - Satin',0.627450980392157,0.627450980392157,0.627450980392157);
#1713=COLOUR_RGB('ABS (White)',0.964705882352941,0.964705882352941,0.952941176470588);
ENDSEC;
END-ISO-10303-21;
