ISO-10303-21;
HEADER;
/* Generated by software containing ST-Developer
 * from STEP Tools, Inc. (www.steptools.com) 
 */

FILE_DESCRIPTION(
/* description */ (''),
/* implementation_level */ '2;1');

FILE_NAME(
/* name */ 'carriage-top-left.step',
/* time_stamp */ '2026-06-23T13:22:46-07:00',
/* author */ (''),
/* organization */ (''),
/* preprocessor_version */ 'ST-DEVELOPER v20.1',
/* originating_system */ 'Autodesk Translation Framework v15.8.0.0',
/* authorisation */ '');

FILE_SCHEMA (('AUTOMOTIVE_DESIGN { 1 0 10303 214 3 1 1 }'));
ENDSEC;

DATA;
#10=MECHANICAL_DESIGN_GEOMETRIC_PRESENTATION_REPRESENTATION('',(#13),#1412);
#11=SHAPE_REPRESENTATION_RELATIONSHIP('SRR','None',#1419,#12);
#12=ADVANCED_BREP_SHAPE_REPRESENTATION('',(#14),#1411);
#13=STYLED_ITEM('',(#1429),#14);
#14=MANIFOLD_SOLID_BREP('Body2',#833);
#15=ELLIPSE('',#878,4.24264068716492,3.00000000000001);
#16=CYLINDRICAL_SURFACE('',#854,1.99999999999999);
#17=CYLINDRICAL_SURFACE('',#855,2.7);
#18=CYLINDRICAL_SURFACE('',#886,3.00000000000001);
#19=CYLINDRICAL_SURFACE('',#897,1.7);
#20=CYLINDRICAL_SURFACE('',#901,2.75);
#21=CYLINDRICAL_SURFACE('',#902,1.5);
#22=CYLINDRICAL_SURFACE('',#903,2.);
#23=CYLINDRICAL_SURFACE('',#912,1.7);
#24=CYLINDRICAL_SURFACE('',#913,1.25);
#25=CYLINDRICAL_SURFACE('',#914,2.75);
#26=CYLINDRICAL_SURFACE('',#915,1.49999999999999);
#27=FACE_BOUND('',#117,.T.);
#28=FACE_BOUND('',#118,.T.);
#29=FACE_BOUND('',#123,.T.);
#30=FACE_BOUND('',#124,.T.);
#31=FACE_BOUND('',#141,.T.);
#32=FACE_BOUND('',#142,.T.);
#33=FACE_BOUND('',#143,.T.);
#34=FACE_BOUND('',#148,.T.);
#35=FACE_BOUND('',#149,.T.);
#36=FACE_BOUND('',#150,.T.);
#37=FACE_BOUND('',#154,.T.);
#38=FACE_BOUND('',#158,.T.);
#39=FACE_BOUND('',#166,.T.);
#40=PLANE('',#849);
#41=PLANE('',#857);
#42=PLANE('',#858);
#43=PLANE('',#862);
#44=PLANE('',#863);
#45=PLANE('',#865);
#46=PLANE('',#866);
#47=PLANE('',#867);
#48=PLANE('',#868);
#49=PLANE('',#869);
#50=PLANE('',#870);
#51=PLANE('',#871);
#52=PLANE('',#872);
#53=PLANE('',#873);
#54=PLANE('',#874);
#55=PLANE('',#877);
#56=PLANE('',#879);
#57=PLANE('',#880);
#58=PLANE('',#881);
#59=PLANE('',#884);
#60=PLANE('',#885);
#61=PLANE('',#888);
#62=PLANE('',#892);
#63=PLANE('',#893);
#64=PLANE('',#894);
#65=PLANE('',#896);
#66=PLANE('',#899);
#67=PLANE('',#906);
#68=PLANE('',#907);
#69=PLANE('',#908);
#70=PLANE('',#911);
#71=FACE_OUTER_BOUND('',#115,.T.);
#72=FACE_OUTER_BOUND('',#116,.T.);
#73=FACE_OUTER_BOUND('',#119,.T.);
#74=FACE_OUTER_BOUND('',#120,.T.);
#75=FACE_OUTER_BOUND('',#121,.T.);
#76=FACE_OUTER_BOUND('',#122,.T.);
#77=FACE_OUTER_BOUND('',#125,.T.);
#78=FACE_OUTER_BOUND('',#126,.T.);
#79=FACE_OUTER_BOUND('',#127,.T.);
#80=FACE_OUTER_BOUND('',#128,.T.);
#81=FACE_OUTER_BOUND('',#129,.T.);
#82=FACE_OUTER_BOUND('',#130,.T.);
#83=FACE_OUTER_BOUND('',#131,.T.);
#84=FACE_OUTER_BOUND('',#132,.T.);
#85=FACE_OUTER_BOUND('',#133,.T.);
#86=FACE_OUTER_BOUND('',#134,.T.);
#87=FACE_OUTER_BOUND('',#135,.T.);
#88=FACE_OUTER_BOUND('',#136,.T.);
#89=FACE_OUTER_BOUND('',#137,.T.);
#90=FACE_OUTER_BOUND('',#138,.T.);
#91=FACE_OUTER_BOUND('',#139,.T.);
#92=FACE_OUTER_BOUND('',#140,.T.);
#93=FACE_OUTER_BOUND('',#144,.T.);
#94=FACE_OUTER_BOUND('',#145,.T.);
#95=FACE_OUTER_BOUND('',#146,.T.);
#96=FACE_OUTER_BOUND('',#147,.T.);
#97=FACE_OUTER_BOUND('',#151,.T.);
#98=FACE_OUTER_BOUND('',#152,.T.);
#99=FACE_OUTER_BOUND('',#153,.T.);
#100=FACE_OUTER_BOUND('',#155,.T.);
#101=FACE_OUTER_BOUND('',#156,.T.);
#102=FACE_OUTER_BOUND('',#157,.T.);
#103=FACE_OUTER_BOUND('',#159,.T.);
#104=FACE_OUTER_BOUND('',#160,.T.);
#105=FACE_OUTER_BOUND('',#161,.T.);
#106=FACE_OUTER_BOUND('',#162,.T.);
#107=FACE_OUTER_BOUND('',#163,.T.);
#108=FACE_OUTER_BOUND('',#164,.T.);
#109=FACE_OUTER_BOUND('',#165,.T.);
#110=FACE_OUTER_BOUND('',#167,.T.);
#111=FACE_OUTER_BOUND('',#168,.T.);
#112=FACE_OUTER_BOUND('',#169,.T.);
#113=FACE_OUTER_BOUND('',#170,.T.);
#114=FACE_OUTER_BOUND('',#171,.T.);
#115=EDGE_LOOP('',(#559,#560,#561,#562,#563));
#116=EDGE_LOOP('',(#564,#565,#566,#567,#568,#569,#570,#571));
#117=EDGE_LOOP('',(#572));
#118=EDGE_LOOP('',(#573));
#119=EDGE_LOOP('',(#574,#575,#576,#577,#578));
#120=EDGE_LOOP('',(#579,#580,#581,#582));
#121=EDGE_LOOP('',(#583,#584,#585,#586));
#122=EDGE_LOOP('',(#587,#588,#589,#590,#591,#592,#593,#594));
#123=EDGE_LOOP('',(#595));
#124=EDGE_LOOP('',(#596));
#125=EDGE_LOOP('',(#597,#598,#599,#600));
#126=EDGE_LOOP('',(#601));
#127=EDGE_LOOP('',(#602,#603,#604,#605));
#128=EDGE_LOOP('',(#606,#607,#608,#609,#610));
#129=EDGE_LOOP('',(#611,#612,#613,#614,#615,#616,#617,#618,#619,#620));
#130=EDGE_LOOP('',(#621,#622,#623,#624));
#131=EDGE_LOOP('',(#625,#626,#627,#628,#629));
#132=EDGE_LOOP('',(#630,#631,#632,#633));
#133=EDGE_LOOP('',(#634,#635,#636,#637));
#134=EDGE_LOOP('',(#638,#639,#640,#641,#642,#643,#644,#645,#646,#647));
#135=EDGE_LOOP('',(#648,#649,#650,#651));
#136=EDGE_LOOP('',(#652,#653,#654,#655,#656,#657,#658));
#137=EDGE_LOOP('',(#659,#660,#661,#662,#663,#664));
#138=EDGE_LOOP('',(#665,#666,#667,#668));
#139=EDGE_LOOP('',(#669,#670,#671,#672));
#140=EDGE_LOOP('',(#673,#674,#675,#676,#677,#678));
#141=EDGE_LOOP('',(#679));
#142=EDGE_LOOP('',(#680,#681,#682,#683));
#143=EDGE_LOOP('',(#684));
#144=EDGE_LOOP('',(#685,#686,#687,#688));
#145=EDGE_LOOP('',(#689,#690,#691,#692,#693,#694));
#146=EDGE_LOOP('',(#695,#696,#697,#698,#699,#700));
#147=EDGE_LOOP('',(#701,#702,#703,#704,#705,#706));
#148=EDGE_LOOP('',(#707,#708,#709,#710));
#149=EDGE_LOOP('',(#711));
#150=EDGE_LOOP('',(#712));
#151=EDGE_LOOP('',(#713,#714,#715,#716,#717,#718));
#152=EDGE_LOOP('',(#719,#720,#721,#722,#723));
#153=EDGE_LOOP('',(#724,#725,#726,#727,#728,#729));
#154=EDGE_LOOP('',(#730));
#155=EDGE_LOOP('',(#731,#732,#733,#734,#735));
#156=EDGE_LOOP('',(#736,#737,#738,#739));
#157=EDGE_LOOP('',(#740));
#158=EDGE_LOOP('',(#741));
#159=EDGE_LOOP('',(#742,#743,#744,#745));
#160=EDGE_LOOP('',(#746,#747,#748,#749));
#161=EDGE_LOOP('',(#750,#751,#752,#753));
#162=EDGE_LOOP('',(#754,#755,#756,#757));
#163=EDGE_LOOP('',(#758));
#164=EDGE_LOOP('',(#759,#760,#761,#762,#763));
#165=EDGE_LOOP('',(#764));
#166=EDGE_LOOP('',(#765));
#167=EDGE_LOOP('',(#766,#767,#768,#769,#770));
#168=EDGE_LOOP('',(#771,#772,#773,#774));
#169=EDGE_LOOP('',(#775,#776,#777,#778));
#170=EDGE_LOOP('',(#779,#780,#781,#782));
#171=EDGE_LOOP('',(#783,#784,#785,#786));
#172=CIRCLE('',#848,3.00000000000025);
#173=CIRCLE('',#850,2.7);
#174=CIRCLE('',#851,1.49999999999999);
#175=CIRCLE('',#852,1.7);
#176=CIRCLE('',#853,1.99999999999999);
#177=CIRCLE('',#856,2.7);
#178=CIRCLE('',#859,1.5);
#179=CIRCLE('',#860,1.7);
#180=CIRCLE('',#861,2.);
#181=CIRCLE('',#864,1.25);
#182=CIRCLE('',#875,3.00000000000001);
#183=CIRCLE('',#876,3.00000000000001);
#184=CIRCLE('',#882,2.75);
#185=CIRCLE('',#883,1.49999999999999);
#186=CIRCLE('',#887,3.00000000000001);
#187=CIRCLE('',#889,1.5);
#188=CIRCLE('',#890,2.75);
#189=CIRCLE('',#891,2.99999999999998);
#190=CIRCLE('',#895,1.25);
#191=CIRCLE('',#898,1.7);
#192=CIRCLE('',#900,2.75);
#193=CIRCLE('',#904,2.);
#194=CIRCLE('',#909,2.75);
#195=CIRCLE('',#910,1.7);
#196=LINE('',#1184,#283);
#197=LINE('',#1191,#284);
#198=LINE('',#1193,#285);
#199=LINE('',#1195,#286);
#200=LINE('',#1197,#287);
#201=LINE('',#1199,#288);
#202=LINE('',#1202,#289);
#203=LINE('',#1208,#290);
#204=LINE('',#1211,#291);
#205=LINE('',#1214,#292);
#206=LINE('',#1217,#293);
#207=LINE('',#1218,#294);
#208=LINE('',#1223,#295);
#209=LINE('',#1225,#296);
#210=LINE('',#1227,#297);
#211=LINE('',#1229,#298);
#212=LINE('',#1230,#299);
#213=LINE('',#1236,#300);
#214=LINE('',#1243,#301);
#215=LINE('',#1245,#302);
#216=LINE('',#1247,#303);
#217=LINE('',#1248,#304);
#218=LINE('',#1251,#305);
#219=LINE('',#1253,#306);
#220=LINE('',#1255,#307);
#221=LINE('',#1256,#308);
#222=LINE('',#1258,#309);
#223=LINE('',#1259,#310);
#224=LINE('',#1261,#311);
#225=LINE('',#1263,#312);
#226=LINE('',#1265,#313);
#227=LINE('',#1266,#314);
#228=LINE('',#1269,#315);
#229=LINE('',#1271,#316);
#230=LINE('',#1272,#317);
#231=LINE('',#1275,#318);
#232=LINE('',#1277,#319);
#233=LINE('',#1278,#320);
#234=LINE('',#1281,#321);
#235=LINE('',#1283,#322);
#236=LINE('',#1284,#323);
#237=LINE('',#1287,#324);
#238=LINE('',#1289,#325);
#239=LINE('',#1290,#326);
#240=LINE('',#1293,#327);
#241=LINE('',#1295,#328);
#242=LINE('',#1297,#329);
#243=LINE('',#1298,#330);
#244=LINE('',#1300,#331);
#245=LINE('',#1301,#332);
#246=LINE('',#1304,#333);
#247=LINE('',#1305,#334);
#248=LINE('',#1308,#335);
#249=LINE('',#1313,#336);
#250=LINE('',#1314,#337);
#251=LINE('',#1319,#338);
#252=LINE('',#1320,#339);
#253=LINE('',#1322,#340);
#254=LINE('',#1324,#341);
#255=LINE('',#1331,#342);
#256=LINE('',#1333,#343);
#257=LINE('',#1334,#344);
#258=LINE('',#1338,#345);
#259=LINE('',#1340,#346);
#260=LINE('',#1342,#347);
#261=LINE('',#1343,#348);
#262=LINE('',#1346,#349);
#263=LINE('',#1348,#350);
#264=LINE('',#1349,#351);
#265=LINE('',#1350,#352);
#266=LINE('',#1353,#353);
#267=LINE('',#1356,#354);
#268=LINE('',#1360,#355);
#269=LINE('',#1361,#356);
#270=LINE('',#1367,#357);
#271=LINE('',#1368,#358);
#272=LINE('',#1370,#359);
#273=LINE('',#1371,#360);
#274=LINE('',#1373,#361);
#275=LINE('',#1380,#362);
#276=LINE('',#1385,#363);
#277=LINE('',#1389,#364);
#278=LINE('',#1392,#365);
#279=LINE('',#1395,#366);
#280=LINE('',#1403,#367);
#281=LINE('',#1405,#368);
#282=LINE('',#1407,#369);
#283=VECTOR('',#920,2.50000000000013);
#284=VECTOR('',#927,10.);
#285=VECTOR('',#928,10.);
#286=VECTOR('',#929,10.);
#287=VECTOR('',#930,10.);
#288=VECTOR('',#931,10.);
#289=VECTOR('',#934,10.);
#290=VECTOR('',#941,1.99999999999999);
#291=VECTOR('',#944,10.);
#292=VECTOR('',#947,10.);
#293=VECTOR('',#950,10.);
#294=VECTOR('',#951,10.);
#295=VECTOR('',#956,10.);
#296=VECTOR('',#957,10.);
#297=VECTOR('',#958,10.);
#298=VECTOR('',#959,10.);
#299=VECTOR('',#960,10.);
#300=VECTOR('',#967,10.);
#301=VECTOR('',#974,10.);
#302=VECTOR('',#975,10.);
#303=VECTOR('',#976,10.);
#304=VECTOR('',#977,10.);
#305=VECTOR('',#980,10.);
#306=VECTOR('',#981,10.);
#307=VECTOR('',#982,10.);
#308=VECTOR('',#983,10.);
#309=VECTOR('',#986,10.);
#310=VECTOR('',#987,10.);
#311=VECTOR('',#988,10.);
#312=VECTOR('',#989,10.);
#313=VECTOR('',#990,10.);
#314=VECTOR('',#991,10.);
#315=VECTOR('',#994,10.);
#316=VECTOR('',#995,10.);
#317=VECTOR('',#996,10.);
#318=VECTOR('',#999,10.);
#319=VECTOR('',#1000,10.);
#320=VECTOR('',#1001,10.);
#321=VECTOR('',#1004,10.);
#322=VECTOR('',#1005,10.);
#323=VECTOR('',#1006,10.);
#324=VECTOR('',#1009,10.);
#325=VECTOR('',#1010,10.);
#326=VECTOR('',#1011,10.);
#327=VECTOR('',#1014,10.);
#328=VECTOR('',#1015,10.);
#329=VECTOR('',#1016,10.);
#330=VECTOR('',#1017,10.);
#331=VECTOR('',#1018,10.);
#332=VECTOR('',#1019,10.);
#333=VECTOR('',#1022,10.);
#334=VECTOR('',#1023,10.);
#335=VECTOR('',#1026,10.);
#336=VECTOR('',#1031,10.);
#337=VECTOR('',#1032,10.);
#338=VECTOR('',#1039,10.);
#339=VECTOR('',#1040,10.);
#340=VECTOR('',#1043,10.);
#341=VECTOR('',#1046,10.);
#342=VECTOR('',#1051,10.);
#343=VECTOR('',#1052,10.);
#344=VECTOR('',#1053,10.);
#345=VECTOR('',#1056,10.);
#346=VECTOR('',#1057,10.);
#347=VECTOR('',#1058,10.);
#348=VECTOR('',#1059,10.);
#349=VECTOR('',#1062,10.);
#350=VECTOR('',#1063,10.);
#351=VECTOR('',#1064,10.);
#352=VECTOR('',#1065,10.);
#353=VECTOR('',#1068,3.00000000000001);
#354=VECTOR('',#1073,10.);
#355=VECTOR('',#1076,10.);
#356=VECTOR('',#1077,10.);
#357=VECTOR('',#1084,10.);
#358=VECTOR('',#1085,10.);
#359=VECTOR('',#1088,10.);
#360=VECTOR('',#1089,10.);
#361=VECTOR('',#1092,10.);
#362=VECTOR('',#1101,1.7);
#363=VECTOR('',#1108,2.75);
#364=VECTOR('',#1113,1.74999999999999);
#365=VECTOR('',#1118,2.5);
#366=VECTOR('',#1123,10.);
#367=VECTOR('',#1134,1.7);
#368=VECTOR('',#1137,1.4);
#369=VECTOR('',#1140,2.75);
#370=B_SPLINE_CURVE_WITH_KNOTS('',3,(#1147,#1148,#1149,#1150,#1151,#1152,
#1153,#1154,#1155,#1156,#1157,#1158,#1159,#1160,#1161,#1162,#1163,#1164),
 .UNSPECIFIED.,.F.,.F.,(4,2,2,2,2,2,2,2,4),(0.,0.0753373395076267,0.150674679015253,
0.226012018522881,0.301349358030509,0.376686697538135,0.452024037045761,
0.527361376553388,0.602698716061015),.UNSPECIFIED.);
#371=B_SPLINE_CURVE_WITH_KNOTS('',3,(#1165,#1166,#1167,#1168,#1169,#1170,
#1171,#1172,#1173,#1174,#1175,#1176,#1177,#1178,#1179,#1180,#1181,#1182),
 .UNSPECIFIED.,.F.,.F.,(4,2,2,2,2,2,2,2,4),(0.602698716061015,0.678036055568641,
0.753373395076268,0.828710734583895,0.904048074091522,0.97938541359915,
1.05472275310678,1.1300600926144,1.20539743212203),.UNSPECIFIED.);
#372=VERTEX_POINT('',#1145);
#373=VERTEX_POINT('',#1146);
#374=VERTEX_POINT('',#1183);
#375=VERTEX_POINT('',#1187);
#376=VERTEX_POINT('',#1188);
#377=VERTEX_POINT('',#1190);
#378=VERTEX_POINT('',#1192);
#379=VERTEX_POINT('',#1194);
#380=VERTEX_POINT('',#1196);
#381=VERTEX_POINT('',#1198);
#382=VERTEX_POINT('',#1200);
#383=VERTEX_POINT('',#1203);
#384=VERTEX_POINT('',#1205);
#385=VERTEX_POINT('',#1210);
#386=VERTEX_POINT('',#1212);
#387=VERTEX_POINT('',#1216);
#388=VERTEX_POINT('',#1220);
#389=VERTEX_POINT('',#1222);
#390=VERTEX_POINT('',#1224);
#391=VERTEX_POINT('',#1226);
#392=VERTEX_POINT('',#1228);
#393=VERTEX_POINT('',#1231);
#394=VERTEX_POINT('',#1233);
#395=VERTEX_POINT('',#1238);
#396=VERTEX_POINT('',#1241);
#397=VERTEX_POINT('',#1242);
#398=VERTEX_POINT('',#1244);
#399=VERTEX_POINT('',#1246);
#400=VERTEX_POINT('',#1250);
#401=VERTEX_POINT('',#1252);
#402=VERTEX_POINT('',#1254);
#403=VERTEX_POINT('',#1260);
#404=VERTEX_POINT('',#1262);
#405=VERTEX_POINT('',#1264);
#406=VERTEX_POINT('',#1268);
#407=VERTEX_POINT('',#1270);
#408=VERTEX_POINT('',#1274);
#409=VERTEX_POINT('',#1276);
#410=VERTEX_POINT('',#1280);
#411=VERTEX_POINT('',#1282);
#412=VERTEX_POINT('',#1286);
#413=VERTEX_POINT('',#1288);
#414=VERTEX_POINT('',#1292);
#415=VERTEX_POINT('',#1294);
#416=VERTEX_POINT('',#1296);
#417=VERTEX_POINT('',#1299);
#418=VERTEX_POINT('',#1303);
#419=VERTEX_POINT('',#1307);
#420=VERTEX_POINT('',#1309);
#421=VERTEX_POINT('',#1311);
#422=VERTEX_POINT('',#1318);
#423=VERTEX_POINT('',#1325);
#424=VERTEX_POINT('',#1327);
#425=VERTEX_POINT('',#1328);
#426=VERTEX_POINT('',#1330);
#427=VERTEX_POINT('',#1332);
#428=VERTEX_POINT('',#1336);
#429=VERTEX_POINT('',#1337);
#430=VERTEX_POINT('',#1339);
#431=VERTEX_POINT('',#1341);
#432=VERTEX_POINT('',#1345);
#433=VERTEX_POINT('',#1347);
#434=VERTEX_POINT('',#1352);
#435=VERTEX_POINT('',#1357);
#436=VERTEX_POINT('',#1359);
#437=VERTEX_POINT('',#1362);
#438=VERTEX_POINT('',#1364);
#439=VERTEX_POINT('',#1374);
#440=VERTEX_POINT('',#1378);
#441=VERTEX_POINT('',#1382);
#442=VERTEX_POINT('',#1388);
#443=VERTEX_POINT('',#1397);
#444=VERTEX_POINT('',#1399);
#445=EDGE_CURVE('',#372,#373,#370,.T.);
#446=EDGE_CURVE('',#373,#372,#371,.T.);
#447=EDGE_CURVE('',#373,#374,#196,.T.);
#448=EDGE_CURVE('',#374,#374,#172,.T.);
#449=EDGE_CURVE('',#375,#376,#173,.T.);
#450=EDGE_CURVE('',#375,#377,#197,.T.);
#451=EDGE_CURVE('',#378,#377,#198,.T.);
#452=EDGE_CURVE('',#379,#378,#199,.T.);
#453=EDGE_CURVE('',#380,#379,#200,.T.);
#454=EDGE_CURVE('',#380,#381,#201,.T.);
#455=EDGE_CURVE('',#382,#381,#174,.T.);
#456=EDGE_CURVE('',#382,#376,#202,.T.);
#457=EDGE_CURVE('',#383,#383,#175,.T.);
#458=EDGE_CURVE('',#384,#384,#176,.T.);
#459=EDGE_CURVE('',#373,#384,#203,.T.);
#460=EDGE_CURVE('',#385,#376,#204,.T.);
#461=EDGE_CURVE('',#385,#386,#177,.T.);
#462=EDGE_CURVE('',#375,#386,#205,.T.);
#463=EDGE_CURVE('',#382,#387,#206,.T.);
#464=EDGE_CURVE('',#385,#387,#207,.T.);
#465=EDGE_CURVE('',#388,#387,#178,.T.);
#466=EDGE_CURVE('',#388,#389,#208,.T.);
#467=EDGE_CURVE('',#389,#390,#209,.T.);
#468=EDGE_CURVE('',#391,#390,#210,.T.);
#469=EDGE_CURVE('',#392,#391,#211,.T.);
#470=EDGE_CURVE('',#392,#386,#212,.T.);
#471=EDGE_CURVE('',#393,#393,#179,.T.);
#472=EDGE_CURVE('',#394,#394,#180,.F.);
#473=EDGE_CURVE('',#377,#392,#213,.T.);
#474=EDGE_CURVE('',#395,#395,#181,.T.);
#475=EDGE_CURVE('',#396,#397,#214,.T.);
#476=EDGE_CURVE('',#397,#398,#215,.T.);
#477=EDGE_CURVE('',#398,#399,#216,.T.);
#478=EDGE_CURVE('',#399,#396,#217,.T.);
#479=EDGE_CURVE('',#396,#400,#218,.T.);
#480=EDGE_CURVE('',#400,#401,#219,.T.);
#481=EDGE_CURVE('',#401,#402,#220,.T.);
#482=EDGE_CURVE('',#402,#397,#221,.T.);
#483=EDGE_CURVE('',#399,#390,#222,.T.);
#484=EDGE_CURVE('',#380,#389,#223,.T.);
#485=EDGE_CURVE('',#403,#379,#224,.T.);
#486=EDGE_CURVE('',#404,#403,#225,.T.);
#487=EDGE_CURVE('',#405,#404,#226,.T.);
#488=EDGE_CURVE('',#400,#405,#227,.T.);
#489=EDGE_CURVE('',#406,#404,#228,.T.);
#490=EDGE_CURVE('',#403,#407,#229,.T.);
#491=EDGE_CURVE('',#407,#406,#230,.T.);
#492=EDGE_CURVE('',#406,#408,#231,.T.);
#493=EDGE_CURVE('',#409,#408,#232,.T.);
#494=EDGE_CURVE('',#409,#405,#233,.T.);
#495=EDGE_CURVE('',#401,#410,#234,.T.);
#496=EDGE_CURVE('',#410,#411,#235,.T.);
#497=EDGE_CURVE('',#411,#402,#236,.T.);
#498=EDGE_CURVE('',#410,#412,#237,.T.);
#499=EDGE_CURVE('',#412,#413,#238,.T.);
#500=EDGE_CURVE('',#413,#411,#239,.T.);
#501=EDGE_CURVE('',#414,#412,#240,.T.);
#502=EDGE_CURVE('',#415,#414,#241,.T.);
#503=EDGE_CURVE('',#416,#415,#242,.T.);
#504=EDGE_CURVE('',#378,#416,#243,.T.);
#505=EDGE_CURVE('',#417,#391,#244,.T.);
#506=EDGE_CURVE('',#417,#413,#245,.T.);
#507=EDGE_CURVE('',#410,#418,#246,.T.);
#508=EDGE_CURVE('',#414,#418,#247,.T.);
#509=EDGE_CURVE('',#419,#401,#248,.T.);
#510=EDGE_CURVE('',#419,#420,#182,.T.);
#511=EDGE_CURVE('',#420,#421,#183,.T.);
#512=EDGE_CURVE('',#409,#421,#249,.T.);
#513=EDGE_CURVE('',#418,#409,#250,.T.);
#514=EDGE_CURVE('',#421,#419,#15,.T.);
#515=EDGE_CURVE('',#408,#422,#251,.T.);
#516=EDGE_CURVE('',#422,#418,#252,.T.);
#517=EDGE_CURVE('',#422,#415,#253,.T.);
#518=EDGE_CURVE('',#416,#407,#254,.T.);
#519=EDGE_CURVE('',#423,#423,#184,.T.);
#520=EDGE_CURVE('',#424,#425,#185,.T.);
#521=EDGE_CURVE('',#426,#425,#255,.T.);
#522=EDGE_CURVE('',#427,#426,#256,.T.);
#523=EDGE_CURVE('',#424,#427,#257,.T.);
#524=EDGE_CURVE('',#428,#429,#258,.T.);
#525=EDGE_CURVE('',#430,#429,#259,.T.);
#526=EDGE_CURVE('',#431,#430,#260,.T.);
#527=EDGE_CURVE('',#428,#431,#261,.T.);
#528=EDGE_CURVE('',#427,#432,#262,.T.);
#529=EDGE_CURVE('',#432,#433,#263,.T.);
#530=EDGE_CURVE('',#387,#433,#264,.T.);
#531=EDGE_CURVE('',#382,#424,#265,.T.);
#532=EDGE_CURVE('',#420,#434,#266,.T.);
#533=EDGE_CURVE('',#434,#434,#186,.T.);
#534=EDGE_CURVE('',#398,#417,#267,.T.);
#535=EDGE_CURVE('',#435,#433,#187,.T.);
#536=EDGE_CURVE('',#436,#432,#268,.T.);
#537=EDGE_CURVE('',#435,#436,#269,.T.);
#538=EDGE_CURVE('',#437,#437,#188,.T.);
#539=EDGE_CURVE('',#438,#438,#189,.T.);
#540=EDGE_CURVE('',#431,#388,#270,.T.);
#541=EDGE_CURVE('',#381,#430,#271,.T.);
#542=EDGE_CURVE('',#436,#428,#272,.T.);
#543=EDGE_CURVE('',#388,#435,#273,.T.);
#544=EDGE_CURVE('',#429,#426,#274,.T.);
#545=EDGE_CURVE('',#439,#439,#190,.T.);
#546=EDGE_CURVE('',#440,#440,#191,.T.);
#547=EDGE_CURVE('',#440,#393,#275,.T.);
#548=EDGE_CURVE('',#441,#441,#192,.T.);
#549=EDGE_CURVE('',#437,#441,#276,.T.);
#550=EDGE_CURVE('',#394,#442,#277,.T.);
#551=EDGE_CURVE('',#442,#442,#193,.T.);
#552=EDGE_CURVE('',#442,#438,#278,.T.);
#553=EDGE_CURVE('',#381,#425,#279,.T.);
#554=EDGE_CURVE('',#443,#443,#194,.T.);
#555=EDGE_CURVE('',#444,#444,#195,.T.);
#556=EDGE_CURVE('',#444,#383,#280,.T.);
#557=EDGE_CURVE('',#395,#439,#281,.T.);
#558=EDGE_CURVE('',#423,#443,#282,.T.);
#559=ORIENTED_EDGE('',*,*,#445,.F.);
#560=ORIENTED_EDGE('',*,*,#446,.F.);
#561=ORIENTED_EDGE('',*,*,#447,.T.);
#562=ORIENTED_EDGE('',*,*,#448,.F.);
#563=ORIENTED_EDGE('',*,*,#447,.F.);
#564=ORIENTED_EDGE('',*,*,#449,.F.);
#565=ORIENTED_EDGE('',*,*,#450,.T.);
#566=ORIENTED_EDGE('',*,*,#451,.F.);
#567=ORIENTED_EDGE('',*,*,#452,.F.);
#568=ORIENTED_EDGE('',*,*,#453,.F.);
#569=ORIENTED_EDGE('',*,*,#454,.T.);
#570=ORIENTED_EDGE('',*,*,#455,.F.);
#571=ORIENTED_EDGE('',*,*,#456,.T.);
#572=ORIENTED_EDGE('',*,*,#457,.F.);
#573=ORIENTED_EDGE('',*,*,#458,.F.);
#574=ORIENTED_EDGE('',*,*,#445,.T.);
#575=ORIENTED_EDGE('',*,*,#459,.T.);
#576=ORIENTED_EDGE('',*,*,#458,.T.);
#577=ORIENTED_EDGE('',*,*,#459,.F.);
#578=ORIENTED_EDGE('',*,*,#446,.T.);
#579=ORIENTED_EDGE('',*,*,#449,.T.);
#580=ORIENTED_EDGE('',*,*,#460,.F.);
#581=ORIENTED_EDGE('',*,*,#461,.T.);
#582=ORIENTED_EDGE('',*,*,#462,.F.);
#583=ORIENTED_EDGE('',*,*,#460,.T.);
#584=ORIENTED_EDGE('',*,*,#456,.F.);
#585=ORIENTED_EDGE('',*,*,#463,.T.);
#586=ORIENTED_EDGE('',*,*,#464,.F.);
#587=ORIENTED_EDGE('',*,*,#461,.F.);
#588=ORIENTED_EDGE('',*,*,#464,.T.);
#589=ORIENTED_EDGE('',*,*,#465,.F.);
#590=ORIENTED_EDGE('',*,*,#466,.T.);
#591=ORIENTED_EDGE('',*,*,#467,.T.);
#592=ORIENTED_EDGE('',*,*,#468,.F.);
#593=ORIENTED_EDGE('',*,*,#469,.F.);
#594=ORIENTED_EDGE('',*,*,#470,.T.);
#595=ORIENTED_EDGE('',*,*,#471,.F.);
#596=ORIENTED_EDGE('',*,*,#472,.F.);
#597=ORIENTED_EDGE('',*,*,#462,.T.);
#598=ORIENTED_EDGE('',*,*,#470,.F.);
#599=ORIENTED_EDGE('',*,*,#473,.F.);
#600=ORIENTED_EDGE('',*,*,#450,.F.);
#601=ORIENTED_EDGE('',*,*,#474,.F.);
#602=ORIENTED_EDGE('',*,*,#475,.T.);
#603=ORIENTED_EDGE('',*,*,#476,.T.);
#604=ORIENTED_EDGE('',*,*,#477,.T.);
#605=ORIENTED_EDGE('',*,*,#478,.T.);
#606=ORIENTED_EDGE('',*,*,#475,.F.);
#607=ORIENTED_EDGE('',*,*,#479,.T.);
#608=ORIENTED_EDGE('',*,*,#480,.T.);
#609=ORIENTED_EDGE('',*,*,#481,.T.);
#610=ORIENTED_EDGE('',*,*,#482,.T.);
#611=ORIENTED_EDGE('',*,*,#478,.F.);
#612=ORIENTED_EDGE('',*,*,#483,.T.);
#613=ORIENTED_EDGE('',*,*,#467,.F.);
#614=ORIENTED_EDGE('',*,*,#484,.F.);
#615=ORIENTED_EDGE('',*,*,#453,.T.);
#616=ORIENTED_EDGE('',*,*,#485,.F.);
#617=ORIENTED_EDGE('',*,*,#486,.F.);
#618=ORIENTED_EDGE('',*,*,#487,.F.);
#619=ORIENTED_EDGE('',*,*,#488,.F.);
#620=ORIENTED_EDGE('',*,*,#479,.F.);
#621=ORIENTED_EDGE('',*,*,#489,.T.);
#622=ORIENTED_EDGE('',*,*,#486,.T.);
#623=ORIENTED_EDGE('',*,*,#490,.T.);
#624=ORIENTED_EDGE('',*,*,#491,.T.);
#625=ORIENTED_EDGE('',*,*,#489,.F.);
#626=ORIENTED_EDGE('',*,*,#492,.T.);
#627=ORIENTED_EDGE('',*,*,#493,.F.);
#628=ORIENTED_EDGE('',*,*,#494,.T.);
#629=ORIENTED_EDGE('',*,*,#487,.T.);
#630=ORIENTED_EDGE('',*,*,#495,.T.);
#631=ORIENTED_EDGE('',*,*,#496,.T.);
#632=ORIENTED_EDGE('',*,*,#497,.T.);
#633=ORIENTED_EDGE('',*,*,#481,.F.);
#634=ORIENTED_EDGE('',*,*,#498,.T.);
#635=ORIENTED_EDGE('',*,*,#499,.T.);
#636=ORIENTED_EDGE('',*,*,#500,.T.);
#637=ORIENTED_EDGE('',*,*,#496,.F.);
#638=ORIENTED_EDGE('',*,*,#499,.F.);
#639=ORIENTED_EDGE('',*,*,#501,.F.);
#640=ORIENTED_EDGE('',*,*,#502,.F.);
#641=ORIENTED_EDGE('',*,*,#503,.F.);
#642=ORIENTED_EDGE('',*,*,#504,.F.);
#643=ORIENTED_EDGE('',*,*,#451,.T.);
#644=ORIENTED_EDGE('',*,*,#473,.T.);
#645=ORIENTED_EDGE('',*,*,#469,.T.);
#646=ORIENTED_EDGE('',*,*,#505,.F.);
#647=ORIENTED_EDGE('',*,*,#506,.T.);
#648=ORIENTED_EDGE('',*,*,#498,.F.);
#649=ORIENTED_EDGE('',*,*,#507,.T.);
#650=ORIENTED_EDGE('',*,*,#508,.F.);
#651=ORIENTED_EDGE('',*,*,#501,.T.);
#652=ORIENTED_EDGE('',*,*,#495,.F.);
#653=ORIENTED_EDGE('',*,*,#509,.F.);
#654=ORIENTED_EDGE('',*,*,#510,.T.);
#655=ORIENTED_EDGE('',*,*,#511,.T.);
#656=ORIENTED_EDGE('',*,*,#512,.F.);
#657=ORIENTED_EDGE('',*,*,#513,.F.);
#658=ORIENTED_EDGE('',*,*,#507,.F.);
#659=ORIENTED_EDGE('',*,*,#480,.F.);
#660=ORIENTED_EDGE('',*,*,#488,.T.);
#661=ORIENTED_EDGE('',*,*,#494,.F.);
#662=ORIENTED_EDGE('',*,*,#512,.T.);
#663=ORIENTED_EDGE('',*,*,#514,.T.);
#664=ORIENTED_EDGE('',*,*,#509,.T.);
#665=ORIENTED_EDGE('',*,*,#513,.T.);
#666=ORIENTED_EDGE('',*,*,#493,.T.);
#667=ORIENTED_EDGE('',*,*,#515,.T.);
#668=ORIENTED_EDGE('',*,*,#516,.T.);
#669=ORIENTED_EDGE('',*,*,#517,.T.);
#670=ORIENTED_EDGE('',*,*,#502,.T.);
#671=ORIENTED_EDGE('',*,*,#508,.T.);
#672=ORIENTED_EDGE('',*,*,#516,.F.);
#673=ORIENTED_EDGE('',*,*,#491,.F.);
#674=ORIENTED_EDGE('',*,*,#518,.F.);
#675=ORIENTED_EDGE('',*,*,#503,.T.);
#676=ORIENTED_EDGE('',*,*,#517,.F.);
#677=ORIENTED_EDGE('',*,*,#515,.F.);
#678=ORIENTED_EDGE('',*,*,#492,.F.);
#679=ORIENTED_EDGE('',*,*,#519,.F.);
#680=ORIENTED_EDGE('',*,*,#520,.T.);
#681=ORIENTED_EDGE('',*,*,#521,.F.);
#682=ORIENTED_EDGE('',*,*,#522,.F.);
#683=ORIENTED_EDGE('',*,*,#523,.F.);
#684=ORIENTED_EDGE('',*,*,#448,.T.);
#685=ORIENTED_EDGE('',*,*,#524,.T.);
#686=ORIENTED_EDGE('',*,*,#525,.F.);
#687=ORIENTED_EDGE('',*,*,#526,.F.);
#688=ORIENTED_EDGE('',*,*,#527,.F.);
#689=ORIENTED_EDGE('',*,*,#528,.T.);
#690=ORIENTED_EDGE('',*,*,#529,.T.);
#691=ORIENTED_EDGE('',*,*,#530,.F.);
#692=ORIENTED_EDGE('',*,*,#463,.F.);
#693=ORIENTED_EDGE('',*,*,#531,.T.);
#694=ORIENTED_EDGE('',*,*,#523,.T.);
#695=ORIENTED_EDGE('',*,*,#514,.F.);
#696=ORIENTED_EDGE('',*,*,#511,.F.);
#697=ORIENTED_EDGE('',*,*,#532,.T.);
#698=ORIENTED_EDGE('',*,*,#533,.F.);
#699=ORIENTED_EDGE('',*,*,#532,.F.);
#700=ORIENTED_EDGE('',*,*,#510,.F.);
#701=ORIENTED_EDGE('',*,*,#476,.F.);
#702=ORIENTED_EDGE('',*,*,#482,.F.);
#703=ORIENTED_EDGE('',*,*,#497,.F.);
#704=ORIENTED_EDGE('',*,*,#500,.F.);
#705=ORIENTED_EDGE('',*,*,#506,.F.);
#706=ORIENTED_EDGE('',*,*,#534,.F.);
#707=ORIENTED_EDGE('',*,*,#535,.T.);
#708=ORIENTED_EDGE('',*,*,#529,.F.);
#709=ORIENTED_EDGE('',*,*,#536,.F.);
#710=ORIENTED_EDGE('',*,*,#537,.F.);
#711=ORIENTED_EDGE('',*,*,#538,.F.);
#712=ORIENTED_EDGE('',*,*,#539,.T.);
#713=ORIENTED_EDGE('',*,*,#484,.T.);
#714=ORIENTED_EDGE('',*,*,#466,.F.);
#715=ORIENTED_EDGE('',*,*,#540,.F.);
#716=ORIENTED_EDGE('',*,*,#526,.T.);
#717=ORIENTED_EDGE('',*,*,#541,.F.);
#718=ORIENTED_EDGE('',*,*,#454,.F.);
#719=ORIENTED_EDGE('',*,*,#542,.T.);
#720=ORIENTED_EDGE('',*,*,#527,.T.);
#721=ORIENTED_EDGE('',*,*,#540,.T.);
#722=ORIENTED_EDGE('',*,*,#543,.T.);
#723=ORIENTED_EDGE('',*,*,#537,.T.);
#724=ORIENTED_EDGE('',*,*,#528,.F.);
#725=ORIENTED_EDGE('',*,*,#522,.T.);
#726=ORIENTED_EDGE('',*,*,#544,.F.);
#727=ORIENTED_EDGE('',*,*,#524,.F.);
#728=ORIENTED_EDGE('',*,*,#542,.F.);
#729=ORIENTED_EDGE('',*,*,#536,.T.);
#730=ORIENTED_EDGE('',*,*,#545,.T.);
#731=ORIENTED_EDGE('',*,*,#477,.F.);
#732=ORIENTED_EDGE('',*,*,#534,.T.);
#733=ORIENTED_EDGE('',*,*,#505,.T.);
#734=ORIENTED_EDGE('',*,*,#468,.T.);
#735=ORIENTED_EDGE('',*,*,#483,.F.);
#736=ORIENTED_EDGE('',*,*,#546,.T.);
#737=ORIENTED_EDGE('',*,*,#547,.T.);
#738=ORIENTED_EDGE('',*,*,#471,.T.);
#739=ORIENTED_EDGE('',*,*,#547,.F.);
#740=ORIENTED_EDGE('',*,*,#548,.F.);
#741=ORIENTED_EDGE('',*,*,#546,.F.);
#742=ORIENTED_EDGE('',*,*,#538,.T.);
#743=ORIENTED_EDGE('',*,*,#549,.T.);
#744=ORIENTED_EDGE('',*,*,#548,.T.);
#745=ORIENTED_EDGE('',*,*,#549,.F.);
#746=ORIENTED_EDGE('',*,*,#535,.F.);
#747=ORIENTED_EDGE('',*,*,#543,.F.);
#748=ORIENTED_EDGE('',*,*,#465,.T.);
#749=ORIENTED_EDGE('',*,*,#530,.T.);
#750=ORIENTED_EDGE('',*,*,#472,.T.);
#751=ORIENTED_EDGE('',*,*,#550,.T.);
#752=ORIENTED_EDGE('',*,*,#551,.T.);
#753=ORIENTED_EDGE('',*,*,#550,.F.);
#754=ORIENTED_EDGE('',*,*,#551,.F.);
#755=ORIENTED_EDGE('',*,*,#552,.T.);
#756=ORIENTED_EDGE('',*,*,#539,.F.);
#757=ORIENTED_EDGE('',*,*,#552,.F.);
#758=ORIENTED_EDGE('',*,*,#533,.T.);
#759=ORIENTED_EDGE('',*,*,#544,.T.);
#760=ORIENTED_EDGE('',*,*,#521,.T.);
#761=ORIENTED_EDGE('',*,*,#553,.F.);
#762=ORIENTED_EDGE('',*,*,#541,.T.);
#763=ORIENTED_EDGE('',*,*,#525,.T.);
#764=ORIENTED_EDGE('',*,*,#554,.F.);
#765=ORIENTED_EDGE('',*,*,#555,.F.);
#766=ORIENTED_EDGE('',*,*,#490,.F.);
#767=ORIENTED_EDGE('',*,*,#485,.T.);
#768=ORIENTED_EDGE('',*,*,#452,.T.);
#769=ORIENTED_EDGE('',*,*,#504,.T.);
#770=ORIENTED_EDGE('',*,*,#518,.T.);
#771=ORIENTED_EDGE('',*,*,#555,.T.);
#772=ORIENTED_EDGE('',*,*,#556,.T.);
#773=ORIENTED_EDGE('',*,*,#457,.T.);
#774=ORIENTED_EDGE('',*,*,#556,.F.);
#775=ORIENTED_EDGE('',*,*,#474,.T.);
#776=ORIENTED_EDGE('',*,*,#557,.T.);
#777=ORIENTED_EDGE('',*,*,#545,.F.);
#778=ORIENTED_EDGE('',*,*,#557,.F.);
#779=ORIENTED_EDGE('',*,*,#519,.T.);
#780=ORIENTED_EDGE('',*,*,#558,.T.);
#781=ORIENTED_EDGE('',*,*,#554,.T.);
#782=ORIENTED_EDGE('',*,*,#558,.F.);
#783=ORIENTED_EDGE('',*,*,#520,.F.);
#784=ORIENTED_EDGE('',*,*,#531,.F.);
#785=ORIENTED_EDGE('',*,*,#455,.T.);
#786=ORIENTED_EDGE('',*,*,#553,.T.);
#787=CONICAL_SURFACE('',#847,2.50000000000012,0.785398163397468);
#788=CONICAL_SURFACE('',#905,2.49999999999999,0.785398163397433);
#789=ADVANCED_FACE('',(#71),#787,.F.);
#790=ADVANCED_FACE('',(#72,#27,#28),#40,.F.);
#791=ADVANCED_FACE('',(#73),#16,.F.);
#792=ADVANCED_FACE('',(#74),#17,.F.);
#793=ADVANCED_FACE('',(#75),#41,.T.);
#794=ADVANCED_FACE('',(#76,#29,#30),#42,.F.);
#795=ADVANCED_FACE('',(#77),#43,.T.);
#796=ADVANCED_FACE('',(#78),#44,.F.);
#797=ADVANCED_FACE('',(#79),#45,.T.);
#798=ADVANCED_FACE('',(#80),#46,.T.);
#799=ADVANCED_FACE('',(#81),#47,.T.);
#800=ADVANCED_FACE('',(#82),#48,.T.);
#801=ADVANCED_FACE('',(#83),#49,.T.);
#802=ADVANCED_FACE('',(#84),#50,.T.);
#803=ADVANCED_FACE('',(#85),#51,.T.);
#804=ADVANCED_FACE('',(#86),#52,.T.);
#805=ADVANCED_FACE('',(#87),#53,.T.);
#806=ADVANCED_FACE('',(#88),#54,.T.);
#807=ADVANCED_FACE('',(#89),#55,.T.);
#808=ADVANCED_FACE('',(#90),#56,.T.);
#809=ADVANCED_FACE('',(#91),#57,.T.);
#810=ADVANCED_FACE('',(#92,#31,#32,#33),#58,.F.);
#811=ADVANCED_FACE('',(#93),#59,.T.);
#812=ADVANCED_FACE('',(#94),#60,.T.);
#813=ADVANCED_FACE('',(#95),#18,.F.);
#814=ADVANCED_FACE('',(#96,#34,#35,#36),#61,.F.);
#815=ADVANCED_FACE('',(#97),#62,.T.);
#816=ADVANCED_FACE('',(#98),#63,.F.);
#817=ADVANCED_FACE('',(#99,#37),#64,.F.);
#818=ADVANCED_FACE('',(#100),#65,.T.);
#819=ADVANCED_FACE('',(#101),#19,.F.);
#820=ADVANCED_FACE('',(#102,#38),#66,.T.);
#821=ADVANCED_FACE('',(#103),#20,.F.);
#822=ADVANCED_FACE('',(#104),#21,.F.);
#823=ADVANCED_FACE('',(#105),#22,.F.);
#824=ADVANCED_FACE('',(#106),#788,.F.);
#825=ADVANCED_FACE('',(#107),#67,.T.);
#826=ADVANCED_FACE('',(#108),#68,.F.);
#827=ADVANCED_FACE('',(#109,#39),#69,.T.);
#828=ADVANCED_FACE('',(#110),#70,.T.);
#829=ADVANCED_FACE('',(#111),#23,.F.);
#830=ADVANCED_FACE('',(#112),#24,.F.);
#831=ADVANCED_FACE('',(#113),#25,.F.);
#832=ADVANCED_FACE('',(#114),#26,.F.);
#833=CLOSED_SHELL('',(#789,#790,#791,#792,#793,#794,#795,#796,#797,#798,
#799,#800,#801,#802,#803,#804,#805,#806,#807,#808,#809,#810,#811,#812,#813,
#814,#815,#816,#817,#818,#819,#820,#821,#822,#823,#824,#825,#826,#827,#828,
#829,#830,#831,#832));
#834=DERIVED_UNIT_ELEMENT(#836,1.);
#835=DERIVED_UNIT_ELEMENT(#1414,-3.);
#836=(
MASS_UNIT()
NAMED_UNIT(*)
SI_UNIT(.KILO.,.GRAM.)
);
#837=DERIVED_UNIT((#834,#835));
#838=MEASURE_REPRESENTATION_ITEM('density measure',
POSITIVE_RATIO_MEASURE(7850.),#837);
#839=PROPERTY_DEFINITION_REPRESENTATION(#844,#841);
#840=PROPERTY_DEFINITION_REPRESENTATION(#845,#842);
#841=REPRESENTATION('material name',(#843),#1411);
#842=REPRESENTATION('density',(#838),#1411);
#843=DESCRIPTIVE_REPRESENTATION_ITEM('Steel','Steel');
#844=PROPERTY_DEFINITION('material property','material name',#1421);
#845=PROPERTY_DEFINITION('material property','density of part',#1421);
#846=AXIS2_PLACEMENT_3D('',#1143,#916,#917);
#847=AXIS2_PLACEMENT_3D('',#1144,#918,#919);
#848=AXIS2_PLACEMENT_3D('',#1185,#921,#922);
#849=AXIS2_PLACEMENT_3D('',#1186,#923,#924);
#850=AXIS2_PLACEMENT_3D('',#1189,#925,#926);
#851=AXIS2_PLACEMENT_3D('',#1201,#932,#933);
#852=AXIS2_PLACEMENT_3D('',#1204,#935,#936);
#853=AXIS2_PLACEMENT_3D('',#1206,#937,#938);
#854=AXIS2_PLACEMENT_3D('',#1207,#939,#940);
#855=AXIS2_PLACEMENT_3D('',#1209,#942,#943);
#856=AXIS2_PLACEMENT_3D('',#1213,#945,#946);
#857=AXIS2_PLACEMENT_3D('',#1215,#948,#949);
#858=AXIS2_PLACEMENT_3D('',#1219,#952,#953);
#859=AXIS2_PLACEMENT_3D('',#1221,#954,#955);
#860=AXIS2_PLACEMENT_3D('',#1232,#961,#962);
#861=AXIS2_PLACEMENT_3D('',#1234,#963,#964);
#862=AXIS2_PLACEMENT_3D('',#1235,#965,#966);
#863=AXIS2_PLACEMENT_3D('',#1237,#968,#969);
#864=AXIS2_PLACEMENT_3D('',#1239,#970,#971);
#865=AXIS2_PLACEMENT_3D('',#1240,#972,#973);
#866=AXIS2_PLACEMENT_3D('',#1249,#978,#979);
#867=AXIS2_PLACEMENT_3D('',#1257,#984,#985);
#868=AXIS2_PLACEMENT_3D('',#1267,#992,#993);
#869=AXIS2_PLACEMENT_3D('',#1273,#997,#998);
#870=AXIS2_PLACEMENT_3D('',#1279,#1002,#1003);
#871=AXIS2_PLACEMENT_3D('',#1285,#1007,#1008);
#872=AXIS2_PLACEMENT_3D('',#1291,#1012,#1013);
#873=AXIS2_PLACEMENT_3D('',#1302,#1020,#1021);
#874=AXIS2_PLACEMENT_3D('',#1306,#1024,#1025);
#875=AXIS2_PLACEMENT_3D('',#1310,#1027,#1028);
#876=AXIS2_PLACEMENT_3D('',#1312,#1029,#1030);
#877=AXIS2_PLACEMENT_3D('',#1315,#1033,#1034);
#878=AXIS2_PLACEMENT_3D('',#1316,#1035,#1036);
#879=AXIS2_PLACEMENT_3D('',#1317,#1037,#1038);
#880=AXIS2_PLACEMENT_3D('',#1321,#1041,#1042);
#881=AXIS2_PLACEMENT_3D('',#1323,#1044,#1045);
#882=AXIS2_PLACEMENT_3D('',#1326,#1047,#1048);
#883=AXIS2_PLACEMENT_3D('',#1329,#1049,#1050);
#884=AXIS2_PLACEMENT_3D('',#1335,#1054,#1055);
#885=AXIS2_PLACEMENT_3D('',#1344,#1060,#1061);
#886=AXIS2_PLACEMENT_3D('',#1351,#1066,#1067);
#887=AXIS2_PLACEMENT_3D('',#1354,#1069,#1070);
#888=AXIS2_PLACEMENT_3D('',#1355,#1071,#1072);
#889=AXIS2_PLACEMENT_3D('',#1358,#1074,#1075);
#890=AXIS2_PLACEMENT_3D('',#1363,#1078,#1079);
#891=AXIS2_PLACEMENT_3D('',#1365,#1080,#1081);
#892=AXIS2_PLACEMENT_3D('',#1366,#1082,#1083);
#893=AXIS2_PLACEMENT_3D('',#1369,#1086,#1087);
#894=AXIS2_PLACEMENT_3D('',#1372,#1090,#1091);
#895=AXIS2_PLACEMENT_3D('',#1375,#1093,#1094);
#896=AXIS2_PLACEMENT_3D('',#1376,#1095,#1096);
#897=AXIS2_PLACEMENT_3D('',#1377,#1097,#1098);
#898=AXIS2_PLACEMENT_3D('',#1379,#1099,#1100);
#899=AXIS2_PLACEMENT_3D('',#1381,#1102,#1103);
#900=AXIS2_PLACEMENT_3D('',#1383,#1104,#1105);
#901=AXIS2_PLACEMENT_3D('',#1384,#1106,#1107);
#902=AXIS2_PLACEMENT_3D('',#1386,#1109,#1110);
#903=AXIS2_PLACEMENT_3D('',#1387,#1111,#1112);
#904=AXIS2_PLACEMENT_3D('',#1390,#1114,#1115);
#905=AXIS2_PLACEMENT_3D('',#1391,#1116,#1117);
#906=AXIS2_PLACEMENT_3D('',#1393,#1119,#1120);
#907=AXIS2_PLACEMENT_3D('',#1394,#1121,#1122);
#908=AXIS2_PLACEMENT_3D('',#1396,#1124,#1125);
#909=AXIS2_PLACEMENT_3D('',#1398,#1126,#1127);
#910=AXIS2_PLACEMENT_3D('',#1400,#1128,#1129);
#911=AXIS2_PLACEMENT_3D('',#1401,#1130,#1131);
#912=AXIS2_PLACEMENT_3D('',#1402,#1132,#1133);
#913=AXIS2_PLACEMENT_3D('',#1404,#1135,#1136);
#914=AXIS2_PLACEMENT_3D('',#1406,#1138,#1139);
#915=AXIS2_PLACEMENT_3D('',#1408,#1141,#1142);
#916=DIRECTION('axis',(0.,0.,1.));
#917=DIRECTION('refdir',(1.,0.,0.));
#918=DIRECTION('center_axis',(-5.65345489024201E-14,1.27122052414763E-9,
1.));
#919=DIRECTION('ref_axis',(1.18009001922669E-13,1.,-1.27122144361259E-9));
#920=DIRECTION('',(-1.23334332795177E-13,-0.707106780287671,0.707106782085424));
#921=DIRECTION('center_axis',(5.65345975706441E-14,-1.27122046863652E-9,
-1.));
#922=DIRECTION('ref_axis',(1.18009001922669E-13,1.,-1.27122046863652E-9));
#923=DIRECTION('center_axis',(-1.2058480972401E-13,1.27121727497316E-9,
1.));
#924=DIRECTION('ref_axis',(5.05648212799226E-14,1.,-1.27121727497316E-9));
#925=DIRECTION('center_axis',(-1.2058480972401E-13,1.27121727497316E-9,
1.));
#926=DIRECTION('ref_axis',(6.35942018956749E-14,1.,-1.27121727497316E-9));
#927=DIRECTION('',(-4.01433664270716E-14,-1.,1.27121727497316E-9));
#928=DIRECTION('',(1.,2.30794126345174E-22,1.2058480972401E-13));
#929=DIRECTION('',(-6.47182967406614E-14,-1.,1.27121727497316E-9));
#930=DIRECTION('',(-1.,6.49674228566365E-14,-1.20584809806598E-13));
#931=DIRECTION('',(-4.01433664270716E-14,-1.,1.27121727497316E-9));
#932=DIRECTION('center_axis',(5.65345975706441E-14,-1.27122046863652E-9,
-1.));
#933=DIRECTION('ref_axis',(1.18009001922669E-13,1.,-1.27122046863652E-9));
#934=DIRECTION('',(-4.01433664270716E-14,-1.,1.27121727497316E-9));
#935=DIRECTION('center_axis',(1.2058480972401E-13,-1.27121727497316E-9,
-1.));
#936=DIRECTION('ref_axis',(1.18009001922669E-13,1.,-1.27122046863652E-9));
#937=DIRECTION('center_axis',(1.2058480972401E-13,-1.27121727497316E-9,
-1.));
#938=DIRECTION('ref_axis',(6.41493133280047E-14,1.,-1.27121727497316E-9));
#939=DIRECTION('center_axis',(0.,0.,1.));
#940=DIRECTION('ref_axis',(6.41493133280046E-14,1.,0.));
#941=DIRECTION('',(0.,0.,-1.));
#942=DIRECTION('center_axis',(6.29176775013154E-14,1.87579373209423E-17,
-1.));
#943=DIRECTION('ref_axis',(6.35942018156928E-14,1.,1.87579374128512E-17));
#944=DIRECTION('',(-6.29176775013154E-14,-1.87579373209423E-17,1.));
#945=DIRECTION('center_axis',(1.23291867096106E-13,-1.27122366244646E-9,
-1.));
#946=DIRECTION('ref_axis',(6.35942018956753E-14,1.,-1.27122366244646E-9));
#947=DIRECTION('',(6.29176775013154E-14,1.87579373209423E-17,-1.));
#948=DIRECTION('center_axis',(-1.,4.01433662741425E-14,-1.20301204726981E-13));
#949=DIRECTION('ref_axis',(-1.20301204675948E-13,1.27126837475999E-9,1.));
#950=DIRECTION('',(1.2030120467595E-13,-1.27122052414763E-9,-1.));
#951=DIRECTION('',(4.01433664270725E-14,1.,-1.27122366244646E-9));
#952=DIRECTION('center_axis',(1.23291867096106E-13,-1.27122366244646E-9,
-1.));
#953=DIRECTION('ref_axis',(-5.05648212799235E-14,-1.,1.27122366244646E-9));
#954=DIRECTION('center_axis',(-5.90296229592576E-14,1.27122046863652E-9,
1.));
#955=DIRECTION('ref_axis',(-1.18009001904234E-13,-1.,1.27122046863652E-9));
#956=DIRECTION('',(4.01433664270725E-14,1.,-1.27122366244646E-9));
#957=DIRECTION('',(-1.,2.72132154317598E-21,-1.23291867096106E-13));
#958=DIRECTION('',(6.47182967406623E-14,1.,-1.27122366244646E-9));
#959=DIRECTION('',(-1.,-2.35975319669414E-22,-1.23291867096106E-13));
#960=DIRECTION('',(4.01433664270725E-14,1.,-1.27122366244646E-9));
#961=DIRECTION('center_axis',(-1.23291867096106E-13,1.27122366244646E-9,
1.));
#962=DIRECTION('ref_axis',(-1.18009001922669E-13,-1.,1.2712229060767E-9));
#963=DIRECTION('center_axis',(1.23291867096106E-13,-1.27122366244646E-9,
-1.));
#964=DIRECTION('ref_axis',(-1.18009001922669E-13,-1.,1.2712229060767E-9));
#965=DIRECTION('center_axis',(-1.,4.01433662741425E-14,-1.20301204726981E-13));
#966=DIRECTION('ref_axis',(-1.20301204675948E-13,1.27126837475999E-9,1.));
#967=DIRECTION('',(1.20301204650149E-13,-1.91395770833947E-9,-1.));
#968=DIRECTION('center_axis',(1.,-6.04737209932391E-21,1.81438008200833E-29));
#969=DIRECTION('ref_axis',(6.04737209339846E-21,1.,-1.27116629614482E-9));
#970=DIRECTION('center_axis',(1.,-6.04737209932391E-21,1.81438008200833E-29));
#971=DIRECTION('ref_axis',(1.20301204675762E-13,-1.27122052414763E-9,-1.));
#972=DIRECTION('center_axis',(4.1740257643857E-14,0.707106646451852,-0.707106915921218));
#973=DIRECTION('ref_axis',(-1.,0.,-5.90296272091723E-14));
#974=DIRECTION('',(-0.281084358828691,-0.678598531607597,-0.678598273002427));
#975=DIRECTION('',(-1.,4.24991627091209E-21,-5.90296229592577E-14));
#976=DIRECTION('',(-3.82180524143439E-14,0.707106915921218,0.707106646451852));
#977=DIRECTION('',(1.,-4.24991627091209E-21,5.90296229592577E-14));
#978=DIRECTION('center_axis',(0.499999998099503,0.499999997211327,-0.707106784502291));
#979=DIRECTION('ref_axis',(-0.816496583238456,0.,-0.577350265921761));
#980=DIRECTION('',(0.816496597094154,-4.15670994133418E-8,0.577350246326841));
#981=DIRECTION('',(0.707106781194151,-0.707106781178944,8.98930353993045E-10));
#982=DIRECTION('',(-0.67859834756756,-0.281084623987239,-0.678598347210284));
#983=DIRECTION('',(-0.707106781194151,0.707106781178944,-8.98930353993045E-10));
#984=DIRECTION('center_axis',(0.,0.999999999999997,7.19963309581933E-8));
#985=DIRECTION('ref_axis',(-1.,0.,0.));
#986=DIRECTION('',(-1.2126184642054E-13,-2.20721894114878E-8,1.));
#987=DIRECTION('',(1.22796231001647E-13,2.20721894114878E-8,-1.));
#988=DIRECTION('',(1.18766819521182E-13,-1.27121402429251E-9,-1.));
#989=DIRECTION('',(-1.,4.07028359728437E-21,-5.65345975706441E-14));
#990=DIRECTION('',(-0.816496566830327,-4.15671024947499E-8,0.577350289126357));
#991=DIRECTION('',(7.88471946512599E-30,1.27121402429251E-9,1.));
#992=DIRECTION('center_axis',(-3.99759674801028E-14,0.70710725798497,0.707106304387804));
#993=DIRECTION('ref_axis',(1.,0.,5.6534593500355E-14));
#994=DIRECTION('',(0.281085653197647,0.678597676656564,-0.678598591807237));
#995=DIRECTION('',(-1.29743595677197E-13,-0.707106304387804,0.70710725798497));
#996=DIRECTION('',(1.,-4.07028359728437E-21,5.65345975706441E-14));
#997=DIRECTION('center_axis',(0.499999999994593,0.500000000904275,0.707106780550952));
#998=DIRECTION('ref_axis',(0.816496580686028,0.,-0.577350269531438));
#999=DIRECTION('',(0.707106781194151,-0.707106781178944,8.98928589743674E-10));
#1000=DIRECTION('',(-0.678598344545048,-0.281084636856117,0.678598344902332));
#1001=DIRECTION('',(-0.707106781194151,0.707106781178944,-8.98928589743674E-10));
#1002=DIRECTION('center_axis',(0.707106781186755,-8.98888613760038E-10,
-0.707106781186341));
#1003=DIRECTION('ref_axis',(-0.707106781186341,0.,-0.707106781186755));
#1004=DIRECTION('',(-6.04737211194569E-21,-1.,1.27122046863652E-9));
#1005=DIRECTION('',(-0.678598344629018,0.281084636450476,-0.678598344986384));
#1006=DIRECTION('',(6.04737211194569E-21,1.,-1.27122046863652E-9));
#1007=DIRECTION('center_axis',(0.500000000113652,-0.500000001012498,-0.707106780390239));
#1008=DIRECTION('ref_axis',(-0.816496580559362,0.,-0.577350269710571));
#1009=DIRECTION('',(-0.707106781186546,-0.707106781186548,8.98846873509341E-10));
#1010=DIRECTION('',(-0.816496580927704,-1.10502399812741E-9,-0.577350269189657));
#1011=DIRECTION('',(0.707106781186546,0.707106781186548,-8.98846873509341E-10));
#1012=DIRECTION('center_axis',(0.,-1.,1.91395770833947E-9));
#1013=DIRECTION('ref_axis',(-2.76101316827354E-30,-1.91395770833947E-9,
-1.));
#1014=DIRECTION('',(-1.17716296951608E-29,-1.91395770833947E-9,-1.));
#1015=DIRECTION('',(0.816496580927747,-1.1050239981273E-9,-0.577350269189596));
#1016=DIRECTION('',(1.,0.,0.));
#1017=DIRECTION('',(-1.18766819521181E-13,1.27122397283231E-9,1.));
#1018=DIRECTION('',(-1.21261844909794E-13,1.27122397283231E-9,1.));
#1019=DIRECTION('',(1.,0.,0.));
#1020=DIRECTION('center_axis',(0.707106781186549,-0.707106781186547,1.3533724744711E-9));
#1021=DIRECTION('ref_axis',(1.91395770833947E-9,0.,-1.));
#1022=DIRECTION('',(1.17716296951608E-29,1.91395770833947E-9,1.));
#1023=DIRECTION('',(0.707106781186546,0.707106781186548,-8.98848637758713E-10));
#1024=DIRECTION('center_axis',(1.,-6.04737211194569E-21,-1.97215226305253E-31));
#1025=DIRECTION('ref_axis',(6.04737210602023E-21,1.,-1.27116629614482E-9));
#1026=DIRECTION('',(1.33281527470309E-28,2.20721894114878E-8,-1.));
#1027=DIRECTION('center_axis',(-1.,6.04737209932391E-21,-4.14151975241031E-30));
#1028=DIRECTION('ref_axis',(6.04737208498393E-21,1.,-1.27116629614482E-9));
#1029=DIRECTION('center_axis',(-1.,6.04737209932391E-21,-4.14151975241031E-30));
#1030=DIRECTION('ref_axis',(6.04737208498393E-21,1.,-1.27116629614482E-9));
#1031=DIRECTION('',(-7.88471946512599E-30,-1.27121402429251E-9,-1.));
#1032=DIRECTION('',(6.04737211194569E-21,1.,-1.27122046863652E-9));
#1033=DIRECTION('center_axis',(0.707106781178944,0.707106781194151,-8.98884056926337E-10));
#1034=DIRECTION('ref_axis',(-1.27121402431985E-9,0.,-1.));
#1035=DIRECTION('center_axis',(-0.707106781178944,-0.707106781194151,8.98884056926337E-10));
#1036=DIRECTION('ref_axis',(-0.707106781194151,0.707106781178944,-8.98850308010127E-10));
#1037=DIRECTION('center_axis',(0.707106783940945,8.98888610250303E-10,0.70710677843215));
#1038=DIRECTION('ref_axis',(0.70710677843215,0.,-0.707106783940945));
#1039=DIRECTION('',(-6.04737211194569E-21,-1.,1.27122046863652E-9));
#1040=DIRECTION('',(0.678598344462666,-0.28108463897918,-0.678598344105313));
#1041=DIRECTION('center_axis',(0.49999999988635,-0.4999999989875,0.707106781982855));
#1042=DIRECTION('ref_axis',(0.816496581296088,0.,-0.577350268668683));
#1043=DIRECTION('',(-0.707106781186546,-0.707106781186548,8.98848637758713E-10));
#1044=DIRECTION('center_axis',(5.65345975706441E-14,-1.27122046863652E-9,
-1.));
#1045=DIRECTION('ref_axis',(1.18009001922669E-13,1.,-1.27122046863652E-9));
#1046=DIRECTION('',(1.57940540410525E-14,1.,-1.27121649912398E-9));
#1047=DIRECTION('center_axis',(-5.65345975706441E-14,1.27122046863652E-9,
1.));
#1048=DIRECTION('ref_axis',(1.18009001922669E-13,1.,-1.27122046863652E-9));
#1049=DIRECTION('center_axis',(5.65345975706441E-14,-1.27122046863652E-9,
-1.));
#1050=DIRECTION('ref_axis',(1.18009001922669E-13,1.,-1.27122046863652E-9));
#1051=DIRECTION('',(-1.,5.00894755320506E-14,-1.4012786066507E-13));
#1052=DIRECTION('',(5.28759178113255E-14,1.,-1.27121454744706E-9));
#1053=DIRECTION('',(1.,-6.05386334042531E-14,1.45352439617774E-13));
#1054=DIRECTION('center_axis',(-5.38076498070737E-14,-0.999999999999997,
-7.19963309581933E-8));
#1055=DIRECTION('ref_axis',(1.,-5.38076498070735E-14,-3.87395334861838E-21));
#1056=DIRECTION('',(-6.21724932157439E-14,-7.19963309581933E-8,0.999999999999998));
#1057=DIRECTION('',(1.,-5.38076498070734E-14,-3.90821672344283E-21));
#1058=DIRECTION('',(0.,-7.19963309581933E-8,0.999999999999998));
#1059=DIRECTION('',(-1.,5.38076498070735E-14,3.87395334861838E-21));
#1060=DIRECTION('center_axis',(5.35023384753017E-14,1.,-1.27122052414763E-9));
#1061=DIRECTION('ref_axis',(-5.61598486316091E-14,1.27122052414763E-9,1.));
#1062=DIRECTION('',(6.21724893112645E-14,-1.27122052414763E-9,-1.));
#1063=DIRECTION('',(-1.,6.05386335139267E-14,-5.90785547605187E-14));
#1064=DIRECTION('',(5.90893555307858E-14,-1.2712184651846E-9,-1.));
#1065=DIRECTION('',(-5.82860985606482E-14,1.2712224831346E-9,1.));
#1066=DIRECTION('center_axis',(1.,0.,0.));
#1067=DIRECTION('ref_axis',(0.,1.,-1.27116629614482E-9));
#1068=DIRECTION('',(-1.,0.,0.));
#1069=DIRECTION('center_axis',(1.,-4.0143366255707E-14,1.20301204726793E-13));
#1070=DIRECTION('ref_axis',(0.,1.,-1.27116629614482E-9));
#1071=DIRECTION('center_axis',(-5.90296229592577E-14,1.27122046863652E-9,
1.));
#1072=DIRECTION('ref_axis',(-1.18009001922669E-13,-1.,1.27122046863652E-9));
#1073=DIRECTION('',(1.99315588103399E-14,-1.,1.27122052414763E-9));
#1074=DIRECTION('center_axis',(-5.90296229592577E-14,1.27122046863652E-9,
1.));
#1075=DIRECTION('ref_axis',(-1.18009001922669E-13,-1.,1.27122046863652E-9));
#1076=DIRECTION('',(-5.28759178113225E-14,-1.,1.27122052420279E-9));
#1077=DIRECTION('',(1.,-6.57632124534103E-14,5.90295743746331E-14));
#1078=DIRECTION('center_axis',(5.90296229592577E-14,-1.27122046863652E-9,
-1.));
#1079=DIRECTION('ref_axis',(-1.18009001922669E-13,-1.,1.27122046863652E-9));
#1080=DIRECTION('center_axis',(-5.90296229592577E-14,1.27122046863652E-9,
1.));
#1081=DIRECTION('ref_axis',(-1.18009001922669E-13,-1.,1.27122046863652E-9));
#1082=DIRECTION('center_axis',(-1.,4.01433662709709E-14,-1.22796230115595E-13));
#1083=DIRECTION('ref_axis',(-1.22796230064562E-13,1.27126837475999E-9,1.));
#1084=DIRECTION('',(1.24588243895244E-13,-1.27122542920867E-9,-1.));
#1085=DIRECTION('',(9.17424955638381E-14,-1.25060158104603E-9,-1.));
#1086=DIRECTION('center_axis',(5.38076498070735E-14,1.,-1.27122052414763E-9));
#1087=DIRECTION('ref_axis',(-7.01364659571913E-14,1.27122052414763E-9,1.));
#1088=DIRECTION('',(-6.21724893112645E-14,1.27122052414763E-9,1.));
#1089=DIRECTION('',(5.90893555307858E-14,-1.2712184651846E-9,-1.));
#1090=DIRECTION('center_axis',(1.,-5.2875917739382E-14,5.65943302093887E-14));
#1091=DIRECTION('ref_axis',(-5.28759178113255E-14,-1.,1.27121454744706E-9));
#1092=DIRECTION('',(-1.18766819521182E-13,1.27121402429251E-9,1.));
#1093=DIRECTION('center_axis',(1.,-5.2875917739382E-14,5.65943302093887E-14));
#1094=DIRECTION('ref_axis',(1.20301204675762E-13,-1.27122052414763E-9,-1.));
#1095=DIRECTION('center_axis',(-1.,6.47182965896828E-14,-1.18766819603452E-13));
#1096=DIRECTION('ref_axis',(-1.18766819521182E-13,1.27121402429251E-9,1.));
#1097=DIRECTION('center_axis',(5.90893555307851E-14,-1.2712229060767E-9,
-1.));
#1098=DIRECTION('ref_axis',(-1.18009001922669E-13,-1.,1.2712229060767E-9));
#1099=DIRECTION('center_axis',(1.2269512222037E-13,-1.27122366244648E-9,
-1.));
#1100=DIRECTION('ref_axis',(-1.18009001922669E-13,-1.,1.2712229060767E-9));
#1101=DIRECTION('',(-5.90893555307851E-14,1.2712229060767E-9,1.));
#1102=DIRECTION('center_axis',(1.2269512222037E-13,-1.27122366244648E-9,
-1.));
#1103=DIRECTION('ref_axis',(-4.01433664096272E-14,-1.,1.27122366244648E-9));
#1104=DIRECTION('center_axis',(-1.2269512222037E-13,1.27122366244648E-9,
1.));
#1105=DIRECTION('ref_axis',(-1.18009001922669E-13,-1.,1.27122209864178E-9));
#1106=DIRECTION('center_axis',(-6.23190952387859E-14,1.27122209864178E-9,
1.));
#1107=DIRECTION('ref_axis',(-1.18009001922669E-13,-1.,1.27122209864178E-9));
#1108=DIRECTION('',(-6.23190952387859E-14,1.27122209864178E-9,1.));
#1109=DIRECTION('center_axis',(5.90893555307858E-14,-1.2712184651846E-9,
-1.));
#1110=DIRECTION('ref_axis',(-1.18009001922669E-13,-1.,1.2712184651846E-9));
#1111=DIRECTION('center_axis',(5.90893555307851E-14,-1.2712229060767E-9,
-1.));
#1112=DIRECTION('ref_axis',(-1.18009001922669E-13,-1.,1.2712229060767E-9));
#1113=DIRECTION('',(5.90893555307851E-14,-1.2712229060767E-9,-1.));
#1114=DIRECTION('center_axis',(5.90296229592577E-14,-1.27122046863652E-9,
-1.));
#1115=DIRECTION('ref_axis',(-1.18009001922669E-13,-1.,1.2712229060767E-9));
#1116=DIRECTION('center_axis',(5.90295742910337E-14,-1.27122052414763E-9,
-1.));
#1117=DIRECTION('ref_axis',(-1.18009001922669E-13,-1.,1.27122144361259E-9));
#1118=DIRECTION('',(1.25271773377943E-13,0.707106780287646,-0.707106782085449));
#1119=DIRECTION('center_axis',(1.,-4.0143366255707E-14,1.20301204726793E-13));
#1120=DIRECTION('ref_axis',(1.20301204675762E-13,-1.27122052414763E-9,-1.));
#1121=DIRECTION('center_axis',(5.38076498070734E-14,1.,-1.27122052414763E-9));
#1122=DIRECTION('ref_axis',(-6.76414405685777E-14,1.27122052414763E-9,1.));
#1123=DIRECTION('',(-5.82860985606482E-14,1.2712224831346E-9,1.));
#1124=DIRECTION('center_axis',(-1.19988064848274E-13,1.27121727497317E-9,
1.));
#1125=DIRECTION('ref_axis',(4.01433664096264E-14,1.,-1.27121727497317E-9));
#1126=DIRECTION('center_axis',(1.19988064848274E-13,-1.27121727497317E-9,
-1.));
#1127=DIRECTION('ref_axis',(1.18009001922669E-13,1.,-1.27122209864178E-9));
#1128=DIRECTION('center_axis',(-1.19988064848274E-13,1.27121727497317E-9,
1.));
#1129=DIRECTION('ref_axis',(1.18009001922669E-13,1.,-1.27122046863652E-9));
#1130=DIRECTION('center_axis',(-1.,6.47182965896828E-14,-1.18766819603452E-13));
#1131=DIRECTION('ref_axis',(-1.18766819521182E-13,1.27121402429251E-9,1.));
#1132=DIRECTION('center_axis',(-5.65345975706441E-14,1.27122046863652E-9,
1.));
#1133=DIRECTION('ref_axis',(1.18009001922669E-13,1.,-1.27122046863652E-9));
#1134=DIRECTION('',(5.65345975706441E-14,-1.27122046863652E-9,-1.));
#1135=DIRECTION('center_axis',(1.,-4.01433662748025E-14,1.20301204726793E-13));
#1136=DIRECTION('ref_axis',(1.20301204675762E-13,-1.27122052414763E-9,-1.));
#1137=DIRECTION('',(-1.,4.01433662748025E-14,-1.20301204726793E-13));
#1138=DIRECTION('center_axis',(5.98240698501724E-14,-1.27122209864178E-9,
-1.));
#1139=DIRECTION('ref_axis',(1.18009001922669E-13,1.,-1.27122209864178E-9));
#1140=DIRECTION('',(5.98240698501724E-14,-1.27122209864178E-9,-1.));
#1141=DIRECTION('center_axis',(-5.82860985606482E-14,1.2712224831346E-9,
1.));
#1142=DIRECTION('ref_axis',(1.18009001922669E-13,1.,-1.2712224831346E-9));
#1143=CARTESIAN_POINT('',(0.,0.,0.));
#1144=CARTESIAN_POINT('Origin',(-0.501186082242839,103.019132768826,104.716695990137));
#1145=CARTESIAN_POINT('',(-0.50118608223991,105.019132679103,104.216695898508));
#1146=CARTESIAN_POINT('',(-0.501186082243046,101.019132857278,104.216695903592));
#1147=CARTESIAN_POINT('Ctrl Pts',(-0.50118608223991,105.019132679103,104.216695898508));
#1148=CARTESIAN_POINT('Ctrl Pts',(-0.752310547265332,105.019132679103,104.216695898507));
#1149=CARTESIAN_POINT('Ctrl Pts',(-1.0201736256685,104.968945400497,104.216695900806));
#1150=CARTESIAN_POINT('Ctrl Pts',(-1.51293226827168,104.764838087754,104.216695910157));
#1151=CARTESIAN_POINT('Ctrl Pts',(-1.7378278324717,104.610918053618,104.216695917208));
#1152=CARTESIAN_POINT('Ctrl Pts',(-2.09297145675437,104.255774429335,104.216695933478));
#1153=CARTESIAN_POINT('Ctrl Pts',(-2.24689149089115,104.030878865135,104.216695943782));
#1154=CARTESIAN_POINT('Ctrl Pts',(-2.45099880363397,103.538120222532,104.216695966357));
#1155=CARTESIAN_POINT('Ctrl Pts',(-2.50118608224001,103.270257144129,104.216695978629));
#1156=CARTESIAN_POINT('Ctrl Pts',(-2.50118608224004,102.768008214078,104.21669600164));
#1157=CARTESIAN_POINT('Ctrl Pts',(-2.45099880363403,102.500145135675,104.216696013912));
#1158=CARTESIAN_POINT('Ctrl Pts',(-2.24689149089129,102.007386493071,104.216696036488));
#1159=CARTESIAN_POINT('Ctrl Pts',(-2.09297145675452,101.782490928871,104.216696046792));
#1160=CARTESIAN_POINT('Ctrl Pts',(-1.73782783247191,101.427347304589,104.216696063063));
#1161=CARTESIAN_POINT('Ctrl Pts',(-1.51293226827193,101.273427270452,104.216696070115));
#1162=CARTESIAN_POINT('Ctrl Pts',(-1.02017362566877,101.069319957709,104.216696079467));
#1163=CARTESIAN_POINT('Ctrl Pts',(-0.752310547265589,101.019132679103,104.216696081767));
#1164=CARTESIAN_POINT('Ctrl Pts',(-0.501186082240166,101.019132679103,104.216696081767));
#1165=CARTESIAN_POINT('Ctrl Pts',(-0.501186082240166,101.019132679103,104.216696081767));
#1166=CARTESIAN_POINT('Ctrl Pts',(-0.250061617214743,101.019132679103,104.216696081767));
#1167=CARTESIAN_POINT('Ctrl Pts',(0.0178014611884239,101.069319957709,104.216696079468));
#1168=CARTESIAN_POINT('Ctrl Pts',(0.510560103791607,101.273427270452,104.216696070118));
#1169=CARTESIAN_POINT('Ctrl Pts',(0.735455667991626,101.427347304589,104.216696063067));
#1170=CARTESIAN_POINT('Ctrl Pts',(1.09059929227429,101.782490928871,104.216696046796));
#1171=CARTESIAN_POINT('Ctrl Pts',(1.24451932641107,102.007386493071,104.216696036493));
#1172=CARTESIAN_POINT('Ctrl Pts',(1.44862663915389,102.500145135674,104.216696013917));
#1173=CARTESIAN_POINT('Ctrl Pts',(1.49881391775993,102.768008214078,104.216696001645));
#1174=CARTESIAN_POINT('Ctrl Pts',(1.49881391775996,103.270257144128,104.216695978635));
#1175=CARTESIAN_POINT('Ctrl Pts',(1.44862663915395,103.538120222532,104.216695966363));
#1176=CARTESIAN_POINT('Ctrl Pts',(1.24451932641119,104.030878865135,104.216695943787));
#1177=CARTESIAN_POINT('Ctrl Pts',(1.09059929227444,104.255774429335,104.216695933483));
#1178=CARTESIAN_POINT('Ctrl Pts',(0.735455667991823,104.610918053617,104.216695917212));
#1179=CARTESIAN_POINT('Ctrl Pts',(0.510560103791833,104.764838087754,104.21669591016));
#1180=CARTESIAN_POINT('Ctrl Pts',(0.0178014611886765,104.968945400497,104.216695900808));
#1181=CARTESIAN_POINT('Ctrl Pts',(-0.25006161721449,105.019132679103,104.216695898508));
#1182=CARTESIAN_POINT('Ctrl Pts',(-0.501186082239911,105.019132679103,104.216695898508));
#1183=CARTESIAN_POINT('',(-0.501186082243221,100.019132769461,105.216695993951));
#1184=CARTESIAN_POINT('',(-0.501186082243133,100.519132768826,104.716695993315));
#1185=CARTESIAN_POINT('Origin',(-0.501186082242867,103.019132769462,105.216695990138));
#1186=CARTESIAN_POINT('Origin',(3.62481391775557,101.688131316139,100.416695991831));
#1187=CARTESIAN_POINT('',(-0.501186082246836,100.319133129335,100.416695993571));
#1188=CARTESIAN_POINT('',(-0.501186082246585,105.719133129335,100.416695986706));
#1189=CARTESIAN_POINT('Origin',(-0.50118608220936,103.019133129335,100.416695990138));
#1190=CARTESIAN_POINT('',(-0.501186082242504,98.4191323161391,100.416695995986));
#1191=CARTESIAN_POINT('',(-0.501186082246702,103.656695011217,100.416695989328));
#1192=CARTESIAN_POINT('',(-10.9011860822524,98.4191323161962,100.416695995985));
#1193=CARTESIAN_POINT('',(4.21181391773985,98.4191323134394,100.416695995986));
#1194=CARTESIAN_POINT('',(-10.9011860822521,116.319132096085,100.41669597323));
#1195=CARTESIAN_POINT('',(-10.9011860822531,100.053631816168,100.416695993907));
#1196=CARTESIAN_POINT('',(-0.50118608224163,116.319132096084,100.416695973231));
#1197=CARTESIAN_POINT('',(1.56181391775601,116.319132096084,100.416695973231));
#1198=CARTESIAN_POINT('',(-0.501186082242749,113.219132096084,100.416695977172));
#1199=CARTESIAN_POINT('',(-0.501186082246619,104.891131511217,100.416695987759));
#1200=CARTESIAN_POINT('',(-0.501186082246405,110.219132096084,100.416695980986));
#1201=CARTESIAN_POINT('Origin',(-0.501186082242801,111.719132096083,100.416695979077));
#1202=CARTESIAN_POINT('',(-0.501186082246619,104.891131511217,100.416695987759));
#1203=CARTESIAN_POINT('',(-6.63818608225103,105.669132206111,100.416695986769));
#1204=CARTESIAN_POINT('Origin',(-6.63818608225079,107.369132206111,100.416695984608));
#1205=CARTESIAN_POINT('',(-0.501186082240167,101.019132679103,100.416695987596));
#1206=CARTESIAN_POINT('Origin',(-0.501186082239968,103.01913267834,100.416695990138));
#1207=CARTESIAN_POINT('Origin',(-0.501186082240039,103.019132679103,101.016695961329));
#1208=CARTESIAN_POINT('',(-0.501186082240167,101.019132679103,101.016695961329));
#1209=CARTESIAN_POINT('Origin',(-0.501186082209433,103.019133130097,101.036330475986));
#1210=CARTESIAN_POINT('',(-0.501186082241729,105.71913313086,60.0167304759857));
#1211=CARTESIAN_POINT('',(-0.501186082246659,105.719133130097,101.036330475986));
#1212=CARTESIAN_POINT('',(-0.501186082207046,100.31913313086,60.0167304759857));
#1213=CARTESIAN_POINT('Origin',(-0.501186082206885,103.01913313086,60.0167299196975));
#1214=CARTESIAN_POINT('',(-0.50118608224691,100.319133130097,101.036330475986));
#1215=CARTESIAN_POINT('Origin',(-0.501186082245095,105.625258690159,87.7235112282015));
#1216=CARTESIAN_POINT('',(-0.501186082239571,110.21913201259,60.0167299105447));
#1217=CARTESIAN_POINT('',(-0.501186082245838,110.219132090103,95.7120092066336));
#1218=CARTESIAN_POINT('',(-0.501186082240939,111.297131817695,60.0167299091743));
#1219=CARTESIAN_POINT('Origin',(3.62481391776373,114.50013201259,60.0167299051031));
#1220=CARTESIAN_POINT('',(-0.501186082240862,113.219132012589,60.016729906731));
#1221=CARTESIAN_POINT('Origin',(-0.501186082240325,111.719132012589,60.0167299086366));
#1222=CARTESIAN_POINT('',(-0.501186082238248,116.31913201259,60.0167298560412));
#1223=CARTESIAN_POINT('',(-0.501186082240939,111.297131817695,60.0167299091743));
#1224=CARTESIAN_POINT('',(-10.9011860822484,116.319132012591,60.0167298560409));
#1225=CARTESIAN_POINT('',(4.21181391774336,116.319131914547,60.0167299027908));
#1226=CARTESIAN_POINT('',(-10.901186082248,98.4191322326456,60.0167299255437));
#1227=CARTESIAN_POINT('',(-10.9011860822484,115.409632012591,60.0167299039451));
#1228=CARTESIAN_POINT('',(-0.501186082237826,98.419132232645,60.016729925545));
#1229=CARTESIAN_POINT('',(4.21181391774643,98.4191322353443,60.0167299255457));
#1230=CARTESIAN_POINT('',(-0.501186082241022,110.062695317695,60.0167299107435));
#1231=CARTESIAN_POINT('',(-6.63818608224615,109.069132122618,60.0167299120066));
#1232=CARTESIAN_POINT('Origin',(-6.63818608224638,107.369132122618,60.0167299141676));
#1233=CARTESIAN_POINT('',(-0.501186082239083,105.019132679866,60.0167299171553));
#1234=CARTESIAN_POINT('Origin',(-0.501186082239319,103.019132679866,60.0167299196978));
#1235=CARTESIAN_POINT('Origin',(-0.501186082245095,105.625258690159,87.7235112282015));
#1236=CARTESIAN_POINT('',(-0.501186082246437,98.4191323055,96.4701036189902));
#1237=CARTESIAN_POINT('Origin',(4.49881391772363,111.719131304603,93.5151329790835));
#1238=CARTESIAN_POINT('',(4.49881391772353,111.719131306192,94.7651329790807));
#1239=CARTESIAN_POINT('Origin',(4.49881391772363,111.719131304603,93.5151329790807));
#1240=CARTESIAN_POINT('Origin',(0.580313917739052,115.319132386305,56.216729904062));
#1241=CARTESIAN_POINT('',(3.38459961966393,116.319132766122,57.216729902792));
#1242=CARTESIAN_POINT('',(2.55617323057798,114.319132006488,55.2167299053323));
#1243=CARTESIAN_POINT('',(2.9103069480558,115.174087514061,56.0716850870926));
#1244=CARTESIAN_POINT('',(-10.9011860822485,114.319132006488,55.2167299053314));
#1245=CARTESIAN_POINT('',(0.580313917739111,114.319132006488,55.2167299053321));
#1246=CARTESIAN_POINT('',(-10.901186082248,116.319131962343,57.2167299027911));
#1247=CARTESIAN_POINT('',(-10.9011860822473,122.294122281855,63.1917171415322));
#1248=CARTESIAN_POINT('',(0.580313917738993,116.319132766122,57.2167299027918));
#1249=CARTESIAN_POINT('Origin',(4.41640371840473,114.580221880226,56.7167299050005));
#1250=CARTESIAN_POINT('',(4.79881391772356,116.319132042439,58.2167299027899));
#1251=CARTESIAN_POINT('',(7.87689446473609,116.319132537423,60.3932618621483));
#1252=CARTESIAN_POINT('',(6.99881391772356,114.119131940271,58.2167299055883));
#1253=CARTESIAN_POINT('',(5.47706389821354,115.640882061964,58.2167299036522));
#1254=CARTESIAN_POINT('',(3.99881391772358,112.876491319373,55.2167299071663));
#1255=CARTESIAN_POINT('',(6.99881391772356,114.119131940271,58.2167299055868));
#1256=CARTESIAN_POINT('',(3.35574353859592,113.519561698487,55.2167299063487));
#1257=CARTESIAN_POINT('Origin',(4.79881391772357,116.319131606981,73.3167304449523));
#1258=CARTESIAN_POINT('',(-10.901186082248,116.319131960136,57.3167298794153));
#1259=CARTESIAN_POINT('',(-0.50118608224125,116.319131808866,64.170137378102));
#1260=CARTESIAN_POINT('',(-10.9011860822524,116.319132099646,103.216695926487));
#1261=CARTESIAN_POINT('',(-10.9011860822506,116.319132079688,87.5166961587236));
#1262=CARTESIAN_POINT('',(3.38460306679099,116.319129454293,103.216695926487));
#1263=CARTESIAN_POINT('',(0.58031391773454,116.319129454293,103.216695926487));
#1264=CARTESIAN_POINT('',(4.79881391772356,116.319132098373,102.216695973231));
#1265=CARTESIAN_POINT('',(11.1295786042987,116.319129848583,97.7401709201232));
#1266=CARTESIAN_POINT('',(4.79881391772356,116.319132066465,77.1167046411156));
#1267=CARTESIAN_POINT('Origin',(0.580313917734484,115.31913077824,104.21669595113));
#1268=CARTESIAN_POINT('',(2.55617323060224,114.319132102186,105.216695975773));
#1269=CARTESIAN_POINT('',(2.91030835643152,115.174085995693,104.361740929283));
#1270=CARTESIAN_POINT('',(-10.9011860822532,114.319132102186,105.216695975772));
#1271=CARTESIAN_POINT('',(-10.9011860822532,111.894136849498,107.641694498787));
#1272=CARTESIAN_POINT('',(0.580313917734427,114.319132102186,105.216695975773));
#1273=CARTESIAN_POINT('Origin',(4.41640371840836,114.58022195605,103.716695975441));
#1274=CARTESIAN_POINT('',(3.99881391772356,112.876491415096,105.216695977607));
#1275=CARTESIAN_POINT('',(3.3557435466399,113.519561786165,105.216695976789));
#1276=CARTESIAN_POINT('',(6.99881391772356,114.11913209842,102.216695976027));
#1277=CARTESIAN_POINT('',(6.99881391772356,114.11913209842,102.216695976027));
#1278=CARTESIAN_POINT('',(5.47706389017682,115.640882125934,102.216695974093));
#1279=CARTESIAN_POINT('Origin',(5.49881391772357,107.36913212648,56.7167299141682));
#1280=CARTESIAN_POINT('',(6.99881391772356,100.619132232285,58.2167299227482));
#1281=CARTESIAN_POINT('',(6.99881391772356,107.369132128387,58.2167299141691));
#1282=CARTESIAN_POINT('',(3.99881391772358,101.861772913662,55.2167299211684));
#1283=CARTESIAN_POINT('',(6.99881391772356,100.619132232285,58.2167299227482));
#1284=CARTESIAN_POINT('',(3.99881391772358,107.369132124573,55.2167299141673));
#1285=CARTESIAN_POINT('Origin',(4.41640372398853,100.158042379238,56.7167299233342));
#1286=CARTESIAN_POINT('',(4.79881391772356,98.4191322322847,58.2167299255448));
#1287=CARTESIAN_POINT('',(5.47706389528626,99.0973822098474,58.2167299246826));
#1288=CARTESIAN_POINT('',(0.55617323060426,98.4191322265428,55.2167299255465));
#1289=CARTESIAN_POINT('',(15.3957887041315,98.4191322466263,65.7099226570774));
#1290=CARTESIAN_POINT('',(3.3557435526908,101.218702548629,55.2167299219858));
#1291=CARTESIAN_POINT('Origin',(4.79881391772356,98.4191323222406,105.216695995987));
#1292=CARTESIAN_POINT('',(4.79881391772356,98.4191323164987,102.216695995985));
#1293=CARTESIAN_POINT('',(4.79881391772356,98.4191322983162,92.7167044812533));
#1294=CARTESIAN_POINT('',(0.556173230604252,98.4191323222406,105.216695995987));
#1295=CARTESIAN_POINT('',(3.61068367874415,98.4191323181067,103.0568309449));
#1296=CARTESIAN_POINT('',(-10.9011860822535,98.4191323222975,105.216695995984));
#1297=CARTESIAN_POINT('',(4.79881391772356,98.4191323222406,105.216695995987));
#1298=CARTESIAN_POINT('',(-10.9011860822529,98.4191323121408,97.2708941163038));
#1299=CARTESIAN_POINT('',(-10.9011860822482,98.4191322265432,55.2167299255439));
#1300=CARTESIAN_POINT('',(-10.9011860822506,98.4191322442826,69.1709277811125));
#1301=CARTESIAN_POINT('',(4.79881391772357,98.4191322265428,55.2167299255465));
#1302=CARTESIAN_POINT('Origin',(5.89881391772356,99.5191322983162,92.716704479148));
#1303=CARTESIAN_POINT('',(6.99881391772356,100.619132316499,102.216695969817));
#1304=CARTESIAN_POINT('',(6.99881391772356,100.619132298316,92.7167044770426));
#1305=CARTESIAN_POINT('',(5.47706388917827,99.0973822879535,102.216695995123));
#1306=CARTESIAN_POINT('Origin',(6.99881391772356,107.369132164412,80.2167129493895));
#1307=CARTESIAN_POINT('',(6.99881391772359,114.11913208507,91.7151340197054));
#1308=CARTESIAN_POINT('',(6.99881391772356,114.119131730585,67.7167214763048));
#1309=CARTESIAN_POINT('',(6.9988139177236,108.719131304603,93.5151329828956));
#1310=CARTESIAN_POINT('Origin',(6.99881391772359,111.719131304603,93.5151329790821));
#1311=CARTESIAN_POINT('',(6.99881391772359,114.119132089647,95.315131932357));
#1312=CARTESIAN_POINT('Origin',(6.99881391772359,111.719131304603,93.5151329790821));
#1313=CARTESIAN_POINT('',(6.99881391772356,114.119132066513,77.1167046439123));
#1314=CARTESIAN_POINT('',(6.99881391772356,107.36913220039,102.216695961236));
#1315=CARTESIAN_POINT('Origin',(5.89881391772356,115.219132066489,77.1167046425139));
#1316=CARTESIAN_POINT('Origin',(9.39881470053048,111.719131304603,93.5151329790821));
#1317=CARTESIAN_POINT('Origin',(5.49881391772356,107.369132202296,103.716695972922));
#1318=CARTESIAN_POINT('',(3.99881391772356,101.86177300936,105.216695991609));
#1319=CARTESIAN_POINT('',(3.99881391772356,107.369132204203,105.216695984608));
#1320=CARTESIAN_POINT('',(3.99881391772356,101.86177300936,105.216695991609));
#1321=CARTESIAN_POINT('Origin',(4.41640371691635,100.158042462122,103.716695993775));
#1322=CARTESIAN_POINT('',(3.35574354465443,101.218702636291,105.216695992427));
#1323=CARTESIAN_POINT('Origin',(-3.63818608225291,107.369132212214,105.216695984608));
#1324=CARTESIAN_POINT('',(-10.9011860822535,98.4191323222975,105.216695995984));
#1325=CARTESIAN_POINT('',(-6.63818608225216,104.619132212213,105.216695988103));
#1326=CARTESIAN_POINT('Origin',(-6.63818608225183,107.369132212213,105.216695984607));
#1327=CARTESIAN_POINT('',(-0.501186082243279,110.219132102185,105.216695980984));
#1328=CARTESIAN_POINT('',(-0.501186082242922,113.219132102185,105.21669597717));
#1329=CARTESIAN_POINT('Origin',(-0.501186082243109,111.719132102185,105.216695979077));
#1330=CARTESIAN_POINT('',(1.29881391767252,113.219132102185,105.216695977171));
#1331=CARTESIAN_POINT('',(0.298813917672524,113.219132102185,105.216695977171));
#1332=CARTESIAN_POINT('',(1.29881391767236,110.219132102185,105.216695980985));
#1333=CARTESIAN_POINT('',(1.29881391767236,110.219132102185,105.216695980985));
#1334=CARTESIAN_POINT('',(-3.10118608232152,110.219132102186,105.216695980985));
#1335=CARTESIAN_POINT('Origin',(-0.501186082242491,113.219132029497,73.3167302217637));
#1336=CARTESIAN_POINT('',(1.29881391767764,113.219132029416,73.3167304339105));
#1337=CARTESIAN_POINT('',(1.29881391767473,113.219132079272,87.1166959187077));
#1338=CARTESIAN_POINT('',(1.29881391767707,113.219132601867,65.3667301741486));
#1339=CARTESIAN_POINT('',(-0.50118608224559,113.219132079271,87.1166960020208));
#1340=CARTESIAN_POINT('',(1.19881391770108,113.219132079176,87.1166956428851));
#1341=CARTESIAN_POINT('',(-0.501186082242491,113.219132029492,73.316730448827));
#1342=CARTESIAN_POINT('',(-0.501186082242491,113.219132029492,73.316730448827));
#1343=CARTESIAN_POINT('',(1.19881391770209,113.219132029497,73.3167302217637));
#1344=CARTESIAN_POINT('Origin',(-0.900843637259881,110.219132100258,103.700507190905));
#1345=CARTESIAN_POINT('',(1.29881391767754,110.219132006488,55.2167299105442));
#1346=CARTESIAN_POINT('',(1.29881391767596,110.21913207084,80.558618550725));
#1347=CARTESIAN_POINT('',(-0.501185757531915,110.219132006487,55.2167299105436));
#1348=CARTESIAN_POINT('',(0.298813917677544,110.219132006488,55.2167299105441));
#1349=CARTESIAN_POINT('',(-0.501186082239287,110.219132006488,55.2167299105435));
#1350=CARTESIAN_POINT('',(-0.50118608224319,110.219132102186,105.216695980984));
#1351=CARTESIAN_POINT('Origin',(4.79881391772359,111.719131304603,93.5151329790821));
#1352=CARTESIAN_POINT('',(4.79881391772359,108.719131304603,93.5151329828956));
#1353=CARTESIAN_POINT('',(4.79881391772359,108.719131304603,93.5151329828956));
#1354=CARTESIAN_POINT('Origin',(4.79881391775422,111.719131304603,93.5151329790821));
#1355=CARTESIAN_POINT('Origin',(-3.63818608224641,107.369132116515,55.2167299141669));
#1356=CARTESIAN_POINT('',(-10.9011860822486,116.319132006488,55.216729902789));
#1357=CARTESIAN_POINT('',(-0.50118608223902,113.219132006487,55.2167299067299));
#1358=CARTESIAN_POINT('Origin',(-0.501186082239207,111.719132006487,55.2167299086367));
#1359=CARTESIAN_POINT('',(1.2988139176777,113.219132006487,55.2167299067305));
#1360=CARTESIAN_POINT('',(1.2988139176777,113.219132006487,55.2167299067305));
#1361=CARTESIAN_POINT('',(-3.10118608231616,113.219132006488,55.2167299067302));
#1362=CARTESIAN_POINT('',(-6.63818608224645,110.119132116515,55.2167299106708));
#1363=CARTESIAN_POINT('Origin',(-6.63818608224677,107.369132116515,55.2167299141667));
#1364=CARTESIAN_POINT('',(-0.501186082238646,106.019132673764,55.2167299158832));
#1365=CARTESIAN_POINT('Origin',(-0.501186082239,103.019132673764,55.2167299196969));
#1366=CARTESIAN_POINT('Origin',(-0.501186082242679,108.094131639462,73.1235446718692));
#1367=CARTESIAN_POINT('',(-0.501186082241601,113.219132012353,59.8303599067312));
#1368=CARTESIAN_POINT('',(-0.501186082246007,113.21913208497,91.6732590020208));
#1369=CARTESIAN_POINT('Origin',(-2.40118608231921,113.219131997473,48.1252339067322));
#1370=CARTESIAN_POINT('',(1.29881391767785,113.219132003378,52.7709819067316));
#1371=CARTESIAN_POINT('',(-0.501186082239126,113.219132006488,55.2167299067299));
#1372=CARTESIAN_POINT('Origin',(1.29881391767265,113.219132099389,103.016695977171));
#1373=CARTESIAN_POINT('',(1.29881391767366,113.219132096847,101.016695977172));
#1374=CARTESIAN_POINT('',(1.2988139176734,111.719131306192,94.7651329790802));
#1375=CARTESIAN_POINT('Origin',(1.29881391767355,111.719131304603,93.5151329790802));
#1376=CARTESIAN_POINT('Origin',(-10.9011860822533,98.4191323169588,101.016695995985));
#1377=CARTESIAN_POINT('Origin',(-6.63818608224619,107.369132119312,57.4167299141665));
#1378=CARTESIAN_POINT('',(-6.63818608224599,109.069132119312,57.4167299120065));
#1379=CARTESIAN_POINT('Origin',(-6.63818608224619,107.369132119312,57.4167299141677));
#1380=CARTESIAN_POINT('',(-6.63818608224599,109.069132119312,57.4167299120054));
#1381=CARTESIAN_POINT('Origin',(3.62481391775791,114.500132009285,57.4167299051032));
#1382=CARTESIAN_POINT('',(-6.6381860822466,110.119132119312,57.4167299106708));
#1383=CARTESIAN_POINT('Origin',(-6.63818608224692,107.369132119312,57.4167299141676));
#1384=CARTESIAN_POINT('Origin',(-6.63818608224692,107.369132119312,57.4167299141667));
#1385=CARTESIAN_POINT('',(-6.6381860822466,110.119132119312,57.4167299106708));
#1386=CARTESIAN_POINT('Origin',(-0.501186082239207,111.719132006487,55.2167299086367));
#1387=CARTESIAN_POINT('Origin',(-0.50118608223913,103.019132676561,57.4167299196973));
#1388=CARTESIAN_POINT('',(-0.501186082238823,105.019132675035,56.2167299171544));
#1389=CARTESIAN_POINT('',(-0.501186082238893,105.019132676561,57.4167299171549));
#1390=CARTESIAN_POINT('Origin',(-0.501186082239059,103.019132675035,56.2167299196969));
#1391=CARTESIAN_POINT('Origin',(-0.501186082239029,103.019132674399,55.7167299196969));
#1392=CARTESIAN_POINT('',(-0.501186082238734,105.519132674399,55.7167299165188));
#1393=CARTESIAN_POINT('Origin',(4.79881391775422,111.728131309771,95.4285304142411));
#1394=CARTESIAN_POINT('Origin',(-2.40118608232155,113.21913204817,62.725200459926));
#1395=CARTESIAN_POINT('',(-0.501186082243029,113.219132102186,105.21669597717));
#1396=CARTESIAN_POINT('Origin',(3.62481391774928,101.688131319444,103.016695991831));
#1397=CARTESIAN_POINT('',(-6.63818608225203,104.619132209416,103.016695988103));
#1398=CARTESIAN_POINT('Origin',(-6.63818608225171,107.369132209416,103.016695984608));
#1399=CARTESIAN_POINT('',(-6.63818608225118,105.669132209416,103.01669598677));
#1400=CARTESIAN_POINT('Origin',(-6.63818608225098,107.369132209416,103.016695984609));
#1401=CARTESIAN_POINT('Origin',(-10.9011860822533,98.4191323169588,101.016695995985));
#1402=CARTESIAN_POINT('Origin',(-6.63818608225092,107.369132208145,102.016695984607));
#1403=CARTESIAN_POINT('',(-6.63818608225112,105.669132208145,102.016695986768));
#1404=CARTESIAN_POINT('Origin',(1.84881391775248,111.719131304603,93.5151329790803));
#1405=CARTESIAN_POINT('',(1.84881391775233,111.719131306192,94.7651329790803));
#1406=CARTESIAN_POINT('Origin',(-6.63818608225171,107.369132209416,103.016695984607));
#1407=CARTESIAN_POINT('',(-6.63818608225203,104.619132209416,103.016695988103));
#1408=CARTESIAN_POINT('Origin',(-0.501186082243109,111.719132102185,105.216695979077));
#1409=UNCERTAINTY_MEASURE_WITH_UNIT(LENGTH_MEASURE(0.01),#1413,
'DISTANCE_ACCURACY_VALUE',
'Maximum model space distance between geometric entities at asserted c
onnectivities');
#1410=UNCERTAINTY_MEASURE_WITH_UNIT(LENGTH_MEASURE(0.01),#1413,
'DISTANCE_ACCURACY_VALUE',
'Maximum model space distance between geometric entities at asserted c
onnectivities');
#1411=(
GEOMETRIC_REPRESENTATION_CONTEXT(3)
GLOBAL_UNCERTAINTY_ASSIGNED_CONTEXT((#1409))
GLOBAL_UNIT_ASSIGNED_CONTEXT((#1413,#1415,#1416))
REPRESENTATION_CONTEXT('','3D')
);
#1412=(
GEOMETRIC_REPRESENTATION_CONTEXT(3)
GLOBAL_UNCERTAINTY_ASSIGNED_CONTEXT((#1410))
GLOBAL_UNIT_ASSIGNED_CONTEXT((#1413,#1415,#1416))
REPRESENTATION_CONTEXT('','3D')
);
#1413=(
LENGTH_UNIT()
NAMED_UNIT(*)
SI_UNIT(.MILLI.,.METRE.)
);
#1414=(
LENGTH_UNIT()
NAMED_UNIT(*)
SI_UNIT($,.METRE.)
);
#1415=(
NAMED_UNIT(*)
PLANE_ANGLE_UNIT()
SI_UNIT($,.RADIAN.)
);
#1416=(
NAMED_UNIT(*)
SI_UNIT($,.STERADIAN.)
SOLID_ANGLE_UNIT()
);
#1417=SHAPE_DEFINITION_REPRESENTATION(#1418,#1419);
#1418=PRODUCT_DEFINITION_SHAPE('',$,#1421);
#1419=SHAPE_REPRESENTATION('',(#846),#1411);
#1420=PRODUCT_DEFINITION_CONTEXT('part definition',#1425,'design');
#1421=PRODUCT_DEFINITION('2026-06-23-13-22-46-155','carriage-top-left',
#1422,#1420);
#1422=PRODUCT_DEFINITION_FORMATION('',$,#1427);
#1423=PRODUCT_RELATED_PRODUCT_CATEGORY('carriage-top-left',
'carriage-top-left',(#1427));
#1424=APPLICATION_PROTOCOL_DEFINITION('international standard',
'automotive_design',2009,#1425);
#1425=APPLICATION_CONTEXT(
'Core Data for Automotive Mechanical Design Process');
#1426=PRODUCT_CONTEXT('part definition',#1425,'mechanical');
#1427=PRODUCT('2026-06-23-13-22-46-155','carriage-top-left',$,(#1426));
#1428=PRESENTATION_STYLE_ASSIGNMENT((#1430));
#1429=PRESENTATION_STYLE_ASSIGNMENT((#1431));
#1430=SURFACE_STYLE_USAGE(.BOTH.,#1432);
#1431=SURFACE_STYLE_USAGE(.BOTH.,#1433);
#1432=SURFACE_SIDE_STYLE('',(#1434));
#1433=SURFACE_SIDE_STYLE('',(#1435));
#1434=SURFACE_STYLE_FILL_AREA(#1436);
#1435=SURFACE_STYLE_FILL_AREA(#1437);
#1436=FILL_AREA_STYLE('Steel - Satin',(#1438));
#1437=FILL_AREA_STYLE('ABS (White)',(#1439));
#1438=FILL_AREA_STYLE_COLOUR('Steel - Satin',#1440);
#1439=FILL_AREA_STYLE_COLOUR('ABS (White)',#1441);
#1440=COLOUR_RGB('Steel - Satin',0.627450980392157,0.627450980392157,0.627450980392157);
#1441=COLOUR_RGB('ABS (White)',0.964705882352941,0.964705882352941,0.952941176470588);
ENDSEC;
END-ISO-10303-21;
