ISO-10303-21;
HEADER;
/* Generated by software containing ST-Developer
 * from STEP Tools, Inc. (www.steptools.com) 
 */

FILE_DESCRIPTION(
/* description */ (''),
/* implementation_level */ '2;1');

FILE_NAME(
/* name */ 'carriage-bottom-left.step',
/* time_stamp */ '2026-06-23T13:23:13-07:00',
/* author */ (''),
/* organization */ (''),
/* preprocessor_version */ 'ST-DEVELOPER v20.1',
/* originating_system */ 'Autodesk Translation Framework v15.8.0.0',
/* authorisation */ '');

FILE_SCHEMA (('AUTOMOTIVE_DESIGN { 1 0 10303 214 3 1 1 }'));
ENDSEC;

DATA;
#10=MECHANICAL_DESIGN_GEOMETRIC_PRESENTATION_REPRESENTATION('',(#13),#1207);
#11=SHAPE_REPRESENTATION_RELATIONSHIP('SRR','None',#1214,#12);
#12=ADVANCED_BREP_SHAPE_REPRESENTATION('',(#14),#1206);
#13=STYLED_ITEM('',(#1224),#14);
#14=MANIFOLD_SOLID_BREP('Body2',#699);
#15=CONICAL_SURFACE('',#762,2.4,0.380506377112366);
#16=CONICAL_SURFACE('',#763,2.4,0.380506377112366);
#17=(
BOUNDED_CURVE()
B_SPLINE_CURVE(2,(#1178,#1179,#1180,#1181),.UNSPECIFIED.,.F.,.F.)
B_SPLINE_CURVE_WITH_KNOTS((3,1,3),(11647.7498834342,15179.4785378848,18125.7912597105),
 .UNSPECIFIED.)
CURVE()
GEOMETRIC_REPRESENTATION_ITEM()
RATIONAL_B_SPLINE_CURVE((13246.9774398225,12891.1565552643,9608.97528236217,
7118.48159596897))
REPRESENTATION_ITEM('')
);
#18=(
BOUNDED_CURVE()
B_SPLINE_CURVE(2,(#1182,#1183,#1184,#1185,#1186),.UNSPECIFIED.,.F.,.F.)
B_SPLINE_CURVE_WITH_KNOTS((3,1,1,3),(3416.51979875124,4868.65566042363,
8018.17436760559,9894.56117501474),.UNSPECIFIED.)
CURVE()
GEOMETRIC_REPRESENTATION_ITEM()
RATIONAL_B_SPLINE_CURVE((7118.48159600215,8345.95998567882,11467.6906999155,
13057.9318819951,13246.9774398239))
REPRESENTATION_ITEM('')
);
#19=(
BOUNDED_CURVE()
B_SPLINE_CURVE(2,(#1188,#1189,#1190,#1191,#1192),.UNSPECIFIED.,.F.,.F.)
B_SPLINE_CURVE_WITH_KNOTS((3,1,1,3),(3416.5230195578,4868.65190899964,8018.16654255211,
9894.59570743757),.UNSPECIFIED.)
CURVE()
GEOMETRIC_REPRESENTATION_ITEM()
RATIONAL_B_SPLINE_CURVE((7118.47961384682,8345.95029151396,11467.6722387438,
13057.928394695,13246.9705752914))
REPRESENTATION_ITEM('')
);
#20=(
BOUNDED_CURVE()
B_SPLINE_CURVE(2,(#1193,#1194,#1195,#1196),.UNSPECIFIED.,.F.,.F.)
B_SPLINE_CURVE_WITH_KNOTS((3,1,3),(11647.7153502736,15179.4732382996,18125.7880381355),
 .UNSPECIFIED.)
CURVE()
GEOMETRIC_REPRESENTATION_ITEM()
RATIONAL_B_SPLINE_CURVE((13246.9705752923,12891.161134157,9608.97136723992,
7118.47961388428))
REPRESENTATION_ITEM('')
);
#21=B_SPLINE_CURVE_WITH_KNOTS('',3,(#1057,#1058,#1059,#1060,#1061,#1062,
#1063,#1064,#1065,#1066,#1067,#1068,#1069,#1070,#1071,#1072,#1073,#1074,
#1075,#1076,#1077,#1078,#1079),.UNSPECIFIED.,.F.,.F.,(4,2,2,2,2,2,2,2,2,
3,4),(0.52270889919756,0.53513259380545,0.587455620530377,0.639778647255303,
0.691028797789282,0.742278948323262,0.793529097647243,0.844779246971224,
0.897102276765652,0.94942530656008,0.961848975377433),.UNSPECIFIED.);
#22=B_SPLINE_CURVE_WITH_KNOTS('',3,(#1154,#1155,#1156,#1157,#1158,#1159,
#1160,#1161,#1162,#1163,#1164,#1165,#1166,#1167,#1168,#1169,#1170,#1171,
#1172,#1173,#1174,#1175,#1176),.UNSPECIFIED.,.F.,.F.,(4,2,2,2,2,2,2,2,2,
3,4),(0.522708924988273,0.535132593805455,0.587455623599882,0.63977865339431,
0.691028802718294,0.742278952042279,0.793529102576258,0.844779253110238,
0.897102279835166,0.949425306560093,0.961848999454857),.UNSPECIFIED.);
#23=CYLINDRICAL_SURFACE('',#717,2.7);
#24=CYLINDRICAL_SURFACE('',#732,1.49999999999998);
#25=CYLINDRICAL_SURFACE('',#733,1.25);
#26=CYLINDRICAL_SURFACE('',#739,1.25);
#27=CYLINDRICAL_SURFACE('',#746,1.25);
#28=CYLINDRICAL_SURFACE('',#759,1.49999999999998);
#29=CYLINDRICAL_SURFACE('',#766,1.25);
#30=FACE_BOUND('',#77,.T.);
#31=FACE_BOUND('',#81,.T.);
#32=FACE_BOUND('',#85,.T.);
#33=FACE_BOUND('',#86,.T.);
#34=FACE_BOUND('',#87,.T.);
#35=FACE_BOUND('',#88,.T.);
#36=FACE_BOUND('',#103,.T.);
#37=FACE_BOUND('',#104,.T.);
#38=FACE_BOUND('',#105,.T.);
#39=FACE_BOUND('',#106,.T.);
#40=FACE_OUTER_BOUND('',#76,.T.);
#41=FACE_OUTER_BOUND('',#78,.T.);
#42=FACE_OUTER_BOUND('',#79,.T.);
#43=FACE_OUTER_BOUND('',#80,.T.);
#44=FACE_OUTER_BOUND('',#82,.T.);
#45=FACE_OUTER_BOUND('',#83,.T.);
#46=FACE_OUTER_BOUND('',#84,.T.);
#47=FACE_OUTER_BOUND('',#89,.T.);
#48=FACE_OUTER_BOUND('',#90,.T.);
#49=FACE_OUTER_BOUND('',#91,.T.);
#50=FACE_OUTER_BOUND('',#92,.T.);
#51=FACE_OUTER_BOUND('',#93,.T.);
#52=FACE_OUTER_BOUND('',#94,.T.);
#53=FACE_OUTER_BOUND('',#95,.T.);
#54=FACE_OUTER_BOUND('',#96,.T.);
#55=FACE_OUTER_BOUND('',#97,.T.);
#56=FACE_OUTER_BOUND('',#98,.T.);
#57=FACE_OUTER_BOUND('',#99,.T.);
#58=FACE_OUTER_BOUND('',#100,.T.);
#59=FACE_OUTER_BOUND('',#101,.T.);
#60=FACE_OUTER_BOUND('',#102,.T.);
#61=FACE_OUTER_BOUND('',#107,.T.);
#62=FACE_OUTER_BOUND('',#108,.T.);
#63=FACE_OUTER_BOUND('',#109,.T.);
#64=FACE_OUTER_BOUND('',#110,.T.);
#65=FACE_OUTER_BOUND('',#111,.T.);
#66=FACE_OUTER_BOUND('',#112,.T.);
#67=FACE_OUTER_BOUND('',#113,.T.);
#68=FACE_OUTER_BOUND('',#114,.T.);
#69=FACE_OUTER_BOUND('',#115,.T.);
#70=FACE_OUTER_BOUND('',#116,.T.);
#71=FACE_OUTER_BOUND('',#117,.T.);
#72=FACE_OUTER_BOUND('',#118,.T.);
#73=FACE_OUTER_BOUND('',#119,.T.);
#74=FACE_OUTER_BOUND('',#120,.T.);
#75=FACE_OUTER_BOUND('',#121,.T.);
#76=EDGE_LOOP('',(#444,#445,#446,#447,#448,#449,#450,#451));
#77=EDGE_LOOP('',(#452));
#78=EDGE_LOOP('',(#453,#454,#455,#456));
#79=EDGE_LOOP('',(#457,#458,#459,#460,#461,#462,#463,#464));
#80=EDGE_LOOP('',(#465,#466,#467,#468,#469,#470,#471,#472));
#81=EDGE_LOOP('',(#473));
#82=EDGE_LOOP('',(#474,#475,#476,#477));
#83=EDGE_LOOP('',(#478,#479,#480,#481,#482,#483));
#84=EDGE_LOOP('',(#484,#485,#486,#487,#488,#489,#490,#491));
#85=EDGE_LOOP('',(#492,#493,#494,#495));
#86=EDGE_LOOP('',(#496));
#87=EDGE_LOOP('',(#497,#498,#499,#500));
#88=EDGE_LOOP('',(#501));
#89=EDGE_LOOP('',(#502,#503,#504,#505));
#90=EDGE_LOOP('',(#506,#507,#508,#509,#510));
#91=EDGE_LOOP('',(#511,#512,#513,#514));
#92=EDGE_LOOP('',(#515,#516,#517,#518));
#93=EDGE_LOOP('',(#519,#520,#521,#522));
#94=EDGE_LOOP('',(#523,#524,#525,#526));
#95=EDGE_LOOP('',(#527,#528,#529,#530));
#96=EDGE_LOOP('',(#531,#532,#533,#534));
#97=EDGE_LOOP('',(#535,#536,#537,#538));
#98=EDGE_LOOP('',(#539,#540,#541,#542));
#99=EDGE_LOOP('',(#543,#544,#545,#546));
#100=EDGE_LOOP('',(#547,#548,#549,#550));
#101=EDGE_LOOP('',(#551,#552,#553,#554));
#102=EDGE_LOOP('',(#555,#556,#557,#558,#559,#560,#561,#562));
#103=EDGE_LOOP('',(#563,#564,#565,#566));
#104=EDGE_LOOP('',(#567));
#105=EDGE_LOOP('',(#568,#569,#570,#571));
#106=EDGE_LOOP('',(#572));
#107=EDGE_LOOP('',(#573,#574,#575,#576));
#108=EDGE_LOOP('',(#577));
#109=EDGE_LOOP('',(#578,#579,#580,#581,#582,#583,#584,#585));
#110=EDGE_LOOP('',(#586,#587,#588,#589));
#111=EDGE_LOOP('',(#590,#591,#592,#593));
#112=EDGE_LOOP('',(#594,#595,#596,#597,#598));
#113=EDGE_LOOP('',(#599,#600,#601,#602));
#114=EDGE_LOOP('',(#603,#604,#605,#606));
#115=EDGE_LOOP('',(#607,#608,#609,#610));
#116=EDGE_LOOP('',(#611,#612,#613,#614));
#117=EDGE_LOOP('',(#615,#616,#617,#618));
#118=EDGE_LOOP('',(#619,#620,#621,#622,#623,#624));
#119=EDGE_LOOP('',(#625,#626,#627,#628,#629,#630));
#120=EDGE_LOOP('',(#631));
#121=EDGE_LOOP('',(#632,#633,#634,#635));
#122=LINE('',#955,#194);
#123=LINE('',#959,#195);
#124=LINE('',#961,#196);
#125=LINE('',#963,#197);
#126=LINE('',#965,#198);
#127=LINE('',#966,#199);
#128=LINE('',#971,#200);
#129=LINE('',#974,#201);
#130=LINE('',#977,#202);
#131=LINE('',#979,#203);
#132=LINE('',#983,#204);
#133=LINE('',#986,#205);
#134=LINE('',#989,#206);
#135=LINE('',#991,#207);
#136=LINE('',#993,#208);
#137=LINE('',#995,#209);
#138=LINE('',#997,#210);
#139=LINE('',#1004,#211);
#140=LINE('',#1006,#212);
#141=LINE('',#1008,#213);
#142=LINE('',#1009,#214);
#143=LINE('',#1012,#215);
#144=LINE('',#1014,#216);
#145=LINE('',#1016,#217);
#146=LINE('',#1018,#218);
#147=LINE('',#1019,#219);
#148=LINE('',#1021,#220);
#149=LINE('',#1022,#221);
#150=LINE('',#1024,#222);
#151=LINE('',#1025,#223);
#152=LINE('',#1028,#224);
#153=LINE('',#1030,#225);
#154=LINE('',#1032,#226);
#155=LINE('',#1033,#227);
#156=LINE('',#1038,#228);
#157=LINE('',#1040,#229);
#158=LINE('',#1042,#230);
#159=LINE('',#1043,#231);
#160=LINE('',#1048,#232);
#161=LINE('',#1049,#233);
#162=LINE('',#1052,#234);
#163=LINE('',#1053,#235);
#164=LINE('',#1056,#236);
#165=LINE('',#1082,#237);
#166=LINE('',#1087,#238);
#167=LINE('',#1088,#239);
#168=LINE('',#1089,#240);
#169=LINE('',#1092,#241);
#170=LINE('',#1093,#242);
#171=LINE('',#1096,#243);
#172=LINE('',#1097,#244);
#173=LINE('',#1099,#245);
#174=LINE('',#1102,#246);
#175=LINE('',#1107,#247);
#176=LINE('',#1108,#248);
#177=LINE('',#1109,#249);
#178=LINE('',#1112,#250);
#179=LINE('',#1113,#251);
#180=LINE('',#1116,#252);
#181=LINE('',#1117,#253);
#182=LINE('',#1119,#254);
#183=LINE('',#1121,#255);
#184=LINE('',#1123,#256);
#185=LINE('',#1124,#257);
#186=LINE('',#1125,#258);
#187=LINE('',#1128,#259);
#188=LINE('',#1133,#260);
#189=LINE('',#1137,#261);
#190=LINE('',#1142,#262);
#191=LINE('',#1147,#263);
#192=LINE('',#1151,#264);
#193=LINE('',#1203,#265);
#194=VECTOR('',#773,10.);
#195=VECTOR('',#776,10.);
#196=VECTOR('',#777,10.);
#197=VECTOR('',#778,10.);
#198=VECTOR('',#779,10.);
#199=VECTOR('',#780,10.);
#200=VECTOR('',#785,10.);
#201=VECTOR('',#788,10.);
#202=VECTOR('',#791,10.);
#203=VECTOR('',#792,10.);
#204=VECTOR('',#795,10.);
#205=VECTOR('',#798,10.);
#206=VECTOR('',#801,10.);
#207=VECTOR('',#802,10.);
#208=VECTOR('',#803,10.);
#209=VECTOR('',#804,10.);
#210=VECTOR('',#805,10.);
#211=VECTOR('',#812,10.);
#212=VECTOR('',#813,10.);
#213=VECTOR('',#814,10.);
#214=VECTOR('',#815,10.);
#215=VECTOR('',#818,10.);
#216=VECTOR('',#819,10.);
#217=VECTOR('',#820,10.);
#218=VECTOR('',#821,10.);
#219=VECTOR('',#822,10.);
#220=VECTOR('',#825,10.);
#221=VECTOR('',#826,10.);
#222=VECTOR('',#827,10.);
#223=VECTOR('',#828,10.);
#224=VECTOR('',#829,10.);
#225=VECTOR('',#830,10.);
#226=VECTOR('',#831,10.);
#227=VECTOR('',#832,10.);
#228=VECTOR('',#835,10.);
#229=VECTOR('',#836,10.);
#230=VECTOR('',#837,10.);
#231=VECTOR('',#838,10.);
#232=VECTOR('',#843,10.);
#233=VECTOR('',#844,10.);
#234=VECTOR('',#847,10.);
#235=VECTOR('',#848,10.);
#236=VECTOR('',#851,1.49999999999998);
#237=VECTOR('',#854,1.25);
#238=VECTOR('',#859,10.);
#239=VECTOR('',#860,10.);
#240=VECTOR('',#861,10.);
#241=VECTOR('',#864,10.);
#242=VECTOR('',#865,10.);
#243=VECTOR('',#868,10.);
#244=VECTOR('',#869,10.);
#245=VECTOR('',#872,10.);
#246=VECTOR('',#875,1.25);
#247=VECTOR('',#880,10.);
#248=VECTOR('',#881,10.);
#249=VECTOR('',#882,10.);
#250=VECTOR('',#885,10.);
#251=VECTOR('',#886,10.);
#252=VECTOR('',#889,10.);
#253=VECTOR('',#890,10.);
#254=VECTOR('',#893,10.);
#255=VECTOR('',#896,10.);
#256=VECTOR('',#897,10.);
#257=VECTOR('',#898,10.);
#258=VECTOR('',#899,10.);
#259=VECTOR('',#902,1.25);
#260=VECTOR('',#909,10.);
#261=VECTOR('',#912,10.);
#262=VECTOR('',#921,10.);
#263=VECTOR('',#926,10.);
#264=VECTOR('',#929,10.);
#265=VECTOR('',#948,1.25);
#266=CIRCLE('',#714,2.7);
#267=CIRCLE('',#715,1.49999999999999);
#268=CIRCLE('',#716,1.25);
#269=CIRCLE('',#718,2.7);
#270=CIRCLE('',#720,4.1200000000308);
#271=CIRCLE('',#721,4.1200000000308);
#272=CIRCLE('',#723,1.49999999999998);
#273=CIRCLE('',#724,1.25);
#274=CIRCLE('',#728,1.25);
#275=CIRCLE('',#729,1.25);
#276=CIRCLE('',#734,1.25);
#277=CIRCLE('',#740,1.25);
#278=CIRCLE('',#747,1.25);
#279=CIRCLE('',#750,4.1200000000308);
#280=CIRCLE('',#751,4.1200000000308);
#281=CIRCLE('',#757,1.52000000002156);
#282=CIRCLE('',#758,1.52000000002156);
#283=CIRCLE('',#765,1.25);
#284=VERTEX_POINT('',#951);
#285=VERTEX_POINT('',#952);
#286=VERTEX_POINT('',#954);
#287=VERTEX_POINT('',#956);
#288=VERTEX_POINT('',#958);
#289=VERTEX_POINT('',#960);
#290=VERTEX_POINT('',#962);
#291=VERTEX_POINT('',#964);
#292=VERTEX_POINT('',#967);
#293=VERTEX_POINT('',#970);
#294=VERTEX_POINT('',#972);
#295=VERTEX_POINT('',#976);
#296=VERTEX_POINT('',#978);
#297=VERTEX_POINT('',#980);
#298=VERTEX_POINT('',#982);
#299=VERTEX_POINT('',#984);
#300=VERTEX_POINT('',#988);
#301=VERTEX_POINT('',#990);
#302=VERTEX_POINT('',#992);
#303=VERTEX_POINT('',#994);
#304=VERTEX_POINT('',#996);
#305=VERTEX_POINT('',#999);
#306=VERTEX_POINT('',#1002);
#307=VERTEX_POINT('',#1003);
#308=VERTEX_POINT('',#1005);
#309=VERTEX_POINT('',#1007);
#310=VERTEX_POINT('',#1011);
#311=VERTEX_POINT('',#1013);
#312=VERTEX_POINT('',#1015);
#313=VERTEX_POINT('',#1017);
#314=VERTEX_POINT('',#1023);
#315=VERTEX_POINT('',#1026);
#316=VERTEX_POINT('',#1027);
#317=VERTEX_POINT('',#1029);
#318=VERTEX_POINT('',#1031);
#319=VERTEX_POINT('',#1034);
#320=VERTEX_POINT('',#1036);
#321=VERTEX_POINT('',#1037);
#322=VERTEX_POINT('',#1039);
#323=VERTEX_POINT('',#1041);
#324=VERTEX_POINT('',#1044);
#325=VERTEX_POINT('',#1047);
#326=VERTEX_POINT('',#1051);
#327=VERTEX_POINT('',#1055);
#328=VERTEX_POINT('',#1081);
#329=VERTEX_POINT('',#1085);
#330=VERTEX_POINT('',#1086);
#331=VERTEX_POINT('',#1091);
#332=VERTEX_POINT('',#1095);
#333=VERTEX_POINT('',#1101);
#334=VERTEX_POINT('',#1105);
#335=VERTEX_POINT('',#1106);
#336=VERTEX_POINT('',#1111);
#337=VERTEX_POINT('',#1115);
#338=VERTEX_POINT('',#1122);
#339=VERTEX_POINT('',#1127);
#340=VERTEX_POINT('',#1132);
#341=VERTEX_POINT('',#1134);
#342=VERTEX_POINT('',#1136);
#343=VERTEX_POINT('',#1145);
#344=VERTEX_POINT('',#1146);
#345=VERTEX_POINT('',#1148);
#346=VERTEX_POINT('',#1150);
#347=VERTEX_POINT('',#1200);
#348=EDGE_CURVE('',#284,#285,#266,.T.);
#349=EDGE_CURVE('',#284,#286,#122,.T.);
#350=EDGE_CURVE('',#286,#287,#267,.F.);
#351=EDGE_CURVE('',#287,#288,#123,.T.);
#352=EDGE_CURVE('',#288,#289,#124,.T.);
#353=EDGE_CURVE('',#289,#290,#125,.T.);
#354=EDGE_CURVE('',#290,#291,#126,.T.);
#355=EDGE_CURVE('',#291,#285,#127,.T.);
#356=EDGE_CURVE('',#292,#292,#268,.T.);
#357=EDGE_CURVE('',#293,#285,#128,.T.);
#358=EDGE_CURVE('',#294,#293,#269,.T.);
#359=EDGE_CURVE('',#284,#294,#129,.T.);
#360=EDGE_CURVE('',#294,#295,#130,.T.);
#361=EDGE_CURVE('',#295,#296,#131,.F.);
#362=EDGE_CURVE('',#296,#297,#270,.T.);
#363=EDGE_CURVE('',#297,#298,#132,.T.);
#364=EDGE_CURVE('',#298,#299,#271,.T.);
#365=EDGE_CURVE('',#286,#299,#133,.T.);
#366=EDGE_CURVE('',#300,#293,#134,.T.);
#367=EDGE_CURVE('',#300,#301,#135,.T.);
#368=EDGE_CURVE('',#302,#301,#136,.T.);
#369=EDGE_CURVE('',#302,#303,#137,.T.);
#370=EDGE_CURVE('',#304,#303,#138,.T.);
#371=EDGE_CURVE('',#304,#295,#272,.T.);
#372=EDGE_CURVE('',#305,#305,#273,.T.);
#373=EDGE_CURVE('',#306,#307,#139,.T.);
#374=EDGE_CURVE('',#307,#308,#140,.T.);
#375=EDGE_CURVE('',#308,#309,#141,.T.);
#376=EDGE_CURVE('',#309,#306,#142,.T.);
#377=EDGE_CURVE('',#306,#310,#143,.T.);
#378=EDGE_CURVE('',#311,#310,#144,.T.);
#379=EDGE_CURVE('',#311,#312,#145,.T.);
#380=EDGE_CURVE('',#313,#312,#146,.T.);
#381=EDGE_CURVE('',#307,#313,#147,.T.);
#382=EDGE_CURVE('',#289,#309,#148,.T.);
#383=EDGE_CURVE('',#303,#288,#149,.T.);
#384=EDGE_CURVE('',#302,#314,#150,.T.);
#385=EDGE_CURVE('',#310,#314,#151,.T.);
#386=EDGE_CURVE('',#315,#316,#152,.T.);
#387=EDGE_CURVE('',#316,#317,#153,.T.);
#388=EDGE_CURVE('',#317,#318,#154,.T.);
#389=EDGE_CURVE('',#318,#315,#155,.T.);
#390=EDGE_CURVE('',#319,#319,#274,.T.);
#391=EDGE_CURVE('',#320,#321,#156,.T.);
#392=EDGE_CURVE('',#321,#322,#157,.T.);
#393=EDGE_CURVE('',#322,#323,#158,.T.);
#394=EDGE_CURVE('',#323,#320,#159,.T.);
#395=EDGE_CURVE('',#324,#324,#275,.T.);
#396=EDGE_CURVE('',#314,#325,#160,.T.);
#397=EDGE_CURVE('',#325,#311,#161,.T.);
#398=EDGE_CURVE('',#326,#301,#162,.T.);
#399=EDGE_CURVE('',#325,#326,#163,.T.);
#400=EDGE_CURVE('',#304,#327,#164,.T.);
#401=EDGE_CURVE('',#327,#296,#21,.T.);
#402=EDGE_CURVE('',#324,#328,#165,.T.);
#403=EDGE_CURVE('',#328,#328,#276,.T.);
#404=EDGE_CURVE('',#329,#330,#166,.T.);
#405=EDGE_CURVE('',#323,#329,#167,.T.);
#406=EDGE_CURVE('',#322,#330,#168,.T.);
#407=EDGE_CURVE('',#330,#331,#169,.T.);
#408=EDGE_CURVE('',#321,#331,#170,.T.);
#409=EDGE_CURVE('',#331,#332,#171,.T.);
#410=EDGE_CURVE('',#320,#332,#172,.T.);
#411=EDGE_CURVE('',#332,#329,#173,.T.);
#412=EDGE_CURVE('',#319,#333,#174,.T.);
#413=EDGE_CURVE('',#333,#333,#277,.T.);
#414=EDGE_CURVE('',#334,#335,#175,.T.);
#415=EDGE_CURVE('',#317,#334,#176,.T.);
#416=EDGE_CURVE('',#316,#335,#177,.T.);
#417=EDGE_CURVE('',#335,#336,#178,.T.);
#418=EDGE_CURVE('',#315,#336,#179,.T.);
#419=EDGE_CURVE('',#336,#337,#180,.T.);
#420=EDGE_CURVE('',#318,#337,#181,.T.);
#421=EDGE_CURVE('',#337,#334,#182,.T.);
#422=EDGE_CURVE('',#300,#291,#183,.T.);
#423=EDGE_CURVE('',#338,#290,#184,.T.);
#424=EDGE_CURVE('',#313,#338,#185,.T.);
#425=EDGE_CURVE('',#312,#326,#186,.T.);
#426=EDGE_CURVE('',#305,#339,#187,.T.);
#427=EDGE_CURVE('',#339,#339,#278,.T.);
#428=EDGE_CURVE('',#287,#340,#188,.F.);
#429=EDGE_CURVE('',#340,#341,#279,.T.);
#430=EDGE_CURVE('',#342,#341,#189,.T.);
#431=EDGE_CURVE('',#342,#327,#280,.T.);
#432=EDGE_CURVE('',#308,#338,#190,.T.);
#433=EDGE_CURVE('',#343,#344,#191,.T.);
#434=EDGE_CURVE('',#345,#343,#281,.F.);
#435=EDGE_CURVE('',#346,#345,#192,.T.);
#436=EDGE_CURVE('',#344,#346,#282,.F.);
#437=EDGE_CURVE('',#299,#340,#22,.T.);
#438=EDGE_CURVE('',#298,#345,#17,.F.);
#439=EDGE_CURVE('',#346,#297,#18,.F.);
#440=EDGE_CURVE('',#342,#344,#19,.T.);
#441=EDGE_CURVE('',#343,#341,#20,.T.);
#442=EDGE_CURVE('',#347,#347,#283,.T.);
#443=EDGE_CURVE('',#292,#347,#193,.T.);
#444=ORIENTED_EDGE('',*,*,#348,.F.);
#445=ORIENTED_EDGE('',*,*,#349,.T.);
#446=ORIENTED_EDGE('',*,*,#350,.T.);
#447=ORIENTED_EDGE('',*,*,#351,.T.);
#448=ORIENTED_EDGE('',*,*,#352,.T.);
#449=ORIENTED_EDGE('',*,*,#353,.T.);
#450=ORIENTED_EDGE('',*,*,#354,.T.);
#451=ORIENTED_EDGE('',*,*,#355,.T.);
#452=ORIENTED_EDGE('',*,*,#356,.T.);
#453=ORIENTED_EDGE('',*,*,#348,.T.);
#454=ORIENTED_EDGE('',*,*,#357,.F.);
#455=ORIENTED_EDGE('',*,*,#358,.F.);
#456=ORIENTED_EDGE('',*,*,#359,.F.);
#457=ORIENTED_EDGE('',*,*,#349,.F.);
#458=ORIENTED_EDGE('',*,*,#359,.T.);
#459=ORIENTED_EDGE('',*,*,#360,.T.);
#460=ORIENTED_EDGE('',*,*,#361,.T.);
#461=ORIENTED_EDGE('',*,*,#362,.T.);
#462=ORIENTED_EDGE('',*,*,#363,.T.);
#463=ORIENTED_EDGE('',*,*,#364,.T.);
#464=ORIENTED_EDGE('',*,*,#365,.F.);
#465=ORIENTED_EDGE('',*,*,#358,.T.);
#466=ORIENTED_EDGE('',*,*,#366,.F.);
#467=ORIENTED_EDGE('',*,*,#367,.T.);
#468=ORIENTED_EDGE('',*,*,#368,.F.);
#469=ORIENTED_EDGE('',*,*,#369,.T.);
#470=ORIENTED_EDGE('',*,*,#370,.F.);
#471=ORIENTED_EDGE('',*,*,#371,.T.);
#472=ORIENTED_EDGE('',*,*,#360,.F.);
#473=ORIENTED_EDGE('',*,*,#372,.T.);
#474=ORIENTED_EDGE('',*,*,#373,.T.);
#475=ORIENTED_EDGE('',*,*,#374,.T.);
#476=ORIENTED_EDGE('',*,*,#375,.T.);
#477=ORIENTED_EDGE('',*,*,#376,.T.);
#478=ORIENTED_EDGE('',*,*,#373,.F.);
#479=ORIENTED_EDGE('',*,*,#377,.T.);
#480=ORIENTED_EDGE('',*,*,#378,.F.);
#481=ORIENTED_EDGE('',*,*,#379,.T.);
#482=ORIENTED_EDGE('',*,*,#380,.F.);
#483=ORIENTED_EDGE('',*,*,#381,.F.);
#484=ORIENTED_EDGE('',*,*,#376,.F.);
#485=ORIENTED_EDGE('',*,*,#382,.F.);
#486=ORIENTED_EDGE('',*,*,#352,.F.);
#487=ORIENTED_EDGE('',*,*,#383,.F.);
#488=ORIENTED_EDGE('',*,*,#369,.F.);
#489=ORIENTED_EDGE('',*,*,#384,.T.);
#490=ORIENTED_EDGE('',*,*,#385,.F.);
#491=ORIENTED_EDGE('',*,*,#377,.F.);
#492=ORIENTED_EDGE('',*,*,#386,.T.);
#493=ORIENTED_EDGE('',*,*,#387,.T.);
#494=ORIENTED_EDGE('',*,*,#388,.T.);
#495=ORIENTED_EDGE('',*,*,#389,.T.);
#496=ORIENTED_EDGE('',*,*,#390,.T.);
#497=ORIENTED_EDGE('',*,*,#391,.T.);
#498=ORIENTED_EDGE('',*,*,#392,.T.);
#499=ORIENTED_EDGE('',*,*,#393,.T.);
#500=ORIENTED_EDGE('',*,*,#394,.T.);
#501=ORIENTED_EDGE('',*,*,#395,.T.);
#502=ORIENTED_EDGE('',*,*,#378,.T.);
#503=ORIENTED_EDGE('',*,*,#385,.T.);
#504=ORIENTED_EDGE('',*,*,#396,.T.);
#505=ORIENTED_EDGE('',*,*,#397,.T.);
#506=ORIENTED_EDGE('',*,*,#396,.F.);
#507=ORIENTED_EDGE('',*,*,#384,.F.);
#508=ORIENTED_EDGE('',*,*,#368,.T.);
#509=ORIENTED_EDGE('',*,*,#398,.F.);
#510=ORIENTED_EDGE('',*,*,#399,.F.);
#511=ORIENTED_EDGE('',*,*,#371,.F.);
#512=ORIENTED_EDGE('',*,*,#400,.T.);
#513=ORIENTED_EDGE('',*,*,#401,.T.);
#514=ORIENTED_EDGE('',*,*,#361,.F.);
#515=ORIENTED_EDGE('',*,*,#395,.F.);
#516=ORIENTED_EDGE('',*,*,#402,.T.);
#517=ORIENTED_EDGE('',*,*,#403,.F.);
#518=ORIENTED_EDGE('',*,*,#402,.F.);
#519=ORIENTED_EDGE('',*,*,#404,.F.);
#520=ORIENTED_EDGE('',*,*,#405,.F.);
#521=ORIENTED_EDGE('',*,*,#393,.F.);
#522=ORIENTED_EDGE('',*,*,#406,.T.);
#523=ORIENTED_EDGE('',*,*,#407,.F.);
#524=ORIENTED_EDGE('',*,*,#406,.F.);
#525=ORIENTED_EDGE('',*,*,#392,.F.);
#526=ORIENTED_EDGE('',*,*,#408,.T.);
#527=ORIENTED_EDGE('',*,*,#409,.F.);
#528=ORIENTED_EDGE('',*,*,#408,.F.);
#529=ORIENTED_EDGE('',*,*,#391,.F.);
#530=ORIENTED_EDGE('',*,*,#410,.T.);
#531=ORIENTED_EDGE('',*,*,#411,.F.);
#532=ORIENTED_EDGE('',*,*,#410,.F.);
#533=ORIENTED_EDGE('',*,*,#394,.F.);
#534=ORIENTED_EDGE('',*,*,#405,.T.);
#535=ORIENTED_EDGE('',*,*,#390,.F.);
#536=ORIENTED_EDGE('',*,*,#412,.T.);
#537=ORIENTED_EDGE('',*,*,#413,.F.);
#538=ORIENTED_EDGE('',*,*,#412,.F.);
#539=ORIENTED_EDGE('',*,*,#414,.F.);
#540=ORIENTED_EDGE('',*,*,#415,.F.);
#541=ORIENTED_EDGE('',*,*,#387,.F.);
#542=ORIENTED_EDGE('',*,*,#416,.T.);
#543=ORIENTED_EDGE('',*,*,#417,.F.);
#544=ORIENTED_EDGE('',*,*,#416,.F.);
#545=ORIENTED_EDGE('',*,*,#386,.F.);
#546=ORIENTED_EDGE('',*,*,#418,.T.);
#547=ORIENTED_EDGE('',*,*,#419,.F.);
#548=ORIENTED_EDGE('',*,*,#418,.F.);
#549=ORIENTED_EDGE('',*,*,#389,.F.);
#550=ORIENTED_EDGE('',*,*,#420,.T.);
#551=ORIENTED_EDGE('',*,*,#421,.F.);
#552=ORIENTED_EDGE('',*,*,#420,.F.);
#553=ORIENTED_EDGE('',*,*,#388,.F.);
#554=ORIENTED_EDGE('',*,*,#415,.T.);
#555=ORIENTED_EDGE('',*,*,#422,.T.);
#556=ORIENTED_EDGE('',*,*,#354,.F.);
#557=ORIENTED_EDGE('',*,*,#423,.F.);
#558=ORIENTED_EDGE('',*,*,#424,.F.);
#559=ORIENTED_EDGE('',*,*,#380,.T.);
#560=ORIENTED_EDGE('',*,*,#425,.T.);
#561=ORIENTED_EDGE('',*,*,#398,.T.);
#562=ORIENTED_EDGE('',*,*,#367,.F.);
#563=ORIENTED_EDGE('',*,*,#419,.T.);
#564=ORIENTED_EDGE('',*,*,#421,.T.);
#565=ORIENTED_EDGE('',*,*,#414,.T.);
#566=ORIENTED_EDGE('',*,*,#417,.T.);
#567=ORIENTED_EDGE('',*,*,#413,.T.);
#568=ORIENTED_EDGE('',*,*,#409,.T.);
#569=ORIENTED_EDGE('',*,*,#411,.T.);
#570=ORIENTED_EDGE('',*,*,#404,.T.);
#571=ORIENTED_EDGE('',*,*,#407,.T.);
#572=ORIENTED_EDGE('',*,*,#403,.T.);
#573=ORIENTED_EDGE('',*,*,#372,.F.);
#574=ORIENTED_EDGE('',*,*,#426,.T.);
#575=ORIENTED_EDGE('',*,*,#427,.T.);
#576=ORIENTED_EDGE('',*,*,#426,.F.);
#577=ORIENTED_EDGE('',*,*,#427,.F.);
#578=ORIENTED_EDGE('',*,*,#400,.F.);
#579=ORIENTED_EDGE('',*,*,#370,.T.);
#580=ORIENTED_EDGE('',*,*,#383,.T.);
#581=ORIENTED_EDGE('',*,*,#351,.F.);
#582=ORIENTED_EDGE('',*,*,#428,.T.);
#583=ORIENTED_EDGE('',*,*,#429,.T.);
#584=ORIENTED_EDGE('',*,*,#430,.F.);
#585=ORIENTED_EDGE('',*,*,#431,.T.);
#586=ORIENTED_EDGE('',*,*,#397,.F.);
#587=ORIENTED_EDGE('',*,*,#399,.T.);
#588=ORIENTED_EDGE('',*,*,#425,.F.);
#589=ORIENTED_EDGE('',*,*,#379,.F.);
#590=ORIENTED_EDGE('',*,*,#357,.T.);
#591=ORIENTED_EDGE('',*,*,#355,.F.);
#592=ORIENTED_EDGE('',*,*,#422,.F.);
#593=ORIENTED_EDGE('',*,*,#366,.T.);
#594=ORIENTED_EDGE('',*,*,#375,.F.);
#595=ORIENTED_EDGE('',*,*,#432,.T.);
#596=ORIENTED_EDGE('',*,*,#423,.T.);
#597=ORIENTED_EDGE('',*,*,#353,.F.);
#598=ORIENTED_EDGE('',*,*,#382,.T.);
#599=ORIENTED_EDGE('',*,*,#374,.F.);
#600=ORIENTED_EDGE('',*,*,#381,.T.);
#601=ORIENTED_EDGE('',*,*,#424,.T.);
#602=ORIENTED_EDGE('',*,*,#432,.F.);
#603=ORIENTED_EDGE('',*,*,#433,.F.);
#604=ORIENTED_EDGE('',*,*,#434,.F.);
#605=ORIENTED_EDGE('',*,*,#435,.F.);
#606=ORIENTED_EDGE('',*,*,#436,.F.);
#607=ORIENTED_EDGE('',*,*,#437,.T.);
#608=ORIENTED_EDGE('',*,*,#428,.F.);
#609=ORIENTED_EDGE('',*,*,#350,.F.);
#610=ORIENTED_EDGE('',*,*,#365,.T.);
#611=ORIENTED_EDGE('',*,*,#435,.T.);
#612=ORIENTED_EDGE('',*,*,#438,.F.);
#613=ORIENTED_EDGE('',*,*,#363,.F.);
#614=ORIENTED_EDGE('',*,*,#439,.F.);
#615=ORIENTED_EDGE('',*,*,#433,.T.);
#616=ORIENTED_EDGE('',*,*,#440,.F.);
#617=ORIENTED_EDGE('',*,*,#430,.T.);
#618=ORIENTED_EDGE('',*,*,#441,.F.);
#619=ORIENTED_EDGE('',*,*,#436,.T.);
#620=ORIENTED_EDGE('',*,*,#439,.T.);
#621=ORIENTED_EDGE('',*,*,#362,.F.);
#622=ORIENTED_EDGE('',*,*,#401,.F.);
#623=ORIENTED_EDGE('',*,*,#431,.F.);
#624=ORIENTED_EDGE('',*,*,#440,.T.);
#625=ORIENTED_EDGE('',*,*,#434,.T.);
#626=ORIENTED_EDGE('',*,*,#441,.T.);
#627=ORIENTED_EDGE('',*,*,#429,.F.);
#628=ORIENTED_EDGE('',*,*,#437,.F.);
#629=ORIENTED_EDGE('',*,*,#364,.F.);
#630=ORIENTED_EDGE('',*,*,#438,.T.);
#631=ORIENTED_EDGE('',*,*,#442,.F.);
#632=ORIENTED_EDGE('',*,*,#356,.F.);
#633=ORIENTED_EDGE('',*,*,#443,.T.);
#634=ORIENTED_EDGE('',*,*,#442,.T.);
#635=ORIENTED_EDGE('',*,*,#443,.F.);
#636=PLANE('',#713);
#637=PLANE('',#719);
#638=PLANE('',#722);
#639=PLANE('',#725);
#640=PLANE('',#726);
#641=PLANE('',#727);
#642=PLANE('',#730);
#643=PLANE('',#731);
#644=PLANE('',#735);
#645=PLANE('',#736);
#646=PLANE('',#737);
#647=PLANE('',#738);
#648=PLANE('',#741);
#649=PLANE('',#742);
#650=PLANE('',#743);
#651=PLANE('',#744);
#652=PLANE('',#745);
#653=PLANE('',#748);
#654=PLANE('',#749);
#655=PLANE('',#752);
#656=PLANE('',#753);
#657=PLANE('',#754);
#658=PLANE('',#755);
#659=PLANE('',#756);
#660=PLANE('',#760);
#661=PLANE('',#761);
#662=PLANE('',#764);
#663=ADVANCED_FACE('',(#40,#30),#636,.T.);
#664=ADVANCED_FACE('',(#41),#23,.F.);
#665=ADVANCED_FACE('',(#42),#637,.T.);
#666=ADVANCED_FACE('',(#43,#31),#638,.T.);
#667=ADVANCED_FACE('',(#44),#639,.T.);
#668=ADVANCED_FACE('',(#45),#640,.F.);
#669=ADVANCED_FACE('',(#46,#32,#33,#34,#35),#641,.F.);
#670=ADVANCED_FACE('',(#47),#642,.T.);
#671=ADVANCED_FACE('',(#48),#643,.F.);
#672=ADVANCED_FACE('',(#49),#24,.F.);
#673=ADVANCED_FACE('',(#50),#25,.F.);
#674=ADVANCED_FACE('',(#51),#644,.F.);
#675=ADVANCED_FACE('',(#52),#645,.F.);
#676=ADVANCED_FACE('',(#53),#646,.F.);
#677=ADVANCED_FACE('',(#54),#647,.F.);
#678=ADVANCED_FACE('',(#55),#26,.F.);
#679=ADVANCED_FACE('',(#56),#648,.F.);
#680=ADVANCED_FACE('',(#57),#649,.F.);
#681=ADVANCED_FACE('',(#58),#650,.F.);
#682=ADVANCED_FACE('',(#59),#651,.F.);
#683=ADVANCED_FACE('',(#60,#36,#37,#38,#39),#652,.T.);
#684=ADVANCED_FACE('',(#61),#27,.F.);
#685=ADVANCED_FACE('',(#62),#653,.F.);
#686=ADVANCED_FACE('',(#63),#654,.T.);
#687=ADVANCED_FACE('',(#64),#655,.T.);
#688=ADVANCED_FACE('',(#65),#656,.T.);
#689=ADVANCED_FACE('',(#66),#657,.T.);
#690=ADVANCED_FACE('',(#67),#658,.F.);
#691=ADVANCED_FACE('',(#68),#659,.T.);
#692=ADVANCED_FACE('',(#69),#28,.F.);
#693=ADVANCED_FACE('',(#70),#660,.T.);
#694=ADVANCED_FACE('',(#71),#661,.F.);
#695=ADVANCED_FACE('',(#72),#15,.F.);
#696=ADVANCED_FACE('',(#73),#16,.F.);
#697=ADVANCED_FACE('',(#74),#662,.F.);
#698=ADVANCED_FACE('',(#75),#29,.F.);
#699=CLOSED_SHELL('',(#663,#664,#665,#666,#667,#668,#669,#670,#671,#672,
#673,#674,#675,#676,#677,#678,#679,#680,#681,#682,#683,#684,#685,#686,#687,
#688,#689,#690,#691,#692,#693,#694,#695,#696,#697,#698));
#700=DERIVED_UNIT_ELEMENT(#702,1.);
#701=DERIVED_UNIT_ELEMENT(#1209,-3.);
#702=(
MASS_UNIT()
NAMED_UNIT(*)
SI_UNIT(.KILO.,.GRAM.)
);
#703=DERIVED_UNIT((#700,#701));
#704=MEASURE_REPRESENTATION_ITEM('density measure',
POSITIVE_RATIO_MEASURE(7850.),#703);
#705=PROPERTY_DEFINITION_REPRESENTATION(#710,#707);
#706=PROPERTY_DEFINITION_REPRESENTATION(#711,#708);
#707=REPRESENTATION('material name',(#709),#1206);
#708=REPRESENTATION('density',(#704),#1206);
#709=DESCRIPTIVE_REPRESENTATION_ITEM('Steel','Steel');
#710=PROPERTY_DEFINITION('material property','material name',#1216);
#711=PROPERTY_DEFINITION('material property','density of part',#1216);
#712=AXIS2_PLACEMENT_3D('',#949,#767,#768);
#713=AXIS2_PLACEMENT_3D('',#950,#769,#770);
#714=AXIS2_PLACEMENT_3D('',#953,#771,#772);
#715=AXIS2_PLACEMENT_3D('',#957,#774,#775);
#716=AXIS2_PLACEMENT_3D('',#968,#781,#782);
#717=AXIS2_PLACEMENT_3D('',#969,#783,#784);
#718=AXIS2_PLACEMENT_3D('',#973,#786,#787);
#719=AXIS2_PLACEMENT_3D('',#975,#789,#790);
#720=AXIS2_PLACEMENT_3D('',#981,#793,#794);
#721=AXIS2_PLACEMENT_3D('',#985,#796,#797);
#722=AXIS2_PLACEMENT_3D('',#987,#799,#800);
#723=AXIS2_PLACEMENT_3D('',#998,#806,#807);
#724=AXIS2_PLACEMENT_3D('',#1000,#808,#809);
#725=AXIS2_PLACEMENT_3D('',#1001,#810,#811);
#726=AXIS2_PLACEMENT_3D('',#1010,#816,#817);
#727=AXIS2_PLACEMENT_3D('',#1020,#823,#824);
#728=AXIS2_PLACEMENT_3D('',#1035,#833,#834);
#729=AXIS2_PLACEMENT_3D('',#1045,#839,#840);
#730=AXIS2_PLACEMENT_3D('',#1046,#841,#842);
#731=AXIS2_PLACEMENT_3D('',#1050,#845,#846);
#732=AXIS2_PLACEMENT_3D('',#1054,#849,#850);
#733=AXIS2_PLACEMENT_3D('',#1080,#852,#853);
#734=AXIS2_PLACEMENT_3D('',#1083,#855,#856);
#735=AXIS2_PLACEMENT_3D('',#1084,#857,#858);
#736=AXIS2_PLACEMENT_3D('',#1090,#862,#863);
#737=AXIS2_PLACEMENT_3D('',#1094,#866,#867);
#738=AXIS2_PLACEMENT_3D('',#1098,#870,#871);
#739=AXIS2_PLACEMENT_3D('',#1100,#873,#874);
#740=AXIS2_PLACEMENT_3D('',#1103,#876,#877);
#741=AXIS2_PLACEMENT_3D('',#1104,#878,#879);
#742=AXIS2_PLACEMENT_3D('',#1110,#883,#884);
#743=AXIS2_PLACEMENT_3D('',#1114,#887,#888);
#744=AXIS2_PLACEMENT_3D('',#1118,#891,#892);
#745=AXIS2_PLACEMENT_3D('',#1120,#894,#895);
#746=AXIS2_PLACEMENT_3D('',#1126,#900,#901);
#747=AXIS2_PLACEMENT_3D('',#1129,#903,#904);
#748=AXIS2_PLACEMENT_3D('',#1130,#905,#906);
#749=AXIS2_PLACEMENT_3D('',#1131,#907,#908);
#750=AXIS2_PLACEMENT_3D('',#1135,#910,#911);
#751=AXIS2_PLACEMENT_3D('',#1138,#913,#914);
#752=AXIS2_PLACEMENT_3D('',#1139,#915,#916);
#753=AXIS2_PLACEMENT_3D('',#1140,#917,#918);
#754=AXIS2_PLACEMENT_3D('',#1141,#919,#920);
#755=AXIS2_PLACEMENT_3D('',#1143,#922,#923);
#756=AXIS2_PLACEMENT_3D('',#1144,#924,#925);
#757=AXIS2_PLACEMENT_3D('',#1149,#927,#928);
#758=AXIS2_PLACEMENT_3D('',#1152,#930,#931);
#759=AXIS2_PLACEMENT_3D('',#1153,#932,#933);
#760=AXIS2_PLACEMENT_3D('',#1177,#934,#935);
#761=AXIS2_PLACEMENT_3D('',#1187,#936,#937);
#762=AXIS2_PLACEMENT_3D('',#1197,#938,#939);
#763=AXIS2_PLACEMENT_3D('',#1198,#940,#941);
#764=AXIS2_PLACEMENT_3D('',#1199,#942,#943);
#765=AXIS2_PLACEMENT_3D('',#1201,#944,#945);
#766=AXIS2_PLACEMENT_3D('',#1202,#946,#947);
#767=DIRECTION('axis',(0.,0.,1.));
#768=DIRECTION('refdir',(1.,0.,0.));
#769=DIRECTION('center_axis',(-5.65345491064963E-14,1.27122696849157E-9,
1.));
#770=DIRECTION('ref_axis',(1.,5.11499042846643E-16,5.6534549105846E-14));
#771=DIRECTION('center_axis',(-5.65345491064963E-14,1.27122696849157E-9,
1.));
#772=DIRECTION('ref_axis',(-5.58333103154496E-14,1.,-1.27124012741968E-9));
#773=DIRECTION('',(4.22148057389437E-14,1.,-2.54245317396838E-9));
#774=DIRECTION('center_axis',(-1.1956183773063E-13,2.54245317396838E-9,
1.));
#775=DIRECTION('ref_axis',(-5.73372521036932E-14,1.,-2.54245363218018E-9));
#776=DIRECTION('',(4.22148057389437E-14,1.,-2.54245317396838E-9));
#777=DIRECTION('',(-1.,-1.39075632128799E-15,-5.65345491047283E-14));
#778=DIRECTION('',(-5.29041063015413E-14,-1.,1.27122691298042E-9));
#779=DIRECTION('',(1.,-2.57399578029893E-15,5.65345491097684E-14));
#780=DIRECTION('',(4.22148057389437E-14,1.,-2.54245317396838E-9));
#781=DIRECTION('center_axis',(5.65345491064963E-14,-1.27122696849157E-9,
-1.));
#782=DIRECTION('ref_axis',(5.5305955982002E-14,-1.,1.27122696849157E-9));
#783=DIRECTION('center_axis',(1.27472961585339E-13,-1.27124012741968E-9,
-1.));
#784=DIRECTION('ref_axis',(-5.58333103154496E-14,1.,-1.27124012741968E-9));
#785=DIRECTION('',(-1.27472961585339E-13,1.27124012741968E-9,1.));
#786=DIRECTION('center_axis',(-1.27588822682505E-13,1.2712280787146E-9,
1.));
#787=DIRECTION('ref_axis',(-5.58333103154496E-14,1.,-1.27124012741968E-9));
#788=DIRECTION('',(1.27472961585339E-13,-1.27124012741968E-9,-1.));
#789=DIRECTION('center_axis',(1.,-4.22148055050272E-14,6.13462963749821E-14));
#790=DIRECTION('ref_axis',(-6.13462963749845E-14,-5.52085820396125E-14,
1.));
#791=DIRECTION('',(4.22148056609944E-14,1.,-2.54240652171651E-9));
#792=DIRECTION('',(1.22435606737607E-13,-2.54245363218018E-9,-1.));
#793=DIRECTION('center_axis',(-1.,4.22148052728396E-14,-1.83328492946837E-13));
#794=DIRECTION('ref_axis',(-1.30613217669742E-13,3.81368858074071E-9,1.));
#795=DIRECTION('',(-1.83328492785843E-13,3.81368845827603E-9,1.));
#796=DIRECTION('center_axis',(-1.,4.22148052728396E-14,-1.83328492946837E-13));
#797=DIRECTION('ref_axis',(-1.30613217669742E-13,3.81368858074071E-9,1.));
#798=DIRECTION('',(1.22435606737607E-13,-2.54245363218018E-9,-1.));
#799=DIRECTION('center_axis',(1.27588822682505E-13,-1.2712280787146E-9,
-1.));
#800=DIRECTION('ref_axis',(-5.41075154845218E-14,1.,-1.2712280787146E-9));
#801=DIRECTION('',(4.22148056609944E-14,1.,-2.54240652171651E-9));
#802=DIRECTION('',(-1.,2.57399568997282E-15,-1.27588822685777E-13));
#803=DIRECTION('',(-5.29041060563004E-14,-1.,1.2712280787146E-9));
#804=DIRECTION('',(1.,1.39075650194022E-15,1.27588822680737E-13));
#805=DIRECTION('',(4.22148056609944E-14,1.,-2.54240652171651E-9));
#806=DIRECTION('center_axis',(-1.27588822682505E-13,1.2712280787146E-9,
1.));
#807=DIRECTION('ref_axis',(-6.91796342143743E-14,1.,-1.2712280787146E-9));
#808=DIRECTION('center_axis',(-1.27588822682505E-13,1.2712280787146E-9,
1.));
#809=DIRECTION('ref_axis',(-5.5305955982002E-14,1.,-1.2712280787146E-9));
#810=DIRECTION('center_axis',(-8.6606889719894E-14,0.707106782984332,0.707106779388763));
#811=DIRECTION('ref_axis',(1.,0.,1.22480638348226E-13));
#812=DIRECTION('',(-3.95946525491481E-14,-0.707106779388763,0.707106782984332));
#813=DIRECTION('',(1.,1.39075648541698E-15,1.21089881855737E-13));
#814=DIRECTION('',(7.73848153662245E-14,0.707106779388763,-0.707106782984332));
#815=DIRECTION('',(-1.,-1.39075648541698E-15,-1.21089881855737E-13));
#816=DIRECTION('center_axis',(1.,5.39254618462417E-16,5.65345491058107E-14));
#817=DIRECTION('ref_axis',(-5.65345491064962E-14,1.27122696849157E-9,1.));
#818=DIRECTION('',(5.65345491071817E-14,-2.54245417047013E-9,-1.));
#819=DIRECTION('',(-4.03572733965047E-14,0.707106785562609,0.707106776810486));
#820=DIRECTION('',(5.3925455267546E-16,-1.,2.54240552521476E-9));
#821=DIRECTION('',(5.65345491064962E-14,-1.27122696849157E-9,-1.));
#822=DIRECTION('',(5.39254474725877E-16,-1.,2.54245417047013E-9));
#823=DIRECTION('center_axis',(1.3907561775515E-15,-1.,2.54245417047013E-9));
#824=DIRECTION('ref_axis',(1.,1.39075648131124E-15,1.19475012001737E-13));
#825=DIRECTION('',(-5.65345490392431E-14,2.54245417047013E-9,1.));
#826=DIRECTION('',(-6.1346296267655E-14,2.54240552521476E-9,1.));
#827=DIRECTION('',(1.88140240067919E-13,-2.54240552521476E-9,-1.));
#828=DIRECTION('',(1.,1.39075649176047E-15,1.23584907244353E-13));
#829=DIRECTION('',(8.32667267090324E-14,-2.54245417047013E-9,-1.));
#830=DIRECTION('',(1.,1.39075638925334E-15,8.32667267090327E-14));
#831=DIRECTION('',(-8.68194403878333E-14,2.54245417047013E-9,1.));
#832=DIRECTION('',(-1.,-1.39075636667181E-15,-7.43849425120312E-14));
#833=DIRECTION('center_axis',(1.3907561775515E-15,-1.,2.54245417047013E-9));
#834=DIRECTION('ref_axis',(-6.55031583150297E-14,2.54245417047013E-9,1.));
#835=DIRECTION('',(8.68194403878333E-14,-2.54245417047013E-9,-1.));
#836=DIRECTION('',(1.,1.39075641183487E-15,9.21485109060342E-14));
#837=DIRECTION('',(-7.97140130302321E-14,2.54245417047013E-9,1.));
#838=DIRECTION('',(-1.,-1.39075641183487E-15,-9.21485109060341E-14));
#839=DIRECTION('center_axis',(1.3907561775515E-15,-1.,2.54245417047013E-9));
#840=DIRECTION('ref_axis',(-6.55031583150297E-14,2.54245417047013E-9,1.));
#841=DIRECTION('center_axis',(8.64043131653909E-14,0.707106776810486,-0.707106785562609));
#842=DIRECTION('ref_axis',(-1.,0.,-1.22194150769807E-13));
#843=DIRECTION('',(9.56263866304703E-14,-0.707106785562609,-0.707106776810486));
#844=DIRECTION('',(-1.,-1.39075649176047E-15,-1.23584907244353E-13));
#845=DIRECTION('center_axis',(-1.,5.29041058171312E-14,-1.88140240202423E-13));
#846=DIRECTION('ref_axis',(-5.2904106534629E-14,-1.,3.81363278270447E-9));
#847=DIRECTION('',(-1.8814024013517E-13,1.27122696849157E-9,1.));
#848=DIRECTION('',(-5.290410629546E-14,-1.,2.54240552521476E-9));
#849=DIRECTION('center_axis',(1.22435606737607E-13,-2.54245363218018E-9,
-1.));
#850=DIRECTION('ref_axis',(-6.91796340587311E-14,1.,-2.54245363218018E-9));
#851=DIRECTION('',(-1.22435606737607E-13,2.54245363218018E-9,1.));
#852=DIRECTION('center_axis',(0.,-1.,7.40148683083438E-16));
#853=DIRECTION('ref_axis',(-6.55031583150297E-14,7.40148683083438E-16,1.));
#854=DIRECTION('',(0.,-1.,7.40148683083438E-16));
#855=DIRECTION('center_axis',(2.57399585216716E-15,1.,-1.27122696849157E-9));
#856=DIRECTION('ref_axis',(-6.55031583150297E-14,1.27122696849157E-9,1.));
#857=DIRECTION('center_axis',(1.,5.90002217676223E-29,7.97140130302321E-14));
#858=DIRECTION('ref_axis',(-7.97140130302321E-14,4.44089211918014E-16,1.));
#859=DIRECTION('',(7.97140130302321E-14,-1.27122696849157E-9,-1.));
#860=DIRECTION('',(0.,-1.,7.40148683083438E-16));
#861=DIRECTION('',(0.,-1.,7.40148683083438E-16));
#862=DIRECTION('center_axis',(9.21485109060342E-14,-7.40148683083438E-16,
-1.));
#863=DIRECTION('ref_axis',(1.,-2.77555756156101E-16,9.21485109060342E-14));
#864=DIRECTION('',(-1.,2.57399573502548E-15,-9.21485109060342E-14));
#865=DIRECTION('',(0.,-1.,7.40148683083438E-16));
#866=DIRECTION('center_axis',(-1.,-6.42592944690958E-29,-8.68194403878333E-14));
#867=DIRECTION('ref_axis',(8.68194403878333E-14,-4.44089211918014E-16,-1.));
#868=DIRECTION('',(-8.68194403878333E-14,1.27122696849157E-9,1.));
#869=DIRECTION('',(0.,-1.,7.40148683083438E-16));
#870=DIRECTION('center_axis',(-9.21485109060341E-14,7.40148683083438E-16,
1.));
#871=DIRECTION('ref_axis',(-1.,-1.94725454826154E-28,-9.21485109060341E-14));
#872=DIRECTION('',(1.,-2.57399573502548E-15,9.21485109060341E-14));
#873=DIRECTION('center_axis',(0.,-1.,7.40148683083438E-16));
#874=DIRECTION('ref_axis',(-6.55031583150297E-14,7.40148683083438E-16,1.));
#875=DIRECTION('',(0.,-1.,7.40148683083438E-16));
#876=DIRECTION('center_axis',(2.57399585216716E-15,1.,-1.27122696849157E-9));
#877=DIRECTION('ref_axis',(-6.55031583150297E-14,1.27122696849157E-9,1.));
#878=DIRECTION('center_axis',(8.32667267090327E-14,-7.40148683083438E-16,
-1.));
#879=DIRECTION('ref_axis',(1.,1.9491030884774E-28,8.32667267090327E-14));
#880=DIRECTION('',(-1.,2.57399574631625E-15,-8.32667267090327E-14));
#881=DIRECTION('',(0.,-1.,7.40148683083438E-16));
#882=DIRECTION('',(0.,-1.,7.40148683083438E-16));
#883=DIRECTION('center_axis',(-1.,-6.16297581183589E-29,-8.32667267090324E-14));
#884=DIRECTION('ref_axis',(8.32667267090324E-14,4.44089207782111E-16,-1.));
#885=DIRECTION('',(-8.32667267090324E-14,1.27122696849157E-9,1.));
#886=DIRECTION('',(0.,-1.,7.40148683083438E-16));
#887=DIRECTION('center_axis',(-7.43849425120312E-14,7.40148683083438E-16,
1.));
#888=DIRECTION('ref_axis',(-1.,-2.77555756156491E-16,-7.43849425120312E-14));
#889=DIRECTION('',(1.,-2.57399575760701E-15,7.43849425120312E-14));
#890=DIRECTION('',(0.,-1.,7.40148683083438E-16));
#891=DIRECTION('center_axis',(1.,6.42592944690958E-29,8.68194403878333E-14));
#892=DIRECTION('ref_axis',(-8.68194403878333E-14,2.06795153138257E-24,1.));
#893=DIRECTION('',(8.68194403878333E-14,-1.27122696849157E-9,-1.));
#894=DIRECTION('center_axis',(-2.57399585216716E-15,-1.,1.27122696849157E-9));
#895=DIRECTION('ref_axis',(5.65345491064962E-14,-1.27122696849157E-9,-1.));
#896=DIRECTION('',(-5.65345491064962E-14,1.27122696849157E-9,1.));
#897=DIRECTION('',(5.65345491064962E-14,-1.27122696849157E-9,-1.));
#898=DIRECTION('',(1.,-2.57399569823443E-15,1.21089881865817E-13));
#899=DIRECTION('',(1.,-2.57399569506269E-15,1.23584907254433E-13));
#900=DIRECTION('center_axis',(9.47390392734226E-26,-5.55111371691874E-17,
1.));
#901=DIRECTION('ref_axis',(-5.5305955982002E-14,1.,5.55111371691874E-17));
#902=DIRECTION('',(9.47390392734226E-26,-5.55111371691874E-17,1.));
#903=DIRECTION('center_axis',(9.47390392734226E-26,-5.55111371691874E-17,
1.));
#904=DIRECTION('ref_axis',(-5.5305955982002E-14,1.,5.55111371691874E-17));
#905=DIRECTION('center_axis',(9.47390392734226E-26,-5.55111371691874E-17,
1.));
#906=DIRECTION('ref_axis',(-5.5305955982002E-14,1.,5.55111371691874E-17));
#907=DIRECTION('center_axis',(1.,-4.22148055050272E-14,6.13462963749821E-14));
#908=DIRECTION('ref_axis',(-6.13462963749845E-14,-5.52085820396125E-14,
1.));
#909=DIRECTION('',(-1.22435606737607E-13,2.54245363218018E-9,1.));
#910=DIRECTION('center_axis',(-1.,4.22148052728396E-14,-1.83328492946837E-13));
#911=DIRECTION('ref_axis',(-1.30613217669742E-13,3.81368858074071E-9,1.));
#912=DIRECTION('',(-1.83328492785843E-13,3.81368845827603E-9,1.));
#913=DIRECTION('center_axis',(-1.,4.22148052728396E-14,-1.83328492946837E-13));
#914=DIRECTION('ref_axis',(-1.30613217669742E-13,3.81368858074071E-9,1.));
#915=DIRECTION('center_axis',(1.23584907247889E-13,-2.54240552521476E-9,
-1.));
#916=DIRECTION('ref_axis',(-1.34753240799764E-14,1.,-2.54240552521476E-9));
#917=DIRECTION('center_axis',(1.,-4.22148055050272E-14,6.13462963749821E-14));
#918=DIRECTION('ref_axis',(-6.13462963749845E-14,-5.52085820396125E-14,
1.));
#919=DIRECTION('center_axis',(1.,-5.29041062296731E-14,5.65345491737493E-14));
#920=DIRECTION('ref_axis',(-5.29041063015413E-14,-1.,1.27122691298042E-9));
#921=DIRECTION('',(-5.29041063734096E-14,-1.,2.54245417047013E-9));
#922=DIRECTION('center_axis',(1.21089881859273E-13,-2.54245417047013E-9,
-1.));
#923=DIRECTION('ref_axis',(-1.34753240020268E-14,1.,-2.54245417047013E-9));
#924=DIRECTION('center_axis',(1.,1.43119342711148E-14,1.20831496100393E-13));
#925=DIRECTION('ref_axis',(-1.20831496118587E-13,1.27122709095625E-9,1.));
#926=DIRECTION('',(1.20831496154975E-13,-3.81368845827603E-9,-1.));
#927=DIRECTION('center_axis',(1.,1.43119342711148E-14,1.20831496100393E-13));
#928=DIRECTION('ref_axis',(-1.30613217669742E-13,3.81368858074071E-9,1.));
#929=DIRECTION('',(-1.20831496154975E-13,3.81368845827603E-9,1.));
#930=DIRECTION('center_axis',(1.,1.43119342711148E-14,1.20831496100393E-13));
#931=DIRECTION('ref_axis',(-1.30613217669742E-13,3.81368858074071E-9,1.));
#932=DIRECTION('center_axis',(1.22435606737607E-13,-2.54245363218018E-9,
-1.));
#933=DIRECTION('ref_axis',(-6.91796340587311E-14,1.,-2.54245363218018E-9));
#934=DIRECTION('center_axis',(5.58790893520697E-14,1.,-3.81368845827603E-9));
#935=DIRECTION('ref_axis',(-1.19506326003584E-13,3.81368845827603E-9,1.));
#936=DIRECTION('center_axis',(5.58513337764539E-14,1.,-3.81368845827603E-9));
#937=DIRECTION('ref_axis',(-1.30613217669742E-13,3.81368845827603E-9,1.));
#938=DIRECTION('center_axis',(1.,-5.5879088855663E-14,1.30164467253091E-13));
#939=DIRECTION('ref_axis',(1.29715894378864E-13,3.18108600839834E-6,-0.99999999999494));
#940=DIRECTION('center_axis',(1.,-5.5879088855663E-14,1.30164467253091E-13));
#941=DIRECTION('ref_axis',(-1.30613217669742E-13,3.81368858074071E-9,1.));
#942=DIRECTION('center_axis',(-9.47390392734226E-26,5.55111371691874E-17,
-1.));
#943=DIRECTION('ref_axis',(5.5305955982002E-14,-1.,-5.55111371691874E-17));
#944=DIRECTION('center_axis',(-9.47390392734226E-26,5.55111371691874E-17,
-1.));
#945=DIRECTION('ref_axis',(5.5305955982002E-14,-1.,-5.55111371691874E-17));
#946=DIRECTION('center_axis',(-9.47390392734226E-26,5.55111371691874E-17,
-1.));
#947=DIRECTION('ref_axis',(5.5305955982002E-14,-1.,-5.55111371691874E-17));
#948=DIRECTION('',(-9.47390392734226E-26,5.55111371691874E-17,-1.));
#949=CARTESIAN_POINT('',(0.,0.,0.));
#950=CARTESIAN_POINT('Origin',(-7.30118608225356,108.16921296141,127.112982976497));
#951=CARTESIAN_POINT('',(-0.601186082228603,106.517316569707,127.112983394917));
#952=CARTESIAN_POINT('',(-0.601186082228831,101.121021544416,127.112983408637));
#953=CARTESIAN_POINT('Origin',(-0.501186082210927,103.819169057062,127.112982982028));
#954=CARTESIAN_POINT('',(-0.601186082227946,111.022505082769,127.112983383463));
#955=CARTESIAN_POINT('',(-0.601186082228051,108.531667884984,127.112983389795));
#956=CARTESIAN_POINT('',(-0.60118608222782,114.015830992188,127.112983375852));
#957=CARTESIAN_POINT('Origin',(-0.501186082228631,112.519168037479,127.112983379657));
#958=CARTESIAN_POINT('',(-0.601186082227689,117.119168036398,127.112983367962));
#959=CARTESIAN_POINT('',(-0.601186082228051,108.531667884984,127.112983389795));
#960=CARTESIAN_POINT('',(-11.0011860822557,117.119167701383,127.11298296512));
#961=CARTESIAN_POINT('',(-12.1011860821364,117.119168036398,127.11298296512));
#962=CARTESIAN_POINT('',(-11.0011860822566,99.2191680714371,127.112982987875));
#963=CARTESIAN_POINT('',(-11.0011860822551,127.757299764461,127.112982951596));
#964=CARTESIAN_POINT('',(-0.601186082228444,99.2191682335696,127.112983413472));
#965=CARTESIAN_POINT('',(-3.95118608224176,99.2191682160349,127.112982987875));
#966=CARTESIAN_POINT('',(-0.601186082228051,108.531667884984,127.112983389795));
#967=CARTESIAN_POINT('',(-6.63818608225444,109.41916814744,127.112982978087));
#968=CARTESIAN_POINT('Origin',(-6.63818608225434,108.169168146677,127.112982976497));
#969=CARTESIAN_POINT('Origin',(-0.501186082211031,103.819169057977,127.832618450142));
#970=CARTESIAN_POINT('',(-0.601186082225411,101.121021493312,86.9130184632302));
#971=CARTESIAN_POINT('',(-0.601186082229402,101.121021545331,127.832618453572));
#972=CARTESIAN_POINT('',(-0.601186082225183,106.517316518604,86.9130184495106));
#973=CARTESIAN_POINT('Origin',(-0.501186082205845,103.819169005958,86.91301845014));
#974=CARTESIAN_POINT('',(-0.601186082229175,106.517316570622,127.832618446712));
#975=CARTESIAN_POINT('Origin',(-0.601186082225399,108.894167526358,67.9326178952862));
#976=CARTESIAN_POINT('',(-0.601186082224993,111.022504964452,86.9130184380566));
#977=CARTESIAN_POINT('',(-0.601186082225098,108.531667766667,86.9130184443894));
#978=CARTESIAN_POINT('',(-0.601186082225759,111.022505054954,116.472879255944));
#979=CARTESIAN_POINT('',(-0.601186082225434,111.022505048192,113.812983901962));
#980=CARTESIAN_POINT('',(-0.601186082224476,111.019167993977,116.474182060488));
#981=CARTESIAN_POINT('Origin',(-0.601186082226539,112.519167225904,120.311420951211));
#982=CARTESIAN_POINT('',(-0.601186082227329,111.019168023245,124.148659853375));
#983=CARTESIAN_POINT('',(-0.601186082225913,111.019167993794,116.426214047901));
#984=CARTESIAN_POINT('',(-0.601186082227549,111.022505074473,124.149962654088));
#985=CARTESIAN_POINT('Origin',(-0.601186082226539,112.519167225904,120.311420951211));
#986=CARTESIAN_POINT('',(-0.601186082228,111.022505083786,127.812983383463));
#987=CARTESIAN_POINT('Origin',(-12.8891860822525,111.270168613168,86.9130184406664));
#988=CARTESIAN_POINT('',(-0.601186082225484,99.2191681152523,86.9130184680655));
#989=CARTESIAN_POINT('',(-0.601186082225098,108.531667766667,86.9130184443894));
#990=CARTESIAN_POINT('',(-11.0011860822537,99.2191679531198,86.9130188936602));
#991=CARTESIAN_POINT('',(-6.74518608223891,99.2191681327946,86.9130184559868));
#992=CARTESIAN_POINT('',(-11.0011860822527,117.119167583065,86.9130188253962));
#993=CARTESIAN_POINT('',(-11.0011860822529,114.194713167651,86.9130184369489));
#994=CARTESIAN_POINT('',(-0.601186082224712,117.119167918081,86.9130184225564));
#995=CARTESIAN_POINT('',(-14.8951860821316,117.119167868392,86.9130184332308));
#996=CARTESIAN_POINT('',(-0.601186082224834,114.015830873871,86.9130184304463));
#997=CARTESIAN_POINT('',(-0.601186082225098,108.531667766667,86.9130184443894));
#998=CARTESIAN_POINT('Origin',(-0.501186082224456,112.519167933747,86.9130184390802));
#999=CARTESIAN_POINT('',(-6.63818608224547,106.9191679774,86.9130184430202));
#1000=CARTESIAN_POINT('Origin',(-6.63818608224565,108.169167978163,86.9130184446093));
#1001=CARTESIAN_POINT('Origin',(-15.350686082138,116.119168045551,131.01298393302));
#1002=CARTESIAN_POINT('',(-16.9011860822555,117.119168043008,130.012983930477));
#1003=CARTESIAN_POINT('',(-16.9011860822557,115.119168048093,132.012983935562));
#1004=CARTESIAN_POINT('',(-16.9011860822553,121.200725002363,125.931426950368));
#1005=CARTESIAN_POINT('',(-11.001186082256,115.119168048093,132.012983935563));
#1006=CARTESIAN_POINT('',(-15.3506860821382,115.119168048093,132.012983935562));
#1007=CARTESIAN_POINT('',(-11.0011860822558,117.119168043008,130.012983930478));
#1008=CARTESIAN_POINT('',(-11.0011860822559,116.11919048927,131.012961489301));
#1009=CARTESIAN_POINT('',(-15.3506860821379,117.119168043008,130.012983930477));
#1010=CARTESIAN_POINT('Origin',(-16.901186082254,108.100168427793,102.667756528789));
#1011=CARTESIAN_POINT('',(-16.9011860822529,117.119167926055,84.0130178600375));
#1012=CARTESIAN_POINT('',(-16.9011860822547,117.119168007992,116.240370218168));
#1013=CARTESIAN_POINT('',(-16.9011860822515,115.119167906385,82.0130178651223));
#1014=CARTESIAN_POINT('',(-16.901186082253,119.028102685852,85.9219525962069));
#1015=CARTESIAN_POINT('',(-16.9011860822521,99.2191679359587,82.0130179059923));
#1016=CARTESIAN_POINT('',(-16.9011860822515,109.68516845529,82.0130178789378));
#1017=CARTESIAN_POINT('',(-16.9011860822563,99.2191680776664,132.012983975541));
#1018=CARTESIAN_POINT('',(-16.9011860822537,99.2191681796871,98.5202787290458));
#1019=CARTESIAN_POINT('',(-16.9011860822557,109.685168596998,132.012983949378));
#1020=CARTESIAN_POINT('Origin',(-16.9011860820194,117.1191680425,129.812983930477));
#1021=CARTESIAN_POINT('',(-11.0011860822559,117.119168045296,130.912983947799));
#1022=CARTESIAN_POINT('',(-0.601186082224776,117.11916792342,88.7130178672068));
#1023=CARTESIAN_POINT('',(-11.0011860822522,117.11916791147,84.0130178600382));
#1024=CARTESIAN_POINT('',(-11.001186082252,117.119167909182,83.1130178427174));
#1025=CARTESIAN_POINT('',(-15.3506860821333,117.119167926055,84.0130178600377));
#1026=CARTESIAN_POINT('',(-14.9011860822451,117.119168664399,125.899376160239));
#1027=CARTESIAN_POINT('',(-14.9011860822449,117.119168664399,123.399376160239));
#1028=CARTESIAN_POINT('',(-14.9011860822453,117.119168037525,127.856180045358));
#1029=CARTESIAN_POINT('',(-10.901186082245,117.119168664399,123.399376160239));
#1030=CARTESIAN_POINT('',(-15.9011860821319,117.119168026193,123.399376160238));
#1031=CARTESIAN_POINT('',(-10.9011860822452,117.119168664399,125.899376160239));
#1032=CARTESIAN_POINT('',(-10.9011860822453,117.119168034347,126.606180045358));
#1033=CARTESIAN_POINT('',(-13.9011860821322,117.11916803255,125.899376160239));
#1034=CARTESIAN_POINT('',(-9.66260058292962,117.119168664399,91.8750187963005));
#1035=CARTESIAN_POINT('Origin',(-9.66260058292971,117.119167949222,93.1250187963005));
#1036=CARTESIAN_POINT('',(-14.9011860822456,117.119168664399,118.40250211533));
#1037=CARTESIAN_POINT('',(-14.9011860822454,117.119168664399,115.902502115331));
#1038=CARTESIAN_POINT('',(-14.9011860822461,117.119168027994,124.107743022904));
#1039=CARTESIAN_POINT('',(-10.9011860822455,117.119168664399,115.902502115331));
#1040=CARTESIAN_POINT('',(-15.9011860821318,117.119168007133,115.90250211533));
#1041=CARTESIAN_POINT('',(-10.9011860822457,117.119168664399,118.402502115331));
#1042=CARTESIAN_POINT('',(-10.9011860822461,117.119168024816,122.857743022904));
#1043=CARTESIAN_POINT('',(-13.9011860821321,117.119168013489,118.402502115331));
#1044=CARTESIAN_POINT('',(-9.66260058293273,117.119168664399,119.650983956919));
#1045=CARTESIAN_POINT('Origin',(-9.6626005829328,117.119168019841,120.900983956919));
#1046=CARTESIAN_POINT('Origin',(-15.3506860821331,116.11916791622,83.0130178625801));
#1047=CARTESIAN_POINT('',(-11.0011860822519,115.119167906385,82.013017865123));
#1048=CARTESIAN_POINT('',(-11.001186082252,116.11919035994,83.0130403062997));
#1049=CARTESIAN_POINT('',(-15.350686082133,115.119167906385,82.0130178651225));
#1050=CARTESIAN_POINT('Origin',(-11.0011860822518,117.119257715904,82.0130178253958));
#1051=CARTESIAN_POINT('',(-11.0011860822528,99.2191679359584,82.0130178936602));
#1052=CARTESIAN_POINT('',(-11.0011860822563,99.2191681504901,100.833109383082));
#1053=CARTESIAN_POINT('',(-11.001186082252,114.194713137782,82.0130178674734));
#1054=CARTESIAN_POINT('Origin',(-0.501186082227717,112.519168002901,113.812983898157));
#1055=CARTESIAN_POINT('',(-0.601186082225638,114.015830964374,116.472879867127));
#1056=CARTESIAN_POINT('',(-0.601186082225307,114.015830957611,113.812983894352));
#1057=CARTESIAN_POINT('Ctrl Pts',(-0.601186082225662,114.015830964374,116.472879867127));
#1058=CARTESIAN_POINT('Ctrl Pts',(-0.64023963091767,114.013221589433,116.48862931205));
#1059=CARTESIAN_POINT('Ctrl Pts',(-0.679081979798786,114.009088440179,116.503697124508));
#1060=CARTESIAN_POINT('Ctrl Pts',(-0.879468051694675,113.979881199031,116.578340741209));
#1061=CARTESIAN_POINT('Ctrl Pts',(-1.0535515651227,113.92559376773,116.631361425785));
#1062=CARTESIAN_POINT('Ctrl Pts',(-1.373939084422,113.752635679126,116.705005347279));
#1063=CARTESIAN_POINT('Ctrl Pts',(-1.52000559134029,113.633753585809,116.726163933262));
#1064=CARTESIAN_POINT('Ctrl Pts',(-1.74582115835342,113.3735380153,116.748267185368));
#1065=CARTESIAN_POINT('Ctrl Pts',(-1.8424902435866,113.214998783829,116.751369873987));
#1066=CARTESIAN_POINT('Ctrl Pts',(-1.97017155184313,112.873228750381,116.752590572601));
#1067=CARTESIAN_POINT('Ctrl Pts',(-2.00118609526266,112.690001731036,116.751420988547));
#1068=CARTESIAN_POINT('Ctrl Pts',(-2.00118606919344,112.348334064842,116.751420913815));
#1069=CARTESIAN_POINT('Ctrl Pts',(-1.9701714991528,112.165107053846,116.752590417575));
#1070=CARTESIAN_POINT('Ctrl Pts',(-1.84249014423865,111.823337046471,116.751369564786));
#1071=CARTESIAN_POINT('Ctrl Pts',(-1.74582103893579,111.664797833059,116.748266802039));
#1072=CARTESIAN_POINT('Ctrl Pts',(-1.52000543836273,111.404582294012,116.726163425575));
#1073=CARTESIAN_POINT('Ctrl Pts',(-1.37393891123897,111.285700218237,116.705004779829));
#1074=CARTESIAN_POINT('Ctrl Pts',(-1.05355135989851,111.11274217127,116.631360769708));
#1075=CARTESIAN_POINT('Ctrl Pts',(-0.879467834688215,111.058454763967,116.578340056685));
#1076=CARTESIAN_POINT('Ctrl Pts',(-0.717532122819472,111.034851874072,116.518019151908));
#1077=CARTESIAN_POINT('Ctrl Pts',(-0.679081833112169,111.029247563917,116.503696454108));
#1078=CARTESIAN_POINT('Ctrl Pts',(-0.640239558452064,111.025114425134,116.488628670171));
#1079=CARTESIAN_POINT('Ctrl Pts',(-0.601186082225903,111.022505054954,116.472879255944));
#1080=CARTESIAN_POINT('Origin',(-9.6626005829328,117.119168664399,120.900983956919));
#1081=CARTESIAN_POINT('',(-9.66260058293271,99.219168206549,119.650983956919));
#1082=CARTESIAN_POINT('',(-9.66260058293271,117.119168664399,119.650983956919));
#1083=CARTESIAN_POINT('Origin',(-9.6626005829328,99.219168208138,120.900983956919));
#1084=CARTESIAN_POINT('Origin',(-10.9011860822455,117.119168664399,115.902502115331));
#1085=CARTESIAN_POINT('',(-10.9011860822457,99.2191682049619,118.402502115331));
#1086=CARTESIAN_POINT('',(-10.9011860822455,99.2191682017838,115.902502115331));
#1087=CARTESIAN_POINT('',(-10.9011860822447,99.2191681880992,105.137651528049));
#1088=CARTESIAN_POINT('',(-10.9011860822457,117.119168664399,118.402502115331));
#1089=CARTESIAN_POINT('',(-10.9011860822455,117.119168664399,115.902502115331));
#1090=CARTESIAN_POINT('Origin',(-14.9011860822454,117.119168664399,115.902502115331));
#1091=CARTESIAN_POINT('',(-14.9011860822454,99.2191682017838,115.902502115331));
#1092=CARTESIAN_POINT('',(-11.8257784997399,99.2191682017838,115.902502115331));
#1093=CARTESIAN_POINT('',(-14.9011860822454,117.119168664399,115.902502115331));
#1094=CARTESIAN_POINT('Origin',(-14.9011860822456,117.119168664399,118.40250211533));
#1095=CARTESIAN_POINT('',(-14.9011860822456,99.2191682049619,118.40250211533));
#1096=CARTESIAN_POINT('',(-14.9011860822446,99.2191681896883,106.387651528049));
#1097=CARTESIAN_POINT('',(-14.9011860822456,117.119168664399,118.40250211533));
#1098=CARTESIAN_POINT('Origin',(-10.9011860822457,117.119168664399,118.402502115331));
#1099=CARTESIAN_POINT('',(-9.82577849974022,99.2191682049619,118.402502115331));
#1100=CARTESIAN_POINT('Origin',(-9.66260058292971,117.119168664399,93.1250187963005));
#1101=CARTESIAN_POINT('',(-9.66260058292962,99.2191681712394,91.8750187963005));
#1102=CARTESIAN_POINT('',(-9.66260058292962,117.119168664399,91.8750187963005));
#1103=CARTESIAN_POINT('Origin',(-9.66260058292971,99.2191681728285,93.1250187963005));
#1104=CARTESIAN_POINT('Origin',(-14.9011860822449,117.119168664399,123.399376160239));
#1105=CARTESIAN_POINT('',(-10.901186082245,99.219168211314,123.399376160239));
#1106=CARTESIAN_POINT('',(-14.9011860822449,99.219168211314,123.399376160239));
#1107=CARTESIAN_POINT('',(-11.8257784997399,99.219168211314,123.399376160239));
#1108=CARTESIAN_POINT('',(-10.901186082245,117.119168664399,123.399376160239));
#1109=CARTESIAN_POINT('',(-14.9011860822449,117.119168664399,123.399376160239));
#1110=CARTESIAN_POINT('Origin',(-14.9011860822451,117.119168664399,125.899376160239));
#1111=CARTESIAN_POINT('',(-14.9011860822451,99.2191682144921,125.899376160239));
#1112=CARTESIAN_POINT('',(-14.9011860822438,99.2191681944534,110.136088550503));
#1113=CARTESIAN_POINT('',(-14.9011860822451,117.119168664399,125.899376160239));
#1114=CARTESIAN_POINT('Origin',(-10.9011860822452,117.119168664399,125.899376160239));
#1115=CARTESIAN_POINT('',(-10.9011860822452,99.2191682144921,125.899376160239));
#1116=CARTESIAN_POINT('',(-9.82577849974005,99.2191682144921,125.899376160239));
#1117=CARTESIAN_POINT('',(-10.9011860822452,117.119168664399,125.899376160239));
#1118=CARTESIAN_POINT('Origin',(-10.901186082245,117.119168664399,123.399376160239));
#1119=CARTESIAN_POINT('',(-10.9011860822437,99.2191681928644,108.886088550503));
#1120=CARTESIAN_POINT('Origin',(-8.75037091723246,99.2191681744147,94.372800918013));
#1121=CARTESIAN_POINT('',(-0.601186082226992,99.2191681495746,74.8326179614518));
#1122=CARTESIAN_POINT('',(-11.0011860822569,99.219168077666,132.012983987875));
#1123=CARTESIAN_POINT('',(-11.0011860822553,99.2191681859193,103.422800974663));
#1124=CARTESIAN_POINT('',(-7.20068608224528,99.2191682222639,132.012983975988));
#1125=CARTESIAN_POINT('',(-11.2752784997402,99.2191681265655,82.0130179055473));
#1126=CARTESIAN_POINT('Origin',(-6.63818608224554,108.1691679774,91.3130184213316));
#1127=CARTESIAN_POINT('',(-6.63818608224547,106.9191679774,96.3130184213316));
#1128=CARTESIAN_POINT('',(-6.63818608224547,106.9191679774,91.3130184213316));
#1129=CARTESIAN_POINT('Origin',(-6.63818608224553,108.1691679774,96.3130184213316));
#1130=CARTESIAN_POINT('Origin',(-6.63818608224553,108.1691679774,96.3130184213316));
#1131=CARTESIAN_POINT('Origin',(-0.601186082225399,108.894167526358,67.9326178952862));
#1132=CARTESIAN_POINT('',(-0.601186082227426,114.015830983892,124.149962027685));
#1133=CARTESIAN_POINT('',(-0.601186082227874,114.015830993205,127.812983375852));
#1134=CARTESIAN_POINT('',(-0.601186082225476,114.019168023245,124.148659230004));
#1135=CARTESIAN_POINT('Origin',(-0.601186082226539,112.519167225904,120.311420951211));
#1136=CARTESIAN_POINT('',(-0.601186082225795,114.019167993977,116.474182660978));
#1137=CARTESIAN_POINT('',(-0.601186082226119,114.019168000711,118.240015402282));
#1138=CARTESIAN_POINT('Origin',(-0.601186082226539,112.519167225904,120.311420951211));
#1139=CARTESIAN_POINT('Origin',(-13.8001860822525,111.270168559659,82.0130178749084));
#1140=CARTESIAN_POINT('Origin',(-0.601186082225399,108.894167526358,67.9326178952862));
#1141=CARTESIAN_POINT('Origin',(-11.0011860822559,117.119257857612,132.01298396512));
#1142=CARTESIAN_POINT('',(-11.0011860822561,114.194713279489,132.012983937913));
#1143=CARTESIAN_POINT('Origin',(-13.8001860822566,111.270168701367,132.012983945348));
#1144=CARTESIAN_POINT('Origin',(-7.10118608224651,105.625168418076,93.5250922057236));
#1145=CARTESIAN_POINT('',(-7.10118608224967,114.019168009548,120.55718028294));
#1146=CARTESIAN_POINT('',(-7.10118608224984,114.019168007535,120.065661610512));
#1147=CARTESIAN_POINT('',(-7.10118608224797,114.019167948678,104.596069530383));
#1148=CARTESIAN_POINT('',(-7.10118608224986,111.019168009548,120.557189848749));
#1149=CARTESIAN_POINT('Origin',(-7.10118608224961,112.519167225904,120.31142095121));
#1150=CARTESIAN_POINT('',(-7.1011860822498,111.019168007834,120.065652067248));
#1151=CARTESIAN_POINT('',(-7.10118608224771,111.01916794176,102.782268176002));
#1152=CARTESIAN_POINT('Origin',(-7.10118608224961,112.519167225904,120.31142095121));
#1153=CARTESIAN_POINT('Origin',(-0.501186082227717,112.519168002901,113.812983898157));
#1154=CARTESIAN_POINT('Ctrl Pts',(-0.601186082227549,111.022505074473,124.149962654088));
#1155=CARTESIAN_POINT('Ctrl Pts',(-0.640239558453257,111.025114444572,124.134213239849));
#1156=CARTESIAN_POINT('Ctrl Pts',(-0.679081833112893,111.029247583279,124.11914545589));
#1157=CARTESIAN_POINT('Ctrl Pts',(-0.879467834688389,111.058454782949,124.044501853165));
#1158=CARTESIAN_POINT('Ctrl Pts',(-1.05355135989867,111.112742189982,123.991481139866));
#1159=CARTESIAN_POINT('Ctrl Pts',(-1.37393891123911,111.285700236575,123.917837128865));
#1160=CARTESIAN_POINT('Ctrl Pts',(-1.52000543836287,111.404582312243,123.896678482515));
#1161=CARTESIAN_POINT('Ctrl Pts',(-1.74582103893593,111.664797851177,123.874575104728));
#1162=CARTESIAN_POINT('Ctrl Pts',(-1.84249014423876,111.823337064573,123.871472341175));
#1163=CARTESIAN_POINT('Ctrl Pts',(-1.97017149915293,112.165107071942,123.870251486648));
#1164=CARTESIAN_POINT('Ctrl Pts',(-2.00118606919358,112.348334082944,123.871420989476));
#1165=CARTESIAN_POINT('Ctrl Pts',(-2.00118609526278,112.690001749138,123.871420913007));
#1166=CARTESIAN_POINT('Ctrl Pts',(-1.97017155184325,112.873228768478,123.870251328021));
#1167=CARTESIAN_POINT('Ctrl Pts',(-1.84249024358671,113.214998801931,123.871472024897));
#1168=CARTESIAN_POINT('Ctrl Pts',(-1.74582115835353,113.373538033418,123.87457471271));
#1169=CARTESIAN_POINT('Ctrl Pts',(-1.52000559134039,113.63375360404,123.896677963493));
#1170=CARTESIAN_POINT('Ctrl Pts',(-1.37393908442212,113.752635697464,123.917836548872));
#1171=CARTESIAN_POINT('Ctrl Pts',(-1.05355156512282,113.925593786443,123.991480469487));
#1172=CARTESIAN_POINT('Ctrl Pts',(-0.879468051694798,113.979881218013,124.044501153787));
#1173=CARTESIAN_POINT('Ctrl Pts',(-0.717532349325933,114.00348413176,124.10482204515));
#1174=CARTESIAN_POINT('Ctrl Pts',(-0.679081985100919,114.009088458768,124.119144768363));
#1175=CARTESIAN_POINT('Ctrl Pts',(-0.640239634607508,114.013221608624,124.134212581287));
#1176=CARTESIAN_POINT('Ctrl Pts',(-0.601186082227195,114.015830983892,124.149962027685));
#1177=CARTESIAN_POINT('Origin',(-0.900843637238118,111.019167977064,112.039444166852));
#1178=CARTESIAN_POINT('Ctrl Pts',(-7.10118608224986,111.019168009708,120.557189846452));
#1179=CARTESIAN_POINT('Ctrl Pts',(-6.8927915210855,111.019168011674,121.072730646477));
#1180=CARTESIAN_POINT('Ctrl Pts',(-4.24272223377446,111.01916801744,122.584709360544));
#1181=CARTESIAN_POINT('Ctrl Pts',(-0.601186072647676,111.019168023405,124.148659831069));
#1182=CARTESIAN_POINT('Ctrl Pts',(-0.601186072702695,111.019167994136,116.474182082659));
#1183=CARTESIAN_POINT('Ctrl Pts',(-2.66758332079177,111.019167997521,117.361649021183));
#1184=CARTESIAN_POINT('Ctrl Pts',(-5.92975484891541,111.019168003425,118.909800985112));
#1185=CARTESIAN_POINT('Ctrl Pts',(-6.99188136478133,111.019168006802,119.795246538546));
#1186=CARTESIAN_POINT('Ctrl Pts',(-7.1011860822498,111.019168007834,120.065652067248));
#1187=CARTESIAN_POINT('Origin',(-2.40118608230339,114.019167990899,115.667046887054));
#1188=CARTESIAN_POINT('Ctrl Pts',(-0.601186072590034,114.019167993837,116.474182683414));
#1189=CARTESIAN_POINT('Ctrl Pts',(-2.66757331356381,114.019167997222,117.361645465642));
#1190=CARTESIAN_POINT('Ctrl Pts',(-5.92974472111019,114.019168003126,118.909796842901));
#1191=CARTESIAN_POINT('Ctrl Pts',(-6.99188323163721,114.019168006503,119.795250187669));
#1192=CARTESIAN_POINT('Ctrl Pts',(-7.10118608224984,114.019168007535,120.065661610512));
#1193=CARTESIAN_POINT('Ctrl Pts',(-7.1011860822499,114.019168009409,120.557180280664));
#1194=CARTESIAN_POINT('Ctrl Pts',(-6.89279818920922,114.019168011375,121.072724626896));
#1195=CARTESIAN_POINT('Ctrl Pts',(-4.2427219051739,114.019168017141,122.584708628954));
#1196=CARTESIAN_POINT('Ctrl Pts',(-0.60118607266252,114.019168023105,124.148659207738));
#1197=CARTESIAN_POINT('Origin',(-4.90118608230353,112.519167225904,120.311420951211));
#1198=CARTESIAN_POINT('Origin',(-4.90118608230353,112.519167225904,120.311420951211));
#1199=CARTESIAN_POINT('Origin',(-6.63818608225437,108.16916814744,117.712982953225));
#1200=CARTESIAN_POINT('',(-6.63818608225444,109.41916814744,117.712982953225));
#1201=CARTESIAN_POINT('Origin',(-6.63818608225437,108.16916814744,117.712982953225));
#1202=CARTESIAN_POINT('Origin',(-6.63818608225437,108.16916814744,122.712982953225));
#1203=CARTESIAN_POINT('',(-6.63818608225444,109.41916814744,122.712982953225));
#1204=UNCERTAINTY_MEASURE_WITH_UNIT(LENGTH_MEASURE(0.01),#1208,
'DISTANCE_ACCURACY_VALUE',
'Maximum model space distance between geometric entities at asserted c
onnectivities');
#1205=UNCERTAINTY_MEASURE_WITH_UNIT(LENGTH_MEASURE(0.01),#1208,
'DISTANCE_ACCURACY_VALUE',
'Maximum model space distance between geometric entities at asserted c
onnectivities');
#1206=(
GEOMETRIC_REPRESENTATION_CONTEXT(3)
GLOBAL_UNCERTAINTY_ASSIGNED_CONTEXT((#1204))
GLOBAL_UNIT_ASSIGNED_CONTEXT((#1208,#1210,#1211))
REPRESENTATION_CONTEXT('','3D')
);
#1207=(
GEOMETRIC_REPRESENTATION_CONTEXT(3)
GLOBAL_UNCERTAINTY_ASSIGNED_CONTEXT((#1205))
GLOBAL_UNIT_ASSIGNED_CONTEXT((#1208,#1210,#1211))
REPRESENTATION_CONTEXT('','3D')
);
#1208=(
LENGTH_UNIT()
NAMED_UNIT(*)
SI_UNIT(.MILLI.,.METRE.)
);
#1209=(
LENGTH_UNIT()
NAMED_UNIT(*)
SI_UNIT($,.METRE.)
);
#1210=(
NAMED_UNIT(*)
PLANE_ANGLE_UNIT()
SI_UNIT($,.RADIAN.)
);
#1211=(
NAMED_UNIT(*)
SI_UNIT($,.STERADIAN.)
SOLID_ANGLE_UNIT()
);
#1212=SHAPE_DEFINITION_REPRESENTATION(#1213,#1214);
#1213=PRODUCT_DEFINITION_SHAPE('',$,#1216);
#1214=SHAPE_REPRESENTATION('',(#712),#1206);
#1215=PRODUCT_DEFINITION_CONTEXT('part definition',#1220,'design');
#1216=PRODUCT_DEFINITION('2026-06-23-13-23-13-371',
'carriage-bottom-left ',#1217,#1215);
#1217=PRODUCT_DEFINITION_FORMATION('',$,#1222);
#1218=PRODUCT_RELATED_PRODUCT_CATEGORY('carriage-bottom-left ',
'carriage-bottom-left ',(#1222));
#1219=APPLICATION_PROTOCOL_DEFINITION('international standard',
'automotive_design',2009,#1220);
#1220=APPLICATION_CONTEXT(
'Core Data for Automotive Mechanical Design Process');
#1221=PRODUCT_CONTEXT('part definition',#1220,'mechanical');
#1222=PRODUCT('2026-06-23-13-23-13-371','carriage-bottom-left ',$,(#1221));
#1223=PRESENTATION_STYLE_ASSIGNMENT((#1225));
#1224=PRESENTATION_STYLE_ASSIGNMENT((#1226));
#1225=SURFACE_STYLE_USAGE(.BOTH.,#1227);
#1226=SURFACE_STYLE_USAGE(.BOTH.,#1228);
#1227=SURFACE_SIDE_STYLE('',(#1229));
#1228=SURFACE_SIDE_STYLE('',(#1230));
#1229=SURFACE_STYLE_FILL_AREA(#1231);
#1230=SURFACE_STYLE_FILL_AREA(#1232);
#1231=FILL_AREA_STYLE('Steel - Satin',(#1233));
#1232=FILL_AREA_STYLE('ABS (White)',(#1234));
#1233=FILL_AREA_STYLE_COLOUR('Steel - Satin',#1235);
#1234=FILL_AREA_STYLE_COLOUR('ABS (White)',#1236);
#1235=COLOUR_RGB('Steel - Satin',0.627450980392157,0.627450980392157,0.627450980392157);
#1236=COLOUR_RGB('ABS (White)',0.964705882352941,0.964705882352941,0.952941176470588);
ENDSEC;
END-ISO-10303-21;
