ISO-10303-21;
HEADER;
/* Generated by software containing ST-Developer
 * from STEP Tools, Inc. (www.steptools.com) 
 */

FILE_DESCRIPTION(
/* description */ (''),
/* implementation_level */ '2;1');

FILE_NAME(
/* name */ 'mount-bottom-left.step',
/* time_stamp */ '2026-02-12T10:21:02-08:00',
/* author */ (''),
/* organization */ (''),
/* preprocessor_version */ 'ST-DEVELOPER v20.1',
/* originating_system */ 'Autodesk Translation Framework v14.24.0.0',
/* authorisation */ '');

FILE_SCHEMA (('AUTOMOTIVE_DESIGN { 1 0 10303 214 3 1 1 }'));
ENDSEC;

DATA;
#10=MECHANICAL_DESIGN_GEOMETRIC_PRESENTATION_REPRESENTATION('',(#13),#1275);
#11=SHAPE_REPRESENTATION_RELATIONSHIP('SRR','None',#1282,#12);
#12=ADVANCED_BREP_SHAPE_REPRESENTATION('',(#14),#1274);
#13=STYLED_ITEM('',(#1292),#14);
#14=MANIFOLD_SOLID_BREP('Body2',#739);
#15=CONICAL_SURFACE('',#806,2.4,0.380506377112366);
#16=CONICAL_SURFACE('',#807,2.4,0.380506377112366);
#17=(
BOUNDED_CURVE()
B_SPLINE_CURVE(2,(#1246,#1247,#1248,#1249),.UNSPECIFIED.,.F.,.F.)
B_SPLINE_CURVE_WITH_KNOTS((3,1,3),(11647.7498834342,15179.4785378848,18125.7912597105),
 .UNSPECIFIED.)
CURVE()
GEOMETRIC_REPRESENTATION_ITEM()
RATIONAL_B_SPLINE_CURVE((13246.9774398225,12891.1565552643,9608.97528236217,
7118.48159596897))
REPRESENTATION_ITEM('')
);
#18=(
BOUNDED_CURVE()
B_SPLINE_CURVE(2,(#1250,#1251,#1252,#1253,#1254),.UNSPECIFIED.,.F.,.F.)
B_SPLINE_CURVE_WITH_KNOTS((3,1,1,3),(3416.51979875124,4868.65566042363,
8018.17436760559,9894.56117501474),.UNSPECIFIED.)
CURVE()
GEOMETRIC_REPRESENTATION_ITEM()
RATIONAL_B_SPLINE_CURVE((7118.48159600215,8345.95998567882,11467.6906999155,
13057.9318819951,13246.9774398239))
REPRESENTATION_ITEM('')
);
#19=(
BOUNDED_CURVE()
B_SPLINE_CURVE(2,(#1256,#1257,#1258,#1259,#1260),.UNSPECIFIED.,.F.,.F.)
B_SPLINE_CURVE_WITH_KNOTS((3,1,1,3),(3416.5230195578,4868.65190899964,8018.16654255211,
9894.59570743757),.UNSPECIFIED.)
CURVE()
GEOMETRIC_REPRESENTATION_ITEM()
RATIONAL_B_SPLINE_CURVE((7118.47961384682,8345.95029151396,11467.6722387438,
13057.928394695,13246.9705752914))
REPRESENTATION_ITEM('')
);
#20=(
BOUNDED_CURVE()
B_SPLINE_CURVE(2,(#1261,#1262,#1263,#1264),.UNSPECIFIED.,.F.,.F.)
B_SPLINE_CURVE_WITH_KNOTS((3,1,3),(11647.7153502736,15179.4732382996,18125.7880381355),
 .UNSPECIFIED.)
CURVE()
GEOMETRIC_REPRESENTATION_ITEM()
RATIONAL_B_SPLINE_CURVE((13246.9705752923,12891.161134157,9608.97136723992,
7118.47961388428))
REPRESENTATION_ITEM('')
);
#21=B_SPLINE_CURVE_WITH_KNOTS('',3,(#1110,#1111,#1112,#1113,#1114,#1115,
#1116,#1117,#1118,#1119,#1120,#1121,#1122,#1123,#1124,#1125,#1126,#1127,
#1128,#1129,#1130,#1131,#1132),.UNSPECIFIED.,.F.,.F.,(4,2,2,2,2,2,2,2,2,
3,4),(0.52270889919756,0.53513259380545,0.587455620530377,0.639778647255303,
0.691028797789282,0.742278948323262,0.793529097647243,0.844779246971224,
0.897102276765652,0.94942530656008,0.961848975377433),.UNSPECIFIED.);
#22=B_SPLINE_CURVE_WITH_KNOTS('',3,(#1222,#1223,#1224,#1225,#1226,#1227,
#1228,#1229,#1230,#1231,#1232,#1233,#1234,#1235,#1236,#1237,#1238,#1239,
#1240,#1241,#1242,#1243,#1244),.UNSPECIFIED.,.F.,.F.,(4,2,2,2,2,2,2,2,2,
3,4),(0.522708924988273,0.535132593805455,0.587455623599882,0.63977865339431,
0.691028802718294,0.742278952042279,0.793529102576258,0.844779253110238,
0.897102279835166,0.949425306560093,0.961848999454857),.UNSPECIFIED.);
#23=FACE_BOUND('',#103,.T.);
#24=FACE_BOUND('',#107,.T.);
#25=FACE_BOUND('',#108,.T.);
#26=FACE_BOUND('',#109,.T.);
#27=FACE_BOUND('',#110,.T.);
#28=FACE_BOUND('',#125,.T.);
#29=FACE_BOUND('',#126,.T.);
#30=FACE_BOUND('',#127,.T.);
#31=FACE_BOUND('',#128,.T.);
#32=FACE_BOUND('',#136,.T.);
#33=PLANE('',#756);
#34=PLANE('',#758);
#35=PLANE('',#761);
#36=PLANE('',#764);
#37=PLANE('',#765);
#38=PLANE('',#766);
#39=PLANE('',#769);
#40=PLANE('',#770);
#41=PLANE('',#774);
#42=PLANE('',#775);
#43=PLANE('',#776);
#44=PLANE('',#777);
#45=PLANE('',#780);
#46=PLANE('',#781);
#47=PLANE('',#782);
#48=PLANE('',#783);
#49=PLANE('',#784);
#50=PLANE('',#787);
#51=PLANE('',#788);
#52=PLANE('',#789);
#53=PLANE('',#792);
#54=PLANE('',#795);
#55=PLANE('',#798);
#56=PLANE('',#799);
#57=PLANE('',#800);
#58=PLANE('',#804);
#59=PLANE('',#805);
#60=PLANE('',#808);
#61=FACE_OUTER_BOUND('',#99,.T.);
#62=FACE_OUTER_BOUND('',#100,.T.);
#63=FACE_OUTER_BOUND('',#101,.T.);
#64=FACE_OUTER_BOUND('',#102,.T.);
#65=FACE_OUTER_BOUND('',#104,.T.);
#66=FACE_OUTER_BOUND('',#105,.T.);
#67=FACE_OUTER_BOUND('',#106,.T.);
#68=FACE_OUTER_BOUND('',#111,.T.);
#69=FACE_OUTER_BOUND('',#112,.T.);
#70=FACE_OUTER_BOUND('',#113,.T.);
#71=FACE_OUTER_BOUND('',#114,.T.);
#72=FACE_OUTER_BOUND('',#115,.T.);
#73=FACE_OUTER_BOUND('',#116,.T.);
#74=FACE_OUTER_BOUND('',#117,.T.);
#75=FACE_OUTER_BOUND('',#118,.T.);
#76=FACE_OUTER_BOUND('',#119,.T.);
#77=FACE_OUTER_BOUND('',#120,.T.);
#78=FACE_OUTER_BOUND('',#121,.T.);
#79=FACE_OUTER_BOUND('',#122,.T.);
#80=FACE_OUTER_BOUND('',#123,.T.);
#81=FACE_OUTER_BOUND('',#124,.T.);
#82=FACE_OUTER_BOUND('',#129,.T.);
#83=FACE_OUTER_BOUND('',#130,.T.);
#84=FACE_OUTER_BOUND('',#131,.T.);
#85=FACE_OUTER_BOUND('',#132,.T.);
#86=FACE_OUTER_BOUND('',#133,.T.);
#87=FACE_OUTER_BOUND('',#134,.T.);
#88=FACE_OUTER_BOUND('',#135,.T.);
#89=FACE_OUTER_BOUND('',#137,.T.);
#90=FACE_OUTER_BOUND('',#138,.T.);
#91=FACE_OUTER_BOUND('',#139,.T.);
#92=FACE_OUTER_BOUND('',#140,.T.);
#93=FACE_OUTER_BOUND('',#141,.T.);
#94=FACE_OUTER_BOUND('',#142,.T.);
#95=FACE_OUTER_BOUND('',#143,.T.);
#96=FACE_OUTER_BOUND('',#144,.T.);
#97=FACE_OUTER_BOUND('',#145,.T.);
#98=FACE_OUTER_BOUND('',#146,.T.);
#99=EDGE_LOOP('',(#489,#490,#491,#492));
#100=EDGE_LOOP('',(#493,#494,#495,#496));
#101=EDGE_LOOP('',(#497,#498,#499,#500,#501,#502,#503,#504,#505,#506));
#102=EDGE_LOOP('',(#507,#508,#509,#510,#511,#512,#513,#514));
#103=EDGE_LOOP('',(#515));
#104=EDGE_LOOP('',(#516,#517,#518,#519));
#105=EDGE_LOOP('',(#520,#521,#522,#523,#524,#525));
#106=EDGE_LOOP('',(#526,#527,#528,#529,#530,#531,#532,#533));
#107=EDGE_LOOP('',(#534,#535,#536,#537));
#108=EDGE_LOOP('',(#538));
#109=EDGE_LOOP('',(#539,#540,#541,#542));
#110=EDGE_LOOP('',(#543));
#111=EDGE_LOOP('',(#544,#545,#546,#547));
#112=EDGE_LOOP('',(#548,#549,#550,#551,#552));
#113=EDGE_LOOP('',(#553,#554,#555,#556));
#114=EDGE_LOOP('',(#557,#558,#559,#560));
#115=EDGE_LOOP('',(#561,#562,#563,#564));
#116=EDGE_LOOP('',(#565,#566,#567,#568));
#117=EDGE_LOOP('',(#569,#570,#571,#572));
#118=EDGE_LOOP('',(#573,#574,#575,#576));
#119=EDGE_LOOP('',(#577,#578,#579,#580));
#120=EDGE_LOOP('',(#581,#582,#583,#584));
#121=EDGE_LOOP('',(#585,#586,#587,#588));
#122=EDGE_LOOP('',(#589,#590,#591,#592));
#123=EDGE_LOOP('',(#593,#594,#595,#596));
#124=EDGE_LOOP('',(#597,#598,#599,#600,#601,#602,#603,#604));
#125=EDGE_LOOP('',(#605,#606,#607,#608));
#126=EDGE_LOOP('',(#609));
#127=EDGE_LOOP('',(#610,#611,#612,#613));
#128=EDGE_LOOP('',(#614));
#129=EDGE_LOOP('',(#615,#616,#617,#618));
#130=EDGE_LOOP('',(#619));
#131=EDGE_LOOP('',(#620,#621,#622,#623));
#132=EDGE_LOOP('',(#624,#625,#626,#627,#628,#629,#630,#631));
#133=EDGE_LOOP('',(#632,#633,#634,#635,#636,#637));
#134=EDGE_LOOP('',(#638,#639,#640,#641));
#135=EDGE_LOOP('',(#642,#643,#644,#645,#646,#647,#648,#649));
#136=EDGE_LOOP('',(#650));
#137=EDGE_LOOP('',(#651,#652,#653,#654,#655));
#138=EDGE_LOOP('',(#656,#657,#658,#659));
#139=EDGE_LOOP('',(#660,#661,#662,#663));
#140=EDGE_LOOP('',(#664,#665,#666,#667));
#141=EDGE_LOOP('',(#668,#669,#670,#671));
#142=EDGE_LOOP('',(#672,#673,#674,#675));
#143=EDGE_LOOP('',(#676,#677,#678,#679,#680,#681));
#144=EDGE_LOOP('',(#682,#683,#684,#685,#686,#687));
#145=EDGE_LOOP('',(#688));
#146=EDGE_LOOP('',(#689,#690,#691,#692));
#147=CIRCLE('',#754,2.7);
#148=CIRCLE('',#755,2.7);
#149=CIRCLE('',#757,2.59999999999998);
#150=CIRCLE('',#759,4.1200000000308);
#151=CIRCLE('',#760,4.1200000000308);
#152=CIRCLE('',#762,1.49999999999998);
#153=CIRCLE('',#763,1.25);
#154=CIRCLE('',#767,1.25);
#155=CIRCLE('',#768,1.25);
#156=CIRCLE('',#773,1.25);
#157=CIRCLE('',#779,1.25);
#158=CIRCLE('',#786,1.25);
#159=CIRCLE('',#790,4.1200000000308);
#160=CIRCLE('',#791,4.1200000000308);
#161=CIRCLE('',#794,2.59999999999998);
#162=CIRCLE('',#796,1.49999999999999);
#163=CIRCLE('',#797,1.25);
#164=CIRCLE('',#801,1.52000000002156);
#165=CIRCLE('',#802,1.52000000002156);
#166=CIRCLE('',#809,1.25);
#167=LINE('',#1009,#243);
#168=LINE('',#1013,#244);
#169=LINE('',#1017,#245);
#170=LINE('',#1020,#246);
#171=LINE('',#1023,#247);
#172=LINE('',#1025,#248);
#173=LINE('',#1029,#249);
#174=LINE('',#1033,#250);
#175=LINE('',#1035,#251);
#176=LINE('',#1036,#252);
#177=LINE('',#1039,#253);
#178=LINE('',#1041,#254);
#179=LINE('',#1043,#255);
#180=LINE('',#1045,#256);
#181=LINE('',#1047,#257);
#182=LINE('',#1054,#258);
#183=LINE('',#1056,#259);
#184=LINE('',#1058,#260);
#185=LINE('',#1059,#261);
#186=LINE('',#1062,#262);
#187=LINE('',#1064,#263);
#188=LINE('',#1066,#264);
#189=LINE('',#1068,#265);
#190=LINE('',#1069,#266);
#191=LINE('',#1072,#267);
#192=LINE('',#1074,#268);
#193=LINE('',#1075,#269);
#194=LINE('',#1077,#270);
#195=LINE('',#1078,#271);
#196=LINE('',#1081,#272);
#197=LINE('',#1083,#273);
#198=LINE('',#1085,#274);
#199=LINE('',#1086,#275);
#200=LINE('',#1091,#276);
#201=LINE('',#1093,#277);
#202=LINE('',#1095,#278);
#203=LINE('',#1096,#279);
#204=LINE('',#1101,#280);
#205=LINE('',#1102,#281);
#206=LINE('',#1105,#282);
#207=LINE('',#1106,#283);
#208=LINE('',#1109,#284);
#209=LINE('',#1135,#285);
#210=LINE('',#1140,#286);
#211=LINE('',#1141,#287);
#212=LINE('',#1142,#288);
#213=LINE('',#1145,#289);
#214=LINE('',#1146,#290);
#215=LINE('',#1149,#291);
#216=LINE('',#1150,#292);
#217=LINE('',#1152,#293);
#218=LINE('',#1155,#294);
#219=LINE('',#1160,#295);
#220=LINE('',#1161,#296);
#221=LINE('',#1162,#297);
#222=LINE('',#1165,#298);
#223=LINE('',#1166,#299);
#224=LINE('',#1169,#300);
#225=LINE('',#1170,#301);
#226=LINE('',#1172,#302);
#227=LINE('',#1175,#303);
#228=LINE('',#1177,#304);
#229=LINE('',#1179,#305);
#230=LINE('',#1180,#306);
#231=LINE('',#1181,#307);
#232=LINE('',#1184,#308);
#233=LINE('',#1190,#309);
#234=LINE('',#1192,#310);
#235=LINE('',#1196,#311);
#236=LINE('',#1200,#312);
#237=LINE('',#1201,#313);
#238=LINE('',#1206,#314);
#239=LINE('',#1210,#315);
#240=LINE('',#1215,#316);
#241=LINE('',#1219,#317);
#242=LINE('',#1271,#318);
#243=VECTOR('',#815,10.);
#244=VECTOR('',#818,10.);
#245=VECTOR('',#823,10.);
#246=VECTOR('',#826,10.);
#247=VECTOR('',#829,10.);
#248=VECTOR('',#830,10.);
#249=VECTOR('',#833,10.);
#250=VECTOR('',#836,10.);
#251=VECTOR('',#837,10.);
#252=VECTOR('',#838,10.);
#253=VECTOR('',#841,10.);
#254=VECTOR('',#842,10.);
#255=VECTOR('',#843,10.);
#256=VECTOR('',#844,10.);
#257=VECTOR('',#845,10.);
#258=VECTOR('',#852,10.);
#259=VECTOR('',#853,10.);
#260=VECTOR('',#854,10.);
#261=VECTOR('',#855,10.);
#262=VECTOR('',#858,10.);
#263=VECTOR('',#859,10.);
#264=VECTOR('',#860,10.);
#265=VECTOR('',#861,10.);
#266=VECTOR('',#862,10.);
#267=VECTOR('',#865,10.);
#268=VECTOR('',#866,10.);
#269=VECTOR('',#867,10.);
#270=VECTOR('',#868,10.);
#271=VECTOR('',#869,10.);
#272=VECTOR('',#870,10.);
#273=VECTOR('',#871,10.);
#274=VECTOR('',#872,10.);
#275=VECTOR('',#873,10.);
#276=VECTOR('',#876,10.);
#277=VECTOR('',#877,10.);
#278=VECTOR('',#878,10.);
#279=VECTOR('',#879,10.);
#280=VECTOR('',#884,10.);
#281=VECTOR('',#885,10.);
#282=VECTOR('',#888,10.);
#283=VECTOR('',#889,10.);
#284=VECTOR('',#892,1.49999999999998);
#285=VECTOR('',#895,1.25);
#286=VECTOR('',#900,10.);
#287=VECTOR('',#901,10.);
#288=VECTOR('',#902,10.);
#289=VECTOR('',#905,10.);
#290=VECTOR('',#906,10.);
#291=VECTOR('',#909,10.);
#292=VECTOR('',#910,10.);
#293=VECTOR('',#913,10.);
#294=VECTOR('',#916,1.25);
#295=VECTOR('',#921,10.);
#296=VECTOR('',#922,10.);
#297=VECTOR('',#923,10.);
#298=VECTOR('',#926,10.);
#299=VECTOR('',#927,10.);
#300=VECTOR('',#930,10.);
#301=VECTOR('',#931,10.);
#302=VECTOR('',#934,10.);
#303=VECTOR('',#937,10.);
#304=VECTOR('',#938,10.);
#305=VECTOR('',#939,10.);
#306=VECTOR('',#940,10.);
#307=VECTOR('',#941,10.);
#308=VECTOR('',#944,1.25);
#309=VECTOR('',#953,10.);
#310=VECTOR('',#954,10.);
#311=VECTOR('',#957,10.);
#312=VECTOR('',#962,10.);
#313=VECTOR('',#963,10.);
#314=VECTOR('',#972,10.);
#315=VECTOR('',#977,10.);
#316=VECTOR('',#982,10.);
#317=VECTOR('',#985,10.);
#318=VECTOR('',#1004,1.25);
#319=VERTEX_POINT('',#1007);
#320=VERTEX_POINT('',#1008);
#321=VERTEX_POINT('',#1010);
#322=VERTEX_POINT('',#1012);
#323=VERTEX_POINT('',#1016);
#324=VERTEX_POINT('',#1018);
#325=VERTEX_POINT('',#1022);
#326=VERTEX_POINT('',#1024);
#327=VERTEX_POINT('',#1026);
#328=VERTEX_POINT('',#1028);
#329=VERTEX_POINT('',#1030);
#330=VERTEX_POINT('',#1032);
#331=VERTEX_POINT('',#1034);
#332=VERTEX_POINT('',#1038);
#333=VERTEX_POINT('',#1040);
#334=VERTEX_POINT('',#1042);
#335=VERTEX_POINT('',#1044);
#336=VERTEX_POINT('',#1046);
#337=VERTEX_POINT('',#1049);
#338=VERTEX_POINT('',#1052);
#339=VERTEX_POINT('',#1053);
#340=VERTEX_POINT('',#1055);
#341=VERTEX_POINT('',#1057);
#342=VERTEX_POINT('',#1061);
#343=VERTEX_POINT('',#1063);
#344=VERTEX_POINT('',#1065);
#345=VERTEX_POINT('',#1067);
#346=VERTEX_POINT('',#1071);
#347=VERTEX_POINT('',#1073);
#348=VERTEX_POINT('',#1076);
#349=VERTEX_POINT('',#1079);
#350=VERTEX_POINT('',#1080);
#351=VERTEX_POINT('',#1082);
#352=VERTEX_POINT('',#1084);
#353=VERTEX_POINT('',#1087);
#354=VERTEX_POINT('',#1089);
#355=VERTEX_POINT('',#1090);
#356=VERTEX_POINT('',#1092);
#357=VERTEX_POINT('',#1094);
#358=VERTEX_POINT('',#1097);
#359=VERTEX_POINT('',#1100);
#360=VERTEX_POINT('',#1104);
#361=VERTEX_POINT('',#1108);
#362=VERTEX_POINT('',#1134);
#363=VERTEX_POINT('',#1138);
#364=VERTEX_POINT('',#1139);
#365=VERTEX_POINT('',#1144);
#366=VERTEX_POINT('',#1148);
#367=VERTEX_POINT('',#1154);
#368=VERTEX_POINT('',#1158);
#369=VERTEX_POINT('',#1159);
#370=VERTEX_POINT('',#1164);
#371=VERTEX_POINT('',#1168);
#372=VERTEX_POINT('',#1174);
#373=VERTEX_POINT('',#1176);
#374=VERTEX_POINT('',#1178);
#375=VERTEX_POINT('',#1183);
#376=VERTEX_POINT('',#1189);
#377=VERTEX_POINT('',#1191);
#378=VERTEX_POINT('',#1193);
#379=VERTEX_POINT('',#1195);
#380=VERTEX_POINT('',#1199);
#381=VERTEX_POINT('',#1207);
#382=VERTEX_POINT('',#1213);
#383=VERTEX_POINT('',#1214);
#384=VERTEX_POINT('',#1216);
#385=VERTEX_POINT('',#1218);
#386=VERTEX_POINT('',#1268);
#387=EDGE_CURVE('',#319,#320,#167,.T.);
#388=EDGE_CURVE('',#321,#319,#147,.F.);
#389=EDGE_CURVE('',#322,#321,#168,.T.);
#390=EDGE_CURVE('',#320,#322,#148,.T.);
#391=EDGE_CURVE('',#323,#319,#169,.T.);
#392=EDGE_CURVE('',#324,#323,#149,.T.);
#393=EDGE_CURVE('',#321,#324,#170,.T.);
#394=EDGE_CURVE('',#320,#325,#171,.T.);
#395=EDGE_CURVE('',#325,#326,#172,.F.);
#396=EDGE_CURVE('',#326,#327,#150,.T.);
#397=EDGE_CURVE('',#327,#328,#173,.T.);
#398=EDGE_CURVE('',#328,#329,#151,.T.);
#399=EDGE_CURVE('',#330,#329,#174,.T.);
#400=EDGE_CURVE('',#331,#330,#175,.T.);
#401=EDGE_CURVE('',#323,#331,#176,.T.);
#402=EDGE_CURVE('',#332,#322,#177,.T.);
#403=EDGE_CURVE('',#332,#333,#178,.T.);
#404=EDGE_CURVE('',#334,#333,#179,.T.);
#405=EDGE_CURVE('',#334,#335,#180,.T.);
#406=EDGE_CURVE('',#336,#335,#181,.T.);
#407=EDGE_CURVE('',#336,#325,#152,.T.);
#408=EDGE_CURVE('',#337,#337,#153,.T.);
#409=EDGE_CURVE('',#338,#339,#182,.T.);
#410=EDGE_CURVE('',#339,#340,#183,.T.);
#411=EDGE_CURVE('',#340,#341,#184,.T.);
#412=EDGE_CURVE('',#341,#338,#185,.T.);
#413=EDGE_CURVE('',#338,#342,#186,.T.);
#414=EDGE_CURVE('',#343,#342,#187,.T.);
#415=EDGE_CURVE('',#343,#344,#188,.T.);
#416=EDGE_CURVE('',#345,#344,#189,.T.);
#417=EDGE_CURVE('',#339,#345,#190,.T.);
#418=EDGE_CURVE('',#346,#341,#191,.T.);
#419=EDGE_CURVE('',#347,#346,#192,.T.);
#420=EDGE_CURVE('',#335,#347,#193,.T.);
#421=EDGE_CURVE('',#334,#348,#194,.T.);
#422=EDGE_CURVE('',#342,#348,#195,.T.);
#423=EDGE_CURVE('',#349,#350,#196,.T.);
#424=EDGE_CURVE('',#350,#351,#197,.T.);
#425=EDGE_CURVE('',#351,#352,#198,.T.);
#426=EDGE_CURVE('',#352,#349,#199,.T.);
#427=EDGE_CURVE('',#353,#353,#154,.T.);
#428=EDGE_CURVE('',#354,#355,#200,.T.);
#429=EDGE_CURVE('',#355,#356,#201,.T.);
#430=EDGE_CURVE('',#356,#357,#202,.T.);
#431=EDGE_CURVE('',#357,#354,#203,.T.);
#432=EDGE_CURVE('',#358,#358,#155,.T.);
#433=EDGE_CURVE('',#348,#359,#204,.T.);
#434=EDGE_CURVE('',#359,#343,#205,.T.);
#435=EDGE_CURVE('',#360,#333,#206,.T.);
#436=EDGE_CURVE('',#359,#360,#207,.T.);
#437=EDGE_CURVE('',#336,#361,#208,.T.);
#438=EDGE_CURVE('',#361,#326,#21,.T.);
#439=EDGE_CURVE('',#358,#362,#209,.T.);
#440=EDGE_CURVE('',#362,#362,#156,.T.);
#441=EDGE_CURVE('',#363,#364,#210,.T.);
#442=EDGE_CURVE('',#357,#363,#211,.T.);
#443=EDGE_CURVE('',#356,#364,#212,.T.);
#444=EDGE_CURVE('',#364,#365,#213,.T.);
#445=EDGE_CURVE('',#355,#365,#214,.T.);
#446=EDGE_CURVE('',#365,#366,#215,.T.);
#447=EDGE_CURVE('',#354,#366,#216,.T.);
#448=EDGE_CURVE('',#366,#363,#217,.T.);
#449=EDGE_CURVE('',#353,#367,#218,.T.);
#450=EDGE_CURVE('',#367,#367,#157,.T.);
#451=EDGE_CURVE('',#368,#369,#219,.T.);
#452=EDGE_CURVE('',#351,#368,#220,.T.);
#453=EDGE_CURVE('',#350,#369,#221,.T.);
#454=EDGE_CURVE('',#369,#370,#222,.T.);
#455=EDGE_CURVE('',#349,#370,#223,.T.);
#456=EDGE_CURVE('',#370,#371,#224,.T.);
#457=EDGE_CURVE('',#352,#371,#225,.T.);
#458=EDGE_CURVE('',#371,#368,#226,.T.);
#459=EDGE_CURVE('',#332,#372,#227,.T.);
#460=EDGE_CURVE('',#373,#372,#228,.T.);
#461=EDGE_CURVE('',#374,#373,#229,.T.);
#462=EDGE_CURVE('',#345,#374,#230,.T.);
#463=EDGE_CURVE('',#344,#360,#231,.T.);
#464=EDGE_CURVE('',#337,#375,#232,.T.);
#465=EDGE_CURVE('',#375,#375,#158,.T.);
#466=EDGE_CURVE('',#376,#347,#233,.T.);
#467=EDGE_CURVE('',#376,#377,#234,.F.);
#468=EDGE_CURVE('',#377,#378,#159,.T.);
#469=EDGE_CURVE('',#379,#378,#235,.T.);
#470=EDGE_CURVE('',#379,#361,#160,.T.);
#471=EDGE_CURVE('',#380,#324,#236,.T.);
#472=EDGE_CURVE('',#372,#380,#237,.T.);
#473=EDGE_CURVE('',#331,#380,#161,.T.);
#474=EDGE_CURVE('',#330,#376,#162,.F.);
#475=EDGE_CURVE('',#346,#373,#238,.T.);
#476=EDGE_CURVE('',#381,#381,#163,.T.);
#477=EDGE_CURVE('',#340,#374,#239,.T.);
#478=EDGE_CURVE('',#382,#383,#240,.T.);
#479=EDGE_CURVE('',#384,#382,#164,.F.);
#480=EDGE_CURVE('',#385,#384,#241,.T.);
#481=EDGE_CURVE('',#383,#385,#165,.F.);
#482=EDGE_CURVE('',#329,#377,#22,.T.);
#483=EDGE_CURVE('',#328,#384,#17,.F.);
#484=EDGE_CURVE('',#385,#327,#18,.F.);
#485=EDGE_CURVE('',#379,#383,#19,.T.);
#486=EDGE_CURVE('',#382,#378,#20,.T.);
#487=EDGE_CURVE('',#386,#386,#166,.T.);
#488=EDGE_CURVE('',#381,#386,#242,.T.);
#489=ORIENTED_EDGE('',*,*,#387,.F.);
#490=ORIENTED_EDGE('',*,*,#388,.F.);
#491=ORIENTED_EDGE('',*,*,#389,.F.);
#492=ORIENTED_EDGE('',*,*,#390,.F.);
#493=ORIENTED_EDGE('',*,*,#391,.F.);
#494=ORIENTED_EDGE('',*,*,#392,.F.);
#495=ORIENTED_EDGE('',*,*,#393,.F.);
#496=ORIENTED_EDGE('',*,*,#388,.T.);
#497=ORIENTED_EDGE('',*,*,#391,.T.);
#498=ORIENTED_EDGE('',*,*,#387,.T.);
#499=ORIENTED_EDGE('',*,*,#394,.T.);
#500=ORIENTED_EDGE('',*,*,#395,.T.);
#501=ORIENTED_EDGE('',*,*,#396,.T.);
#502=ORIENTED_EDGE('',*,*,#397,.T.);
#503=ORIENTED_EDGE('',*,*,#398,.T.);
#504=ORIENTED_EDGE('',*,*,#399,.F.);
#505=ORIENTED_EDGE('',*,*,#400,.F.);
#506=ORIENTED_EDGE('',*,*,#401,.F.);
#507=ORIENTED_EDGE('',*,*,#390,.T.);
#508=ORIENTED_EDGE('',*,*,#402,.F.);
#509=ORIENTED_EDGE('',*,*,#403,.T.);
#510=ORIENTED_EDGE('',*,*,#404,.F.);
#511=ORIENTED_EDGE('',*,*,#405,.T.);
#512=ORIENTED_EDGE('',*,*,#406,.F.);
#513=ORIENTED_EDGE('',*,*,#407,.T.);
#514=ORIENTED_EDGE('',*,*,#394,.F.);
#515=ORIENTED_EDGE('',*,*,#408,.T.);
#516=ORIENTED_EDGE('',*,*,#409,.T.);
#517=ORIENTED_EDGE('',*,*,#410,.T.);
#518=ORIENTED_EDGE('',*,*,#411,.T.);
#519=ORIENTED_EDGE('',*,*,#412,.T.);
#520=ORIENTED_EDGE('',*,*,#409,.F.);
#521=ORIENTED_EDGE('',*,*,#413,.T.);
#522=ORIENTED_EDGE('',*,*,#414,.F.);
#523=ORIENTED_EDGE('',*,*,#415,.T.);
#524=ORIENTED_EDGE('',*,*,#416,.F.);
#525=ORIENTED_EDGE('',*,*,#417,.F.);
#526=ORIENTED_EDGE('',*,*,#412,.F.);
#527=ORIENTED_EDGE('',*,*,#418,.F.);
#528=ORIENTED_EDGE('',*,*,#419,.F.);
#529=ORIENTED_EDGE('',*,*,#420,.F.);
#530=ORIENTED_EDGE('',*,*,#405,.F.);
#531=ORIENTED_EDGE('',*,*,#421,.T.);
#532=ORIENTED_EDGE('',*,*,#422,.F.);
#533=ORIENTED_EDGE('',*,*,#413,.F.);
#534=ORIENTED_EDGE('',*,*,#423,.T.);
#535=ORIENTED_EDGE('',*,*,#424,.T.);
#536=ORIENTED_EDGE('',*,*,#425,.T.);
#537=ORIENTED_EDGE('',*,*,#426,.T.);
#538=ORIENTED_EDGE('',*,*,#427,.T.);
#539=ORIENTED_EDGE('',*,*,#428,.T.);
#540=ORIENTED_EDGE('',*,*,#429,.T.);
#541=ORIENTED_EDGE('',*,*,#430,.T.);
#542=ORIENTED_EDGE('',*,*,#431,.T.);
#543=ORIENTED_EDGE('',*,*,#432,.T.);
#544=ORIENTED_EDGE('',*,*,#414,.T.);
#545=ORIENTED_EDGE('',*,*,#422,.T.);
#546=ORIENTED_EDGE('',*,*,#433,.T.);
#547=ORIENTED_EDGE('',*,*,#434,.T.);
#548=ORIENTED_EDGE('',*,*,#433,.F.);
#549=ORIENTED_EDGE('',*,*,#421,.F.);
#550=ORIENTED_EDGE('',*,*,#404,.T.);
#551=ORIENTED_EDGE('',*,*,#435,.F.);
#552=ORIENTED_EDGE('',*,*,#436,.F.);
#553=ORIENTED_EDGE('',*,*,#407,.F.);
#554=ORIENTED_EDGE('',*,*,#437,.T.);
#555=ORIENTED_EDGE('',*,*,#438,.T.);
#556=ORIENTED_EDGE('',*,*,#395,.F.);
#557=ORIENTED_EDGE('',*,*,#432,.F.);
#558=ORIENTED_EDGE('',*,*,#439,.T.);
#559=ORIENTED_EDGE('',*,*,#440,.F.);
#560=ORIENTED_EDGE('',*,*,#439,.F.);
#561=ORIENTED_EDGE('',*,*,#441,.F.);
#562=ORIENTED_EDGE('',*,*,#442,.F.);
#563=ORIENTED_EDGE('',*,*,#430,.F.);
#564=ORIENTED_EDGE('',*,*,#443,.T.);
#565=ORIENTED_EDGE('',*,*,#444,.F.);
#566=ORIENTED_EDGE('',*,*,#443,.F.);
#567=ORIENTED_EDGE('',*,*,#429,.F.);
#568=ORIENTED_EDGE('',*,*,#445,.T.);
#569=ORIENTED_EDGE('',*,*,#446,.F.);
#570=ORIENTED_EDGE('',*,*,#445,.F.);
#571=ORIENTED_EDGE('',*,*,#428,.F.);
#572=ORIENTED_EDGE('',*,*,#447,.T.);
#573=ORIENTED_EDGE('',*,*,#448,.F.);
#574=ORIENTED_EDGE('',*,*,#447,.F.);
#575=ORIENTED_EDGE('',*,*,#431,.F.);
#576=ORIENTED_EDGE('',*,*,#442,.T.);
#577=ORIENTED_EDGE('',*,*,#427,.F.);
#578=ORIENTED_EDGE('',*,*,#449,.T.);
#579=ORIENTED_EDGE('',*,*,#450,.F.);
#580=ORIENTED_EDGE('',*,*,#449,.F.);
#581=ORIENTED_EDGE('',*,*,#451,.F.);
#582=ORIENTED_EDGE('',*,*,#452,.F.);
#583=ORIENTED_EDGE('',*,*,#424,.F.);
#584=ORIENTED_EDGE('',*,*,#453,.T.);
#585=ORIENTED_EDGE('',*,*,#454,.F.);
#586=ORIENTED_EDGE('',*,*,#453,.F.);
#587=ORIENTED_EDGE('',*,*,#423,.F.);
#588=ORIENTED_EDGE('',*,*,#455,.T.);
#589=ORIENTED_EDGE('',*,*,#456,.F.);
#590=ORIENTED_EDGE('',*,*,#455,.F.);
#591=ORIENTED_EDGE('',*,*,#426,.F.);
#592=ORIENTED_EDGE('',*,*,#457,.T.);
#593=ORIENTED_EDGE('',*,*,#458,.F.);
#594=ORIENTED_EDGE('',*,*,#457,.F.);
#595=ORIENTED_EDGE('',*,*,#425,.F.);
#596=ORIENTED_EDGE('',*,*,#452,.T.);
#597=ORIENTED_EDGE('',*,*,#459,.T.);
#598=ORIENTED_EDGE('',*,*,#460,.F.);
#599=ORIENTED_EDGE('',*,*,#461,.F.);
#600=ORIENTED_EDGE('',*,*,#462,.F.);
#601=ORIENTED_EDGE('',*,*,#416,.T.);
#602=ORIENTED_EDGE('',*,*,#463,.T.);
#603=ORIENTED_EDGE('',*,*,#435,.T.);
#604=ORIENTED_EDGE('',*,*,#403,.F.);
#605=ORIENTED_EDGE('',*,*,#456,.T.);
#606=ORIENTED_EDGE('',*,*,#458,.T.);
#607=ORIENTED_EDGE('',*,*,#451,.T.);
#608=ORIENTED_EDGE('',*,*,#454,.T.);
#609=ORIENTED_EDGE('',*,*,#450,.T.);
#610=ORIENTED_EDGE('',*,*,#446,.T.);
#611=ORIENTED_EDGE('',*,*,#448,.T.);
#612=ORIENTED_EDGE('',*,*,#441,.T.);
#613=ORIENTED_EDGE('',*,*,#444,.T.);
#614=ORIENTED_EDGE('',*,*,#440,.T.);
#615=ORIENTED_EDGE('',*,*,#408,.F.);
#616=ORIENTED_EDGE('',*,*,#464,.T.);
#617=ORIENTED_EDGE('',*,*,#465,.T.);
#618=ORIENTED_EDGE('',*,*,#464,.F.);
#619=ORIENTED_EDGE('',*,*,#465,.F.);
#620=ORIENTED_EDGE('',*,*,#434,.F.);
#621=ORIENTED_EDGE('',*,*,#436,.T.);
#622=ORIENTED_EDGE('',*,*,#463,.F.);
#623=ORIENTED_EDGE('',*,*,#415,.F.);
#624=ORIENTED_EDGE('',*,*,#437,.F.);
#625=ORIENTED_EDGE('',*,*,#406,.T.);
#626=ORIENTED_EDGE('',*,*,#420,.T.);
#627=ORIENTED_EDGE('',*,*,#466,.F.);
#628=ORIENTED_EDGE('',*,*,#467,.T.);
#629=ORIENTED_EDGE('',*,*,#468,.T.);
#630=ORIENTED_EDGE('',*,*,#469,.F.);
#631=ORIENTED_EDGE('',*,*,#470,.T.);
#632=ORIENTED_EDGE('',*,*,#393,.T.);
#633=ORIENTED_EDGE('',*,*,#471,.F.);
#634=ORIENTED_EDGE('',*,*,#472,.F.);
#635=ORIENTED_EDGE('',*,*,#459,.F.);
#636=ORIENTED_EDGE('',*,*,#402,.T.);
#637=ORIENTED_EDGE('',*,*,#389,.T.);
#638=ORIENTED_EDGE('',*,*,#392,.T.);
#639=ORIENTED_EDGE('',*,*,#401,.T.);
#640=ORIENTED_EDGE('',*,*,#473,.T.);
#641=ORIENTED_EDGE('',*,*,#471,.T.);
#642=ORIENTED_EDGE('',*,*,#473,.F.);
#643=ORIENTED_EDGE('',*,*,#400,.T.);
#644=ORIENTED_EDGE('',*,*,#474,.T.);
#645=ORIENTED_EDGE('',*,*,#466,.T.);
#646=ORIENTED_EDGE('',*,*,#419,.T.);
#647=ORIENTED_EDGE('',*,*,#475,.T.);
#648=ORIENTED_EDGE('',*,*,#460,.T.);
#649=ORIENTED_EDGE('',*,*,#472,.T.);
#650=ORIENTED_EDGE('',*,*,#476,.T.);
#651=ORIENTED_EDGE('',*,*,#411,.F.);
#652=ORIENTED_EDGE('',*,*,#477,.T.);
#653=ORIENTED_EDGE('',*,*,#461,.T.);
#654=ORIENTED_EDGE('',*,*,#475,.F.);
#655=ORIENTED_EDGE('',*,*,#418,.T.);
#656=ORIENTED_EDGE('',*,*,#410,.F.);
#657=ORIENTED_EDGE('',*,*,#417,.T.);
#658=ORIENTED_EDGE('',*,*,#462,.T.);
#659=ORIENTED_EDGE('',*,*,#477,.F.);
#660=ORIENTED_EDGE('',*,*,#478,.F.);
#661=ORIENTED_EDGE('',*,*,#479,.F.);
#662=ORIENTED_EDGE('',*,*,#480,.F.);
#663=ORIENTED_EDGE('',*,*,#481,.F.);
#664=ORIENTED_EDGE('',*,*,#482,.T.);
#665=ORIENTED_EDGE('',*,*,#467,.F.);
#666=ORIENTED_EDGE('',*,*,#474,.F.);
#667=ORIENTED_EDGE('',*,*,#399,.T.);
#668=ORIENTED_EDGE('',*,*,#480,.T.);
#669=ORIENTED_EDGE('',*,*,#483,.F.);
#670=ORIENTED_EDGE('',*,*,#397,.F.);
#671=ORIENTED_EDGE('',*,*,#484,.F.);
#672=ORIENTED_EDGE('',*,*,#478,.T.);
#673=ORIENTED_EDGE('',*,*,#485,.F.);
#674=ORIENTED_EDGE('',*,*,#469,.T.);
#675=ORIENTED_EDGE('',*,*,#486,.F.);
#676=ORIENTED_EDGE('',*,*,#481,.T.);
#677=ORIENTED_EDGE('',*,*,#484,.T.);
#678=ORIENTED_EDGE('',*,*,#396,.F.);
#679=ORIENTED_EDGE('',*,*,#438,.F.);
#680=ORIENTED_EDGE('',*,*,#470,.F.);
#681=ORIENTED_EDGE('',*,*,#485,.T.);
#682=ORIENTED_EDGE('',*,*,#479,.T.);
#683=ORIENTED_EDGE('',*,*,#486,.T.);
#684=ORIENTED_EDGE('',*,*,#468,.F.);
#685=ORIENTED_EDGE('',*,*,#482,.F.);
#686=ORIENTED_EDGE('',*,*,#398,.F.);
#687=ORIENTED_EDGE('',*,*,#483,.T.);
#688=ORIENTED_EDGE('',*,*,#487,.F.);
#689=ORIENTED_EDGE('',*,*,#476,.F.);
#690=ORIENTED_EDGE('',*,*,#488,.T.);
#691=ORIENTED_EDGE('',*,*,#487,.T.);
#692=ORIENTED_EDGE('',*,*,#488,.F.);
#693=CYLINDRICAL_SURFACE('',#753,2.7);
#694=CYLINDRICAL_SURFACE('',#771,1.49999999999998);
#695=CYLINDRICAL_SURFACE('',#772,1.25);
#696=CYLINDRICAL_SURFACE('',#778,1.25);
#697=CYLINDRICAL_SURFACE('',#785,1.25);
#698=CYLINDRICAL_SURFACE('',#793,2.59999999999998);
#699=CYLINDRICAL_SURFACE('',#803,1.49999999999998);
#700=CYLINDRICAL_SURFACE('',#810,1.25);
#701=ADVANCED_FACE('',(#61),#693,.F.);
#702=ADVANCED_FACE('',(#62),#33,.T.);
#703=ADVANCED_FACE('',(#63),#34,.T.);
#704=ADVANCED_FACE('',(#64,#23),#35,.T.);
#705=ADVANCED_FACE('',(#65),#36,.T.);
#706=ADVANCED_FACE('',(#66),#37,.F.);
#707=ADVANCED_FACE('',(#67,#24,#25,#26,#27),#38,.F.);
#708=ADVANCED_FACE('',(#68),#39,.T.);
#709=ADVANCED_FACE('',(#69),#40,.F.);
#710=ADVANCED_FACE('',(#70),#694,.F.);
#711=ADVANCED_FACE('',(#71),#695,.F.);
#712=ADVANCED_FACE('',(#72),#41,.F.);
#713=ADVANCED_FACE('',(#73),#42,.F.);
#714=ADVANCED_FACE('',(#74),#43,.F.);
#715=ADVANCED_FACE('',(#75),#44,.F.);
#716=ADVANCED_FACE('',(#76),#696,.F.);
#717=ADVANCED_FACE('',(#77),#45,.F.);
#718=ADVANCED_FACE('',(#78),#46,.F.);
#719=ADVANCED_FACE('',(#79),#47,.F.);
#720=ADVANCED_FACE('',(#80),#48,.F.);
#721=ADVANCED_FACE('',(#81,#28,#29,#30,#31),#49,.T.);
#722=ADVANCED_FACE('',(#82),#697,.F.);
#723=ADVANCED_FACE('',(#83),#50,.F.);
#724=ADVANCED_FACE('',(#84),#51,.T.);
#725=ADVANCED_FACE('',(#85),#52,.T.);
#726=ADVANCED_FACE('',(#86),#53,.T.);
#727=ADVANCED_FACE('',(#87),#698,.F.);
#728=ADVANCED_FACE('',(#88,#32),#54,.T.);
#729=ADVANCED_FACE('',(#89),#55,.T.);
#730=ADVANCED_FACE('',(#90),#56,.F.);
#731=ADVANCED_FACE('',(#91),#57,.T.);
#732=ADVANCED_FACE('',(#92),#699,.F.);
#733=ADVANCED_FACE('',(#93),#58,.T.);
#734=ADVANCED_FACE('',(#94),#59,.F.);
#735=ADVANCED_FACE('',(#95),#15,.F.);
#736=ADVANCED_FACE('',(#96),#16,.F.);
#737=ADVANCED_FACE('',(#97),#60,.F.);
#738=ADVANCED_FACE('',(#98),#700,.F.);
#739=CLOSED_SHELL('',(#701,#702,#703,#704,#705,#706,#707,#708,#709,#710,
#711,#712,#713,#714,#715,#716,#717,#718,#719,#720,#721,#722,#723,#724,#725,
#726,#727,#728,#729,#730,#731,#732,#733,#734,#735,#736,#737,#738));
#740=DERIVED_UNIT_ELEMENT(#742,1.);
#741=DERIVED_UNIT_ELEMENT(#1277,-3.);
#742=(
MASS_UNIT()
NAMED_UNIT(*)
SI_UNIT(.KILO.,.GRAM.)
);
#743=DERIVED_UNIT((#740,#741));
#744=MEASURE_REPRESENTATION_ITEM('density measure',
POSITIVE_RATIO_MEASURE(7850.),#743);
#745=PROPERTY_DEFINITION_REPRESENTATION(#750,#747);
#746=PROPERTY_DEFINITION_REPRESENTATION(#751,#748);
#747=REPRESENTATION('material name',(#749),#1274);
#748=REPRESENTATION('density',(#744),#1274);
#749=DESCRIPTIVE_REPRESENTATION_ITEM('Steel','Steel');
#750=PROPERTY_DEFINITION('material property','material name',#1284);
#751=PROPERTY_DEFINITION('material property','density of part',#1284);
#752=AXIS2_PLACEMENT_3D('',#1005,#811,#812);
#753=AXIS2_PLACEMENT_3D('',#1006,#813,#814);
#754=AXIS2_PLACEMENT_3D('',#1011,#816,#817);
#755=AXIS2_PLACEMENT_3D('',#1014,#819,#820);
#756=AXIS2_PLACEMENT_3D('',#1015,#821,#822);
#757=AXIS2_PLACEMENT_3D('',#1019,#824,#825);
#758=AXIS2_PLACEMENT_3D('',#1021,#827,#828);
#759=AXIS2_PLACEMENT_3D('',#1027,#831,#832);
#760=AXIS2_PLACEMENT_3D('',#1031,#834,#835);
#761=AXIS2_PLACEMENT_3D('',#1037,#839,#840);
#762=AXIS2_PLACEMENT_3D('',#1048,#846,#847);
#763=AXIS2_PLACEMENT_3D('',#1050,#848,#849);
#764=AXIS2_PLACEMENT_3D('',#1051,#850,#851);
#765=AXIS2_PLACEMENT_3D('',#1060,#856,#857);
#766=AXIS2_PLACEMENT_3D('',#1070,#863,#864);
#767=AXIS2_PLACEMENT_3D('',#1088,#874,#875);
#768=AXIS2_PLACEMENT_3D('',#1098,#880,#881);
#769=AXIS2_PLACEMENT_3D('',#1099,#882,#883);
#770=AXIS2_PLACEMENT_3D('',#1103,#886,#887);
#771=AXIS2_PLACEMENT_3D('',#1107,#890,#891);
#772=AXIS2_PLACEMENT_3D('',#1133,#893,#894);
#773=AXIS2_PLACEMENT_3D('',#1136,#896,#897);
#774=AXIS2_PLACEMENT_3D('',#1137,#898,#899);
#775=AXIS2_PLACEMENT_3D('',#1143,#903,#904);
#776=AXIS2_PLACEMENT_3D('',#1147,#907,#908);
#777=AXIS2_PLACEMENT_3D('',#1151,#911,#912);
#778=AXIS2_PLACEMENT_3D('',#1153,#914,#915);
#779=AXIS2_PLACEMENT_3D('',#1156,#917,#918);
#780=AXIS2_PLACEMENT_3D('',#1157,#919,#920);
#781=AXIS2_PLACEMENT_3D('',#1163,#924,#925);
#782=AXIS2_PLACEMENT_3D('',#1167,#928,#929);
#783=AXIS2_PLACEMENT_3D('',#1171,#932,#933);
#784=AXIS2_PLACEMENT_3D('',#1173,#935,#936);
#785=AXIS2_PLACEMENT_3D('',#1182,#942,#943);
#786=AXIS2_PLACEMENT_3D('',#1185,#945,#946);
#787=AXIS2_PLACEMENT_3D('',#1186,#947,#948);
#788=AXIS2_PLACEMENT_3D('',#1187,#949,#950);
#789=AXIS2_PLACEMENT_3D('',#1188,#951,#952);
#790=AXIS2_PLACEMENT_3D('',#1194,#955,#956);
#791=AXIS2_PLACEMENT_3D('',#1197,#958,#959);
#792=AXIS2_PLACEMENT_3D('',#1198,#960,#961);
#793=AXIS2_PLACEMENT_3D('',#1202,#964,#965);
#794=AXIS2_PLACEMENT_3D('',#1203,#966,#967);
#795=AXIS2_PLACEMENT_3D('',#1204,#968,#969);
#796=AXIS2_PLACEMENT_3D('',#1205,#970,#971);
#797=AXIS2_PLACEMENT_3D('',#1208,#973,#974);
#798=AXIS2_PLACEMENT_3D('',#1209,#975,#976);
#799=AXIS2_PLACEMENT_3D('',#1211,#978,#979);
#800=AXIS2_PLACEMENT_3D('',#1212,#980,#981);
#801=AXIS2_PLACEMENT_3D('',#1217,#983,#984);
#802=AXIS2_PLACEMENT_3D('',#1220,#986,#987);
#803=AXIS2_PLACEMENT_3D('',#1221,#988,#989);
#804=AXIS2_PLACEMENT_3D('',#1245,#990,#991);
#805=AXIS2_PLACEMENT_3D('',#1255,#992,#993);
#806=AXIS2_PLACEMENT_3D('',#1265,#994,#995);
#807=AXIS2_PLACEMENT_3D('',#1266,#996,#997);
#808=AXIS2_PLACEMENT_3D('',#1267,#998,#999);
#809=AXIS2_PLACEMENT_3D('',#1269,#1000,#1001);
#810=AXIS2_PLACEMENT_3D('',#1270,#1002,#1003);
#811=DIRECTION('axis',(0.,0.,1.));
#812=DIRECTION('refdir',(1.,0.,0.));
#813=DIRECTION('center_axis',(1.27472961585339E-13,-1.27124012741968E-9,
-1.));
#814=DIRECTION('ref_axis',(-5.58333103154496E-14,1.,-1.27124012741968E-9));
#815=DIRECTION('',(1.27472961585339E-13,-1.27124012741968E-9,-1.));
#816=DIRECTION('center_axis',(-1.27588822682506E-13,1.27124011495265E-9,
1.));
#817=DIRECTION('ref_axis',(-5.58333103154496E-14,1.,-1.27124012741968E-9));
#818=DIRECTION('',(-1.27472961585339E-13,1.27124012741968E-9,1.));
#819=DIRECTION('center_axis',(-1.27588822682505E-13,1.2712280787146E-9,
1.));
#820=DIRECTION('ref_axis',(-5.58333103154496E-14,1.,-1.27124012741968E-9));
#821=DIRECTION('center_axis',(1.27588822682506E-13,-1.27124011495265E-9,
-1.));
#822=DIRECTION('ref_axis',(-5.58333103154496E-14,1.,-1.27124011495265E-9));
#823=DIRECTION('',(4.2214805583013E-14,1.,-1.27124011495265E-9));
#824=DIRECTION('center_axis',(1.27588822682506E-13,-1.27124011495265E-9,
-1.));
#825=DIRECTION('ref_axis',(-0.0384615384600536,-0.999260081289794,1.27028418946693E-9));
#826=DIRECTION('',(4.2214805583013E-14,1.,-1.27124011495265E-9));
#827=DIRECTION('center_axis',(1.,-4.22148055050272E-14,6.13462963749821E-14));
#828=DIRECTION('ref_axis',(-6.13462963749845E-14,-5.52085820396125E-14,
1.));
#829=DIRECTION('',(4.22148056609944E-14,1.,-2.54240652171651E-9));
#830=DIRECTION('',(1.22435606737607E-13,-2.54245363218018E-9,-1.));
#831=DIRECTION('center_axis',(-1.,4.22148052728396E-14,-1.83328492946837E-13));
#832=DIRECTION('ref_axis',(-1.30613217669742E-13,3.81368858074071E-9,1.));
#833=DIRECTION('',(-1.83328492785843E-13,3.81368845827603E-9,1.));
#834=DIRECTION('center_axis',(-1.,4.22148052728396E-14,-1.83328492946837E-13));
#835=DIRECTION('ref_axis',(-1.30613217669742E-13,3.81368858074071E-9,1.));
#836=DIRECTION('',(1.22435606737607E-13,-2.54245363218018E-9,-1.));
#837=DIRECTION('',(4.22148057389437E-14,1.,-2.54245317396838E-9));
#838=DIRECTION('',(-5.65345491064962E-14,1.27122696849157E-9,1.));
#839=DIRECTION('center_axis',(1.27588822682505E-13,-1.2712280787146E-9,
-1.));
#840=DIRECTION('ref_axis',(-5.41075154845218E-14,1.,-1.2712280787146E-9));
#841=DIRECTION('',(4.22148056609944E-14,1.,-2.54240652171651E-9));
#842=DIRECTION('',(-1.,2.5739956899728E-15,-1.27588822685777E-13));
#843=DIRECTION('',(-5.29041060563004E-14,-1.,1.2712280787146E-9));
#844=DIRECTION('',(1.,1.39075650194024E-15,1.27588822680737E-13));
#845=DIRECTION('',(4.22148056609944E-14,1.,-2.54240652171651E-9));
#846=DIRECTION('center_axis',(-1.27588822682505E-13,1.2712280787146E-9,
1.));
#847=DIRECTION('ref_axis',(-6.91796342143743E-14,1.,-1.2712280787146E-9));
#848=DIRECTION('center_axis',(-1.27588822682505E-13,1.2712280787146E-9,
1.));
#849=DIRECTION('ref_axis',(-5.5305955982002E-14,1.,-1.2712280787146E-9));
#850=DIRECTION('center_axis',(-8.6606889719894E-14,0.707106782984332,0.707106779388763));
#851=DIRECTION('ref_axis',(1.,0.,1.22480638348226E-13));
#852=DIRECTION('',(-3.95946525491481E-14,-0.707106779388763,0.707106782984332));
#853=DIRECTION('',(1.,1.39075648541698E-15,1.21089881855737E-13));
#854=DIRECTION('',(7.73848153662245E-14,0.707106779388763,-0.707106782984332));
#855=DIRECTION('',(-1.,-1.39075648541698E-15,-1.21089881855737E-13));
#856=DIRECTION('center_axis',(1.,5.39254618462417E-16,5.65345491058107E-14));
#857=DIRECTION('ref_axis',(-5.65345491064962E-14,1.27122696849157E-9,1.));
#858=DIRECTION('',(5.65345491071817E-14,-2.54245417047013E-9,-1.));
#859=DIRECTION('',(-4.03572733965047E-14,0.707106785562609,0.707106776810486));
#860=DIRECTION('',(5.3925455267546E-16,-1.,2.54240552521476E-9));
#861=DIRECTION('',(5.65345491064962E-14,-1.27122696849157E-9,-1.));
#862=DIRECTION('',(5.39254474725877E-16,-1.,2.54245417047013E-9));
#863=DIRECTION('center_axis',(1.3907561775515E-15,-1.,2.54245417047013E-9));
#864=DIRECTION('ref_axis',(1.,1.39075648131124E-15,1.19475012001737E-13));
#865=DIRECTION('',(-5.65345490392431E-14,2.54245417047013E-9,1.));
#866=DIRECTION('',(-1.,-1.390756321288E-15,-5.65345491047282E-14));
#867=DIRECTION('',(-6.1346296267655E-14,2.54240552521476E-9,1.));
#868=DIRECTION('',(1.88140240067919E-13,-2.54240552521476E-9,-1.));
#869=DIRECTION('',(1.,1.39075649176047E-15,1.23584907244353E-13));
#870=DIRECTION('',(8.32667267090324E-14,-2.54245417047013E-9,-1.));
#871=DIRECTION('',(1.,1.39075638925334E-15,8.32667267090327E-14));
#872=DIRECTION('',(-8.68194403878333E-14,2.54245417047013E-9,1.));
#873=DIRECTION('',(-1.,-1.39075636667181E-15,-7.43849425120312E-14));
#874=DIRECTION('center_axis',(1.3907561775515E-15,-1.,2.54245417047013E-9));
#875=DIRECTION('ref_axis',(-6.55031583150297E-14,2.54245417047013E-9,1.));
#876=DIRECTION('',(8.68194403878333E-14,-2.54245417047013E-9,-1.));
#877=DIRECTION('',(1.,1.39075641183487E-15,9.21485109060342E-14));
#878=DIRECTION('',(-7.97140130302321E-14,2.54245417047013E-9,1.));
#879=DIRECTION('',(-1.,-1.39075641183487E-15,-9.21485109060341E-14));
#880=DIRECTION('center_axis',(1.3907561775515E-15,-1.,2.54245417047013E-9));
#881=DIRECTION('ref_axis',(-6.55031583150297E-14,2.54245417047013E-9,1.));
#882=DIRECTION('center_axis',(8.64043131653909E-14,0.707106776810486,-0.707106785562609));
#883=DIRECTION('ref_axis',(-1.,0.,-1.22194150769807E-13));
#884=DIRECTION('',(9.56263866304703E-14,-0.707106785562609,-0.707106776810486));
#885=DIRECTION('',(-1.,-1.39075649176047E-15,-1.23584907244353E-13));
#886=DIRECTION('center_axis',(-1.,5.29041058171312E-14,-1.88140240202423E-13));
#887=DIRECTION('ref_axis',(-5.2904106534629E-14,-1.,3.81363278270447E-9));
#888=DIRECTION('',(-1.8814024013517E-13,1.27122696849157E-9,1.));
#889=DIRECTION('',(-5.290410629546E-14,-1.,2.54240552521476E-9));
#890=DIRECTION('center_axis',(1.22435606737607E-13,-2.54245363218018E-9,
-1.));
#891=DIRECTION('ref_axis',(-6.91796340587311E-14,1.,-2.54245363218018E-9));
#892=DIRECTION('',(-1.22435606737607E-13,2.54245363218018E-9,1.));
#893=DIRECTION('center_axis',(0.,-1.,7.40148683083438E-16));
#894=DIRECTION('ref_axis',(-6.55031583150297E-14,7.40148683083438E-16,1.));
#895=DIRECTION('',(0.,-1.,7.40148683083438E-16));
#896=DIRECTION('center_axis',(2.57399585216716E-15,1.,-1.27122696849157E-9));
#897=DIRECTION('ref_axis',(-6.55031583150297E-14,1.27122696849157E-9,1.));
#898=DIRECTION('center_axis',(1.,5.90002217676223E-29,7.97140130302321E-14));
#899=DIRECTION('ref_axis',(-7.97140130302321E-14,4.44089211918014E-16,1.));
#900=DIRECTION('',(7.97140130302321E-14,-1.27122696849157E-9,-1.));
#901=DIRECTION('',(0.,-1.,7.40148683083438E-16));
#902=DIRECTION('',(0.,-1.,7.40148683083438E-16));
#903=DIRECTION('center_axis',(9.21485109060342E-14,-7.40148683083438E-16,
-1.));
#904=DIRECTION('ref_axis',(1.,-2.77555756156101E-16,9.21485109060342E-14));
#905=DIRECTION('',(-1.,2.57399573502548E-15,-9.21485109060342E-14));
#906=DIRECTION('',(0.,-1.,7.40148683083438E-16));
#907=DIRECTION('center_axis',(-1.,-6.42592944690958E-29,-8.68194403878333E-14));
#908=DIRECTION('ref_axis',(8.68194403878333E-14,-4.44089211918014E-16,-1.));
#909=DIRECTION('',(-8.68194403878333E-14,1.27122696849157E-9,1.));
#910=DIRECTION('',(0.,-1.,7.40148683083438E-16));
#911=DIRECTION('center_axis',(-9.21485109060341E-14,7.40148683083438E-16,
1.));
#912=DIRECTION('ref_axis',(-1.,-1.94725454826154E-28,-9.21485109060341E-14));
#913=DIRECTION('',(1.,-2.57399573502548E-15,9.21485109060341E-14));
#914=DIRECTION('center_axis',(0.,-1.,7.40148683083438E-16));
#915=DIRECTION('ref_axis',(-6.55031583150297E-14,7.40148683083438E-16,1.));
#916=DIRECTION('',(0.,-1.,7.40148683083438E-16));
#917=DIRECTION('center_axis',(2.57399585216716E-15,1.,-1.27122696849157E-9));
#918=DIRECTION('ref_axis',(-6.55031583150297E-14,1.27122696849157E-9,1.));
#919=DIRECTION('center_axis',(8.32667267090327E-14,-7.40148683083438E-16,
-1.));
#920=DIRECTION('ref_axis',(1.,1.9491030884774E-28,8.32667267090327E-14));
#921=DIRECTION('',(-1.,2.57399574631625E-15,-8.32667267090327E-14));
#922=DIRECTION('',(0.,-1.,7.40148683083438E-16));
#923=DIRECTION('',(0.,-1.,7.40148683083438E-16));
#924=DIRECTION('center_axis',(-1.,-6.16297581183589E-29,-8.32667267090324E-14));
#925=DIRECTION('ref_axis',(8.32667267090324E-14,4.44089207782111E-16,-1.));
#926=DIRECTION('',(-8.32667267090324E-14,1.27122696849157E-9,1.));
#927=DIRECTION('',(0.,-1.,7.40148683083438E-16));
#928=DIRECTION('center_axis',(-7.43849425120312E-14,7.40148683083438E-16,
1.));
#929=DIRECTION('ref_axis',(-1.,-2.77555756156491E-16,-7.43849425120312E-14));
#930=DIRECTION('',(1.,-2.57399575760701E-15,7.43849425120312E-14));
#931=DIRECTION('',(0.,-1.,7.40148683083438E-16));
#932=DIRECTION('center_axis',(1.,6.42592944690958E-29,8.68194403878333E-14));
#933=DIRECTION('ref_axis',(-8.68194403878333E-14,2.06795153138257E-24,1.));
#934=DIRECTION('',(8.68194403878333E-14,-1.27122696849157E-9,-1.));
#935=DIRECTION('center_axis',(-2.57399585216716E-15,-1.,1.27122696849157E-9));
#936=DIRECTION('ref_axis',(5.65345491064962E-14,-1.27122696849157E-9,-1.));
#937=DIRECTION('',(-5.65345491064962E-14,1.27122696849157E-9,1.));
#938=DIRECTION('',(1.,-2.57399578029891E-15,5.65345491097683E-14));
#939=DIRECTION('',(5.65345491064962E-14,-1.27122696849157E-9,-1.));
#940=DIRECTION('',(1.,-2.57399569823443E-15,1.21089881865817E-13));
#941=DIRECTION('',(1.,-2.57399569506269E-15,1.23584907254433E-13));
#942=DIRECTION('center_axis',(9.47390392734226E-26,-5.55111371691874E-17,
1.));
#943=DIRECTION('ref_axis',(-5.5305955982002E-14,1.,5.55111371691874E-17));
#944=DIRECTION('',(9.47390392734226E-26,-5.55111371691874E-17,1.));
#945=DIRECTION('center_axis',(9.47390392734226E-26,-5.55111371691874E-17,
1.));
#946=DIRECTION('ref_axis',(-5.5305955982002E-14,1.,5.55111371691874E-17));
#947=DIRECTION('center_axis',(9.47390392734226E-26,-5.55111371691874E-17,
1.));
#948=DIRECTION('ref_axis',(-5.5305955982002E-14,1.,5.55111371691874E-17));
#949=DIRECTION('center_axis',(1.23584907247889E-13,-2.54240552521476E-9,
-1.));
#950=DIRECTION('ref_axis',(-1.34753240799764E-14,1.,-2.54240552521476E-9));
#951=DIRECTION('center_axis',(1.,-4.22148055050272E-14,6.13462963749821E-14));
#952=DIRECTION('ref_axis',(-6.13462963749845E-14,-5.52085820396125E-14,
1.));
#953=DIRECTION('',(4.22148057389437E-14,1.,-2.54245317396838E-9));
#954=DIRECTION('',(-1.22435606737607E-13,2.54245363218018E-9,1.));
#955=DIRECTION('center_axis',(-1.,4.22148052728396E-14,-1.83328492946837E-13));
#956=DIRECTION('ref_axis',(-1.30613217669742E-13,3.81368858074071E-9,1.));
#957=DIRECTION('',(-1.83328492785843E-13,3.81368845827603E-9,1.));
#958=DIRECTION('center_axis',(-1.,4.22148052728396E-14,-1.83328492946837E-13));
#959=DIRECTION('ref_axis',(-1.30613217669742E-13,3.81368858074071E-9,1.));
#960=DIRECTION('center_axis',(1.,-4.22148055050272E-14,6.13462963749821E-14));
#961=DIRECTION('ref_axis',(-6.13462963749845E-14,-5.52085820396125E-14,
1.));
#962=DIRECTION('',(5.65345491064962E-14,-1.27122696849157E-9,-1.));
#963=DIRECTION('',(4.22148057389437E-14,1.,-2.54245317396838E-9));
#964=DIRECTION('center_axis',(5.65345491064962E-14,-1.27122696849157E-9,
-1.));
#965=DIRECTION('ref_axis',(-0.0384615384600536,-0.999260081289794,1.27028418946693E-9));
#966=DIRECTION('center_axis',(-5.65345491064962E-14,1.27122696849157E-9,
1.));
#967=DIRECTION('ref_axis',(-0.0384615384600536,-0.999260081289794,1.27028418946693E-9));
#968=DIRECTION('center_axis',(-5.65345491064962E-14,1.27122696849157E-9,
1.));
#969=DIRECTION('ref_axis',(1.,5.11499042846662E-16,5.6534549105846E-14));
#970=DIRECTION('center_axis',(-1.1956183773063E-13,2.54245317396838E-9,
1.));
#971=DIRECTION('ref_axis',(-5.73372521036932E-14,1.,-2.54245363218018E-9));
#972=DIRECTION('',(-5.29041063015413E-14,-1.,1.27122691298042E-9));
#973=DIRECTION('center_axis',(5.65345491064962E-14,-1.27122696849157E-9,
-1.));
#974=DIRECTION('ref_axis',(5.5305955982002E-14,-1.,1.27122696849157E-9));
#975=DIRECTION('center_axis',(1.,-5.29041062296731E-14,5.65345491737493E-14));
#976=DIRECTION('ref_axis',(-5.29041063015413E-14,-1.,1.27122691298042E-9));
#977=DIRECTION('',(-5.29041063734096E-14,-1.,2.54245417047013E-9));
#978=DIRECTION('center_axis',(1.21089881859273E-13,-2.54245417047013E-9,
-1.));
#979=DIRECTION('ref_axis',(-1.34753240020268E-14,1.,-2.54245417047013E-9));
#980=DIRECTION('center_axis',(1.,1.43119342711148E-14,1.20831496100393E-13));
#981=DIRECTION('ref_axis',(-1.20831496118587E-13,1.27122709095625E-9,1.));
#982=DIRECTION('',(1.20831496154975E-13,-3.81368845827603E-9,-1.));
#983=DIRECTION('center_axis',(1.,1.43119342711148E-14,1.20831496100393E-13));
#984=DIRECTION('ref_axis',(-1.30613217669742E-13,3.81368858074071E-9,1.));
#985=DIRECTION('',(-1.20831496154975E-13,3.81368845827603E-9,1.));
#986=DIRECTION('center_axis',(1.,1.43119342711148E-14,1.20831496100393E-13));
#987=DIRECTION('ref_axis',(-1.30613217669742E-13,3.81368858074071E-9,1.));
#988=DIRECTION('center_axis',(1.22435606737607E-13,-2.54245363218018E-9,
-1.));
#989=DIRECTION('ref_axis',(-6.91796340587311E-14,1.,-2.54245363218018E-9));
#990=DIRECTION('center_axis',(5.58790893520697E-14,1.,-3.81368845827603E-9));
#991=DIRECTION('ref_axis',(-1.19506326003584E-13,3.81368845827603E-9,1.));
#992=DIRECTION('center_axis',(5.58513337764539E-14,1.,-3.81368845827603E-9));
#993=DIRECTION('ref_axis',(-1.30613217669742E-13,3.81368845827603E-9,1.));
#994=DIRECTION('center_axis',(1.,-5.5879088855663E-14,1.30164467253091E-13));
#995=DIRECTION('ref_axis',(1.29715894378864E-13,3.18108600839834E-6,-0.99999999999494));
#996=DIRECTION('center_axis',(1.,-5.5879088855663E-14,1.30164467253091E-13));
#997=DIRECTION('ref_axis',(-1.30613217669742E-13,3.81368858074071E-9,1.));
#998=DIRECTION('center_axis',(-9.47390392734226E-26,5.55111371691874E-17,
-1.));
#999=DIRECTION('ref_axis',(5.5305955982002E-14,-1.,-5.55111371691874E-17));
#1000=DIRECTION('center_axis',(-9.47390392734226E-26,5.55111371691874E-17,
-1.));
#1001=DIRECTION('ref_axis',(5.5305955982002E-14,-1.,-5.55111371691874E-17));
#1002=DIRECTION('center_axis',(-9.47390392734226E-26,5.55111371691874E-17,
-1.));
#1003=DIRECTION('ref_axis',(5.5305955982002E-14,-1.,-5.55111371691874E-17));
#1004=DIRECTION('',(-9.47390392734226E-26,5.55111371691874E-17,-1.));
#1005=CARTESIAN_POINT('',(0.,0.,0.));
#1006=CARTESIAN_POINT('Origin',(-0.501186082211031,103.819169057977,127.832618450142));
#1007=CARTESIAN_POINT('',(-0.601186082229167,106.51731657047,127.712618446712));
#1008=CARTESIAN_POINT('',(-0.601186082225076,106.517316517841,86.3130184495106));
#1009=CARTESIAN_POINT('',(-0.601186082229175,106.517316570622,127.832618446712));
#1010=CARTESIAN_POINT('',(-0.601186082229395,101.121021545178,127.712618453572));
#1011=CARTESIAN_POINT('Origin',(-0.501186082211014,103.819169057824,127.712618450142));
#1012=CARTESIAN_POINT('',(-0.601186082225304,101.121021492549,86.3130184632302));
#1013=CARTESIAN_POINT('',(-0.601186082229402,101.121021545331,127.832618453572));
#1014=CARTESIAN_POINT('Origin',(-0.501186082205739,103.819169005195,86.31301845014));
#1015=CARTESIAN_POINT('Origin',(-0.501186082211014,103.819169057824,127.712618450142));
#1016=CARTESIAN_POINT('',(-0.601186082228917,106.417243989786,127.712618446839));
#1017=CARTESIAN_POINT('',(-0.601186082229174,106.356668330088,127.712618446916));
#1018=CARTESIAN_POINT('',(-0.601186082229136,101.221091567079,127.712618453444));
#1019=CARTESIAN_POINT('Origin',(-0.50118608223377,103.819167778432,127.712618450142));
#1020=CARTESIAN_POINT('',(-0.601186082229174,106.356668330088,127.712618446916));
#1021=CARTESIAN_POINT('Origin',(-0.601186082225399,108.894167526358,67.9326178952862));
#1022=CARTESIAN_POINT('',(-0.601186082224886,111.022504963689,86.3130184380566));
#1023=CARTESIAN_POINT('',(-0.601186082224991,108.531667765904,86.3130184443893));
#1024=CARTESIAN_POINT('',(-0.601186082225759,111.022505054954,116.472879255944));
#1025=CARTESIAN_POINT('',(-0.601186082225434,111.022505048192,113.812983901962));
#1026=CARTESIAN_POINT('',(-0.601186082224476,111.019167993977,116.474182060488));
#1027=CARTESIAN_POINT('Origin',(-0.601186082226539,112.519167225904,120.311420951211));
#1028=CARTESIAN_POINT('',(-0.601186082227329,111.019168023245,124.148659853375));
#1029=CARTESIAN_POINT('',(-0.601186082225913,111.019167993794,116.426214047901));
#1030=CARTESIAN_POINT('',(-0.601186082227549,111.022505074473,124.149962654088));
#1031=CARTESIAN_POINT('Origin',(-0.601186082226539,112.519167225904,120.311420951211));
#1032=CARTESIAN_POINT('',(-0.601186082227982,111.022505083532,127.712983383463));
#1033=CARTESIAN_POINT('',(-0.601186082228,111.022505083786,127.812983383463));
#1034=CARTESIAN_POINT('',(-0.601186082228176,106.417244007321,127.712983395171));
#1035=CARTESIAN_POINT('',(-0.601186082228087,108.531667885747,127.712983389795));
#1036=CARTESIAN_POINT('',(-0.601186082225927,106.417243922563,74.8326179523014));
#1037=CARTESIAN_POINT('Origin',(-12.8891860822524,111.270168612405,86.3130184406664));
#1038=CARTESIAN_POINT('',(-0.601186082225377,99.2191681144895,86.3130184680655));
#1039=CARTESIAN_POINT('',(-0.601186082224991,108.531667765904,86.3130184443893));
#1040=CARTESIAN_POINT('',(-11.0011860822536,99.219167952357,86.3130188936602));
#1041=CARTESIAN_POINT('',(-6.74518608223881,99.2191681320317,86.3130184559868));
#1042=CARTESIAN_POINT('',(-11.0011860822526,117.119167582303,86.3130188253962));
#1043=CARTESIAN_POINT('',(-11.0011860822528,114.194713166888,86.3130184369489));
#1044=CARTESIAN_POINT('',(-0.601186082224605,117.119167917318,86.3130184225564));
#1045=CARTESIAN_POINT('',(-14.8951860821315,117.119167867629,86.3130184332307));
#1046=CARTESIAN_POINT('',(-0.601186082224728,114.015830873108,86.3130184304463));
#1047=CARTESIAN_POINT('',(-0.601186082224991,108.531667765904,86.3130184443893));
#1048=CARTESIAN_POINT('Origin',(-0.50118608222435,112.519167932984,86.3130184390802));
#1049=CARTESIAN_POINT('',(-6.63818608224547,106.9191679774,86.3130184430202));
#1050=CARTESIAN_POINT('Origin',(-6.63818608224554,108.1691679774,86.3130184446093));
#1051=CARTESIAN_POINT('Origin',(-15.350686082138,116.119168045551,131.01298393302));
#1052=CARTESIAN_POINT('',(-16.9011860822555,117.119168043008,130.012983930477));
#1053=CARTESIAN_POINT('',(-16.9011860822557,115.119168048093,132.012983935562));
#1054=CARTESIAN_POINT('',(-16.9011860822553,121.200725002363,125.931426950368));
#1055=CARTESIAN_POINT('',(-11.001186082256,115.119168048093,132.012983935563));
#1056=CARTESIAN_POINT('',(-15.3506860821382,115.119168048093,132.012983935562));
#1057=CARTESIAN_POINT('',(-11.0011860822558,117.119168043008,130.012983930478));
#1058=CARTESIAN_POINT('',(-11.0011860822559,116.11919048927,131.012961489301));
#1059=CARTESIAN_POINT('',(-15.3506860821379,117.119168043008,130.012983930477));
#1060=CARTESIAN_POINT('Origin',(-16.901186082254,108.100168427793,102.667756528789));
#1061=CARTESIAN_POINT('',(-16.9011860822529,117.119167926055,84.0130178600375));
#1062=CARTESIAN_POINT('',(-16.9011860822547,117.119168007992,116.240370218168));
#1063=CARTESIAN_POINT('',(-16.9011860822515,115.119167906385,82.0130178651223));
#1064=CARTESIAN_POINT('',(-16.901186082253,119.028102685852,85.9219525962069));
#1065=CARTESIAN_POINT('',(-16.9011860822521,99.2191679359587,82.0130179059923));
#1066=CARTESIAN_POINT('',(-16.9011860822515,109.68516845529,82.0130178789378));
#1067=CARTESIAN_POINT('',(-16.9011860822563,99.2191680776664,132.012983975541));
#1068=CARTESIAN_POINT('',(-16.9011860822537,99.2191681796871,98.5202787290458));
#1069=CARTESIAN_POINT('',(-16.9011860822557,109.685168596998,132.012983949378));
#1070=CARTESIAN_POINT('Origin',(-16.9011860820194,117.1191680425,129.812983930477));
#1071=CARTESIAN_POINT('',(-11.0011860822557,117.119167702145,127.71298296512));
#1072=CARTESIAN_POINT('',(-11.0011860822559,117.119168045296,130.912983947799));
#1073=CARTESIAN_POINT('',(-0.601186082227724,117.119168037161,127.712983367962));
#1074=CARTESIAN_POINT('',(-12.1011860821365,117.119168037161,127.71298296512));
#1075=CARTESIAN_POINT('',(-0.601186082224776,117.11916792342,88.7130178672068));
#1076=CARTESIAN_POINT('',(-11.0011860822522,117.11916791147,84.0130178600382));
#1077=CARTESIAN_POINT('',(-11.001186082252,117.119167909182,83.1130178427174));
#1078=CARTESIAN_POINT('',(-15.3506860821333,117.119167926055,84.0130178600377));
#1079=CARTESIAN_POINT('',(-14.9011860822451,117.119168664399,125.899376160239));
#1080=CARTESIAN_POINT('',(-14.9011860822449,117.119168664399,123.399376160239));
#1081=CARTESIAN_POINT('',(-14.9011860822453,117.119168037525,127.856180045358));
#1082=CARTESIAN_POINT('',(-10.901186082245,117.119168664399,123.399376160239));
#1083=CARTESIAN_POINT('',(-15.9011860821319,117.119168026193,123.399376160238));
#1084=CARTESIAN_POINT('',(-10.9011860822452,117.119168664399,125.899376160239));
#1085=CARTESIAN_POINT('',(-10.9011860822453,117.119168034347,126.606180045358));
#1086=CARTESIAN_POINT('',(-13.9011860821322,117.11916803255,125.899376160239));
#1087=CARTESIAN_POINT('',(-9.66260058292962,117.119168664399,91.8750187963005));
#1088=CARTESIAN_POINT('Origin',(-9.66260058292971,117.119167949222,93.1250187963005));
#1089=CARTESIAN_POINT('',(-14.9011860822456,117.119168664399,118.40250211533));
#1090=CARTESIAN_POINT('',(-14.9011860822454,117.119168664399,115.902502115331));
#1091=CARTESIAN_POINT('',(-14.9011860822461,117.119168027994,124.107743022904));
#1092=CARTESIAN_POINT('',(-10.9011860822455,117.119168664399,115.902502115331));
#1093=CARTESIAN_POINT('',(-15.9011860821318,117.119168007133,115.90250211533));
#1094=CARTESIAN_POINT('',(-10.9011860822457,117.119168664399,118.402502115331));
#1095=CARTESIAN_POINT('',(-10.9011860822461,117.119168024816,122.857743022904));
#1096=CARTESIAN_POINT('',(-13.9011860821321,117.119168013489,118.402502115331));
#1097=CARTESIAN_POINT('',(-9.66260058293273,117.119168664399,119.650983956919));
#1098=CARTESIAN_POINT('Origin',(-9.6626005829328,117.119168019841,120.900983956919));
#1099=CARTESIAN_POINT('Origin',(-15.3506860821331,116.11916791622,83.0130178625801));
#1100=CARTESIAN_POINT('',(-11.0011860822519,115.119167906385,82.013017865123));
#1101=CARTESIAN_POINT('',(-11.001186082252,116.11919035994,83.0130403062997));
#1102=CARTESIAN_POINT('',(-15.350686082133,115.119167906385,82.0130178651225));
#1103=CARTESIAN_POINT('Origin',(-11.0011860822518,117.119257715904,82.0130178253958));
#1104=CARTESIAN_POINT('',(-11.0011860822528,99.2191679359584,82.0130178936602));
#1105=CARTESIAN_POINT('',(-11.0011860822563,99.2191681504901,100.833109383082));
#1106=CARTESIAN_POINT('',(-11.001186082252,114.194713137782,82.0130178674734));
#1107=CARTESIAN_POINT('Origin',(-0.501186082227717,112.519168002901,113.812983898157));
#1108=CARTESIAN_POINT('',(-0.601186082225638,114.015830964374,116.472879867127));
#1109=CARTESIAN_POINT('',(-0.601186082225307,114.015830957611,113.812983894352));
#1110=CARTESIAN_POINT('Ctrl Pts',(-0.601186082225662,114.015830964374,116.472879867127));
#1111=CARTESIAN_POINT('Ctrl Pts',(-0.64023963091767,114.013221589433,116.48862931205));
#1112=CARTESIAN_POINT('Ctrl Pts',(-0.679081979798786,114.009088440179,116.503697124508));
#1113=CARTESIAN_POINT('Ctrl Pts',(-0.879468051694675,113.979881199031,116.578340741209));
#1114=CARTESIAN_POINT('Ctrl Pts',(-1.0535515651227,113.92559376773,116.631361425785));
#1115=CARTESIAN_POINT('Ctrl Pts',(-1.373939084422,113.752635679126,116.705005347279));
#1116=CARTESIAN_POINT('Ctrl Pts',(-1.52000559134029,113.633753585809,116.726163933262));
#1117=CARTESIAN_POINT('Ctrl Pts',(-1.74582115835342,113.3735380153,116.748267185368));
#1118=CARTESIAN_POINT('Ctrl Pts',(-1.8424902435866,113.214998783829,116.751369873987));
#1119=CARTESIAN_POINT('Ctrl Pts',(-1.97017155184313,112.873228750381,116.752590572601));
#1120=CARTESIAN_POINT('Ctrl Pts',(-2.00118609526266,112.690001731036,116.751420988547));
#1121=CARTESIAN_POINT('Ctrl Pts',(-2.00118606919344,112.348334064842,116.751420913815));
#1122=CARTESIAN_POINT('Ctrl Pts',(-1.9701714991528,112.165107053846,116.752590417575));
#1123=CARTESIAN_POINT('Ctrl Pts',(-1.84249014423865,111.823337046471,116.751369564786));
#1124=CARTESIAN_POINT('Ctrl Pts',(-1.74582103893579,111.664797833059,116.748266802039));
#1125=CARTESIAN_POINT('Ctrl Pts',(-1.52000543836273,111.404582294012,116.726163425575));
#1126=CARTESIAN_POINT('Ctrl Pts',(-1.37393891123897,111.285700218237,116.705004779829));
#1127=CARTESIAN_POINT('Ctrl Pts',(-1.05355135989851,111.11274217127,116.631360769708));
#1128=CARTESIAN_POINT('Ctrl Pts',(-0.879467834688215,111.058454763967,116.578340056685));
#1129=CARTESIAN_POINT('Ctrl Pts',(-0.717532122819472,111.034851874072,116.518019151908));
#1130=CARTESIAN_POINT('Ctrl Pts',(-0.679081833112169,111.029247563917,116.503696454108));
#1131=CARTESIAN_POINT('Ctrl Pts',(-0.640239558452064,111.025114425134,116.488628670171));
#1132=CARTESIAN_POINT('Ctrl Pts',(-0.601186082225903,111.022505054954,116.472879255944));
#1133=CARTESIAN_POINT('Origin',(-9.6626005829328,117.119168664399,120.900983956919));
#1134=CARTESIAN_POINT('',(-9.66260058293271,99.219168206549,119.650983956919));
#1135=CARTESIAN_POINT('',(-9.66260058293271,117.119168664399,119.650983956919));
#1136=CARTESIAN_POINT('Origin',(-9.6626005829328,99.219168208138,120.900983956919));
#1137=CARTESIAN_POINT('Origin',(-10.9011860822455,117.119168664399,115.902502115331));
#1138=CARTESIAN_POINT('',(-10.9011860822457,99.2191682049619,118.402502115331));
#1139=CARTESIAN_POINT('',(-10.9011860822455,99.2191682017838,115.902502115331));
#1140=CARTESIAN_POINT('',(-10.9011860822447,99.2191681880992,105.137651528049));
#1141=CARTESIAN_POINT('',(-10.9011860822457,117.119168664399,118.402502115331));
#1142=CARTESIAN_POINT('',(-10.9011860822455,117.119168664399,115.902502115331));
#1143=CARTESIAN_POINT('Origin',(-14.9011860822454,117.119168664399,115.902502115331));
#1144=CARTESIAN_POINT('',(-14.9011860822454,99.2191682017838,115.902502115331));
#1145=CARTESIAN_POINT('',(-11.8257784997399,99.2191682017838,115.902502115331));
#1146=CARTESIAN_POINT('',(-14.9011860822454,117.119168664399,115.902502115331));
#1147=CARTESIAN_POINT('Origin',(-14.9011860822456,117.119168664399,118.40250211533));
#1148=CARTESIAN_POINT('',(-14.9011860822456,99.2191682049619,118.40250211533));
#1149=CARTESIAN_POINT('',(-14.9011860822446,99.2191681896883,106.387651528049));
#1150=CARTESIAN_POINT('',(-14.9011860822456,117.119168664399,118.40250211533));
#1151=CARTESIAN_POINT('Origin',(-10.9011860822457,117.119168664399,118.402502115331));
#1152=CARTESIAN_POINT('',(-9.82577849974022,99.2191682049619,118.402502115331));
#1153=CARTESIAN_POINT('Origin',(-9.66260058292971,117.119168664399,93.1250187963005));
#1154=CARTESIAN_POINT('',(-9.66260058292962,99.2191681712394,91.8750187963005));
#1155=CARTESIAN_POINT('',(-9.66260058292962,117.119168664399,91.8750187963005));
#1156=CARTESIAN_POINT('Origin',(-9.66260058292971,99.2191681728285,93.1250187963005));
#1157=CARTESIAN_POINT('Origin',(-14.9011860822449,117.119168664399,123.399376160239));
#1158=CARTESIAN_POINT('',(-10.901186082245,99.219168211314,123.399376160239));
#1159=CARTESIAN_POINT('',(-14.9011860822449,99.219168211314,123.399376160239));
#1160=CARTESIAN_POINT('',(-11.8257784997399,99.219168211314,123.399376160239));
#1161=CARTESIAN_POINT('',(-10.901186082245,117.119168664399,123.399376160239));
#1162=CARTESIAN_POINT('',(-14.9011860822449,117.119168664399,123.399376160239));
#1163=CARTESIAN_POINT('Origin',(-14.9011860822451,117.119168664399,125.899376160239));
#1164=CARTESIAN_POINT('',(-14.9011860822451,99.2191682144921,125.899376160239));
#1165=CARTESIAN_POINT('',(-14.9011860822438,99.2191681944534,110.136088550503));
#1166=CARTESIAN_POINT('',(-14.9011860822451,117.119168664399,125.899376160239));
#1167=CARTESIAN_POINT('Origin',(-10.9011860822452,117.119168664399,125.899376160239));
#1168=CARTESIAN_POINT('',(-10.9011860822452,99.2191682144921,125.899376160239));
#1169=CARTESIAN_POINT('',(-9.82577849974005,99.2191682144921,125.899376160239));
#1170=CARTESIAN_POINT('',(-10.9011860822452,117.119168664399,125.899376160239));
#1171=CARTESIAN_POINT('Origin',(-10.901186082245,117.119168664399,123.399376160239));
#1172=CARTESIAN_POINT('',(-10.9011860822437,99.2191681928644,108.886088550503));
#1173=CARTESIAN_POINT('Origin',(-8.75037091723246,99.2191681744147,94.372800918013));
#1174=CARTESIAN_POINT('',(-0.60118608222848,99.2191682343323,127.712983413472));
#1175=CARTESIAN_POINT('',(-0.601186082226992,99.2191681495746,74.8326179614518));
#1176=CARTESIAN_POINT('',(-11.0011860822566,99.2191680721997,127.712982987875));
#1177=CARTESIAN_POINT('',(-3.9511860822418,99.2191682167976,127.712982987875));
#1178=CARTESIAN_POINT('',(-11.0011860822569,99.219168077666,132.012983987875));
#1179=CARTESIAN_POINT('',(-11.0011860822553,99.2191681859193,103.422800974663));
#1180=CARTESIAN_POINT('',(-7.20068608224528,99.2191682222639,132.012983975988));
#1181=CARTESIAN_POINT('',(-11.2752784997402,99.2191681265655,82.0130179055473));
#1182=CARTESIAN_POINT('Origin',(-6.63818608224554,108.1691679774,91.3130184213316));
#1183=CARTESIAN_POINT('',(-6.63818608224547,106.9191679774,96.3130184213316));
#1184=CARTESIAN_POINT('',(-6.63818608224547,106.9191679774,91.3130184213316));
#1185=CARTESIAN_POINT('Origin',(-6.63818608224553,108.1691679774,96.3130184213316));
#1186=CARTESIAN_POINT('Origin',(-6.63818608224553,108.1691679774,96.3130184213316));
#1187=CARTESIAN_POINT('Origin',(-13.8001860822525,111.270168559659,82.0130178749084));
#1188=CARTESIAN_POINT('Origin',(-0.601186082225399,108.894167526358,67.9326178952862));
#1189=CARTESIAN_POINT('',(-0.601186082227856,114.015830992951,127.712983375852));
#1190=CARTESIAN_POINT('',(-0.601186082228087,108.531667885747,127.712983389795));
#1191=CARTESIAN_POINT('',(-0.601186082227426,114.015830983892,124.149962027685));
#1192=CARTESIAN_POINT('',(-0.601186082227874,114.015830993205,127.812983375852));
#1193=CARTESIAN_POINT('',(-0.601186082225476,114.019168023245,124.148659230004));
#1194=CARTESIAN_POINT('Origin',(-0.601186082226539,112.519167225904,120.311420951211));
#1195=CARTESIAN_POINT('',(-0.601186082225795,114.019167993977,116.474182660978));
#1196=CARTESIAN_POINT('',(-0.601186082226119,114.019168000711,118.240015402282));
#1197=CARTESIAN_POINT('Origin',(-0.601186082226539,112.519167225904,120.311420951211));
#1198=CARTESIAN_POINT('Origin',(-0.601186082225399,108.894167526358,67.9326178952862));
#1199=CARTESIAN_POINT('',(-0.601186082228396,101.221091584614,127.712983408382));
#1200=CARTESIAN_POINT('',(-0.601186082226147,101.221091499856,74.8326179589069));
#1201=CARTESIAN_POINT('',(-0.601186082228087,108.531667885747,127.712983389795));
#1202=CARTESIAN_POINT('Origin',(-0.501186082230781,103.81916771121,74.8326179556041));
#1203=CARTESIAN_POINT('Origin',(-0.50118608223377,103.819167778433,127.712982982028));
#1204=CARTESIAN_POINT('Origin',(-7.30118608225359,108.169212962173,127.712982976497));
#1205=CARTESIAN_POINT('Origin',(-0.501186082228667,112.519168038241,127.712983379657));
#1206=CARTESIAN_POINT('',(-11.0011860822551,127.757299765224,127.712982951596));
#1207=CARTESIAN_POINT('',(-6.63818608225444,109.41916814744,127.712982978087));
#1208=CARTESIAN_POINT('Origin',(-6.63818608225437,108.16916814744,127.712982976497));
#1209=CARTESIAN_POINT('Origin',(-11.0011860822559,117.119257857612,132.01298396512));
#1210=CARTESIAN_POINT('',(-11.0011860822561,114.194713279489,132.012983937913));
#1211=CARTESIAN_POINT('Origin',(-13.8001860822566,111.270168701367,132.012983945348));
#1212=CARTESIAN_POINT('Origin',(-7.10118608224651,105.625168418076,93.5250922057236));
#1213=CARTESIAN_POINT('',(-7.10118608224967,114.019168009548,120.55718028294));
#1214=CARTESIAN_POINT('',(-7.10118608224984,114.019168007535,120.065661610512));
#1215=CARTESIAN_POINT('',(-7.10118608224797,114.019167948678,104.596069530383));
#1216=CARTESIAN_POINT('',(-7.10118608224986,111.019168009548,120.557189848749));
#1217=CARTESIAN_POINT('Origin',(-7.10118608224961,112.519167225904,120.31142095121));
#1218=CARTESIAN_POINT('',(-7.1011860822498,111.019168007834,120.065652067248));
#1219=CARTESIAN_POINT('',(-7.10118608224771,111.01916794176,102.782268176002));
#1220=CARTESIAN_POINT('Origin',(-7.10118608224961,112.519167225904,120.31142095121));
#1221=CARTESIAN_POINT('Origin',(-0.501186082227717,112.519168002901,113.812983898157));
#1222=CARTESIAN_POINT('Ctrl Pts',(-0.601186082227549,111.022505074473,124.149962654088));
#1223=CARTESIAN_POINT('Ctrl Pts',(-0.640239558453257,111.025114444572,124.134213239849));
#1224=CARTESIAN_POINT('Ctrl Pts',(-0.679081833112893,111.029247583279,124.11914545589));
#1225=CARTESIAN_POINT('Ctrl Pts',(-0.879467834688389,111.058454782949,124.044501853165));
#1226=CARTESIAN_POINT('Ctrl Pts',(-1.05355135989867,111.112742189982,123.991481139866));
#1227=CARTESIAN_POINT('Ctrl Pts',(-1.37393891123911,111.285700236575,123.917837128865));
#1228=CARTESIAN_POINT('Ctrl Pts',(-1.52000543836287,111.404582312243,123.896678482515));
#1229=CARTESIAN_POINT('Ctrl Pts',(-1.74582103893593,111.664797851177,123.874575104728));
#1230=CARTESIAN_POINT('Ctrl Pts',(-1.84249014423876,111.823337064573,123.871472341175));
#1231=CARTESIAN_POINT('Ctrl Pts',(-1.97017149915293,112.165107071942,123.870251486648));
#1232=CARTESIAN_POINT('Ctrl Pts',(-2.00118606919358,112.348334082944,123.871420989476));
#1233=CARTESIAN_POINT('Ctrl Pts',(-2.00118609526278,112.690001749138,123.871420913007));
#1234=CARTESIAN_POINT('Ctrl Pts',(-1.97017155184325,112.873228768478,123.870251328021));
#1235=CARTESIAN_POINT('Ctrl Pts',(-1.84249024358671,113.214998801931,123.871472024897));
#1236=CARTESIAN_POINT('Ctrl Pts',(-1.74582115835353,113.373538033418,123.87457471271));
#1237=CARTESIAN_POINT('Ctrl Pts',(-1.52000559134039,113.63375360404,123.896677963493));
#1238=CARTESIAN_POINT('Ctrl Pts',(-1.37393908442212,113.752635697464,123.917836548872));
#1239=CARTESIAN_POINT('Ctrl Pts',(-1.05355156512282,113.925593786443,123.991480469487));
#1240=CARTESIAN_POINT('Ctrl Pts',(-0.879468051694798,113.979881218013,124.044501153787));
#1241=CARTESIAN_POINT('Ctrl Pts',(-0.717532349325933,114.00348413176,124.10482204515));
#1242=CARTESIAN_POINT('Ctrl Pts',(-0.679081985100919,114.009088458768,124.119144768363));
#1243=CARTESIAN_POINT('Ctrl Pts',(-0.640239634607508,114.013221608624,124.134212581287));
#1244=CARTESIAN_POINT('Ctrl Pts',(-0.601186082227195,114.015830983892,124.149962027685));
#1245=CARTESIAN_POINT('Origin',(-0.900843637238118,111.019167977064,112.039444166852));
#1246=CARTESIAN_POINT('Ctrl Pts',(-7.10118608224986,111.019168009708,120.557189846452));
#1247=CARTESIAN_POINT('Ctrl Pts',(-6.8927915210855,111.019168011674,121.072730646477));
#1248=CARTESIAN_POINT('Ctrl Pts',(-4.24272223377446,111.01916801744,122.584709360544));
#1249=CARTESIAN_POINT('Ctrl Pts',(-0.601186072647676,111.019168023405,124.148659831069));
#1250=CARTESIAN_POINT('Ctrl Pts',(-0.601186072702695,111.019167994136,116.474182082659));
#1251=CARTESIAN_POINT('Ctrl Pts',(-2.66758332079177,111.019167997521,117.361649021183));
#1252=CARTESIAN_POINT('Ctrl Pts',(-5.92975484891541,111.019168003425,118.909800985112));
#1253=CARTESIAN_POINT('Ctrl Pts',(-6.99188136478133,111.019168006802,119.795246538546));
#1254=CARTESIAN_POINT('Ctrl Pts',(-7.1011860822498,111.019168007834,120.065652067248));
#1255=CARTESIAN_POINT('Origin',(-2.40118608230339,114.019167990899,115.667046887054));
#1256=CARTESIAN_POINT('Ctrl Pts',(-0.601186072590034,114.019167993837,116.474182683414));
#1257=CARTESIAN_POINT('Ctrl Pts',(-2.66757331356381,114.019167997222,117.361645465642));
#1258=CARTESIAN_POINT('Ctrl Pts',(-5.92974472111019,114.019168003126,118.909796842901));
#1259=CARTESIAN_POINT('Ctrl Pts',(-6.99188323163721,114.019168006503,119.795250187669));
#1260=CARTESIAN_POINT('Ctrl Pts',(-7.10118608224984,114.019168007535,120.065661610512));
#1261=CARTESIAN_POINT('Ctrl Pts',(-7.1011860822499,114.019168009409,120.557180280664));
#1262=CARTESIAN_POINT('Ctrl Pts',(-6.89279818920922,114.019168011375,121.072724626896));
#1263=CARTESIAN_POINT('Ctrl Pts',(-4.2427219051739,114.019168017141,122.584708628954));
#1264=CARTESIAN_POINT('Ctrl Pts',(-0.60118607266252,114.019168023105,124.148659207738));
#1265=CARTESIAN_POINT('Origin',(-4.90118608230353,112.519167225904,120.311420951211));
#1266=CARTESIAN_POINT('Origin',(-4.90118608230353,112.519167225904,120.311420951211));
#1267=CARTESIAN_POINT('Origin',(-6.63818608225437,108.16916814744,117.712982953225));
#1268=CARTESIAN_POINT('',(-6.63818608225444,109.41916814744,117.712982953225));
#1269=CARTESIAN_POINT('Origin',(-6.63818608225437,108.16916814744,117.712982953225));
#1270=CARTESIAN_POINT('Origin',(-6.63818608225437,108.16916814744,122.712982953225));
#1271=CARTESIAN_POINT('',(-6.63818608225444,109.41916814744,122.712982953225));
#1272=UNCERTAINTY_MEASURE_WITH_UNIT(LENGTH_MEASURE(0.01),#1276,
'DISTANCE_ACCURACY_VALUE',
'Maximum model space distance between geometric entities at asserted c
onnectivities');
#1273=UNCERTAINTY_MEASURE_WITH_UNIT(LENGTH_MEASURE(0.01),#1276,
'DISTANCE_ACCURACY_VALUE',
'Maximum model space distance between geometric entities at asserted c
onnectivities');
#1274=(
GEOMETRIC_REPRESENTATION_CONTEXT(3)
GLOBAL_UNCERTAINTY_ASSIGNED_CONTEXT((#1272))
GLOBAL_UNIT_ASSIGNED_CONTEXT((#1276,#1278,#1279))
REPRESENTATION_CONTEXT('','3D')
);
#1275=(
GEOMETRIC_REPRESENTATION_CONTEXT(3)
GLOBAL_UNCERTAINTY_ASSIGNED_CONTEXT((#1273))
GLOBAL_UNIT_ASSIGNED_CONTEXT((#1276,#1278,#1279))
REPRESENTATION_CONTEXT('','3D')
);
#1276=(
LENGTH_UNIT()
NAMED_UNIT(*)
SI_UNIT(.MILLI.,.METRE.)
);
#1277=(
LENGTH_UNIT()
NAMED_UNIT(*)
SI_UNIT($,.METRE.)
);
#1278=(
NAMED_UNIT(*)
PLANE_ANGLE_UNIT()
SI_UNIT($,.RADIAN.)
);
#1279=(
NAMED_UNIT(*)
SI_UNIT($,.STERADIAN.)
SOLID_ANGLE_UNIT()
);
#1280=SHAPE_DEFINITION_REPRESENTATION(#1281,#1282);
#1281=PRODUCT_DEFINITION_SHAPE('',$,#1284);
#1282=SHAPE_REPRESENTATION('',(#752),#1274);
#1283=PRODUCT_DEFINITION_CONTEXT('part definition',#1288,'design');
#1284=PRODUCT_DEFINITION('mount-bottom-left ','mount-bottom-left ',#1285,
#1283);
#1285=PRODUCT_DEFINITION_FORMATION('',$,#1290);
#1286=PRODUCT_RELATED_PRODUCT_CATEGORY('mount-bottom-left ',
'mount-bottom-left ',(#1290));
#1287=APPLICATION_PROTOCOL_DEFINITION('international standard',
'automotive_design',2009,#1288);
#1288=APPLICATION_CONTEXT(
'Core Data for Automotive Mechanical Design Process');
#1289=PRODUCT_CONTEXT('part definition',#1288,'mechanical');
#1290=PRODUCT('mount-bottom-left ','mount-bottom-left ',$,(#1289));
#1291=PRESENTATION_STYLE_ASSIGNMENT((#1293));
#1292=PRESENTATION_STYLE_ASSIGNMENT((#1294));
#1293=SURFACE_STYLE_USAGE(.BOTH.,#1295);
#1294=SURFACE_STYLE_USAGE(.BOTH.,#1296);
#1295=SURFACE_SIDE_STYLE('',(#1297));
#1296=SURFACE_SIDE_STYLE('',(#1298));
#1297=SURFACE_STYLE_FILL_AREA(#1299);
#1298=SURFACE_STYLE_FILL_AREA(#1300);
#1299=FILL_AREA_STYLE('Steel - Satin',(#1301));
#1300=FILL_AREA_STYLE('ABS (White)',(#1302));
#1301=FILL_AREA_STYLE_COLOUR('Steel - Satin',#1303);
#1302=FILL_AREA_STYLE_COLOUR('ABS (White)',#1304);
#1303=COLOUR_RGB('Steel - Satin',0.627450980392157,0.627450980392157,0.627450980392157);
#1304=COLOUR_RGB('ABS (White)',0.964705882352941,0.964705882352941,0.952941176470588);
ENDSEC;
END-ISO-10303-21;
