ISO-10303-21;
HEADER;
/* Generated by software containing ST-Developer
 * from STEP Tools, Inc. (www.steptools.com) 
 */

FILE_DESCRIPTION(
/* description */ (''),
/* implementation_level */ '2;1');

FILE_NAME(
/* name */ 'rope-right-angle-bottom.step',
/* time_stamp */ '2026-02-09T10:33:58-08:00',
/* author */ (''),
/* organization */ (''),
/* preprocessor_version */ 'ST-DEVELOPER v20.1',
/* originating_system */ 'Autodesk Translation Framework v14.24.0.0',
/* authorisation */ '');

FILE_SCHEMA (('AUTOMOTIVE_DESIGN { 1 0 10303 214 3 1 1 }'));
ENDSEC;

DATA;
#10=MECHANICAL_DESIGN_GEOMETRIC_PRESENTATION_REPRESENTATION('',(#13),#1083);
#11=SHAPE_REPRESENTATION_RELATIONSHIP('SRR','None',#1090,#12);
#12=ADVANCED_BREP_SHAPE_REPRESENTATION('',(#14),#1082);
#13=STYLED_ITEM('',(#1100),#14);
#14=MANIFOLD_SOLID_BREP('Body1',#558);
#15=PLANE('',#588);
#16=PLANE('',#591);
#17=PLANE('',#597);
#18=PLANE('',#601);
#19=PLANE('',#605);
#20=PLANE('',#607);
#21=PLANE('',#608);
#22=PLANE('',#609);
#23=PLANE('',#610);
#24=PLANE('',#613);
#25=PLANE('',#616);
#26=PLANE('',#617);
#27=PLANE('',#618);
#28=PLANE('',#619);
#29=PLANE('',#620);
#30=PLANE('',#621);
#31=FACE_BOUND('',#182,.T.);
#32=FACE_BOUND('',#183,.T.);
#33=FACE_BOUND('',#210,.T.);
#34=FACE_BOUND('',#211,.T.);
#35=B_SPLINE_CURVE_WITH_KNOTS('',3,(#802,#803,#804,#805,#806,#807,#808,
#809,#810,#811,#812,#813,#814,#815,#816,#817,#818,#819,#820,#821,#822,#823,
#824,#825,#826,#827),.UNSPECIFIED.,.F.,.F.,(4,2,2,2,2,2,2,2,2,2,2,2,4),
(0.194042624362719,0.243068690008624,0.292094755654528,0.339651120848084,
0.38720748604164,0.434148132984115,0.481088779926591,0.530729527977561,
0.580370276028531,0.630404777932058,0.680439279835586,0.727424086056365,
0.774408892277145),.UNSPECIFIED.);
#36=B_SPLINE_CURVE_WITH_KNOTS('',3,(#828,#829,#830,#831,#832,#833,#834,
#835,#836,#837),.UNSPECIFIED.,.F.,.F.,(4,2,2,2,4),(0.,0.0477338044557203,
0.0954676089114405,0.14475511663708,0.194042624362719),.UNSPECIFIED.);
#37=B_SPLINE_CURVE_WITH_KNOTS('',3,(#839,#840,#841,#842,#843,#844,#845,
#846,#847,#848,#849,#850,#851,#852,#853,#854,#855,#856,#857,#858,#859,#860,
#861,#862,#863,#864,#865,#866,#867,#868,#869,#870,#871,#872),
 .UNSPECIFIED.,.T.,.F.,(4,2,2,2,2,2,2,2,2,2,2,2,2,2,2,2,4),(0.,0.0469421456829779,
0.0938842913659558,0.143495298463414,0.193106305560872,0.243108272824708,
0.293110240088544,0.340096178907866,0.387082117727187,0.434808861101503,
0.482535604475818,0.531798727932614,0.58106185138941,0.630065391213422,
0.679068931037434,0.72661955549587,0.774170179954307),.UNSPECIFIED.);
#38=B_SPLINE_CURVE_WITH_KNOTS('',3,(#946,#947,#948,#949,#950,#951,#952,
#953,#954,#955,#956,#957,#958,#959,#960,#961,#962,#963),.UNSPECIFIED.,.F.,
 .F.,(4,2,2,2,2,2,2,2,4),(0.,0.0469614173811281,0.0939228347622562,0.144818269970621,
0.195713705178986,0.246086172234026,0.296458639289067,0.343359553824293,
0.390260468359519),.UNSPECIFIED.);
#39=B_SPLINE_CURVE_WITH_KNOTS('',3,(#964,#965,#966,#967,#968,#969,#970,
#971,#972,#973,#974,#975,#976,#977,#978,#979,#980,#981),.UNSPECIFIED.,.F.,
 .F.,(4,2,2,2,2,2,2,2,4),(0.390260468359519,0.437952267467492,0.485644066575465,
0.535227325140835,0.584810583706206,0.634741192237046,0.684671800767886,
0.732601435013629,0.780531069259373),.UNSPECIFIED.);
#40=B_SPLINE_CURVE_WITH_KNOTS('',3,(#1041,#1042,#1043,#1044,#1045,#1046,
#1047,#1048,#1049,#1050,#1051,#1052,#1053,#1054,#1055,#1056,#1057,#1058,
#1059,#1060,#1061,#1062,#1063,#1064,#1065,#1066),.UNSPECIFIED.,.F.,.F.,
(4,2,2,2,2,2,2,2,2,2,2,2,4),(0.194625515870103,0.244588848756752,0.294552181643401,
0.34249143741573,0.390430693188059,0.437390725818488,0.484350758448918,
0.535289846791479,0.58622893513404,0.636641007451169,0.687053079768297,
0.733952048239056,0.780851016709814),.UNSPECIFIED.);
#41=B_SPLINE_CURVE_WITH_KNOTS('',3,(#1067,#1068,#1069,#1070,#1071,#1072,
#1073,#1074,#1075,#1076),.UNSPECIFIED.,.F.,.F.,(4,2,2,2,4),(0.,0.0476994691452787,
0.0953989382905575,0.14501222708033,0.194625515870103),.UNSPECIFIED.);
#42=LINE('',#796,#90);
#43=LINE('',#799,#91);
#44=LINE('',#881,#92);
#45=LINE('',#884,#93);
#46=LINE('',#890,#94);
#47=LINE('',#893,#95);
#48=LINE('',#896,#96);
#49=LINE('',#898,#97);
#50=LINE('',#902,#98);
#51=LINE('',#906,#99);
#52=LINE('',#907,#100);
#53=LINE('',#910,#101);
#54=LINE('',#914,#102);
#55=LINE('',#918,#103);
#56=LINE('',#920,#104);
#57=LINE('',#923,#105);
#58=LINE('',#928,#106);
#59=LINE('',#929,#107);
#60=LINE('',#932,#108);
#61=LINE('',#934,#109);
#62=LINE('',#938,#110);
#63=LINE('',#941,#111);
#64=LINE('',#944,#112);
#65=LINE('',#984,#113);
#66=LINE('',#987,#114);
#67=LINE('',#992,#115);
#68=LINE('',#993,#116);
#69=LINE('',#995,#117);
#70=LINE('',#996,#118);
#71=LINE('',#998,#119);
#72=LINE('',#1000,#120);
#73=LINE('',#1003,#121);
#74=LINE('',#1004,#122);
#75=LINE('',#1006,#123);
#76=LINE('',#1007,#124);
#77=LINE('',#1011,#125);
#78=LINE('',#1014,#126);
#79=LINE('',#1016,#127);
#80=LINE('',#1017,#128);
#81=LINE('',#1020,#129);
#82=LINE('',#1023,#130);
#83=LINE('',#1025,#131);
#84=LINE('',#1026,#132);
#85=LINE('',#1028,#133);
#86=LINE('',#1031,#134);
#87=LINE('',#1032,#135);
#88=LINE('',#1034,#136);
#89=LINE('',#1079,#137);
#90=VECTOR('',#640,10.);
#91=VECTOR('',#643,10.);
#92=VECTOR('',#654,10.);
#93=VECTOR('',#657,10.);
#94=VECTOR('',#662,10.);
#95=VECTOR('',#665,10.);
#96=VECTOR('',#668,10.);
#97=VECTOR('',#669,10.);
#98=VECTOR('',#672,10.);
#99=VECTOR('',#675,10.);
#100=VECTOR('',#676,10.);
#101=VECTOR('',#679,10.);
#102=VECTOR('',#682,10.);
#103=VECTOR('',#685,10.);
#104=VECTOR('',#686,10.);
#105=VECTOR('',#689,10.);
#106=VECTOR('',#694,10.);
#107=VECTOR('',#695,10.);
#108=VECTOR('',#698,10.);
#109=VECTOR('',#699,10.);
#110=VECTOR('',#702,10.);
#111=VECTOR('',#705,10.);
#112=VECTOR('',#708,1.25);
#113=VECTOR('',#711,10.);
#114=VECTOR('',#714,10.);
#115=VECTOR('',#719,10.);
#116=VECTOR('',#720,10.);
#117=VECTOR('',#723,10.);
#118=VECTOR('',#724,10.);
#119=VECTOR('',#727,10.);
#120=VECTOR('',#730,10.);
#121=VECTOR('',#733,10.);
#122=VECTOR('',#734,10.);
#123=VECTOR('',#737,10.);
#124=VECTOR('',#738,10.);
#125=VECTOR('',#743,10.);
#126=VECTOR('',#746,10.);
#127=VECTOR('',#749,10.);
#128=VECTOR('',#750,10.);
#129=VECTOR('',#753,10.);
#130=VECTOR('',#756,10.);
#131=VECTOR('',#759,10.);
#132=VECTOR('',#760,10.);
#133=VECTOR('',#763,10.);
#134=VECTOR('',#766,10.);
#135=VECTOR('',#767,10.);
#136=VECTOR('',#770,10.);
#137=VECTOR('',#783,1.25);
#138=CYLINDRICAL_SURFACE('',#577,44.);
#139=CYLINDRICAL_SURFACE('',#583,44.);
#140=CYLINDRICAL_SURFACE('',#585,1.);
#141=CYLINDRICAL_SURFACE('',#595,1.);
#142=CYLINDRICAL_SURFACE('',#600,1.25);
#143=CYLINDRICAL_SURFACE('',#603,2.);
#144=CYLINDRICAL_SURFACE('',#606,2.00000000000003);
#145=CYLINDRICAL_SURFACE('',#611,2.);
#146=CYLINDRICAL_SURFACE('',#614,2.);
#147=CYLINDRICAL_SURFACE('',#623,38.9999999999997);
#148=CYLINDRICAL_SURFACE('',#624,44.);
#149=CYLINDRICAL_SURFACE('',#625,1.25);
#150=FACE_OUTER_BOUND('',#180,.T.);
#151=FACE_OUTER_BOUND('',#181,.T.);
#152=FACE_OUTER_BOUND('',#184,.T.);
#153=FACE_OUTER_BOUND('',#185,.T.);
#154=FACE_OUTER_BOUND('',#186,.T.);
#155=FACE_OUTER_BOUND('',#187,.T.);
#156=FACE_OUTER_BOUND('',#188,.T.);
#157=FACE_OUTER_BOUND('',#189,.T.);
#158=FACE_OUTER_BOUND('',#190,.T.);
#159=FACE_OUTER_BOUND('',#191,.T.);
#160=FACE_OUTER_BOUND('',#192,.T.);
#161=FACE_OUTER_BOUND('',#193,.T.);
#162=FACE_OUTER_BOUND('',#194,.T.);
#163=FACE_OUTER_BOUND('',#195,.T.);
#164=FACE_OUTER_BOUND('',#196,.T.);
#165=FACE_OUTER_BOUND('',#197,.T.);
#166=FACE_OUTER_BOUND('',#198,.T.);
#167=FACE_OUTER_BOUND('',#199,.T.);
#168=FACE_OUTER_BOUND('',#200,.T.);
#169=FACE_OUTER_BOUND('',#201,.T.);
#170=FACE_OUTER_BOUND('',#202,.T.);
#171=FACE_OUTER_BOUND('',#203,.T.);
#172=FACE_OUTER_BOUND('',#204,.T.);
#173=FACE_OUTER_BOUND('',#205,.T.);
#174=FACE_OUTER_BOUND('',#206,.T.);
#175=FACE_OUTER_BOUND('',#207,.T.);
#176=FACE_OUTER_BOUND('',#208,.T.);
#177=FACE_OUTER_BOUND('',#209,.T.);
#178=FACE_OUTER_BOUND('',#212,.T.);
#179=FACE_OUTER_BOUND('',#213,.T.);
#180=EDGE_LOOP('',(#368,#369,#370,#371));
#181=EDGE_LOOP('',(#372,#373,#374,#375));
#182=EDGE_LOOP('',(#376,#377));
#183=EDGE_LOOP('',(#378));
#184=EDGE_LOOP('',(#379,#380,#381,#382));
#185=EDGE_LOOP('',(#383,#384,#385,#386));
#186=EDGE_LOOP('',(#387,#388,#389,#390));
#187=EDGE_LOOP('',(#391,#392,#393,#394,#395,#396,#397,#398));
#188=EDGE_LOOP('',(#399,#400,#401,#402,#403,#404,#405,#406,#407,#408));
#189=EDGE_LOOP('',(#409,#410,#411,#412));
#190=EDGE_LOOP('',(#413,#414,#415,#416,#417,#418,#419,#420));
#191=EDGE_LOOP('',(#421,#422,#423,#424,#425));
#192=EDGE_LOOP('',(#426,#427,#428,#429));
#193=EDGE_LOOP('',(#430,#431,#432,#433));
#194=EDGE_LOOP('',(#434,#435,#436,#437,#438,#439));
#195=EDGE_LOOP('',(#440,#441,#442,#443));
#196=EDGE_LOOP('',(#444,#445,#446,#447,#448));
#197=EDGE_LOOP('',(#449,#450,#451,#452));
#198=EDGE_LOOP('',(#453,#454,#455,#456,#457));
#199=EDGE_LOOP('',(#458,#459,#460,#461));
#200=EDGE_LOOP('',(#462,#463,#464,#465));
#201=EDGE_LOOP('',(#466,#467,#468,#469));
#202=EDGE_LOOP('',(#470,#471,#472,#473));
#203=EDGE_LOOP('',(#474,#475,#476,#477));
#204=EDGE_LOOP('',(#478,#479,#480,#481,#482));
#205=EDGE_LOOP('',(#483,#484,#485,#486));
#206=EDGE_LOOP('',(#487,#488,#489,#490,#491));
#207=EDGE_LOOP('',(#492,#493,#494,#495,#496,#497));
#208=EDGE_LOOP('',(#498,#499,#500,#501,#502,#503,#504,#505,#506,#507));
#209=EDGE_LOOP('',(#508,#509,#510,#511));
#210=EDGE_LOOP('',(#512,#513));
#211=EDGE_LOOP('',(#514,#515));
#212=EDGE_LOOP('',(#516,#517,#518,#519));
#213=EDGE_LOOP('',(#520,#521,#522,#523,#524,#525));
#214=CIRCLE('',#573,44.);
#215=CIRCLE('',#574,2.7);
#216=CIRCLE('',#575,44.);
#217=CIRCLE('',#576,2.7);
#218=CIRCLE('',#578,44.);
#219=CIRCLE('',#580,2.7);
#220=CIRCLE('',#581,44.);
#221=CIRCLE('',#582,2.7);
#222=CIRCLE('',#584,44.);
#223=CIRCLE('',#586,1.);
#224=CIRCLE('',#587,1.);
#225=CIRCLE('',#589,2.00000000000003);
#226=CIRCLE('',#590,2.);
#227=CIRCLE('',#592,38.9999999999997);
#228=CIRCLE('',#593,1.);
#229=CIRCLE('',#594,44.);
#230=CIRCLE('',#596,1.);
#231=CIRCLE('',#598,2.);
#232=CIRCLE('',#599,2.);
#233=CIRCLE('',#602,2.00000000000003);
#234=CIRCLE('',#604,2.);
#235=CIRCLE('',#612,2.);
#236=CIRCLE('',#615,2.);
#237=CIRCLE('',#622,38.9999999999997);
#238=VERTEX_POINT('',#786);
#239=VERTEX_POINT('',#787);
#240=VERTEX_POINT('',#789);
#241=VERTEX_POINT('',#791);
#242=VERTEX_POINT('',#795);
#243=VERTEX_POINT('',#797);
#244=VERTEX_POINT('',#800);
#245=VERTEX_POINT('',#801);
#246=VERTEX_POINT('',#838);
#247=VERTEX_POINT('',#874);
#248=VERTEX_POINT('',#876);
#249=VERTEX_POINT('',#880);
#250=VERTEX_POINT('',#882);
#251=VERTEX_POINT('',#886);
#252=VERTEX_POINT('',#887);
#253=VERTEX_POINT('',#889);
#254=VERTEX_POINT('',#891);
#255=VERTEX_POINT('',#895);
#256=VERTEX_POINT('',#897);
#257=VERTEX_POINT('',#899);
#258=VERTEX_POINT('',#901);
#259=VERTEX_POINT('',#903);
#260=VERTEX_POINT('',#905);
#261=VERTEX_POINT('',#909);
#262=VERTEX_POINT('',#911);
#263=VERTEX_POINT('',#913);
#264=VERTEX_POINT('',#915);
#265=VERTEX_POINT('',#917);
#266=VERTEX_POINT('',#919);
#267=VERTEX_POINT('',#921);
#268=VERTEX_POINT('',#925);
#269=VERTEX_POINT('',#926);
#270=VERTEX_POINT('',#931);
#271=VERTEX_POINT('',#933);
#272=VERTEX_POINT('',#935);
#273=VERTEX_POINT('',#937);
#274=VERTEX_POINT('',#939);
#275=VERTEX_POINT('',#943);
#276=VERTEX_POINT('',#945);
#277=VERTEX_POINT('',#983);
#278=VERTEX_POINT('',#985);
#279=VERTEX_POINT('',#989);
#280=VERTEX_POINT('',#990);
#281=VERTEX_POINT('',#1002);
#282=VERTEX_POINT('',#1010);
#283=VERTEX_POINT('',#1012);
#284=VERTEX_POINT('',#1019);
#285=VERTEX_POINT('',#1021);
#286=VERTEX_POINT('',#1030);
#287=VERTEX_POINT('',#1039);
#288=VERTEX_POINT('',#1040);
#289=EDGE_CURVE('',#238,#239,#214,.T.);
#290=EDGE_CURVE('',#238,#240,#215,.F.);
#291=EDGE_CURVE('',#241,#240,#216,.T.);
#292=EDGE_CURVE('',#241,#239,#217,.T.);
#293=EDGE_CURVE('',#240,#242,#42,.T.);
#294=EDGE_CURVE('',#242,#243,#218,.T.);
#295=EDGE_CURVE('',#243,#241,#43,.T.);
#296=EDGE_CURVE('',#244,#245,#35,.F.);
#297=EDGE_CURVE('',#245,#244,#36,.F.);
#298=EDGE_CURVE('',#246,#246,#37,.T.);
#299=EDGE_CURVE('',#242,#247,#219,.F.);
#300=EDGE_CURVE('',#248,#247,#220,.T.);
#301=EDGE_CURVE('',#248,#243,#221,.T.);
#302=EDGE_CURVE('',#247,#249,#44,.T.);
#303=EDGE_CURVE('',#249,#250,#222,.T.);
#304=EDGE_CURVE('',#250,#248,#45,.T.);
#305=EDGE_CURVE('',#251,#252,#223,.T.);
#306=EDGE_CURVE('',#252,#253,#46,.T.);
#307=EDGE_CURVE('',#253,#254,#224,.T.);
#308=EDGE_CURVE('',#254,#251,#47,.T.);
#309=EDGE_CURVE('',#252,#255,#48,.T.);
#310=EDGE_CURVE('',#255,#256,#49,.T.);
#311=EDGE_CURVE('',#256,#257,#225,.T.);
#312=EDGE_CURVE('',#257,#258,#50,.T.);
#313=EDGE_CURVE('',#258,#259,#226,.T.);
#314=EDGE_CURVE('',#259,#260,#51,.T.);
#315=EDGE_CURVE('',#260,#253,#52,.T.);
#316=EDGE_CURVE('',#261,#251,#53,.T.);
#317=EDGE_CURVE('',#261,#262,#227,.T.);
#318=EDGE_CURVE('',#262,#263,#54,.T.);
#319=EDGE_CURVE('',#264,#263,#228,.T.);
#320=EDGE_CURVE('',#265,#264,#55,.T.);
#321=EDGE_CURVE('',#266,#265,#56,.T.);
#322=EDGE_CURVE('',#267,#266,#229,.T.);
#323=EDGE_CURVE('',#267,#255,#57,.T.);
#324=EDGE_CURVE('',#268,#269,#230,.T.);
#325=EDGE_CURVE('',#269,#264,#58,.T.);
#326=EDGE_CURVE('',#263,#268,#59,.T.);
#327=EDGE_CURVE('',#269,#270,#60,.T.);
#328=EDGE_CURVE('',#270,#271,#61,.T.);
#329=EDGE_CURVE('',#272,#271,#231,.T.);
#330=EDGE_CURVE('',#273,#272,#62,.T.);
#331=EDGE_CURVE('',#274,#273,#232,.T.);
#332=EDGE_CURVE('',#265,#274,#63,.T.);
#333=EDGE_CURVE('',#246,#275,#64,.T.);
#334=EDGE_CURVE('',#276,#275,#38,.T.);
#335=EDGE_CURVE('',#275,#276,#39,.T.);
#336=EDGE_CURVE('',#277,#241,#65,.T.);
#337=EDGE_CURVE('',#277,#278,#233,.T.);
#338=EDGE_CURVE('',#278,#239,#66,.T.);
#339=EDGE_CURVE('',#279,#280,#234,.T.);
#340=EDGE_CURVE('',#279,#259,#67,.T.);
#341=EDGE_CURVE('',#280,#258,#68,.T.);
#342=EDGE_CURVE('',#280,#243,#69,.T.);
#343=EDGE_CURVE('',#277,#257,#70,.T.);
#344=EDGE_CURVE('',#278,#256,#71,.T.);
#345=EDGE_CURVE('',#239,#267,#72,.T.);
#346=EDGE_CURVE('',#281,#254,#73,.T.);
#347=EDGE_CURVE('',#281,#261,#74,.T.);
#348=EDGE_CURVE('',#279,#248,#75,.T.);
#349=EDGE_CURVE('',#250,#260,#76,.T.);
#350=EDGE_CURVE('',#271,#282,#77,.T.);
#351=EDGE_CURVE('',#283,#282,#235,.T.);
#352=EDGE_CURVE('',#272,#283,#78,.T.);
#353=EDGE_CURVE('',#242,#283,#79,.T.);
#354=EDGE_CURVE('',#282,#247,#80,.T.);
#355=EDGE_CURVE('',#273,#284,#81,.T.);
#356=EDGE_CURVE('',#285,#284,#236,.T.);
#357=EDGE_CURVE('',#274,#285,#82,.T.);
#358=EDGE_CURVE('',#238,#285,#83,.T.);
#359=EDGE_CURVE('',#284,#240,#84,.T.);
#360=EDGE_CURVE('',#249,#270,#85,.T.);
#361=EDGE_CURVE('',#262,#286,#86,.T.);
#362=EDGE_CURVE('',#286,#268,#87,.T.);
#363=EDGE_CURVE('',#266,#238,#88,.T.);
#364=EDGE_CURVE('',#286,#281,#237,.T.);
#365=EDGE_CURVE('',#287,#288,#40,.F.);
#366=EDGE_CURVE('',#288,#287,#41,.F.);
#367=EDGE_CURVE('',#245,#288,#89,.T.);
#368=ORIENTED_EDGE('',*,*,#289,.F.);
#369=ORIENTED_EDGE('',*,*,#290,.T.);
#370=ORIENTED_EDGE('',*,*,#291,.F.);
#371=ORIENTED_EDGE('',*,*,#292,.T.);
#372=ORIENTED_EDGE('',*,*,#291,.T.);
#373=ORIENTED_EDGE('',*,*,#293,.T.);
#374=ORIENTED_EDGE('',*,*,#294,.T.);
#375=ORIENTED_EDGE('',*,*,#295,.T.);
#376=ORIENTED_EDGE('',*,*,#296,.T.);
#377=ORIENTED_EDGE('',*,*,#297,.T.);
#378=ORIENTED_EDGE('',*,*,#298,.T.);
#379=ORIENTED_EDGE('',*,*,#294,.F.);
#380=ORIENTED_EDGE('',*,*,#299,.T.);
#381=ORIENTED_EDGE('',*,*,#300,.F.);
#382=ORIENTED_EDGE('',*,*,#301,.T.);
#383=ORIENTED_EDGE('',*,*,#300,.T.);
#384=ORIENTED_EDGE('',*,*,#302,.T.);
#385=ORIENTED_EDGE('',*,*,#303,.T.);
#386=ORIENTED_EDGE('',*,*,#304,.T.);
#387=ORIENTED_EDGE('',*,*,#305,.T.);
#388=ORIENTED_EDGE('',*,*,#306,.T.);
#389=ORIENTED_EDGE('',*,*,#307,.T.);
#390=ORIENTED_EDGE('',*,*,#308,.T.);
#391=ORIENTED_EDGE('',*,*,#306,.F.);
#392=ORIENTED_EDGE('',*,*,#309,.T.);
#393=ORIENTED_EDGE('',*,*,#310,.T.);
#394=ORIENTED_EDGE('',*,*,#311,.T.);
#395=ORIENTED_EDGE('',*,*,#312,.T.);
#396=ORIENTED_EDGE('',*,*,#313,.T.);
#397=ORIENTED_EDGE('',*,*,#314,.T.);
#398=ORIENTED_EDGE('',*,*,#315,.T.);
#399=ORIENTED_EDGE('',*,*,#305,.F.);
#400=ORIENTED_EDGE('',*,*,#316,.F.);
#401=ORIENTED_EDGE('',*,*,#317,.T.);
#402=ORIENTED_EDGE('',*,*,#318,.T.);
#403=ORIENTED_EDGE('',*,*,#319,.F.);
#404=ORIENTED_EDGE('',*,*,#320,.F.);
#405=ORIENTED_EDGE('',*,*,#321,.F.);
#406=ORIENTED_EDGE('',*,*,#322,.F.);
#407=ORIENTED_EDGE('',*,*,#323,.T.);
#408=ORIENTED_EDGE('',*,*,#309,.F.);
#409=ORIENTED_EDGE('',*,*,#324,.T.);
#410=ORIENTED_EDGE('',*,*,#325,.T.);
#411=ORIENTED_EDGE('',*,*,#319,.T.);
#412=ORIENTED_EDGE('',*,*,#326,.T.);
#413=ORIENTED_EDGE('',*,*,#325,.F.);
#414=ORIENTED_EDGE('',*,*,#327,.T.);
#415=ORIENTED_EDGE('',*,*,#328,.T.);
#416=ORIENTED_EDGE('',*,*,#329,.F.);
#417=ORIENTED_EDGE('',*,*,#330,.F.);
#418=ORIENTED_EDGE('',*,*,#331,.F.);
#419=ORIENTED_EDGE('',*,*,#332,.F.);
#420=ORIENTED_EDGE('',*,*,#320,.T.);
#421=ORIENTED_EDGE('',*,*,#298,.F.);
#422=ORIENTED_EDGE('',*,*,#333,.T.);
#423=ORIENTED_EDGE('',*,*,#334,.F.);
#424=ORIENTED_EDGE('',*,*,#335,.F.);
#425=ORIENTED_EDGE('',*,*,#333,.F.);
#426=ORIENTED_EDGE('',*,*,#336,.F.);
#427=ORIENTED_EDGE('',*,*,#337,.T.);
#428=ORIENTED_EDGE('',*,*,#338,.T.);
#429=ORIENTED_EDGE('',*,*,#292,.F.);
#430=ORIENTED_EDGE('',*,*,#339,.F.);
#431=ORIENTED_EDGE('',*,*,#340,.T.);
#432=ORIENTED_EDGE('',*,*,#313,.F.);
#433=ORIENTED_EDGE('',*,*,#341,.F.);
#434=ORIENTED_EDGE('',*,*,#336,.T.);
#435=ORIENTED_EDGE('',*,*,#295,.F.);
#436=ORIENTED_EDGE('',*,*,#342,.F.);
#437=ORIENTED_EDGE('',*,*,#341,.T.);
#438=ORIENTED_EDGE('',*,*,#312,.F.);
#439=ORIENTED_EDGE('',*,*,#343,.F.);
#440=ORIENTED_EDGE('',*,*,#337,.F.);
#441=ORIENTED_EDGE('',*,*,#343,.T.);
#442=ORIENTED_EDGE('',*,*,#311,.F.);
#443=ORIENTED_EDGE('',*,*,#344,.F.);
#444=ORIENTED_EDGE('',*,*,#338,.F.);
#445=ORIENTED_EDGE('',*,*,#344,.T.);
#446=ORIENTED_EDGE('',*,*,#310,.F.);
#447=ORIENTED_EDGE('',*,*,#323,.F.);
#448=ORIENTED_EDGE('',*,*,#345,.F.);
#449=ORIENTED_EDGE('',*,*,#308,.F.);
#450=ORIENTED_EDGE('',*,*,#346,.F.);
#451=ORIENTED_EDGE('',*,*,#347,.T.);
#452=ORIENTED_EDGE('',*,*,#316,.T.);
#453=ORIENTED_EDGE('',*,*,#348,.T.);
#454=ORIENTED_EDGE('',*,*,#304,.F.);
#455=ORIENTED_EDGE('',*,*,#349,.T.);
#456=ORIENTED_EDGE('',*,*,#314,.F.);
#457=ORIENTED_EDGE('',*,*,#340,.F.);
#458=ORIENTED_EDGE('',*,*,#348,.F.);
#459=ORIENTED_EDGE('',*,*,#339,.T.);
#460=ORIENTED_EDGE('',*,*,#342,.T.);
#461=ORIENTED_EDGE('',*,*,#301,.F.);
#462=ORIENTED_EDGE('',*,*,#329,.T.);
#463=ORIENTED_EDGE('',*,*,#350,.T.);
#464=ORIENTED_EDGE('',*,*,#351,.F.);
#465=ORIENTED_EDGE('',*,*,#352,.F.);
#466=ORIENTED_EDGE('',*,*,#353,.T.);
#467=ORIENTED_EDGE('',*,*,#351,.T.);
#468=ORIENTED_EDGE('',*,*,#354,.T.);
#469=ORIENTED_EDGE('',*,*,#299,.F.);
#470=ORIENTED_EDGE('',*,*,#331,.T.);
#471=ORIENTED_EDGE('',*,*,#355,.T.);
#472=ORIENTED_EDGE('',*,*,#356,.F.);
#473=ORIENTED_EDGE('',*,*,#357,.F.);
#474=ORIENTED_EDGE('',*,*,#358,.T.);
#475=ORIENTED_EDGE('',*,*,#356,.T.);
#476=ORIENTED_EDGE('',*,*,#359,.T.);
#477=ORIENTED_EDGE('',*,*,#290,.F.);
#478=ORIENTED_EDGE('',*,*,#354,.F.);
#479=ORIENTED_EDGE('',*,*,#350,.F.);
#480=ORIENTED_EDGE('',*,*,#328,.F.);
#481=ORIENTED_EDGE('',*,*,#360,.F.);
#482=ORIENTED_EDGE('',*,*,#302,.F.);
#483=ORIENTED_EDGE('',*,*,#326,.F.);
#484=ORIENTED_EDGE('',*,*,#318,.F.);
#485=ORIENTED_EDGE('',*,*,#361,.T.);
#486=ORIENTED_EDGE('',*,*,#362,.T.);
#487=ORIENTED_EDGE('',*,*,#363,.F.);
#488=ORIENTED_EDGE('',*,*,#321,.T.);
#489=ORIENTED_EDGE('',*,*,#332,.T.);
#490=ORIENTED_EDGE('',*,*,#357,.T.);
#491=ORIENTED_EDGE('',*,*,#358,.F.);
#492=ORIENTED_EDGE('',*,*,#359,.F.);
#493=ORIENTED_EDGE('',*,*,#355,.F.);
#494=ORIENTED_EDGE('',*,*,#330,.T.);
#495=ORIENTED_EDGE('',*,*,#352,.T.);
#496=ORIENTED_EDGE('',*,*,#353,.F.);
#497=ORIENTED_EDGE('',*,*,#293,.F.);
#498=ORIENTED_EDGE('',*,*,#307,.F.);
#499=ORIENTED_EDGE('',*,*,#315,.F.);
#500=ORIENTED_EDGE('',*,*,#349,.F.);
#501=ORIENTED_EDGE('',*,*,#303,.F.);
#502=ORIENTED_EDGE('',*,*,#360,.T.);
#503=ORIENTED_EDGE('',*,*,#327,.F.);
#504=ORIENTED_EDGE('',*,*,#324,.F.);
#505=ORIENTED_EDGE('',*,*,#362,.F.);
#506=ORIENTED_EDGE('',*,*,#364,.T.);
#507=ORIENTED_EDGE('',*,*,#346,.T.);
#508=ORIENTED_EDGE('',*,*,#364,.F.);
#509=ORIENTED_EDGE('',*,*,#361,.F.);
#510=ORIENTED_EDGE('',*,*,#317,.F.);
#511=ORIENTED_EDGE('',*,*,#347,.F.);
#512=ORIENTED_EDGE('',*,*,#334,.T.);
#513=ORIENTED_EDGE('',*,*,#335,.T.);
#514=ORIENTED_EDGE('',*,*,#365,.T.);
#515=ORIENTED_EDGE('',*,*,#366,.T.);
#516=ORIENTED_EDGE('',*,*,#289,.T.);
#517=ORIENTED_EDGE('',*,*,#345,.T.);
#518=ORIENTED_EDGE('',*,*,#322,.T.);
#519=ORIENTED_EDGE('',*,*,#363,.T.);
#520=ORIENTED_EDGE('',*,*,#296,.F.);
#521=ORIENTED_EDGE('',*,*,#297,.F.);
#522=ORIENTED_EDGE('',*,*,#367,.T.);
#523=ORIENTED_EDGE('',*,*,#365,.F.);
#524=ORIENTED_EDGE('',*,*,#366,.F.);
#525=ORIENTED_EDGE('',*,*,#367,.F.);
#526=TOROIDAL_SURFACE('',#572,43.9999999999998,2.7);
#527=TOROIDAL_SURFACE('',#579,43.9999999999998,2.7);
#528=ADVANCED_FACE('',(#150),#526,.F.);
#529=ADVANCED_FACE('',(#151,#31,#32),#138,.T.);
#530=ADVANCED_FACE('',(#152),#527,.F.);
#531=ADVANCED_FACE('',(#153),#139,.T.);
#532=ADVANCED_FACE('',(#154),#140,.T.);
#533=ADVANCED_FACE('',(#155),#15,.T.);
#534=ADVANCED_FACE('',(#156),#16,.F.);
#535=ADVANCED_FACE('',(#157),#141,.T.);
#536=ADVANCED_FACE('',(#158),#17,.F.);
#537=ADVANCED_FACE('',(#159),#142,.F.);
#538=ADVANCED_FACE('',(#160),#18,.F.);
#539=ADVANCED_FACE('',(#161),#143,.F.);
#540=ADVANCED_FACE('',(#162),#19,.T.);
#541=ADVANCED_FACE('',(#163),#144,.F.);
#542=ADVANCED_FACE('',(#164),#20,.T.);
#543=ADVANCED_FACE('',(#165),#21,.T.);
#544=ADVANCED_FACE('',(#166),#22,.T.);
#545=ADVANCED_FACE('',(#167),#23,.F.);
#546=ADVANCED_FACE('',(#168),#145,.F.);
#547=ADVANCED_FACE('',(#169),#24,.F.);
#548=ADVANCED_FACE('',(#170),#146,.F.);
#549=ADVANCED_FACE('',(#171),#25,.F.);
#550=ADVANCED_FACE('',(#172),#26,.T.);
#551=ADVANCED_FACE('',(#173),#27,.T.);
#552=ADVANCED_FACE('',(#174),#28,.T.);
#553=ADVANCED_FACE('',(#175),#29,.T.);
#554=ADVANCED_FACE('',(#176),#30,.F.);
#555=ADVANCED_FACE('',(#177,#33,#34),#147,.F.);
#556=ADVANCED_FACE('',(#178),#148,.T.);
#557=ADVANCED_FACE('',(#179),#149,.F.);
#558=CLOSED_SHELL('',(#528,#529,#530,#531,#532,#533,#534,#535,#536,#537,
#538,#539,#540,#541,#542,#543,#544,#545,#546,#547,#548,#549,#550,#551,#552,
#553,#554,#555,#556,#557));
#559=DERIVED_UNIT_ELEMENT(#561,1.);
#560=DERIVED_UNIT_ELEMENT(#1085,-3.);
#561=(
MASS_UNIT()
NAMED_UNIT(*)
SI_UNIT(.KILO.,.GRAM.)
);
#562=DERIVED_UNIT((#559,#560));
#563=MEASURE_REPRESENTATION_ITEM('density measure',
POSITIVE_RATIO_MEASURE(7850.),#562);
#564=PROPERTY_DEFINITION_REPRESENTATION(#569,#566);
#565=PROPERTY_DEFINITION_REPRESENTATION(#570,#567);
#566=REPRESENTATION('material name',(#568),#1082);
#567=REPRESENTATION('density',(#563),#1082);
#568=DESCRIPTIVE_REPRESENTATION_ITEM('Steel','Steel');
#569=PROPERTY_DEFINITION('material property','material name',#1092);
#570=PROPERTY_DEFINITION('material property','density of part',#1092);
#571=AXIS2_PLACEMENT_3D('',#784,#626,#627);
#572=AXIS2_PLACEMENT_3D('',#785,#628,#629);
#573=AXIS2_PLACEMENT_3D('',#788,#630,#631);
#574=AXIS2_PLACEMENT_3D('',#790,#632,#633);
#575=AXIS2_PLACEMENT_3D('',#792,#634,#635);
#576=AXIS2_PLACEMENT_3D('',#793,#636,#637);
#577=AXIS2_PLACEMENT_3D('',#794,#638,#639);
#578=AXIS2_PLACEMENT_3D('',#798,#641,#642);
#579=AXIS2_PLACEMENT_3D('',#873,#644,#645);
#580=AXIS2_PLACEMENT_3D('',#875,#646,#647);
#581=AXIS2_PLACEMENT_3D('',#877,#648,#649);
#582=AXIS2_PLACEMENT_3D('',#878,#650,#651);
#583=AXIS2_PLACEMENT_3D('',#879,#652,#653);
#584=AXIS2_PLACEMENT_3D('',#883,#655,#656);
#585=AXIS2_PLACEMENT_3D('',#885,#658,#659);
#586=AXIS2_PLACEMENT_3D('',#888,#660,#661);
#587=AXIS2_PLACEMENT_3D('',#892,#663,#664);
#588=AXIS2_PLACEMENT_3D('',#894,#666,#667);
#589=AXIS2_PLACEMENT_3D('',#900,#670,#671);
#590=AXIS2_PLACEMENT_3D('',#904,#673,#674);
#591=AXIS2_PLACEMENT_3D('',#908,#677,#678);
#592=AXIS2_PLACEMENT_3D('',#912,#680,#681);
#593=AXIS2_PLACEMENT_3D('',#916,#683,#684);
#594=AXIS2_PLACEMENT_3D('',#922,#687,#688);
#595=AXIS2_PLACEMENT_3D('',#924,#690,#691);
#596=AXIS2_PLACEMENT_3D('',#927,#692,#693);
#597=AXIS2_PLACEMENT_3D('',#930,#696,#697);
#598=AXIS2_PLACEMENT_3D('',#936,#700,#701);
#599=AXIS2_PLACEMENT_3D('',#940,#703,#704);
#600=AXIS2_PLACEMENT_3D('',#942,#706,#707);
#601=AXIS2_PLACEMENT_3D('',#982,#709,#710);
#602=AXIS2_PLACEMENT_3D('',#986,#712,#713);
#603=AXIS2_PLACEMENT_3D('',#988,#715,#716);
#604=AXIS2_PLACEMENT_3D('',#991,#717,#718);
#605=AXIS2_PLACEMENT_3D('',#994,#721,#722);
#606=AXIS2_PLACEMENT_3D('',#997,#725,#726);
#607=AXIS2_PLACEMENT_3D('',#999,#728,#729);
#608=AXIS2_PLACEMENT_3D('',#1001,#731,#732);
#609=AXIS2_PLACEMENT_3D('',#1005,#735,#736);
#610=AXIS2_PLACEMENT_3D('',#1008,#739,#740);
#611=AXIS2_PLACEMENT_3D('',#1009,#741,#742);
#612=AXIS2_PLACEMENT_3D('',#1013,#744,#745);
#613=AXIS2_PLACEMENT_3D('',#1015,#747,#748);
#614=AXIS2_PLACEMENT_3D('',#1018,#751,#752);
#615=AXIS2_PLACEMENT_3D('',#1022,#754,#755);
#616=AXIS2_PLACEMENT_3D('',#1024,#757,#758);
#617=AXIS2_PLACEMENT_3D('',#1027,#761,#762);
#618=AXIS2_PLACEMENT_3D('',#1029,#764,#765);
#619=AXIS2_PLACEMENT_3D('',#1033,#768,#769);
#620=AXIS2_PLACEMENT_3D('',#1035,#771,#772);
#621=AXIS2_PLACEMENT_3D('',#1036,#773,#774);
#622=AXIS2_PLACEMENT_3D('',#1037,#775,#776);
#623=AXIS2_PLACEMENT_3D('',#1038,#777,#778);
#624=AXIS2_PLACEMENT_3D('',#1077,#779,#780);
#625=AXIS2_PLACEMENT_3D('',#1078,#781,#782);
#626=DIRECTION('axis',(0.,0.,1.));
#627=DIRECTION('refdir',(1.,0.,0.));
#628=DIRECTION('center_axis',(1.83928064044407E-15,1.,-1.77225219273429E-14));
#629=DIRECTION('ref_axis',(1.,-1.82580574499384E-15,-9.67030405312051E-13));
#630=DIRECTION('center_axis',(1.34656595638173E-15,1.,1.79856167954304E-16));
#631=DIRECTION('ref_axis',(1.,-1.34656595638174E-15,2.8310687127931E-14));
#632=DIRECTION('center_axis',(-1.,1.83928064044406E-15,-2.77834581186619E-16));
#633=DIRECTION('ref_axis',(2.77834581186492E-16,-1.77225219273429E-14,-1.));
#634=DIRECTION('center_axis',(-1.34656595638173E-15,-1.,-1.79856167954304E-16));
#635=DIRECTION('ref_axis',(1.,-1.34656595638174E-15,2.8310687127931E-14));
#636=DIRECTION('center_axis',(-1.67133455069429E-15,1.77225219273429E-14,
1.));
#637=DIRECTION('ref_axis',(-1.,1.83928064044404E-15,-1.67133455069456E-15));
#638=DIRECTION('center_axis',(1.34656595638173E-15,1.,1.79856167954304E-16));
#639=DIRECTION('ref_axis',(1.,-1.34656595638174E-15,2.8310687127931E-14));
#640=DIRECTION('',(-1.34656595638173E-15,-1.,-1.79856167954304E-16));
#641=DIRECTION('center_axis',(1.34656595638173E-15,1.,1.79856167954304E-16));
#642=DIRECTION('ref_axis',(1.,-1.34656595638174E-15,2.8310687127931E-14));
#643=DIRECTION('',(1.34656595638173E-15,1.,1.79856167954304E-16));
#644=DIRECTION('center_axis',(1.83928064047718E-15,1.,-1.77225219273231E-14));
#645=DIRECTION('ref_axis',(1.,-1.82580574499384E-15,2.89846662017773E-14));
#646=DIRECTION('center_axis',(-1.,1.83928064045952E-15,-9.96299446834628E-13));
#647=DIRECTION('ref_axis',(9.96299446834627E-13,-1.77225219273249E-14,-1.));
#648=DIRECTION('center_axis',(-1.34656595638173E-15,-1.,-1.79856167954304E-16));
#649=DIRECTION('ref_axis',(1.,-1.34656595638174E-15,2.8310687127931E-14));
#650=DIRECTION('center_axis',(-9.97692946804135E-13,1.77225219273249E-14,
1.));
#651=DIRECTION('ref_axis',(-1.,1.83928064045949E-15,-9.97692946804135E-13));
#652=DIRECTION('center_axis',(1.34656595638173E-15,1.,1.79856167954304E-16));
#653=DIRECTION('ref_axis',(1.,-1.34656595638174E-15,2.8310687127931E-14));
#654=DIRECTION('',(-1.34656595638173E-15,-1.,-1.79856167954304E-16));
#655=DIRECTION('center_axis',(3.22841402175607E-15,1.,2.3698919794053E-14));
#656=DIRECTION('ref_axis',(1.,-1.34656595638174E-15,2.8310687127931E-14));
#657=DIRECTION('',(1.34656595638173E-15,1.,1.79856167954304E-16));
#658=DIRECTION('center_axis',(-2.15382287586253E-15,1.,1.99840082901006E-15));
#659=DIRECTION('ref_axis',(0.707106781186548,0.,0.707106781186548));
#660=DIRECTION('center_axis',(5.79392319288104E-15,-1.,-1.17016260240726E-14));
#661=DIRECTION('ref_axis',(0.707106781186548,0.,0.707106781186548));
#662=DIRECTION('',(2.15382287586253E-15,-1.,-1.99840082901006E-15));
#663=DIRECTION('center_axis',(3.22841402175607E-15,1.,2.3698919794053E-14));
#664=DIRECTION('ref_axis',(0.707106781186548,0.,0.707106781186548));
#665=DIRECTION('',(-2.15382287586253E-15,1.,1.99840082901006E-15));
#666=DIRECTION('center_axis',(-1.1264933726556E-27,-1.99840082901006E-15,
1.));
#667=DIRECTION('ref_axis',(-1.80318722916209E-14,1.,1.99840082901006E-15));
#668=DIRECTION('',(-1.,-8.8197967447882E-14,1.57772181044202E-28));
#669=DIRECTION('',(1.80318722916209E-14,-1.,2.44249065427948E-15));
#670=DIRECTION('center_axis',(7.57306469012171E-29,-2.44249065427887E-15,
-1.));
#671=DIRECTION('ref_axis',(-1.80318722916209E-14,1.,-2.44249065427887E-15));
#672=DIRECTION('',(-7.52868791879857E-15,-1.,3.08150465953927E-15));
#673=DIRECTION('center_axis',(7.57306469012171E-29,-2.44249065427887E-15,
-1.));
#674=DIRECTION('ref_axis',(-1.80318722916209E-14,1.,-2.44249065427887E-15));
#675=DIRECTION('',(-7.52868791879857E-15,-1.,3.08150465953927E-15));
#676=DIRECTION('',(1.,-3.23722530263247E-14,1.06338450023792E-27));
#677=DIRECTION('center_axis',(5.79392319288104E-15,-1.,-1.17016260240726E-14));
#678=DIRECTION('ref_axis',(1.20396233056043E-14,-1.17016260240725E-14,1.));
#679=DIRECTION('',(0.,-2.22044604925031E-15,1.));
#680=DIRECTION('center_axis',(5.79392319288104E-15,-1.,-1.17016260240726E-14));
#681=DIRECTION('ref_axis',(-4.63873953494134E-14,1.08611909689611E-16,-1.));
#682=DIRECTION('',(1.,2.22044604925031E-15,9.9698027611339E-13));
#683=DIRECTION('center_axis',(5.79392319288104E-15,-1.,-1.17016260240726E-14));
#684=DIRECTION('ref_axis',(0.707106781185841,0.,0.707106781187254));
#685=DIRECTION('',(-2.84912377819577E-14,-1.17016260240728E-14,1.));
#686=DIRECTION('',(1.,2.22044604925031E-15,9.9698027611339E-13));
#687=DIRECTION('center_axis',(5.79392319288104E-15,-1.,-1.17016260240726E-14));
#688=DIRECTION('ref_axis',(1.,-1.34656595638174E-15,2.8310687127931E-14));
#689=DIRECTION('',(0.,-2.22044604925031E-15,1.));
#690=DIRECTION('center_axis',(1.11418810685652E-15,-1.,-1.08611909687692E-16));
#691=DIRECTION('ref_axis',(0.707106781185841,0.,0.707106781187254));
#692=DIRECTION('center_axis',(3.22841402175607E-15,1.,2.3698919794053E-14));
#693=DIRECTION('ref_axis',(0.707106781185841,0.,0.707106781187254));
#694=DIRECTION('',(-1.11418810685652E-15,1.,1.08611909687692E-16));
#695=DIRECTION('',(1.11418810685652E-15,-1.,-1.08611909687692E-16));
#696=DIRECTION('center_axis',(-1.,-1.11418810685641E-15,-9.96160529544032E-13));
#697=DIRECTION('ref_axis',(-9.96160529544032E-13,-1.99074473381087E-14,
1.));
#698=DIRECTION('',(9.96160529544032E-13,2.36989197940497E-14,-1.));
#699=DIRECTION('',(1.34656595638173E-15,1.,1.79856167954304E-16));
#700=DIRECTION('center_axis',(1.,-4.92714684077609E-16,1.38917290593963E-16));
#701=DIRECTION('ref_axis',(-4.92714684077607E-16,-1.,-1.55211197809564E-14));
#702=DIRECTION('',(-4.92714683922333E-16,-1.,-4.15264266260557E-13));
#703=DIRECTION('center_axis',(1.,-4.92714684077609E-16,1.38917290593963E-16));
#704=DIRECTION('ref_axis',(-4.92714684077607E-16,-1.,-1.55211197809564E-14));
#705=DIRECTION('',(-4.92714683922333E-16,-1.,-4.15264266260557E-13));
#706=DIRECTION('center_axis',(-6.6264316038565E-29,2.44249065427887E-15,
1.));
#707=DIRECTION('ref_axis',(-1.,-1.80318722916214E-14,-2.20881053461883E-29));
#708=DIRECTION('',(-6.6264316038565E-29,2.44249065427887E-15,1.));
#709=DIRECTION('center_axis',(-1.1264933726556E-27,-1.99840082901006E-15,
1.));
#710=DIRECTION('ref_axis',(-1.80318722916209E-14,1.,1.99840082901006E-15));
#711=DIRECTION('',(-7.52868791879857E-15,-1.,3.08150465953927E-15));
#712=DIRECTION('center_axis',(-7.57306469012171E-29,2.44249065427887E-15,
1.));
#713=DIRECTION('ref_axis',(-1.80318722916209E-14,1.,-2.44249065427887E-15));
#714=DIRECTION('',(1.34656595638173E-15,1.,1.79856167954304E-16));
#715=DIRECTION('center_axis',(0.,-2.22044604925031E-15,1.));
#716=DIRECTION('ref_axis',(1.,-1.76789615162562E-14,-3.94430452610506E-29));
#717=DIRECTION('center_axis',(-7.57306469012171E-29,2.44249065427887E-15,
1.));
#718=DIRECTION('ref_axis',(-1.80318722916209E-14,1.,-2.44249065427887E-15));
#719=DIRECTION('',(0.,-2.22044604925031E-15,1.));
#720=DIRECTION('',(0.,-2.22044604925031E-15,1.));
#721=DIRECTION('center_axis',(-1.,7.52868791879857E-15,1.67170453453349E-29));
#722=DIRECTION('ref_axis',(-7.52868791879857E-15,-1.,3.08150465953927E-15));
#723=DIRECTION('',(1.34656595638173E-15,1.,1.79856167954304E-16));
#724=DIRECTION('',(0.,-2.22044604925031E-15,1.));
#725=DIRECTION('center_axis',(0.,-2.22044604925031E-15,1.));
#726=DIRECTION('ref_axis',(1.,-1.76789615162562E-14,-3.99360833268132E-29));
#727=DIRECTION('',(0.,-2.22044604925031E-15,1.));
#728=DIRECTION('center_axis',(-1.,-1.80318722916209E-14,-4.00387995905159E-29));
#729=DIRECTION('ref_axis',(1.80318722916209E-14,-1.,2.44249065427948E-15));
#730=DIRECTION('',(1.34656595638173E-15,1.,1.79856167954304E-16));
#731=DIRECTION('center_axis',(1.,2.15382287586253E-15,4.7824474954939E-30));
#732=DIRECTION('ref_axis',(-2.15382287586253E-15,1.,-2.44249065427887E-15));
#733=DIRECTION('',(0.,-2.22044604925031E-15,1.));
#734=DIRECTION('',(7.76611890264E-16,1.,1.08611909689577E-16));
#735=DIRECTION('center_axis',(-1.,7.52868791879857E-15,1.67170453453349E-29));
#736=DIRECTION('ref_axis',(-7.52868791879857E-15,-1.,3.08150465953927E-15));
#737=DIRECTION('',(-7.52868791879857E-15,-1.,3.08150465953927E-15));
#738=DIRECTION('',(0.,-2.22044604925031E-15,1.));
#739=DIRECTION('center_axis',(-1.1264933726556E-27,-1.99840082901006E-15,
1.));
#740=DIRECTION('ref_axis',(-1.80318722916209E-14,1.,1.99840082901006E-15));
#741=DIRECTION('center_axis',(-1.,0.,0.));
#742=DIRECTION('ref_axis',(0.,-1.,-1.55211197809564E-14));
#743=DIRECTION('',(-1.,0.,0.));
#744=DIRECTION('center_axis',(1.,-4.92714684077609E-16,1.38917290593963E-16));
#745=DIRECTION('ref_axis',(-4.92714684077607E-16,-1.,-1.55211197809564E-14));
#746=DIRECTION('',(-1.,0.,0.));
#747=DIRECTION('center_axis',(1.,-4.92714684077606E-16,1.38917290593975E-16));
#748=DIRECTION('ref_axis',(-4.92714684077606E-16,-1.,-1.55211197809564E-14));
#749=DIRECTION('',(-4.92714683922333E-16,-1.,-4.15264266260557E-13));
#750=DIRECTION('',(-4.92714683922333E-16,-1.,-4.15264266260557E-13));
#751=DIRECTION('center_axis',(-1.,0.,0.));
#752=DIRECTION('ref_axis',(0.,-1.,-1.55211197809564E-14));
#753=DIRECTION('',(-1.,0.,0.));
#754=DIRECTION('center_axis',(1.,-4.92714684077609E-16,1.38917290593963E-16));
#755=DIRECTION('ref_axis',(-4.92714684077607E-16,-1.,-1.55211197809564E-14));
#756=DIRECTION('',(-1.,0.,0.));
#757=DIRECTION('center_axis',(1.,-4.92714684077609E-16,1.38917290593928E-16));
#758=DIRECTION('ref_axis',(-4.92714684077609E-16,-1.,-1.55211197809564E-14));
#759=DIRECTION('',(-4.92714683922333E-16,-1.,-4.15264266260557E-13));
#760=DIRECTION('',(-1.34656595638173E-15,-1.,-1.79856167954304E-16));
#761=DIRECTION('center_axis',(9.9698027611339E-13,1.79856167952962E-16,
-1.));
#762=DIRECTION('ref_axis',(1.34656595638173E-15,1.,1.79856167954304E-16));
#763=DIRECTION('',(1.,2.22044604925031E-15,9.9698027611339E-13));
#764=DIRECTION('center_axis',(-9.9698027611339E-13,-1.08611909688803E-16,
1.));
#765=DIRECTION('ref_axis',(-7.76611890264E-16,-1.,-1.08611909689577E-16));
#766=DIRECTION('',(-7.76611890264E-16,-1.,-1.08611909689577E-16));
#767=DIRECTION('',(1.,2.22044604925031E-15,9.9698027611339E-13));
#768=DIRECTION('center_axis',(9.9698027611339E-13,1.79856167952962E-16,
-1.));
#769=DIRECTION('ref_axis',(1.34656595638173E-15,1.,1.79856167954304E-16));
#770=DIRECTION('',(-1.34656595638173E-15,-1.,-1.79856167954304E-16));
#771=DIRECTION('center_axis',(9.9698027611339E-13,1.79856167952962E-16,
-1.));
#772=DIRECTION('ref_axis',(1.34656595638173E-15,1.,1.79856167954304E-16));
#773=DIRECTION('center_axis',(3.22841402175607E-15,1.,2.3698919794053E-14));
#774=DIRECTION('ref_axis',(1.,-3.22841402175606E-15,-5.82243711177398E-16));
#775=DIRECTION('center_axis',(3.22841402175607E-15,1.,2.3698919794053E-14));
#776=DIRECTION('ref_axis',(-4.63873953494134E-14,1.08611909689611E-16,-1.));
#777=DIRECTION('center_axis',(-7.76611890264E-16,-1.,-1.08611909689577E-16));
#778=DIRECTION('ref_axis',(-4.63873953494134E-14,1.08611909689611E-16,-1.));
#779=DIRECTION('center_axis',(1.34656595638173E-15,1.,1.79856167954304E-16));
#780=DIRECTION('ref_axis',(1.,-1.34656595638174E-15,2.8310687127931E-14));
#781=DIRECTION('center_axis',(1.,-4.14910271381156E-16,2.98906198927099E-16));
#782=DIRECTION('ref_axis',(4.14910271381153E-16,1.,1.55211197809564E-14));
#783=DIRECTION('',(1.,-4.14910271381156E-16,2.98906198927099E-16));
#784=CARTESIAN_POINT('',(0.,0.,0.));
#785=CARTESIAN_POINT('Origin',(7.94377134993844,45.2361096272724,10.1647335529257));
#786=CARTESIAN_POINT('',(7.94377134993845,47.9361096272716,-33.8352664470744));
#787=CARTESIAN_POINT('',(-36.0562288002013,47.9361096272725,10.1647335529256));
#788=CARTESIAN_POINT('Origin',(7.94377134993845,47.9361096272724,10.1647335529257));
#789=CARTESIAN_POINT('',(7.94377134993844,42.5361096272716,-33.8352664470744));
#790=CARTESIAN_POINT('Origin',(7.94377134993844,45.2361096272716,-33.835266447074));
#791=CARTESIAN_POINT('',(-36.0562288002047,42.5361096272725,10.1647335529257));
#792=CARTESIAN_POINT('Origin',(7.94377134993844,42.5361096272724,10.1647335529257));
#793=CARTESIAN_POINT('Origin',(-36.0562286500613,45.2361096272725,10.1647335529256));
#794=CARTESIAN_POINT('Origin',(7.94377119979529,49.8369088146707,10.1647335529255));
#795=CARTESIAN_POINT('',(7.94377135002975,39.2369084769288,-33.8352664470744));
#796=CARTESIAN_POINT('',(7.94377135002403,49.8369088146707,-33.8352664470744));
#797=CARTESIAN_POINT('',(-36.0562288002047,39.2369084769296,10.1647335528791));
#798=CARTESIAN_POINT('Origin',(7.94377134998598,39.2369084769296,10.1647335529231));
#799=CARTESIAN_POINT('',(-36.0562288002047,49.8369088146708,10.1647335529246));
#800=CARTESIAN_POINT('',(-33.3104407063846,40.8869085072658,-5.13526644707469));
#801=CARTESIAN_POINT('',(-33.7527214584607,39.6369085072658,-3.8852664470747));
#802=CARTESIAN_POINT('Ctrl Pts',(-33.7527214584607,39.6369085072658,-3.88526644707469));
#803=CARTESIAN_POINT('Ctrl Pts',(-33.8049045056065,39.6369085072658,-3.73040167538775));
#804=CARTESIAN_POINT('Ctrl Pts',(-33.8598511719731,39.6674193766516,-3.56419167215118));
#805=CARTESIAN_POINT('Ctrl Pts',(-33.959787229672,39.7940420336494,-3.25607201825492));
#806=CARTESIAN_POINT('Ctrl Pts',(-34.004815814399,39.8902098795698,-3.11419812180437));
#807=CARTESIAN_POINT('Ctrl Pts',(-34.0745126009738,40.112458216166,-2.89194978520815));
#808=CARTESIAN_POINT('Ctrl Pts',(-34.1042076015411,40.2520052587121,-2.79566710513529));
#809=CARTESIAN_POINT('Ctrl Pts',(-34.1435588588271,40.5599631708263,-2.66730272388536));
#810=CARTESIAN_POINT('Ctrl Pts',(-34.1532595743578,40.728387289954,-2.63526644707469));
#811=CARTESIAN_POINT('Ctrl Pts',(-34.1532595743578,41.0433773304074,-2.63526644707469));
#812=CARTESIAN_POINT('Ctrl Pts',(-34.1438054486542,41.2097761674064,-2.6664857770934));
#813=CARTESIAN_POINT('Ctrl Pts',(-34.1053837296091,41.5146777848963,-2.79184266836522));
#814=CARTESIAN_POINT('Ctrl Pts',(-34.0763744350282,41.6531940393414,-2.88593466799965));
#815=CARTESIAN_POINT('Ctrl Pts',(-34.0073639435627,41.8776649138164,-3.1061492081163));
#816=CARTESIAN_POINT('Ctrl Pts',(-33.9620242682253,41.9760385283584,-3.24910473940322));
#817=CARTESIAN_POINT('Ctrl Pts',(-33.8611423829299,42.1056326980969,-3.56027835554397));
#818=CARTESIAN_POINT('Ctrl Pts',(-33.8055587698331,42.1369085072658,-3.72846000111578));
#819=CARTESIAN_POINT('Ctrl Pts',(-33.699465037874,42.1369085072658,-4.0433166926262));
#820=CARTESIAN_POINT('Ctrl Pts',(-33.6414940284502,42.1051826185413,-4.21208601174105));
#821=CARTESIAN_POINT('Ctrl Pts',(-33.5325000345963,41.9748314211262,-4.52356619174512));
#822=CARTESIAN_POINT('Ctrl Pts',(-33.4815271749854,41.8761817448206,-4.66628439231927));
#823=CARTESIAN_POINT('Ctrl Pts',(-33.4023922203575,41.6519101029406,-4.88543264790393));
#824=CARTESIAN_POINT('Ctrl Pts',(-33.3681001601124,41.5139686206551,-4.97903471474689));
#825=CARTESIAN_POINT('Ctrl Pts',(-33.322082018946,41.2097962840031,-5.10398580229786));
#826=CARTESIAN_POINT('Ctrl Pts',(-33.3104407063846,41.0435245280018,-5.13526644707469));
#827=CARTESIAN_POINT('Ctrl Pts',(-33.3104407063846,40.8869085072658,-5.13526644707469));
#828=CARTESIAN_POINT('Ctrl Pts',(-33.3104407063846,40.8869085072658,-5.13526644707469));
#829=CARTESIAN_POINT('Ctrl Pts',(-33.3104407063846,40.7277958257468,-5.13526644707469));
#830=CARTESIAN_POINT('Ctrl Pts',(-33.3224532985293,40.5590756003348,-5.10299088549683));
#831=CARTESIAN_POINT('Ctrl Pts',(-33.3697994038587,40.2512198855307,-4.97440703803699));
#832=CARTESIAN_POINT('Ctrl Pts',(-33.4050446289625,40.1120422602328,-4.878167153008));
#833=CARTESIAN_POINT('Ctrl Pts',(-33.4849972965307,39.8904593637461,-4.65658425652132));
#834=CARTESIAN_POINT('Ctrl Pts',(-33.5354670100523,39.7944646709763,-4.51516364628634));
#835=CARTESIAN_POINT('Ctrl Pts',(-33.6431222850452,39.667702119045,-4.20735309201236));
#836=CARTESIAN_POINT('Ctrl Pts',(-33.7002601339497,39.6369085072658,-4.0409570685918));
#837=CARTESIAN_POINT('Ctrl Pts',(-33.7527214584607,39.6369085072658,-3.88526644707469));
#838=CARTESIAN_POINT('',(-4.78283710806522,40.8869085072664,-31.9545428057477));
#839=CARTESIAN_POINT('Ctrl Pts',(-4.78283710806522,40.8869085072664,-31.9545428057477));
#840=CARTESIAN_POINT('Ctrl Pts',(-4.78283710806523,41.0433823262097,-31.9545428057477));
#841=CARTESIAN_POINT('Ctrl Pts',(-4.81405795849426,41.2097927968882,-31.9451475910455));
#842=CARTESIAN_POINT('Ctrl Pts',(-4.9394401688106,41.5147301313021,-31.9069571623773));
#843=CARTESIAN_POINT('Ctrl Pts',(-5.03355657893292,41.6532702290507,-31.8781200696244));
#844=CARTESIAN_POINT('Ctrl Pts',(-5.25379191198835,41.8777130162243,-31.8095249358308));
#845=CARTESIAN_POINT('Ctrl Pts',(-5.3967216756769,41.9760623119417,-31.7644682638859));
#846=CARTESIAN_POINT('Ctrl Pts',(-5.70785978091941,42.1056326689428,-31.664200054425));
#847=CARTESIAN_POINT('Ctrl Pts',(-5.87603193335663,42.1369085072664,-31.6089470199621));
#848=CARTESIAN_POINT('Ctrl Pts',(-6.19087798792836,42.1369085072664,-31.5034734195811));
#849=CARTESIAN_POINT('Ctrl Pts',(-6.35963384519343,42.1051855783424,-31.4458394895165));
#850=CARTESIAN_POINT('Ctrl Pts',(-6.67107659684728,41.9748632291118,-31.3374761314036));
#851=CARTESIAN_POINT('Ctrl Pts',(-6.81377080372376,41.8762396356095,-31.2867967988479));
#852=CARTESIAN_POINT('Ctrl Pts',(-7.03294664655583,41.6519946836923,-31.2080914723543));
#853=CARTESIAN_POINT('Ctrl Pts',(-7.1265763608953,41.5140255477542,-31.1739777622573));
#854=CARTESIAN_POINT('Ctrl Pts',(-7.25155539833816,41.2098125777788,-31.1282014165439));
#855=CARTESIAN_POINT('Ctrl Pts',(-7.28283710806522,41.0435283033308,-31.1166230071367));
#856=CARTESIAN_POINT('Ctrl Pts',(-7.28283710806522,40.7278193626854,-31.1166230071367));
#857=CARTESIAN_POINT('Ctrl Pts',(-7.25057141368372,40.5591129254005,-31.1285666241402));
#858=CARTESIAN_POINT('Ctrl Pts',(-7.12199832754429,40.2512555766083,-31.175649554884));
#859=CARTESIAN_POINT('Ctrl Pts',(-7.02575857083984,40.1120630170747,-31.2107011701023));
#860=CARTESIAN_POINT('Ctrl Pts',(-6.80417253705172,39.8904769832865,-31.2902113093108));
#861=CARTESIAN_POINT('Ctrl Pts',(-6.66276188831695,39.7944802232105,-31.3403955626033));
#862=CARTESIAN_POINT('Ctrl Pts',(-6.35495002320938,39.6677087445671,-31.4474416261968));
#863=CARTESIAN_POINT('Ctrl Pts',(-6.18854272930285,39.6369085072664,-31.5042557324971));
#864=CARTESIAN_POINT('Ctrl Pts',(-5.87795195106068,39.6369085072664,-31.6083038129817));
#865=CARTESIAN_POINT('Ctrl Pts',(-5.71172914689191,39.6674278866095,-31.6629308773765));
#866=CARTESIAN_POINT('Ctrl Pts',(-5.40361001127957,39.7940605877686,-31.7622698722267));
#867=CARTESIAN_POINT('Ctrl Pts',(-5.26174919336912,39.8902294689962,-31.8070211154148));
#868=CARTESIAN_POINT('Ctrl Pts',(-5.03950236707385,40.1124762952914,-31.8762910637317));
#869=CARTESIAN_POINT('Ctrl Pts',(-4.94322029919115,40.2520356295867,-31.9058018744036));
#870=CARTESIAN_POINT('Ctrl Pts',(-4.81486526409076,40.5599941895413,-31.9449054457342));
#871=CARTESIAN_POINT('Ctrl Pts',(-4.78283710806522,40.7284064257383,-31.9545428057477));
#872=CARTESIAN_POINT('Ctrl Pts',(-4.78283710806522,40.8869085072664,-31.9545428057477));
#873=CARTESIAN_POINT('Origin',(7.94377134998598,36.5369084769296,10.1647335529231));
#874=CARTESIAN_POINT('',(7.94377135002974,33.8369084769288,-33.8352664470744));
#875=CARTESIAN_POINT('Origin',(7.94377135002975,36.5369084769288,-33.8352664470767));
#876=CARTESIAN_POINT('',(-36.0562288002014,33.8369084769296,10.1647335528792));
#877=CARTESIAN_POINT('Origin',(7.94377134998598,33.8369084769296,10.1647335529231));
#878=CARTESIAN_POINT('Origin',(-36.0562286500138,36.5369084769296,10.1647335528792));
#879=CARTESIAN_POINT('Origin',(7.94377119979529,49.8369088146707,10.1647335529255));
#880=CARTESIAN_POINT('',(7.94377135002405,31.9369081998632,-33.8352664470744));
#881=CARTESIAN_POINT('',(7.94377135002403,49.8369088146707,-33.8352664470744));
#882=CARTESIAN_POINT('',(-36.0562288002047,31.9369081998624,10.1647335529237));
#883=CARTESIAN_POINT('Origin',(7.94377119979527,31.9369081998625,10.1647335529255));
#884=CARTESIAN_POINT('',(-36.0562288002047,49.8369088146708,10.1647335529246));
#885=CARTESIAN_POINT('Origin',(-32.0562288001978,36.4119083535637,11.1647335529247));
#886=CARTESIAN_POINT('',(-31.0562288001979,49.8369088146703,11.1647335529248));
#887=CARTESIAN_POINT('',(-32.0562288001978,49.8369088146702,12.1647335529247));
#888=CARTESIAN_POINT('Origin',(-32.0562288001978,49.8369088146713,11.1647335529248));
#889=CARTESIAN_POINT('',(-32.0562288001978,31.9369081998615,12.1647335529247));
#890=CARTESIAN_POINT('',(-32.0562288001978,36.4119083535637,12.1647335529247));
#891=CARTESIAN_POINT('',(-31.0562288001978,31.9369081998615,11.1647335529247));
#892=CARTESIAN_POINT('Origin',(-32.0562288001978,31.9369081998625,11.1647335529247));
#893=CARTESIAN_POINT('',(-31.0562288001978,36.4119083535637,11.1647335529247));
#894=CARTESIAN_POINT('Origin',(-33.5562288001996,40.8869085072659,12.1647335529247));
#895=CARTESIAN_POINT('',(-36.0562288002014,49.8369088146699,12.1647335529247));
#896=CARTESIAN_POINT('',(-31.0562288001979,49.8369088146703,12.1647335529247));
#897=CARTESIAN_POINT('',(-36.0562288002013,47.2361096272716,12.1647335529247));
#898=CARTESIAN_POINT('',(-36.0562288002014,49.8369088146699,12.1647335529247));
#899=CARTESIAN_POINT('',(-36.0562288002014,43.2361096272715,12.1647335529247));
#900=CARTESIAN_POINT('Origin',(-36.0562286500143,45.2361096272716,12.1647335529247));
#901=CARTESIAN_POINT('',(-36.0562288002014,38.5369084769294,12.1647335529247));
#902=CARTESIAN_POINT('',(-36.0562288002013,47.8361096272715,12.1647335529247));
#903=CARTESIAN_POINT('',(-36.0562288002014,34.5369084769294,12.1647335529247));
#904=CARTESIAN_POINT('Origin',(-36.0562286500139,36.5369084769294,12.1647335529247));
#905=CARTESIAN_POINT('',(-36.0562288002014,31.9369081998617,12.1647335529247));
#906=CARTESIAN_POINT('',(-36.0562288002013,47.8361096272715,12.1647335529247));
#907=CARTESIAN_POINT('',(-36.0562288002014,31.9369081998617,12.1647335529247));
#908=CARTESIAN_POINT('Origin',(-1.77700880021298,49.8369088146715,-38.9352664470772));
#909=CARTESIAN_POINT('',(-31.0562288002011,49.8369088146711,10.1647335529249));
#910=CARTESIAN_POINT('',(-31.0562288001979,49.8369088146703,10.1647335529247));
#911=CARTESIAN_POINT('',(7.94377119979679,49.8369088146715,-28.8352664470739));
#912=CARTESIAN_POINT('Origin',(7.94377119979856,49.8369088146714,10.1647335529258));
#913=CARTESIAN_POINT('',(8.94377135001905,49.8369088146715,-28.8352664470729));
#914=CARTESIAN_POINT('',(7.94377119979679,49.8369088146715,-28.8352664470739));
#915=CARTESIAN_POINT('',(9.94377119979314,49.8369088146715,-29.8352664470719));
#916=CARTESIAN_POINT('Origin',(8.94377135002005,49.8369088146715,-29.8352664470729));
#917=CARTESIAN_POINT('',(9.94377119979325,49.8369088146715,-33.8352664470724));
#918=CARTESIAN_POINT('',(9.94377119979309,49.8369088146715,-28.0827224160324));
#919=CARTESIAN_POINT('',(7.94377119979325,49.8369088146715,-33.8352664470744));
#920=CARTESIAN_POINT('',(7.94377119979325,49.8369088146715,-33.8352664470744));
#921=CARTESIAN_POINT('',(-36.0562288002047,49.8369088146707,10.1647335529246));
#922=CARTESIAN_POINT('Origin',(7.94377119979529,49.8369088146714,10.1647335529255));
#923=CARTESIAN_POINT('',(-36.0562288002014,49.8369088146699,10.1647335529247));
#924=CARTESIAN_POINT('Origin',(8.94377135002006,40.8869085072673,-29.8352664470729));
#925=CARTESIAN_POINT('',(8.94377135001907,31.936908199863,-28.8352664470729));
#926=CARTESIAN_POINT('',(9.94377135002007,31.9369081998631,-29.8352664470719));
#927=CARTESIAN_POINT('Origin',(8.94377135002007,31.9369081998626,-29.8352664470729));
#928=CARTESIAN_POINT('',(9.94377135002006,40.8869085072673,-29.8352664470719));
#929=CARTESIAN_POINT('',(8.94377135001906,40.8869085072673,-28.8352664470729));
#930=CARTESIAN_POINT('Origin',(9.94377135002335,31.9369081998631,-33.1352664470729));
#931=CARTESIAN_POINT('',(9.94377135002405,31.9369081998632,-33.8352664470724));
#932=CARTESIAN_POINT('',(9.94377135000976,31.9369081998628,-19.4877664470618));
#933=CARTESIAN_POINT('',(9.94377134993535,34.5369084769288,-33.8352664470747));
#934=CARTESIAN_POINT('',(9.94377135002403,49.8369088146707,-33.8352664470724));
#935=CARTESIAN_POINT('',(9.94377134993535,38.5369084769288,-33.8352664470747));
#936=CARTESIAN_POINT('Origin',(9.94377134993528,36.5369084769288,-33.8352664470747));
#937=CARTESIAN_POINT('',(9.94377134993535,43.2361096272717,-33.8352664470747));
#938=CARTESIAN_POINT('',(9.94377134993528,47.4014575774784,-33.8352664470719));
#939=CARTESIAN_POINT('',(9.94377134993535,47.2361096272717,-33.8352664470746));
#940=CARTESIAN_POINT('Origin',(9.94377134993528,45.2361096272717,-33.8352664470747));
#941=CARTESIAN_POINT('',(9.94377134993528,47.4014575774784,-33.8352664470719));
#942=CARTESIAN_POINT('Origin',(-6.03283710806522,40.8869085072664,-29.4352664470618));
#943=CARTESIAN_POINT('',(-4.78283710806522,40.8869085072664,-26.7003371913192));
#944=CARTESIAN_POINT('',(-4.78283710806522,40.8869085072665,-29.4352664470618));
#945=CARTESIAN_POINT('',(-7.28283710806522,40.8869085072664,-25.7400070733323));
#946=CARTESIAN_POINT('Ctrl Pts',(-7.28283710806522,40.8869085072664,-25.7400070733323));
#947=CARTESIAN_POINT('Ctrl Pts',(-7.28283710806522,41.0434465652035,-25.7400070733323));
#948=CARTESIAN_POINT('Ctrl Pts',(-7.25157705965696,41.2093917725411,-25.7533111089423));
#949=CARTESIAN_POINT('Ctrl Pts',(-7.12736259271804,41.5124774670702,-25.8056079417861));
#950=CARTESIAN_POINT('Ctrl Pts',(-7.03449795068836,41.6496735387354,-25.844491725211));
#951=CARTESIAN_POINT('Ctrl Pts',(-6.81612260478154,41.8746078168262,-25.9345826480677));
#952=CARTESIAN_POINT('Ctrl Pts',(-6.67281953494859,41.9739353220812,-25.9930259298693));
#953=CARTESIAN_POINT('Ctrl Pts',(-6.36037405375899,42.1050728480151,-26.1177653148309));
#954=CARTESIAN_POINT('Ctrl Pts',(-6.19121995048145,42.1369085072664,-26.1840051706696));
#955=CARTESIAN_POINT('Ctrl Pts',(-5.87608170398954,42.1369085072664,-26.3049779744384));
#956=CARTESIAN_POINT('Ctrl Pts',(-5.70770131743266,42.1056637587449,-26.3683330151782));
#957=CARTESIAN_POINT('Ctrl Pts',(-5.39565436124834,41.9755203770934,-26.4834230234893));
#958=CARTESIAN_POINT('Ctrl Pts',(-5.2520330721412,41.8765529950436,-26.5352030013187));
#959=CARTESIAN_POINT('Ctrl Pts',(-5.03226731460052,41.6513544927817,-26.6134539467334));
#960=CARTESIAN_POINT('Ctrl Pts',(-4.93876006640312,41.5134040696792,-26.6461989241886));
#961=CARTESIAN_POINT('Ctrl Pts',(-4.81401498692252,41.2093583925465,-26.6896183372467));
#962=CARTESIAN_POINT('Ctrl Pts',(-4.78283710806522,41.0432448890505,-26.7003371913192));
#963=CARTESIAN_POINT('Ctrl Pts',(-4.78283710806522,40.8869085072664,-26.7003371913192));
#964=CARTESIAN_POINT('Ctrl Pts',(-4.78283710806522,40.8869085072664,-26.7003371913192));
#965=CARTESIAN_POINT('Ctrl Pts',(-4.78283710806522,40.7279358435732,-26.7003371913192));
#966=CARTESIAN_POINT('Ctrl Pts',(-4.81506542730222,40.5592297849715,-26.6892583964321));
#967=CARTESIAN_POINT('Ctrl Pts',(-4.94365231525536,40.2512846659604,-26.6444901532987));
#968=CARTESIAN_POINT('Ctrl Pts',(-5.03995099871105,40.1120276636542,-26.6107521489074));
#969=CARTESIAN_POINT('Ctrl Pts',(-5.26227931505462,39.8896993473107,-26.5315156252945));
#970=CARTESIAN_POINT('Ctrl Pts',(-5.404511090226,39.7935478821069,-26.4801887723477));
#971=CARTESIAN_POINT('Ctrl Pts',(-5.71266237860851,39.6671875661211,-26.3664694692471));
#972=CARTESIAN_POINT('Ctrl Pts',(-5.87853766262986,39.6369085072664,-26.3040352002561));
#973=CARTESIAN_POINT('Ctrl Pts',(-6.18821748098689,39.6369085072664,-26.1851577351617));
#974=CARTESIAN_POINT('Ctrl Pts',(-6.35434675354489,39.6675589762183,-26.1201292678724));
#975=CARTESIAN_POINT('Ctrl Pts',(-6.66209979340587,39.7941092595924,-25.9973457493066));
#976=CARTESIAN_POINT('Ctrl Pts',(-6.80373301500498,39.8900374612398,-25.9396436605521));
#977=CARTESIAN_POINT('Ctrl Pts',(-7.02518016559251,40.1114846118274,-25.8483787332683));
#978=CARTESIAN_POINT('Ctrl Pts',(-7.12141585869971,40.2502503008973,-25.8081037906918));
#979=CARTESIAN_POINT('Ctrl Pts',(-7.25028929213602,40.5580506194236,-25.7538607047367));
#980=CARTESIAN_POINT('Ctrl Pts',(-7.28283710806522,40.7271430597806,-25.7400070733323));
#981=CARTESIAN_POINT('Ctrl Pts',(-7.28283710806522,40.8869085072664,-25.7400070733323));
#982=CARTESIAN_POINT('Origin',(-33.5562288001996,40.8869085072659,10.1647335529247));
#983=CARTESIAN_POINT('',(-36.0562288002014,43.2361096272715,10.1647335529247));
#984=CARTESIAN_POINT('',(-36.0562288002013,47.8361096272715,10.1647335529247));
#985=CARTESIAN_POINT('',(-36.0562288002013,47.2361096272716,10.1647335529247));
#986=CARTESIAN_POINT('Origin',(-36.0562286500143,45.2361096272716,10.1647335529247));
#987=CARTESIAN_POINT('',(-36.0562288002047,49.8369088146708,10.1647335529246));
#988=CARTESIAN_POINT('Origin',(-36.0562286500139,36.5369084769294,10.1647335529247));
#989=CARTESIAN_POINT('',(-36.0562288002014,34.5369084769294,10.1647335529247));
#990=CARTESIAN_POINT('',(-36.0562288002014,38.5369084769294,10.1647335529247));
#991=CARTESIAN_POINT('Origin',(-36.0562286500139,36.5369084769294,10.1647335529247));
#992=CARTESIAN_POINT('',(-36.0562288002014,34.5369084769294,10.1647335529247));
#993=CARTESIAN_POINT('',(-36.0562288002014,38.5369084769294,10.1647335529247));
#994=CARTESIAN_POINT('Origin',(-36.0562288002013,43.2361096272715,10.1647335529247));
#995=CARTESIAN_POINT('',(-36.0562288002047,49.8369088146708,10.1647335529246));
#996=CARTESIAN_POINT('',(-36.0562288002014,43.2361096272715,10.1647335529247));
#997=CARTESIAN_POINT('Origin',(-36.0562286500143,45.2361096272716,10.1647335529247));
#998=CARTESIAN_POINT('',(-36.0562288002013,47.2361096272716,10.1647335529247));
#999=CARTESIAN_POINT('Origin',(-36.0562288002014,49.8369088146699,10.1647335529247));
#1000=CARTESIAN_POINT('',(-36.0562288002047,49.8369088146708,10.1647335529246));
#1001=CARTESIAN_POINT('Origin',(-31.0562288001978,31.9369081998615,10.1647335529247));
#1002=CARTESIAN_POINT('',(-31.0562288002012,31.9369081998622,10.1647335529249));
#1003=CARTESIAN_POINT('',(-31.0562288001978,31.9369081998615,10.1647335529247));
#1004=CARTESIAN_POINT('',(-31.0562288002011,49.8369088146712,10.1647335529246));
#1005=CARTESIAN_POINT('Origin',(-36.0562288002014,34.5369084769294,10.1647335529247));
#1006=CARTESIAN_POINT('',(-36.0562288002013,47.8361096272715,10.1647335529247));
#1007=CARTESIAN_POINT('',(-36.0562288002014,31.9369081998617,10.1647335529247));
#1008=CARTESIAN_POINT('Origin',(-33.5562288001996,40.8869085072659,10.1647335529247));
#1009=CARTESIAN_POINT('Origin',(9.94377134993528,36.5369084769288,-33.8352664470747));
#1010=CARTESIAN_POINT('',(7.94377134993535,34.5369084769288,-33.8352664470747));
#1011=CARTESIAN_POINT('',(9.94377134993535,34.5369084769288,-33.8352664470747));
#1012=CARTESIAN_POINT('',(7.94377134993535,38.5369084769288,-33.8352664470747));
#1013=CARTESIAN_POINT('Origin',(7.94377134993528,36.5369084769288,-33.8352664470747));
#1014=CARTESIAN_POINT('',(9.94377134993535,38.5369084769288,-33.8352664470747));
#1015=CARTESIAN_POINT('Origin',(7.94377134993535,36.5369084769288,-32.5352664470761));
#1016=CARTESIAN_POINT('',(7.94377134993528,47.4014575774784,-33.8352664470719));
#1017=CARTESIAN_POINT('',(7.94377134993528,47.4014575774784,-33.8352664470719));
#1018=CARTESIAN_POINT('Origin',(9.94377134993528,45.2361096272717,-33.8352664470747));
#1019=CARTESIAN_POINT('',(7.94377134993535,43.2361096272717,-33.8352664470747));
#1020=CARTESIAN_POINT('',(9.94377134993535,43.2361096272717,-33.8352664470747));
#1021=CARTESIAN_POINT('',(7.94377134993535,47.2361096272717,-33.8352664470746));
#1022=CARTESIAN_POINT('Origin',(7.94377134993528,45.2361096272717,-33.8352664470747));
#1023=CARTESIAN_POINT('',(9.94377134993535,47.2361096272717,-33.8352664470746));
#1024=CARTESIAN_POINT('Origin',(7.94377134993528,45.2361096272717,-32.5352664470747));
#1025=CARTESIAN_POINT('',(7.94377134993528,47.4014575774784,-33.8352664470719));
#1026=CARTESIAN_POINT('',(7.94377135002403,49.8369088146707,-33.8352664470744));
#1027=CARTESIAN_POINT('Origin',(7.94377135002401,31.9369081998632,-33.8352664470744));
#1028=CARTESIAN_POINT('',(7.94377135002405,31.9369081998632,-33.8352664470744));
#1029=CARTESIAN_POINT('Origin',(7.94377135001905,49.8369088146715,-28.8352664470739));
#1030=CARTESIAN_POINT('',(7.94377119979677,31.936908199863,-28.8352664470739));
#1031=CARTESIAN_POINT('',(7.94377135001905,49.8369088146712,-28.8352664470739));
#1032=CARTESIAN_POINT('',(7.94377119979677,31.936908199863,-28.8352664470739));
#1033=CARTESIAN_POINT('Origin',(7.94377135002403,47.8361096272718,-33.8352664470744));
#1034=CARTESIAN_POINT('',(7.94377135002403,49.8369088146707,-33.8352664470744));
#1035=CARTESIAN_POINT('Origin',(7.94377135002402,39.1369084769289,-33.8352664470744));
#1036=CARTESIAN_POINT('Origin',(-14.9903229015683,31.9369081998626,-5.84026644707546));
#1037=CARTESIAN_POINT('Origin',(7.94377119979855,31.9369081998626,10.1647335529258));
#1038=CARTESIAN_POINT('Origin',(7.94377119979856,49.8369088146712,10.1647335529258));
#1039=CARTESIAN_POINT('',(-28.8958813501369,40.8869085072658,-2.63526644707469));
#1040=CARTESIAN_POINT('',(-28.4375083269026,39.6369085072658,-3.8852664470747));
#1041=CARTESIAN_POINT('Ctrl Pts',(-28.4375083269026,39.6369085072658,-3.88526644707469));
#1042=CARTESIAN_POINT('Ctrl Pts',(-28.3775096237353,39.6369085072658,-4.04062798381271));
#1043=CARTESIAN_POINT('Ctrl Pts',(-28.3120994739361,39.6675506226751,-4.20674280846952));
#1044=CARTESIAN_POINT('Ctrl Pts',(-28.1885934220261,39.7940894305497,-4.51449387740564));
#1045=CARTESIAN_POINT('Ctrl Pts',(-28.1305504755267,39.8900147197442,-4.65613961251939));
#1046=CARTESIAN_POINT('Ctrl Pts',(-28.0387595499758,40.1114571527565,-4.87758204553171));
#1047=CARTESIAN_POINT('Ctrl Pts',(-27.99825388988,40.2502026389262,-4.97381755433781));
#1048=CARTESIAN_POINT('Ctrl Pts',(-27.9436947153737,40.5580002875417,-5.1027052428538));
#1049=CARTESIAN_POINT('Ctrl Pts',(-27.9297566445599,40.7271109880247,-5.13526644707469));
#1050=CARTESIAN_POINT('Ctrl Pts',(-27.9297566445599,41.0434419493673,-5.13526644707469));
#1051=CARTESIAN_POINT('Ctrl Pts',(-27.943135686714,41.2093705177869,-5.104007728477));
#1052=CARTESIAN_POINT('Ctrl Pts',(-27.9957159533549,41.5124022505593,-4.97983013666299));
#1053=CARTESIAN_POINT('Ctrl Pts',(-28.0348073135153,41.6495616749746,-4.88700208304947));
#1054=CARTESIAN_POINT('Ctrl Pts',(-28.1254052036238,41.8745315333353,-4.6686626289465));
#1055=CARTESIAN_POINT('Ctrl Pts',(-28.1842017683581,41.9738931712969,-4.52532838059043));
#1056=CARTESIAN_POINT('Ctrl Pts',(-28.3096962403993,42.1050687761985,-4.21283400775183));
#1057=CARTESIAN_POINT('Ctrl Pts',(-28.3763378832092,42.1369085072658,-4.04366210620512));
#1058=CARTESIAN_POINT('Ctrl Pts',(-28.4980459009244,42.1369085072658,-3.72850955010976));
#1059=CARTESIAN_POINT('Ctrl Pts',(-28.5617925059089,42.1056639020405,-3.56011699510525));
#1060=CARTESIAN_POINT('Ctrl Pts',(-28.6776111421153,41.975489546127,-3.2480237845622));
#1061=CARTESIAN_POINT('Ctrl Pts',(-28.7297280567906,41.8764904807079,-3.104368703757));
#1062=CARTESIAN_POINT('Ctrl Pts',(-28.8084638569214,41.6512543777925,-2.88462941090358));
#1063=CARTESIAN_POINT('Ctrl Pts',(-28.8414070358367,41.5133352390965,-2.79115420444557));
#1064=CARTESIAN_POINT('Ctrl Pts',(-28.8850937153718,41.2093365473817,-2.66644232617058));
#1065=CARTESIAN_POINT('Ctrl Pts',(-28.8958813501369,41.0432384021684,-2.63526644707469));
#1066=CARTESIAN_POINT('Ctrl Pts',(-28.8958813501369,40.8869085072658,-2.63526644707469));
#1067=CARTESIAN_POINT('Ctrl Pts',(-28.8958813501369,40.8869085072658,-2.63526644707469));
#1068=CARTESIAN_POINT('Ctrl Pts',(-28.8958813501369,40.7279102767816,-2.63526644707469));
#1069=CARTESIAN_POINT('Ctrl Pts',(-28.8847270101073,40.5591885798096,-2.6675055981527));
#1070=CARTESIAN_POINT('Ctrl Pts',(-28.8396668076791,40.2512445413902,-2.79610478449596));
#1071=CARTESIAN_POINT('Ctrl Pts',(-28.8057126155858,40.1120039145657,-2.89240408680842));
#1072=CARTESIAN_POINT('Ctrl Pts',(-28.7259742768631,39.8896736470041,-3.11473435437001));
#1073=CARTESIAN_POINT('Ctrl Pts',(-28.6743190697167,39.793523715746,-3.25698308619547));
#1074=CARTESIAN_POINT('Ctrl Pts',(-28.5598960969621,39.6671765546866,-3.56513485226822));
#1075=CARTESIAN_POINT('Ctrl Pts',(-28.4970866779706,39.6369085072658,-3.73099337633113));
#1076=CARTESIAN_POINT('Ctrl Pts',(-28.4375083269026,39.6369085072658,-3.88526644707469));
#1077=CARTESIAN_POINT('Origin',(7.94377119979529,49.8369088146707,10.1647335529255));
#1078=CARTESIAN_POINT('Origin',(-37.9905088001887,40.8869085072658,-3.88526644707469));
#1079=CARTESIAN_POINT('',(-37.9905088001887,39.6369085072658,-3.88526644707471));
#1080=UNCERTAINTY_MEASURE_WITH_UNIT(LENGTH_MEASURE(0.01),#1084,
'DISTANCE_ACCURACY_VALUE',
'Maximum model space distance between geometric entities at asserted c
onnectivities');
#1081=UNCERTAINTY_MEASURE_WITH_UNIT(LENGTH_MEASURE(0.01),#1084,
'DISTANCE_ACCURACY_VALUE',
'Maximum model space distance between geometric entities at asserted c
onnectivities');
#1082=(
GEOMETRIC_REPRESENTATION_CONTEXT(3)
GLOBAL_UNCERTAINTY_ASSIGNED_CONTEXT((#1080))
GLOBAL_UNIT_ASSIGNED_CONTEXT((#1084,#1086,#1087))
REPRESENTATION_CONTEXT('','3D')
);
#1083=(
GEOMETRIC_REPRESENTATION_CONTEXT(3)
GLOBAL_UNCERTAINTY_ASSIGNED_CONTEXT((#1081))
GLOBAL_UNIT_ASSIGNED_CONTEXT((#1084,#1086,#1087))
REPRESENTATION_CONTEXT('','3D')
);
#1084=(
LENGTH_UNIT()
NAMED_UNIT(*)
SI_UNIT(.MILLI.,.METRE.)
);
#1085=(
LENGTH_UNIT()
NAMED_UNIT(*)
SI_UNIT($,.METRE.)
);
#1086=(
NAMED_UNIT(*)
PLANE_ANGLE_UNIT()
SI_UNIT($,.RADIAN.)
);
#1087=(
NAMED_UNIT(*)
SI_UNIT($,.STERADIAN.)
SOLID_ANGLE_UNIT()
);
#1088=SHAPE_DEFINITION_REPRESENTATION(#1089,#1090);
#1089=PRODUCT_DEFINITION_SHAPE('',$,#1092);
#1090=SHAPE_REPRESENTATION('',(#571),#1082);
#1091=PRODUCT_DEFINITION_CONTEXT('part definition',#1096,'design');
#1092=PRODUCT_DEFINITION('rope-right-angle-bottom',
'rope-right-angle-bottom',#1093,#1091);
#1093=PRODUCT_DEFINITION_FORMATION('',$,#1098);
#1094=PRODUCT_RELATED_PRODUCT_CATEGORY('rope-right-angle-bottom',
'rope-right-angle-bottom',(#1098));
#1095=APPLICATION_PROTOCOL_DEFINITION('international standard',
'automotive_design',2009,#1096);
#1096=APPLICATION_CONTEXT(
'Core Data for Automotive Mechanical Design Process');
#1097=PRODUCT_CONTEXT('part definition',#1096,'mechanical');
#1098=PRODUCT('rope-right-angle-bottom','rope-right-angle-bottom',$,(#1097));
#1099=PRESENTATION_STYLE_ASSIGNMENT((#1101));
#1100=PRESENTATION_STYLE_ASSIGNMENT((#1102));
#1101=SURFACE_STYLE_USAGE(.BOTH.,#1103);
#1102=SURFACE_STYLE_USAGE(.BOTH.,#1104);
#1103=SURFACE_SIDE_STYLE('',(#1105));
#1104=SURFACE_SIDE_STYLE('',(#1106));
#1105=SURFACE_STYLE_FILL_AREA(#1107);
#1106=SURFACE_STYLE_FILL_AREA(#1108);
#1107=FILL_AREA_STYLE('Steel - Satin',(#1109));
#1108=FILL_AREA_STYLE('ABS (White)',(#1110));
#1109=FILL_AREA_STYLE_COLOUR('Steel - Satin',#1111);
#1110=FILL_AREA_STYLE_COLOUR('ABS (White)',#1112);
#1111=COLOUR_RGB('Steel - Satin',0.627450980392157,0.627450980392157,0.627450980392157);
#1112=COLOUR_RGB('ABS (White)',0.964705882352941,0.964705882352941,0.952941176470588);
ENDSEC;
END-ISO-10303-21;
