ISO-10303-21;
HEADER;
/* Generated by software containing ST-Developer
 * from STEP Tools, Inc. (www.steptools.com) 
 */

FILE_DESCRIPTION(
/* description */ (''),
/* implementation_level */ '2;1');

FILE_NAME(
/* name */ 'arm-right.step',
/* time_stamp */ '2026-06-23T13:19:31-07:00',
/* author */ (''),
/* organization */ (''),
/* preprocessor_version */ 'ST-DEVELOPER v20.1',
/* originating_system */ 'Autodesk Translation Framework v15.8.0.0',
/* authorisation */ '');

FILE_SCHEMA (('AUTOMOTIVE_DESIGN { 1 0 10303 214 3 1 1 }'));
ENDSEC;

DATA;
#10=MECHANICAL_DESIGN_GEOMETRIC_PRESENTATION_REPRESENTATION('',(#13),#1468);
#11=SHAPE_REPRESENTATION_RELATIONSHIP('SRR','None',#1475,#12);
#12=ADVANCED_BREP_SHAPE_REPRESENTATION('',(#14),#1467);
#13=STYLED_ITEM('',(#1485),#14);
#14=MANIFOLD_SOLID_BREP('Body2',#867);
#15=CYLINDRICAL_SURFACE('',#889,1.4);
#16=CYLINDRICAL_SURFACE('',#892,1.30000000000003);
#17=CYLINDRICAL_SURFACE('',#896,1.4);
#18=CYLINDRICAL_SURFACE('',#898,1.4);
#19=CYLINDRICAL_SURFACE('',#904,12.0000000000005);
#20=CYLINDRICAL_SURFACE('',#908,1.59999999999997);
#21=CYLINDRICAL_SURFACE('',#912,1.59999999999997);
#22=CYLINDRICAL_SURFACE('',#916,2.);
#23=CYLINDRICAL_SURFACE('',#918,1.4);
#24=CYLINDRICAL_SURFACE('',#925,1.90000000000005);
#25=CYLINDRICAL_SURFACE('',#933,1.99999999999999);
#26=CYLINDRICAL_SURFACE('',#934,4.00000000000003);
#27=CYLINDRICAL_SURFACE('',#944,1.59999999999997);
#28=CYLINDRICAL_SURFACE('',#947,2.);
#29=CYLINDRICAL_SURFACE('',#950,2.);
#30=CYLINDRICAL_SURFACE('',#953,3.);
#31=CYLINDRICAL_SURFACE('',#956,3.);
#32=CYLINDRICAL_SURFACE('',#958,2.);
#33=CYLINDRICAL_SURFACE('',#960,12.);
#34=FACE_BOUND('',#134,.T.);
#35=FACE_BOUND('',#138,.T.);
#36=FACE_BOUND('',#153,.T.);
#37=FACE_BOUND('',#156,.T.);
#38=FACE_BOUND('',#159,.T.);
#39=FACE_BOUND('',#160,.T.);
#40=FACE_BOUND('',#164,.T.);
#41=FACE_BOUND('',#166,.T.);
#42=FACE_BOUND('',#176,.T.);
#43=FACE_BOUND('',#183,.T.);
#44=FACE_BOUND('',#184,.T.);
#45=FACE_BOUND('',#187,.T.);
#46=FACE_BOUND('',#188,.T.);
#47=FACE_BOUND('',#189,.T.);
#48=CIRCLE('',#883,1.5);
#49=CIRCLE('',#884,4.00000000000003);
#50=CIRCLE('',#885,2.);
#51=CIRCLE('',#886,12.0000000000005);
#52=CIRCLE('',#887,1.99999999999999);
#53=CIRCLE('',#888,1.4);
#54=CIRCLE('',#890,1.4);
#55=CIRCLE('',#891,1.4);
#56=CIRCLE('',#893,1.30000000000003);
#57=CIRCLE('',#894,1.30000000000003);
#58=CIRCLE('',#897,1.4);
#59=CIRCLE('',#899,1.4);
#60=CIRCLE('',#900,1.4);
#61=CIRCLE('',#903,1.90000000000005);
#62=CIRCLE('',#905,12.0000000000005);
#63=CIRCLE('',#909,1.59999999999997);
#64=CIRCLE('',#910,1.59999999999997);
#65=CIRCLE('',#911,1.59999999999997);
#66=CIRCLE('',#913,1.59999999999997);
#67=CIRCLE('',#914,1.59999999999997);
#68=CIRCLE('',#917,2.);
#69=CIRCLE('',#919,1.4);
#70=CIRCLE('',#920,1.4);
#71=CIRCLE('',#926,1.90000000000005);
#72=CIRCLE('',#928,2.);
#73=CIRCLE('',#929,3.);
#74=CIRCLE('',#930,3.);
#75=CIRCLE('',#931,1.99999999999999);
#76=CIRCLE('',#932,1.59999999999997);
#77=CIRCLE('',#935,4.00000000000003);
#78=CIRCLE('',#937,2.);
#79=CIRCLE('',#938,12.);
#80=CIRCLE('',#939,2.);
#81=CIRCLE('',#945,1.59999999999997);
#82=CIRCLE('',#948,2.);
#83=CIRCLE('',#951,2.);
#84=CIRCLE('',#954,3.);
#85=CIRCLE('',#957,3.);
#86=CIRCLE('',#959,2.);
#87=CIRCLE('',#961,12.);
#88=FACE_OUTER_BOUND('',#132,.T.);
#89=FACE_OUTER_BOUND('',#133,.T.);
#90=FACE_OUTER_BOUND('',#135,.T.);
#91=FACE_OUTER_BOUND('',#136,.T.);
#92=FACE_OUTER_BOUND('',#137,.T.);
#93=FACE_OUTER_BOUND('',#139,.T.);
#94=FACE_OUTER_BOUND('',#140,.T.);
#95=FACE_OUTER_BOUND('',#141,.T.);
#96=FACE_OUTER_BOUND('',#142,.T.);
#97=FACE_OUTER_BOUND('',#143,.T.);
#98=FACE_OUTER_BOUND('',#144,.T.);
#99=FACE_OUTER_BOUND('',#145,.T.);
#100=FACE_OUTER_BOUND('',#146,.T.);
#101=FACE_OUTER_BOUND('',#147,.T.);
#102=FACE_OUTER_BOUND('',#148,.T.);
#103=FACE_OUTER_BOUND('',#149,.T.);
#104=FACE_OUTER_BOUND('',#150,.T.);
#105=FACE_OUTER_BOUND('',#151,.T.);
#106=FACE_OUTER_BOUND('',#152,.T.);
#107=FACE_OUTER_BOUND('',#154,.T.);
#108=FACE_OUTER_BOUND('',#155,.T.);
#109=FACE_OUTER_BOUND('',#157,.T.);
#110=FACE_OUTER_BOUND('',#158,.T.);
#111=FACE_OUTER_BOUND('',#161,.T.);
#112=FACE_OUTER_BOUND('',#162,.T.);
#113=FACE_OUTER_BOUND('',#163,.T.);
#114=FACE_OUTER_BOUND('',#165,.T.);
#115=FACE_OUTER_BOUND('',#167,.T.);
#116=FACE_OUTER_BOUND('',#168,.T.);
#117=FACE_OUTER_BOUND('',#169,.T.);
#118=FACE_OUTER_BOUND('',#170,.T.);
#119=FACE_OUTER_BOUND('',#171,.T.);
#120=FACE_OUTER_BOUND('',#172,.T.);
#121=FACE_OUTER_BOUND('',#173,.T.);
#122=FACE_OUTER_BOUND('',#174,.T.);
#123=FACE_OUTER_BOUND('',#175,.T.);
#124=FACE_OUTER_BOUND('',#177,.T.);
#125=FACE_OUTER_BOUND('',#178,.T.);
#126=FACE_OUTER_BOUND('',#179,.T.);
#127=FACE_OUTER_BOUND('',#180,.T.);
#128=FACE_OUTER_BOUND('',#181,.T.);
#129=FACE_OUTER_BOUND('',#182,.T.);
#130=FACE_OUTER_BOUND('',#185,.T.);
#131=FACE_OUTER_BOUND('',#186,.T.);
#132=EDGE_LOOP('',(#556,#557,#558,#559));
#133=EDGE_LOOP('',(#560,#561,#562,#563,#564,#565,#566,#567,#568,#569,#570));
#134=EDGE_LOOP('',(#571));
#135=EDGE_LOOP('',(#572,#573,#574,#575));
#136=EDGE_LOOP('',(#576,#577,#578,#579));
#137=EDGE_LOOP('',(#580));
#138=EDGE_LOOP('',(#581));
#139=EDGE_LOOP('',(#582,#583,#584,#585));
#140=EDGE_LOOP('',(#586,#587,#588,#589));
#141=EDGE_LOOP('',(#590,#591,#592,#593));
#142=EDGE_LOOP('',(#594));
#143=EDGE_LOOP('',(#595,#596,#597,#598));
#144=EDGE_LOOP('',(#599,#600,#601,#602));
#145=EDGE_LOOP('',(#603,#604,#605,#606));
#146=EDGE_LOOP('',(#607,#608,#609,#610,#611));
#147=EDGE_LOOP('',(#612,#613,#614,#615,#616,#617,#618));
#148=EDGE_LOOP('',(#619,#620,#621,#622));
#149=EDGE_LOOP('',(#623,#624,#625,#626));
#150=EDGE_LOOP('',(#627,#628,#629,#630));
#151=EDGE_LOOP('',(#631,#632,#633,#634));
#152=EDGE_LOOP('',(#635,#636,#637,#638));
#153=EDGE_LOOP('',(#639));
#154=EDGE_LOOP('',(#640,#641,#642,#643));
#155=EDGE_LOOP('',(#644,#645,#646,#647));
#156=EDGE_LOOP('',(#648));
#157=EDGE_LOOP('',(#649,#650,#651,#652));
#158=EDGE_LOOP('',(#653,#654,#655,#656,#657,#658,#659,#660,#661,#662,#663));
#159=EDGE_LOOP('',(#664));
#160=EDGE_LOOP('',(#665));
#161=EDGE_LOOP('',(#666,#667,#668,#669,#670));
#162=EDGE_LOOP('',(#671,#672,#673,#674));
#163=EDGE_LOOP('',(#675,#676,#677,#678,#679,#680,#681,#682,#683,#684));
#164=EDGE_LOOP('',(#685));
#165=EDGE_LOOP('',(#686,#687,#688,#689));
#166=EDGE_LOOP('',(#690));
#167=EDGE_LOOP('',(#691,#692,#693,#694));
#168=EDGE_LOOP('',(#695,#696,#697,#698));
#169=EDGE_LOOP('',(#699,#700,#701,#702));
#170=EDGE_LOOP('',(#703,#704,#705,#706,#707,#708,#709,#710,#711,#712,#713,
#714,#715,#716,#717,#718));
#171=EDGE_LOOP('',(#719,#720,#721,#722));
#172=EDGE_LOOP('',(#723,#724,#725,#726));
#173=EDGE_LOOP('',(#727,#728,#729,#730,#731,#732,#733,#734));
#174=EDGE_LOOP('',(#735,#736,#737,#738));
#175=EDGE_LOOP('',(#739,#740,#741,#742));
#176=EDGE_LOOP('',(#743));
#177=EDGE_LOOP('',(#744,#745,#746,#747));
#178=EDGE_LOOP('',(#748,#749,#750,#751));
#179=EDGE_LOOP('',(#752,#753,#754,#755));
#180=EDGE_LOOP('',(#756,#757,#758,#759));
#181=EDGE_LOOP('',(#760,#761,#762,#763));
#182=EDGE_LOOP('',(#764,#765,#766,#767,#768,#769,#770,#771));
#183=EDGE_LOOP('',(#772));
#184=EDGE_LOOP('',(#773,#774,#775,#776));
#185=EDGE_LOOP('',(#777,#778,#779,#780));
#186=EDGE_LOOP('',(#781,#782,#783,#784,#785,#786,#787,#788,#789,#790,#791));
#187=EDGE_LOOP('',(#792));
#188=EDGE_LOOP('',(#793));
#189=EDGE_LOOP('',(#794,#795,#796,#797));
#190=LINE('',#1220,#271);
#191=LINE('',#1222,#272);
#192=LINE('',#1224,#273);
#193=LINE('',#1225,#274);
#194=LINE('',#1231,#275);
#195=LINE('',#1232,#276);
#196=LINE('',#1236,#277);
#197=LINE('',#1238,#278);
#198=LINE('',#1242,#279);
#199=LINE('',#1252,#280);
#200=LINE('',#1258,#281);
#201=LINE('',#1263,#282);
#202=LINE('',#1269,#283);
#203=LINE('',#1274,#284);
#204=LINE('',#1276,#285);
#205=LINE('',#1278,#286);
#206=LINE('',#1279,#287);
#207=LINE('',#1285,#288);
#208=LINE('',#1288,#289);
#209=LINE('',#1291,#290);
#210=LINE('',#1292,#291);
#211=LINE('',#1296,#292);
#212=LINE('',#1298,#293);
#213=LINE('',#1300,#294);
#214=LINE('',#1301,#295);
#215=LINE('',#1309,#296);
#216=LINE('',#1312,#297);
#217=LINE('',#1316,#298);
#218=LINE('',#1322,#299);
#219=LINE('',#1323,#300);
#220=LINE('',#1324,#301);
#221=LINE('',#1327,#302);
#222=LINE('',#1329,#303);
#223=LINE('',#1330,#304);
#224=LINE('',#1334,#305);
#225=LINE('',#1339,#306);
#226=LINE('',#1343,#307);
#227=LINE('',#1345,#308);
#228=LINE('',#1346,#309);
#229=LINE('',#1349,#310);
#230=LINE('',#1350,#311);
#231=LINE('',#1353,#312);
#232=LINE('',#1354,#313);
#233=LINE('',#1356,#314);
#234=LINE('',#1360,#315);
#235=LINE('',#1363,#316);
#236=LINE('',#1367,#317);
#237=LINE('',#1371,#318);
#238=LINE('',#1375,#319);
#239=LINE('',#1380,#320);
#240=LINE('',#1385,#321);
#241=LINE('',#1387,#322);
#242=LINE('',#1393,#323);
#243=LINE('',#1396,#324);
#244=LINE('',#1399,#325);
#245=LINE('',#1401,#326);
#246=LINE('',#1402,#327);
#247=LINE('',#1405,#328);
#248=LINE('',#1406,#329);
#249=LINE('',#1409,#330);
#250=LINE('',#1410,#331);
#251=LINE('',#1412,#332);
#252=LINE('',#1416,#333);
#253=LINE('',#1417,#334);
#254=LINE('',#1420,#335);
#255=LINE('',#1422,#336);
#256=LINE('',#1423,#337);
#257=LINE('',#1427,#338);
#258=LINE('',#1430,#339);
#259=LINE('',#1431,#340);
#260=LINE('',#1435,#341);
#261=LINE('',#1438,#342);
#262=LINE('',#1439,#343);
#263=LINE('',#1443,#344);
#264=LINE('',#1446,#345);
#265=LINE('',#1447,#346);
#266=LINE('',#1451,#347);
#267=LINE('',#1454,#348);
#268=LINE('',#1456,#349);
#269=LINE('',#1461,#350);
#270=LINE('',#1462,#351);
#271=VECTOR('',#969,10.);
#272=VECTOR('',#970,10.);
#273=VECTOR('',#971,10.);
#274=VECTOR('',#972,10.);
#275=VECTOR('',#977,10.);
#276=VECTOR('',#978,10.);
#277=VECTOR('',#981,10.);
#278=VECTOR('',#982,10.);
#279=VECTOR('',#985,10.);
#280=VECTOR('',#996,1.4);
#281=VECTOR('',#1003,1.30000000000003);
#282=VECTOR('',#1010,1.4);
#283=VECTOR('',#1017,1.4);
#284=VECTOR('',#1022,10.);
#285=VECTOR('',#1023,10.);
#286=VECTOR('',#1024,10.);
#287=VECTOR('',#1025,10.);
#288=VECTOR('',#1032,10.);
#289=VECTOR('',#1035,10.);
#290=VECTOR('',#1038,10.);
#291=VECTOR('',#1039,10.);
#292=VECTOR('',#1042,10.);
#293=VECTOR('',#1043,10.);
#294=VECTOR('',#1044,10.);
#295=VECTOR('',#1045,10.);
#296=VECTOR('',#1052,10.);
#297=VECTOR('',#1055,10.);
#298=VECTOR('',#1058,10.);
#299=VECTOR('',#1063,10.);
#300=VECTOR('',#1064,10.);
#301=VECTOR('',#1065,10.);
#302=VECTOR('',#1068,10.);
#303=VECTOR('',#1069,10.);
#304=VECTOR('',#1070,10.);
#305=VECTOR('',#1075,10.);
#306=VECTOR('',#1080,1.65);
#307=VECTOR('',#1085,10.);
#308=VECTOR('',#1086,10.);
#309=VECTOR('',#1087,10.);
#310=VECTOR('',#1090,10.);
#311=VECTOR('',#1091,10.);
#312=VECTOR('',#1094,10.);
#313=VECTOR('',#1095,10.);
#314=VECTOR('',#1098,10.);
#315=VECTOR('',#1103,1.90000000000005);
#316=VECTOR('',#1106,10.);
#317=VECTOR('',#1109,10.);
#318=VECTOR('',#1112,10.);
#319=VECTOR('',#1115,10.);
#320=VECTOR('',#1122,10.);
#321=VECTOR('',#1129,10.);
#322=VECTOR('',#1130,10.);
#323=VECTOR('',#1135,10.);
#324=VECTOR('',#1138,10.);
#325=VECTOR('',#1141,10.);
#326=VECTOR('',#1142,10.);
#327=VECTOR('',#1143,10.);
#328=VECTOR('',#1146,10.);
#329=VECTOR('',#1147,10.);
#330=VECTOR('',#1150,10.);
#331=VECTOR('',#1151,10.);
#332=VECTOR('',#1154,10.);
#333=VECTOR('',#1159,1.59999999999997);
#334=VECTOR('',#1160,1.59999999999997);
#335=VECTOR('',#1163,12.);
#336=VECTOR('',#1164,10.);
#337=VECTOR('',#1165,10.);
#338=VECTOR('',#1170,10.);
#339=VECTOR('',#1173,10.);
#340=VECTOR('',#1174,10.);
#341=VECTOR('',#1179,10.);
#342=VECTOR('',#1182,10.);
#343=VECTOR('',#1183,10.);
#344=VECTOR('',#1188,10.);
#345=VECTOR('',#1191,10.);
#346=VECTOR('',#1192,10.);
#347=VECTOR('',#1197,10.);
#348=VECTOR('',#1200,12.);
#349=VECTOR('',#1201,10.);
#350=VECTOR('',#1210,10.);
#351=VECTOR('',#1211,10.);
#352=VERTEX_POINT('',#1218);
#353=VERTEX_POINT('',#1219);
#354=VERTEX_POINT('',#1221);
#355=VERTEX_POINT('',#1223);
#356=VERTEX_POINT('',#1227);
#357=VERTEX_POINT('',#1228);
#358=VERTEX_POINT('',#1230);
#359=VERTEX_POINT('',#1233);
#360=VERTEX_POINT('',#1235);
#361=VERTEX_POINT('',#1237);
#362=VERTEX_POINT('',#1239);
#363=VERTEX_POINT('',#1241);
#364=VERTEX_POINT('',#1243);
#365=VERTEX_POINT('',#1246);
#366=VERTEX_POINT('',#1249);
#367=VERTEX_POINT('',#1251);
#368=VERTEX_POINT('',#1255);
#369=VERTEX_POINT('',#1257);
#370=VERTEX_POINT('',#1262);
#371=VERTEX_POINT('',#1266);
#372=VERTEX_POINT('',#1268);
#373=VERTEX_POINT('',#1272);
#374=VERTEX_POINT('',#1273);
#375=VERTEX_POINT('',#1275);
#376=VERTEX_POINT('',#1277);
#377=VERTEX_POINT('',#1281);
#378=VERTEX_POINT('',#1284);
#379=VERTEX_POINT('',#1286);
#380=VERTEX_POINT('',#1290);
#381=VERTEX_POINT('',#1294);
#382=VERTEX_POINT('',#1295);
#383=VERTEX_POINT('',#1297);
#384=VERTEX_POINT('',#1299);
#385=VERTEX_POINT('',#1303);
#386=VERTEX_POINT('',#1304);
#387=VERTEX_POINT('',#1306);
#388=VERTEX_POINT('',#1308);
#389=VERTEX_POINT('',#1310);
#390=VERTEX_POINT('',#1314);
#391=VERTEX_POINT('',#1315);
#392=VERTEX_POINT('',#1317);
#393=VERTEX_POINT('',#1319);
#394=VERTEX_POINT('',#1321);
#395=VERTEX_POINT('',#1326);
#396=VERTEX_POINT('',#1328);
#397=VERTEX_POINT('',#1332);
#398=VERTEX_POINT('',#1336);
#399=VERTEX_POINT('',#1338);
#400=VERTEX_POINT('',#1342);
#401=VERTEX_POINT('',#1344);
#402=VERTEX_POINT('',#1348);
#403=VERTEX_POINT('',#1352);
#404=VERTEX_POINT('',#1358);
#405=VERTEX_POINT('',#1362);
#406=VERTEX_POINT('',#1364);
#407=VERTEX_POINT('',#1366);
#408=VERTEX_POINT('',#1368);
#409=VERTEX_POINT('',#1370);
#410=VERTEX_POINT('',#1372);
#411=VERTEX_POINT('',#1374);
#412=VERTEX_POINT('',#1377);
#413=VERTEX_POINT('',#1384);
#414=VERTEX_POINT('',#1386);
#415=VERTEX_POINT('',#1388);
#416=VERTEX_POINT('',#1390);
#417=VERTEX_POINT('',#1392);
#418=VERTEX_POINT('',#1394);
#419=VERTEX_POINT('',#1398);
#420=VERTEX_POINT('',#1400);
#421=VERTEX_POINT('',#1404);
#422=VERTEX_POINT('',#1408);
#423=VERTEX_POINT('',#1414);
#424=VERTEX_POINT('',#1419);
#425=VERTEX_POINT('',#1421);
#426=VERTEX_POINT('',#1425);
#427=VERTEX_POINT('',#1429);
#428=VERTEX_POINT('',#1433);
#429=VERTEX_POINT('',#1437);
#430=VERTEX_POINT('',#1441);
#431=VERTEX_POINT('',#1445);
#432=VERTEX_POINT('',#1449);
#433=VERTEX_POINT('',#1453);
#434=VERTEX_POINT('',#1455);
#435=EDGE_CURVE('',#352,#353,#190,.T.);
#436=EDGE_CURVE('',#353,#354,#191,.T.);
#437=EDGE_CURVE('',#354,#355,#192,.T.);
#438=EDGE_CURVE('',#352,#355,#193,.F.);
#439=EDGE_CURVE('',#356,#357,#48,.F.);
#440=EDGE_CURVE('',#358,#356,#194,.T.);
#441=EDGE_CURVE('',#355,#358,#195,.T.);
#442=EDGE_CURVE('',#354,#359,#49,.T.);
#443=EDGE_CURVE('',#360,#359,#196,.T.);
#444=EDGE_CURVE('',#360,#361,#197,.T.);
#445=EDGE_CURVE('',#362,#361,#50,.T.);
#446=EDGE_CURVE('',#362,#363,#198,.T.);
#447=EDGE_CURVE('',#363,#364,#51,.T.);
#448=EDGE_CURVE('',#364,#357,#52,.T.);
#449=EDGE_CURVE('',#365,#365,#53,.T.);
#450=EDGE_CURVE('',#366,#366,#54,.T.);
#451=EDGE_CURVE('',#366,#367,#199,.T.);
#452=EDGE_CURVE('',#367,#367,#55,.T.);
#453=EDGE_CURVE('',#368,#368,#56,.T.);
#454=EDGE_CURVE('',#368,#369,#200,.T.);
#455=EDGE_CURVE('',#369,#369,#57,.T.);
#456=EDGE_CURVE('',#365,#370,#201,.T.);
#457=EDGE_CURVE('',#370,#370,#58,.T.);
#458=EDGE_CURVE('',#371,#371,#59,.T.);
#459=EDGE_CURVE('',#371,#372,#202,.T.);
#460=EDGE_CURVE('',#372,#372,#60,.T.);
#461=EDGE_CURVE('',#373,#374,#203,.T.);
#462=EDGE_CURVE('',#375,#373,#204,.T.);
#463=EDGE_CURVE('',#376,#375,#205,.T.);
#464=EDGE_CURVE('',#374,#376,#206,.T.);
#465=EDGE_CURVE('',#377,#377,#61,.T.);
#466=EDGE_CURVE('',#378,#363,#207,.T.);
#467=EDGE_CURVE('',#378,#379,#62,.T.);
#468=EDGE_CURVE('',#364,#379,#208,.T.);
#469=EDGE_CURVE('',#380,#362,#209,.T.);
#470=EDGE_CURVE('',#378,#380,#210,.T.);
#471=EDGE_CURVE('',#381,#382,#211,.T.);
#472=EDGE_CURVE('',#381,#383,#212,.T.);
#473=EDGE_CURVE('',#383,#384,#213,.T.);
#474=EDGE_CURVE('',#384,#382,#214,.T.);
#475=EDGE_CURVE('',#385,#386,#63,.T.);
#476=EDGE_CURVE('',#386,#387,#64,.T.);
#477=EDGE_CURVE('',#387,#388,#215,.T.);
#478=EDGE_CURVE('',#389,#388,#65,.T.);
#479=EDGE_CURVE('',#389,#385,#216,.T.);
#480=EDGE_CURVE('',#390,#391,#217,.T.);
#481=EDGE_CURVE('',#391,#392,#66,.T.);
#482=EDGE_CURVE('',#392,#393,#67,.T.);
#483=EDGE_CURVE('',#393,#394,#218,.T.);
#484=EDGE_CURVE('',#394,#389,#219,.T.);
#485=EDGE_CURVE('',#388,#390,#220,.T.);
#486=EDGE_CURVE('',#359,#395,#221,.T.);
#487=EDGE_CURVE('',#395,#396,#222,.T.);
#488=EDGE_CURVE('',#360,#396,#223,.T.);
#489=EDGE_CURVE('',#397,#380,#68,.T.);
#490=EDGE_CURVE('',#361,#397,#224,.T.);
#491=EDGE_CURVE('',#398,#398,#69,.F.);
#492=EDGE_CURVE('',#398,#399,#225,.T.);
#493=EDGE_CURVE('',#399,#399,#70,.F.);
#494=EDGE_CURVE('',#376,#400,#226,.T.);
#495=EDGE_CURVE('',#401,#400,#227,.T.);
#496=EDGE_CURVE('',#374,#401,#228,.T.);
#497=EDGE_CURVE('',#402,#401,#229,.T.);
#498=EDGE_CURVE('',#402,#373,#230,.T.);
#499=EDGE_CURVE('',#403,#402,#231,.T.);
#500=EDGE_CURVE('',#375,#403,#232,.T.);
#501=EDGE_CURVE('',#400,#403,#233,.T.);
#502=EDGE_CURVE('',#404,#404,#71,.T.);
#503=EDGE_CURVE('',#404,#377,#234,.T.);
#504=EDGE_CURVE('',#397,#405,#235,.T.);
#505=EDGE_CURVE('',#406,#405,#72,.T.);
#506=EDGE_CURVE('',#407,#406,#236,.T.);
#507=EDGE_CURVE('',#408,#407,#73,.T.);
#508=EDGE_CURVE('',#408,#409,#237,.T.);
#509=EDGE_CURVE('',#410,#409,#74,.T.);
#510=EDGE_CURVE('',#411,#410,#238,.T.);
#511=EDGE_CURVE('',#379,#411,#75,.T.);
#512=EDGE_CURVE('',#412,#412,#76,.T.);
#513=EDGE_CURVE('',#356,#411,#239,.T.);
#514=EDGE_CURVE('',#395,#353,#77,.T.);
#515=EDGE_CURVE('',#413,#352,#240,.T.);
#516=EDGE_CURVE('',#413,#414,#241,.T.);
#517=EDGE_CURVE('',#414,#415,#78,.T.);
#518=EDGE_CURVE('',#416,#415,#79,.T.);
#519=EDGE_CURVE('',#416,#417,#242,.T.);
#520=EDGE_CURVE('',#418,#417,#80,.T.);
#521=EDGE_CURVE('',#418,#396,#243,.T.);
#522=EDGE_CURVE('',#383,#419,#244,.T.);
#523=EDGE_CURVE('',#420,#381,#245,.T.);
#524=EDGE_CURVE('',#419,#420,#246,.T.);
#525=EDGE_CURVE('',#421,#384,#247,.T.);
#526=EDGE_CURVE('',#421,#419,#248,.T.);
#527=EDGE_CURVE('',#382,#422,#249,.T.);
#528=EDGE_CURVE('',#422,#421,#250,.T.);
#529=EDGE_CURVE('',#420,#422,#251,.T.);
#530=EDGE_CURVE('',#423,#423,#81,.T.);
#531=EDGE_CURVE('',#423,#392,#252,.T.);
#532=EDGE_CURVE('',#386,#412,#253,.T.);
#533=EDGE_CURVE('',#424,#416,#254,.T.);
#534=EDGE_CURVE('',#424,#425,#255,.T.);
#535=EDGE_CURVE('',#417,#425,#256,.T.);
#536=EDGE_CURVE('',#425,#426,#82,.T.);
#537=EDGE_CURVE('',#426,#418,#257,.T.);
#538=EDGE_CURVE('',#427,#426,#258,.T.);
#539=EDGE_CURVE('',#405,#427,#259,.T.);
#540=EDGE_CURVE('',#427,#428,#83,.T.);
#541=EDGE_CURVE('',#428,#406,#260,.T.);
#542=EDGE_CURVE('',#429,#428,#261,.T.);
#543=EDGE_CURVE('',#407,#429,#262,.T.);
#544=EDGE_CURVE('',#429,#430,#84,.T.);
#545=EDGE_CURVE('',#430,#408,#263,.T.);
#546=EDGE_CURVE('',#430,#431,#264,.T.);
#547=EDGE_CURVE('',#409,#431,#265,.T.);
#548=EDGE_CURVE('',#431,#432,#85,.T.);
#549=EDGE_CURVE('',#432,#410,#266,.T.);
#550=EDGE_CURVE('',#415,#433,#267,.T.);
#551=EDGE_CURVE('',#434,#414,#268,.T.);
#552=EDGE_CURVE('',#434,#433,#86,.T.);
#553=EDGE_CURVE('',#433,#424,#87,.T.);
#554=EDGE_CURVE('',#358,#413,#269,.T.);
#555=EDGE_CURVE('',#432,#434,#270,.T.);
#556=ORIENTED_EDGE('',*,*,#435,.T.);
#557=ORIENTED_EDGE('',*,*,#436,.T.);
#558=ORIENTED_EDGE('',*,*,#437,.T.);
#559=ORIENTED_EDGE('',*,*,#438,.F.);
#560=ORIENTED_EDGE('',*,*,#439,.F.);
#561=ORIENTED_EDGE('',*,*,#440,.F.);
#562=ORIENTED_EDGE('',*,*,#441,.F.);
#563=ORIENTED_EDGE('',*,*,#437,.F.);
#564=ORIENTED_EDGE('',*,*,#442,.T.);
#565=ORIENTED_EDGE('',*,*,#443,.F.);
#566=ORIENTED_EDGE('',*,*,#444,.T.);
#567=ORIENTED_EDGE('',*,*,#445,.F.);
#568=ORIENTED_EDGE('',*,*,#446,.T.);
#569=ORIENTED_EDGE('',*,*,#447,.T.);
#570=ORIENTED_EDGE('',*,*,#448,.T.);
#571=ORIENTED_EDGE('',*,*,#449,.T.);
#572=ORIENTED_EDGE('',*,*,#450,.F.);
#573=ORIENTED_EDGE('',*,*,#451,.T.);
#574=ORIENTED_EDGE('',*,*,#452,.F.);
#575=ORIENTED_EDGE('',*,*,#451,.F.);
#576=ORIENTED_EDGE('',*,*,#453,.F.);
#577=ORIENTED_EDGE('',*,*,#454,.T.);
#578=ORIENTED_EDGE('',*,*,#455,.F.);
#579=ORIENTED_EDGE('',*,*,#454,.F.);
#580=ORIENTED_EDGE('',*,*,#450,.T.);
#581=ORIENTED_EDGE('',*,*,#453,.T.);
#582=ORIENTED_EDGE('',*,*,#449,.F.);
#583=ORIENTED_EDGE('',*,*,#456,.T.);
#584=ORIENTED_EDGE('',*,*,#457,.F.);
#585=ORIENTED_EDGE('',*,*,#456,.F.);
#586=ORIENTED_EDGE('',*,*,#458,.F.);
#587=ORIENTED_EDGE('',*,*,#459,.T.);
#588=ORIENTED_EDGE('',*,*,#460,.F.);
#589=ORIENTED_EDGE('',*,*,#459,.F.);
#590=ORIENTED_EDGE('',*,*,#461,.F.);
#591=ORIENTED_EDGE('',*,*,#462,.F.);
#592=ORIENTED_EDGE('',*,*,#463,.F.);
#593=ORIENTED_EDGE('',*,*,#464,.F.);
#594=ORIENTED_EDGE('',*,*,#465,.F.);
#595=ORIENTED_EDGE('',*,*,#447,.F.);
#596=ORIENTED_EDGE('',*,*,#466,.F.);
#597=ORIENTED_EDGE('',*,*,#467,.T.);
#598=ORIENTED_EDGE('',*,*,#468,.F.);
#599=ORIENTED_EDGE('',*,*,#466,.T.);
#600=ORIENTED_EDGE('',*,*,#446,.F.);
#601=ORIENTED_EDGE('',*,*,#469,.F.);
#602=ORIENTED_EDGE('',*,*,#470,.F.);
#603=ORIENTED_EDGE('',*,*,#471,.F.);
#604=ORIENTED_EDGE('',*,*,#472,.T.);
#605=ORIENTED_EDGE('',*,*,#473,.T.);
#606=ORIENTED_EDGE('',*,*,#474,.T.);
#607=ORIENTED_EDGE('',*,*,#475,.T.);
#608=ORIENTED_EDGE('',*,*,#476,.T.);
#609=ORIENTED_EDGE('',*,*,#477,.T.);
#610=ORIENTED_EDGE('',*,*,#478,.F.);
#611=ORIENTED_EDGE('',*,*,#479,.T.);
#612=ORIENTED_EDGE('',*,*,#480,.T.);
#613=ORIENTED_EDGE('',*,*,#481,.T.);
#614=ORIENTED_EDGE('',*,*,#482,.T.);
#615=ORIENTED_EDGE('',*,*,#483,.T.);
#616=ORIENTED_EDGE('',*,*,#484,.T.);
#617=ORIENTED_EDGE('',*,*,#478,.T.);
#618=ORIENTED_EDGE('',*,*,#485,.T.);
#619=ORIENTED_EDGE('',*,*,#486,.T.);
#620=ORIENTED_EDGE('',*,*,#487,.T.);
#621=ORIENTED_EDGE('',*,*,#488,.F.);
#622=ORIENTED_EDGE('',*,*,#443,.T.);
#623=ORIENTED_EDGE('',*,*,#489,.T.);
#624=ORIENTED_EDGE('',*,*,#469,.T.);
#625=ORIENTED_EDGE('',*,*,#445,.T.);
#626=ORIENTED_EDGE('',*,*,#490,.T.);
#627=ORIENTED_EDGE('',*,*,#491,.F.);
#628=ORIENTED_EDGE('',*,*,#492,.T.);
#629=ORIENTED_EDGE('',*,*,#493,.F.);
#630=ORIENTED_EDGE('',*,*,#492,.F.);
#631=ORIENTED_EDGE('',*,*,#464,.T.);
#632=ORIENTED_EDGE('',*,*,#494,.T.);
#633=ORIENTED_EDGE('',*,*,#495,.F.);
#634=ORIENTED_EDGE('',*,*,#496,.F.);
#635=ORIENTED_EDGE('',*,*,#461,.T.);
#636=ORIENTED_EDGE('',*,*,#496,.T.);
#637=ORIENTED_EDGE('',*,*,#497,.F.);
#638=ORIENTED_EDGE('',*,*,#498,.T.);
#639=ORIENTED_EDGE('',*,*,#457,.T.);
#640=ORIENTED_EDGE('',*,*,#462,.T.);
#641=ORIENTED_EDGE('',*,*,#498,.F.);
#642=ORIENTED_EDGE('',*,*,#499,.F.);
#643=ORIENTED_EDGE('',*,*,#500,.F.);
#644=ORIENTED_EDGE('',*,*,#463,.T.);
#645=ORIENTED_EDGE('',*,*,#500,.T.);
#646=ORIENTED_EDGE('',*,*,#501,.F.);
#647=ORIENTED_EDGE('',*,*,#494,.F.);
#648=ORIENTED_EDGE('',*,*,#455,.T.);
#649=ORIENTED_EDGE('',*,*,#502,.F.);
#650=ORIENTED_EDGE('',*,*,#503,.T.);
#651=ORIENTED_EDGE('',*,*,#465,.T.);
#652=ORIENTED_EDGE('',*,*,#503,.F.);
#653=ORIENTED_EDGE('',*,*,#467,.F.);
#654=ORIENTED_EDGE('',*,*,#470,.T.);
#655=ORIENTED_EDGE('',*,*,#489,.F.);
#656=ORIENTED_EDGE('',*,*,#504,.T.);
#657=ORIENTED_EDGE('',*,*,#505,.F.);
#658=ORIENTED_EDGE('',*,*,#506,.F.);
#659=ORIENTED_EDGE('',*,*,#507,.F.);
#660=ORIENTED_EDGE('',*,*,#508,.T.);
#661=ORIENTED_EDGE('',*,*,#509,.F.);
#662=ORIENTED_EDGE('',*,*,#510,.F.);
#663=ORIENTED_EDGE('',*,*,#511,.F.);
#664=ORIENTED_EDGE('',*,*,#452,.T.);
#665=ORIENTED_EDGE('',*,*,#512,.F.);
#666=ORIENTED_EDGE('',*,*,#439,.T.);
#667=ORIENTED_EDGE('',*,*,#448,.F.);
#668=ORIENTED_EDGE('',*,*,#468,.T.);
#669=ORIENTED_EDGE('',*,*,#511,.T.);
#670=ORIENTED_EDGE('',*,*,#513,.F.);
#671=ORIENTED_EDGE('',*,*,#514,.F.);
#672=ORIENTED_EDGE('',*,*,#486,.F.);
#673=ORIENTED_EDGE('',*,*,#442,.F.);
#674=ORIENTED_EDGE('',*,*,#436,.F.);
#675=ORIENTED_EDGE('',*,*,#514,.T.);
#676=ORIENTED_EDGE('',*,*,#435,.F.);
#677=ORIENTED_EDGE('',*,*,#515,.F.);
#678=ORIENTED_EDGE('',*,*,#516,.T.);
#679=ORIENTED_EDGE('',*,*,#517,.T.);
#680=ORIENTED_EDGE('',*,*,#518,.F.);
#681=ORIENTED_EDGE('',*,*,#519,.T.);
#682=ORIENTED_EDGE('',*,*,#520,.F.);
#683=ORIENTED_EDGE('',*,*,#521,.T.);
#684=ORIENTED_EDGE('',*,*,#487,.F.);
#685=ORIENTED_EDGE('',*,*,#460,.T.);
#686=ORIENTED_EDGE('',*,*,#522,.F.);
#687=ORIENTED_EDGE('',*,*,#472,.F.);
#688=ORIENTED_EDGE('',*,*,#523,.F.);
#689=ORIENTED_EDGE('',*,*,#524,.F.);
#690=ORIENTED_EDGE('',*,*,#491,.T.);
#691=ORIENTED_EDGE('',*,*,#525,.T.);
#692=ORIENTED_EDGE('',*,*,#473,.F.);
#693=ORIENTED_EDGE('',*,*,#522,.T.);
#694=ORIENTED_EDGE('',*,*,#526,.F.);
#695=ORIENTED_EDGE('',*,*,#527,.F.);
#696=ORIENTED_EDGE('',*,*,#474,.F.);
#697=ORIENTED_EDGE('',*,*,#525,.F.);
#698=ORIENTED_EDGE('',*,*,#528,.F.);
#699=ORIENTED_EDGE('',*,*,#523,.T.);
#700=ORIENTED_EDGE('',*,*,#471,.T.);
#701=ORIENTED_EDGE('',*,*,#527,.T.);
#702=ORIENTED_EDGE('',*,*,#529,.F.);
#703=ORIENTED_EDGE('',*,*,#530,.F.);
#704=ORIENTED_EDGE('',*,*,#531,.T.);
#705=ORIENTED_EDGE('',*,*,#481,.F.);
#706=ORIENTED_EDGE('',*,*,#480,.F.);
#707=ORIENTED_EDGE('',*,*,#485,.F.);
#708=ORIENTED_EDGE('',*,*,#477,.F.);
#709=ORIENTED_EDGE('',*,*,#476,.F.);
#710=ORIENTED_EDGE('',*,*,#532,.T.);
#711=ORIENTED_EDGE('',*,*,#512,.T.);
#712=ORIENTED_EDGE('',*,*,#532,.F.);
#713=ORIENTED_EDGE('',*,*,#475,.F.);
#714=ORIENTED_EDGE('',*,*,#479,.F.);
#715=ORIENTED_EDGE('',*,*,#484,.F.);
#716=ORIENTED_EDGE('',*,*,#483,.F.);
#717=ORIENTED_EDGE('',*,*,#482,.F.);
#718=ORIENTED_EDGE('',*,*,#531,.F.);
#719=ORIENTED_EDGE('',*,*,#533,.F.);
#720=ORIENTED_EDGE('',*,*,#534,.T.);
#721=ORIENTED_EDGE('',*,*,#535,.F.);
#722=ORIENTED_EDGE('',*,*,#519,.F.);
#723=ORIENTED_EDGE('',*,*,#536,.T.);
#724=ORIENTED_EDGE('',*,*,#537,.T.);
#725=ORIENTED_EDGE('',*,*,#520,.T.);
#726=ORIENTED_EDGE('',*,*,#535,.T.);
#727=ORIENTED_EDGE('',*,*,#490,.F.);
#728=ORIENTED_EDGE('',*,*,#444,.F.);
#729=ORIENTED_EDGE('',*,*,#488,.T.);
#730=ORIENTED_EDGE('',*,*,#521,.F.);
#731=ORIENTED_EDGE('',*,*,#537,.F.);
#732=ORIENTED_EDGE('',*,*,#538,.F.);
#733=ORIENTED_EDGE('',*,*,#539,.F.);
#734=ORIENTED_EDGE('',*,*,#504,.F.);
#735=ORIENTED_EDGE('',*,*,#540,.T.);
#736=ORIENTED_EDGE('',*,*,#541,.T.);
#737=ORIENTED_EDGE('',*,*,#505,.T.);
#738=ORIENTED_EDGE('',*,*,#539,.T.);
#739=ORIENTED_EDGE('',*,*,#541,.F.);
#740=ORIENTED_EDGE('',*,*,#542,.F.);
#741=ORIENTED_EDGE('',*,*,#543,.F.);
#742=ORIENTED_EDGE('',*,*,#506,.T.);
#743=ORIENTED_EDGE('',*,*,#493,.T.);
#744=ORIENTED_EDGE('',*,*,#544,.T.);
#745=ORIENTED_EDGE('',*,*,#545,.T.);
#746=ORIENTED_EDGE('',*,*,#507,.T.);
#747=ORIENTED_EDGE('',*,*,#543,.T.);
#748=ORIENTED_EDGE('',*,*,#545,.F.);
#749=ORIENTED_EDGE('',*,*,#546,.T.);
#750=ORIENTED_EDGE('',*,*,#547,.F.);
#751=ORIENTED_EDGE('',*,*,#508,.F.);
#752=ORIENTED_EDGE('',*,*,#509,.T.);
#753=ORIENTED_EDGE('',*,*,#547,.T.);
#754=ORIENTED_EDGE('',*,*,#548,.T.);
#755=ORIENTED_EDGE('',*,*,#549,.T.);
#756=ORIENTED_EDGE('',*,*,#550,.F.);
#757=ORIENTED_EDGE('',*,*,#517,.F.);
#758=ORIENTED_EDGE('',*,*,#551,.F.);
#759=ORIENTED_EDGE('',*,*,#552,.T.);
#760=ORIENTED_EDGE('',*,*,#518,.T.);
#761=ORIENTED_EDGE('',*,*,#550,.T.);
#762=ORIENTED_EDGE('',*,*,#553,.T.);
#763=ORIENTED_EDGE('',*,*,#533,.T.);
#764=ORIENTED_EDGE('',*,*,#516,.F.);
#765=ORIENTED_EDGE('',*,*,#554,.F.);
#766=ORIENTED_EDGE('',*,*,#440,.T.);
#767=ORIENTED_EDGE('',*,*,#513,.T.);
#768=ORIENTED_EDGE('',*,*,#510,.T.);
#769=ORIENTED_EDGE('',*,*,#549,.F.);
#770=ORIENTED_EDGE('',*,*,#555,.T.);
#771=ORIENTED_EDGE('',*,*,#551,.T.);
#772=ORIENTED_EDGE('',*,*,#502,.T.);
#773=ORIENTED_EDGE('',*,*,#501,.T.);
#774=ORIENTED_EDGE('',*,*,#499,.T.);
#775=ORIENTED_EDGE('',*,*,#497,.T.);
#776=ORIENTED_EDGE('',*,*,#495,.T.);
#777=ORIENTED_EDGE('',*,*,#441,.T.);
#778=ORIENTED_EDGE('',*,*,#554,.T.);
#779=ORIENTED_EDGE('',*,*,#515,.T.);
#780=ORIENTED_EDGE('',*,*,#438,.T.);
#781=ORIENTED_EDGE('',*,*,#553,.F.);
#782=ORIENTED_EDGE('',*,*,#552,.F.);
#783=ORIENTED_EDGE('',*,*,#555,.F.);
#784=ORIENTED_EDGE('',*,*,#548,.F.);
#785=ORIENTED_EDGE('',*,*,#546,.F.);
#786=ORIENTED_EDGE('',*,*,#544,.F.);
#787=ORIENTED_EDGE('',*,*,#542,.T.);
#788=ORIENTED_EDGE('',*,*,#540,.F.);
#789=ORIENTED_EDGE('',*,*,#538,.T.);
#790=ORIENTED_EDGE('',*,*,#536,.F.);
#791=ORIENTED_EDGE('',*,*,#534,.F.);
#792=ORIENTED_EDGE('',*,*,#458,.T.);
#793=ORIENTED_EDGE('',*,*,#530,.T.);
#794=ORIENTED_EDGE('',*,*,#529,.T.);
#795=ORIENTED_EDGE('',*,*,#528,.T.);
#796=ORIENTED_EDGE('',*,*,#526,.T.);
#797=ORIENTED_EDGE('',*,*,#524,.T.);
#798=PLANE('',#881);
#799=PLANE('',#882);
#800=PLANE('',#895);
#801=PLANE('',#901);
#802=PLANE('',#902);
#803=PLANE('',#906);
#804=PLANE('',#907);
#805=PLANE('',#915);
#806=PLANE('',#921);
#807=PLANE('',#922);
#808=PLANE('',#923);
#809=PLANE('',#924);
#810=PLANE('',#927);
#811=PLANE('',#936);
#812=PLANE('',#940);
#813=PLANE('',#941);
#814=PLANE('',#942);
#815=PLANE('',#943);
#816=PLANE('',#946);
#817=PLANE('',#949);
#818=PLANE('',#952);
#819=PLANE('',#955);
#820=PLANE('',#962);
#821=PLANE('',#963);
#822=PLANE('',#964);
#823=ADVANCED_FACE('',(#88),#798,.F.);
#824=ADVANCED_FACE('',(#89,#34),#799,.F.);
#825=ADVANCED_FACE('',(#90),#15,.T.);
#826=ADVANCED_FACE('',(#91),#16,.F.);
#827=ADVANCED_FACE('',(#92,#35),#800,.F.);
#828=ADVANCED_FACE('',(#93),#17,.F.);
#829=ADVANCED_FACE('',(#94),#18,.F.);
#830=ADVANCED_FACE('',(#95),#801,.T.);
#831=ADVANCED_FACE('',(#96),#802,.F.);
#832=ADVANCED_FACE('',(#97),#19,.T.);
#833=ADVANCED_FACE('',(#98),#803,.T.);
#834=ADVANCED_FACE('',(#99),#804,.T.);
#835=ADVANCED_FACE('',(#100),#20,.F.);
#836=ADVANCED_FACE('',(#101),#21,.F.);
#837=ADVANCED_FACE('',(#102),#805,.F.);
#838=ADVANCED_FACE('',(#103),#22,.T.);
#839=ADVANCED_FACE('',(#104),#23,.F.);
#840=ADVANCED_FACE('',(#105),#806,.F.);
#841=ADVANCED_FACE('',(#106,#36),#807,.F.);
#842=ADVANCED_FACE('',(#107),#808,.F.);
#843=ADVANCED_FACE('',(#108,#37),#809,.T.);
#844=ADVANCED_FACE('',(#109),#24,.F.);
#845=ADVANCED_FACE('',(#110,#38,#39),#810,.F.);
#846=ADVANCED_FACE('',(#111),#25,.F.);
#847=ADVANCED_FACE('',(#112),#26,.T.);
#848=ADVANCED_FACE('',(#113,#40),#811,.T.);
#849=ADVANCED_FACE('',(#114,#41),#812,.F.);
#850=ADVANCED_FACE('',(#115),#813,.F.);
#851=ADVANCED_FACE('',(#116),#814,.F.);
#852=ADVANCED_FACE('',(#117),#815,.F.);
#853=ADVANCED_FACE('',(#118),#27,.F.);
#854=ADVANCED_FACE('',(#119),#816,.T.);
#855=ADVANCED_FACE('',(#120),#28,.T.);
#856=ADVANCED_FACE('',(#121),#817,.F.);
#857=ADVANCED_FACE('',(#122),#29,.T.);
#858=ADVANCED_FACE('',(#123,#42),#818,.T.);
#859=ADVANCED_FACE('',(#124),#30,.T.);
#860=ADVANCED_FACE('',(#125),#819,.T.);
#861=ADVANCED_FACE('',(#126),#31,.T.);
#862=ADVANCED_FACE('',(#127),#32,.F.);
#863=ADVANCED_FACE('',(#128),#33,.T.);
#864=ADVANCED_FACE('',(#129,#43,#44),#820,.F.);
#865=ADVANCED_FACE('',(#130),#821,.T.);
#866=ADVANCED_FACE('',(#131,#45,#46,#47),#822,.F.);
#867=CLOSED_SHELL('',(#823,#824,#825,#826,#827,#828,#829,#830,#831,#832,
#833,#834,#835,#836,#837,#838,#839,#840,#841,#842,#843,#844,#845,#846,#847,
#848,#849,#850,#851,#852,#853,#854,#855,#856,#857,#858,#859,#860,#861,#862,
#863,#864,#865,#866));
#868=DERIVED_UNIT_ELEMENT(#870,1.);
#869=DERIVED_UNIT_ELEMENT(#1470,-3.);
#870=(
MASS_UNIT()
NAMED_UNIT(*)
SI_UNIT(.KILO.,.GRAM.)
);
#871=DERIVED_UNIT((#868,#869));
#872=MEASURE_REPRESENTATION_ITEM('density measure',
POSITIVE_RATIO_MEASURE(7850.),#871);
#873=PROPERTY_DEFINITION_REPRESENTATION(#878,#875);
#874=PROPERTY_DEFINITION_REPRESENTATION(#879,#876);
#875=REPRESENTATION('material name',(#877),#1467);
#876=REPRESENTATION('density',(#872),#1467);
#877=DESCRIPTIVE_REPRESENTATION_ITEM('Steel','Steel');
#878=PROPERTY_DEFINITION('material property','material name',#1477);
#879=PROPERTY_DEFINITION('material property','density of part',#1477);
#880=AXIS2_PLACEMENT_3D('',#1216,#965,#966);
#881=AXIS2_PLACEMENT_3D('',#1217,#967,#968);
#882=AXIS2_PLACEMENT_3D('',#1226,#973,#974);
#883=AXIS2_PLACEMENT_3D('',#1229,#975,#976);
#884=AXIS2_PLACEMENT_3D('',#1234,#979,#980);
#885=AXIS2_PLACEMENT_3D('',#1240,#983,#984);
#886=AXIS2_PLACEMENT_3D('',#1244,#986,#987);
#887=AXIS2_PLACEMENT_3D('',#1245,#988,#989);
#888=AXIS2_PLACEMENT_3D('',#1247,#990,#991);
#889=AXIS2_PLACEMENT_3D('',#1248,#992,#993);
#890=AXIS2_PLACEMENT_3D('',#1250,#994,#995);
#891=AXIS2_PLACEMENT_3D('',#1253,#997,#998);
#892=AXIS2_PLACEMENT_3D('',#1254,#999,#1000);
#893=AXIS2_PLACEMENT_3D('',#1256,#1001,#1002);
#894=AXIS2_PLACEMENT_3D('',#1259,#1004,#1005);
#895=AXIS2_PLACEMENT_3D('',#1260,#1006,#1007);
#896=AXIS2_PLACEMENT_3D('',#1261,#1008,#1009);
#897=AXIS2_PLACEMENT_3D('',#1264,#1011,#1012);
#898=AXIS2_PLACEMENT_3D('',#1265,#1013,#1014);
#899=AXIS2_PLACEMENT_3D('',#1267,#1015,#1016);
#900=AXIS2_PLACEMENT_3D('',#1270,#1018,#1019);
#901=AXIS2_PLACEMENT_3D('',#1271,#1020,#1021);
#902=AXIS2_PLACEMENT_3D('',#1280,#1026,#1027);
#903=AXIS2_PLACEMENT_3D('',#1282,#1028,#1029);
#904=AXIS2_PLACEMENT_3D('',#1283,#1030,#1031);
#905=AXIS2_PLACEMENT_3D('',#1287,#1033,#1034);
#906=AXIS2_PLACEMENT_3D('',#1289,#1036,#1037);
#907=AXIS2_PLACEMENT_3D('',#1293,#1040,#1041);
#908=AXIS2_PLACEMENT_3D('',#1302,#1046,#1047);
#909=AXIS2_PLACEMENT_3D('',#1305,#1048,#1049);
#910=AXIS2_PLACEMENT_3D('',#1307,#1050,#1051);
#911=AXIS2_PLACEMENT_3D('',#1311,#1053,#1054);
#912=AXIS2_PLACEMENT_3D('',#1313,#1056,#1057);
#913=AXIS2_PLACEMENT_3D('',#1318,#1059,#1060);
#914=AXIS2_PLACEMENT_3D('',#1320,#1061,#1062);
#915=AXIS2_PLACEMENT_3D('',#1325,#1066,#1067);
#916=AXIS2_PLACEMENT_3D('',#1331,#1071,#1072);
#917=AXIS2_PLACEMENT_3D('',#1333,#1073,#1074);
#918=AXIS2_PLACEMENT_3D('',#1335,#1076,#1077);
#919=AXIS2_PLACEMENT_3D('',#1337,#1078,#1079);
#920=AXIS2_PLACEMENT_3D('',#1340,#1081,#1082);
#921=AXIS2_PLACEMENT_3D('',#1341,#1083,#1084);
#922=AXIS2_PLACEMENT_3D('',#1347,#1088,#1089);
#923=AXIS2_PLACEMENT_3D('',#1351,#1092,#1093);
#924=AXIS2_PLACEMENT_3D('',#1355,#1096,#1097);
#925=AXIS2_PLACEMENT_3D('',#1357,#1099,#1100);
#926=AXIS2_PLACEMENT_3D('',#1359,#1101,#1102);
#927=AXIS2_PLACEMENT_3D('',#1361,#1104,#1105);
#928=AXIS2_PLACEMENT_3D('',#1365,#1107,#1108);
#929=AXIS2_PLACEMENT_3D('',#1369,#1110,#1111);
#930=AXIS2_PLACEMENT_3D('',#1373,#1113,#1114);
#931=AXIS2_PLACEMENT_3D('',#1376,#1116,#1117);
#932=AXIS2_PLACEMENT_3D('',#1378,#1118,#1119);
#933=AXIS2_PLACEMENT_3D('',#1379,#1120,#1121);
#934=AXIS2_PLACEMENT_3D('',#1381,#1123,#1124);
#935=AXIS2_PLACEMENT_3D('',#1382,#1125,#1126);
#936=AXIS2_PLACEMENT_3D('',#1383,#1127,#1128);
#937=AXIS2_PLACEMENT_3D('',#1389,#1131,#1132);
#938=AXIS2_PLACEMENT_3D('',#1391,#1133,#1134);
#939=AXIS2_PLACEMENT_3D('',#1395,#1136,#1137);
#940=AXIS2_PLACEMENT_3D('',#1397,#1139,#1140);
#941=AXIS2_PLACEMENT_3D('',#1403,#1144,#1145);
#942=AXIS2_PLACEMENT_3D('',#1407,#1148,#1149);
#943=AXIS2_PLACEMENT_3D('',#1411,#1152,#1153);
#944=AXIS2_PLACEMENT_3D('',#1413,#1155,#1156);
#945=AXIS2_PLACEMENT_3D('',#1415,#1157,#1158);
#946=AXIS2_PLACEMENT_3D('',#1418,#1161,#1162);
#947=AXIS2_PLACEMENT_3D('',#1424,#1166,#1167);
#948=AXIS2_PLACEMENT_3D('',#1426,#1168,#1169);
#949=AXIS2_PLACEMENT_3D('',#1428,#1171,#1172);
#950=AXIS2_PLACEMENT_3D('',#1432,#1175,#1176);
#951=AXIS2_PLACEMENT_3D('',#1434,#1177,#1178);
#952=AXIS2_PLACEMENT_3D('',#1436,#1180,#1181);
#953=AXIS2_PLACEMENT_3D('',#1440,#1184,#1185);
#954=AXIS2_PLACEMENT_3D('',#1442,#1186,#1187);
#955=AXIS2_PLACEMENT_3D('',#1444,#1189,#1190);
#956=AXIS2_PLACEMENT_3D('',#1448,#1193,#1194);
#957=AXIS2_PLACEMENT_3D('',#1450,#1195,#1196);
#958=AXIS2_PLACEMENT_3D('',#1452,#1198,#1199);
#959=AXIS2_PLACEMENT_3D('',#1457,#1202,#1203);
#960=AXIS2_PLACEMENT_3D('',#1458,#1204,#1205);
#961=AXIS2_PLACEMENT_3D('',#1459,#1206,#1207);
#962=AXIS2_PLACEMENT_3D('',#1460,#1208,#1209);
#963=AXIS2_PLACEMENT_3D('',#1463,#1212,#1213);
#964=AXIS2_PLACEMENT_3D('',#1464,#1214,#1215);
#965=DIRECTION('axis',(0.,0.,1.));
#966=DIRECTION('refdir',(1.,0.,0.));
#967=DIRECTION('center_axis',(2.52435489670685E-29,2.07012336251833E-13,
1.));
#968=DIRECTION('ref_axis',(6.50521293450681E-18,1.,-2.07012336251833E-13));
#969=DIRECTION('',(9.79608551141113E-15,1.,-2.07012336251833E-13));
#970=DIRECTION('',(1.,0.,0.));
#971=DIRECTION('',(-1.29139017412554E-29,-1.,2.07012336251833E-13));
#972=DIRECTION('',(-1.,-6.28428114199801E-14,1.30344807576505E-26));
#973=DIRECTION('center_axis',(1.,-1.40851338958105E-14,6.13132611855691E-14));
#974=DIRECTION('ref_axis',(-1.40851338958133E-14,-1.,4.68395492316249E-14));
#975=DIRECTION('center_axis',(7.78169341898305E-14,-1.80725874298449E-27,
1.));
#976=DIRECTION('ref_axis',(-0.885061203158512,-0.465474668122344,0.));
#977=DIRECTION('',(1.4432899320127E-14,1.,0.));
#978=DIRECTION('',(3.33953290693296E-14,-0.707106781186549,-0.707106781186546));
#979=DIRECTION('center_axis',(1.,-6.50454334345085E-18,6.23822810518186E-17));
#980=DIRECTION('ref_axis',(0.,-2.86160029213898E-14,1.));
#981=DIRECTION('',(-6.50454334346376E-18,-1.,2.07012336251833E-13));
#982=DIRECTION('',(6.23822810518944E-17,-2.89645825786502E-13,-1.));
#983=DIRECTION('center_axis',(1.,-6.50454334345085E-18,6.23822810518186E-17));
#984=DIRECTION('ref_axis',(7.85046229341854E-15,0.707106781186518,-0.707106781186577));
#985=DIRECTION('',(-6.50454334344454E-18,-1.,1.8705775851843E-14));
#986=DIRECTION('center_axis',(-1.,6.50454334345085E-18,-6.23822810518186E-17));
#987=DIRECTION('ref_axis',(0.,-6.9111338666137E-15,-1.));
#988=DIRECTION('center_axis',(1.,-6.50454334345085E-18,6.23822810518186E-17));
#989=DIRECTION('ref_axis',(0.,-2.86160029213898E-14,1.));
#990=DIRECTION('center_axis',(1.,-1.40851338958105E-14,6.13132611855691E-14));
#991=DIRECTION('ref_axis',(0.,-2.86160029213898E-14,1.));
#992=DIRECTION('center_axis',(1.,0.,0.));
#993=DIRECTION('ref_axis',(0.,-2.86160029213898E-14,1.));
#994=DIRECTION('center_axis',(1.,-6.50454380025811E-18,6.23822802386987E-17));
#995=DIRECTION('ref_axis',(-6.23822802386826E-17,-2.86160029213898E-14,
1.));
#996=DIRECTION('',(-1.,0.,0.));
#997=DIRECTION('center_axis',(-1.,9.24157264340139E-15,-3.86164530304403E-16));
#998=DIRECTION('ref_axis',(0.,-2.86160029213898E-14,1.));
#999=DIRECTION('center_axis',(1.,0.,0.));
#1000=DIRECTION('ref_axis',(0.,-2.86160029213898E-14,1.));
#1001=DIRECTION('center_axis',(-1.,6.50454380028335E-18,-6.23822802386734E-17));
#1002=DIRECTION('ref_axis',(-6.23822802386674E-17,-2.86160029213898E-14,
1.));
#1003=DIRECTION('',(-1.,0.,0.));
#1004=DIRECTION('center_axis',(1.,-6.50454380028335E-18,6.23822802386734E-17));
#1005=DIRECTION('ref_axis',(-6.23822802386674E-17,-2.86160029213898E-14,
1.));
#1006=DIRECTION('center_axis',(-1.,6.50454380025811E-18,-6.23822802386987E-17));
#1007=DIRECTION('ref_axis',(-6.23822802386987E-17,-2.86160029213898E-14,
1.));
#1008=DIRECTION('center_axis',(1.,0.,0.));
#1009=DIRECTION('ref_axis',(0.,-2.86160029213898E-14,1.));
#1010=DIRECTION('',(1.,0.,0.));
#1011=DIRECTION('center_axis',(-1.,9.24157264387764E-15,-5.55111508186773E-17));
#1012=DIRECTION('ref_axis',(0.,-2.86160029213898E-14,1.));
#1013=DIRECTION('center_axis',(1.,-6.50454380028966E-18,6.2382280238623E-17));
#1014=DIRECTION('ref_axis',(-6.23822802386374E-17,-2.86160029213898E-14,
1.));
#1015=DIRECTION('center_axis',(1.,-9.24157264340542E-15,6.12022388831143E-14));
#1016=DIRECTION('ref_axis',(-6.23822802386374E-17,-2.86160029213898E-14,
1.));
#1017=DIRECTION('',(1.,-6.50454380028966E-18,6.2382280238623E-17));
#1018=DIRECTION('center_axis',(-1.,9.24157264387749E-15,-6.13132611855689E-14));
#1019=DIRECTION('ref_axis',(-6.23822802386374E-17,-2.86160029213898E-14,
1.));
#1020=DIRECTION('center_axis',(0.,0.,-1.));
#1021=DIRECTION('ref_axis',(-1.,0.,0.));
#1022=DIRECTION('',(-9.24157264387764E-15,-1.,-1.69858654380549E-41));
#1023=DIRECTION('',(-1.,3.86588806285076E-14,0.));
#1024=DIRECTION('',(9.24157264411369E-15,1.,1.69858654380489E-41));
#1025=DIRECTION('',(1.,-3.86588806285076E-14,0.));
#1026=DIRECTION('center_axis',(3.15544362088405E-27,1.51494030547401E-30,
1.));
#1027=DIRECTION('ref_axis',(1.,-4.00796944493954E-14,-3.15544362088405E-27));
#1028=DIRECTION('center_axis',(3.20593071881819E-27,-4.75795051549538E-31,
1.));
#1029=DIRECTION('ref_axis',(-1.,-2.84669282358448E-10,-2.21959454892661E-11));
#1030=DIRECTION('center_axis',(1.,0.,0.));
#1031=DIRECTION('ref_axis',(0.,-6.9111338666137E-15,-1.));
#1032=DIRECTION('',(-1.,0.,0.));
#1033=DIRECTION('center_axis',(-1.,9.24157264340139E-15,-3.86164530304403E-16));
#1034=DIRECTION('ref_axis',(0.,-6.9111338666137E-15,-1.));
#1035=DIRECTION('',(1.,0.,0.));
#1036=DIRECTION('center_axis',(0.,0.,-1.));
#1037=DIRECTION('ref_axis',(-1.,0.,0.));
#1038=DIRECTION('',(-1.,9.9066054505014E-15,0.));
#1039=DIRECTION('',(4.00796944493954E-14,1.,-1.51609205221444E-30));
#1040=DIRECTION('center_axis',(-1.,3.86588806285076E-14,-5.71861856045886E-14));
#1041=DIRECTION('ref_axis',(-5.71861856045886E-14,3.45416128366643E-27,
1.));
#1042=DIRECTION('',(5.71861856045886E-14,1.0512655307666E-25,-1.));
#1043=DIRECTION('',(3.86588806285077E-14,1.,-2.35693667384634E-16));
#1044=DIRECTION('',(6.02692499082225E-14,1.99073535702317E-30,-1.));
#1045=DIRECTION('',(-3.86588806285076E-14,-1.,1.28378349844238E-27));
#1046=DIRECTION('center_axis',(-1.,2.22044604925031E-14,0.));
#1047=DIRECTION('ref_axis',(-4.95032033360898E-27,-2.22876463381439E-13,
-1.));
#1048=DIRECTION('center_axis',(1.,-1.40851338958105E-14,6.13132611855691E-14));
#1049=DIRECTION('ref_axis',(-6.13132611855881E-14,6.61447166231737E-17,
1.));
#1050=DIRECTION('center_axis',(1.,-1.40851338958105E-14,6.13132611855691E-14));
#1051=DIRECTION('ref_axis',(-6.13132611855881E-14,6.61447166231737E-17,
1.));
#1052=DIRECTION('',(-1.,-2.09610760120441E-10,-2.08983157575347E-14));
#1053=DIRECTION('center_axis',(1.,-1.40851338958105E-14,6.13132611855691E-14));
#1054=DIRECTION('ref_axis',(-6.13132611855881E-14,6.61447166231737E-17,
1.));
#1055=DIRECTION('',(1.,-2.09600964034929E-10,2.08983157575347E-14));
#1056=DIRECTION('center_axis',(1.,-1.11022302462516E-14,0.));
#1057=DIRECTION('ref_axis',(-2.32724874707557E-27,-2.09553787085937E-13,
-1.));
#1058=DIRECTION('',(-1.,-2.09610760120441E-10,-2.08983157575347E-14));
#1059=DIRECTION('center_axis',(-1.,9.24157264387749E-15,-6.13132611855689E-14));
#1060=DIRECTION('ref_axis',(-6.13132611855881E-14,6.61447166231737E-17,
1.));
#1061=DIRECTION('center_axis',(-1.,9.24157264387749E-15,-6.13132611855689E-14));
#1062=DIRECTION('ref_axis',(-6.13132611855881E-14,6.61447166231737E-17,
1.));
#1063=DIRECTION('',(1.,-2.09600964034929E-10,2.08983157575347E-14));
#1064=DIRECTION('',(1.,-2.09600964034929E-10,2.08983157575347E-14));
#1065=DIRECTION('',(-1.,-2.09610760120441E-10,-2.08983157575347E-14));
#1066=DIRECTION('center_axis',(2.52435489670685E-29,2.07012336251833E-13,
1.));
#1067=DIRECTION('ref_axis',(6.50521293450681E-18,1.,-2.07012336251833E-13));
#1068=DIRECTION('',(-1.,0.,0.));
#1069=DIRECTION('',(6.50454334346376E-18,1.,-2.07012336251833E-13));
#1070=DIRECTION('',(-1.,9.9066054505014E-15,-2.02554598966637E-27));
#1071=DIRECTION('center_axis',(1.,-9.9066054505014E-15,0.));
#1072=DIRECTION('ref_axis',(7.85046229341854E-15,0.707106781186518,-0.707106781186577));
#1073=DIRECTION('center_axis',(-1.,9.24157264340139E-15,-3.86164530304403E-16));
#1074=DIRECTION('ref_axis',(7.85046229341854E-15,0.707106781186518,-0.707106781186577));
#1075=DIRECTION('',(1.,-9.9066054505014E-15,0.));
#1076=DIRECTION('center_axis',(2.16836107262775E-13,-4.67285269291544E-14,
1.));
#1077=DIRECTION('ref_axis',(-3.86588806285113E-14,-1.,-4.67285269291461E-14));
#1078=DIRECTION('center_axis',(6.00585509687865E-14,-2.35693667386956E-16,
-1.));
#1079=DIRECTION('ref_axis',(-3.86588806285113E-14,-1.,-4.67285269291461E-14));
#1080=DIRECTION('',(2.16836107262774E-13,-4.67285269291545E-14,1.));
#1081=DIRECTION('center_axis',(-6.12022388831138E-14,4.67285269291544E-14,
1.));
#1082=DIRECTION('ref_axis',(-3.86588806285113E-14,-1.,-4.67285269291461E-14));
#1083=DIRECTION('center_axis',(-3.86588806285076E-14,-1.,1.20105305415063E-27));
#1084=DIRECTION('ref_axis',(1.,-3.86588806285076E-14,-7.78169341898305E-14));
#1085=DIRECTION('',(1.66533453273128E-16,-1.66533453706252E-16,-1.));
#1086=DIRECTION('',(1.,-3.86588806285076E-14,-7.78169341898305E-14));
#1087=DIRECTION('',(1.11022302045909E-16,-5.55111512348891E-17,-1.));
#1088=DIRECTION('center_axis',(-1.,9.24157264387764E-15,-5.55111508186773E-17));
#1089=DIRECTION('ref_axis',(5.55111508186773E-17,-5.55111512348886E-17,
-1.));
#1090=DIRECTION('',(-3.86588806285076E-14,-1.,1.20105682673658E-27));
#1091=DIRECTION('',(2.52435489670724E-29,-1.72191555296234E-41,1.));
#1092=DIRECTION('center_axis',(3.86588806285076E-14,1.,-1.20105305415063E-27));
#1093=DIRECTION('ref_axis',(-1.,3.86588806285076E-14,7.78169341898305E-14));
#1094=DIRECTION('',(-1.,3.86588806285076E-14,7.78169341898305E-14));
#1095=DIRECTION('',(1.66533453273128E-16,-1.66533453706252E-16,-1.));
#1096=DIRECTION('center_axis',(-1.,9.24157264411369E-15,-1.11022302045909E-16));
#1097=DIRECTION('ref_axis',(1.11022302045909E-16,-1.1102230247057E-16,-1.));
#1098=DIRECTION('',(3.86588806285076E-14,1.,-1.20105682673658E-27));
#1099=DIRECTION('center_axis',(-2.21959454892332E-11,-1.15590579846701E-13,
1.));
#1100=DIRECTION('ref_axis',(-1.,-2.84669282358448E-10,-2.21959454892661E-11));
#1101=DIRECTION('center_axis',(7.78169341898305E-14,-1.80924947834152E-27,
1.));
#1102=DIRECTION('ref_axis',(-1.,-2.84669282358448E-10,-2.21959454892661E-11));
#1103=DIRECTION('',(-2.21959454892332E-11,-1.15590579846701E-13,1.));
#1104=DIRECTION('center_axis',(-1.,9.24157264340139E-15,-3.86164530304403E-16));
#1105=DIRECTION('ref_axis',(9.24157264340139E-15,1.,-6.94197806383321E-29));
#1106=DIRECTION('',(-3.86164530304403E-16,3.82557964070391E-30,1.));
#1107=DIRECTION('center_axis',(-1.,9.24157264340139E-15,-3.86164530304403E-16));
#1108=DIRECTION('ref_axis',(-3.61121265497258E-14,0.707106781186558,0.707106781186537));
#1109=DIRECTION('',(9.2415726434014E-15,1.,-4.67285269291538E-14));
#1110=DIRECTION('center_axis',(-1.,9.24157264340139E-15,-3.86164530304403E-16));
#1111=DIRECTION('ref_axis',(-4.34392246902534E-14,-0.707106781186551,0.707106781186544));
#1112=DIRECTION('',(3.86164530304787E-16,4.15603898729439E-14,-1.));
#1113=DIRECTION('center_axis',(-1.,9.24157264340139E-15,-3.86164530304403E-16));
#1114=DIRECTION('ref_axis',(-5.44298719010365E-14,-0.707106781186534,-0.707106781186561));
#1115=DIRECTION('',(-9.24157264340139E-15,-1.,-1.08810789278239E-27));
#1116=DIRECTION('center_axis',(1.,-9.24157264340139E-15,3.86164530304403E-16));
#1117=DIRECTION('ref_axis',(0.,-2.86160029213898E-14,1.));
#1118=DIRECTION('center_axis',(1.,-9.24157264340139E-15,3.86164530304403E-16));
#1119=DIRECTION('ref_axis',(-3.86164530453325E-16,6.61447166234669E-17,
1.));
#1120=DIRECTION('center_axis',(1.,0.,0.));
#1121=DIRECTION('ref_axis',(0.,-2.86160029213898E-14,1.));
#1122=DIRECTION('',(1.,0.,0.));
#1123=DIRECTION('center_axis',(-1.,0.,0.));
#1124=DIRECTION('ref_axis',(0.,-0.401873856983795,-0.915695038248525));
#1125=DIRECTION('center_axis',(-1.,6.50454334345085E-18,-6.23822810517934E-17));
#1126=DIRECTION('ref_axis',(0.,-2.86160029213898E-14,1.));
#1127=DIRECTION('center_axis',(1.,-6.50454334345085E-18,6.23822810517934E-17));
#1128=DIRECTION('ref_axis',(6.23822810517934E-17,-6.61447983171372E-17,
-1.));
#1129=DIRECTION('',(-3.68202440756637E-14,0.707106781186549,0.707106781186546));
#1130=DIRECTION('',(6.50454334345085E-18,1.,6.77988483177575E-28));
#1131=DIRECTION('center_axis',(-1.,9.24157264387749E-15,-6.13132611855689E-14));
#1132=DIRECTION('ref_axis',(8.32149003102395E-14,0.707106781186542,0.707106781186553));
#1133=DIRECTION('center_axis',(-1.,6.50454334345085E-18,-6.23822810517934E-17));
#1134=DIRECTION('ref_axis',(0.,0.,1.));
#1135=DIRECTION('',(4.00796944493954E-14,1.,-1.51609205219807E-30));
#1136=DIRECTION('center_axis',(-1.,6.50454334345085E-18,-6.23822810517934E-17));
#1137=DIRECTION('ref_axis',(7.06541606407668E-15,0.707106781186518,-0.707106781186577));
#1138=DIRECTION('',(-6.13132611855689E-14,6.07406287448972E-28,1.));
#1139=DIRECTION('center_axis',(-6.00585509687865E-14,2.35693667386958E-16,
1.));
#1140=DIRECTION('ref_axis',(1.36472676505217E-11,-1.,2.35693668206593E-16));
#1141=DIRECTION('',(-1.,0.,0.));
#1142=DIRECTION('',(1.,-5.61038129082854E-15,6.00585509687865E-14));
#1143=DIRECTION('',(-9.24157264340543E-15,-1.,2.35693667386403E-16));
#1144=DIRECTION('center_axis',(5.61038129082854E-15,1.,-3.26987227131642E-27));
#1145=DIRECTION('ref_axis',(-6.12577500343417E-14,3.6135478739973E-27,1.));
#1146=DIRECTION('',(1.,-5.61038129082855E-15,5.98851463838325E-14));
#1147=DIRECTION('',(-6.12022388831143E-14,3.61324016730307E-27,1.));
#1148=DIRECTION('center_axis',(6.02692499082225E-14,0.,-1.));
#1149=DIRECTION('ref_axis',(-1.,0.,-6.02692499082225E-14));
#1150=DIRECTION('',(-1.,5.61038129082855E-15,-5.98851463838325E-14));
#1151=DIRECTION('',(9.24157264340542E-15,1.,5.56982651190394E-28));
#1152=DIRECTION('center_axis',(-5.61038129082854E-15,-1.,-1.05445398647113E-25));
#1153=DIRECTION('ref_axis',(-2.98780267314108E-11,2.73072524559925E-25,
-1.));
#1154=DIRECTION('',(6.12022388831143E-14,1.05102030751126E-25,-1.));
#1155=DIRECTION('center_axis',(1.,4.81096644004235E-15,-1.8198373178772E-9));
#1156=DIRECTION('ref_axis',(1.8198373178772E-9,6.6144725378645E-17,1.));
#1157=DIRECTION('center_axis',(1.,-9.24157264340542E-15,6.12022388831143E-14));
#1158=DIRECTION('ref_axis',(-6.12022388830221E-14,6.61447166231743E-17,
1.));
#1159=DIRECTION('',(1.,4.81096644004235E-15,-1.8198373178772E-9));
#1160=DIRECTION('',(1.,4.81096644004235E-15,-1.8198373178772E-9));
#1161=DIRECTION('center_axis',(0.,0.,-1.));
#1162=DIRECTION('ref_axis',(-1.,0.,0.));
#1163=DIRECTION('',(1.,-1.05323330602952E-13,0.));
#1164=DIRECTION('',(4.00796944493954E-14,1.,2.42821247389062E-30));
#1165=DIRECTION('',(-1.,9.9066054505014E-15,0.));
#1166=DIRECTION('center_axis',(1.,-9.9066054505014E-15,0.));
#1167=DIRECTION('ref_axis',(7.06541606407668E-15,0.707106781186518,-0.707106781186577));
#1168=DIRECTION('center_axis',(1.,-9.24157264340542E-15,6.12022388831143E-14));
#1169=DIRECTION('ref_axis',(7.06541606407668E-15,0.707106781186518,-0.707106781186577));
#1170=DIRECTION('',(1.,-9.9066054505014E-15,0.));
#1171=DIRECTION('center_axis',(-9.9066054505014E-15,-1.,0.));
#1172=DIRECTION('ref_axis',(0.,0.,-1.));
#1173=DIRECTION('',(6.12022388831143E-14,-6.06306433302349E-28,-1.));
#1174=DIRECTION('',(-1.,9.9066054505014E-15,-6.12022388831144E-14));
#1175=DIRECTION('center_axis',(-1.,9.9066054505014E-15,-6.12022388831144E-14));
#1176=DIRECTION('ref_axis',(-3.61121265497258E-14,0.707106781186558,0.707106781186537));
#1177=DIRECTION('center_axis',(1.,-9.24157264340542E-15,6.12022388831143E-14));
#1178=DIRECTION('ref_axis',(-3.61121265497258E-14,0.707106781186558,0.707106781186537));
#1179=DIRECTION('',(1.,-9.9066054505014E-15,6.12022388831144E-14));
#1180=DIRECTION('center_axis',(-6.12022388831139E-14,4.67285269291544E-14,
1.));
#1181=DIRECTION('ref_axis',(1.40851338953413E-14,1.,-4.67285269291535E-14));
#1182=DIRECTION('',(9.24157264340828E-15,1.,-4.67285269291538E-14));
#1183=DIRECTION('',(-1.,2.54358890907926E-27,-6.12022388831139E-14));
#1184=DIRECTION('center_axis',(-1.,2.54358890907926E-27,-6.12022388831139E-14));
#1185=DIRECTION('ref_axis',(-4.34392246902534E-14,-0.707106781186551,0.707106781186544));
#1186=DIRECTION('center_axis',(1.,-9.24157264340542E-15,6.12022388831143E-14));
#1187=DIRECTION('ref_axis',(-4.34392246902534E-14,-0.707106781186551,0.707106781186544));
#1188=DIRECTION('',(1.,-2.54358890907926E-27,6.12022388831139E-14));
#1189=DIRECTION('center_axis',(0.,-1.,-4.15603898729439E-14));
#1190=DIRECTION('ref_axis',(6.23822815235701E-17,4.15603898729439E-14,-1.));
#1191=DIRECTION('',(6.12022388831147E-14,4.15603898729439E-14,-1.));
#1192=DIRECTION('',(-1.,-3.23410212364657E-27,7.78169341898305E-14));
#1193=DIRECTION('center_axis',(1.,3.23410212364657E-27,-7.78169341898305E-14));
#1194=DIRECTION('ref_axis',(-5.44298719010365E-14,-0.707106781186534,-0.707106781186561));
#1195=DIRECTION('center_axis',(1.,-9.24157264340542E-15,6.12022388831143E-14));
#1196=DIRECTION('ref_axis',(-5.44298719010365E-14,-0.707106781186534,-0.707106781186561));
#1197=DIRECTION('',(1.,3.23410212364657E-27,-7.78169341898305E-14));
#1198=DIRECTION('center_axis',(-1.,4.00796944493954E-14,7.78169341898305E-14));
#1199=DIRECTION('ref_axis',(8.32149003102395E-14,0.707106781186542,0.707106781186553));
#1200=DIRECTION('',(-1.,1.05323330602952E-13,0.));
#1201=DIRECTION('',(1.,-4.00796944493954E-14,-7.78169341898305E-14));
#1202=DIRECTION('center_axis',(-1.,9.24157264340542E-15,-6.12022388831143E-14));
#1203=DIRECTION('ref_axis',(8.32149003102395E-14,0.707106781186542,0.707106781186553));
#1204=DIRECTION('center_axis',(-1.,1.05323330602952E-13,0.));
#1205=DIRECTION('ref_axis',(0.,0.,1.));
#1206=DIRECTION('center_axis',(1.,-9.24157264340542E-15,6.12022388831143E-14));
#1207=DIRECTION('ref_axis',(0.,0.,1.));
#1208=DIRECTION('center_axis',(7.78169341898305E-14,-1.80725874298449E-27,
1.));
#1209=DIRECTION('ref_axis',(1.,-3.86588806285076E-14,-7.78169341898305E-14));
#1210=DIRECTION('',(-1.,1.49741227698377E-14,7.78169341898305E-14));
#1211=DIRECTION('',(6.50521293451312E-18,1.,4.15603898729439E-14));
#1212=DIRECTION('center_axis',(-4.44365781039045E-14,0.707106781186546,
-0.707106781186549));
#1213=DIRECTION('ref_axis',(-1.,0.,6.28428114199929E-14));
#1214=DIRECTION('center_axis',(1.,-9.24157264340542E-15,6.12022388831143E-14));
#1215=DIRECTION('ref_axis',(6.12022388831139E-14,-4.67285269291544E-14,
-1.));
#1216=CARTESIAN_POINT('',(0.,0.,0.));
#1217=CARTESIAN_POINT('Origin',(13.5870496471805,-9.03060880014138,-448.537864865383));
#1218=CARTESIAN_POINT('',(9.48704964716157,-13.5306088001403,-448.537864865382));
#1219=CARTESIAN_POINT('',(9.48704964717592,3.62957659327889,-448.537864865385));
#1220=CARTESIAN_POINT('',(9.48704964716158,-6.86626600957994,-448.537864865383));
#1221=CARTESIAN_POINT('',(14.6870496471803,3.62957659327887,-448.537864865386));
#1222=CARTESIAN_POINT('',(13.6870496471821,3.62957659327887,-448.537864865386));
#1223=CARTESIAN_POINT('',(14.6870496471613,-13.5306088001399,-448.537864865382));
#1224=CARTESIAN_POINT('',(14.6870496471803,-4.28034530014046,-448.537864865384));
#1225=CARTESIAN_POINT('',(15.1120496471712,-13.5306088001399,-448.537864865382));
#1226=CARTESIAN_POINT('Origin',(14.6870496471617,10.969391199849,-452.037864865389));
#1227=CARTESIAN_POINT('',(14.687050828572,-1.26008180014679,-459.787864865388));
#1228=CARTESIAN_POINT('',(14.687049647162,-1.25631659263705,-459.787864865389));
#1229=CARTESIAN_POINT('Origin',(16.1870496471803,-1.25631659263707,-459.787864865389));
#1230=CARTESIAN_POINT('',(14.6870496471618,-24.7806088001468,-459.787864865388));
#1231=CARTESIAN_POINT('',(14.6870496471621,-4.82815801148611,-459.787864865388));
#1232=CARTESIAN_POINT('',(14.6870496471612,-13.2181088001481,-448.22536486539));
#1233=CARTESIAN_POINT('',(14.6870496471803,10.4652666163421,-451.537864865387));
#1234=CARTESIAN_POINT('Origin',(14.6870496471803,6.46945832666717,-451.354790803419));
#1235=CARTESIAN_POINT('',(14.6870496471803,12.2699181998524,-451.537864865387));
#1236=CARTESIAN_POINT('',(14.6870496471803,-0.662845300142739,-451.537864865384));
#1237=CARTESIAN_POINT('',(14.6870496471803,12.2699181998448,-462.787864865425));
#1238=CARTESIAN_POINT('',(14.6870496471803,12.2699181998486,-464.787864865426));
#1239=CARTESIAN_POINT('',(14.6870496471803,10.2699181998448,-464.787864865426));
#1240=CARTESIAN_POINT('Origin',(14.6870496471803,10.2699181998448,-462.787864865425));
#1241=CARTESIAN_POINT('',(14.6870496471803,9.46372349464852,-464.787864865426));
#1242=CARTESIAN_POINT('',(14.6870496471802,3.8399181998527,-464.787864865425));
#1243=CARTESIAN_POINT('',(14.6870496471803,0.271890384824616,-460.50215057968));
#1244=CARTESIAN_POINT('Origin',(14.6870496471803,9.46372349464852,-452.787864865425));
#1245=CARTESIAN_POINT('Origin',(14.6870496471803,-1.26008180014679,-461.787864865388));
#1246=CARTESIAN_POINT('',(14.6870496471617,-9.03060880013296,-457.187864865389));
#1247=CARTESIAN_POINT('Origin',(14.6870496471617,-9.030608800133,-455.787864865389));
#1248=CARTESIAN_POINT('Origin',(19.4870496471654,-9.03060880013285,-455.787864865389));
#1249=CARTESIAN_POINT('',(25.9870496471654,-9.03060880013271,-457.187864865389));
#1250=CARTESIAN_POINT('Origin',(25.9870496471654,-9.03060880013285,-455.787864865389));
#1251=CARTESIAN_POINT('',(25.9855096471583,-9.03060880013296,-457.187864865389));
#1252=CARTESIAN_POINT('',(19.4870496471654,-9.03060880013281,-457.187864865389));
#1253=CARTESIAN_POINT('Origin',(25.9855096471583,-9.030608800133,-455.787864865389));
#1254=CARTESIAN_POINT('Origin',(19.4870496471654,-9.03060880013285,-455.787864865389));
#1255=CARTESIAN_POINT('',(25.9870496471654,-9.03060880013271,-457.087864865389));
#1256=CARTESIAN_POINT('Origin',(25.9870496471654,-9.03060880013285,-455.787864865389));
#1257=CARTESIAN_POINT('',(19.4870496471654,-9.03060880013271,-457.087864865389));
#1258=CARTESIAN_POINT('',(19.4870496471654,-9.03060880013282,-457.087864865389));
#1259=CARTESIAN_POINT('Origin',(19.4870496471654,-9.03060880013285,-455.787864865389));
#1260=CARTESIAN_POINT('Origin',(25.9870496471654,-9.03060880013285,-455.787864865389));
#1261=CARTESIAN_POINT('Origin',(5.98550964717319,-9.030608800133,-455.787864865389));
#1262=CARTESIAN_POINT('',(17.4870496471622,-9.03060880013296,-457.187864865389));
#1263=CARTESIAN_POINT('',(5.98550964717319,-9.03060880013296,-457.187864865389));
#1264=CARTESIAN_POINT('Origin',(17.4870496471622,-9.030608800133,-455.787864865389));
#1265=CARTESIAN_POINT('Origin',(8.23550964717313,-9.03060880013726,-455.787864865389));
#1266=CARTESIAN_POINT('',(5.98550964715897,-9.03060880013722,-457.187864865389));
#1267=CARTESIAN_POINT('Origin',(5.98550964715898,-9.03060880013726,-455.787864865389));
#1268=CARTESIAN_POINT('',(9.4870496471621,-9.03060880013722,-457.187864865389));
#1269=CARTESIAN_POINT('',(8.23550964717313,-9.03060880013722,-457.187864865389));
#1270=CARTESIAN_POINT('Origin',(9.48704964716208,-9.03060880013726,-455.787864865389));
#1271=CARTESIAN_POINT('Origin',(17.8870496471605,-11.7806088001547,-452.837864865392));
#1272=CARTESIAN_POINT('',(17.4870496471635,-6.18060880014639,-452.837864865392));
#1273=CARTESIAN_POINT('',(17.4870496471635,-11.8806088001465,-452.837864865392));
#1274=CARTESIAN_POINT('',(17.4870496471622,-11.9118588001528,-452.837864865392));
#1275=CARTESIAN_POINT('',(19.487049647165,-6.18060880014241,-452.837864865392));
#1276=CARTESIAN_POINT('',(17.8870496471614,-6.18060880013829,-452.837864865392));
#1277=CARTESIAN_POINT('',(19.4870496471649,-11.8806088001423,-452.837864865392));
#1278=CARTESIAN_POINT('',(19.4870496471636,-11.9118588001508,-452.837864865392));
#1279=CARTESIAN_POINT('',(17.8870496471612,-11.8806088001422,-452.837864865392));
#1280=CARTESIAN_POINT('Origin',(15.9870496553945,-29.0402301429825,-455.96286486536));
#1281=CARTESIAN_POINT('',(13.8360496553998,-29.0402301424454,-455.962864865316));
#1282=CARTESIAN_POINT('Origin',(11.9360496553997,-29.0402301429863,-455.962864865359));
#1283=CARTESIAN_POINT('Origin',(13.4870496471821,9.46372349464852,-452.787864865425));
#1284=CARTESIAN_POINT('',(25.9855079337809,9.46372349464852,-464.787864865426));
#1285=CARTESIAN_POINT('',(13.4870496471821,9.46372349464852,-464.787864865426));
#1286=CARTESIAN_POINT('',(25.9855096471586,0.271890384824545,-460.50215057968));
#1287=CARTESIAN_POINT('Origin',(25.9855096471583,9.46372349464852,-452.787864865425));
#1288=CARTESIAN_POINT('',(13.4870496471821,0.271890384824616,-460.50215057968));
#1289=CARTESIAN_POINT('Origin',(15.5627787904719,6.26991832174198,-464.787864865426));
#1290=CARTESIAN_POINT('',(25.985507933781,10.2699181998447,-464.787864865426));
#1291=CARTESIAN_POINT('',(10.8249142188163,10.2699181998449,-464.787864865426));
#1292=CARTESIAN_POINT('',(25.9855079337806,0.269918321741702,-464.787864865426));
#1293=CARTESIAN_POINT('Origin',(14.7860496471304,-11.6106088001278,-465.537864865347));
#1294=CARTESIAN_POINT('',(14.7860496472111,-31.8902164370499,-452.862864865388));
#1295=CARTESIAN_POINT('',(14.7860496471295,-31.8902164370637,-455.662864865387));
#1296=CARTESIAN_POINT('',(14.7860496471294,-31.8902164370761,-457.950364865366));
#1297=CARTESIAN_POINT('',(14.7860496471336,-26.19021643705,-452.862864865388));
#1298=CARTESIAN_POINT('',(14.7860496471296,-15.0384126185954,-452.862864865387));
#1299=CARTESIAN_POINT('',(14.7860496471295,-26.1902164370638,-455.662864865387));
#1300=CARTESIAN_POINT('',(14.7860496471295,-26.1902164370638,-454.962864865387));
#1301=CARTESIAN_POINT('',(14.7860496471296,-17.8884126186022,-455.662864865386));
#1302=CARTESIAN_POINT('Origin',(15.0870496471616,6.46945832665514,-451.354790809606));
#1303=CARTESIAN_POINT('',(15.0870496471805,4.87996661856086,-451.537864865385));
#1304=CARTESIAN_POINT('',(15.0870496471617,6.46945832665515,-452.954790809606));
#1305=CARTESIAN_POINT('Origin',(15.0870496471616,6.46945832665514,-451.354790809606));
#1306=CARTESIAN_POINT('',(15.0870496471805,8.05895003474934,-451.537864865386));
#1307=CARTESIAN_POINT('Origin',(15.0870496471616,6.46945832665514,-451.354790809606));
#1308=CARTESIAN_POINT('',(14.9870496471805,8.05895003474935,-451.537864865386));
#1309=CARTESIAN_POINT('',(11.8870496471714,8.058950034393,-451.537864865386));
#1310=CARTESIAN_POINT('',(14.9870496471805,4.87996661856086,-451.537864865385));
#1311=CARTESIAN_POINT('Origin',(14.9870496471616,6.46945832665514,-451.354790809606));
#1312=CARTESIAN_POINT('',(11.8870496471714,4.87996661891719,-451.537864865386));
#1313=CARTESIAN_POINT('Origin',(8.68704964716188,6.46945832665512,-451.354790803419));
#1314=CARTESIAN_POINT('',(10.087049647176,8.05895003401571,-451.537864865386));
#1315=CARTESIAN_POINT('',(8.68704964718059,8.05895003403667,-451.537864865386));
#1316=CARTESIAN_POINT('',(11.8870496471714,8.058950034393,-451.537864865386));
#1317=CARTESIAN_POINT('',(8.68704964716198,6.46945832665512,-452.954790803419));
#1318=CARTESIAN_POINT('Origin',(8.68704964716188,6.46945832665512,-451.354790803419));
#1319=CARTESIAN_POINT('',(8.68704964718059,4.87996661927351,-451.537864865386));
#1320=CARTESIAN_POINT('Origin',(8.68704964716188,6.46945832665512,-451.354790803419));
#1321=CARTESIAN_POINT('',(10.0870496471759,4.87996661929447,-451.537864865386));
#1322=CARTESIAN_POINT('',(11.8870496471714,4.87996661891719,-451.537864865386));
#1323=CARTESIAN_POINT('',(11.8870496471714,4.87996661891719,-451.537864865386));
#1324=CARTESIAN_POINT('',(11.8870496471714,8.058950034393,-451.537864865386));
#1325=CARTESIAN_POINT('Origin',(13.5870496471805,-9.03060880014138,-451.537864865383));
#1326=CARTESIAN_POINT('',(9.48704964717599,10.4652666163437,-451.537864865352));
#1327=CARTESIAN_POINT('',(13.6870496471821,10.4652666163421,-451.537864865387));
#1328=CARTESIAN_POINT('',(9.48704964717599,12.2699181998487,-451.537864865387));
#1329=CARTESIAN_POINT('',(9.48704964717599,-1.76284530014485,-451.537864865384));
#1330=CARTESIAN_POINT('',(9.88704964717067,12.2699181998449,-451.537864865387));
#1331=CARTESIAN_POINT('Origin',(10.8249142188163,10.2699181998449,-462.787864865425));
#1332=CARTESIAN_POINT('',(25.9855096471587,12.2699181998447,-462.787864865425));
#1333=CARTESIAN_POINT('Origin',(25.9855096471587,10.2699181998447,-462.787864865425));
#1334=CARTESIAN_POINT('',(10.8249142188163,12.2699181998449,-462.787864865425));
#1335=CARTESIAN_POINT('Origin',(11.9360496471494,-29.0402164370764,-462.537864865308));
#1336=CARTESIAN_POINT('',(11.9360496471515,-27.6402164370768,-452.862864865391));
#1337=CARTESIAN_POINT('Origin',(11.9360496471515,-29.0402164370768,-452.862864865391));
#1338=CARTESIAN_POINT('',(11.9360496471528,-27.6402164370771,-447.037864865389));
#1339=CARTESIAN_POINT('',(11.9360496471494,-27.6402164370764,-462.537864865308));
#1340=CARTESIAN_POINT('Origin',(11.9360496471527,-29.0402164370771,-447.037864865389));
#1341=CARTESIAN_POINT('Origin',(17.887049647162,-11.8806088001422,-459.787864865392));
#1342=CARTESIAN_POINT('',(19.4870496471665,-11.8806088001382,-459.787864865389));
#1343=CARTESIAN_POINT('',(19.4870496471649,-11.8806088001423,-459.787864865391));
#1344=CARTESIAN_POINT('',(17.4870496471651,-11.8806088001423,-459.787864865389));
#1345=CARTESIAN_POINT('',(20.1370496471631,-11.8806088001423,-459.787864865389));
#1346=CARTESIAN_POINT('',(17.4870496471636,-11.8806088001506,-471.224685744651));
#1347=CARTESIAN_POINT('Origin',(17.4870496471622,-12.043108800151,-482.661506623911));
#1348=CARTESIAN_POINT('',(17.4870496471651,-6.18060880014227,-459.787864865389));
#1349=CARTESIAN_POINT('',(17.4870496471636,-6.15560880015087,-459.787864865389));
#1350=CARTESIAN_POINT('',(17.4870496471635,-6.18060880014639,-454.287864865391));
#1351=CARTESIAN_POINT('Origin',(17.887049647162,-6.18060880013829,-454.287864865392));
#1352=CARTESIAN_POINT('',(19.4870496471665,-6.18060880013843,-459.787864865389));
#1353=CARTESIAN_POINT('',(18.6370496471619,-6.18060880013832,-459.787864865389));
#1354=CARTESIAN_POINT('',(19.487049647165,-6.18060880014241,-454.287864865391));
#1355=CARTESIAN_POINT('Origin',(19.4870496471636,-12.043108800147,-482.661506623912));
#1356=CARTESIAN_POINT('',(19.487049647165,-6.15560880014687,-459.787864865389));
#1357=CARTESIAN_POINT('Origin',(11.9360496560273,-29.040230142983,-484.237349155629));
#1358=CARTESIAN_POINT('',(13.8360496554847,-29.040230142445,-459.787864865423));
#1359=CARTESIAN_POINT('Origin',(11.9360496554846,-29.0402301429859,-459.787864865465));
#1360=CARTESIAN_POINT('',(13.8360496560274,-29.0402301424422,-484.237349155586));
#1361=CARTESIAN_POINT('Origin',(25.9855096471583,-33.0701583681122,-449.037864865434));
#1362=CARTESIAN_POINT('',(25.9855096471587,12.2699181998447,-449.037864865389));
#1363=CARTESIAN_POINT('',(25.9855096471587,12.2699181998447,-452.787864865411));
#1364=CARTESIAN_POINT('',(25.9855096471587,10.2699181998448,-447.037864865389));
#1365=CARTESIAN_POINT('Origin',(25.9855096471587,10.2699181998447,-449.037864865389));
#1366=CARTESIAN_POINT('',(25.9855096471582,-37.730081663459,-447.037864865386));
#1367=CARTESIAN_POINT('',(25.9855096471583,-26.0503835841356,-447.037864865387));
#1368=CARTESIAN_POINT('',(25.9855096471582,-40.7300816634592,-450.037864865386));
#1369=CARTESIAN_POINT('Origin',(25.9855096471583,-37.7300816634592,-450.037864865386));
#1370=CARTESIAN_POINT('',(25.9855096471582,-40.7300816634589,-456.78786486539));
#1371=CARTESIAN_POINT('',(25.9855096471582,-40.7300816634591,-451.725364865411));
#1372=CARTESIAN_POINT('',(25.9855096471582,-37.7300816634589,-459.78786486539));
#1373=CARTESIAN_POINT('Origin',(25.9855096471577,-37.7300816634589,-456.78786486539));
#1374=CARTESIAN_POINT('',(25.9855096471586,-1.26008180014679,-459.787864865388));
#1375=CARTESIAN_POINT('',(25.9855096471584,-19.5503835841317,-459.78786486539));
#1376=CARTESIAN_POINT('Origin',(25.9855096471583,-1.26008180014679,-461.787864865388));
#1377=CARTESIAN_POINT('',(25.9855096471586,6.4694583266552,-452.95479083217));
#1378=CARTESIAN_POINT('Origin',(25.9855096471586,6.4694583266552,-451.35479083217));
#1379=CARTESIAN_POINT('Origin',(13.4870496471821,-1.26008180014679,-461.787864865388));
#1380=CARTESIAN_POINT('',(13.487049647182,-1.26008180014679,-459.787864865388));
#1381=CARTESIAN_POINT('Origin',(13.6870496471821,6.46945832666717,-451.354790803419));
#1382=CARTESIAN_POINT('Origin',(9.48704964717599,6.46945832666717,-451.354790803419));
#1383=CARTESIAN_POINT('Origin',(9.48704964717599,5.50491819985083,-455.662864865387));
#1384=CARTESIAN_POINT('',(9.48704964716219,-24.7806088001468,-459.787864865388));
#1385=CARTESIAN_POINT('',(9.48704964716183,-19.4681088001482,-454.47536486539));
#1386=CARTESIAN_POINT('',(9.48704964717599,-1.26008180015113,-459.787864865388));
#1387=CARTESIAN_POINT('',(9.48704964717599,2.12241819984986,-459.787864865388));
#1388=CARTESIAN_POINT('',(9.48704964716196,0.271890384819825,-460.50215057968));
#1389=CARTESIAN_POINT('Origin',(9.48704964716202,-1.26008180015118,-461.787864865388));
#1390=CARTESIAN_POINT('',(9.48704964716446,9.4637234946436,-464.787864865425));
#1391=CARTESIAN_POINT('Origin',(9.48704964717641,9.4637234946436,-452.787864865425));
#1392=CARTESIAN_POINT('',(9.48704964716449,10.2699181998449,-464.787864865425));
#1393=CARTESIAN_POINT('',(9.48704964716457,12.2699181998487,-464.787864865425));
#1394=CARTESIAN_POINT('',(9.48704964716263,12.2699181998449,-462.787864865425));
#1395=CARTESIAN_POINT('Origin',(9.48704964717604,10.2699181998449,-462.787864865425));
#1396=CARTESIAN_POINT('',(9.48704964716226,12.2699181998449,-456.787864865389));
#1397=CARTESIAN_POINT('Origin',(5.98704964712887,-18.4662164370626,-452.86286486539));
#1398=CARTESIAN_POINT('',(5.98550964715857,-26.1902164370763,-452.86286486539));
#1399=CARTESIAN_POINT('',(5.98704964715856,-26.1902164370763,-452.86286486539));
#1400=CARTESIAN_POINT('',(5.98550964715851,-31.8902164370762,-452.86286486539));
#1401=CARTESIAN_POINT('',(5.98704964716557,-31.8902164370762,-452.86286486539));
#1402=CARTESIAN_POINT('',(5.98550964715868,-13.748412618611,-452.86286486539));
#1403=CARTESIAN_POINT('Origin',(5.98704964712468,-26.1902164370763,-452.962864865388));
#1404=CARTESIAN_POINT('',(5.98550964715874,-26.1902164370763,-455.662864865388));
#1405=CARTESIAN_POINT('',(5.98704964712493,-26.1902164370763,-455.662864865388));
#1406=CARTESIAN_POINT('',(5.9855096471587,-26.1902164370763,-455.000364865389));
#1407=CARTESIAN_POINT('Origin',(5.98704964712479,-24.1662164370761,-455.66286486539));
#1408=CARTESIAN_POINT('',(5.98550964715868,-31.8902164370762,-455.662864865388));
#1409=CARTESIAN_POINT('',(5.98704964712486,-31.8902164370762,-455.662864865388));
#1410=CARTESIAN_POINT('',(5.98550964715883,-16.5984126186178,-455.66286486539));
#1411=CARTESIAN_POINT('Origin',(5.9870496472022,-31.8902164370762,-450.362864865388));
#1412=CARTESIAN_POINT('',(5.98550964715856,-31.8902164370762,-453.700364865389));
#1413=CARTESIAN_POINT('Origin',(2.28550874267306,6.46945832665509,-451.35479078904));
#1414=CARTESIAN_POINT('',(5.98550964715887,6.4694583266551,-452.954790795773));
#1415=CARTESIAN_POINT('Origin',(5.98550964715877,6.4694583266551,-451.354790795773));
#1416=CARTESIAN_POINT('',(2.28550873976132,6.46945832665509,-452.95479078904));
#1417=CARTESIAN_POINT('',(2.28550873976132,6.46945832665509,-452.95479078904));
#1418=CARTESIAN_POINT('Origin',(8.08627964716258,6.26991819984866,-464.787864865426));
#1419=CARTESIAN_POINT('',(5.98550964716091,9.46372349464405,-464.787864865426));
#1420=CARTESIAN_POINT('',(14.7870496471634,9.46372349464312,-464.787864865426));
#1421=CARTESIAN_POINT('',(5.98550964716094,10.2699181998449,-464.787864865426));
#1422=CARTESIAN_POINT('',(5.98550964716054,0.26991819984886,-464.787864865426));
#1423=CARTESIAN_POINT('',(7.08666464716161,10.2699181998449,-464.787864865426));
#1424=CARTESIAN_POINT('Origin',(7.08666464716161,10.2699181998449,-462.787864865425));
#1425=CARTESIAN_POINT('',(5.98550964715953,12.2699181998449,-462.787864865425));
#1426=CARTESIAN_POINT('Origin',(5.98550964715917,10.2699181998449,-462.787864865425));
#1427=CARTESIAN_POINT('',(7.08666464716163,12.2699181998449,-462.787864865425));
#1428=CARTESIAN_POINT('Origin',(6.08704964716062,12.2699181998449,-456.537864865389));
#1429=CARTESIAN_POINT('',(5.98550964715869,12.2699181998449,-449.03786486539));
#1430=CARTESIAN_POINT('',(5.98550964715916,12.2699181998449,-456.787864865389));
#1431=CARTESIAN_POINT('',(6.03704964715944,12.2699181998449,-449.03786486539));
#1432=CARTESIAN_POINT('Origin',(6.03704964715942,10.2699181998449,-449.03786486539));
#1433=CARTESIAN_POINT('',(5.98550964715855,10.269918199845,-447.03786486539));
#1434=CARTESIAN_POINT('Origin',(5.98550964715868,10.2699181998449,-449.03786486539));
#1435=CARTESIAN_POINT('',(6.03704964715929,10.269918199845,-447.03786486539));
#1436=CARTESIAN_POINT('Origin',(5.98704964715828,-19.0306088001589,-447.037864865388));
#1437=CARTESIAN_POINT('',(5.9855096471581,-37.730081663459,-447.037864865387));
#1438=CARTESIAN_POINT('',(5.98550964715832,-14.0306088001589,-447.037864865389));
#1439=CARTESIAN_POINT('',(5.98627964716529,-37.730081663459,-447.037864865388));
#1440=CARTESIAN_POINT('Origin',(5.98627964716548,-37.7300816634592,-450.037864865388));
#1441=CARTESIAN_POINT('',(5.98550964715826,-40.7300816634592,-450.037864865388));
#1442=CARTESIAN_POINT('Origin',(5.98550964715855,-37.7300816634592,-450.037864865388));
#1443=CARTESIAN_POINT('',(5.98627964716548,-40.7300816634592,-450.037864865388));
#1444=CARTESIAN_POINT('Origin',(5.98550964717276,-40.730081663459,-454.412864865388));
#1445=CARTESIAN_POINT('',(5.98550964715867,-40.7300816634589,-456.787864865388));
#1446=CARTESIAN_POINT('',(5.98550964715861,-40.7300816634589,-455.725364865389));
#1447=CARTESIAN_POINT('',(12.6862796471675,-40.7300816634589,-456.787864865389));
#1448=CARTESIAN_POINT('Origin',(12.6862796471675,-37.7300816634589,-456.787864865389));
#1449=CARTESIAN_POINT('',(5.98550964717276,-37.7300816634589,-459.787864865388));
#1450=CARTESIAN_POINT('Origin',(5.985509647159,-37.7300816634589,-456.787864865388));
#1451=CARTESIAN_POINT('',(12.6862796471672,-37.7300816634589,-459.787864865389));
#1452=CARTESIAN_POINT('Origin',(14.787049647163,-1.26008180015135,-461.787864865389));
#1453=CARTESIAN_POINT('',(5.98550964715886,0.271890384820232,-460.50215057968));
#1454=CARTESIAN_POINT('',(14.7870496471625,0.271890384819289,-460.50215057968));
#1455=CARTESIAN_POINT('',(5.98550964717276,-1.260081800151,-459.787864865387));
#1456=CARTESIAN_POINT('',(14.7870496471632,-1.26008180015135,-459.787864865388));
#1457=CARTESIAN_POINT('Origin',(5.98550964715892,-1.260081800151,-461.787864865388));
#1458=CARTESIAN_POINT('Origin',(14.7870496471634,9.46372349464312,-452.787864865425));
#1459=CARTESIAN_POINT('Origin',(5.98550964716093,9.46372349464405,-452.787864865425));
#1460=CARTESIAN_POINT('Origin',(19.3870496471622,-6.03060880015121,-459.787864865389));
#1461=CARTESIAN_POINT('',(16.6370496471621,-24.7806088001469,-459.787864865389));
#1462=CARTESIAN_POINT('',(5.98550964717276,-38.8306086634589,-459.787864865388));
#1463=CARTESIAN_POINT('Origin',(16.6370496471622,-23.4056088001469,-458.412864865389));
#1464=CARTESIAN_POINT('Origin',(5.98550964715898,-9.03060880015941,-457.037864865389));
#1465=UNCERTAINTY_MEASURE_WITH_UNIT(LENGTH_MEASURE(0.01),#1469,
'DISTANCE_ACCURACY_VALUE',
'Maximum model space distance between geometric entities at asserted c
onnectivities');
#1466=UNCERTAINTY_MEASURE_WITH_UNIT(LENGTH_MEASURE(0.01),#1469,
'DISTANCE_ACCURACY_VALUE',
'Maximum model space distance between geometric entities at asserted c
onnectivities');
#1467=(
GEOMETRIC_REPRESENTATION_CONTEXT(3)
GLOBAL_UNCERTAINTY_ASSIGNED_CONTEXT((#1465))
GLOBAL_UNIT_ASSIGNED_CONTEXT((#1469,#1471,#1472))
REPRESENTATION_CONTEXT('','3D')
);
#1468=(
GEOMETRIC_REPRESENTATION_CONTEXT(3)
GLOBAL_UNCERTAINTY_ASSIGNED_CONTEXT((#1466))
GLOBAL_UNIT_ASSIGNED_CONTEXT((#1469,#1471,#1472))
REPRESENTATION_CONTEXT('','3D')
);
#1469=(
LENGTH_UNIT()
NAMED_UNIT(*)
SI_UNIT(.MILLI.,.METRE.)
);
#1470=(
LENGTH_UNIT()
NAMED_UNIT(*)
SI_UNIT($,.METRE.)
);
#1471=(
NAMED_UNIT(*)
PLANE_ANGLE_UNIT()
SI_UNIT($,.RADIAN.)
);
#1472=(
NAMED_UNIT(*)
SI_UNIT($,.STERADIAN.)
SOLID_ANGLE_UNIT()
);
#1473=SHAPE_DEFINITION_REPRESENTATION(#1474,#1475);
#1474=PRODUCT_DEFINITION_SHAPE('',$,#1477);
#1475=SHAPE_REPRESENTATION('',(#880),#1467);
#1476=PRODUCT_DEFINITION_CONTEXT('part definition',#1481,'design');
#1477=PRODUCT_DEFINITION('2026-06-23-13-19-31-422','arm-right',#1478,#1476);
#1478=PRODUCT_DEFINITION_FORMATION('',$,#1483);
#1479=PRODUCT_RELATED_PRODUCT_CATEGORY('arm-right','arm-right',(#1483));
#1480=APPLICATION_PROTOCOL_DEFINITION('international standard',
'automotive_design',2009,#1481);
#1481=APPLICATION_CONTEXT(
'Core Data for Automotive Mechanical Design Process');
#1482=PRODUCT_CONTEXT('part definition',#1481,'mechanical');
#1483=PRODUCT('2026-06-23-13-19-31-422','arm-right',$,(#1482));
#1484=PRESENTATION_STYLE_ASSIGNMENT((#1486));
#1485=PRESENTATION_STYLE_ASSIGNMENT((#1487));
#1486=SURFACE_STYLE_USAGE(.BOTH.,#1488);
#1487=SURFACE_STYLE_USAGE(.BOTH.,#1489);
#1488=SURFACE_SIDE_STYLE('',(#1490));
#1489=SURFACE_SIDE_STYLE('',(#1491));
#1490=SURFACE_STYLE_FILL_AREA(#1492);
#1491=SURFACE_STYLE_FILL_AREA(#1493);
#1492=FILL_AREA_STYLE('Steel - Satin',(#1494));
#1493=FILL_AREA_STYLE('Plastic - Translucent Matte (White) 3D Printed',
(#1495));
#1494=FILL_AREA_STYLE_COLOUR('Steel - Satin',#1496);
#1495=FILL_AREA_STYLE_COLOUR(
'Plastic - Translucent Matte (White) 3D Printed',#1497);
#1496=COLOUR_RGB('Steel - Satin',0.627450980392157,0.627450980392157,0.627450980392157);
#1497=COLOUR_RGB('Plastic - Translucent Matte (White) 3D Printed',0.964705882352941,
0.964705882352941,0.952941176470588);
ENDSEC;
END-ISO-10303-21;
