ISO-10303-21;
HEADER;
/* Generated by software containing ST-Developer
 * from STEP Tools, Inc. (www.steptools.com) 
 */

FILE_DESCRIPTION(
/* description */ (''),
/* implementation_level */ '2;1');

FILE_NAME(
/* name */ 'main-body.step',
/* time_stamp */ '2026-09-03T10:57:43-07:00',
/* author */ (''),
/* organization */ (''),
/* preprocessor_version */ 'ST-DEVELOPER v20.1',
/* originating_system */ 'Autodesk Translation Framework v15.8.0.0',
/* authorisation */ '');

FILE_SCHEMA (('AUTOMOTIVE_DESIGN { 1 0 10303 214 3 1 1 }'));
ENDSEC;

DATA;
#10=MECHANICAL_DESIGN_GEOMETRIC_PRESENTATION_REPRESENTATION('',(#13),#1777);
#11=SHAPE_REPRESENTATION_RELATIONSHIP('SRR','None',#1784,#12);
#12=ADVANCED_BREP_SHAPE_REPRESENTATION('',(#14),#1776);
#13=STYLED_ITEM('',(#1794),#14);
#14=MANIFOLD_SOLID_BREP('Body1',#1037);
#15=B_SPLINE_CURVE_WITH_KNOTS('',3,(#1605,#1606,#1607,#1608,#1609,#1610,
#1611,#1612,#1613,#1614),.UNSPECIFIED.,.F.,.F.,(4,2,2,2,4),(0.308370457887817,
0.32728133100556,0.346192204123303,0.366297379414486,0.386402554705669),
 .UNSPECIFIED.);
#16=B_SPLINE_CURVE_WITH_KNOTS('',3,(#1617,#1618,#1619,#1620,#1621,#1622,
#1623,#1624,#1625,#1626),.UNSPECIFIED.,.F.,.F.,(4,2,2,2,4),(0.230334955425454,
0.250097128864665,0.269859302303876,0.289114880095849,0.308370457887821),
 .UNSPECIFIED.);
#17=CYLINDRICAL_SURFACE('',#1057,4.);
#18=CYLINDRICAL_SURFACE('',#1058,1.);
#19=CYLINDRICAL_SURFACE('',#1062,1.);
#20=CYLINDRICAL_SURFACE('',#1073,0.5);
#21=CYLINDRICAL_SURFACE('',#1082,2.);
#22=CYLINDRICAL_SURFACE('',#1088,0.5);
#23=CYLINDRICAL_SURFACE('',#1089,2.74999999999999);
#24=CYLINDRICAL_SURFACE('',#1098,2.);
#25=CYLINDRICAL_SURFACE('',#1122,12.);
#26=CYLINDRICAL_SURFACE('',#1125,5.17808979545129);
#27=CYLINDRICAL_SURFACE('',#1126,4.65000000000003);
#28=CYLINDRICAL_SURFACE('',#1127,5.17808979545137);
#29=CYLINDRICAL_SURFACE('',#1128,5.00308975726537);
#30=CYLINDRICAL_SURFACE('',#1129,4.4750000000024);
#31=CYLINDRICAL_SURFACE('',#1130,5.00308975726767);
#32=CYLINDRICAL_SURFACE('',#1134,2.5);
#33=CYLINDRICAL_SURFACE('',#1145,2.75000000000006);
#34=CYLINDRICAL_SURFACE('',#1147,2.74999999999999);
#35=CYLINDRICAL_SURFACE('',#1148,1.25);
#36=CYLINDRICAL_SURFACE('',#1149,1.25);
#37=CYLINDRICAL_SURFACE('',#1150,1.25);
#38=CYLINDRICAL_SURFACE('',#1151,1.25);
#39=CYLINDRICAL_SURFACE('',#1152,1.99999999999999);
#40=CYLINDRICAL_SURFACE('',#1153,1.9);
#41=CYLINDRICAL_SURFACE('',#1154,1.9);
#42=CYLINDRICAL_SURFACE('',#1155,2.74999999999999);
#43=CYLINDRICAL_SURFACE('',#1156,1.99999999999999);
#44=CIRCLE('',#1052,2.5);
#45=CIRCLE('',#1053,4.);
#46=CIRCLE('',#1055,2.5);
#47=CIRCLE('',#1056,4.);
#48=CIRCLE('',#1059,1.);
#49=CIRCLE('',#1060,1.);
#50=CIRCLE('',#1063,1.);
#51=CIRCLE('',#1064,1.);
#52=CIRCLE('',#1066,12.);
#53=CIRCLE('',#1067,1.9);
#54=CIRCLE('',#1068,1.9);
#55=CIRCLE('',#1069,1.99999999999999);
#56=CIRCLE('',#1070,1.99999999999999);
#57=CIRCLE('',#1074,0.5);
#58=CIRCLE('',#1075,0.5);
#59=CIRCLE('',#1078,2.75000000000006);
#60=CIRCLE('',#1079,2.74999999999999);
#61=CIRCLE('',#1080,2.74999999999999);
#62=CIRCLE('',#1081,2.74999999999999);
#63=CIRCLE('',#1083,2.);
#64=CIRCLE('',#1084,2.);
#65=CIRCLE('',#1086,2.);
#66=CIRCLE('',#1090,2.74999999999999);
#67=CIRCLE('',#1092,4.4750000000024);
#68=CIRCLE('',#1093,5.00308975726767);
#69=CIRCLE('',#1094,5.00308975726537);
#70=CIRCLE('',#1095,4.65000000000003);
#71=CIRCLE('',#1096,5.17808979545137);
#72=CIRCLE('',#1097,5.17808979545129);
#73=CIRCLE('',#1099,2.);
#74=CIRCLE('',#1101,4.65000000000003);
#75=CIRCLE('',#1102,5.17808979545129);
#76=CIRCLE('',#1103,5.17808979545137);
#77=CIRCLE('',#1104,4.4750000000024);
#78=CIRCLE('',#1105,5.00308975726537);
#79=CIRCLE('',#1106,5.00308975726767);
#80=CIRCLE('',#1109,2.74999999999999);
#81=CIRCLE('',#1110,2.75000000000006);
#82=CIRCLE('',#1111,2.74999999999999);
#83=CIRCLE('',#1112,1.25);
#84=CIRCLE('',#1113,1.25);
#85=CIRCLE('',#1114,1.25);
#86=CIRCLE('',#1115,1.25);
#87=CIRCLE('',#1117,12.);
#88=CIRCLE('',#1118,1.9);
#89=CIRCLE('',#1119,1.9);
#90=CIRCLE('',#1120,1.99999999999999);
#91=CIRCLE('',#1121,1.99999999999999);
#92=CIRCLE('',#1138,1.25);
#93=CIRCLE('',#1140,1.25);
#94=CIRCLE('',#1142,1.25);
#95=CIRCLE('',#1144,1.25);
#96=FACE_BOUND('',#173,.T.);
#97=FACE_BOUND('',#174,.T.);
#98=FACE_BOUND('',#175,.T.);
#99=FACE_BOUND('',#177,.T.);
#100=FACE_BOUND('',#178,.T.);
#101=FACE_BOUND('',#179,.T.);
#102=FACE_BOUND('',#185,.T.);
#103=FACE_BOUND('',#186,.T.);
#104=FACE_BOUND('',#187,.T.);
#105=FACE_BOUND('',#188,.T.);
#106=FACE_BOUND('',#200,.T.);
#107=FACE_BOUND('',#201,.T.);
#108=FACE_BOUND('',#204,.T.);
#109=FACE_BOUND('',#205,.T.);
#110=FACE_BOUND('',#208,.T.);
#111=FACE_BOUND('',#209,.T.);
#112=FACE_BOUND('',#210,.T.);
#113=FACE_BOUND('',#211,.T.);
#114=FACE_BOUND('',#213,.T.);
#115=FACE_BOUND('',#214,.T.);
#116=FACE_BOUND('',#215,.T.);
#117=FACE_BOUND('',#216,.T.);
#118=FACE_OUTER_BOUND('',#172,.T.);
#119=FACE_OUTER_BOUND('',#176,.T.);
#120=FACE_OUTER_BOUND('',#180,.T.);
#121=FACE_OUTER_BOUND('',#181,.T.);
#122=FACE_OUTER_BOUND('',#182,.T.);
#123=FACE_OUTER_BOUND('',#183,.T.);
#124=FACE_OUTER_BOUND('',#184,.T.);
#125=FACE_OUTER_BOUND('',#189,.T.);
#126=FACE_OUTER_BOUND('',#190,.T.);
#127=FACE_OUTER_BOUND('',#191,.T.);
#128=FACE_OUTER_BOUND('',#192,.T.);
#129=FACE_OUTER_BOUND('',#193,.T.);
#130=FACE_OUTER_BOUND('',#194,.T.);
#131=FACE_OUTER_BOUND('',#195,.T.);
#132=FACE_OUTER_BOUND('',#196,.T.);
#133=FACE_OUTER_BOUND('',#197,.T.);
#134=FACE_OUTER_BOUND('',#198,.T.);
#135=FACE_OUTER_BOUND('',#199,.T.);
#136=FACE_OUTER_BOUND('',#202,.T.);
#137=FACE_OUTER_BOUND('',#203,.T.);
#138=FACE_OUTER_BOUND('',#206,.T.);
#139=FACE_OUTER_BOUND('',#207,.T.);
#140=FACE_OUTER_BOUND('',#212,.T.);
#141=FACE_OUTER_BOUND('',#217,.T.);
#142=FACE_OUTER_BOUND('',#218,.T.);
#143=FACE_OUTER_BOUND('',#219,.T.);
#144=FACE_OUTER_BOUND('',#220,.T.);
#145=FACE_OUTER_BOUND('',#221,.T.);
#146=FACE_OUTER_BOUND('',#222,.T.);
#147=FACE_OUTER_BOUND('',#223,.T.);
#148=FACE_OUTER_BOUND('',#224,.T.);
#149=FACE_OUTER_BOUND('',#225,.T.);
#150=FACE_OUTER_BOUND('',#226,.T.);
#151=FACE_OUTER_BOUND('',#227,.T.);
#152=FACE_OUTER_BOUND('',#228,.T.);
#153=FACE_OUTER_BOUND('',#229,.T.);
#154=FACE_OUTER_BOUND('',#230,.T.);
#155=FACE_OUTER_BOUND('',#231,.T.);
#156=FACE_OUTER_BOUND('',#232,.T.);
#157=FACE_OUTER_BOUND('',#233,.T.);
#158=FACE_OUTER_BOUND('',#234,.T.);
#159=FACE_OUTER_BOUND('',#235,.T.);
#160=FACE_OUTER_BOUND('',#236,.T.);
#161=FACE_OUTER_BOUND('',#237,.T.);
#162=FACE_OUTER_BOUND('',#238,.T.);
#163=FACE_OUTER_BOUND('',#239,.T.);
#164=FACE_OUTER_BOUND('',#240,.T.);
#165=FACE_OUTER_BOUND('',#241,.T.);
#166=FACE_OUTER_BOUND('',#242,.T.);
#167=FACE_OUTER_BOUND('',#243,.T.);
#168=FACE_OUTER_BOUND('',#244,.T.);
#169=FACE_OUTER_BOUND('',#245,.T.);
#170=FACE_OUTER_BOUND('',#246,.T.);
#171=FACE_OUTER_BOUND('',#247,.T.);
#172=EDGE_LOOP('',(#668,#669,#670,#671));
#173=EDGE_LOOP('',(#672,#673,#674,#675));
#174=EDGE_LOOP('',(#676));
#175=EDGE_LOOP('',(#677));
#176=EDGE_LOOP('',(#678,#679,#680,#681));
#177=EDGE_LOOP('',(#682));
#178=EDGE_LOOP('',(#683));
#179=EDGE_LOOP('',(#684,#685,#686,#687));
#180=EDGE_LOOP('',(#688,#689,#690,#691));
#181=EDGE_LOOP('',(#692,#693,#694,#695));
#182=EDGE_LOOP('',(#696,#697,#698,#699));
#183=EDGE_LOOP('',(#700,#701,#702,#703));
#184=EDGE_LOOP('',(#704,#705,#706,#707,#708,#709,#710,#711,#712,#713));
#185=EDGE_LOOP('',(#714));
#186=EDGE_LOOP('',(#715));
#187=EDGE_LOOP('',(#716));
#188=EDGE_LOOP('',(#717));
#189=EDGE_LOOP('',(#718,#719,#720,#721));
#190=EDGE_LOOP('',(#722,#723,#724,#725));
#191=EDGE_LOOP('',(#726,#727,#728,#729));
#192=EDGE_LOOP('',(#730,#731,#732,#733,#734));
#193=EDGE_LOOP('',(#735,#736,#737,#738,#739,#740,#741,#742,#743,#744));
#194=EDGE_LOOP('',(#745,#746,#747,#748));
#195=EDGE_LOOP('',(#749,#750,#751,#752,#753,#754));
#196=EDGE_LOOP('',(#755,#756,#757,#758));
#197=EDGE_LOOP('',(#759,#760,#761,#762));
#198=EDGE_LOOP('',(#763,#764,#765,#766,#767));
#199=EDGE_LOOP('',(#768,#769,#770,#771));
#200=EDGE_LOOP('',(#772,#773,#774));
#201=EDGE_LOOP('',(#775,#776,#777));
#202=EDGE_LOOP('',(#778,#779,#780,#781));
#203=EDGE_LOOP('',(#782,#783,#784,#785));
#204=EDGE_LOOP('',(#786,#787,#788));
#205=EDGE_LOOP('',(#789,#790,#791));
#206=EDGE_LOOP('',(#792,#793,#794,#795,#796,#797,#798,#799,#800,#801,#802,
#803));
#207=EDGE_LOOP('',(#804,#805,#806,#807,#808,#809,#810,#811,#812,#813,#814,
#815,#816,#817,#818,#819,#820,#821,#822,#823,#824,#825));
#208=EDGE_LOOP('',(#826));
#209=EDGE_LOOP('',(#827));
#210=EDGE_LOOP('',(#828));
#211=EDGE_LOOP('',(#829));
#212=EDGE_LOOP('',(#830,#831,#832,#833,#834,#835,#836,#837));
#213=EDGE_LOOP('',(#838));
#214=EDGE_LOOP('',(#839));
#215=EDGE_LOOP('',(#840));
#216=EDGE_LOOP('',(#841));
#217=EDGE_LOOP('',(#842,#843,#844,#845));
#218=EDGE_LOOP('',(#846,#847,#848,#849));
#219=EDGE_LOOP('',(#850,#851,#852,#853));
#220=EDGE_LOOP('',(#854,#855,#856,#857));
#221=EDGE_LOOP('',(#858,#859,#860,#861));
#222=EDGE_LOOP('',(#862,#863,#864,#865));
#223=EDGE_LOOP('',(#866,#867,#868,#869));
#224=EDGE_LOOP('',(#870,#871,#872,#873));
#225=EDGE_LOOP('',(#874,#875,#876,#877));
#226=EDGE_LOOP('',(#878,#879,#880,#881,#882));
#227=EDGE_LOOP('',(#883,#884,#885,#886));
#228=EDGE_LOOP('',(#887,#888,#889,#890));
#229=EDGE_LOOP('',(#891,#892,#893,#894));
#230=EDGE_LOOP('',(#895,#896,#897,#898));
#231=EDGE_LOOP('',(#899,#900,#901,#902));
#232=EDGE_LOOP('',(#903));
#233=EDGE_LOOP('',(#904));
#234=EDGE_LOOP('',(#905));
#235=EDGE_LOOP('',(#906));
#236=EDGE_LOOP('',(#907,#908,#909,#910));
#237=EDGE_LOOP('',(#911,#912,#913,#914));
#238=EDGE_LOOP('',(#915,#916,#917,#918,#919));
#239=EDGE_LOOP('',(#920,#921,#922,#923));
#240=EDGE_LOOP('',(#924,#925,#926,#927));
#241=EDGE_LOOP('',(#928,#929,#930,#931));
#242=EDGE_LOOP('',(#932,#933,#934,#935));
#243=EDGE_LOOP('',(#936,#937,#938,#939));
#244=EDGE_LOOP('',(#940,#941,#942,#943));
#245=EDGE_LOOP('',(#944,#945,#946,#947));
#246=EDGE_LOOP('',(#948,#949,#950,#951));
#247=EDGE_LOOP('',(#952,#953,#954,#955));
#248=LINE('',#1465,#338);
#249=LINE('',#1467,#339);
#250=LINE('',#1469,#340);
#251=LINE('',#1470,#341);
#252=LINE('',#1473,#342);
#253=LINE('',#1475,#343);
#254=LINE('',#1477,#344);
#255=LINE('',#1478,#345);
#256=LINE('',#1486,#346);
#257=LINE('',#1488,#347);
#258=LINE('',#1490,#348);
#259=LINE('',#1491,#349);
#260=LINE('',#1498,#350);
#261=LINE('',#1500,#351);
#262=LINE('',#1502,#352);
#263=LINE('',#1503,#353);
#264=LINE('',#1505,#354);
#265=LINE('',#1511,#355);
#266=LINE('',#1514,#356);
#267=LINE('',#1517,#357);
#268=LINE('',#1519,#358);
#269=LINE('',#1520,#359);
#270=LINE('',#1525,#360);
#271=LINE('',#1529,#361);
#272=LINE('',#1531,#362);
#273=LINE('',#1533,#363);
#274=LINE('',#1537,#364);
#275=LINE('',#1539,#365);
#276=LINE('',#1540,#366);
#277=LINE('',#1551,#367);
#278=LINE('',#1552,#368);
#279=LINE('',#1555,#369);
#280=LINE('',#1556,#370);
#281=LINE('',#1561,#371);
#282=LINE('',#1565,#372);
#283=LINE('',#1567,#373);
#284=LINE('',#1568,#374);
#285=LINE('',#1571,#375);
#286=LINE('',#1575,#376);
#287=LINE('',#1579,#377);
#288=LINE('',#1583,#378);
#289=LINE('',#1589,#379);
#290=LINE('',#1593,#380);
#291=LINE('',#1597,#381);
#292=LINE('',#1598,#382);
#293=LINE('',#1601,#383);
#294=LINE('',#1602,#384);
#295=LINE('',#1616,#385);
#296=LINE('',#1629,#386);
#297=LINE('',#1632,#387);
#298=LINE('',#1635,#388);
#299=LINE('',#1636,#389);
#300=LINE('',#1652,#390);
#301=LINE('',#1655,#391);
#302=LINE('',#1656,#392);
#303=LINE('',#1670,#393);
#304=LINE('',#1671,#394);
#305=LINE('',#1674,#395);
#306=LINE('',#1675,#396);
#307=LINE('',#1679,#397);
#308=LINE('',#1682,#398);
#309=LINE('',#1686,#399);
#310=LINE('',#1687,#400);
#311=LINE('',#1698,#401);
#312=LINE('',#1701,#402);
#313=LINE('',#1702,#403);
#314=LINE('',#1712,#404);
#315=LINE('',#1713,#405);
#316=LINE('',#1717,#406);
#317=LINE('',#1718,#407);
#318=LINE('',#1720,#408);
#319=LINE('',#1723,#409);
#320=LINE('',#1724,#410);
#321=LINE('',#1726,#411);
#322=LINE('',#1729,#412);
#323=LINE('',#1731,#413);
#324=LINE('',#1732,#414);
#325=LINE('',#1734,#415);
#326=LINE('',#1736,#416);
#327=LINE('',#1738,#417);
#328=LINE('',#1753,#418);
#329=LINE('',#1755,#419);
#330=LINE('',#1758,#420);
#331=LINE('',#1760,#421);
#332=LINE('',#1762,#422);
#333=LINE('',#1764,#423);
#334=LINE('',#1766,#424);
#335=LINE('',#1768,#425);
#336=LINE('',#1770,#426);
#337=LINE('',#1773,#427);
#338=VECTOR('',#1161,10.);
#339=VECTOR('',#1162,10.);
#340=VECTOR('',#1163,10.);
#341=VECTOR('',#1164,10.);
#342=VECTOR('',#1165,10.);
#343=VECTOR('',#1166,10.);
#344=VECTOR('',#1167,10.);
#345=VECTOR('',#1168,10.);
#346=VECTOR('',#1175,10.);
#347=VECTOR('',#1176,10.);
#348=VECTOR('',#1177,10.);
#349=VECTOR('',#1178,10.);
#350=VECTOR('',#1183,10.);
#351=VECTOR('',#1184,10.);
#352=VECTOR('',#1185,10.);
#353=VECTOR('',#1186,10.);
#354=VECTOR('',#1189,4.);
#355=VECTOR('',#1194,10.);
#356=VECTOR('',#1197,10.);
#357=VECTOR('',#1200,10.);
#358=VECTOR('',#1201,10.);
#359=VECTOR('',#1202,10.);
#360=VECTOR('',#1207,10.);
#361=VECTOR('',#1212,10.);
#362=VECTOR('',#1213,10.);
#363=VECTOR('',#1214,10.);
#364=VECTOR('',#1217,10.);
#365=VECTOR('',#1218,10.);
#366=VECTOR('',#1219,10.);
#367=VECTOR('',#1230,10.);
#368=VECTOR('',#1231,10.);
#369=VECTOR('',#1234,10.);
#370=VECTOR('',#1235,10.);
#371=VECTOR('',#1240,10.);
#372=VECTOR('',#1245,10.);
#373=VECTOR('',#1246,10.);
#374=VECTOR('',#1247,10.);
#375=VECTOR('',#1250,10.);
#376=VECTOR('',#1253,10.);
#377=VECTOR('',#1256,10.);
#378=VECTOR('',#1259,10.);
#379=VECTOR('',#1266,10.);
#380=VECTOR('',#1271,10.);
#381=VECTOR('',#1274,10.);
#382=VECTOR('',#1275,10.);
#383=VECTOR('',#1278,10.);
#384=VECTOR('',#1279,10.);
#385=VECTOR('',#1282,10.);
#386=VECTOR('',#1285,10.);
#387=VECTOR('',#1288,10.);
#388=VECTOR('',#1291,10.);
#389=VECTOR('',#1292,10.);
#390=VECTOR('',#1309,10.);
#391=VECTOR('',#1312,10.);
#392=VECTOR('',#1313,10.);
#393=VECTOR('',#1328,10.);
#394=VECTOR('',#1329,10.);
#395=VECTOR('',#1332,10.);
#396=VECTOR('',#1333,10.);
#397=VECTOR('',#1336,10.);
#398=VECTOR('',#1339,10.);
#399=VECTOR('',#1342,10.);
#400=VECTOR('',#1343,10.);
#401=VECTOR('',#1354,10.);
#402=VECTOR('',#1357,10.);
#403=VECTOR('',#1358,10.);
#404=VECTOR('',#1369,10.);
#405=VECTOR('',#1370,10.);
#406=VECTOR('',#1377,10.);
#407=VECTOR('',#1378,10.);
#408=VECTOR('',#1381,10.);
#409=VECTOR('',#1386,10.);
#410=VECTOR('',#1387,10.);
#411=VECTOR('',#1390,10.);
#412=VECTOR('',#1395,10.);
#413=VECTOR('',#1398,10.);
#414=VECTOR('',#1399,10.);
#415=VECTOR('',#1402,10.);
#416=VECTOR('',#1405,2.5);
#417=VECTOR('',#1408,10.);
#418=VECTOR('',#1429,10.);
#419=VECTOR('',#1432,10.);
#420=VECTOR('',#1437,1.25);
#421=VECTOR('',#1440,1.25);
#422=VECTOR('',#1443,1.25);
#423=VECTOR('',#1446,1.25);
#424=VECTOR('',#1449,1.49999999999999);
#425=VECTOR('',#1452,1.5);
#426=VECTOR('',#1455,1.5);
#427=VECTOR('',#1460,1.49999999999999);
#428=VERTEX_POINT('',#1463);
#429=VERTEX_POINT('',#1464);
#430=VERTEX_POINT('',#1466);
#431=VERTEX_POINT('',#1468);
#432=VERTEX_POINT('',#1471);
#433=VERTEX_POINT('',#1472);
#434=VERTEX_POINT('',#1474);
#435=VERTEX_POINT('',#1476);
#436=VERTEX_POINT('',#1479);
#437=VERTEX_POINT('',#1481);
#438=VERTEX_POINT('',#1484);
#439=VERTEX_POINT('',#1485);
#440=VERTEX_POINT('',#1487);
#441=VERTEX_POINT('',#1489);
#442=VERTEX_POINT('',#1492);
#443=VERTEX_POINT('',#1494);
#444=VERTEX_POINT('',#1496);
#445=VERTEX_POINT('',#1497);
#446=VERTEX_POINT('',#1499);
#447=VERTEX_POINT('',#1501);
#448=VERTEX_POINT('',#1507);
#449=VERTEX_POINT('',#1508);
#450=VERTEX_POINT('',#1510);
#451=VERTEX_POINT('',#1512);
#452=VERTEX_POINT('',#1516);
#453=VERTEX_POINT('',#1518);
#454=VERTEX_POINT('',#1522);
#455=VERTEX_POINT('',#1524);
#456=VERTEX_POINT('',#1528);
#457=VERTEX_POINT('',#1530);
#458=VERTEX_POINT('',#1532);
#459=VERTEX_POINT('',#1534);
#460=VERTEX_POINT('',#1536);
#461=VERTEX_POINT('',#1538);
#462=VERTEX_POINT('',#1541);
#463=VERTEX_POINT('',#1543);
#464=VERTEX_POINT('',#1545);
#465=VERTEX_POINT('',#1547);
#466=VERTEX_POINT('',#1550);
#467=VERTEX_POINT('',#1554);
#468=VERTEX_POINT('',#1558);
#469=VERTEX_POINT('',#1560);
#470=VERTEX_POINT('',#1564);
#471=VERTEX_POINT('',#1566);
#472=VERTEX_POINT('',#1570);
#473=VERTEX_POINT('',#1572);
#474=VERTEX_POINT('',#1574);
#475=VERTEX_POINT('',#1576);
#476=VERTEX_POINT('',#1578);
#477=VERTEX_POINT('',#1580);
#478=VERTEX_POINT('',#1582);
#479=VERTEX_POINT('',#1586);
#480=VERTEX_POINT('',#1588);
#481=VERTEX_POINT('',#1592);
#482=VERTEX_POINT('',#1594);
#483=VERTEX_POINT('',#1596);
#484=VERTEX_POINT('',#1600);
#485=VERTEX_POINT('',#1604);
#486=VERTEX_POINT('',#1615);
#487=VERTEX_POINT('',#1628);
#488=VERTEX_POINT('',#1630);
#489=VERTEX_POINT('',#1634);
#490=VERTEX_POINT('',#1637);
#491=VERTEX_POINT('',#1638);
#492=VERTEX_POINT('',#1640);
#493=VERTEX_POINT('',#1643);
#494=VERTEX_POINT('',#1644);
#495=VERTEX_POINT('',#1646);
#496=VERTEX_POINT('',#1650);
#497=VERTEX_POINT('',#1654);
#498=VERTEX_POINT('',#1657);
#499=VERTEX_POINT('',#1658);
#500=VERTEX_POINT('',#1660);
#501=VERTEX_POINT('',#1663);
#502=VERTEX_POINT('',#1664);
#503=VERTEX_POINT('',#1666);
#504=VERTEX_POINT('',#1673);
#505=VERTEX_POINT('',#1676);
#506=VERTEX_POINT('',#1678);
#507=VERTEX_POINT('',#1680);
#508=VERTEX_POINT('',#1683);
#509=VERTEX_POINT('',#1685);
#510=VERTEX_POINT('',#1688);
#511=VERTEX_POINT('',#1690);
#512=VERTEX_POINT('',#1692);
#513=VERTEX_POINT('',#1694);
#514=VERTEX_POINT('',#1697);
#515=VERTEX_POINT('',#1699);
#516=VERTEX_POINT('',#1703);
#517=VERTEX_POINT('',#1705);
#518=VERTEX_POINT('',#1707);
#519=VERTEX_POINT('',#1709);
#520=VERTEX_POINT('',#1741);
#521=VERTEX_POINT('',#1744);
#522=VERTEX_POINT('',#1747);
#523=VERTEX_POINT('',#1750);
#524=EDGE_CURVE('',#428,#429,#248,.T.);
#525=EDGE_CURVE('',#430,#428,#249,.T.);
#526=EDGE_CURVE('',#431,#430,#250,.T.);
#527=EDGE_CURVE('',#429,#431,#251,.T.);
#528=EDGE_CURVE('',#432,#433,#252,.T.);
#529=EDGE_CURVE('',#434,#432,#253,.T.);
#530=EDGE_CURVE('',#435,#434,#254,.T.);
#531=EDGE_CURVE('',#433,#435,#255,.T.);
#532=EDGE_CURVE('',#436,#436,#44,.T.);
#533=EDGE_CURVE('',#437,#437,#45,.T.);
#534=EDGE_CURVE('',#438,#439,#256,.T.);
#535=EDGE_CURVE('',#438,#440,#257,.T.);
#536=EDGE_CURVE('',#441,#440,#258,.T.);
#537=EDGE_CURVE('',#439,#441,#259,.F.);
#538=EDGE_CURVE('',#442,#442,#46,.F.);
#539=EDGE_CURVE('',#443,#443,#47,.T.);
#540=EDGE_CURVE('',#444,#445,#260,.F.);
#541=EDGE_CURVE('',#444,#446,#261,.F.);
#542=EDGE_CURVE('',#446,#447,#262,.F.);
#543=EDGE_CURVE('',#447,#445,#263,.F.);
#544=EDGE_CURVE('',#443,#437,#264,.T.);
#545=EDGE_CURVE('',#448,#449,#48,.T.);
#546=EDGE_CURVE('',#448,#450,#265,.T.);
#547=EDGE_CURVE('',#450,#451,#49,.T.);
#548=EDGE_CURVE('',#451,#449,#266,.T.);
#549=EDGE_CURVE('',#452,#448,#267,.T.);
#550=EDGE_CURVE('',#453,#452,#268,.T.);
#551=EDGE_CURVE('',#453,#450,#269,.T.);
#552=EDGE_CURVE('',#454,#452,#50,.T.);
#553=EDGE_CURVE('',#454,#455,#270,.T.);
#554=EDGE_CURVE('',#455,#453,#51,.T.);
#555=EDGE_CURVE('',#449,#456,#271,.T.);
#556=EDGE_CURVE('',#457,#456,#272,.T.);
#557=EDGE_CURVE('',#457,#458,#273,.T.);
#558=EDGE_CURVE('',#458,#459,#52,.T.);
#559=EDGE_CURVE('',#459,#460,#274,.T.);
#560=EDGE_CURVE('',#461,#460,#275,.T.);
#561=EDGE_CURVE('',#461,#454,#276,.T.);
#562=EDGE_CURVE('',#462,#462,#53,.F.);
#563=EDGE_CURVE('',#463,#463,#54,.F.);
#564=EDGE_CURVE('',#464,#464,#55,.F.);
#565=EDGE_CURVE('',#465,#465,#56,.F.);
#566=EDGE_CURVE('',#451,#466,#277,.T.);
#567=EDGE_CURVE('',#456,#466,#278,.T.);
#568=EDGE_CURVE('',#467,#461,#279,.T.);
#569=EDGE_CURVE('',#455,#467,#280,.F.);
#570=EDGE_CURVE('',#468,#429,#57,.T.);
#571=EDGE_CURVE('',#468,#469,#281,.T.);
#572=EDGE_CURVE('',#428,#469,#58,.T.);
#573=EDGE_CURVE('',#470,#469,#282,.T.);
#574=EDGE_CURVE('',#470,#471,#283,.T.);
#575=EDGE_CURVE('',#430,#471,#284,.T.);
#576=EDGE_CURVE('',#472,#468,#285,.T.);
#577=EDGE_CURVE('',#473,#472,#59,.T.);
#578=EDGE_CURVE('',#473,#474,#286,.T.);
#579=EDGE_CURVE('',#475,#474,#60,.T.);
#580=EDGE_CURVE('',#476,#475,#287,.T.);
#581=EDGE_CURVE('',#477,#476,#61,.T.);
#582=EDGE_CURVE('',#478,#477,#288,.T.);
#583=EDGE_CURVE('',#470,#478,#62,.T.);
#584=EDGE_CURVE('',#439,#479,#63,.T.);
#585=EDGE_CURVE('',#479,#480,#289,.T.);
#586=EDGE_CURVE('',#480,#438,#64,.T.);
#587=EDGE_CURVE('',#481,#480,#290,.F.);
#588=EDGE_CURVE('',#482,#481,#65,.T.);
#589=EDGE_CURVE('',#483,#482,#291,.F.);
#590=EDGE_CURVE('',#440,#483,#292,.F.);
#591=EDGE_CURVE('',#484,#479,#293,.T.);
#592=EDGE_CURVE('',#481,#484,#294,.T.);
#593=EDGE_CURVE('',#485,#475,#15,.T.);
#594=EDGE_CURVE('',#485,#486,#295,.T.);
#595=EDGE_CURVE('',#476,#486,#16,.T.);
#596=EDGE_CURVE('',#487,#486,#296,.T.);
#597=EDGE_CURVE('',#488,#487,#66,.T.);
#598=EDGE_CURVE('',#488,#477,#297,.T.);
#599=EDGE_CURVE('',#489,#485,#298,.T.);
#600=EDGE_CURVE('',#487,#489,#299,.T.);
#601=EDGE_CURVE('',#490,#491,#67,.T.);
#602=EDGE_CURVE('',#491,#492,#68,.T.);
#603=EDGE_CURVE('',#492,#490,#69,.T.);
#604=EDGE_CURVE('',#493,#494,#70,.T.);
#605=EDGE_CURVE('',#494,#495,#71,.T.);
#606=EDGE_CURVE('',#495,#493,#72,.T.);
#607=EDGE_CURVE('',#484,#496,#73,.T.);
#608=EDGE_CURVE('',#496,#482,#300,.T.);
#609=EDGE_CURVE('',#497,#496,#301,.T.);
#610=EDGE_CURVE('',#483,#497,#302,.T.);
#611=EDGE_CURVE('',#498,#499,#74,.T.);
#612=EDGE_CURVE('',#499,#500,#75,.T.);
#613=EDGE_CURVE('',#500,#498,#76,.T.);
#614=EDGE_CURVE('',#501,#502,#77,.T.);
#615=EDGE_CURVE('',#502,#503,#78,.T.);
#616=EDGE_CURVE('',#503,#501,#79,.T.);
#617=EDGE_CURVE('',#497,#467,#303,.T.);
#618=EDGE_CURVE('',#466,#441,#304,.T.);
#619=EDGE_CURVE('',#504,#460,#305,.T.);
#620=EDGE_CURVE('',#504,#488,#306,.T.);
#621=EDGE_CURVE('',#489,#505,#80,.T.);
#622=EDGE_CURVE('',#505,#506,#307,.T.);
#623=EDGE_CURVE('',#506,#507,#81,.T.);
#624=EDGE_CURVE('',#507,#431,#308,.T.);
#625=EDGE_CURVE('',#471,#508,#82,.T.);
#626=EDGE_CURVE('',#508,#509,#309,.T.);
#627=EDGE_CURVE('',#457,#509,#310,.T.);
#628=EDGE_CURVE('',#510,#510,#83,.T.);
#629=EDGE_CURVE('',#511,#511,#84,.T.);
#630=EDGE_CURVE('',#512,#512,#85,.T.);
#631=EDGE_CURVE('',#513,#513,#86,.T.);
#632=EDGE_CURVE('',#514,#504,#311,.T.);
#633=EDGE_CURVE('',#514,#515,#87,.T.);
#634=EDGE_CURVE('',#509,#515,#312,.T.);
#635=EDGE_CURVE('',#508,#478,#313,.T.);
#636=EDGE_CURVE('',#516,#516,#88,.T.);
#637=EDGE_CURVE('',#517,#517,#89,.T.);
#638=EDGE_CURVE('',#518,#518,#90,.T.);
#639=EDGE_CURVE('',#519,#519,#91,.T.);
#640=EDGE_CURVE('',#459,#514,#314,.T.);
#641=EDGE_CURVE('',#458,#515,#315,.T.);
#642=EDGE_CURVE('',#500,#495,#316,.T.);
#643=EDGE_CURVE('',#499,#493,#317,.T.);
#644=EDGE_CURVE('',#498,#494,#318,.T.);
#645=EDGE_CURVE('',#503,#492,#319,.T.);
#646=EDGE_CURVE('',#502,#490,#320,.T.);
#647=EDGE_CURVE('',#501,#491,#321,.T.);
#648=EDGE_CURVE('',#507,#472,#322,.T.);
#649=EDGE_CURVE('',#432,#447,#323,.T.);
#650=EDGE_CURVE('',#434,#446,#324,.T.);
#651=EDGE_CURVE('',#433,#445,#325,.T.);
#652=EDGE_CURVE('',#442,#436,#326,.T.);
#653=EDGE_CURVE('',#444,#435,#327,.T.);
#654=EDGE_CURVE('',#520,#520,#92,.T.);
#655=EDGE_CURVE('',#521,#521,#93,.T.);
#656=EDGE_CURVE('',#522,#522,#94,.T.);
#657=EDGE_CURVE('',#523,#523,#95,.T.);
#658=EDGE_CURVE('',#506,#473,#328,.T.);
#659=EDGE_CURVE('',#505,#474,#329,.F.);
#660=EDGE_CURVE('',#511,#520,#330,.T.);
#661=EDGE_CURVE('',#510,#521,#331,.T.);
#662=EDGE_CURVE('',#513,#522,#332,.T.);
#663=EDGE_CURVE('',#512,#523,#333,.T.);
#664=EDGE_CURVE('',#464,#518,#334,.T.);
#665=EDGE_CURVE('',#463,#517,#335,.T.);
#666=EDGE_CURVE('',#462,#516,#336,.T.);
#667=EDGE_CURVE('',#465,#519,#337,.T.);
#668=ORIENTED_EDGE('',*,*,#524,.F.);
#669=ORIENTED_EDGE('',*,*,#525,.F.);
#670=ORIENTED_EDGE('',*,*,#526,.F.);
#671=ORIENTED_EDGE('',*,*,#527,.F.);
#672=ORIENTED_EDGE('',*,*,#528,.F.);
#673=ORIENTED_EDGE('',*,*,#529,.F.);
#674=ORIENTED_EDGE('',*,*,#530,.F.);
#675=ORIENTED_EDGE('',*,*,#531,.F.);
#676=ORIENTED_EDGE('',*,*,#532,.F.);
#677=ORIENTED_EDGE('',*,*,#533,.T.);
#678=ORIENTED_EDGE('',*,*,#534,.F.);
#679=ORIENTED_EDGE('',*,*,#535,.T.);
#680=ORIENTED_EDGE('',*,*,#536,.F.);
#681=ORIENTED_EDGE('',*,*,#537,.F.);
#682=ORIENTED_EDGE('',*,*,#538,.T.);
#683=ORIENTED_EDGE('',*,*,#539,.T.);
#684=ORIENTED_EDGE('',*,*,#540,.F.);
#685=ORIENTED_EDGE('',*,*,#541,.T.);
#686=ORIENTED_EDGE('',*,*,#542,.T.);
#687=ORIENTED_EDGE('',*,*,#543,.T.);
#688=ORIENTED_EDGE('',*,*,#539,.F.);
#689=ORIENTED_EDGE('',*,*,#544,.T.);
#690=ORIENTED_EDGE('',*,*,#533,.F.);
#691=ORIENTED_EDGE('',*,*,#544,.F.);
#692=ORIENTED_EDGE('',*,*,#545,.F.);
#693=ORIENTED_EDGE('',*,*,#546,.T.);
#694=ORIENTED_EDGE('',*,*,#547,.T.);
#695=ORIENTED_EDGE('',*,*,#548,.T.);
#696=ORIENTED_EDGE('',*,*,#546,.F.);
#697=ORIENTED_EDGE('',*,*,#549,.F.);
#698=ORIENTED_EDGE('',*,*,#550,.F.);
#699=ORIENTED_EDGE('',*,*,#551,.T.);
#700=ORIENTED_EDGE('',*,*,#552,.F.);
#701=ORIENTED_EDGE('',*,*,#553,.T.);
#702=ORIENTED_EDGE('',*,*,#554,.T.);
#703=ORIENTED_EDGE('',*,*,#550,.T.);
#704=ORIENTED_EDGE('',*,*,#545,.T.);
#705=ORIENTED_EDGE('',*,*,#555,.T.);
#706=ORIENTED_EDGE('',*,*,#556,.F.);
#707=ORIENTED_EDGE('',*,*,#557,.T.);
#708=ORIENTED_EDGE('',*,*,#558,.T.);
#709=ORIENTED_EDGE('',*,*,#559,.T.);
#710=ORIENTED_EDGE('',*,*,#560,.F.);
#711=ORIENTED_EDGE('',*,*,#561,.T.);
#712=ORIENTED_EDGE('',*,*,#552,.T.);
#713=ORIENTED_EDGE('',*,*,#549,.T.);
#714=ORIENTED_EDGE('',*,*,#562,.T.);
#715=ORIENTED_EDGE('',*,*,#563,.T.);
#716=ORIENTED_EDGE('',*,*,#564,.F.);
#717=ORIENTED_EDGE('',*,*,#565,.F.);
#718=ORIENTED_EDGE('',*,*,#548,.F.);
#719=ORIENTED_EDGE('',*,*,#566,.T.);
#720=ORIENTED_EDGE('',*,*,#567,.F.);
#721=ORIENTED_EDGE('',*,*,#555,.F.);
#722=ORIENTED_EDGE('',*,*,#553,.F.);
#723=ORIENTED_EDGE('',*,*,#561,.F.);
#724=ORIENTED_EDGE('',*,*,#568,.F.);
#725=ORIENTED_EDGE('',*,*,#569,.F.);
#726=ORIENTED_EDGE('',*,*,#570,.F.);
#727=ORIENTED_EDGE('',*,*,#571,.T.);
#728=ORIENTED_EDGE('',*,*,#572,.F.);
#729=ORIENTED_EDGE('',*,*,#524,.T.);
#730=ORIENTED_EDGE('',*,*,#572,.T.);
#731=ORIENTED_EDGE('',*,*,#573,.F.);
#732=ORIENTED_EDGE('',*,*,#574,.T.);
#733=ORIENTED_EDGE('',*,*,#575,.F.);
#734=ORIENTED_EDGE('',*,*,#525,.T.);
#735=ORIENTED_EDGE('',*,*,#571,.F.);
#736=ORIENTED_EDGE('',*,*,#576,.F.);
#737=ORIENTED_EDGE('',*,*,#577,.F.);
#738=ORIENTED_EDGE('',*,*,#578,.T.);
#739=ORIENTED_EDGE('',*,*,#579,.F.);
#740=ORIENTED_EDGE('',*,*,#580,.F.);
#741=ORIENTED_EDGE('',*,*,#581,.F.);
#742=ORIENTED_EDGE('',*,*,#582,.F.);
#743=ORIENTED_EDGE('',*,*,#583,.F.);
#744=ORIENTED_EDGE('',*,*,#573,.T.);
#745=ORIENTED_EDGE('',*,*,#584,.T.);
#746=ORIENTED_EDGE('',*,*,#585,.T.);
#747=ORIENTED_EDGE('',*,*,#586,.T.);
#748=ORIENTED_EDGE('',*,*,#534,.T.);
#749=ORIENTED_EDGE('',*,*,#586,.F.);
#750=ORIENTED_EDGE('',*,*,#587,.F.);
#751=ORIENTED_EDGE('',*,*,#588,.F.);
#752=ORIENTED_EDGE('',*,*,#589,.F.);
#753=ORIENTED_EDGE('',*,*,#590,.F.);
#754=ORIENTED_EDGE('',*,*,#535,.F.);
#755=ORIENTED_EDGE('',*,*,#585,.F.);
#756=ORIENTED_EDGE('',*,*,#591,.F.);
#757=ORIENTED_EDGE('',*,*,#592,.F.);
#758=ORIENTED_EDGE('',*,*,#587,.T.);
#759=ORIENTED_EDGE('',*,*,#593,.F.);
#760=ORIENTED_EDGE('',*,*,#594,.T.);
#761=ORIENTED_EDGE('',*,*,#595,.F.);
#762=ORIENTED_EDGE('',*,*,#580,.T.);
#763=ORIENTED_EDGE('',*,*,#595,.T.);
#764=ORIENTED_EDGE('',*,*,#596,.F.);
#765=ORIENTED_EDGE('',*,*,#597,.F.);
#766=ORIENTED_EDGE('',*,*,#598,.T.);
#767=ORIENTED_EDGE('',*,*,#581,.T.);
#768=ORIENTED_EDGE('',*,*,#594,.F.);
#769=ORIENTED_EDGE('',*,*,#599,.F.);
#770=ORIENTED_EDGE('',*,*,#600,.F.);
#771=ORIENTED_EDGE('',*,*,#596,.T.);
#772=ORIENTED_EDGE('',*,*,#601,.T.);
#773=ORIENTED_EDGE('',*,*,#602,.T.);
#774=ORIENTED_EDGE('',*,*,#603,.T.);
#775=ORIENTED_EDGE('',*,*,#604,.T.);
#776=ORIENTED_EDGE('',*,*,#605,.T.);
#777=ORIENTED_EDGE('',*,*,#606,.T.);
#778=ORIENTED_EDGE('',*,*,#607,.T.);
#779=ORIENTED_EDGE('',*,*,#608,.T.);
#780=ORIENTED_EDGE('',*,*,#588,.T.);
#781=ORIENTED_EDGE('',*,*,#592,.T.);
#782=ORIENTED_EDGE('',*,*,#608,.F.);
#783=ORIENTED_EDGE('',*,*,#609,.F.);
#784=ORIENTED_EDGE('',*,*,#610,.F.);
#785=ORIENTED_EDGE('',*,*,#589,.T.);
#786=ORIENTED_EDGE('',*,*,#611,.T.);
#787=ORIENTED_EDGE('',*,*,#612,.T.);
#788=ORIENTED_EDGE('',*,*,#613,.T.);
#789=ORIENTED_EDGE('',*,*,#614,.T.);
#790=ORIENTED_EDGE('',*,*,#615,.T.);
#791=ORIENTED_EDGE('',*,*,#616,.T.);
#792=ORIENTED_EDGE('',*,*,#547,.F.);
#793=ORIENTED_EDGE('',*,*,#551,.F.);
#794=ORIENTED_EDGE('',*,*,#554,.F.);
#795=ORIENTED_EDGE('',*,*,#569,.T.);
#796=ORIENTED_EDGE('',*,*,#617,.F.);
#797=ORIENTED_EDGE('',*,*,#609,.T.);
#798=ORIENTED_EDGE('',*,*,#607,.F.);
#799=ORIENTED_EDGE('',*,*,#591,.T.);
#800=ORIENTED_EDGE('',*,*,#584,.F.);
#801=ORIENTED_EDGE('',*,*,#537,.T.);
#802=ORIENTED_EDGE('',*,*,#618,.F.);
#803=ORIENTED_EDGE('',*,*,#566,.F.);
#804=ORIENTED_EDGE('',*,*,#560,.T.);
#805=ORIENTED_EDGE('',*,*,#619,.F.);
#806=ORIENTED_EDGE('',*,*,#620,.T.);
#807=ORIENTED_EDGE('',*,*,#597,.T.);
#808=ORIENTED_EDGE('',*,*,#600,.T.);
#809=ORIENTED_EDGE('',*,*,#621,.T.);
#810=ORIENTED_EDGE('',*,*,#622,.T.);
#811=ORIENTED_EDGE('',*,*,#623,.T.);
#812=ORIENTED_EDGE('',*,*,#624,.T.);
#813=ORIENTED_EDGE('',*,*,#526,.T.);
#814=ORIENTED_EDGE('',*,*,#575,.T.);
#815=ORIENTED_EDGE('',*,*,#625,.T.);
#816=ORIENTED_EDGE('',*,*,#626,.T.);
#817=ORIENTED_EDGE('',*,*,#627,.F.);
#818=ORIENTED_EDGE('',*,*,#556,.T.);
#819=ORIENTED_EDGE('',*,*,#567,.T.);
#820=ORIENTED_EDGE('',*,*,#618,.T.);
#821=ORIENTED_EDGE('',*,*,#536,.T.);
#822=ORIENTED_EDGE('',*,*,#590,.T.);
#823=ORIENTED_EDGE('',*,*,#610,.T.);
#824=ORIENTED_EDGE('',*,*,#617,.T.);
#825=ORIENTED_EDGE('',*,*,#568,.T.);
#826=ORIENTED_EDGE('',*,*,#628,.T.);
#827=ORIENTED_EDGE('',*,*,#629,.T.);
#828=ORIENTED_EDGE('',*,*,#630,.T.);
#829=ORIENTED_EDGE('',*,*,#631,.T.);
#830=ORIENTED_EDGE('',*,*,#620,.F.);
#831=ORIENTED_EDGE('',*,*,#632,.F.);
#832=ORIENTED_EDGE('',*,*,#633,.T.);
#833=ORIENTED_EDGE('',*,*,#634,.F.);
#834=ORIENTED_EDGE('',*,*,#626,.F.);
#835=ORIENTED_EDGE('',*,*,#635,.T.);
#836=ORIENTED_EDGE('',*,*,#582,.T.);
#837=ORIENTED_EDGE('',*,*,#598,.F.);
#838=ORIENTED_EDGE('',*,*,#636,.T.);
#839=ORIENTED_EDGE('',*,*,#637,.T.);
#840=ORIENTED_EDGE('',*,*,#638,.F.);
#841=ORIENTED_EDGE('',*,*,#639,.F.);
#842=ORIENTED_EDGE('',*,*,#633,.F.);
#843=ORIENTED_EDGE('',*,*,#640,.F.);
#844=ORIENTED_EDGE('',*,*,#558,.F.);
#845=ORIENTED_EDGE('',*,*,#641,.T.);
#846=ORIENTED_EDGE('',*,*,#559,.F.);
#847=ORIENTED_EDGE('',*,*,#640,.T.);
#848=ORIENTED_EDGE('',*,*,#632,.T.);
#849=ORIENTED_EDGE('',*,*,#619,.T.);
#850=ORIENTED_EDGE('',*,*,#634,.T.);
#851=ORIENTED_EDGE('',*,*,#641,.F.);
#852=ORIENTED_EDGE('',*,*,#557,.F.);
#853=ORIENTED_EDGE('',*,*,#627,.T.);
#854=ORIENTED_EDGE('',*,*,#606,.F.);
#855=ORIENTED_EDGE('',*,*,#642,.F.);
#856=ORIENTED_EDGE('',*,*,#612,.F.);
#857=ORIENTED_EDGE('',*,*,#643,.T.);
#858=ORIENTED_EDGE('',*,*,#604,.F.);
#859=ORIENTED_EDGE('',*,*,#643,.F.);
#860=ORIENTED_EDGE('',*,*,#611,.F.);
#861=ORIENTED_EDGE('',*,*,#644,.T.);
#862=ORIENTED_EDGE('',*,*,#605,.F.);
#863=ORIENTED_EDGE('',*,*,#644,.F.);
#864=ORIENTED_EDGE('',*,*,#613,.F.);
#865=ORIENTED_EDGE('',*,*,#642,.T.);
#866=ORIENTED_EDGE('',*,*,#603,.F.);
#867=ORIENTED_EDGE('',*,*,#645,.F.);
#868=ORIENTED_EDGE('',*,*,#615,.F.);
#869=ORIENTED_EDGE('',*,*,#646,.T.);
#870=ORIENTED_EDGE('',*,*,#601,.F.);
#871=ORIENTED_EDGE('',*,*,#646,.F.);
#872=ORIENTED_EDGE('',*,*,#614,.F.);
#873=ORIENTED_EDGE('',*,*,#647,.T.);
#874=ORIENTED_EDGE('',*,*,#602,.F.);
#875=ORIENTED_EDGE('',*,*,#647,.F.);
#876=ORIENTED_EDGE('',*,*,#616,.F.);
#877=ORIENTED_EDGE('',*,*,#645,.T.);
#878=ORIENTED_EDGE('',*,*,#570,.T.);
#879=ORIENTED_EDGE('',*,*,#527,.T.);
#880=ORIENTED_EDGE('',*,*,#624,.F.);
#881=ORIENTED_EDGE('',*,*,#648,.T.);
#882=ORIENTED_EDGE('',*,*,#576,.T.);
#883=ORIENTED_EDGE('',*,*,#529,.T.);
#884=ORIENTED_EDGE('',*,*,#649,.T.);
#885=ORIENTED_EDGE('',*,*,#542,.F.);
#886=ORIENTED_EDGE('',*,*,#650,.F.);
#887=ORIENTED_EDGE('',*,*,#528,.T.);
#888=ORIENTED_EDGE('',*,*,#651,.T.);
#889=ORIENTED_EDGE('',*,*,#543,.F.);
#890=ORIENTED_EDGE('',*,*,#649,.F.);
#891=ORIENTED_EDGE('',*,*,#538,.F.);
#892=ORIENTED_EDGE('',*,*,#652,.T.);
#893=ORIENTED_EDGE('',*,*,#532,.T.);
#894=ORIENTED_EDGE('',*,*,#652,.F.);
#895=ORIENTED_EDGE('',*,*,#531,.T.);
#896=ORIENTED_EDGE('',*,*,#653,.F.);
#897=ORIENTED_EDGE('',*,*,#540,.T.);
#898=ORIENTED_EDGE('',*,*,#651,.F.);
#899=ORIENTED_EDGE('',*,*,#530,.T.);
#900=ORIENTED_EDGE('',*,*,#650,.T.);
#901=ORIENTED_EDGE('',*,*,#541,.F.);
#902=ORIENTED_EDGE('',*,*,#653,.T.);
#903=ORIENTED_EDGE('',*,*,#654,.F.);
#904=ORIENTED_EDGE('',*,*,#655,.F.);
#905=ORIENTED_EDGE('',*,*,#656,.F.);
#906=ORIENTED_EDGE('',*,*,#657,.F.);
#907=ORIENTED_EDGE('',*,*,#658,.T.);
#908=ORIENTED_EDGE('',*,*,#577,.T.);
#909=ORIENTED_EDGE('',*,*,#648,.F.);
#910=ORIENTED_EDGE('',*,*,#623,.F.);
#911=ORIENTED_EDGE('',*,*,#659,.T.);
#912=ORIENTED_EDGE('',*,*,#578,.F.);
#913=ORIENTED_EDGE('',*,*,#658,.F.);
#914=ORIENTED_EDGE('',*,*,#622,.F.);
#915=ORIENTED_EDGE('',*,*,#593,.T.);
#916=ORIENTED_EDGE('',*,*,#579,.T.);
#917=ORIENTED_EDGE('',*,*,#659,.F.);
#918=ORIENTED_EDGE('',*,*,#621,.F.);
#919=ORIENTED_EDGE('',*,*,#599,.T.);
#920=ORIENTED_EDGE('',*,*,#629,.F.);
#921=ORIENTED_EDGE('',*,*,#660,.T.);
#922=ORIENTED_EDGE('',*,*,#654,.T.);
#923=ORIENTED_EDGE('',*,*,#660,.F.);
#924=ORIENTED_EDGE('',*,*,#628,.F.);
#925=ORIENTED_EDGE('',*,*,#661,.T.);
#926=ORIENTED_EDGE('',*,*,#655,.T.);
#927=ORIENTED_EDGE('',*,*,#661,.F.);
#928=ORIENTED_EDGE('',*,*,#631,.F.);
#929=ORIENTED_EDGE('',*,*,#662,.T.);
#930=ORIENTED_EDGE('',*,*,#656,.T.);
#931=ORIENTED_EDGE('',*,*,#662,.F.);
#932=ORIENTED_EDGE('',*,*,#630,.F.);
#933=ORIENTED_EDGE('',*,*,#663,.T.);
#934=ORIENTED_EDGE('',*,*,#657,.T.);
#935=ORIENTED_EDGE('',*,*,#663,.F.);
#936=ORIENTED_EDGE('',*,*,#564,.T.);
#937=ORIENTED_EDGE('',*,*,#664,.T.);
#938=ORIENTED_EDGE('',*,*,#638,.T.);
#939=ORIENTED_EDGE('',*,*,#664,.F.);
#940=ORIENTED_EDGE('',*,*,#563,.F.);
#941=ORIENTED_EDGE('',*,*,#665,.T.);
#942=ORIENTED_EDGE('',*,*,#637,.F.);
#943=ORIENTED_EDGE('',*,*,#665,.F.);
#944=ORIENTED_EDGE('',*,*,#562,.F.);
#945=ORIENTED_EDGE('',*,*,#666,.T.);
#946=ORIENTED_EDGE('',*,*,#636,.F.);
#947=ORIENTED_EDGE('',*,*,#666,.F.);
#948=ORIENTED_EDGE('',*,*,#574,.F.);
#949=ORIENTED_EDGE('',*,*,#583,.T.);
#950=ORIENTED_EDGE('',*,*,#635,.F.);
#951=ORIENTED_EDGE('',*,*,#625,.F.);
#952=ORIENTED_EDGE('',*,*,#565,.T.);
#953=ORIENTED_EDGE('',*,*,#667,.T.);
#954=ORIENTED_EDGE('',*,*,#639,.T.);
#955=ORIENTED_EDGE('',*,*,#667,.F.);
#956=PLANE('',#1051);
#957=PLANE('',#1054);
#958=PLANE('',#1061);
#959=PLANE('',#1065);
#960=PLANE('',#1071);
#961=PLANE('',#1072);
#962=PLANE('',#1076);
#963=PLANE('',#1077);
#964=PLANE('',#1085);
#965=PLANE('',#1087);
#966=PLANE('',#1091);
#967=PLANE('',#1100);
#968=PLANE('',#1107);
#969=PLANE('',#1108);
#970=PLANE('',#1116);
#971=PLANE('',#1123);
#972=PLANE('',#1124);
#973=PLANE('',#1131);
#974=PLANE('',#1132);
#975=PLANE('',#1133);
#976=PLANE('',#1135);
#977=PLANE('',#1136);
#978=PLANE('',#1137);
#979=PLANE('',#1139);
#980=PLANE('',#1141);
#981=PLANE('',#1143);
#982=PLANE('',#1146);
#983=ADVANCED_FACE('',(#118,#96,#97,#98),#956,.T.);
#984=ADVANCED_FACE('',(#119,#99,#100,#101),#957,.T.);
#985=ADVANCED_FACE('',(#120),#17,.F.);
#986=ADVANCED_FACE('',(#121),#18,.F.);
#987=ADVANCED_FACE('',(#122),#958,.T.);
#988=ADVANCED_FACE('',(#123),#19,.F.);
#989=ADVANCED_FACE('',(#124,#102,#103,#104,#105),#959,.T.);
#990=ADVANCED_FACE('',(#125),#960,.T.);
#991=ADVANCED_FACE('',(#126),#961,.T.);
#992=ADVANCED_FACE('',(#127),#20,.F.);
#993=ADVANCED_FACE('',(#128),#962,.F.);
#994=ADVANCED_FACE('',(#129),#963,.T.);
#995=ADVANCED_FACE('',(#130),#21,.T.);
#996=ADVANCED_FACE('',(#131),#964,.F.);
#997=ADVANCED_FACE('',(#132),#965,.F.);
#998=ADVANCED_FACE('',(#133),#22,.F.);
#999=ADVANCED_FACE('',(#134),#23,.T.);
#1000=ADVANCED_FACE('',(#135,#106,#107),#966,.F.);
#1001=ADVANCED_FACE('',(#136),#24,.T.);
#1002=ADVANCED_FACE('',(#137,#108,#109),#967,.F.);
#1003=ADVANCED_FACE('',(#138),#968,.T.);
#1004=ADVANCED_FACE('',(#139,#110,#111,#112,#113),#969,.F.);
#1005=ADVANCED_FACE('',(#140,#114,#115,#116,#117),#970,.F.);
#1006=ADVANCED_FACE('',(#141),#25,.F.);
#1007=ADVANCED_FACE('',(#142),#971,.F.);
#1008=ADVANCED_FACE('',(#143),#972,.F.);
#1009=ADVANCED_FACE('',(#144),#26,.F.);
#1010=ADVANCED_FACE('',(#145),#27,.F.);
#1011=ADVANCED_FACE('',(#146),#28,.F.);
#1012=ADVANCED_FACE('',(#147),#29,.F.);
#1013=ADVANCED_FACE('',(#148),#30,.F.);
#1014=ADVANCED_FACE('',(#149),#31,.F.);
#1015=ADVANCED_FACE('',(#150),#973,.F.);
#1016=ADVANCED_FACE('',(#151),#974,.F.);
#1017=ADVANCED_FACE('',(#152),#975,.F.);
#1018=ADVANCED_FACE('',(#153),#32,.F.);
#1019=ADVANCED_FACE('',(#154),#976,.T.);
#1020=ADVANCED_FACE('',(#155),#977,.F.);
#1021=ADVANCED_FACE('',(#156),#978,.F.);
#1022=ADVANCED_FACE('',(#157),#979,.F.);
#1023=ADVANCED_FACE('',(#158),#980,.F.);
#1024=ADVANCED_FACE('',(#159),#981,.F.);
#1025=ADVANCED_FACE('',(#160),#33,.T.);
#1026=ADVANCED_FACE('',(#161),#982,.T.);
#1027=ADVANCED_FACE('',(#162),#34,.T.);
#1028=ADVANCED_FACE('',(#163),#35,.F.);
#1029=ADVANCED_FACE('',(#164),#36,.F.);
#1030=ADVANCED_FACE('',(#165),#37,.F.);
#1031=ADVANCED_FACE('',(#166),#38,.F.);
#1032=ADVANCED_FACE('',(#167),#39,.F.);
#1033=ADVANCED_FACE('',(#168),#40,.F.);
#1034=ADVANCED_FACE('',(#169),#41,.F.);
#1035=ADVANCED_FACE('',(#170),#42,.T.);
#1036=ADVANCED_FACE('',(#171),#43,.F.);
#1037=CLOSED_SHELL('',(#983,#984,#985,#986,#987,#988,#989,#990,#991,#992,
#993,#994,#995,#996,#997,#998,#999,#1000,#1001,#1002,#1003,#1004,#1005,
#1006,#1007,#1008,#1009,#1010,#1011,#1012,#1013,#1014,#1015,#1016,#1017,
#1018,#1019,#1020,#1021,#1022,#1023,#1024,#1025,#1026,#1027,#1028,#1029,
#1030,#1031,#1032,#1033,#1034,#1035,#1036));
#1038=DERIVED_UNIT_ELEMENT(#1040,1.);
#1039=DERIVED_UNIT_ELEMENT(#1779,-3.);
#1040=(
MASS_UNIT()
NAMED_UNIT(*)
SI_UNIT(.KILO.,.GRAM.)
);
#1041=DERIVED_UNIT((#1038,#1039));
#1042=MEASURE_REPRESENTATION_ITEM('density measure',
POSITIVE_RATIO_MEASURE(7850.),#1041);
#1043=PROPERTY_DEFINITION_REPRESENTATION(#1048,#1045);
#1044=PROPERTY_DEFINITION_REPRESENTATION(#1049,#1046);
#1045=REPRESENTATION('material name',(#1047),#1776);
#1046=REPRESENTATION('density',(#1042),#1776);
#1047=DESCRIPTIVE_REPRESENTATION_ITEM('Steel','Steel');
#1048=PROPERTY_DEFINITION('material property','material name',#1786);
#1049=PROPERTY_DEFINITION('material property','density of part',#1786);
#1050=AXIS2_PLACEMENT_3D('',#1461,#1157,#1158);
#1051=AXIS2_PLACEMENT_3D('',#1462,#1159,#1160);
#1052=AXIS2_PLACEMENT_3D('',#1480,#1169,#1170);
#1053=AXIS2_PLACEMENT_3D('',#1482,#1171,#1172);
#1054=AXIS2_PLACEMENT_3D('',#1483,#1173,#1174);
#1055=AXIS2_PLACEMENT_3D('',#1493,#1179,#1180);
#1056=AXIS2_PLACEMENT_3D('',#1495,#1181,#1182);
#1057=AXIS2_PLACEMENT_3D('',#1504,#1187,#1188);
#1058=AXIS2_PLACEMENT_3D('',#1506,#1190,#1191);
#1059=AXIS2_PLACEMENT_3D('',#1509,#1192,#1193);
#1060=AXIS2_PLACEMENT_3D('',#1513,#1195,#1196);
#1061=AXIS2_PLACEMENT_3D('',#1515,#1198,#1199);
#1062=AXIS2_PLACEMENT_3D('',#1521,#1203,#1204);
#1063=AXIS2_PLACEMENT_3D('',#1523,#1205,#1206);
#1064=AXIS2_PLACEMENT_3D('',#1526,#1208,#1209);
#1065=AXIS2_PLACEMENT_3D('',#1527,#1210,#1211);
#1066=AXIS2_PLACEMENT_3D('',#1535,#1215,#1216);
#1067=AXIS2_PLACEMENT_3D('',#1542,#1220,#1221);
#1068=AXIS2_PLACEMENT_3D('',#1544,#1222,#1223);
#1069=AXIS2_PLACEMENT_3D('',#1546,#1224,#1225);
#1070=AXIS2_PLACEMENT_3D('',#1548,#1226,#1227);
#1071=AXIS2_PLACEMENT_3D('',#1549,#1228,#1229);
#1072=AXIS2_PLACEMENT_3D('',#1553,#1232,#1233);
#1073=AXIS2_PLACEMENT_3D('',#1557,#1236,#1237);
#1074=AXIS2_PLACEMENT_3D('',#1559,#1238,#1239);
#1075=AXIS2_PLACEMENT_3D('',#1562,#1241,#1242);
#1076=AXIS2_PLACEMENT_3D('',#1563,#1243,#1244);
#1077=AXIS2_PLACEMENT_3D('',#1569,#1248,#1249);
#1078=AXIS2_PLACEMENT_3D('',#1573,#1251,#1252);
#1079=AXIS2_PLACEMENT_3D('',#1577,#1254,#1255);
#1080=AXIS2_PLACEMENT_3D('',#1581,#1257,#1258);
#1081=AXIS2_PLACEMENT_3D('',#1584,#1260,#1261);
#1082=AXIS2_PLACEMENT_3D('',#1585,#1262,#1263);
#1083=AXIS2_PLACEMENT_3D('',#1587,#1264,#1265);
#1084=AXIS2_PLACEMENT_3D('',#1590,#1267,#1268);
#1085=AXIS2_PLACEMENT_3D('',#1591,#1269,#1270);
#1086=AXIS2_PLACEMENT_3D('',#1595,#1272,#1273);
#1087=AXIS2_PLACEMENT_3D('',#1599,#1276,#1277);
#1088=AXIS2_PLACEMENT_3D('',#1603,#1280,#1281);
#1089=AXIS2_PLACEMENT_3D('',#1627,#1283,#1284);
#1090=AXIS2_PLACEMENT_3D('',#1631,#1286,#1287);
#1091=AXIS2_PLACEMENT_3D('',#1633,#1289,#1290);
#1092=AXIS2_PLACEMENT_3D('',#1639,#1293,#1294);
#1093=AXIS2_PLACEMENT_3D('',#1641,#1295,#1296);
#1094=AXIS2_PLACEMENT_3D('',#1642,#1297,#1298);
#1095=AXIS2_PLACEMENT_3D('',#1645,#1299,#1300);
#1096=AXIS2_PLACEMENT_3D('',#1647,#1301,#1302);
#1097=AXIS2_PLACEMENT_3D('',#1648,#1303,#1304);
#1098=AXIS2_PLACEMENT_3D('',#1649,#1305,#1306);
#1099=AXIS2_PLACEMENT_3D('',#1651,#1307,#1308);
#1100=AXIS2_PLACEMENT_3D('',#1653,#1310,#1311);
#1101=AXIS2_PLACEMENT_3D('',#1659,#1314,#1315);
#1102=AXIS2_PLACEMENT_3D('',#1661,#1316,#1317);
#1103=AXIS2_PLACEMENT_3D('',#1662,#1318,#1319);
#1104=AXIS2_PLACEMENT_3D('',#1665,#1320,#1321);
#1105=AXIS2_PLACEMENT_3D('',#1667,#1322,#1323);
#1106=AXIS2_PLACEMENT_3D('',#1668,#1324,#1325);
#1107=AXIS2_PLACEMENT_3D('',#1669,#1326,#1327);
#1108=AXIS2_PLACEMENT_3D('',#1672,#1330,#1331);
#1109=AXIS2_PLACEMENT_3D('',#1677,#1334,#1335);
#1110=AXIS2_PLACEMENT_3D('',#1681,#1337,#1338);
#1111=AXIS2_PLACEMENT_3D('',#1684,#1340,#1341);
#1112=AXIS2_PLACEMENT_3D('',#1689,#1344,#1345);
#1113=AXIS2_PLACEMENT_3D('',#1691,#1346,#1347);
#1114=AXIS2_PLACEMENT_3D('',#1693,#1348,#1349);
#1115=AXIS2_PLACEMENT_3D('',#1695,#1350,#1351);
#1116=AXIS2_PLACEMENT_3D('',#1696,#1352,#1353);
#1117=AXIS2_PLACEMENT_3D('',#1700,#1355,#1356);
#1118=AXIS2_PLACEMENT_3D('',#1704,#1359,#1360);
#1119=AXIS2_PLACEMENT_3D('',#1706,#1361,#1362);
#1120=AXIS2_PLACEMENT_3D('',#1708,#1363,#1364);
#1121=AXIS2_PLACEMENT_3D('',#1710,#1365,#1366);
#1122=AXIS2_PLACEMENT_3D('',#1711,#1367,#1368);
#1123=AXIS2_PLACEMENT_3D('',#1714,#1371,#1372);
#1124=AXIS2_PLACEMENT_3D('',#1715,#1373,#1374);
#1125=AXIS2_PLACEMENT_3D('',#1716,#1375,#1376);
#1126=AXIS2_PLACEMENT_3D('',#1719,#1379,#1380);
#1127=AXIS2_PLACEMENT_3D('',#1721,#1382,#1383);
#1128=AXIS2_PLACEMENT_3D('',#1722,#1384,#1385);
#1129=AXIS2_PLACEMENT_3D('',#1725,#1388,#1389);
#1130=AXIS2_PLACEMENT_3D('',#1727,#1391,#1392);
#1131=AXIS2_PLACEMENT_3D('',#1728,#1393,#1394);
#1132=AXIS2_PLACEMENT_3D('',#1730,#1396,#1397);
#1133=AXIS2_PLACEMENT_3D('',#1733,#1400,#1401);
#1134=AXIS2_PLACEMENT_3D('',#1735,#1403,#1404);
#1135=AXIS2_PLACEMENT_3D('',#1737,#1406,#1407);
#1136=AXIS2_PLACEMENT_3D('',#1739,#1409,#1410);
#1137=AXIS2_PLACEMENT_3D('',#1740,#1411,#1412);
#1138=AXIS2_PLACEMENT_3D('',#1742,#1413,#1414);
#1139=AXIS2_PLACEMENT_3D('',#1743,#1415,#1416);
#1140=AXIS2_PLACEMENT_3D('',#1745,#1417,#1418);
#1141=AXIS2_PLACEMENT_3D('',#1746,#1419,#1420);
#1142=AXIS2_PLACEMENT_3D('',#1748,#1421,#1422);
#1143=AXIS2_PLACEMENT_3D('',#1749,#1423,#1424);
#1144=AXIS2_PLACEMENT_3D('',#1751,#1425,#1426);
#1145=AXIS2_PLACEMENT_3D('',#1752,#1427,#1428);
#1146=AXIS2_PLACEMENT_3D('',#1754,#1430,#1431);
#1147=AXIS2_PLACEMENT_3D('',#1756,#1433,#1434);
#1148=AXIS2_PLACEMENT_3D('',#1757,#1435,#1436);
#1149=AXIS2_PLACEMENT_3D('',#1759,#1438,#1439);
#1150=AXIS2_PLACEMENT_3D('',#1761,#1441,#1442);
#1151=AXIS2_PLACEMENT_3D('',#1763,#1444,#1445);
#1152=AXIS2_PLACEMENT_3D('',#1765,#1447,#1448);
#1153=AXIS2_PLACEMENT_3D('',#1767,#1450,#1451);
#1154=AXIS2_PLACEMENT_3D('',#1769,#1453,#1454);
#1155=AXIS2_PLACEMENT_3D('',#1771,#1456,#1457);
#1156=AXIS2_PLACEMENT_3D('',#1772,#1458,#1459);
#1157=DIRECTION('axis',(0.,0.,1.));
#1158=DIRECTION('refdir',(1.,0.,0.));
#1159=DIRECTION('center_axis',(9.72038706695294E-45,1.,-9.73346213369995E-15));
#1160=DIRECTION('ref_axis',(9.46130194410932E-59,9.73346213369995E-15,1.));
#1161=DIRECTION('',(-2.48360463883849E-14,-9.73346213369995E-15,-1.));
#1162=DIRECTION('',(-1.,0.,0.));
#1163=DIRECTION('',(0.,9.73346213369995E-15,1.));
#1164=DIRECTION('',(1.,-9.72038706695294E-45,-3.83401667036756E-75));
#1165=DIRECTION('',(-1.,1.94407741339059E-44,0.));
#1166=DIRECTION('',(-9.46130194410932E-59,-9.73346213369995E-15,-1.));
#1167=DIRECTION('',(1.,-9.72038706695294E-45,0.));
#1168=DIRECTION('',(9.46130194410933E-59,9.73346213369995E-15,1.));
#1169=DIRECTION('center_axis',(9.72038706695294E-45,1.,-9.73346213369995E-15));
#1170=DIRECTION('ref_axis',(1.26217744835356E-29,0.,-1.));
#1171=DIRECTION('center_axis',(-9.72038706695294E-45,-1.,9.73346213369995E-15));
#1172=DIRECTION('ref_axis',(1.26217744835356E-29,0.,-1.));
#1173=DIRECTION('center_axis',(1.01230384988249E-28,-1.,5.71413472132131E-15));
#1174=DIRECTION('ref_axis',(1.26217744835362E-29,-5.71413472132131E-15,
-1.));
#1175=DIRECTION('',(-1.26217744835362E-29,5.71413472132131E-15,1.));
#1176=DIRECTION('',(1.,1.01230384988249E-28,1.26217744835356E-29));
#1177=DIRECTION('',(0.,-5.71413472132131E-15,-1.));
#1178=DIRECTION('',(-1.,-1.01230384988243E-28,1.02409405763533E-27));
#1179=DIRECTION('center_axis',(1.01230384988249E-28,-1.,5.71413472132131E-15));
#1180=DIRECTION('ref_axis',(1.26217744835356E-29,0.,-1.));
#1181=DIRECTION('center_axis',(-1.01230384988249E-28,1.,-5.71413472132131E-15));
#1182=DIRECTION('ref_axis',(1.26217744835356E-29,0.,-1.));
#1183=DIRECTION('',(5.55436012439584E-59,5.71413472132131E-15,1.));
#1184=DIRECTION('',(-1.,-1.01230384988249E-28,0.));
#1185=DIRECTION('',(5.55436012439584E-59,5.71413472132131E-15,1.));
#1186=DIRECTION('',(1.,1.01230384988249E-28,0.));
#1187=DIRECTION('center_axis',(1.09553058212568E-28,1.,0.));
#1188=DIRECTION('ref_axis',(1.26217744835356E-29,0.,-1.));
#1189=DIRECTION('',(1.09553058212568E-28,1.,0.));
#1190=DIRECTION('center_axis',(-1.26217744835362E-29,5.71413472132131E-15,
1.));
#1191=DIRECTION('ref_axis',(-0.70710678118656,-0.707106781186535,0.));
#1192=DIRECTION('center_axis',(1.44620366871132E-13,2.4653574746267E-14,
1.));
#1193=DIRECTION('ref_axis',(-0.70710678118656,-0.707106781186535,0.));
#1194=DIRECTION('',(-1.26217744835362E-29,5.71413472132131E-15,1.));
#1195=DIRECTION('center_axis',(1.02409405763533E-27,-4.93038065763132E-28,
1.));
#1196=DIRECTION('ref_axis',(-0.70710678118656,-0.707106781186535,0.));
#1197=DIRECTION('',(1.26217744835362E-29,-5.71413472132131E-15,-1.));
#1198=DIRECTION('center_axis',(1.,1.57199720651977E-16,1.17235141015767E-29));
#1199=DIRECTION('ref_axis',(1.57199720651977E-16,-1.,-2.39513948043204E-26));
#1200=DIRECTION('',(1.57199720651977E-16,-1.,2.4653574746267E-14));
#1201=DIRECTION('',(1.26217744835362E-29,-5.71413472132131E-15,-1.));
#1202=DIRECTION('',(1.57199720651977E-16,-1.,-2.39513948043204E-26));
#1203=DIRECTION('center_axis',(-1.26217744835362E-29,5.71413472132131E-15,
1.));
#1204=DIRECTION('ref_axis',(-0.707106781186623,0.707106781186472,0.));
#1205=DIRECTION('center_axis',(1.44620366871132E-13,2.4653574746267E-14,
1.));
#1206=DIRECTION('ref_axis',(-0.707106781186623,0.707106781186472,0.));
#1207=DIRECTION('',(-1.26217744835362E-29,5.71413472132131E-15,1.));
#1208=DIRECTION('center_axis',(1.02409405763533E-27,-4.93038065763132E-28,
1.));
#1209=DIRECTION('ref_axis',(-0.707106781186623,0.707106781186472,0.));
#1210=DIRECTION('center_axis',(1.44620366871132E-13,2.4653574746267E-14,
1.));
#1211=DIRECTION('ref_axis',(1.,1.26217744835362E-29,-1.44620366871132E-13));
#1212=DIRECTION('',(1.,4.6592966658146E-15,-1.44620366871132E-13));
#1213=DIRECTION('',(0.,-1.,2.46813303217559E-14));
#1214=DIRECTION('',(-1.,-1.01230384988249E-28,1.44620366871132E-13));
#1215=DIRECTION('center_axis',(-1.44620366871132E-13,-2.4653574746267E-14,
-1.));
#1216=DIRECTION('ref_axis',(0.208333333333239,-0.978057882858812,-6.01661997690356E-15));
#1217=DIRECTION('',(1.,1.01230384988249E-28,-1.44620366871132E-13));
#1218=DIRECTION('',(0.,-1.,2.46813303217559E-14));
#1219=DIRECTION('',(-1.,-1.84042218299695E-13,1.44620366871137E-13));
#1220=DIRECTION('center_axis',(1.44620366871132E-13,2.4653574746267E-14,
1.));
#1221=DIRECTION('ref_axis',(1.,1.45472979506118E-28,-1.43437228850848E-13));
#1222=DIRECTION('center_axis',(1.44620366871132E-13,2.4653574746267E-14,
1.));
#1223=DIRECTION('ref_axis',(1.,1.45472979506118E-28,-1.43437228850848E-13));
#1224=DIRECTION('center_axis',(-1.44620366871132E-13,-2.4653574746267E-14,
-1.));
#1225=DIRECTION('ref_axis',(1.,1.01230384988249E-28,0.));
#1226=DIRECTION('center_axis',(-1.44620366871132E-13,-2.4653574746267E-14,
-1.));
#1227=DIRECTION('ref_axis',(1.,1.01230384988249E-28,0.));
#1228=DIRECTION('center_axis',(-4.65929666581543E-15,1.,-5.71413472132131E-15));
#1229=DIRECTION('ref_axis',(1.,4.65929666581543E-15,2.07032786948497E-26));
#1230=DIRECTION('',(1.,4.65929666581543E-15,-1.02409405763533E-27));
#1231=DIRECTION('',(0.,5.71413472132131E-15,1.));
#1232=DIRECTION('center_axis',(1.84042218299696E-13,-1.,5.71413472132131E-15));
#1233=DIRECTION('ref_axis',(-1.,-1.84042218299696E-13,1.02409405763524E-27));
#1234=DIRECTION('',(0.,-5.71413472132131E-15,-1.));
#1235=DIRECTION('',(-1.,-1.84042218299696E-13,1.02409405763524E-27));
#1236=DIRECTION('center_axis',(-2.48360463883849E-14,-9.73346213369995E-15,
-1.));
#1237=DIRECTION('ref_axis',(-0.707106781186673,-0.707106781186422,0.));
#1238=DIRECTION('center_axis',(3.83401667036756E-75,0.,1.));
#1239=DIRECTION('ref_axis',(-0.707106781186673,-0.707106781186422,0.));
#1240=DIRECTION('',(2.48360463883849E-14,9.73346213369995E-15,1.));
#1241=DIRECTION('center_axis',(0.,0.,-1.));
#1242=DIRECTION('ref_axis',(-0.707106781186673,-0.707106781186422,0.));
#1243=DIRECTION('center_axis',(0.,0.,1.));
#1244=DIRECTION('ref_axis',(-1.,0.,0.));
#1245=DIRECTION('',(0.,-1.,0.));
#1246=DIRECTION('',(1.,0.,0.));
#1247=DIRECTION('',(0.,1.,0.));
#1248=DIRECTION('center_axis',(1.,-2.9026734941618E-27,-2.48360463883849E-14));
#1249=DIRECTION('ref_axis',(3.31927050005006E-27,1.,1.67826606307979E-14));
#1250=DIRECTION('',(0.,-1.,0.));
#1251=DIRECTION('center_axis',(1.,-2.9026734941618E-27,-2.48360463883849E-14));
#1252=DIRECTION('ref_axis',(1.26217744835362E-29,-5.71413472132131E-15,
-1.));
#1253=DIRECTION('',(2.76075697915358E-27,1.,-5.71413472132131E-15));
#1254=DIRECTION('center_axis',(1.,-2.49877671068864E-27,-2.48360463883849E-14));
#1255=DIRECTION('ref_axis',(1.26217744835362E-29,-5.71413472132131E-15,
-1.));
#1256=DIRECTION('',(-2.48360463883849E-14,6.618562182153E-26,-1.));
#1257=DIRECTION('center_axis',(1.,-2.49877671068864E-27,-2.48360463883849E-14));
#1258=DIRECTION('ref_axis',(1.26217744835362E-29,-5.71413472132131E-15,
-1.));
#1259=DIRECTION('',(2.290376168124E-27,1.,-2.4653574746267E-14));
#1260=DIRECTION('center_axis',(1.,-2.9026734941618E-27,-2.48360463883849E-14));
#1261=DIRECTION('ref_axis',(1.26217744835362E-29,-5.71413472132131E-15,
-1.));
#1262=DIRECTION('center_axis',(-1.26217744835362E-29,5.71413472132131E-15,
1.));
#1263=DIRECTION('ref_axis',(-0.707106781186566,-0.707106781186529,0.));
#1264=DIRECTION('center_axis',(-1.02409405763533E-27,4.93038065763132E-28,
-1.));
#1265=DIRECTION('ref_axis',(-0.707106781186566,-0.707106781186529,0.));
#1266=DIRECTION('',(1.26217744835362E-29,-5.71413472132131E-15,-1.));
#1267=DIRECTION('center_axis',(-1.26217744835362E-29,5.71413472132131E-15,
1.));
#1268=DIRECTION('ref_axis',(-0.707106781186566,-0.707106781186529,0.));
#1269=DIRECTION('center_axis',(-1.26217744835362E-29,5.71413472132131E-15,
1.));
#1270=DIRECTION('ref_axis',(1.,1.01230384988249E-28,1.26217744835356E-29));
#1271=DIRECTION('',(-1.01230384988249E-28,1.,-5.71413472132131E-15));
#1272=DIRECTION('center_axis',(-1.26217744835362E-29,5.71413472132131E-15,
1.));
#1273=DIRECTION('ref_axis',(-0.707106781186428,0.707106781186667,0.));
#1274=DIRECTION('',(1.,-2.44355930410905E-13,1.40890448080526E-27));
#1275=DIRECTION('',(0.,-1.,5.71413472132131E-15));
#1276=DIRECTION('center_axis',(1.,1.01230384988249E-28,1.26217744835356E-29));
#1277=DIRECTION('ref_axis',(1.26217744835362E-29,-5.71413472132131E-15,
-1.));
#1278=DIRECTION('',(1.01230384988249E-28,-1.,-4.93038065763132E-28));
#1279=DIRECTION('',(-1.26217744835362E-29,5.71413472132131E-15,1.));
#1280=DIRECTION('center_axis',(-2.48360463883849E-14,6.618562182153E-26,
-1.));
#1281=DIRECTION('ref_axis',(-0.707106781185518,0.707106781187578,0.));
#1282=DIRECTION('',(2.48360463883849E-14,-6.618562182153E-26,1.));
#1283=DIRECTION('center_axis',(1.,5.05127168461407E-28,1.26217744835333E-29));
#1284=DIRECTION('ref_axis',(1.26217744835362E-29,-5.71413472132131E-15,
-1.));
#1285=DIRECTION('',(-1.,-4.03896783473158E-28,2.30793857074297E-42));
#1286=DIRECTION('center_axis',(1.,4.03896783473158E-28,-2.30793857074297E-42));
#1287=DIRECTION('ref_axis',(1.26217744835362E-29,-5.71413472132131E-15,
-1.));
#1288=DIRECTION('',(-1.,-5.05127168461407E-28,-1.26217744835333E-29));
#1289=DIRECTION('center_axis',(2.66490168308282E-12,1.,-6.15042938162472E-54));
#1290=DIRECTION('ref_axis',(2.30793857074297E-42,9.32168965176724E-70,1.));
#1291=DIRECTION('',(-1.,-5.05127168461407E-28,-1.26217744835333E-29));
#1292=DIRECTION('',(-2.30793857074297E-42,-9.32168965176724E-70,-1.));
#1293=DIRECTION('center_axis',(2.66490168308282E-12,1.,-6.15042938162472E-54));
#1294=DIRECTION('ref_axis',(4.02860463796428E-8,0.,-0.999999999999999));
#1295=DIRECTION('center_axis',(2.66490168308282E-12,1.,-6.15042938162472E-54));
#1296=DIRECTION('ref_axis',(1.24994942914273E-6,0.,0.999999999999219));
#1297=DIRECTION('center_axis',(2.66490168308282E-12,1.,-6.15042938162472E-54));
#1298=DIRECTION('ref_axis',(0.994413707792933,0.,-0.105552724993298));
#1299=DIRECTION('center_axis',(2.66490168308282E-12,1.,-6.15042938162472E-54));
#1300=DIRECTION('ref_axis',(-7.16339771252116E-10,0.,-1.));
#1301=DIRECTION('center_axis',(2.66490168308282E-12,1.,-6.15042938162472E-54));
#1302=DIRECTION('ref_axis',(-1.60051366811812E-8,0.,1.));
#1303=DIRECTION('center_axis',(2.66490168308282E-12,1.,-6.15042938162472E-54));
#1304=DIRECTION('ref_axis',(0.994785890970377,0.,-0.101985445659039));
#1305=DIRECTION('center_axis',(-1.26217744835362E-29,5.71413472132131E-15,
1.));
#1306=DIRECTION('ref_axis',(-0.707106781186428,0.707106781186667,0.));
#1307=DIRECTION('center_axis',(-1.02409405763533E-27,4.93038065763132E-28,
-1.));
#1308=DIRECTION('ref_axis',(-0.707106781186428,0.707106781186667,0.));
#1309=DIRECTION('',(1.26217744835362E-29,-5.71413472132131E-15,-1.));
#1310=DIRECTION('center_axis',(-2.44355930410905E-13,-1.,5.71413472132131E-15));
#1311=DIRECTION('ref_axis',(1.26217744835362E-29,-5.71413472132131E-15,
-1.));
#1312=DIRECTION('',(-1.,-1.83365868867021E-13,1.02409405763524E-27));
#1313=DIRECTION('',(1.79364690060122E-47,5.71413472132131E-15,1.));
#1314=DIRECTION('center_axis',(-2.44355930410905E-13,-1.,5.71413472132131E-15));
#1315=DIRECTION('ref_axis',(-7.16339771252116E-10,6.96309984802311E-54,
-1.));
#1316=DIRECTION('center_axis',(-2.44355930410905E-13,-1.,5.71413472132131E-15));
#1317=DIRECTION('ref_axis',(0.994785890970377,-9.66970390897572E-45,-0.101985445659039));
#1318=DIRECTION('center_axis',(-2.44355930410905E-13,-1.,5.71413472132131E-15));
#1319=DIRECTION('ref_axis',(-1.60051366811812E-8,1.55576123600568E-52,1.));
#1320=DIRECTION('center_axis',(-2.44355930410905E-13,-1.,5.71413472132131E-15));
#1321=DIRECTION('ref_axis',(4.02860463796428E-8,-3.91595964207347E-52,-0.999999999999999));
#1322=DIRECTION('center_axis',(-2.44355930410905E-13,-1.,5.71413472132131E-15));
#1323=DIRECTION('ref_axis',(0.994413707792933,-9.66608614443116E-45,-0.105552724993298));
#1324=DIRECTION('center_axis',(-2.44355930410905E-13,-1.,5.71413472132131E-15));
#1325=DIRECTION('ref_axis',(1.24994942914273E-6,-1.21499922653842E-50,0.999999999999219));
#1326=DIRECTION('center_axis',(1.02409405763533E-27,-4.93038065763132E-28,
1.));
#1327=DIRECTION('ref_axis',(1.,1.01230384988249E-28,-1.02409405763533E-27));
#1328=DIRECTION('',(-4.00746103777451E-14,-1.,-4.93038065763132E-28));
#1329=DIRECTION('',(-4.00746103777451E-14,-1.,-4.93038065763132E-28));
#1330=DIRECTION('center_axis',(-1.,0.,0.));
#1331=DIRECTION('ref_axis',(0.,0.,1.));
#1332=DIRECTION('',(0.,0.,1.));
#1333=DIRECTION('',(9.72038706695294E-45,1.,-2.4653574746267E-14));
#1334=DIRECTION('center_axis',(1.,4.03896783473158E-28,-2.30793857074297E-42));
#1335=DIRECTION('ref_axis',(1.26217744835362E-29,-5.71413472132131E-15,
-1.));
#1336=DIRECTION('',(0.,-1.,5.71413472132131E-15));
#1337=DIRECTION('center_axis',(1.,-9.72038706695294E-45,-3.83401667036756E-75));
#1338=DIRECTION('ref_axis',(1.26217744835362E-29,-5.71413472132131E-15,
-1.));
#1339=DIRECTION('',(0.,-1.,0.));
#1340=DIRECTION('center_axis',(1.,-9.72038706695294E-45,-3.83401667036756E-75));
#1341=DIRECTION('ref_axis',(1.26217744835362E-29,-5.71413472132131E-15,
-1.));
#1342=DIRECTION('',(9.72038706695294E-45,1.,-2.4653574746267E-14));
#1343=DIRECTION('',(0.,0.,-1.));
#1344=DIRECTION('center_axis',(-1.,-1.21592416695104E-27,-1.4210854715202E-13));
#1345=DIRECTION('ref_axis',(1.26217744835362E-29,-5.71413472132131E-15,
-1.));
#1346=DIRECTION('center_axis',(-1.,-1.21592416695104E-27,-1.4210854715202E-13));
#1347=DIRECTION('ref_axis',(1.26217744835362E-29,-5.71413472132131E-15,
-1.));
#1348=DIRECTION('center_axis',(-1.,-8.12027383477881E-28,-1.4210854715202E-13));
#1349=DIRECTION('ref_axis',(1.26217744835362E-29,-5.71413472132131E-15,
-1.));
#1350=DIRECTION('center_axis',(-1.,-8.12027383477881E-28,-1.4210854715202E-13));
#1351=DIRECTION('ref_axis',(1.26217744835362E-29,-5.71413472132131E-15,
-1.));
#1352=DIRECTION('center_axis',(1.44620366871132E-13,2.4653574746267E-14,
1.));
#1353=DIRECTION('ref_axis',(1.,1.26217744835365E-29,-1.44620366871132E-13));
#1354=DIRECTION('',(1.,1.01230384988249E-28,-1.44620366871132E-13));
#1355=DIRECTION('center_axis',(1.44620366871132E-13,2.4653574746267E-14,
1.));
#1356=DIRECTION('ref_axis',(0.208333333333239,-0.978057882858812,-6.01661997690356E-15));
#1357=DIRECTION('',(-1.,-1.01230384988249E-28,1.44620366871132E-13));
#1358=DIRECTION('',(-1.,9.72038706695294E-45,3.83401667036756E-75));
#1359=DIRECTION('center_axis',(1.44620366871132E-13,2.4653574746267E-14,
1.));
#1360=DIRECTION('ref_axis',(1.,1.45472979506118E-28,-1.43437228850848E-13));
#1361=DIRECTION('center_axis',(1.44620366871132E-13,2.4653574746267E-14,
1.));
#1362=DIRECTION('ref_axis',(1.,1.45472979506118E-28,-1.43437228850848E-13));
#1363=DIRECTION('center_axis',(-1.44620366871132E-13,-2.4653574746267E-14,
-1.));
#1364=DIRECTION('ref_axis',(1.,1.01230384988249E-28,0.));
#1365=DIRECTION('center_axis',(-1.44620366871132E-13,-2.4653574746267E-14,
-1.));
#1366=DIRECTION('ref_axis',(1.,1.01230384988249E-28,0.));
#1367=DIRECTION('center_axis',(1.43437228850848E-13,0.,1.));
#1368=DIRECTION('ref_axis',(-1.,-2.54426109814125E-16,1.43437228850848E-13));
#1369=DIRECTION('',(-1.43437228850848E-13,0.,-1.));
#1370=DIRECTION('',(-1.43437228850848E-13,0.,-1.));
#1371=DIRECTION('center_axis',(-1.01230384988249E-28,1.,0.));
#1372=DIRECTION('ref_axis',(1.,1.01230384988249E-28,1.34106353887566E-29));
#1373=DIRECTION('center_axis',(1.01230384988249E-28,-1.,0.));
#1374=DIRECTION('ref_axis',(-1.,-1.01230384988249E-28,-5.54049511860181E-30));
#1375=DIRECTION('center_axis',(0.,-1.,0.));
#1376=DIRECTION('ref_axis',(0.994785890970377,0.,-0.101985445659039));
#1377=DIRECTION('',(0.,-1.,0.));
#1378=DIRECTION('',(0.,-1.,0.));
#1379=DIRECTION('center_axis',(0.,-1.,0.));
#1380=DIRECTION('ref_axis',(-7.16339771252116E-10,0.,-1.));
#1381=DIRECTION('',(0.,-1.,0.));
#1382=DIRECTION('center_axis',(0.,-1.,0.));
#1383=DIRECTION('ref_axis',(-1.60051366811812E-8,0.,1.));
#1384=DIRECTION('center_axis',(0.,-1.,0.));
#1385=DIRECTION('ref_axis',(0.994413707792933,0.,-0.105552724993298));
#1386=DIRECTION('',(0.,-1.,0.));
#1387=DIRECTION('',(0.,-1.,0.));
#1388=DIRECTION('center_axis',(0.,-1.,0.));
#1389=DIRECTION('ref_axis',(-0.999999999999761,0.,6.91679919864954E-7));
#1390=DIRECTION('',(0.,-1.,0.));
#1391=DIRECTION('center_axis',(0.,-1.,0.));
#1392=DIRECTION('ref_axis',(1.24994942914273E-6,0.,0.999999999999219));
#1393=DIRECTION('center_axis',(-3.83401667036756E-75,0.,-1.));
#1394=DIRECTION('ref_axis',(1.,-9.72038706695294E-45,-3.83401667036756E-75));
#1395=DIRECTION('',(-1.,9.72038706695294E-45,3.83401667036756E-75));
#1396=DIRECTION('center_axis',(1.,-9.72038706695294E-45,-3.83401667036756E-75));
#1397=DIRECTION('ref_axis',(3.83401667036755E-75,7.88860905221012E-31,-1.));
#1398=DIRECTION('',(-2.91611612008588E-44,-1.,-7.88860905221012E-31));
#1399=DIRECTION('',(-2.91611612008588E-44,-1.,-7.88860905221012E-31));
#1400=DIRECTION('center_axis',(0.,0.,-1.));
#1401=DIRECTION('ref_axis',(-1.,1.94407741339059E-44,0.));
#1402=DIRECTION('',(-2.91611612008589E-44,-1.,0.));
#1403=DIRECTION('center_axis',(1.09553058212568E-28,1.,0.));
#1404=DIRECTION('ref_axis',(1.26217744835356E-29,0.,-1.));
#1405=DIRECTION('',(1.09553058212568E-28,1.,0.));
#1406=DIRECTION('center_axis',(1.,-9.72038706695295E-45,0.));
#1407=DIRECTION('ref_axis',(0.,0.,-1.));
#1408=DIRECTION('',(1.94407741339059E-44,1.,0.));
#1409=DIRECTION('center_axis',(0.,0.,1.));
#1410=DIRECTION('ref_axis',(1.,-9.72038706695295E-45,0.));
#1411=DIRECTION('center_axis',(-1.,-7.71089279128413E-36,0.));
#1412=DIRECTION('ref_axis',(0.,5.71413466063738E-15,1.));
#1413=DIRECTION('center_axis',(-1.,-7.71089279128413E-36,0.));
#1414=DIRECTION('ref_axis',(1.26217744835362E-29,-5.71413472132131E-15,
-1.));
#1415=DIRECTION('center_axis',(-1.,-7.71089279128413E-36,0.));
#1416=DIRECTION('ref_axis',(0.,5.71413466063738E-15,1.));
#1417=DIRECTION('center_axis',(-1.,-7.71089279128413E-36,0.));
#1418=DIRECTION('ref_axis',(1.26217744835362E-29,-5.71413472132131E-15,
-1.));
#1419=DIRECTION('center_axis',(-1.,-7.71089281370491E-36,2.80259692864963E-45));
#1420=DIRECTION('ref_axis',(2.80259692864963E-45,5.71413466063738E-15,1.));
#1421=DIRECTION('center_axis',(-1.,-7.71089281370491E-36,2.80259692864963E-45));
#1422=DIRECTION('ref_axis',(1.26217744835362E-29,-5.71413472132131E-15,
-1.));
#1423=DIRECTION('center_axis',(-1.,-7.71089281370491E-36,2.80259692864963E-45));
#1424=DIRECTION('ref_axis',(2.80259692864963E-45,5.71413466063738E-15,1.));
#1425=DIRECTION('center_axis',(-1.,-7.71089281370491E-36,2.80259692864963E-45));
#1426=DIRECTION('ref_axis',(1.26217744835362E-29,-5.71413472132131E-15,
-1.));
#1427=DIRECTION('center_axis',(1.,1.01230384988249E-28,1.26217744835356E-29));
#1428=DIRECTION('ref_axis',(-9.32242346486202E-29,0.856571230721304,0.516028804138481));
#1429=DIRECTION('',(-1.,-1.01230384988249E-28,-1.26217744835356E-29));
#1430=DIRECTION('center_axis',(-1.26217744835362E-29,5.71413472132131E-15,
1.));
#1431=DIRECTION('ref_axis',(1.,1.01230384988249E-28,1.26217744835356E-29));
#1432=DIRECTION('',(1.,5.05127168461407E-28,1.26217744835333E-29));
#1433=DIRECTION('center_axis',(1.,5.05127168461407E-28,1.26217744835333E-29));
#1434=DIRECTION('ref_axis',(4.26164201168395E-28,-0.856571230724123,0.516028804133802));
#1435=DIRECTION('center_axis',(1.,5.05127168461407E-28,1.26217744835333E-29));
#1436=DIRECTION('ref_axis',(1.26217744835362E-29,-5.71413472132131E-15,
-1.));
#1437=DIRECTION('',(-1.,-5.05127168461407E-28,-1.26217744835333E-29));
#1438=DIRECTION('center_axis',(1.,5.05127168461407E-28,1.26217744835333E-29));
#1439=DIRECTION('ref_axis',(1.26217744835362E-29,-5.71413472132131E-15,
-1.));
#1440=DIRECTION('',(-1.,-5.05127168461407E-28,-1.26217744835333E-29));
#1441=DIRECTION('center_axis',(1.,1.01230384988249E-28,1.26217744835356E-29));
#1442=DIRECTION('ref_axis',(1.26217744835362E-29,-5.71413472132131E-15,
-1.));
#1443=DIRECTION('',(-1.,-1.01230384988249E-28,-1.26217744835356E-29));
#1444=DIRECTION('center_axis',(1.,1.01230384988249E-28,1.26217744835356E-29));
#1445=DIRECTION('ref_axis',(1.26217744835362E-29,-5.71413472132131E-15,
-1.));
#1446=DIRECTION('',(-1.,-1.01230384988249E-28,-1.26217744835356E-29));
#1447=DIRECTION('center_axis',(0.,0.,-1.));
#1448=DIRECTION('ref_axis',(1.,1.01230384988249E-28,0.));
#1449=DIRECTION('',(0.,0.,-1.));
#1450=DIRECTION('center_axis',(1.43437228850848E-13,0.,1.));
#1451=DIRECTION('ref_axis',(1.,1.45472979506118E-28,-1.43437228850848E-13));
#1452=DIRECTION('',(-1.43437228850848E-13,0.,-1.));
#1453=DIRECTION('center_axis',(1.43437228850848E-13,0.,1.));
#1454=DIRECTION('ref_axis',(1.,1.45472979506118E-28,-1.43437228850848E-13));
#1455=DIRECTION('',(-1.43437228850848E-13,0.,-1.));
#1456=DIRECTION('center_axis',(1.,1.01230384988249E-28,1.26217744835356E-29));
#1457=DIRECTION('ref_axis',(1.26217744835362E-29,-5.71413472132131E-15,
-1.));
#1458=DIRECTION('center_axis',(0.,0.,-1.));
#1459=DIRECTION('ref_axis',(1.,1.01230384988249E-28,0.));
#1460=DIRECTION('',(0.,0.,-1.));
#1461=CARTESIAN_POINT('',(0.,0.,0.));
#1462=CARTESIAN_POINT('Origin',(-144.337529692805,-990.930149183707,427.935803102902));
#1463=CARTESIAN_POINT('',(-157.323260336885,-990.930149183707,453.936342202417));
#1464=CARTESIAN_POINT('',(-157.323260336886,-990.930149183707,411.335322164542));
#1465=CARTESIAN_POINT('',(-157.323260336886,-990.930149183707,430.135817762332));
#1466=CARTESIAN_POINT('',(-94.3232606381594,-990.930149183707,453.936342202417));
#1467=CARTESIAN_POINT('',(-96.3232606381594,-990.930149183707,453.936342202417));
#1468=CARTESIAN_POINT('',(-94.3232606381594,-990.930149183707,411.335322164542));
#1469=CARTESIAN_POINT('',(-94.3232606237133,-990.930149183707,425.284067487973));
#1470=CARTESIAN_POINT('',(-98.3085126381594,-990.930149183707,411.335322164542));
#1471=CARTESIAN_POINT('',(-98.3184566381682,-990.930149183505,439.845831945185));
#1472=CARTESIAN_POINT('',(-104.533260638168,-990.930149183707,439.845831945185));
#1473=CARTESIAN_POINT('',(-123.577993165487,-990.930149183707,439.845831945185));
#1474=CARTESIAN_POINT('',(-98.3184566381683,-990.930149183505,453.485831945185));
#1475=CARTESIAN_POINT('',(-98.3184566381683,-990.930149183707,438.845817524044));
#1476=CARTESIAN_POINT('',(-104.533260638168,-990.930149183505,453.485831945185));
#1477=CARTESIAN_POINT('',(-127.822993165487,-990.930149183707,453.485831945185));
#1478=CARTESIAN_POINT('',(-104.533260638168,-990.930149183707,434.225817524044));
#1479=CARTESIAN_POINT('',(-103.768260638079,-990.930149183707,420.135831945166));
#1480=CARTESIAN_POINT('Origin',(-103.768260638079,-990.930149183707,417.635831945166));
#1481=CARTESIAN_POINT('',(-106.35326063816,-990.930149183707,431.610831945169));
#1482=CARTESIAN_POINT('Origin',(-106.35326063816,-990.930149183707,427.610831945169));
#1483=CARTESIAN_POINT('Origin',(-161.360665127773,-992.730149183505,457.835831945196));
#1484=CARTESIAN_POINT('',(-157.623260127774,-992.730149183506,404.835831945202));
#1485=CARTESIAN_POINT('',(-157.623260127774,-992.730149183505,464.635831986621));
#1486=CARTESIAN_POINT('',(-157.623260127774,-992.730149183505,457.035831945197));
#1487=CARTESIAN_POINT('',(-94.3232606237133,-992.730149183506,404.835831945202));
#1488=CARTESIAN_POINT('',(-169.093730127775,-992.730149183506,404.835831945202));
#1489=CARTESIAN_POINT('',(-94.3232606237064,-992.730149183505,464.635831986621));
#1490=CARTESIAN_POINT('',(-94.3232606237133,-992.730149183505,440.23408190912));
#1491=CARTESIAN_POINT('',(-144.841962751756,-992.730149183505,464.635831986621));
#1492=CARTESIAN_POINT('',(-103.768260638079,-992.730149183505,420.135831945166));
#1493=CARTESIAN_POINT('Origin',(-103.768260638079,-992.730149183505,417.635831945166));
#1494=CARTESIAN_POINT('',(-106.35326063816,-992.730149183505,431.610831945169));
#1495=CARTESIAN_POINT('Origin',(-106.35326063816,-992.730149183505,427.610831945169));
#1496=CARTESIAN_POINT('',(-104.533260638168,-992.730149183505,453.485831945185));
#1497=CARTESIAN_POINT('',(-104.533260638168,-992.730149183506,439.845831945185));
#1498=CARTESIAN_POINT('',(-104.533260638168,-992.730149183505,449.175831945191));
#1499=CARTESIAN_POINT('',(-98.3184566381683,-992.730149183505,453.485831945185));
#1500=CARTESIAN_POINT('',(-136.334560882971,-992.730149183505,453.485831945185));
#1501=CARTESIAN_POINT('',(-98.3184566381682,-992.730149183506,439.845831945185));
#1502=CARTESIAN_POINT('',(-98.3184566381683,-992.730149183505,453.795831945191));
#1503=CARTESIAN_POINT('',(-132.089560882971,-992.730149183505,439.845831945185));
#1504=CARTESIAN_POINT('Origin',(-106.35326063816,-990.980149183505,427.610831945169));
#1505=CARTESIAN_POINT('',(-106.35326063816,-990.980149183505,431.610831945169));
#1506=CARTESIAN_POINT('Origin',(-156.823260127774,-989.930149183505,464.635831986621));
#1507=CARTESIAN_POINT('',(-157.823260127774,-989.930149183505,460.188831945199));
#1508=CARTESIAN_POINT('',(-156.823260127774,-990.930149183505,460.188831945199));
#1509=CARTESIAN_POINT('Origin',(-156.823260127774,-989.930149183505,460.188831945195));
#1510=CARTESIAN_POINT('',(-157.823260127774,-989.930149183505,464.635831986621));
#1511=CARTESIAN_POINT('',(-157.823260127774,-989.930149183505,464.635831986621));
#1512=CARTESIAN_POINT('',(-156.823260127774,-990.930149183505,464.635831986621));
#1513=CARTESIAN_POINT('Origin',(-156.823260127774,-989.930149183505,464.635831986621));
#1514=CARTESIAN_POINT('',(-156.823260127774,-990.930149183505,464.635831986621));
#1515=CARTESIAN_POINT('Origin',(-157.823260127774,-931.230149309648,464.635831986621));
#1516=CARTESIAN_POINT('',(-157.823260127774,-931.730149309648,460.188831945198));
#1517=CARTESIAN_POINT('',(-157.823260127774,-948.105171778111,460.188831945198));
#1518=CARTESIAN_POINT('',(-157.823260127774,-931.730149309648,464.635831986621));
#1519=CARTESIAN_POINT('',(-157.823260127774,-931.730149309648,464.635831986621));
#1520=CARTESIAN_POINT('',(-157.823260127774,-931.230149309648,464.635831986621));
#1521=CARTESIAN_POINT('Origin',(-156.823260127774,-931.730149309648,464.635831986621));
#1522=CARTESIAN_POINT('',(-156.823260127774,-930.730149309648,460.188831945198));
#1523=CARTESIAN_POINT('Origin',(-156.823260127774,-931.730149309648,460.188831945195));
#1524=CARTESIAN_POINT('',(-156.823260127774,-930.730149309648,464.635831986621));
#1525=CARTESIAN_POINT('',(-156.823260127774,-930.730149309648,464.635831986621));
#1526=CARTESIAN_POINT('Origin',(-156.823260127774,-931.730149309648,464.635831986621));
#1527=CARTESIAN_POINT('Origin',(-135.801132375738,-964.980194246573,460.188831945195));
#1528=CARTESIAN_POINT('',(-94.3232606237133,-990.930149183504,460.18883194519));
#1529=CARTESIAN_POINT('',(-146.562196251756,-990.930149183505,460.188831945198));
#1530=CARTESIAN_POINT('',(-94.3232606237133,-971.030149183508,460.188831945189));
#1531=CARTESIAN_POINT('',(-94.3232606237133,-962.140269843622,460.188831945189));
#1532=CARTESIAN_POINT('',(-135.823260623702,-971.030149183508,460.188831945178));
#1533=CARTESIAN_POINT('',(-118.912196499726,-971.030149183508,460.188831945193));
#1534=CARTESIAN_POINT('',(-135.823260623702,-947.030149183508,460.188831945178));
#1535=CARTESIAN_POINT('Origin',(-135.823260623702,-959.030149183508,460.188831945195));
#1536=CARTESIAN_POINT('',(-94.3232606237133,-947.030149183508,460.188831945189));
#1537=CARTESIAN_POINT('',(-135.81219649972,-947.030149183508,460.188831945195));
#1538=CARTESIAN_POINT('',(-94.3232606237133,-930.730149309637,460.188831945188));
#1539=CARTESIAN_POINT('',(-94.3232606237133,-962.140269843622,460.188831945189));
#1540=CARTESIAN_POINT('',(-116.062196499724,-930.730149309641,460.188831945192));
#1541=CARTESIAN_POINT('',(-122.290186599241,-943.53060880019,460.188831945193));
#1542=CARTESIAN_POINT('Origin',(-120.390186599241,-943.53060880019,460.188831945193));
#1543=CARTESIAN_POINT('',(-153.290186599241,-943.530608800185,460.188831945198));
#1544=CARTESIAN_POINT('Origin',(-151.390186599241,-943.530608800185,460.188831945198));
#1545=CARTESIAN_POINT('',(-153.323260623703,-974.530149183507,460.188831945195));
#1546=CARTESIAN_POINT('Origin',(-151.323260623703,-974.530149183507,460.188831945195));
#1547=CARTESIAN_POINT('',(-122.323260623703,-974.530149183509,460.188831945195));
#1548=CARTESIAN_POINT('Origin',(-120.323260623703,-974.530149183509,460.188831945195));
#1549=CARTESIAN_POINT('Origin',(-157.323260127774,-990.930149183505,464.635831986621));
#1550=CARTESIAN_POINT('',(-94.3232606237063,-990.930149183504,464.635831986621));
#1551=CARTESIAN_POINT('',(-142.823260251756,-990.930149183505,464.635831986621));
#1552=CARTESIAN_POINT('',(-94.3232606237133,-990.930149183504,443.634081929833));
#1553=CARTESIAN_POINT('Origin',(-96.3232606237033,-930.730149309637,464.635831986621));
#1554=CARTESIAN_POINT('',(-94.3232606237039,-930.730149309637,464.635831986621));
#1555=CARTESIAN_POINT('',(-94.3232606237133,-930.730149309637,443.634081929832));
#1556=CARTESIAN_POINT('',(-112.323260499724,-930.73014930964,464.635831986621));
#1557=CARTESIAN_POINT('Origin',(-157.323260336886,-990.430149183707,430.135817762332));
#1558=CARTESIAN_POINT('',(-157.823260336886,-990.430149183707,411.335322164542));
#1559=CARTESIAN_POINT('Origin',(-157.323260336886,-990.430149183707,411.335322164542));
#1560=CARTESIAN_POINT('',(-157.823260336886,-990.430149183707,453.936342202417));
#1561=CARTESIAN_POINT('',(-157.823260336886,-990.430149183707,430.135817762332));
#1562=CARTESIAN_POINT('Origin',(-157.323260336885,-990.430149183707,453.936342202418));
#1563=CARTESIAN_POINT('Origin',(-94.3232606381594,-988.230149183707,453.936342202417));
#1564=CARTESIAN_POINT('',(-157.823260336886,-988.230149183707,453.936342202417));
#1565=CARTESIAN_POINT('',(-157.823260336886,-988.230149183707,453.936342202417));
#1566=CARTESIAN_POINT('',(-94.3232606381594,-988.230149183707,453.936342202417));
#1567=CARTESIAN_POINT('',(-96.3232606381594,-988.230149183707,453.936342202417));
#1568=CARTESIAN_POINT('',(-94.3232606237133,-976.515269715135,453.936342202417));
#1569=CARTESIAN_POINT('Origin',(-157.823260336886,-960.440519911726,432.335832421762));
#1570=CARTESIAN_POINT('',(-157.823260336886,-988.230149183707,411.335322164542));
#1571=CARTESIAN_POINT('',(-157.823260336886,-988.230149183707,411.335322164542));
#1572=CARTESIAN_POINT('',(-157.823260336886,-985.399010353622,406.63583242176));
#1573=CARTESIAN_POINT('Origin',(-157.823260336886,-986.980149183705,408.88583242176));
#1574=CARTESIAN_POINT('',(-157.823260336886,-933.561287721113,406.635832421759));
#1575=CARTESIAN_POINT('',(-157.823260336886,-960.120455079149,406.635832421759));
#1576=CARTESIAN_POINT('',(-157.823260336886,-931.230148891102,411.531583732845));
#1577=CARTESIAN_POINT('Origin',(-157.823260336886,-931.980148891029,408.885832421759));
#1578=CARTESIAN_POINT('',(-157.823260336886,-931.230148891102,453.740080634114));
#1579=CARTESIAN_POINT('',(-157.823260336886,-931.230148891102,445.08583218348));
#1580=CARTESIAN_POINT('',(-157.823260336885,-934.429638633812,457.6358319452));
#1581=CARTESIAN_POINT('Origin',(-157.823260336886,-931.980148891029,456.385831945199));
#1582=CARTESIAN_POINT('',(-157.823260336885,-984.530659440924,457.635831945201));
#1583=CARTESIAN_POINT('',(-157.823260336885,-966.210357079149,457.635831945198));
#1584=CARTESIAN_POINT('Origin',(-157.823260336886,-986.980149183706,456.385831945199));
#1585=CARTESIAN_POINT('Origin',(-157.623260127774,-990.730149183505,457.035831945197));
#1586=CARTESIAN_POINT('',(-159.623260127774,-990.730149183505,464.635831986621));
#1587=CARTESIAN_POINT('Origin',(-157.623260127774,-990.730149183505,464.635831986621));
#1588=CARTESIAN_POINT('',(-159.623260127774,-990.730149183506,404.835831945202));
#1589=CARTESIAN_POINT('',(-159.623260127774,-990.730149183505,457.035831945197));
#1590=CARTESIAN_POINT('Origin',(-157.623260127774,-990.730149183506,404.835831945202));
#1591=CARTESIAN_POINT('Origin',(-176.826795127777,-937.024147738891,404.835831945201));
#1592=CARTESIAN_POINT('',(-159.623260127774,-930.930149309627,404.835831945201));
#1593=CARTESIAN_POINT('',(-159.623260127774,-932.377423524264,404.835831945201));
#1594=CARTESIAN_POINT('',(-157.623260127774,-928.930149309627,404.835831945201));
#1595=CARTESIAN_POINT('Origin',(-157.623260127774,-930.930149309627,404.835831945201));
#1596=CARTESIAN_POINT('',(-94.3232606237134,-928.930149309642,404.835831945201));
#1597=CARTESIAN_POINT('',(-144.015858375735,-928.930149309631,404.835831945201));
#1598=CARTESIAN_POINT('',(-94.3232606237133,-950.912268992727,404.835831945202));
#1599=CARTESIAN_POINT('Origin',(-159.623260127774,-927.730699309637,456.235831945198));
#1600=CARTESIAN_POINT('',(-159.623260127774,-930.930149309627,464.635831986621));
#1601=CARTESIAN_POINT('',(-159.623260127774,-943.605424278104,464.635831986621));
#1602=CARTESIAN_POINT('',(-159.623260127774,-930.930149309627,457.035831945196));
#1603=CARTESIAN_POINT('Origin',(-157.323260336885,-931.230148891102,445.08583218348));
#1604=CARTESIAN_POINT('',(-157.323260336885,-930.730148891054,411.335322164556));
#1605=CARTESIAN_POINT('Ctrl Pts',(-157.323260336886,-930.730148891102,411.33532216458));
#1606=CARTESIAN_POINT('Ctrl Pts',(-157.386296580612,-930.730148891102,411.33532216458));
#1607=CARTESIAN_POINT('Ctrl Pts',(-157.452874882883,-930.742806364282,411.341897753318));
#1608=CARTESIAN_POINT('Ctrl Pts',(-157.574194074403,-930.792730365586,411.366419178387));
#1609=CARTESIAN_POINT('Ctrl Pts',(-157.628994165961,-930.829951851662,411.38416334422));
#1610=CARTESIAN_POINT('Ctrl Pts',(-157.718043606751,-930.916700167173,411.422358086444));
#1611=CARTESIAN_POINT('Ctrl Pts',(-157.75747717544,-930.973204088275,411.445706041574));
#1612=CARTESIAN_POINT('Ctrl Pts',(-157.810099970931,-931.097664657665,411.491233036434));
#1613=CARTESIAN_POINT('Ctrl Pts',(-157.823260336886,-931.16567217124,411.513306300764));
#1614=CARTESIAN_POINT('Ctrl Pts',(-157.823260336886,-931.230148891102,411.531583732845));
#1615=CARTESIAN_POINT('',(-157.323260336884,-930.730148891259,453.936342202299));
#1616=CARTESIAN_POINT('',(-157.323260336884,-930.730148891102,445.08583218348));
#1617=CARTESIAN_POINT('Ctrl Pts',(-157.823260336885,-931.230148891102,453.740080634114));
#1618=CARTESIAN_POINT('Ctrl Pts',(-157.823260336885,-931.16677216833,453.75804624633));
#1619=CARTESIAN_POINT('Ctrl Pts',(-157.810538748486,-931.099838513079,453.779718815675));
#1620=CARTESIAN_POINT('Ctrl Pts',(-157.759548412821,-930.977020951922,453.824483405214));
#1621=CARTESIAN_POINT('Ctrl Pts',(-157.72130743418,-930.92108920721,453.84747573135));
#1622=CARTESIAN_POINT('Ctrl Pts',(-157.633460599683,-930.833242372713,453.885962810211));
#1623=CARTESIAN_POINT('Ctrl Pts',(-157.578106754625,-930.794834111621,453.904228899814));
#1624=CARTESIAN_POINT('Ctrl Pts',(-157.455130476229,-930.743265045297,453.929525127052));
#1625=CARTESIAN_POINT('Ctrl Pts',(-157.387445596192,-930.730148891102,453.936342202379));
#1626=CARTESIAN_POINT('Ctrl Pts',(-157.323260336885,-930.730148891102,453.936342202379));
#1627=CARTESIAN_POINT('Origin',(-175.108456336908,-931.980148891029,456.385831945199));
#1628=CARTESIAN_POINT('',(-94.3232606381593,-930.730148891054,453.936342202403));
#1629=CARTESIAN_POINT('',(-98.3085126381593,-930.730148891259,453.936342202299));
#1630=CARTESIAN_POINT('',(-94.3232606237132,-934.429638633818,457.635831945189));
#1631=CARTESIAN_POINT('Origin',(-94.3232606237132,-931.980148891029,456.385831945199));
#1632=CARTESIAN_POINT('',(-175.108456336908,-934.429638633812,457.6358319452));
#1633=CARTESIAN_POINT('Origin',(-157.073004127719,-930.730148891102,457.835831945198));
#1634=CARTESIAN_POINT('',(-94.3232606381593,-930.730148891259,411.33532216466));
#1635=CARTESIAN_POINT('',(-175.108456336918,-930.730148891054,411.335322164556));
#1636=CARTESIAN_POINT('',(-94.3232606237132,-930.730148891264,440.234081909121));
#1637=CARTESIAN_POINT('',(-103.768260457799,-930.730148891244,413.160831945172));
#1638=CARTESIAN_POINT('',(-103.768254267263,-930.730148891244,422.11083194517));
#1639=CARTESIAN_POINT('Origin',(-103.768260638079,-930.730148891102,417.635831945172));
#1640=CARTESIAN_POINT('',(-98.7931194849295,-930.730148891258,417.635831945171));
#1641=CARTESIAN_POINT('Origin',(-103.768260520872,-930.730148891102,417.107742187906));
#1642=CARTESIAN_POINT('Origin',(-103.768260520873,-930.730148891102,418.163921702437));
#1643=CARTESIAN_POINT('',(-103.768260641408,-930.730148891244,442.985831945172));
#1644=CARTESIAN_POINT('',(-103.768260638076,-930.730148891244,452.285831945172));
#1645=CARTESIAN_POINT('Origin',(-103.768260638077,-930.730148891102,447.635831945172));
#1646=CARTESIAN_POINT('',(-98.6171698845075,-930.730148891258,447.635831945171));
#1647=CARTESIAN_POINT('Origin',(-103.7682605552,-930.730148891102,447.107742149721));
#1648=CARTESIAN_POINT('Origin',(-103.7682605552,-930.730148891102,448.163921740623));
#1649=CARTESIAN_POINT('Origin',(-157.623260127774,-930.930149309627,457.035831945196));
#1650=CARTESIAN_POINT('',(-157.623260127774,-928.930149309648,464.635831986621));
#1651=CARTESIAN_POINT('Origin',(-157.623260127774,-930.930149309627,464.635831986621));
#1652=CARTESIAN_POINT('',(-157.623260127774,-928.930149309627,457.035831945196));
#1653=CARTESIAN_POINT('Origin',(-111.204921623695,-928.930149309639,457.835831945195));
#1654=CARTESIAN_POINT('',(-94.323260623704,-928.930149309637,464.635831986621));
#1655=CARTESIAN_POINT('',(-96.323260623704,-928.930149309637,464.635831986621));
#1656=CARTESIAN_POINT('',(-94.3232606237134,-928.930149309642,440.234081909119));
#1657=CARTESIAN_POINT('',(-103.768260638076,-928.930149309623,452.285831945172));
#1658=CARTESIAN_POINT('',(-103.768260641408,-928.930149309623,442.985831945172));
#1659=CARTESIAN_POINT('Origin',(-103.768260638077,-928.930149309639,447.635831945172));
#1660=CARTESIAN_POINT('',(-98.6171698845076,-928.930149309623,447.635831945171));
#1661=CARTESIAN_POINT('Origin',(-103.7682605552,-928.930149309639,448.163921740623));
#1662=CARTESIAN_POINT('Origin',(-103.7682605552,-928.930149309639,447.107742149721));
#1663=CARTESIAN_POINT('',(-103.768254267263,-928.930149309623,422.11083194517));
#1664=CARTESIAN_POINT('',(-103.768260457799,-928.930149309623,413.160831945172));
#1665=CARTESIAN_POINT('Origin',(-103.768260638079,-928.930149309639,417.635831945172));
#1666=CARTESIAN_POINT('',(-98.7931194849297,-928.930149309623,417.635831945171));
#1667=CARTESIAN_POINT('Origin',(-103.768260520873,-928.930149309639,418.163921702437));
#1668=CARTESIAN_POINT('Origin',(-103.768260520873,-928.930149309639,417.107742187906));
#1669=CARTESIAN_POINT('Origin',(-128.323260375739,-959.480149246571,464.635831986621));
#1670=CARTESIAN_POINT('',(-94.3232606237063,-990.730149183504,464.635831986621));
#1671=CARTESIAN_POINT('',(-94.3232606237063,-990.730149183504,464.635831986621));
#1672=CARTESIAN_POINT('Origin',(-94.3232606237133,-964.800390246563,422.632331873044));
#1673=CARTESIAN_POINT('',(-94.3232606237133,-947.030149183508,457.635831945189));
#1674=CARTESIAN_POINT('',(-94.3232606237133,-947.030149183508,441.410581909111));
#1675=CARTESIAN_POINT('',(-94.3232606237133,-968.390292246568,457.63583194519));
#1676=CARTESIAN_POINT('',(-94.3232606237132,-933.561287721113,406.635832421759));
#1677=CARTESIAN_POINT('Origin',(-94.3232606237132,-931.980148891029,408.885832421759));
#1678=CARTESIAN_POINT('',(-94.3232606237133,-985.399010353622,406.63583242176));
#1679=CARTESIAN_POINT('',(-94.3232606237133,-962.300390246568,406.635832421759));
#1680=CARTESIAN_POINT('',(-94.3232606381594,-988.230149183707,411.335322164542));
#1681=CARTESIAN_POINT('Origin',(-94.3232606237133,-986.980149183705,408.88583242176));
#1682=CARTESIAN_POINT('',(-94.3232606237133,-976.515269715135,411.335322164542));
#1683=CARTESIAN_POINT('',(-94.3232606381594,-984.530659440924,457.635831945201));
#1684=CARTESIAN_POINT('Origin',(-94.3232606237133,-986.980149183706,456.385831945199));
#1685=CARTESIAN_POINT('',(-94.3232606237133,-971.030149183508,457.635831945189));
#1686=CARTESIAN_POINT('',(-94.3232606237133,-968.390292246568,457.63583194519));
#1687=CARTESIAN_POINT('',(-94.3232606237133,-971.030149183508,441.410581909111));
#1688=CARTESIAN_POINT('',(-94.3232606235437,-931.980148891029,410.13583242176));
#1689=CARTESIAN_POINT('Origin',(-94.3232606235437,-931.980148891029,408.88583242176));
#1690=CARTESIAN_POINT('',(-94.3232606235504,-931.980148891029,457.635831945199));
#1691=CARTESIAN_POINT('Origin',(-94.3232606235504,-931.980148891029,456.385831945199));
#1692=CARTESIAN_POINT('',(-94.3232606235505,-986.980149183706,457.6358319452));
#1693=CARTESIAN_POINT('Origin',(-94.3232606235505,-986.980149183706,456.3858319452));
#1694=CARTESIAN_POINT('',(-94.3232606235438,-986.980149183705,410.13583242176));
#1695=CARTESIAN_POINT('Origin',(-94.3232606235438,-986.980149183705,408.88583242176));
#1696=CARTESIAN_POINT('Origin',(-135.801132375738,-968.480194246573,457.635831945195));
#1697=CARTESIAN_POINT('',(-135.823260623702,-947.030149183508,457.635831945195));
#1698=CARTESIAN_POINT('',(-135.81219649972,-947.030149183508,457.635831945195));
#1699=CARTESIAN_POINT('',(-135.823260623702,-971.030149183508,457.635831945195));
#1700=CARTESIAN_POINT('Origin',(-135.823260623702,-959.030149183508,457.635831945195));
#1701=CARTESIAN_POINT('',(-118.912196499727,-971.030149183508,457.635831945193));
#1702=CARTESIAN_POINT('',(-98.3085126381594,-984.530659440918,457.63583194519));
#1703=CARTESIAN_POINT('',(-122.290186599241,-943.53060880019,457.635831945193));
#1704=CARTESIAN_POINT('Origin',(-120.390186599241,-943.53060880019,457.635831945193));
#1705=CARTESIAN_POINT('',(-153.290186599241,-943.530608800185,457.635831945198));
#1706=CARTESIAN_POINT('Origin',(-151.390186599241,-943.530608800185,457.635831945197));
#1707=CARTESIAN_POINT('',(-153.323260623703,-974.530149183507,457.635831945195));
#1708=CARTESIAN_POINT('Origin',(-151.323260623703,-974.530149183507,457.635831945195));
#1709=CARTESIAN_POINT('',(-122.323260623703,-974.530149183509,457.635831945195));
#1710=CARTESIAN_POINT('Origin',(-120.323260623703,-974.530149183509,457.635831945195));
#1711=CARTESIAN_POINT('Origin',(-135.823260623702,-959.030149183508,457.835831945195));
#1712=CARTESIAN_POINT('',(-135.823260623702,-947.030149183508,457.835831945195));
#1713=CARTESIAN_POINT('',(-135.823260623702,-971.030149183508,457.835831945195));
#1714=CARTESIAN_POINT('Origin',(-135.823260623702,-947.030149183508,460.188831945178));
#1715=CARTESIAN_POINT('Origin',(-102.023260623715,-971.030149183508,460.188831945178));
#1716=CARTESIAN_POINT('Origin',(-103.7682605552,-928.230149309623,448.163921740623));
#1717=CARTESIAN_POINT('',(-98.6171698845075,-928.230149309623,447.635831945171));
#1718=CARTESIAN_POINT('',(-103.768260641408,-928.230149309623,442.985831945172));
#1719=CARTESIAN_POINT('Origin',(-103.768260638077,-928.230149309623,447.635831945172));
#1720=CARTESIAN_POINT('',(-103.768260638076,-928.230149309623,452.285831945172));
#1721=CARTESIAN_POINT('Origin',(-103.7682605552,-928.230149309623,447.107742149721));
#1722=CARTESIAN_POINT('Origin',(-103.768260520873,-928.230149309623,418.163921702437));
#1723=CARTESIAN_POINT('',(-98.7931194849295,-928.230149309623,417.635831945171));
#1724=CARTESIAN_POINT('',(-103.768260457799,-928.230149309623,413.160831945172));
#1725=CARTESIAN_POINT('Origin',(-103.768260638079,-928.230149309623,417.635831945172));
#1726=CARTESIAN_POINT('',(-103.768254267263,-928.230149309623,422.11083194517));
#1727=CARTESIAN_POINT('Origin',(-103.768260520872,-928.230149309623,417.107742187906));
#1728=CARTESIAN_POINT('Origin',(-157.823260336886,-988.230149183707,411.335322164542));
#1729=CARTESIAN_POINT('',(-98.3085126381594,-988.230149183707,411.335322164542));
#1730=CARTESIAN_POINT('Origin',(-98.3184566381683,-990.730149183505,449.755831945185));
#1731=CARTESIAN_POINT('',(-98.3184566381682,-990.730149183505,439.845831945185));
#1732=CARTESIAN_POINT('',(-98.3184566381683,-990.730149183505,453.485831945185));
#1733=CARTESIAN_POINT('Origin',(-102.818456638168,-990.730149183505,439.845831945185));
#1734=CARTESIAN_POINT('',(-104.533260638168,-990.730149183505,439.845831945185));
#1735=CARTESIAN_POINT('Origin',(-103.768260638079,-988.730149183505,417.635831945166));
#1736=CARTESIAN_POINT('',(-103.768260638079,-988.730149183505,420.135831945166));
#1737=CARTESIAN_POINT('Origin',(-104.533260638168,-990.730149183505,440.515831945185));
#1738=CARTESIAN_POINT('',(-104.533260638168,-990.730149183505,453.485831945185));
#1739=CARTESIAN_POINT('Origin',(-111.308456638168,-990.730149183505,453.485831945185));
#1740=CARTESIAN_POINT('Origin',(-110.323260127774,-931.980148891029,456.385831945199));
#1741=CARTESIAN_POINT('',(-110.323260127774,-931.980148891029,457.635831945199));
#1742=CARTESIAN_POINT('Origin',(-110.323260127774,-931.980148891029,456.385831945199));
#1743=CARTESIAN_POINT('Origin',(-110.323260127774,-931.980148891028,408.885832421759));
#1744=CARTESIAN_POINT('',(-110.323260127774,-931.980148891029,410.135832421759));
#1745=CARTESIAN_POINT('Origin',(-110.323260127774,-931.980148891029,408.885832421759));
#1746=CARTESIAN_POINT('Origin',(-110.323260127774,-986.980149183705,408.88583242176));
#1747=CARTESIAN_POINT('',(-110.323260127774,-986.980149183705,410.13583242176));
#1748=CARTESIAN_POINT('Origin',(-110.323260127774,-986.980149183705,408.88583242176));
#1749=CARTESIAN_POINT('Origin',(-110.323260127774,-986.980149183705,456.385831945199));
#1750=CARTESIAN_POINT('',(-110.323260127774,-986.980149183706,457.635831945199));
#1751=CARTESIAN_POINT('Origin',(-110.323260127774,-986.980149183706,456.385831945199));
#1752=CARTESIAN_POINT('Origin',(-175.108456336883,-986.980149183705,408.88583242176));
#1753=CARTESIAN_POINT('',(-175.108456336883,-985.399010353622,406.63583242176));
#1754=CARTESIAN_POINT('Origin',(-146.165858375745,-959.800390246571,406.635832421759));
#1755=CARTESIAN_POINT('',(-175.108456336918,-933.561287721113,406.635832421759));
#1756=CARTESIAN_POINT('Origin',(-175.108456336918,-931.980148891029,408.885832421759));
#1757=CARTESIAN_POINT('Origin',(-175.108456336908,-931.980148891029,456.385831945199));
#1758=CARTESIAN_POINT('',(-175.108456336908,-931.980148891029,457.635831945199));
#1759=CARTESIAN_POINT('Origin',(-175.108456336918,-931.980148891029,408.885832421759));
#1760=CARTESIAN_POINT('',(-175.108456336918,-931.980148891029,410.135832421759));
#1761=CARTESIAN_POINT('Origin',(-175.108456336883,-986.980149183705,408.88583242176));
#1762=CARTESIAN_POINT('',(-175.108456336883,-986.980149183705,410.13583242176));
#1763=CARTESIAN_POINT('Origin',(-175.108456336895,-986.980149183706,456.385831945199));
#1764=CARTESIAN_POINT('',(-175.108456336895,-986.980149183706,457.635831945199));
#1765=CARTESIAN_POINT('Origin',(-151.323260623703,-974.530149183507,460.188831945178));
#1766=CARTESIAN_POINT('',(-153.323260623703,-974.530149183507,460.188831945178));
#1767=CARTESIAN_POINT('Origin',(-151.390186599241,-943.530608800185,457.835831945197));
#1768=CARTESIAN_POINT('',(-153.290186599241,-943.530608800185,457.835831945198));
#1769=CARTESIAN_POINT('Origin',(-120.390186599241,-943.53060880019,457.835831945193));
#1770=CARTESIAN_POINT('',(-122.290186599241,-943.53060880019,457.835831945193));
#1771=CARTESIAN_POINT('Origin',(-175.108456336895,-986.980149183706,456.385831945199));
#1772=CARTESIAN_POINT('Origin',(-120.323260623703,-974.530149183509,460.188831945178));
#1773=CARTESIAN_POINT('',(-122.323260623703,-974.530149183509,460.188831945178));
#1774=UNCERTAINTY_MEASURE_WITH_UNIT(LENGTH_MEASURE(0.01),#1778,
'DISTANCE_ACCURACY_VALUE',
'Maximum model space distance between geometric entities at asserted c
onnectivities');
#1775=UNCERTAINTY_MEASURE_WITH_UNIT(LENGTH_MEASURE(0.01),#1778,
'DISTANCE_ACCURACY_VALUE',
'Maximum model space distance between geometric entities at asserted c
onnectivities');
#1776=(
GEOMETRIC_REPRESENTATION_CONTEXT(3)
GLOBAL_UNCERTAINTY_ASSIGNED_CONTEXT((#1774))
GLOBAL_UNIT_ASSIGNED_CONTEXT((#1778,#1780,#1781))
REPRESENTATION_CONTEXT('','3D')
);
#1777=(
GEOMETRIC_REPRESENTATION_CONTEXT(3)
GLOBAL_UNCERTAINTY_ASSIGNED_CONTEXT((#1775))
GLOBAL_UNIT_ASSIGNED_CONTEXT((#1778,#1780,#1781))
REPRESENTATION_CONTEXT('','3D')
);
#1778=(
LENGTH_UNIT()
NAMED_UNIT(*)
SI_UNIT(.MILLI.,.METRE.)
);
#1779=(
LENGTH_UNIT()
NAMED_UNIT(*)
SI_UNIT($,.METRE.)
);
#1780=(
NAMED_UNIT(*)
PLANE_ANGLE_UNIT()
SI_UNIT($,.RADIAN.)
);
#1781=(
NAMED_UNIT(*)
SI_UNIT($,.STERADIAN.)
SOLID_ANGLE_UNIT()
);
#1782=SHAPE_DEFINITION_REPRESENTATION(#1783,#1784);
#1783=PRODUCT_DEFINITION_SHAPE('',$,#1786);
#1784=SHAPE_REPRESENTATION('',(#1050),#1776);
#1785=PRODUCT_DEFINITION_CONTEXT('part definition',#1790,'design');
#1786=PRODUCT_DEFINITION('2026-09-03-10-57-42-990','main-body',#1787,#1785);
#1787=PRODUCT_DEFINITION_FORMATION('',$,#1792);
#1788=PRODUCT_RELATED_PRODUCT_CATEGORY('main-body','main-body',(#1792));
#1789=APPLICATION_PROTOCOL_DEFINITION('international standard',
'automotive_design',2009,#1790);
#1790=APPLICATION_CONTEXT(
'Core Data for Automotive Mechanical Design Process');
#1791=PRODUCT_CONTEXT('part definition',#1790,'mechanical');
#1792=PRODUCT('2026-09-03-10-57-42-990','main-body',$,(#1791));
#1793=PRESENTATION_STYLE_ASSIGNMENT((#1795));
#1794=PRESENTATION_STYLE_ASSIGNMENT((#1796));
#1795=SURFACE_STYLE_USAGE(.BOTH.,#1797);
#1796=SURFACE_STYLE_USAGE(.BOTH.,#1798);
#1797=SURFACE_SIDE_STYLE('',(#1799));
#1798=SURFACE_SIDE_STYLE('',(#1800));
#1799=SURFACE_STYLE_FILL_AREA(#1801);
#1800=SURFACE_STYLE_FILL_AREA(#1802);
#1801=FILL_AREA_STYLE('Steel - Satin',(#1803));
#1802=FILL_AREA_STYLE('Plastic - Translucent Matte (White) 3D Printed',
(#1804));
#1803=FILL_AREA_STYLE_COLOUR('Steel - Satin',#1805);
#1804=FILL_AREA_STYLE_COLOUR(
'Plastic - Translucent Matte (White) 3D Printed',#1806);
#1805=COLOUR_RGB('Steel - Satin',0.627450980392157,0.627450980392157,0.627450980392157);
#1806=COLOUR_RGB('Plastic - Translucent Matte (White) 3D Printed',0.964705882352941,
0.964705882352941,0.952941176470588);
ENDSEC;
END-ISO-10303-21;
