ISO-10303-21;
HEADER;
/* Generated by software containing ST-Developer
 * from STEP Tools, Inc. (www.steptools.com) 
 */

FILE_DESCRIPTION(
/* description */ (''),
/* implementation_level */ '2;1');

FILE_NAME(
/* name */ 'end-pulley-top.step',
/* time_stamp */ '2026-06-23T13:23:22-07:00',
/* author */ (''),
/* organization */ (''),
/* preprocessor_version */ 'ST-DEVELOPER v20.1',
/* originating_system */ 'Autodesk Translation Framework v15.8.0.0',
/* authorisation */ '');

FILE_SCHEMA (('AUTOMOTIVE_DESIGN { 1 0 10303 214 3 1 1 }'));
ENDSEC;

DATA;
#10=MECHANICAL_DESIGN_GEOMETRIC_PRESENTATION_REPRESENTATION('',(#39,#40,
#41),#1626);
#11=SHAPE_REPRESENTATION_RELATIONSHIP('SRR','None',#1633,#12);
#12=ADVANCED_BREP_SHAPE_REPRESENTATION('',(#13),#1625);
#13=MANIFOLD_SOLID_BREP('Body1',#938);
#14=CONICAL_SURFACE('',#976,1.94996224714938,0.392699081698589);
#15=CONICAL_SURFACE('',#982,1.94996224714939,0.39269908169861);
#16=(
BOUNDED_CURVE()
B_SPLINE_CURVE(2,(#1413,#1414,#1415),.UNSPECIFIED.,.F.,.F.)
B_SPLINE_CURVE_WITH_KNOTS((3,3),(4.57940803044978E-7,4.23213783107056E-6),
 .UNSPECIFIED.)
CURVE()
GEOMETRIC_REPRESENTATION_ITEM()
RATIONAL_B_SPLINE_CURVE((1.01982409215312,1.10151587043093,1.18320706210331))
REPRESENTATION_ITEM('')
);
#17=(
BOUNDED_CURVE()
B_SPLINE_CURVE(2,(#1419,#1420,#1421),.UNSPECIFIED.,.F.,.F.)
B_SPLINE_CURVE_WITH_KNOTS((3,3),(1.05120027620865,1.05120405040568),
 .UNSPECIFIED.)
CURVE()
GEOMETRIC_REPRESENTATION_ITEM()
RATIONAL_B_SPLINE_CURVE((1.18320706210232,1.10151587043309,1.01982409215842))
REPRESENTATION_ITEM('')
);
#18=(
BOUNDED_CURVE()
B_SPLINE_CURVE(2,(#1454,#1455,#1456),.UNSPECIFIED.,.F.,.F.)
B_SPLINE_CURVE_WITH_KNOTS((3,3),(2.02210484029152,2.02211678760718),
 .UNSPECIFIED.)
CURVE()
GEOMETRIC_REPRESENTATION_ITEM()
RATIONAL_B_SPLINE_CURVE((2.27597009512658,2.01737922980289,1.75878530874088))
REPRESENTATION_ITEM('')
);
#19=(
BOUNDED_CURVE()
B_SPLINE_CURVE(2,(#1483,#1484,#1485,#1486),.UNSPECIFIED.,.F.,.F.)
B_SPLINE_CURVE_WITH_KNOTS((3,1,3),(1.72220648852942E-5,2.32890524874606E-5,
2.90793579794967E-5),.UNSPECIFIED.)
CURVE()
GEOMETRIC_REPRESENTATION_ITEM()
RATIONAL_B_SPLINE_CURVE((1.74553318831496,1.87685024655541,2.13349415874683,
2.2588210834642))
REPRESENTATION_ITEM('')
);
#20=B_SPLINE_CURVE_WITH_KNOTS('',3,(#1363,#1364,#1365,#1366,#1367,#1368,
#1369,#1370,#1371,#1372),.UNSPECIFIED.,.F.,.F.,(4,2,2,2,4),(0.,0.0140326694389861,
0.0280653388779722,0.0427105844718327,0.0695298116884894),.UNSPECIFIED.);
#21=B_SPLINE_CURVE_WITH_KNOTS('',3,(#1374,#1375,#1376,#1377,#1378,#1379,
#1380,#1381,#1382,#1383),.UNSPECIFIED.,.F.,.F.,(4,2,2,2,4),(-0.0695298116884896,
-0.0427105844718332,-0.0280653388779726,-0.0140326694389863,0.),
 .UNSPECIFIED.);
#22=B_SPLINE_CURVE_WITH_KNOTS('',3,(#1427,#1428,#1429,#1430,#1431,#1432,
#1433,#1434,#1435,#1436,#1437,#1438,#1439,#1440,#1441,#1442,#1443,#1444),
 .UNSPECIFIED.,.F.,.F.,(4,2,2,2,2,2,2,2,4),(0.069547490714789,0.0963667179363152,
0.111011963532813,0.125044632974329,0.139077302415844,0.15310997185736,
0.167142641298876,0.181787886895373,0.208607114116899),.UNSPECIFIED.);
#23=B_SPLINE_CURVE_WITH_KNOTS('',3,(#1470,#1471,#1472,#1473,#1474,#1475,
#1476,#1477),.UNSPECIFIED.,.F.,.F.,(4,2,2,4),(1.46033748622695,1.56751805112561,
1.67470745600539,1.69995814409841),.UNSPECIFIED.);
#24=B_SPLINE_CURVE_WITH_KNOTS('',3,(#1495,#1496,#1497,#1498,#1499,#1500,
#1501,#1502),.UNSPECIFIED.,.F.,.F.,(4,2,2,4),(1.22063630273905,1.24588699083202,
1.35307639571179,1.46025696061042),.UNSPECIFIED.);
#25=CYLINDRICAL_SURFACE('',#962,2.7);
#26=CYLINDRICAL_SURFACE('',#970,1.69999999999998);
#27=CYLINDRICAL_SURFACE('',#972,2.7);
#28=CYLINDRICAL_SURFACE('',#980,6.5);
#29=CYLINDRICAL_SURFACE('',#986,1.7);
#30=CYLINDRICAL_SURFACE('',#990,1.7);
#31=CYLINDRICAL_SURFACE('',#1003,1.5);
#32=CYLINDRICAL_SURFACE('',#1004,1.49999999999999);
#33=CYLINDRICAL_SURFACE('',#1005,5.);
#34=CYLINDRICAL_SURFACE('',#1008,5.);
#35=CYLINDRICAL_SURFACE('',#1012,2.211743);
#36=CYLINDRICAL_SURFACE('',#1014,2.211743);
#37=CYLINDRICAL_SURFACE('',#1026,3.05);
#38=CYLINDRICAL_SURFACE('',#1032,1.5);
#39=STYLED_ITEM('',(#1644),#895);
#40=STYLED_ITEM('',(#1644),#899);
#41=STYLED_ITEM('',(#1643),#13);
#42=ELLIPSE('',#960,3.12787694708388,2.211743);
#43=ELLIPSE('',#1011,3.12787694708389,2.211743);
#44=FACE_BOUND('',#130,.T.);
#45=FACE_BOUND('',#131,.T.);
#46=FACE_BOUND('',#132,.T.);
#47=FACE_BOUND('',#167,.T.);
#48=CIRCLE('',#954,5.00000000000002);
#49=CIRCLE('',#955,4.99999999999929);
#50=CIRCLE('',#956,3.04999999999999);
#51=CIRCLE('',#957,1.5);
#52=CIRCLE('',#963,2.7);
#53=CIRCLE('',#964,2.7);
#54=CIRCLE('',#966,1.69999999999998);
#55=CIRCLE('',#968,1.69999999999998);
#56=CIRCLE('',#969,6.5);
#57=CIRCLE('',#971,1.69999999999998);
#58=CIRCLE('',#973,2.7);
#59=CIRCLE('',#974,2.7);
#60=CIRCLE('',#977,2.19992449429876);
#61=CIRCLE('',#978,2.19992449429876);
#62=CIRCLE('',#979,1.7);
#63=CIRCLE('',#981,6.5);
#64=CIRCLE('',#983,2.19992449429878);
#65=CIRCLE('',#984,2.19992449429878);
#66=CIRCLE('',#985,1.7);
#67=CIRCLE('',#987,1.7);
#68=CIRCLE('',#991,1.7);
#69=CIRCLE('',#993,1.49999999999999);
#70=CIRCLE('',#999,1.49999999999999);
#71=CIRCLE('',#1000,1.5);
#72=CIRCLE('',#1002,1.5);
#73=CIRCLE('',#1006,5.);
#74=CIRCLE('',#1009,5.);
#75=CIRCLE('',#1013,2.211743);
#76=CIRCLE('',#1015,2.211743);
#77=CIRCLE('',#1016,2.211743);
#78=CIRCLE('',#1020,1.5);
#79=CIRCLE('',#1027,3.05);
#80=FACE_OUTER_BOUND('',#128,.T.);
#81=FACE_OUTER_BOUND('',#129,.T.);
#82=FACE_OUTER_BOUND('',#133,.T.);
#83=FACE_OUTER_BOUND('',#134,.T.);
#84=FACE_OUTER_BOUND('',#135,.T.);
#85=FACE_OUTER_BOUND('',#136,.T.);
#86=FACE_OUTER_BOUND('',#137,.T.);
#87=FACE_OUTER_BOUND('',#138,.T.);
#88=FACE_OUTER_BOUND('',#139,.T.);
#89=FACE_OUTER_BOUND('',#140,.T.);
#90=FACE_OUTER_BOUND('',#141,.T.);
#91=FACE_OUTER_BOUND('',#142,.T.);
#92=FACE_OUTER_BOUND('',#143,.T.);
#93=FACE_OUTER_BOUND('',#144,.T.);
#94=FACE_OUTER_BOUND('',#145,.T.);
#95=FACE_OUTER_BOUND('',#146,.T.);
#96=FACE_OUTER_BOUND('',#147,.T.);
#97=FACE_OUTER_BOUND('',#148,.T.);
#98=FACE_OUTER_BOUND('',#149,.T.);
#99=FACE_OUTER_BOUND('',#150,.T.);
#100=FACE_OUTER_BOUND('',#151,.T.);
#101=FACE_OUTER_BOUND('',#152,.T.);
#102=FACE_OUTER_BOUND('',#153,.T.);
#103=FACE_OUTER_BOUND('',#154,.T.);
#104=FACE_OUTER_BOUND('',#155,.T.);
#105=FACE_OUTER_BOUND('',#156,.T.);
#106=FACE_OUTER_BOUND('',#157,.T.);
#107=FACE_OUTER_BOUND('',#158,.T.);
#108=FACE_OUTER_BOUND('',#159,.T.);
#109=FACE_OUTER_BOUND('',#160,.T.);
#110=FACE_OUTER_BOUND('',#161,.T.);
#111=FACE_OUTER_BOUND('',#162,.T.);
#112=FACE_OUTER_BOUND('',#163,.T.);
#113=FACE_OUTER_BOUND('',#164,.T.);
#114=FACE_OUTER_BOUND('',#165,.T.);
#115=FACE_OUTER_BOUND('',#166,.T.);
#116=FACE_OUTER_BOUND('',#168,.T.);
#117=FACE_OUTER_BOUND('',#169,.T.);
#118=FACE_OUTER_BOUND('',#170,.T.);
#119=FACE_OUTER_BOUND('',#171,.T.);
#120=FACE_OUTER_BOUND('',#172,.T.);
#121=FACE_OUTER_BOUND('',#173,.T.);
#122=FACE_OUTER_BOUND('',#174,.T.);
#123=FACE_OUTER_BOUND('',#175,.T.);
#124=FACE_OUTER_BOUND('',#176,.T.);
#125=FACE_OUTER_BOUND('',#177,.T.);
#126=FACE_OUTER_BOUND('',#178,.T.);
#127=FACE_OUTER_BOUND('',#179,.T.);
#128=EDGE_LOOP('',(#588,#589,#590,#591));
#129=EDGE_LOOP('',(#592,#593,#594,#595,#596,#597,#598,#599,#600,#601));
#130=EDGE_LOOP('',(#602,#603,#604,#605));
#131=EDGE_LOOP('',(#606));
#132=EDGE_LOOP('',(#607));
#133=EDGE_LOOP('',(#608,#609,#610,#611,#612,#613));
#134=EDGE_LOOP('',(#614,#615,#616,#617,#618,#619));
#135=EDGE_LOOP('',(#620,#621,#622,#623));
#136=EDGE_LOOP('',(#624,#625,#626,#627,#628,#629,#630));
#137=EDGE_LOOP('',(#631,#632,#633,#634,#635,#636,#637,#638));
#138=EDGE_LOOP('',(#639,#640,#641,#642,#643,#644,#645,#646,#647,#648));
#139=EDGE_LOOP('',(#649,#650,#651,#652,#653,#654,#655,#656));
#140=EDGE_LOOP('',(#657,#658,#659,#660,#661,#662));
#141=EDGE_LOOP('',(#663,#664,#665,#666,#667,#668,#669,#670,#671,#672,#673));
#142=EDGE_LOOP('',(#674,#675,#676,#677,#678,#679));
#143=EDGE_LOOP('',(#680,#681,#682,#683,#684,#685));
#144=EDGE_LOOP('',(#686,#687,#688,#689,#690,#691));
#145=EDGE_LOOP('',(#692,#693,#694,#695));
#146=EDGE_LOOP('',(#696,#697,#698));
#147=EDGE_LOOP('',(#699,#700,#701));
#148=EDGE_LOOP('',(#702,#703,#704,#705));
#149=EDGE_LOOP('',(#706,#707,#708,#709));
#150=EDGE_LOOP('',(#710));
#151=EDGE_LOOP('',(#711,#712,#713,#714));
#152=EDGE_LOOP('',(#715,#716,#717,#718));
#153=EDGE_LOOP('',(#719,#720,#721,#722,#723,#724,#725,#726,#727,#728,#729));
#154=EDGE_LOOP('',(#730,#731,#732,#733,#734,#735,#736,#737));
#155=EDGE_LOOP('',(#738,#739,#740,#741));
#156=EDGE_LOOP('',(#742,#743,#744,#745));
#157=EDGE_LOOP('',(#746,#747,#748,#749));
#158=EDGE_LOOP('',(#750,#751,#752,#753));
#159=EDGE_LOOP('',(#754,#755,#756,#757));
#160=EDGE_LOOP('',(#758,#759,#760,#761));
#161=EDGE_LOOP('',(#762,#763,#764,#765,#766));
#162=EDGE_LOOP('',(#767,#768,#769,#770));
#163=EDGE_LOOP('',(#771,#772,#773,#774,#775));
#164=EDGE_LOOP('',(#776,#777,#778));
#165=EDGE_LOOP('',(#779,#780,#781,#782));
#166=EDGE_LOOP('',(#783,#784,#785,#786,#787,#788,#789,#790,#791,#792,#793,
#794,#795,#796));
#167=EDGE_LOOP('',(#797));
#168=EDGE_LOOP('',(#798,#799,#800,#801,#802,#803,#804,#805));
#169=EDGE_LOOP('',(#806,#807,#808,#809));
#170=EDGE_LOOP('',(#810,#811,#812,#813,#814,#815,#816,#817,#818,#819));
#171=EDGE_LOOP('',(#820,#821,#822,#823));
#172=EDGE_LOOP('',(#824,#825,#826,#827,#828));
#173=EDGE_LOOP('',(#829,#830,#831,#832));
#174=EDGE_LOOP('',(#833));
#175=EDGE_LOOP('',(#834,#835,#836,#837,#838,#839));
#176=EDGE_LOOP('',(#840,#841,#842,#843));
#177=EDGE_LOOP('',(#844,#845,#846,#847,#848,#849));
#178=EDGE_LOOP('',(#850,#851,#852,#853));
#179=EDGE_LOOP('',(#854,#855,#856,#857));
#180=LINE('',#1296,#272);
#181=LINE('',#1298,#273);
#182=LINE('',#1300,#274);
#183=LINE('',#1301,#275);
#184=LINE('',#1304,#276);
#185=LINE('',#1306,#277);
#186=LINE('',#1310,#278);
#187=LINE('',#1314,#279);
#188=LINE('',#1316,#280);
#189=LINE('',#1318,#281);
#190=LINE('',#1319,#282);
#191=LINE('',#1322,#283);
#192=LINE('',#1324,#284);
#193=LINE('',#1326,#285);
#194=LINE('',#1327,#286);
#195=LINE('',#1334,#287);
#196=LINE('',#1336,#288);
#197=LINE('',#1338,#289);
#198=LINE('',#1340,#290);
#199=LINE('',#1341,#291);
#200=LINE('',#1344,#292);
#201=LINE('',#1348,#293);
#202=LINE('',#1349,#294);
#203=LINE('',#1352,#295);
#204=LINE('',#1353,#296);
#205=LINE('',#1357,#297);
#206=LINE('',#1361,#298);
#207=LINE('',#1385,#299);
#208=LINE('',#1389,#300);
#209=LINE('',#1391,#301);
#210=LINE('',#1393,#302);
#211=LINE('',#1395,#303);
#212=LINE('',#1397,#304);
#213=LINE('',#1399,#305);
#214=LINE('',#1403,#306);
#215=LINE('',#1407,#307);
#216=LINE('',#1409,#308);
#217=LINE('',#1411,#309);
#218=LINE('',#1422,#310);
#219=LINE('',#1426,#311);
#220=LINE('',#1448,#312);
#221=LINE('',#1458,#313);
#222=LINE('',#1459,#314);
#223=LINE('',#1461,#315);
#224=LINE('',#1463,#316);
#225=LINE('',#1464,#317);
#226=LINE('',#1466,#318);
#227=LINE('',#1467,#319);
#228=LINE('',#1491,#320);
#229=LINE('',#1494,#321);
#230=LINE('',#1511,#322);
#231=LINE('',#1513,#323);
#232=LINE('',#1516,#324);
#233=LINE('',#1521,#325);
#234=LINE('',#1525,#326);
#235=LINE('',#1528,#327);
#236=LINE('',#1530,#328);
#237=LINE('',#1531,#329);
#238=LINE('',#1533,#330);
#239=LINE('',#1534,#331);
#240=LINE('',#1544,#332);
#241=LINE('',#1547,#333);
#242=LINE('',#1550,#334);
#243=LINE('',#1551,#335);
#244=LINE('',#1557,#336);
#245=LINE('',#1561,#337);
#246=LINE('',#1566,#338);
#247=LINE('',#1569,#339);
#248=LINE('',#1571,#340);
#249=LINE('',#1574,#341);
#250=LINE('',#1576,#342);
#251=LINE('',#1578,#343);
#252=LINE('',#1580,#344);
#253=LINE('',#1582,#345);
#254=LINE('',#1584,#346);
#255=LINE('',#1585,#347);
#256=LINE('',#1589,#348);
#257=LINE('',#1591,#349);
#258=LINE('',#1592,#350);
#259=LINE('',#1595,#351);
#260=LINE('',#1596,#352);
#261=LINE('',#1599,#353);
#262=LINE('',#1601,#354);
#263=LINE('',#1603,#355);
#264=LINE('',#1604,#356);
#265=LINE('',#1606,#357);
#266=LINE('',#1610,#358);
#267=LINE('',#1614,#359);
#268=LINE('',#1615,#360);
#269=LINE('',#1617,#361);
#270=LINE('',#1619,#362);
#271=LINE('',#1621,#363);
#272=VECTOR('',#1038,10.);
#273=VECTOR('',#1039,10.);
#274=VECTOR('',#1040,10.);
#275=VECTOR('',#1041,10.);
#276=VECTOR('',#1044,10.);
#277=VECTOR('',#1045,10.);
#278=VECTOR('',#1048,10.);
#279=VECTOR('',#1051,10.);
#280=VECTOR('',#1052,10.);
#281=VECTOR('',#1053,10.);
#282=VECTOR('',#1054,10.);
#283=VECTOR('',#1055,10.);
#284=VECTOR('',#1056,10.);
#285=VECTOR('',#1057,10.);
#286=VECTOR('',#1058,10.);
#287=VECTOR('',#1065,10.);
#288=VECTOR('',#1066,10.);
#289=VECTOR('',#1067,10.);
#290=VECTOR('',#1068,10.);
#291=VECTOR('',#1069,10.);
#292=VECTOR('',#1072,10.);
#293=VECTOR('',#1075,10.);
#294=VECTOR('',#1076,10.);
#295=VECTOR('',#1079,10.);
#296=VECTOR('',#1080,10.);
#297=VECTOR('',#1083,10.);
#298=VECTOR('',#1086,10.);
#299=VECTOR('',#1087,10.);
#300=VECTOR('',#1092,10.);
#301=VECTOR('',#1093,10.);
#302=VECTOR('',#1094,10.);
#303=VECTOR('',#1095,10.);
#304=VECTOR('',#1096,10.);
#305=VECTOR('',#1097,10.);
#306=VECTOR('',#1102,10.);
#307=VECTOR('',#1105,10.);
#308=VECTOR('',#1106,10.);
#309=VECTOR('',#1107,10.);
#310=VECTOR('',#1110,10.);
#311=VECTOR('',#1115,1.69999999999998);
#312=VECTOR('',#1118,10.);
#313=VECTOR('',#1125,10.);
#314=VECTOR('',#1126,10.);
#315=VECTOR('',#1127,10.);
#316=VECTOR('',#1128,10.);
#317=VECTOR('',#1129,10.);
#318=VECTOR('',#1130,10.);
#319=VECTOR('',#1131,10.);
#320=VECTOR('',#1142,10.);
#321=VECTOR('',#1145,10.);
#322=VECTOR('',#1160,10.);
#323=VECTOR('',#1163,10.);
#324=VECTOR('',#1166,10.);
#325=VECTOR('',#1173,10.);
#326=VECTOR('',#1180,10.);
#327=VECTOR('',#1183,10.);
#328=VECTOR('',#1184,10.);
#329=VECTOR('',#1185,10.);
#330=VECTOR('',#1186,10.);
#331=VECTOR('',#1187,10.);
#332=VECTOR('',#1204,10.);
#333=VECTOR('',#1207,10.);
#334=VECTOR('',#1210,10.);
#335=VECTOR('',#1211,10.);
#336=VECTOR('',#1220,10.);
#337=VECTOR('',#1225,10.);
#338=VECTOR('',#1230,10.);
#339=VECTOR('',#1235,10.);
#340=VECTOR('',#1238,10.);
#341=VECTOR('',#1241,10.);
#342=VECTOR('',#1242,10.);
#343=VECTOR('',#1243,10.);
#344=VECTOR('',#1244,10.);
#345=VECTOR('',#1245,10.);
#346=VECTOR('',#1246,10.);
#347=VECTOR('',#1247,10.);
#348=VECTOR('',#1252,10.);
#349=VECTOR('',#1253,10.);
#350=VECTOR('',#1254,10.);
#351=VECTOR('',#1257,10.);
#352=VECTOR('',#1258,10.);
#353=VECTOR('',#1261,10.);
#354=VECTOR('',#1262,10.);
#355=VECTOR('',#1263,10.);
#356=VECTOR('',#1264,10.);
#357=VECTOR('',#1267,10.);
#358=VECTOR('',#1272,3.05);
#359=VECTOR('',#1279,10.);
#360=VECTOR('',#1280,10.);
#361=VECTOR('',#1283,10.);
#362=VECTOR('',#1286,10.);
#363=VECTOR('',#1289,1.5);
#364=VERTEX_POINT('',#1294);
#365=VERTEX_POINT('',#1295);
#366=VERTEX_POINT('',#1297);
#367=VERTEX_POINT('',#1299);
#368=VERTEX_POINT('',#1303);
#369=VERTEX_POINT('',#1305);
#370=VERTEX_POINT('',#1307);
#371=VERTEX_POINT('',#1309);
#372=VERTEX_POINT('',#1311);
#373=VERTEX_POINT('',#1313);
#374=VERTEX_POINT('',#1315);
#375=VERTEX_POINT('',#1317);
#376=VERTEX_POINT('',#1320);
#377=VERTEX_POINT('',#1321);
#378=VERTEX_POINT('',#1323);
#379=VERTEX_POINT('',#1325);
#380=VERTEX_POINT('',#1328);
#381=VERTEX_POINT('',#1330);
#382=VERTEX_POINT('',#1333);
#383=VERTEX_POINT('',#1335);
#384=VERTEX_POINT('',#1337);
#385=VERTEX_POINT('',#1339);
#386=VERTEX_POINT('',#1343);
#387=VERTEX_POINT('',#1345);
#388=VERTEX_POINT('',#1347);
#389=VERTEX_POINT('',#1351);
#390=VERTEX_POINT('',#1355);
#391=VERTEX_POINT('',#1356);
#392=VERTEX_POINT('',#1358);
#393=VERTEX_POINT('',#1360);
#394=VERTEX_POINT('',#1362);
#395=VERTEX_POINT('',#1373);
#396=VERTEX_POINT('',#1384);
#397=VERTEX_POINT('',#1388);
#398=VERTEX_POINT('',#1390);
#399=VERTEX_POINT('',#1392);
#400=VERTEX_POINT('',#1394);
#401=VERTEX_POINT('',#1396);
#402=VERTEX_POINT('',#1398);
#403=VERTEX_POINT('',#1402);
#404=VERTEX_POINT('',#1404);
#405=VERTEX_POINT('',#1406);
#406=VERTEX_POINT('',#1408);
#407=VERTEX_POINT('',#1410);
#408=VERTEX_POINT('',#1412);
#409=VERTEX_POINT('',#1416);
#410=VERTEX_POINT('',#1418);
#411=VERTEX_POINT('',#1424);
#412=VERTEX_POINT('',#1446);
#413=VERTEX_POINT('',#1447);
#414=VERTEX_POINT('',#1452);
#415=VERTEX_POINT('',#1453);
#416=VERTEX_POINT('',#1457);
#417=VERTEX_POINT('',#1460);
#418=VERTEX_POINT('',#1462);
#419=VERTEX_POINT('',#1465);
#420=VERTEX_POINT('',#1469);
#421=VERTEX_POINT('',#1478);
#422=VERTEX_POINT('',#1480);
#423=VERTEX_POINT('',#1482);
#424=VERTEX_POINT('',#1489);
#425=VERTEX_POINT('',#1490);
#426=VERTEX_POINT('',#1492);
#427=VERTEX_POINT('',#1504);
#428=VERTEX_POINT('',#1515);
#429=VERTEX_POINT('',#1519);
#430=VERTEX_POINT('',#1527);
#431=VERTEX_POINT('',#1529);
#432=VERTEX_POINT('',#1532);
#433=VERTEX_POINT('',#1543);
#434=VERTEX_POINT('',#1545);
#435=VERTEX_POINT('',#1549);
#436=VERTEX_POINT('',#1555);
#437=VERTEX_POINT('',#1559);
#438=VERTEX_POINT('',#1563);
#439=VERTEX_POINT('',#1565);
#440=VERTEX_POINT('',#1573);
#441=VERTEX_POINT('',#1575);
#442=VERTEX_POINT('',#1577);
#443=VERTEX_POINT('',#1579);
#444=VERTEX_POINT('',#1581);
#445=VERTEX_POINT('',#1583);
#446=VERTEX_POINT('',#1586);
#447=VERTEX_POINT('',#1590);
#448=VERTEX_POINT('',#1594);
#449=VERTEX_POINT('',#1598);
#450=VERTEX_POINT('',#1600);
#451=VERTEX_POINT('',#1602);
#452=VERTEX_POINT('',#1609);
#453=EDGE_CURVE('',#364,#365,#180,.T.);
#454=EDGE_CURVE('',#366,#364,#181,.T.);
#455=EDGE_CURVE('',#367,#366,#182,.T.);
#456=EDGE_CURVE('',#365,#367,#183,.T.);
#457=EDGE_CURVE('',#368,#364,#184,.T.);
#458=EDGE_CURVE('',#368,#369,#185,.T.);
#459=EDGE_CURVE('',#369,#370,#48,.T.);
#460=EDGE_CURVE('',#370,#371,#186,.T.);
#461=EDGE_CURVE('',#371,#372,#49,.T.);
#462=EDGE_CURVE('',#372,#373,#187,.T.);
#463=EDGE_CURVE('',#374,#373,#188,.T.);
#464=EDGE_CURVE('',#374,#375,#189,.T.);
#465=EDGE_CURVE('',#375,#366,#190,.T.);
#466=EDGE_CURVE('',#376,#377,#191,.T.);
#467=EDGE_CURVE('',#377,#378,#192,.T.);
#468=EDGE_CURVE('',#378,#379,#193,.T.);
#469=EDGE_CURVE('',#379,#376,#194,.T.);
#470=EDGE_CURVE('',#380,#380,#50,.T.);
#471=EDGE_CURVE('',#381,#381,#51,.T.);
#472=EDGE_CURVE('',#373,#382,#195,.T.);
#473=EDGE_CURVE('',#383,#372,#196,.T.);
#474=EDGE_CURVE('',#383,#384,#197,.T.);
#475=EDGE_CURVE('',#384,#385,#198,.T.);
#476=EDGE_CURVE('',#385,#382,#199,.T.);
#477=EDGE_CURVE('',#382,#386,#200,.T.);
#478=EDGE_CURVE('',#386,#387,#42,.T.);
#479=EDGE_CURVE('',#387,#388,#201,.T.);
#480=EDGE_CURVE('',#388,#374,#202,.T.);
#481=EDGE_CURVE('',#388,#389,#203,.T.);
#482=EDGE_CURVE('',#389,#375,#204,.T.);
#483=EDGE_CURVE('',#390,#391,#205,.T.);
#484=EDGE_CURVE('',#390,#392,#52,.F.);
#485=EDGE_CURVE('',#393,#392,#206,.T.);
#486=EDGE_CURVE('',#394,#393,#20,.T.);
#487=EDGE_CURVE('',#395,#394,#21,.T.);
#488=EDGE_CURVE('',#396,#395,#207,.T.);
#489=EDGE_CURVE('',#396,#391,#53,.T.);
#490=EDGE_CURVE('',#392,#397,#208,.T.);
#491=EDGE_CURVE('',#397,#398,#209,.T.);
#492=EDGE_CURVE('',#399,#398,#210,.T.);
#493=EDGE_CURVE('',#399,#400,#211,.T.);
#494=EDGE_CURVE('',#400,#401,#212,.T.);
#495=EDGE_CURVE('',#401,#402,#213,.T.);
#496=EDGE_CURVE('',#402,#393,#54,.T.);
#497=EDGE_CURVE('',#403,#396,#214,.T.);
#498=EDGE_CURVE('',#395,#404,#55,.T.);
#499=EDGE_CURVE('',#404,#405,#215,.T.);
#500=EDGE_CURVE('',#405,#406,#216,.T.);
#501=EDGE_CURVE('',#407,#406,#217,.F.);
#502=EDGE_CURVE('',#408,#407,#16,.T.);
#503=EDGE_CURVE('',#408,#409,#56,.T.);
#504=EDGE_CURVE('',#410,#409,#17,.T.);
#505=EDGE_CURVE('',#410,#403,#218,.T.);
#506=EDGE_CURVE('',#411,#411,#57,.T.);
#507=EDGE_CURVE('',#411,#394,#219,.T.);
#508=EDGE_CURVE('',#402,#404,#22,.T.);
#509=EDGE_CURVE('',#412,#413,#220,.T.);
#510=EDGE_CURVE('',#412,#405,#58,.T.);
#511=EDGE_CURVE('',#401,#413,#59,.F.);
#512=EDGE_CURVE('',#414,#415,#18,.T.);
#513=EDGE_CURVE('',#414,#416,#221,.T.);
#514=EDGE_CURVE('',#416,#412,#222,.T.);
#515=EDGE_CURVE('',#413,#417,#223,.T.);
#516=EDGE_CURVE('',#417,#418,#224,.T.);
#517=EDGE_CURVE('',#389,#418,#225,.T.);
#518=EDGE_CURVE('',#419,#387,#226,.F.);
#519=EDGE_CURVE('',#415,#419,#227,.T.);
#520=EDGE_CURVE('',#409,#420,#23,.T.);
#521=EDGE_CURVE('',#420,#421,#60,.T.);
#522=EDGE_CURVE('',#421,#422,#61,.T.);
#523=EDGE_CURVE('',#422,#423,#19,.T.);
#524=EDGE_CURVE('',#423,#410,#62,.T.);
#525=EDGE_CURVE('',#424,#425,#228,.T.);
#526=EDGE_CURVE('',#424,#426,#63,.T.);
#527=EDGE_CURVE('',#420,#426,#229,.T.);
#528=EDGE_CURVE('',#425,#408,#24,.T.);
#529=EDGE_CURVE('',#415,#427,#64,.T.);
#530=EDGE_CURVE('',#427,#425,#65,.T.);
#531=EDGE_CURVE('',#407,#414,#66,.T.);
#532=EDGE_CURVE('',#406,#416,#67,.T.);
#533=EDGE_CURVE('',#421,#426,#230,.T.);
#534=EDGE_CURVE('',#424,#427,#231,.T.);
#535=EDGE_CURVE('',#423,#428,#232,.F.);
#536=EDGE_CURVE('',#428,#403,#68,.T.);
#537=EDGE_CURVE('',#429,#397,#69,.T.);
#538=EDGE_CURVE('',#429,#390,#233,.T.);
#539=EDGE_CURVE('',#391,#428,#234,.T.);
#540=EDGE_CURVE('',#422,#430,#235,.T.);
#541=EDGE_CURVE('',#431,#430,#236,.F.);
#542=EDGE_CURVE('',#365,#431,#237,.T.);
#543=EDGE_CURVE('',#432,#367,#238,.T.);
#544=EDGE_CURVE('',#432,#429,#239,.T.);
#545=EDGE_CURVE('',#398,#432,#70,.T.);
#546=EDGE_CURVE('',#418,#399,#71,.T.);
#547=EDGE_CURVE('',#400,#417,#72,.T.);
#548=EDGE_CURVE('',#433,#369,#240,.T.);
#549=EDGE_CURVE('',#433,#434,#73,.T.);
#550=EDGE_CURVE('',#434,#370,#241,.T.);
#551=EDGE_CURVE('',#434,#435,#242,.T.);
#552=EDGE_CURVE('',#371,#435,#243,.T.);
#553=EDGE_CURVE('',#435,#383,#74,.T.);
#554=EDGE_CURVE('',#431,#436,#43,.T.);
#555=EDGE_CURVE('',#368,#436,#244,.T.);
#556=EDGE_CURVE('',#437,#430,#75,.F.);
#557=EDGE_CURVE('',#437,#436,#245,.F.);
#558=EDGE_CURVE('',#386,#438,#76,.F.);
#559=EDGE_CURVE('',#438,#439,#246,.T.);
#560=EDGE_CURVE('',#439,#419,#77,.T.);
#561=EDGE_CURVE('',#438,#382,#247,.T.);
#562=EDGE_CURVE('',#427,#439,#248,.T.);
#563=EDGE_CURVE('',#440,#385,#249,.T.);
#564=EDGE_CURVE('',#440,#441,#250,.T.);
#565=EDGE_CURVE('',#441,#442,#251,.T.);
#566=EDGE_CURVE('',#442,#443,#252,.T.);
#567=EDGE_CURVE('',#444,#443,#253,.T.);
#568=EDGE_CURVE('',#444,#445,#254,.T.);
#569=EDGE_CURVE('',#445,#421,#255,.T.);
#570=EDGE_CURVE('',#446,#446,#78,.T.);
#571=EDGE_CURVE('',#445,#437,#256,.T.);
#572=EDGE_CURVE('',#444,#447,#257,.T.);
#573=EDGE_CURVE('',#447,#433,#258,.T.);
#574=EDGE_CURVE('',#448,#384,#259,.T.);
#575=EDGE_CURVE('',#440,#448,#260,.T.);
#576=EDGE_CURVE('',#449,#447,#261,.T.);
#577=EDGE_CURVE('',#450,#449,#262,.T.);
#578=EDGE_CURVE('',#451,#450,#263,.T.);
#579=EDGE_CURVE('',#448,#451,#264,.T.);
#580=EDGE_CURVE('',#449,#443,#265,.T.);
#581=EDGE_CURVE('',#380,#452,#266,.T.);
#582=EDGE_CURVE('',#452,#452,#79,.T.);
#583=EDGE_CURVE('',#376,#451,#267,.T.);
#584=EDGE_CURVE('',#441,#379,#268,.T.);
#585=EDGE_CURVE('',#450,#377,#269,.T.);
#586=EDGE_CURVE('',#378,#442,#270,.T.);
#587=EDGE_CURVE('',#446,#381,#271,.T.);
#588=ORIENTED_EDGE('',*,*,#453,.F.);
#589=ORIENTED_EDGE('',*,*,#454,.F.);
#590=ORIENTED_EDGE('',*,*,#455,.F.);
#591=ORIENTED_EDGE('',*,*,#456,.F.);
#592=ORIENTED_EDGE('',*,*,#457,.F.);
#593=ORIENTED_EDGE('',*,*,#458,.T.);
#594=ORIENTED_EDGE('',*,*,#459,.T.);
#595=ORIENTED_EDGE('',*,*,#460,.T.);
#596=ORIENTED_EDGE('',*,*,#461,.T.);
#597=ORIENTED_EDGE('',*,*,#462,.T.);
#598=ORIENTED_EDGE('',*,*,#463,.F.);
#599=ORIENTED_EDGE('',*,*,#464,.T.);
#600=ORIENTED_EDGE('',*,*,#465,.T.);
#601=ORIENTED_EDGE('',*,*,#454,.T.);
#602=ORIENTED_EDGE('',*,*,#466,.T.);
#603=ORIENTED_EDGE('',*,*,#467,.T.);
#604=ORIENTED_EDGE('',*,*,#468,.T.);
#605=ORIENTED_EDGE('',*,*,#469,.T.);
#606=ORIENTED_EDGE('',*,*,#470,.T.);
#607=ORIENTED_EDGE('',*,*,#471,.F.);
#608=ORIENTED_EDGE('',*,*,#472,.F.);
#609=ORIENTED_EDGE('',*,*,#462,.F.);
#610=ORIENTED_EDGE('',*,*,#473,.F.);
#611=ORIENTED_EDGE('',*,*,#474,.T.);
#612=ORIENTED_EDGE('',*,*,#475,.T.);
#613=ORIENTED_EDGE('',*,*,#476,.T.);
#614=ORIENTED_EDGE('',*,*,#472,.T.);
#615=ORIENTED_EDGE('',*,*,#477,.T.);
#616=ORIENTED_EDGE('',*,*,#478,.T.);
#617=ORIENTED_EDGE('',*,*,#479,.T.);
#618=ORIENTED_EDGE('',*,*,#480,.T.);
#619=ORIENTED_EDGE('',*,*,#463,.T.);
#620=ORIENTED_EDGE('',*,*,#480,.F.);
#621=ORIENTED_EDGE('',*,*,#481,.T.);
#622=ORIENTED_EDGE('',*,*,#482,.T.);
#623=ORIENTED_EDGE('',*,*,#464,.F.);
#624=ORIENTED_EDGE('',*,*,#483,.F.);
#625=ORIENTED_EDGE('',*,*,#484,.T.);
#626=ORIENTED_EDGE('',*,*,#485,.F.);
#627=ORIENTED_EDGE('',*,*,#486,.F.);
#628=ORIENTED_EDGE('',*,*,#487,.F.);
#629=ORIENTED_EDGE('',*,*,#488,.F.);
#630=ORIENTED_EDGE('',*,*,#489,.T.);
#631=ORIENTED_EDGE('',*,*,#490,.T.);
#632=ORIENTED_EDGE('',*,*,#491,.T.);
#633=ORIENTED_EDGE('',*,*,#492,.F.);
#634=ORIENTED_EDGE('',*,*,#493,.T.);
#635=ORIENTED_EDGE('',*,*,#494,.T.);
#636=ORIENTED_EDGE('',*,*,#495,.T.);
#637=ORIENTED_EDGE('',*,*,#496,.T.);
#638=ORIENTED_EDGE('',*,*,#485,.T.);
#639=ORIENTED_EDGE('',*,*,#497,.T.);
#640=ORIENTED_EDGE('',*,*,#488,.T.);
#641=ORIENTED_EDGE('',*,*,#498,.T.);
#642=ORIENTED_EDGE('',*,*,#499,.T.);
#643=ORIENTED_EDGE('',*,*,#500,.T.);
#644=ORIENTED_EDGE('',*,*,#501,.F.);
#645=ORIENTED_EDGE('',*,*,#502,.F.);
#646=ORIENTED_EDGE('',*,*,#503,.T.);
#647=ORIENTED_EDGE('',*,*,#504,.F.);
#648=ORIENTED_EDGE('',*,*,#505,.T.);
#649=ORIENTED_EDGE('',*,*,#506,.T.);
#650=ORIENTED_EDGE('',*,*,#507,.T.);
#651=ORIENTED_EDGE('',*,*,#486,.T.);
#652=ORIENTED_EDGE('',*,*,#496,.F.);
#653=ORIENTED_EDGE('',*,*,#508,.T.);
#654=ORIENTED_EDGE('',*,*,#498,.F.);
#655=ORIENTED_EDGE('',*,*,#487,.T.);
#656=ORIENTED_EDGE('',*,*,#507,.F.);
#657=ORIENTED_EDGE('',*,*,#509,.F.);
#658=ORIENTED_EDGE('',*,*,#510,.T.);
#659=ORIENTED_EDGE('',*,*,#499,.F.);
#660=ORIENTED_EDGE('',*,*,#508,.F.);
#661=ORIENTED_EDGE('',*,*,#495,.F.);
#662=ORIENTED_EDGE('',*,*,#511,.T.);
#663=ORIENTED_EDGE('',*,*,#512,.F.);
#664=ORIENTED_EDGE('',*,*,#513,.T.);
#665=ORIENTED_EDGE('',*,*,#514,.T.);
#666=ORIENTED_EDGE('',*,*,#509,.T.);
#667=ORIENTED_EDGE('',*,*,#515,.T.);
#668=ORIENTED_EDGE('',*,*,#516,.T.);
#669=ORIENTED_EDGE('',*,*,#517,.F.);
#670=ORIENTED_EDGE('',*,*,#481,.F.);
#671=ORIENTED_EDGE('',*,*,#479,.F.);
#672=ORIENTED_EDGE('',*,*,#518,.F.);
#673=ORIENTED_EDGE('',*,*,#519,.F.);
#674=ORIENTED_EDGE('',*,*,#520,.T.);
#675=ORIENTED_EDGE('',*,*,#521,.T.);
#676=ORIENTED_EDGE('',*,*,#522,.T.);
#677=ORIENTED_EDGE('',*,*,#523,.T.);
#678=ORIENTED_EDGE('',*,*,#524,.T.);
#679=ORIENTED_EDGE('',*,*,#504,.T.);
#680=ORIENTED_EDGE('',*,*,#525,.F.);
#681=ORIENTED_EDGE('',*,*,#526,.T.);
#682=ORIENTED_EDGE('',*,*,#527,.F.);
#683=ORIENTED_EDGE('',*,*,#520,.F.);
#684=ORIENTED_EDGE('',*,*,#503,.F.);
#685=ORIENTED_EDGE('',*,*,#528,.F.);
#686=ORIENTED_EDGE('',*,*,#512,.T.);
#687=ORIENTED_EDGE('',*,*,#529,.T.);
#688=ORIENTED_EDGE('',*,*,#530,.T.);
#689=ORIENTED_EDGE('',*,*,#528,.T.);
#690=ORIENTED_EDGE('',*,*,#502,.T.);
#691=ORIENTED_EDGE('',*,*,#531,.T.);
#692=ORIENTED_EDGE('',*,*,#531,.F.);
#693=ORIENTED_EDGE('',*,*,#501,.T.);
#694=ORIENTED_EDGE('',*,*,#532,.T.);
#695=ORIENTED_EDGE('',*,*,#513,.F.);
#696=ORIENTED_EDGE('',*,*,#521,.F.);
#697=ORIENTED_EDGE('',*,*,#527,.T.);
#698=ORIENTED_EDGE('',*,*,#533,.F.);
#699=ORIENTED_EDGE('',*,*,#530,.F.);
#700=ORIENTED_EDGE('',*,*,#534,.F.);
#701=ORIENTED_EDGE('',*,*,#525,.T.);
#702=ORIENTED_EDGE('',*,*,#524,.F.);
#703=ORIENTED_EDGE('',*,*,#535,.T.);
#704=ORIENTED_EDGE('',*,*,#536,.T.);
#705=ORIENTED_EDGE('',*,*,#505,.F.);
#706=ORIENTED_EDGE('',*,*,#537,.T.);
#707=ORIENTED_EDGE('',*,*,#490,.F.);
#708=ORIENTED_EDGE('',*,*,#484,.F.);
#709=ORIENTED_EDGE('',*,*,#538,.F.);
#710=ORIENTED_EDGE('',*,*,#506,.F.);
#711=ORIENTED_EDGE('',*,*,#500,.F.);
#712=ORIENTED_EDGE('',*,*,#510,.F.);
#713=ORIENTED_EDGE('',*,*,#514,.F.);
#714=ORIENTED_EDGE('',*,*,#532,.F.);
#715=ORIENTED_EDGE('',*,*,#497,.F.);
#716=ORIENTED_EDGE('',*,*,#536,.F.);
#717=ORIENTED_EDGE('',*,*,#539,.F.);
#718=ORIENTED_EDGE('',*,*,#489,.F.);
#719=ORIENTED_EDGE('',*,*,#540,.T.);
#720=ORIENTED_EDGE('',*,*,#541,.F.);
#721=ORIENTED_EDGE('',*,*,#542,.F.);
#722=ORIENTED_EDGE('',*,*,#456,.T.);
#723=ORIENTED_EDGE('',*,*,#543,.F.);
#724=ORIENTED_EDGE('',*,*,#544,.T.);
#725=ORIENTED_EDGE('',*,*,#538,.T.);
#726=ORIENTED_EDGE('',*,*,#483,.T.);
#727=ORIENTED_EDGE('',*,*,#539,.T.);
#728=ORIENTED_EDGE('',*,*,#535,.F.);
#729=ORIENTED_EDGE('',*,*,#523,.F.);
#730=ORIENTED_EDGE('',*,*,#492,.T.);
#731=ORIENTED_EDGE('',*,*,#545,.T.);
#732=ORIENTED_EDGE('',*,*,#543,.T.);
#733=ORIENTED_EDGE('',*,*,#455,.T.);
#734=ORIENTED_EDGE('',*,*,#465,.F.);
#735=ORIENTED_EDGE('',*,*,#482,.F.);
#736=ORIENTED_EDGE('',*,*,#517,.T.);
#737=ORIENTED_EDGE('',*,*,#546,.T.);
#738=ORIENTED_EDGE('',*,*,#547,.T.);
#739=ORIENTED_EDGE('',*,*,#515,.F.);
#740=ORIENTED_EDGE('',*,*,#511,.F.);
#741=ORIENTED_EDGE('',*,*,#494,.F.);
#742=ORIENTED_EDGE('',*,*,#547,.F.);
#743=ORIENTED_EDGE('',*,*,#493,.F.);
#744=ORIENTED_EDGE('',*,*,#546,.F.);
#745=ORIENTED_EDGE('',*,*,#516,.F.);
#746=ORIENTED_EDGE('',*,*,#537,.F.);
#747=ORIENTED_EDGE('',*,*,#544,.F.);
#748=ORIENTED_EDGE('',*,*,#545,.F.);
#749=ORIENTED_EDGE('',*,*,#491,.F.);
#750=ORIENTED_EDGE('',*,*,#548,.F.);
#751=ORIENTED_EDGE('',*,*,#549,.T.);
#752=ORIENTED_EDGE('',*,*,#550,.T.);
#753=ORIENTED_EDGE('',*,*,#459,.F.);
#754=ORIENTED_EDGE('',*,*,#550,.F.);
#755=ORIENTED_EDGE('',*,*,#551,.T.);
#756=ORIENTED_EDGE('',*,*,#552,.F.);
#757=ORIENTED_EDGE('',*,*,#460,.F.);
#758=ORIENTED_EDGE('',*,*,#553,.T.);
#759=ORIENTED_EDGE('',*,*,#473,.T.);
#760=ORIENTED_EDGE('',*,*,#461,.F.);
#761=ORIENTED_EDGE('',*,*,#552,.T.);
#762=ORIENTED_EDGE('',*,*,#453,.T.);
#763=ORIENTED_EDGE('',*,*,#542,.T.);
#764=ORIENTED_EDGE('',*,*,#554,.T.);
#765=ORIENTED_EDGE('',*,*,#555,.F.);
#766=ORIENTED_EDGE('',*,*,#457,.T.);
#767=ORIENTED_EDGE('',*,*,#554,.F.);
#768=ORIENTED_EDGE('',*,*,#541,.T.);
#769=ORIENTED_EDGE('',*,*,#556,.F.);
#770=ORIENTED_EDGE('',*,*,#557,.T.);
#771=ORIENTED_EDGE('',*,*,#478,.F.);
#772=ORIENTED_EDGE('',*,*,#558,.T.);
#773=ORIENTED_EDGE('',*,*,#559,.T.);
#774=ORIENTED_EDGE('',*,*,#560,.T.);
#775=ORIENTED_EDGE('',*,*,#518,.T.);
#776=ORIENTED_EDGE('',*,*,#477,.F.);
#777=ORIENTED_EDGE('',*,*,#561,.F.);
#778=ORIENTED_EDGE('',*,*,#558,.F.);
#779=ORIENTED_EDGE('',*,*,#529,.F.);
#780=ORIENTED_EDGE('',*,*,#519,.T.);
#781=ORIENTED_EDGE('',*,*,#560,.F.);
#782=ORIENTED_EDGE('',*,*,#562,.F.);
#783=ORIENTED_EDGE('',*,*,#561,.T.);
#784=ORIENTED_EDGE('',*,*,#476,.F.);
#785=ORIENTED_EDGE('',*,*,#563,.F.);
#786=ORIENTED_EDGE('',*,*,#564,.T.);
#787=ORIENTED_EDGE('',*,*,#565,.T.);
#788=ORIENTED_EDGE('',*,*,#566,.T.);
#789=ORIENTED_EDGE('',*,*,#567,.F.);
#790=ORIENTED_EDGE('',*,*,#568,.T.);
#791=ORIENTED_EDGE('',*,*,#569,.T.);
#792=ORIENTED_EDGE('',*,*,#533,.T.);
#793=ORIENTED_EDGE('',*,*,#526,.F.);
#794=ORIENTED_EDGE('',*,*,#534,.T.);
#795=ORIENTED_EDGE('',*,*,#562,.T.);
#796=ORIENTED_EDGE('',*,*,#559,.F.);
#797=ORIENTED_EDGE('',*,*,#570,.T.);
#798=ORIENTED_EDGE('',*,*,#555,.T.);
#799=ORIENTED_EDGE('',*,*,#557,.F.);
#800=ORIENTED_EDGE('',*,*,#571,.F.);
#801=ORIENTED_EDGE('',*,*,#568,.F.);
#802=ORIENTED_EDGE('',*,*,#572,.T.);
#803=ORIENTED_EDGE('',*,*,#573,.T.);
#804=ORIENTED_EDGE('',*,*,#548,.T.);
#805=ORIENTED_EDGE('',*,*,#458,.F.);
#806=ORIENTED_EDGE('',*,*,#574,.F.);
#807=ORIENTED_EDGE('',*,*,#575,.F.);
#808=ORIENTED_EDGE('',*,*,#563,.T.);
#809=ORIENTED_EDGE('',*,*,#475,.F.);
#810=ORIENTED_EDGE('',*,*,#549,.F.);
#811=ORIENTED_EDGE('',*,*,#573,.F.);
#812=ORIENTED_EDGE('',*,*,#576,.F.);
#813=ORIENTED_EDGE('',*,*,#577,.F.);
#814=ORIENTED_EDGE('',*,*,#578,.F.);
#815=ORIENTED_EDGE('',*,*,#579,.F.);
#816=ORIENTED_EDGE('',*,*,#574,.T.);
#817=ORIENTED_EDGE('',*,*,#474,.F.);
#818=ORIENTED_EDGE('',*,*,#553,.F.);
#819=ORIENTED_EDGE('',*,*,#551,.F.);
#820=ORIENTED_EDGE('',*,*,#576,.T.);
#821=ORIENTED_EDGE('',*,*,#572,.F.);
#822=ORIENTED_EDGE('',*,*,#567,.T.);
#823=ORIENTED_EDGE('',*,*,#580,.F.);
#824=ORIENTED_EDGE('',*,*,#522,.F.);
#825=ORIENTED_EDGE('',*,*,#569,.F.);
#826=ORIENTED_EDGE('',*,*,#571,.T.);
#827=ORIENTED_EDGE('',*,*,#556,.T.);
#828=ORIENTED_EDGE('',*,*,#540,.F.);
#829=ORIENTED_EDGE('',*,*,#470,.F.);
#830=ORIENTED_EDGE('',*,*,#581,.T.);
#831=ORIENTED_EDGE('',*,*,#582,.T.);
#832=ORIENTED_EDGE('',*,*,#581,.F.);
#833=ORIENTED_EDGE('',*,*,#582,.F.);
#834=ORIENTED_EDGE('',*,*,#579,.T.);
#835=ORIENTED_EDGE('',*,*,#583,.F.);
#836=ORIENTED_EDGE('',*,*,#469,.F.);
#837=ORIENTED_EDGE('',*,*,#584,.F.);
#838=ORIENTED_EDGE('',*,*,#564,.F.);
#839=ORIENTED_EDGE('',*,*,#575,.T.);
#840=ORIENTED_EDGE('',*,*,#578,.T.);
#841=ORIENTED_EDGE('',*,*,#585,.T.);
#842=ORIENTED_EDGE('',*,*,#466,.F.);
#843=ORIENTED_EDGE('',*,*,#583,.T.);
#844=ORIENTED_EDGE('',*,*,#577,.T.);
#845=ORIENTED_EDGE('',*,*,#580,.T.);
#846=ORIENTED_EDGE('',*,*,#566,.F.);
#847=ORIENTED_EDGE('',*,*,#586,.F.);
#848=ORIENTED_EDGE('',*,*,#467,.F.);
#849=ORIENTED_EDGE('',*,*,#585,.F.);
#850=ORIENTED_EDGE('',*,*,#570,.F.);
#851=ORIENTED_EDGE('',*,*,#587,.T.);
#852=ORIENTED_EDGE('',*,*,#471,.T.);
#853=ORIENTED_EDGE('',*,*,#587,.F.);
#854=ORIENTED_EDGE('',*,*,#586,.T.);
#855=ORIENTED_EDGE('',*,*,#565,.F.);
#856=ORIENTED_EDGE('',*,*,#584,.T.);
#857=ORIENTED_EDGE('',*,*,#468,.F.);
#858=PLANE('',#952);
#859=PLANE('',#953);
#860=PLANE('',#958);
#861=PLANE('',#959);
#862=PLANE('',#961);
#863=PLANE('',#965);
#864=PLANE('',#967);
#865=PLANE('',#975);
#866=PLANE('',#988);
#867=PLANE('',#989);
#868=PLANE('',#992);
#869=PLANE('',#994);
#870=PLANE('',#995);
#871=PLANE('',#996);
#872=PLANE('',#997);
#873=PLANE('',#998);
#874=PLANE('',#1001);
#875=PLANE('',#1007);
#876=PLANE('',#1010);
#877=PLANE('',#1017);
#878=PLANE('',#1018);
#879=PLANE('',#1019);
#880=PLANE('',#1021);
#881=PLANE('',#1022);
#882=PLANE('',#1023);
#883=PLANE('',#1024);
#884=PLANE('',#1025);
#885=PLANE('',#1028);
#886=PLANE('',#1029);
#887=PLANE('',#1030);
#888=PLANE('',#1031);
#889=PLANE('',#1033);
#890=ADVANCED_FACE('',(#80),#858,.T.);
#891=ADVANCED_FACE('',(#81,#44,#45,#46),#859,.T.);
#892=ADVANCED_FACE('',(#82),#860,.T.);
#893=ADVANCED_FACE('',(#83),#861,.T.);
#894=ADVANCED_FACE('',(#84),#862,.T.);
#895=ADVANCED_FACE('',(#85),#25,.F.);
#896=ADVANCED_FACE('',(#86),#863,.F.);
#897=ADVANCED_FACE('',(#87),#864,.F.);
#898=ADVANCED_FACE('',(#88),#26,.F.);
#899=ADVANCED_FACE('',(#89),#27,.F.);
#900=ADVANCED_FACE('',(#90),#865,.F.);
#901=ADVANCED_FACE('',(#91),#14,.F.);
#902=ADVANCED_FACE('',(#92),#28,.F.);
#903=ADVANCED_FACE('',(#93),#15,.F.);
#904=ADVANCED_FACE('',(#94),#29,.F.);
#905=ADVANCED_FACE('',(#95),#866,.F.);
#906=ADVANCED_FACE('',(#96),#867,.F.);
#907=ADVANCED_FACE('',(#97),#30,.F.);
#908=ADVANCED_FACE('',(#98),#868,.F.);
#909=ADVANCED_FACE('',(#99),#869,.F.);
#910=ADVANCED_FACE('',(#100),#870,.T.);
#911=ADVANCED_FACE('',(#101),#871,.T.);
#912=ADVANCED_FACE('',(#102),#872,.F.);
#913=ADVANCED_FACE('',(#103),#873,.T.);
#914=ADVANCED_FACE('',(#104),#874,.F.);
#915=ADVANCED_FACE('',(#105),#31,.F.);
#916=ADVANCED_FACE('',(#106),#32,.F.);
#917=ADVANCED_FACE('',(#107),#33,.T.);
#918=ADVANCED_FACE('',(#108),#875,.F.);
#919=ADVANCED_FACE('',(#109),#34,.T.);
#920=ADVANCED_FACE('',(#110),#876,.T.);
#921=ADVANCED_FACE('',(#111),#35,.F.);
#922=ADVANCED_FACE('',(#112),#36,.F.);
#923=ADVANCED_FACE('',(#113),#877,.F.);
#924=ADVANCED_FACE('',(#114),#878,.F.);
#925=ADVANCED_FACE('',(#115,#47),#879,.T.);
#926=ADVANCED_FACE('',(#116),#880,.T.);
#927=ADVANCED_FACE('',(#117),#881,.T.);
#928=ADVANCED_FACE('',(#118),#882,.F.);
#929=ADVANCED_FACE('',(#119),#883,.T.);
#930=ADVANCED_FACE('',(#120),#884,.F.);
#931=ADVANCED_FACE('',(#121),#37,.F.);
#932=ADVANCED_FACE('',(#122),#885,.T.);
#933=ADVANCED_FACE('',(#123),#886,.T.);
#934=ADVANCED_FACE('',(#124),#887,.T.);
#935=ADVANCED_FACE('',(#125),#888,.T.);
#936=ADVANCED_FACE('',(#126),#38,.F.);
#937=ADVANCED_FACE('',(#127),#889,.F.);
#938=CLOSED_SHELL('',(#890,#891,#892,#893,#894,#895,#896,#897,#898,#899,
#900,#901,#902,#903,#904,#905,#906,#907,#908,#909,#910,#911,#912,#913,#914,
#915,#916,#917,#918,#919,#920,#921,#922,#923,#924,#925,#926,#927,#928,#929,
#930,#931,#932,#933,#934,#935,#936,#937));
#939=DERIVED_UNIT_ELEMENT(#941,1.);
#940=DERIVED_UNIT_ELEMENT(#1628,-3.);
#941=(
MASS_UNIT()
NAMED_UNIT(*)
SI_UNIT(.KILO.,.GRAM.)
);
#942=DERIVED_UNIT((#939,#940));
#943=MEASURE_REPRESENTATION_ITEM('density measure',
POSITIVE_RATIO_MEASURE(7850.),#942);
#944=PROPERTY_DEFINITION_REPRESENTATION(#949,#946);
#945=PROPERTY_DEFINITION_REPRESENTATION(#950,#947);
#946=REPRESENTATION('material name',(#948),#1625);
#947=REPRESENTATION('density',(#943),#1625);
#948=DESCRIPTIVE_REPRESENTATION_ITEM('Steel','Steel');
#949=PROPERTY_DEFINITION('material property','material name',#1635);
#950=PROPERTY_DEFINITION('material property','density of part',#1635);
#951=AXIS2_PLACEMENT_3D('',#1292,#1034,#1035);
#952=AXIS2_PLACEMENT_3D('',#1293,#1036,#1037);
#953=AXIS2_PLACEMENT_3D('',#1302,#1042,#1043);
#954=AXIS2_PLACEMENT_3D('',#1308,#1046,#1047);
#955=AXIS2_PLACEMENT_3D('',#1312,#1049,#1050);
#956=AXIS2_PLACEMENT_3D('',#1329,#1059,#1060);
#957=AXIS2_PLACEMENT_3D('',#1331,#1061,#1062);
#958=AXIS2_PLACEMENT_3D('',#1332,#1063,#1064);
#959=AXIS2_PLACEMENT_3D('',#1342,#1070,#1071);
#960=AXIS2_PLACEMENT_3D('',#1346,#1073,#1074);
#961=AXIS2_PLACEMENT_3D('',#1350,#1077,#1078);
#962=AXIS2_PLACEMENT_3D('',#1354,#1081,#1082);
#963=AXIS2_PLACEMENT_3D('',#1359,#1084,#1085);
#964=AXIS2_PLACEMENT_3D('',#1386,#1088,#1089);
#965=AXIS2_PLACEMENT_3D('',#1387,#1090,#1091);
#966=AXIS2_PLACEMENT_3D('',#1400,#1098,#1099);
#967=AXIS2_PLACEMENT_3D('',#1401,#1100,#1101);
#968=AXIS2_PLACEMENT_3D('',#1405,#1103,#1104);
#969=AXIS2_PLACEMENT_3D('',#1417,#1108,#1109);
#970=AXIS2_PLACEMENT_3D('',#1423,#1111,#1112);
#971=AXIS2_PLACEMENT_3D('',#1425,#1113,#1114);
#972=AXIS2_PLACEMENT_3D('',#1445,#1116,#1117);
#973=AXIS2_PLACEMENT_3D('',#1449,#1119,#1120);
#974=AXIS2_PLACEMENT_3D('',#1450,#1121,#1122);
#975=AXIS2_PLACEMENT_3D('',#1451,#1123,#1124);
#976=AXIS2_PLACEMENT_3D('',#1468,#1132,#1133);
#977=AXIS2_PLACEMENT_3D('',#1479,#1134,#1135);
#978=AXIS2_PLACEMENT_3D('',#1481,#1136,#1137);
#979=AXIS2_PLACEMENT_3D('',#1487,#1138,#1139);
#980=AXIS2_PLACEMENT_3D('',#1488,#1140,#1141);
#981=AXIS2_PLACEMENT_3D('',#1493,#1143,#1144);
#982=AXIS2_PLACEMENT_3D('',#1503,#1146,#1147);
#983=AXIS2_PLACEMENT_3D('',#1505,#1148,#1149);
#984=AXIS2_PLACEMENT_3D('',#1506,#1150,#1151);
#985=AXIS2_PLACEMENT_3D('',#1507,#1152,#1153);
#986=AXIS2_PLACEMENT_3D('',#1508,#1154,#1155);
#987=AXIS2_PLACEMENT_3D('',#1509,#1156,#1157);
#988=AXIS2_PLACEMENT_3D('',#1510,#1158,#1159);
#989=AXIS2_PLACEMENT_3D('',#1512,#1161,#1162);
#990=AXIS2_PLACEMENT_3D('',#1514,#1164,#1165);
#991=AXIS2_PLACEMENT_3D('',#1517,#1167,#1168);
#992=AXIS2_PLACEMENT_3D('',#1518,#1169,#1170);
#993=AXIS2_PLACEMENT_3D('',#1520,#1171,#1172);
#994=AXIS2_PLACEMENT_3D('',#1522,#1174,#1175);
#995=AXIS2_PLACEMENT_3D('',#1523,#1176,#1177);
#996=AXIS2_PLACEMENT_3D('',#1524,#1178,#1179);
#997=AXIS2_PLACEMENT_3D('',#1526,#1181,#1182);
#998=AXIS2_PLACEMENT_3D('',#1535,#1188,#1189);
#999=AXIS2_PLACEMENT_3D('',#1536,#1190,#1191);
#1000=AXIS2_PLACEMENT_3D('',#1537,#1192,#1193);
#1001=AXIS2_PLACEMENT_3D('',#1538,#1194,#1195);
#1002=AXIS2_PLACEMENT_3D('',#1539,#1196,#1197);
#1003=AXIS2_PLACEMENT_3D('',#1540,#1198,#1199);
#1004=AXIS2_PLACEMENT_3D('',#1541,#1200,#1201);
#1005=AXIS2_PLACEMENT_3D('',#1542,#1202,#1203);
#1006=AXIS2_PLACEMENT_3D('',#1546,#1205,#1206);
#1007=AXIS2_PLACEMENT_3D('',#1548,#1208,#1209);
#1008=AXIS2_PLACEMENT_3D('',#1552,#1212,#1213);
#1009=AXIS2_PLACEMENT_3D('',#1553,#1214,#1215);
#1010=AXIS2_PLACEMENT_3D('',#1554,#1216,#1217);
#1011=AXIS2_PLACEMENT_3D('',#1556,#1218,#1219);
#1012=AXIS2_PLACEMENT_3D('',#1558,#1221,#1222);
#1013=AXIS2_PLACEMENT_3D('',#1560,#1223,#1224);
#1014=AXIS2_PLACEMENT_3D('',#1562,#1226,#1227);
#1015=AXIS2_PLACEMENT_3D('',#1564,#1228,#1229);
#1016=AXIS2_PLACEMENT_3D('',#1567,#1231,#1232);
#1017=AXIS2_PLACEMENT_3D('',#1568,#1233,#1234);
#1018=AXIS2_PLACEMENT_3D('',#1570,#1236,#1237);
#1019=AXIS2_PLACEMENT_3D('',#1572,#1239,#1240);
#1020=AXIS2_PLACEMENT_3D('',#1587,#1248,#1249);
#1021=AXIS2_PLACEMENT_3D('',#1588,#1250,#1251);
#1022=AXIS2_PLACEMENT_3D('',#1593,#1255,#1256);
#1023=AXIS2_PLACEMENT_3D('',#1597,#1259,#1260);
#1024=AXIS2_PLACEMENT_3D('',#1605,#1265,#1266);
#1025=AXIS2_PLACEMENT_3D('',#1607,#1268,#1269);
#1026=AXIS2_PLACEMENT_3D('',#1608,#1270,#1271);
#1027=AXIS2_PLACEMENT_3D('',#1611,#1273,#1274);
#1028=AXIS2_PLACEMENT_3D('',#1612,#1275,#1276);
#1029=AXIS2_PLACEMENT_3D('',#1613,#1277,#1278);
#1030=AXIS2_PLACEMENT_3D('',#1616,#1281,#1282);
#1031=AXIS2_PLACEMENT_3D('',#1618,#1284,#1285);
#1032=AXIS2_PLACEMENT_3D('',#1620,#1287,#1288);
#1033=AXIS2_PLACEMENT_3D('',#1622,#1290,#1291);
#1034=DIRECTION('axis',(0.,0.,1.));
#1035=DIRECTION('refdir',(1.,0.,0.));
#1036=DIRECTION('center_axis',(-5.84428339056891E-15,1.,2.34650750352495E-14));
#1037=DIRECTION('ref_axis',(1.26380317000147E-15,2.34650750352495E-14,-1.));
#1038=DIRECTION('',(1.,5.84428339056888E-15,1.15278086753704E-15));
#1039=DIRECTION('',(1.26884226565627E-15,1.3314336157363E-14,-1.));
#1040=DIRECTION('',(-1.,-5.26141630264828E-15,-2.92913770693733E-15));
#1041=DIRECTION('',(-2.9316826744008E-15,-1.77635683940025E-14,1.));
#1042=DIRECTION('center_axis',(-1.,5.82867093147438E-16,-8.21246278203606E-24));
#1043=DIRECTION('ref_axis',(-5.82867093147438E-16,-1.,-2.34650742169133E-14));
#1044=DIRECTION('',(4.12149268287939E-16,0.707106781186517,0.707106781186578));
#1045=DIRECTION('',(8.21269736954775E-24,5.54394973261148E-14,-1.));
#1046=DIRECTION('center_axis',(-1.,5.82867093147438E-16,-8.21246278203606E-24));
#1047=DIRECTION('ref_axis',(5.82867093147438E-16,1.,2.34650742169133E-14));
#1048=DIRECTION('',(5.33832237151922E-15,-1.,2.13382504369753E-13));
#1049=DIRECTION('center_axis',(-1.,5.82867093147452E-16,-3.55271368701347E-15));
#1050=DIRECTION('ref_axis',(3.55271368701347E-15,4.36923819335788E-15,-1.));
#1051=DIRECTION('',(-8.21238182518566E-24,-7.18180318907843E-15,1.));
#1052=DIRECTION('',(4.12149279902116E-16,0.707106781186519,-0.707106781186576));
#1053=DIRECTION('',(-8.21237068252537E-24,2.9427052661352E-15,1.));
#1054=DIRECTION('',(5.82867093147437E-16,1.,1.41971254896076E-14));
#1055=DIRECTION('',(5.82867093149334E-16,1.,5.70150582291092E-15));
#1056=DIRECTION('',(-8.21555186273329E-24,-8.91902772747356E-14,1.));
#1057=DIRECTION('',(-5.82867093147438E-16,-1.,-2.34650742169133E-14));
#1058=DIRECTION('',(8.21252520065518E-24,1.01624775150542E-13,-1.));
#1059=DIRECTION('center_axis',(1.,-5.82867093147438E-16,8.21246288064367E-24));
#1060=DIRECTION('ref_axis',(-5.82867093147438E-16,-1.,-2.34650742169133E-14));
#1061=DIRECTION('center_axis',(-1.,5.82867093147438E-16,-8.21246278203606E-24));
#1062=DIRECTION('ref_axis',(-4.66062761766275E-16,2.34468604387517E-14,
-1.));
#1063=DIRECTION('center_axis',(5.8442833905689E-15,-1.,-2.34650750352495E-14));
#1064=DIRECTION('ref_axis',(-1.15278086753696E-15,-2.34650750352495E-14,
1.));
#1065=DIRECTION('',(1.,5.84428339056887E-15,1.15278086753696E-15));
#1066=DIRECTION('',(-1.,0.,0.));
#1067=DIRECTION('',(1.06939990518714E-15,-2.34650750352495E-14,1.));
#1068=DIRECTION('',(-1.,2.73645956319218E-15,1.47053451827968E-14));
#1069=DIRECTION('',(1.17483291741736E-14,-1.00788843338554E-13,1.));
#1070=DIRECTION('center_axis',(4.94767158530479E-15,-0.707106781186576,
-0.707106781186519));
#1071=DIRECTION('ref_axis',(-1.,0.,-6.99706425810631E-15));
#1072=DIRECTION('',(1.,5.84428339056888E-15,1.15278086753696E-15));
#1073=DIRECTION('center_axis',(-4.94767158530479E-15,0.707106781186576,
0.707106781186519));
#1074=DIRECTION('ref_axis',(-4.10243947733129E-15,0.707106781186519,-0.707106781186576));
#1075=DIRECTION('',(5.20150419841321E-15,-0.707106781186519,0.707106781186576));
#1076=DIRECTION('',(-1.,-5.84428339056888E-15,-1.15278086753696E-15));
#1077=DIRECTION('center_axis',(5.84428339056891E-15,-1.,-2.34650750352495E-14));
#1078=DIRECTION('ref_axis',(-1.26380317000147E-15,-2.34650750352495E-14,
1.));
#1079=DIRECTION('',(1.06939990518714E-15,-2.34650750352494E-14,1.));
#1080=DIRECTION('',(-1.,-7.12237957698087E-33,-9.86076131526265E-32));
#1081=DIRECTION('center_axis',(1.55825070617115E-15,7.64697911394417E-16,
-1.));
#1082=DIRECTION('ref_axis',(-1.,-5.84973110202935E-14,-1.5582507061712E-15));
#1083=DIRECTION('',(1.55825070617115E-15,7.64697911394417E-16,-1.));
#1084=DIRECTION('center_axis',(1.22184399111066E-15,7.20588159849177E-17,
-1.));
#1085=DIRECTION('ref_axis',(1.,-2.50323445395238E-29,1.55825070617115E-15));
#1086=DIRECTION('',(-1.55825070617115E-15,-7.64697911394417E-16,1.));
#1087=DIRECTION('',(-1.55825070617115E-15,-7.64697911394417E-16,1.));
#1088=DIRECTION('center_axis',(1.22184399111066E-15,7.20588159849177E-17,
-1.));
#1089=DIRECTION('ref_axis',(1.,-2.50323445395238E-29,1.55825070617115E-15));
#1090=DIRECTION('center_axis',(-1.,-6.28663787694977E-15,1.06939990518699E-15));
#1091=DIRECTION('ref_axis',(1.06939990518714E-15,-2.34650750352495E-14,
1.));
#1092=DIRECTION('',(-6.28663787694977E-15,1.,7.20588159849101E-17));
#1093=DIRECTION('',(-1.19614895444317E-15,-2.34650750352494E-14,1.));
#1094=DIRECTION('',(-6.28663787694975E-15,1.,1.81360045170488E-14));
#1095=DIRECTION('',(1.19614895444317E-15,2.34650750352494E-14,-1.));
#1096=DIRECTION('',(-6.28663787694977E-15,1.,7.20588159849355E-17));
#1097=DIRECTION('',(1.52222129818556E-15,7.64697911394429E-16,-1.));
#1098=DIRECTION('center_axis',(-1.,-5.70377078902921E-15,1.06939990518701E-15));
#1099=DIRECTION('ref_axis',(-2.81262450759774E-16,-1.,-2.34650750352494E-14));
#1100=DIRECTION('center_axis',(-1.,-6.28663787694977E-15,1.06939990518699E-15));
#1101=DIRECTION('ref_axis',(1.06939990518714E-15,-2.34650750352495E-14,
1.));
#1102=DIRECTION('',(6.28663787694977E-15,-1.,-7.20588159849101E-17));
#1103=DIRECTION('center_axis',(-1.,-5.70377078902921E-15,1.06939990518701E-15));
#1104=DIRECTION('ref_axis',(-2.81262450759774E-16,-1.,-2.34650750352494E-14));
#1105=DIRECTION('',(1.52222129818556E-15,7.64697911394429E-16,-1.));
#1106=DIRECTION('',(6.28663787694977E-15,-1.,-7.20588159849229E-17));
#1107=DIRECTION('',(1.15278086753707E-15,5.70150664124727E-15,-1.));
#1108=DIRECTION('center_axis',(-1.,-5.70377078902921E-15,1.06939990518701E-15));
#1109=DIRECTION('ref_axis',(-7.69060740985908E-17,-1.,-2.34650750352495E-14));
#1110=DIRECTION('',(-1.15278086753707E-15,-5.70150664124727E-15,1.));
#1111=DIRECTION('center_axis',(1.,5.84428339056887E-15,1.1527808675371E-15));
#1112=DIRECTION('ref_axis',(5.8442833905689E-15,-1.,-2.34650750352495E-14));
#1113=DIRECTION('center_axis',(-1.,5.82867087923597E-16,-3.15348188158494E-23));
#1114=DIRECTION('ref_axis',(5.8442833905689E-15,-1.,-2.34650750352495E-14));
#1115=DIRECTION('',(1.,5.84428339056887E-15,1.1527808675371E-15));
#1116=DIRECTION('center_axis',(1.52222129818556E-15,7.64697911394429E-16,
-1.));
#1117=DIRECTION('ref_axis',(-1.,1.54206576648375E-14,-1.52222129818555E-15));
#1118=DIRECTION('',(-1.52222129818556E-15,-7.64697911394429E-16,1.));
#1119=DIRECTION('center_axis',(1.18581458312506E-15,7.20588159849304E-17,
-1.));
#1120=DIRECTION('ref_axis',(1.,-2.50263746077031E-29,1.52222129818556E-15));
#1121=DIRECTION('center_axis',(1.18581458312506E-15,7.2058815984943E-17,
-1.));
#1122=DIRECTION('ref_axis',(1.,-2.50192522281261E-29,1.52222129818556E-15));
#1123=DIRECTION('center_axis',(-1.,-6.28663787694977E-15,1.06939990518699E-15));
#1124=DIRECTION('ref_axis',(1.06939990518714E-15,-2.34650750352495E-14,
1.));
#1125=DIRECTION('',(-1.15278086753707E-15,-5.70150664124727E-15,1.));
#1126=DIRECTION('',(6.28663787694977E-15,-1.,-7.20588159849229E-17));
#1127=DIRECTION('',(-6.28663787694974E-15,1.,2.34650750352494E-14));
#1128=DIRECTION('',(-1.19614895444317E-15,-2.34650750352494E-14,1.));
#1129=DIRECTION('',(-6.28663787694975E-15,1.,1.81360045170488E-14));
#1130=DIRECTION('',(-4.2557842911944E-17,9.59831506504031E-16,1.));
#1131=DIRECTION('',(6.28663787694977E-15,-1.,-3.60294079857498E-17));
#1132=DIRECTION('center_axis',(6.32415973853532E-16,0.,-1.));
#1133=DIRECTION('ref_axis',(-5.9370058791545E-15,1.,5.90145722545856E-15));
#1134=DIRECTION('center_axis',(2.01865659935573E-15,6.05596979806736E-15,
-1.));
#1135=DIRECTION('ref_axis',(-6.00865753401995E-15,1.,6.05596979806735E-15));
#1136=DIRECTION('center_axis',(2.01865659935573E-15,6.05596979806736E-15,
-1.));
#1137=DIRECTION('ref_axis',(-6.00865753401995E-15,1.,6.05596979806735E-15));
#1138=DIRECTION('center_axis',(-1.15278086753707E-15,-5.70150664124727E-15,
1.));
#1139=DIRECTION('ref_axis',(-5.84428339056888E-15,1.,5.70150664124727E-15));
#1140=DIRECTION('center_axis',(-1.,7.69060740986166E-17,-1.15278086753696E-15));
#1141=DIRECTION('ref_axis',(-7.69060740985908E-17,-1.,-2.34650750352495E-14));
#1142=DIRECTION('',(1.,-7.69060740986166E-17,1.15278086753696E-15));
#1143=DIRECTION('center_axis',(-1.,1.16573417584112E-15,2.91878534931774E-29));
#1144=DIRECTION('ref_axis',(-1.16573417584112E-15,-1.,-2.34650750352494E-14));
#1145=DIRECTION('',(-1.,7.69060740986166E-17,-1.15278086753696E-15));
#1146=DIRECTION('center_axis',(6.32415973853535E-16,0.,-1.));
#1147=DIRECTION('ref_axis',(-5.74128969784234E-15,1.,4.76274489782432E-15));
#1148=DIRECTION('center_axis',(-3.25997957289808E-29,4.03731319871153E-15,
-1.));
#1149=DIRECTION('ref_axis',(-5.66170093100563E-15,1.,4.03731319871153E-15));
#1150=DIRECTION('center_axis',(-3.25997957289808E-29,4.03731319871153E-15,
-1.));
#1151=DIRECTION('ref_axis',(-5.66170093100563E-15,1.,4.03731319871153E-15));
#1152=DIRECTION('center_axis',(-1.15278086753707E-15,-5.70150664124727E-15,
1.));
#1153=DIRECTION('ref_axis',(-5.84428339056888E-15,1.,5.70150664124726E-15));
#1154=DIRECTION('center_axis',(1.15278086753707E-15,5.70150664124727E-15,
-1.));
#1155=DIRECTION('ref_axis',(-5.84428339056888E-15,1.,5.70150664124726E-15));
#1156=DIRECTION('center_axis',(-6.90631235463323E-17,-3.60294079856934E-17,
1.));
#1157=DIRECTION('ref_axis',(-5.84428339056888E-15,1.,5.70150664124726E-15));
#1158=DIRECTION('center_axis',(-6.90631235463471E-17,-3.60294079857502E-17,
1.));
#1159=DIRECTION('ref_axis',(-5.84428339056887E-15,1.,3.60294079857502E-17));
#1160=DIRECTION('',(6.28663787693998E-15,-1.,-3.60294079857498E-17));
#1161=DIRECTION('center_axis',(-6.90631235463471E-17,-3.60294079857502E-17,
1.));
#1162=DIRECTION('ref_axis',(-5.84428339056887E-15,1.,3.60294079857502E-17));
#1163=DIRECTION('',(6.28663787693998E-15,-1.,-3.60294079857498E-17));
#1164=DIRECTION('center_axis',(1.15278086753707E-15,5.70150664124727E-15,
-1.));
#1165=DIRECTION('ref_axis',(-5.84428339056888E-15,1.,5.70150664124727E-15));
#1166=DIRECTION('',(1.15278086753707E-15,5.70150664124727E-15,-1.));
#1167=DIRECTION('center_axis',(-6.90631235463323E-17,-3.60294079856966E-17,
1.));
#1168=DIRECTION('ref_axis',(-5.84428339056888E-15,1.,5.70150664124727E-15));
#1169=DIRECTION('center_axis',(-1.15278086755055E-15,-2.34650750352494E-14,
1.));
#1170=DIRECTION('ref_axis',(-5.8442833905689E-15,1.,2.34650750352494E-14));
#1171=DIRECTION('center_axis',(-1.15278086755055E-15,-2.34650750352494E-14,
1.));
#1172=DIRECTION('ref_axis',(-5.8442833905689E-15,1.,2.34650750352494E-14));
#1173=DIRECTION('',(-6.28663787694977E-15,1.,7.20588159849101E-17));
#1174=DIRECTION('center_axis',(-1.,5.82867087923597E-16,-3.15348188158494E-23));
#1175=DIRECTION('ref_axis',(-5.82867087923596E-16,-1.,-2.34650742169133E-14));
#1176=DIRECTION('center_axis',(-6.90631235463323E-17,-3.60294079856808E-17,
1.));
#1177=DIRECTION('ref_axis',(-5.26141630264831E-15,1.,3.60294079856808E-17));
#1178=DIRECTION('center_axis',(-6.90631235463323E-17,-3.60294079856808E-17,
1.));
#1179=DIRECTION('ref_axis',(-5.26141630264831E-15,1.,3.60294079856808E-17));
#1180=DIRECTION('',(6.28663787694977E-15,-1.,-7.20588159849101E-17));
#1181=DIRECTION('center_axis',(-1.,-6.28663787694977E-15,1.06939990518699E-15));
#1182=DIRECTION('ref_axis',(1.06939990518714E-15,-2.34650750352495E-14,
1.));
#1183=DIRECTION('',(-6.28663787694977E-15,1.,3.60294079857498E-17));
#1184=DIRECTION('',(4.2557842911944E-17,-9.59831506504031E-16,-1.));
#1185=DIRECTION('',(3.68914434889718E-15,-0.707106781186517,-0.707106781186578));
#1186=DIRECTION('',(-6.28663787694975E-15,1.,1.81360045170488E-14));
#1187=DIRECTION('',(1.19614895444317E-15,2.34650750352494E-14,-1.));
#1188=DIRECTION('center_axis',(-2.92913770693724E-15,-1.81360045170488E-14,
1.));
#1189=DIRECTION('ref_axis',(-5.84428339056889E-15,1.,1.81360045170488E-14));
#1190=DIRECTION('center_axis',(1.15278086755055E-15,2.34650750352494E-14,
-1.));
#1191=DIRECTION('ref_axis',(-5.8442833905689E-15,1.,2.34650750352494E-14));
#1192=DIRECTION('center_axis',(1.15278086755055E-15,2.34650750352494E-14,
-1.));
#1193=DIRECTION('ref_axis',(-5.8442833905689E-15,1.,2.34650750352494E-14));
#1194=DIRECTION('center_axis',(-1.15278086755055E-15,-2.34650750352494E-14,
1.));
#1195=DIRECTION('ref_axis',(-5.8442833905689E-15,1.,2.34650750352494E-14));
#1196=DIRECTION('center_axis',(-1.15278086755055E-15,-2.34650750352494E-14,
1.));
#1197=DIRECTION('ref_axis',(-5.8442833905689E-15,1.,2.34650750352494E-14));
#1198=DIRECTION('center_axis',(-1.19614895444317E-15,-2.34650750352494E-14,
1.));
#1199=DIRECTION('ref_axis',(-5.8442833905689E-15,1.,2.34650750352494E-14));
#1200=DIRECTION('center_axis',(-1.19614895444317E-15,-2.34650750352494E-14,
1.));
#1201=DIRECTION('ref_axis',(-5.8442833905689E-15,1.,2.34650750352494E-14));
#1202=DIRECTION('center_axis',(-1.,-5.84428339056887E-15,-1.15278086753686E-15));
#1203=DIRECTION('ref_axis',(-3.45420340910436E-15,0.707106781186553,-0.707106781186542));
#1204=DIRECTION('',(-1.,0.,0.));
#1205=DIRECTION('center_axis',(-1.,-6.28663787694977E-15,1.06939990518699E-15));
#1206=DIRECTION('ref_axis',(-3.45420340910436E-15,0.707106781186553,-0.707106781186542));
#1207=DIRECTION('',(-1.,-5.84428339056887E-15,-1.15278086753686E-15));
#1208=DIRECTION('center_axis',(-1.15278086753693E-15,1.20620617528086E-14,
1.));
#1209=DIRECTION('ref_axis',(-4.6075071535871E-11,-1.,1.20620617527555E-14));
#1210=DIRECTION('',(5.84428339056899E-15,-1.,-1.03734884642883E-13));
#1211=DIRECTION('',(1.,5.84428339056887E-15,1.15278086753686E-15));
#1212=DIRECTION('center_axis',(1.,5.84428339056887E-15,1.15278086753686E-15));
#1213=DIRECTION('ref_axis',(5.02429586778799E-15,-0.707106781186544,-0.707106781186551));
#1214=DIRECTION('center_axis',(-1.,-6.28663787694977E-15,1.06939990518699E-15));
#1215=DIRECTION('ref_axis',(5.02429586778799E-15,-0.707106781186544,-0.707106781186551));
#1216=DIRECTION('center_axis',(-3.31739324798982E-15,0.707106781186578,
-0.707106781186517));
#1217=DIRECTION('ref_axis',(-1.,0.,4.69150252303234E-15));
#1218=DIRECTION('center_axis',(3.31739324798982E-15,-0.707106781186578,
0.707106781186517));
#1219=DIRECTION('ref_axis',(-4.16262535596268E-15,0.707106781186517,0.707106781186578));
#1220=DIRECTION('',(1.,5.84428339056887E-15,1.15278086753703E-15));
#1221=DIRECTION('center_axis',(4.2557842911944E-17,-9.59831506504031E-16,
-1.));
#1222=DIRECTION('ref_axis',(-5.84428339056887E-15,1.,-9.59831506504031E-16));
#1223=DIRECTION('center_axis',(-6.90631235463471E-17,-3.60294079857502E-17,
1.));
#1224=DIRECTION('ref_axis',(-5.84428339056887E-15,1.,-9.59831506504031E-16));
#1225=DIRECTION('',(-4.2557842911944E-17,9.59831506504031E-16,1.));
#1226=DIRECTION('center_axis',(4.2557842911944E-17,-9.59831506504031E-16,
-1.));
#1227=DIRECTION('ref_axis',(-5.84428339056887E-15,1.,-9.59831506504031E-16));
#1228=DIRECTION('center_axis',(-1.15278086753693E-15,-5.39237168181866E-15,
1.));
#1229=DIRECTION('ref_axis',(-5.84428339056887E-15,1.,-9.59831506504031E-16));
#1230=DIRECTION('',(-4.2557842911944E-17,9.59831506504031E-16,1.));
#1231=DIRECTION('center_axis',(-6.90631235463471E-17,-3.60294079857502E-17,
1.));
#1232=DIRECTION('ref_axis',(-5.84428339056887E-15,1.,-9.59831506504031E-16));
#1233=DIRECTION('center_axis',(-1.15278086753693E-15,-5.39237168181866E-15,
1.));
#1234=DIRECTION('ref_axis',(-5.05151476202899E-15,-1.,-5.39237168181867E-15));
#1235=DIRECTION('',(6.28663787693991E-15,-1.,-5.39237168181865E-15));
#1236=DIRECTION('center_axis',(-6.90631235463471E-17,-3.60294079857502E-17,
1.));
#1237=DIRECTION('ref_axis',(-5.84428339056887E-15,1.,3.60294079857502E-17));
#1238=DIRECTION('',(6.28663787693998E-15,-1.,-3.60294079857498E-17));
#1239=DIRECTION('center_axis',(1.,6.28663787693998E-15,-1.17483291741731E-14));
#1240=DIRECTION('ref_axis',(-1.17483291741733E-14,2.35440049534075E-14,
-1.));
#1241=DIRECTION('',(5.84428339056899E-15,-1.,-1.03734884642883E-13));
#1242=DIRECTION('',(1.17483291741733E-14,-2.34468604387538E-14,1.));
#1243=DIRECTION('',(-6.2866378769397E-15,1.,2.34468604387539E-14));
#1244=DIRECTION('',(-1.17483291741733E-14,2.34468604387538E-14,-1.));
#1245=DIRECTION('',(6.28663787694067E-15,-1.,5.9135856969001E-14));
#1246=DIRECTION('',(-1.15278086753649E-15,-1.0373008777852E-13,1.));
#1247=DIRECTION('',(6.28663787693998E-15,-1.,-3.60294079857498E-17));
#1248=DIRECTION('center_axis',(-1.,-6.28663787693998E-15,1.17483291741731E-14));
#1249=DIRECTION('ref_axis',(-4.66062761766275E-16,2.34468604387517E-14,
-1.));
#1250=DIRECTION('center_axis',(-5.8442833905689E-15,1.,2.34650750352495E-14));
#1251=DIRECTION('ref_axis',(1.15278086753696E-15,2.34650750352495E-14,-1.));
#1252=DIRECTION('',(-1.,-5.8442833905689E-15,-6.90631235463473E-17));
#1253=DIRECTION('',(1.,-2.73645956319237E-15,-1.47053451827968E-14));
#1254=DIRECTION('',(-1.06939990518744E-15,8.82498538839839E-14,-1.));
#1255=DIRECTION('center_axis',(1.47053451827968E-14,5.91358569690011E-14,
1.));
#1256=DIRECTION('ref_axis',(-5.64172195187213E-11,-1.,5.91358569698307E-14));
#1257=DIRECTION('',(5.84428339056899E-15,-1.,-1.03734884642883E-13));
#1258=DIRECTION('',(1.,6.2883726004422E-15,-1.47053451827972E-14));
#1259=DIRECTION('center_axis',(-1.,-6.28663787694977E-15,1.06939990518699E-15));
#1260=DIRECTION('ref_axis',(1.06939990518714E-15,-2.34650750352495E-14,
1.));
#1261=DIRECTION('',(-6.28663787694983E-15,1.,-5.9135856969001E-14));
#1262=DIRECTION('',(1.06939990518714E-15,-2.34468604387517E-14,1.));
#1263=DIRECTION('',(-6.28663787694974E-15,1.,2.34468604387517E-14));
#1264=DIRECTION('',(-1.06939990518714E-15,2.34468604387517E-14,-1.));
#1265=DIRECTION('center_axis',(1.47053451827968E-14,5.91358569690011E-14,
1.));
#1266=DIRECTION('ref_axis',(-5.64172195187213E-11,-1.,5.91358569698307E-14));
#1267=DIRECTION('',(-1.,-6.2883726004422E-15,1.47053451827972E-14));
#1268=DIRECTION('center_axis',(-6.90631235463471E-17,-3.60294079857502E-17,
1.));
#1269=DIRECTION('ref_axis',(-5.84428339056887E-15,1.,3.60294079857502E-17));
#1270=DIRECTION('center_axis',(1.,-2.23006587943224E-15,1.15278086753691E-15));
#1271=DIRECTION('ref_axis',(-2.23006587943222E-15,-1.,-2.34650750352495E-14));
#1272=DIRECTION('',(1.,-2.23006587943224E-15,1.15278086753691E-15));
#1273=DIRECTION('center_axis',(1.,-5.82867087920559E-16,-1.43967115202835E-29));
#1274=DIRECTION('ref_axis',(-5.8286708792056E-16,-1.,-2.34650750352495E-14));
#1275=DIRECTION('center_axis',(-1.,5.82867087920559E-16,1.43967115202835E-29));
#1276=DIRECTION('ref_axis',(-5.82867087920559E-16,-1.,-2.34650750352495E-14));
#1277=DIRECTION('center_axis',(-6.31612817603507E-15,1.,2.34468604387517E-14));
#1278=DIRECTION('ref_axis',(3.00271205997484E-15,2.34468604387518E-14,-1.));
#1279=DIRECTION('',(1.,6.316128176035E-15,3.00271205997499E-15));
#1280=DIRECTION('',(-1.,-6.31612817603508E-15,4.07838914453728E-16));
#1281=DIRECTION('center_axis',(-3.00271205997484E-15,-2.34468604387518E-14,
1.));
#1282=DIRECTION('ref_axis',(-6.31612817603507E-15,1.,2.34468604387517E-14));
#1283=DIRECTION('',(-1.,-6.316128176035E-15,-3.00271205997499E-15));
#1284=DIRECTION('center_axis',(6.31612817603507E-15,-1.,-2.34468604387517E-14));
#1285=DIRECTION('ref_axis',(-3.00271205997484E-15,-2.34468604387518E-14,
1.));
#1286=DIRECTION('',(1.,8.88178419700125E-15,-1.11022302462516E-14));
#1287=DIRECTION('center_axis',(-1.,-5.13478148921267E-16,4.66062761766263E-16));
#1288=DIRECTION('ref_axis',(-4.66062761766275E-16,2.34468604387517E-14,
-1.));
#1289=DIRECTION('',(-1.,-5.13478148921267E-16,4.66062761766263E-16));
#1290=DIRECTION('center_axis',(4.07838914453876E-16,-2.34468604387539E-14,
1.));
#1291=DIRECTION('ref_axis',(6.28663787694105E-15,-1.,-2.34468604387539E-14));
#1292=CARTESIAN_POINT('',(0.,0.,0.));
#1293=CARTESIAN_POINT('Origin',(-7.44050880021586,112.436215476929,-22.8171276711954));
#1294=CARTESIAN_POINT('',(-7.74050880021569,112.436215476929,-22.8350905306363));
#1295=CARTESIAN_POINT('',(-0.240592800216176,112.436215476929,-22.8350905306365));
#1296=CARTESIAN_POINT('',(-6.89050880025479,112.436215476929,-22.8350905306365));
#1297=CARTESIAN_POINT('',(-7.74050880021565,112.436215476929,-7.73526644707438));
#1298=CARTESIAN_POINT('',(-7.74050880021569,112.436215476929,-8.83526644707452));
#1299=CARTESIAN_POINT('',(-0.240592800215881,112.436215476929,-7.73526644707462));
#1300=CARTESIAN_POINT('',(13.5004911997839,112.436215476929,-7.73526644707498));
#1301=CARTESIAN_POINT('',(-0.240592800215911,112.436215476929,-10.8352664470748));
#1302=CARTESIAN_POINT('Origin',(-7.74050880021572,100.936215476929,-24.5851784888557));
#1303=CARTESIAN_POINT('',(-7.74050880021571,107.436215507268,-27.835090530636));
#1304=CARTESIAN_POINT('',(-7.74050880021572,107.873693487375,-27.3976125201914));
#1305=CARTESIAN_POINT('',(-7.74050880021571,107.436215507268,-35.3350905306367));
#1306=CARTESIAN_POINT('',(-7.74050880021571,107.436215507268,-27.835090530636));
#1307=CARTESIAN_POINT('',(-7.74050880021571,102.436215507268,-40.3350905306367));
#1308=CARTESIAN_POINT('Origin',(-7.74050880021572,102.436215507268,-35.3350905306367));
#1309=CARTESIAN_POINT('',(-7.74050880021569,99.4362155072677,-40.3350905306361));
#1310=CARTESIAN_POINT('',(-7.74050880021571,102.436215507268,-40.3350905306367));
#1311=CARTESIAN_POINT('',(-7.74050880021572,94.4362155072678,-35.3350905306368));
#1312=CARTESIAN_POINT('Origin',(-7.74050880021572,99.4362155072677,-35.3350905306368));
#1313=CARTESIAN_POINT('',(-7.74050880021572,94.4362155072677,-27.8350905306365));
#1314=CARTESIAN_POINT('',(-7.74050880021572,94.4362155072678,-35.3350905306368));
#1315=CARTESIAN_POINT('',(-7.74050880021572,89.4362154769289,-22.8350905306368));
#1316=CARTESIAN_POINT('',(-7.74050880021573,93.9987374664835,-27.3976125201918));
#1317=CARTESIAN_POINT('',(-7.74050880021569,89.4362154769289,-7.73526644707466));
#1318=CARTESIAN_POINT('',(-7.74050880021572,89.4362154769289,-22.8350905306368));
#1319=CARTESIAN_POINT('',(-7.74050880021569,89.4362154769289,-7.73526644707466));
#1320=CARTESIAN_POINT('',(-7.74050880021572,98.9362155072684,-37.3350905306368));
#1321=CARTESIAN_POINT('',(-7.74050880021572,102.936215507268,-37.3350905306368));
#1322=CARTESIAN_POINT('',(-7.74050880021572,98.9362155072684,-37.3350905306368));
#1323=CARTESIAN_POINT('',(-7.74050880021572,102.936215507268,-34.8350905306373));
#1324=CARTESIAN_POINT('',(-7.74050880021572,102.936215507268,-37.3350905306368));
#1325=CARTESIAN_POINT('',(-7.74050880021572,98.9362155072681,-34.8350905306374));
#1326=CARTESIAN_POINT('',(-7.74050880021572,102.936215507268,-34.8350905306373));
#1327=CARTESIAN_POINT('',(-7.74050880021572,98.9362155072681,-34.8350905306374));
#1328=CARTESIAN_POINT('',(-7.74050880021572,104.021408476929,-17.510266447075));
#1329=CARTESIAN_POINT('Origin',(-7.74050880021572,100.971408476929,-17.5102664470751));
#1330=CARTESIAN_POINT('',(-7.74050880021572,100.971408476929,-25.8352664470763));
#1331=CARTESIAN_POINT('Origin',(-7.74050880021572,100.971408476929,-27.3352664470763));
#1332=CARTESIAN_POINT('Origin',(-6.34050880041006,94.4362155072678,-40.3350905306364));
#1333=CARTESIAN_POINT('',(-2.44050880021588,94.4362155072673,-27.8350905306372));
#1334=CARTESIAN_POINT('',(-6.34050880035191,94.4362155072675,-27.8350905306373));
#1335=CARTESIAN_POINT('',(-0.240592800216324,94.4362155072677,-35.3350905306371));
#1336=CARTESIAN_POINT('',(-6.34050880021572,94.4362155072678,-35.3350905306368));
#1337=CARTESIAN_POINT('',(-0.240592800215573,94.4362155072677,-34.8352664470765));
#1338=CARTESIAN_POINT('',(-0.240592800216322,94.4362155072677,-32.960178488856));
#1339=CARTESIAN_POINT('',(-2.44050880021572,94.4362155072678,-34.8352664470762));
#1340=CARTESIAN_POINT('',(-5.3905088003129,94.4362155072677,-34.8352664470764));
#1341=CARTESIAN_POINT('',(-2.44050880021595,94.4362155072676,-33.549907674781));
#1342=CARTESIAN_POINT('Origin',(-6.89050880025475,91.9362154769291,-25.3350905306372));
#1343=CARTESIAN_POINT('',(-2.43897034482651,94.436215476929,-27.8350905306372));
#1344=CARTESIAN_POINT('',(-6.89050880025476,94.436215476929,-27.8350905306373));
#1345=CARTESIAN_POINT('',(-0.240592800216285,92.4664530317186,-25.8653280854267));
#1346=CARTESIAN_POINT('Origin',(-0.240504400126049,94.678196029952,-28.0770710836603));
#1347=CARTESIAN_POINT('',(-0.240592800216042,89.4362154769289,-22.8350905306371));
#1348=CARTESIAN_POINT('',(-0.240592800216315,94.2575577060384,-27.6564327597466));
#1349=CARTESIAN_POINT('',(-6.89050880025474,89.4362154769292,-22.8350905306371));
#1350=CARTESIAN_POINT('Origin',(-7.44050880021573,89.4362154769296,-40.0122664470757));
#1351=CARTESIAN_POINT('',(-0.240592800215757,89.4362154769289,-7.73526644707498));
#1352=CARTESIAN_POINT('',(-0.240592800216053,89.4362154769291,-32.7987664470756));
#1353=CARTESIAN_POINT('',(-6.34050880021569,89.4362154769289,-7.73526644707466));
#1354=CARTESIAN_POINT('Origin',(-0.240504400125836,105.321620923915,-10.8352664470745));
#1355=CARTESIAN_POINT('',(-0.240592800216383,108.021620922468,-10.8352664470748));
#1356=CARTESIAN_POINT('',(-0.240592800216393,108.021620922468,-19.8352664470747));
#1357=CARTESIAN_POINT('',(-0.240592800216383,108.021620922468,-10.8352664470745));
#1358=CARTESIAN_POINT('',(-0.240592800216349,102.621620925362,-10.8352664470748));
#1359=CARTESIAN_POINT('Origin',(-0.240504400125836,105.321620923915,-10.8352664470748));
#1360=CARTESIAN_POINT('',(-0.240592800216055,102.621620925362,-17.1018562671881));
#1361=CARTESIAN_POINT('',(-0.240592800216349,102.621620925362,-10.8352664470745));
#1362=CARTESIAN_POINT('',(-0.756618714826388,102.671408476928,-17.5102664470751));
#1363=CARTESIAN_POINT('Ctrl Pts',(-0.756618714826388,102.671408476928,-17.5102664470751));
#1364=CARTESIAN_POINT('Ctrl Pts',(-0.756618714826383,102.671408476928,-17.4634908822785));
#1365=CARTESIAN_POINT('Ctrl Pts',(-0.746050667904649,102.669290385623,-17.4141757401852));
#1366=CARTESIAN_POINT('Ctrl Pts',(-0.705042829422923,102.661801644993,-17.3242366048625));
#1367=CARTESIAN_POINT('Ctrl Pts',(-0.674678010367666,102.656545133281,-17.283568981356));
#1368=CARTESIAN_POINT('Ctrl Pts',(-0.606569996037128,102.646320381634,-17.2172758137825));
#1369=CARTESIAN_POINT('Ctrl Pts',(-0.558429160486734,102.640044855834,-17.1844915305888));
#1370=CARTESIAN_POINT('Ctrl Pts',(-0.434807019810396,102.627422237717,-17.1239803992313));
#1371=CARTESIAN_POINT('Ctrl Pts',(-0.330000380015567,102.621623852635,-17.1018680950594));
#1372=CARTESIAN_POINT('Ctrl Pts',(-0.240592800216055,102.621620925362,-17.1018562671882));
#1373=CARTESIAN_POINT('',(-0.240592800216056,102.621620925362,-17.9186766269616));
#1374=CARTESIAN_POINT('Ctrl Pts',(-0.240592800216056,102.621620925362,-17.9186766269619));
#1375=CARTESIAN_POINT('Ctrl Pts',(-0.330000380015568,102.621623852635,-17.9186647990908));
#1376=CARTESIAN_POINT('Ctrl Pts',(-0.434807019810395,102.627422237717,-17.8965524949188));
#1377=CARTESIAN_POINT('Ctrl Pts',(-0.558429160486733,102.640044855834,-17.8360413635613));
#1378=CARTESIAN_POINT('Ctrl Pts',(-0.606569996037127,102.646320381634,-17.8032570803677));
#1379=CARTESIAN_POINT('Ctrl Pts',(-0.674678010367666,102.656545133281,-17.7369639127941));
#1380=CARTESIAN_POINT('Ctrl Pts',(-0.705042829422924,102.661801644993,-17.6962962892877));
#1381=CARTESIAN_POINT('Ctrl Pts',(-0.746050667904652,102.669290385623,-17.6063571539649));
#1382=CARTESIAN_POINT('Ctrl Pts',(-0.756618714826393,102.671408476928,-17.5570420118717));
#1383=CARTESIAN_POINT('Ctrl Pts',(-0.756618714826388,102.671408476928,-17.5102664470751));
#1384=CARTESIAN_POINT('',(-0.240592800216359,102.621620925362,-19.8352664470747));
#1385=CARTESIAN_POINT('',(-0.240592800216349,102.621620925362,-10.8352664470745));
#1386=CARTESIAN_POINT('Origin',(-0.240504400125801,105.321620923915,-19.8352664470747));
#1387=CARTESIAN_POINT('Origin',(-0.240592800216355,100.971408476929,-25.5852664470755));
#1388=CARTESIAN_POINT('',(-0.240592800216316,103.82162092652,-10.8352664470749));
#1389=CARTESIAN_POINT('',(-0.240592800216353,103.146558975059,-10.8352664470748));
#1390=CARTESIAN_POINT('',(-0.240592800216278,103.82162092652,-7.7352664470747));
#1391=CARTESIAN_POINT('',(-0.240592800216316,103.82162092652,-10.8352664470749));
#1392=CARTESIAN_POINT('',(-0.240592800216218,98.1211960273555,-7.73526644707484));
#1393=CARTESIAN_POINT('',(-0.240592800216351,107.719424646796,-7.73526644707527));
#1394=CARTESIAN_POINT('',(-0.240592800216185,98.1211960273555,-9.7352664470748));
#1395=CARTESIAN_POINT('',(-0.240592800216256,98.1211960273555,-10.835266447075));
#1396=CARTESIAN_POINT('',(-0.240592800216258,99.321196028513,-9.73526644707469));
#1397=CARTESIAN_POINT('',(-0.240592800216254,98.7963465280814,-9.7352664470747));
#1398=CARTESIAN_POINT('',(-0.240592800216056,99.3211960285131,-17.101856267115));
#1399=CARTESIAN_POINT('',(-0.240592800216329,99.3211960285131,-10.8352664470746));
#1400=CARTESIAN_POINT('Origin',(-0.240592800216056,100.971408476928,-17.5102664470749));
#1401=CARTESIAN_POINT('Origin',(-0.240592800216355,100.971408476929,-25.5852664470755));
#1402=CARTESIAN_POINT('',(-0.24059280021581,103.621620926184,-19.8352664470748));
#1403=CARTESIAN_POINT('',(-0.240592800216363,103.146558975059,-19.8352664470748));
#1404=CARTESIAN_POINT('',(-0.240592800216057,99.3211960285131,-17.9186766270348));
#1405=CARTESIAN_POINT('Origin',(-0.240592800216056,100.971408476928,-17.5102664470749));
#1406=CARTESIAN_POINT('',(-0.240592800216338,99.3211960285131,-19.8352664470749));
#1407=CARTESIAN_POINT('',(-0.240592800216329,99.3211960285131,-10.8352664470746));
#1408=CARTESIAN_POINT('',(-0.24059280021576,98.3211960276737,-19.8352664470747));
#1409=CARTESIAN_POINT('',(-0.240592800216335,98.7963465280814,-19.8352664470749));
#1410=CARTESIAN_POINT('',(-0.240592800216009,98.3211960276533,-20.628266447075));
#1411=CARTESIAN_POINT('',(-0.240592800216009,98.3211960276533,-20.8352664470747));
#1412=CARTESIAN_POINT('',(-0.240592800216039,98.5935621096527,-21.2858163354023));
#1413=CARTESIAN_POINT('Ctrl Pts',(-0.240592800216039,98.5935621096527,-21.2858163354023));
#1414=CARTESIAN_POINT('Ctrl Pts',(-0.240592800216002,98.4472788661014,-20.9326573452275));
#1415=CARTESIAN_POINT('Ctrl Pts',(-0.240592800216009,98.3211960276533,-20.628266447075));
#1416=CARTESIAN_POINT('',(-0.240592800216039,103.349254844205,-21.2858163354021));
#1417=CARTESIAN_POINT('Origin',(-0.240592800216045,100.971408476929,-27.335266447076));
#1418=CARTESIAN_POINT('',(-0.240592800216061,103.621620926205,-20.628266447075));
#1419=CARTESIAN_POINT('Ctrl Pts',(-0.240592800216061,103.621620926205,-20.628266447075));
#1420=CARTESIAN_POINT('Ctrl Pts',(-0.240592800215802,103.495538087751,-20.9326573452408));
#1421=CARTESIAN_POINT('Ctrl Pts',(-0.240592800216039,103.349254844205,-21.2858163354021));
#1422=CARTESIAN_POINT('',(-0.240592800216061,103.621620926205,-20.8352664470748));
#1423=CARTESIAN_POINT('Origin',(-4.14050880021566,100.971408476928,-17.5102664470751));
#1424=CARTESIAN_POINT('',(-3.84050880021614,102.671408476928,-17.5102664470748));
#1425=CARTESIAN_POINT('Origin',(-3.84050880021616,100.971408476928,-17.5102664470751));
#1426=CARTESIAN_POINT('',(-4.14050880021567,102.671408476928,-17.510266447075));
#1427=CARTESIAN_POINT('Ctrl Pts',(-0.240592800216056,99.3211960285131,-17.1018562671153));
#1428=CARTESIAN_POINT('Ctrl Pts',(-0.330000380031811,99.3211931012397,-17.1018680949864));
#1429=CARTESIAN_POINT('Ctrl Pts',(-0.434807019845632,99.3153947161562,-17.1239803991623));
#1430=CARTESIAN_POINT('Ctrl Pts',(-0.558429160544239,99.302772098034,-17.1844915305305));
#1431=CARTESIAN_POINT('Ctrl Pts',(-0.60656999610326,99.2964965722322,-17.2172758137299));
#1432=CARTESIAN_POINT('Ctrl Pts',(-0.674678010445901,99.286271820581,-17.2835689813153));
#1433=CARTESIAN_POINT('Ctrl Pts',(-0.705042829506445,99.2810153088678,-17.324236604829));
#1434=CARTESIAN_POINT('Ctrl Pts',(-0.746050667995355,99.2735265682352,-17.414175740168));
#1435=CARTESIAN_POINT('Ctrl Pts',(-0.75661871491894,99.2714084769285,-17.46349088227));
#1436=CARTESIAN_POINT('Ctrl Pts',(-0.756618714918939,99.2714084769285,-17.5570420118801));
#1437=CARTESIAN_POINT('Ctrl Pts',(-0.746050667995358,99.2735265682352,-17.6063571539822));
#1438=CARTESIAN_POINT('Ctrl Pts',(-0.705042829506451,99.2810153088678,-17.6962962893211));
#1439=CARTESIAN_POINT('Ctrl Pts',(-0.6746780104459,99.286271820581,-17.7369639128349));
#1440=CARTESIAN_POINT('Ctrl Pts',(-0.60656999610326,99.2964965722322,-17.8032570804203));
#1441=CARTESIAN_POINT('Ctrl Pts',(-0.558429160544238,99.302772098034,-17.8360413636197));
#1442=CARTESIAN_POINT('Ctrl Pts',(-0.434807019845632,99.3153947161562,-17.8965524949879));
#1443=CARTESIAN_POINT('Ctrl Pts',(-0.330000380031811,99.3211931012397,-17.9186647991637));
#1444=CARTESIAN_POINT('Ctrl Pts',(-0.240592800216057,99.3211960285131,-17.9186766270348));
#1445=CARTESIAN_POINT('Origin',(-0.240504400125712,96.6211960299602,-10.8352664470746));
#1446=CARTESIAN_POINT('',(-0.240592800216304,93.9211960314074,-19.8352664470749));
#1447=CARTESIAN_POINT('',(-0.240592800216224,93.9211960314073,-9.73526644707469));
#1448=CARTESIAN_POINT('',(-0.240592800216295,93.9211960314074,-10.8352664470746));
#1449=CARTESIAN_POINT('Origin',(-0.240504400125676,96.6211960299602,-19.8352664470749));
#1450=CARTESIAN_POINT('Origin',(-0.240504400125641,96.6211960299602,-9.73526644707469));
#1451=CARTESIAN_POINT('Origin',(-0.240592800216355,100.971408476929,-25.5852664470755));
#1452=CARTESIAN_POINT('',(-0.240592800216246,94.9211960322501,-20.628266447075));
#1453=CARTESIAN_POINT('',(-0.24059280021631,94.421271537429,-21.8351909413741));
#1454=CARTESIAN_POINT('Ctrl Pts',(-0.240592800216246,94.9211960322501,-20.628266447075));
#1455=CARTESIAN_POINT('Ctrl Pts',(-0.240592800216305,94.7032760077823,-21.1543719249445));
#1456=CARTESIAN_POINT('Ctrl Pts',(-0.24059280021631,94.421271537428,-21.8351909413746));
#1457=CARTESIAN_POINT('',(-0.240592800215743,94.9211960322296,-19.8352664470747));
#1458=CARTESIAN_POINT('',(-0.240592800216246,94.9211960322501,-20.8352664470747));
#1459=CARTESIAN_POINT('',(-0.240592800216335,98.7963465280814,-19.8352664470749));
#1460=CARTESIAN_POINT('',(-0.240592800216166,95.1211960325652,-9.73526644707487));
#1461=CARTESIAN_POINT('',(-0.240592800216248,97.8248022534443,-9.73526644707504));
#1462=CARTESIAN_POINT('',(-0.240592800216199,95.1211960325652,-7.73526644707491));
#1463=CARTESIAN_POINT('',(-0.240592800216237,95.1211960325652,-10.8352664470751));
#1464=CARTESIAN_POINT('',(-0.240592800216351,107.719424646796,-7.73526644707527));
#1465=CARTESIAN_POINT('',(-0.240592800216297,92.4664530317069,-21.8352664470753));
#1466=CARTESIAN_POINT('',(-0.240592800216286,92.4664530317186,-10.835266447075));
#1467=CARTESIAN_POINT('',(-0.240592800216351,100.971408476929,-21.8352664470753));
#1468=CARTESIAN_POINT('Origin',(-0.240504400125925,105.321620923906,-21.2317286942245));
#1469=CARTESIAN_POINT('',(-2.25402820141979,104.43539355765,-21.8351930458608));
#1470=CARTESIAN_POINT('Ctrl Pts',(-0.240592800216039,103.349254844205,-21.2858163354021));
#1471=CARTESIAN_POINT('Ctrl Pts',(-0.597863603702186,103.349268614791,-21.2858217481809));
#1472=CARTESIAN_POINT('Ctrl Pts',(-0.968795063142065,103.438282514468,-21.3188650814631));
#1473=CARTESIAN_POINT('Ctrl Pts',(-1.6219755013722,103.768241211266,-21.4649781549285));
#1474=CARTESIAN_POINT('Ctrl Pts',(-1.9038113541068,104.008583106608,-21.5812421859504));
#1475=CARTESIAN_POINT('Ctrl Pts',(-2.16427055728385,104.316123994047,-21.7614440101389));
#1476=CARTESIAN_POINT('Ctrl Pts',(-2.21060823157152,104.375519433032,-21.7974839553356));
#1477=CARTESIAN_POINT('Ctrl Pts',(-2.25402443050407,104.43539021268,-21.8351909444682));
#1478=CARTESIAN_POINT('',(-2.44042889442468,105.321620923906,-21.835190941374));
#1479=CARTESIAN_POINT('Origin',(-0.240504400125924,105.321620923906,-21.835190941374));
#1480=CARTESIAN_POINT('',(-0.240592800216392,107.521545416429,-21.835190941374));
#1481=CARTESIAN_POINT('Origin',(-0.240504400125924,105.321620923906,-21.835190941374));
#1482=CARTESIAN_POINT('',(-0.240592800216347,107.021620921608,-20.628266447075));
#1483=CARTESIAN_POINT('Ctrl Pts',(-0.240592800216392,107.521545416429,-21.835190941374));
#1484=CARTESIAN_POINT('Ctrl Pts',(-0.240592800216391,107.367617727128,-21.4635766265397));
#1485=CARTESIAN_POINT('Ctrl Pts',(-0.240592800216348,107.12148847941,-20.869368059236));
#1486=CARTESIAN_POINT('Ctrl Pts',(-0.240592800216347,107.021620921608,-20.628266447075));
#1487=CARTESIAN_POINT('Origin',(-0.240504400125925,105.321620923906,-20.628266447075));
#1488=CARTESIAN_POINT('Origin',(1.95949999996276,100.971408476929,-27.335266447076));
#1489=CARTESIAN_POINT('',(-2.440509000037,97.5073068617928,-21.8352664470751));
#1490=CARTESIAN_POINT('',(-2.25402820141929,97.5074233962086,-21.8351930458608));
#1491=CARTESIAN_POINT('',(1.95949999996275,97.5073068617928,-21.8352664470753));
#1492=CARTESIAN_POINT('',(-2.440509000037,104.435510092066,-21.8352664470751));
#1493=CARTESIAN_POINT('Origin',(-2.440509000037,100.971408476929,-27.3352664470758));
#1494=CARTESIAN_POINT('',(1.95949999996275,104.435510092066,-21.8352664470753));
#1495=CARTESIAN_POINT('Ctrl Pts',(-2.25402443050361,97.5074267411788,-21.8351909444682));
#1496=CARTESIAN_POINT('Ctrl Pts',(-2.21060823157115,97.5672975208265,-21.7974839553357));
#1497=CARTESIAN_POINT('Ctrl Pts',(-2.16427055728359,97.6266929598118,-21.761444010139));
#1498=CARTESIAN_POINT('Ctrl Pts',(-1.90381135410665,97.9342338472505,-21.5812421859507));
#1499=CARTESIAN_POINT('Ctrl Pts',(-1.62197550137203,98.1745757425923,-21.4649781549288));
#1500=CARTESIAN_POINT('Ctrl Pts',(-0.968795063141949,98.5045344393896,-21.3188650814634));
#1501=CARTESIAN_POINT('Ctrl Pts',(-0.597863603702127,98.5935483390676,-21.2858217481812));
#1502=CARTESIAN_POINT('Ctrl Pts',(-0.240592800216039,98.5935621096527,-21.2858163354023));
#1503=CARTESIAN_POINT('Origin',(-0.2405044001258,96.6211960299517,-21.2317286942245));
#1504=CARTESIAN_POINT('',(-2.44042889442458,96.6211960299516,-21.835190941374));
#1505=CARTESIAN_POINT('Origin',(-0.2405044001258,96.6211960299517,-21.835190941374));
#1506=CARTESIAN_POINT('Origin',(-0.2405044001258,96.6211960299517,-21.835190941374));
#1507=CARTESIAN_POINT('Origin',(-0.240504400125801,96.6211960299517,-20.628266447075));
#1508=CARTESIAN_POINT('Origin',(-0.240504400125801,96.6211960299517,-20.8352664470747));
#1509=CARTESIAN_POINT('Origin',(-0.240504400125802,96.6211960299517,-19.8352664470748));
#1510=CARTESIAN_POINT('Origin',(-0.240592949399971,100.971408476928,-21.8352664470753));
#1511=CARTESIAN_POINT('',(-2.4405088002166,100.953811992097,-21.8352664470747));
#1512=CARTESIAN_POINT('Origin',(-0.240592949399971,100.971408476928,-21.8352664470753));
#1513=CARTESIAN_POINT('',(-2.4405088002166,100.953811992097,-21.8352664470747));
#1514=CARTESIAN_POINT('Origin',(-0.240504400125925,105.321620923906,-20.8352664470748));
#1515=CARTESIAN_POINT('',(-0.240592800215828,107.021620921628,-19.8352664470748));
#1516=CARTESIAN_POINT('',(-0.240592800216347,107.021620921608,-20.8352664470748));
#1517=CARTESIAN_POINT('Origin',(-0.240504400125926,105.321620923906,-19.8352664470748));
#1518=CARTESIAN_POINT('Origin',(-1.49050440012561,107.264620923915,-10.835266447075));
#1519=CARTESIAN_POINT('',(-0.240592800216335,106.82162092131,-10.8352664470748));
#1520=CARTESIAN_POINT('Origin',(-0.240504400125552,105.321620923915,-10.8352664470748));
#1521=CARTESIAN_POINT('',(-0.240592800216353,103.146558975059,-10.8352664470748));
#1522=CARTESIAN_POINT('Origin',(-3.84050880021616,100.971408476928,-17.5102664470749));
#1523=CARTESIAN_POINT('Origin',(-0.240592949399723,100.971408476928,-19.835266447075));
#1524=CARTESIAN_POINT('Origin',(-0.240592949399723,100.971408476928,-19.835266447075));
#1525=CARTESIAN_POINT('',(-0.240592800216363,103.146558975059,-19.8352664470748));
#1526=CARTESIAN_POINT('Origin',(-0.240592800216355,100.971408476929,-25.5852664470755));
#1527=CARTESIAN_POINT('',(-0.240592800216404,109.476363922152,-21.8352664470753));
#1528=CARTESIAN_POINT('',(-0.240592800216351,100.971408476929,-21.8352664470753));
#1529=CARTESIAN_POINT('',(-0.240592800216392,109.47636392214,-25.7949420854258));
#1530=CARTESIAN_POINT('',(-0.240592800216393,109.47636392214,-10.835266447075));
#1531=CARTESIAN_POINT('',(-0.240592800216398,107.63246974782,-27.6388362597465));
#1532=CARTESIAN_POINT('',(-0.240592800216297,106.82162092131,-7.73526644707463));
#1533=CARTESIAN_POINT('',(-0.240592800216351,107.719424646796,-7.73526644707527));
#1534=CARTESIAN_POINT('',(-0.240592800216335,106.82162092131,-10.8352664470748));
#1535=CARTESIAN_POINT('Origin',(34.4414911997833,114.467440816664,-7.73526644707505));
#1536=CARTESIAN_POINT('Origin',(-0.240504400125516,105.321620923915,-7.73526644707466));
#1537=CARTESIAN_POINT('Origin',(-0.240504400125374,96.6211960299603,-7.73526644707488));
#1538=CARTESIAN_POINT('Origin',(-1.59050440012539,94.6781960299603,-9.73526644707512));
#1539=CARTESIAN_POINT('Origin',(-0.240504400125339,96.6211960299603,-9.73526644707484));
#1540=CARTESIAN_POINT('Origin',(-0.24050440012541,96.6211960299604,-10.835266447075));
#1541=CARTESIAN_POINT('Origin',(-0.240504400125552,105.321620923915,-10.8352664470748));
#1542=CARTESIAN_POINT('Origin',(-6.34050880006094,102.436215507268,-35.335090530637));
#1543=CARTESIAN_POINT('',(-0.240592800215668,107.436215507268,-35.3350905306369));
#1544=CARTESIAN_POINT('',(-6.34050880021571,107.436215507268,-35.3350905306367));
#1545=CARTESIAN_POINT('',(-0.240592800216126,102.436215507268,-40.3350905306361));
#1546=CARTESIAN_POINT('Origin',(-0.240592800216353,102.436215507268,-35.335090530637));
#1547=CARTESIAN_POINT('',(-6.34050880006093,102.436215507268,-40.335090530637));
#1548=CARTESIAN_POINT('Origin',(-6.34050879995007,105.936215507268,-40.335090530637));
#1549=CARTESIAN_POINT('',(-0.240592800216109,99.4362155072677,-40.3350905306364));
#1550=CARTESIAN_POINT('',(-0.240592800216088,95.9362155072683,-40.3350905306367));
#1551=CARTESIAN_POINT('',(-6.34050880018006,99.4362155072677,-40.335090530637));
#1552=CARTESIAN_POINT('Origin',(-6.34050880018006,99.4362155072677,-35.335090530637));
#1553=CARTESIAN_POINT('Origin',(-0.240592800216335,99.4362155072677,-35.3350905306369));
#1554=CARTESIAN_POINT('Origin',(-6.89050880025477,109.936215476929,-25.3350905306367));
#1555=CARTESIAN_POINT('',(-2.4455809060621,107.436215507268,-27.8350905306368));
#1556=CARTESIAN_POINT('Origin',(-0.240504400126173,107.264620923907,-28.0066850836594));
#1557=CARTESIAN_POINT('',(-6.6155088002133,107.436215507268,-27.835090500298));
#1558=CARTESIAN_POINT('Origin',(-0.240504400126174,107.264620923907,-10.835266447075));
#1559=CARTESIAN_POINT('',(-2.44558090606211,107.436215507268,-21.8352664470753));
#1560=CARTESIAN_POINT('Origin',(-0.240504400126173,107.264620923907,-21.8352664470753));
#1561=CARTESIAN_POINT('',(-2.44558090605747,107.436215507268,-10.835266447075));
#1562=CARTESIAN_POINT('Origin',(-0.240504400126049,94.678196029952,-10.835266447075));
#1563=CARTESIAN_POINT('',(-2.44050880021663,94.4506268368896,-27.8350905306372));
#1564=CARTESIAN_POINT('Origin',(-0.240504400126049,94.678196029952,-27.8350905306372));
#1565=CARTESIAN_POINT('',(-2.44050880021656,94.4506268368889,-21.8352664470747));
#1566=CARTESIAN_POINT('',(-2.44050880021643,94.4506268368877,-10.835266447075));
#1567=CARTESIAN_POINT('Origin',(-0.240504400126049,94.678196029952,-21.8352664470753));
#1568=CARTESIAN_POINT('Origin',(-6.34050880029376,95.9362155072677,-27.8350905306372));
#1569=CARTESIAN_POINT('',(-2.44050880021666,98.4362155072668,-27.8350905306372));
#1570=CARTESIAN_POINT('Origin',(-0.240592949399971,100.971408476928,-21.8352664470753));
#1571=CARTESIAN_POINT('',(-2.4405088002166,100.953811992097,-21.8352664470747));
#1572=CARTESIAN_POINT('Origin',(-2.44050880021666,100.936215507266,-26.7647248189256));
#1573=CARTESIAN_POINT('',(-2.44050880021646,98.936215507268,-34.8352664470767));
#1574=CARTESIAN_POINT('',(-2.44050880021621,95.9362155072678,-34.8352664470765));
#1575=CARTESIAN_POINT('',(-2.44050880021646,98.9362155072683,-34.8350905306379));
#1576=CARTESIAN_POINT('',(-2.44050880021645,98.936215507268,-34.5864076747815));
#1577=CARTESIAN_POINT('',(-2.44050880021647,102.936215507269,-34.8350905306377));
#1578=CARTESIAN_POINT('',(-2.44050880021678,104.686215507267,-34.8350905306381));
#1579=CARTESIAN_POINT('',(-2.44050880021647,102.936215507268,-34.8352664470771));
#1580=CARTESIAN_POINT('',(-2.44050880021649,102.936215507268,-37.0864076747815));
#1581=CARTESIAN_POINT('',(-2.44050880021604,107.436215507268,-34.8352664470769));
#1582=CARTESIAN_POINT('',(-2.44050880021679,106.883827660968,-34.8352664470777));
#1583=CARTESIAN_POINT('',(-2.44050880021579,107.436215507266,-21.8352664470753));
#1584=CARTESIAN_POINT('',(-2.44050880021577,107.436215507268,-34.8350905306362));
#1585=CARTESIAN_POINT('',(-2.4405088002166,100.953811992097,-21.8352664470747));
#1586=CARTESIAN_POINT('',(-2.44050880021666,100.971408476929,-25.8352664470763));
#1587=CARTESIAN_POINT('Origin',(-2.44050880021666,100.971408476929,-27.3352664470763));
#1588=CARTESIAN_POINT('Origin',(-6.34050880017185,107.436215507268,-34.8350905306364));
#1589=CARTESIAN_POINT('',(-3.29055087478593,107.436215507268,-21.8352664470753));
#1590=CARTESIAN_POINT('',(-0.240592800215644,107.436215507268,-34.8352664470769));
#1591=CARTESIAN_POINT('',(-5.39050880019385,107.436215507268,-34.8352664470769));
#1592=CARTESIAN_POINT('',(-0.240592800215662,107.436215507267,-30.2101784888553));
#1593=CARTESIAN_POINT('Origin',(-4.44050880021658,112.831439814671,-34.835266447078));
#1594=CARTESIAN_POINT('',(-0.240592800216352,98.936215507268,-34.8352664470767));
#1595=CARTESIAN_POINT('',(-0.240592800216071,95.9362155072677,-34.8352664470769));
#1596=CARTESIAN_POINT('',(-5.94050880025522,98.936215507268,-34.8352664470767));
#1597=CARTESIAN_POINT('Origin',(-0.240592800216355,100.971408476929,-25.5852664470755));
#1598=CARTESIAN_POINT('',(-0.240592800216377,102.936215507268,-34.8352664470772));
#1599=CARTESIAN_POINT('',(-0.240592800216402,106.9014241458,-34.8352664470777));
#1600=CARTESIAN_POINT('',(-0.240592800216379,102.936215507269,-37.3350905306377));
#1601=CARTESIAN_POINT('',(-0.240592800216379,102.936215507269,-36.4966784888566));
#1602=CARTESIAN_POINT('',(-0.240592800216354,98.9362155072684,-37.3350905306378));
#1603=CARTESIAN_POINT('',(-0.240592800216343,97.2038119920985,-37.3350905306378));
#1604=CARTESIAN_POINT('',(-0.240592800216351,98.9362155072683,-33.9966784888567));
#1605=CARTESIAN_POINT('Origin',(-4.44050880021658,112.831439814671,-34.835266447078));
#1606=CARTESIAN_POINT('',(-5.94050880017714,102.936215507268,-34.8352664470772));
#1607=CARTESIAN_POINT('Origin',(-0.240592949399971,100.971408476928,-21.8352664470753));
#1608=CARTESIAN_POINT('Origin',(-6.34050880021586,100.971408476929,-17.5102664470753));
#1609=CARTESIAN_POINT('',(-4.14050880021584,104.021408476929,-17.5102664470752));
#1610=CARTESIAN_POINT('',(-6.34050880021586,104.021408476929,-17.5102664470752));
#1611=CARTESIAN_POINT('Origin',(-4.14050880021586,100.971408476929,-17.5102664470753));
#1612=CARTESIAN_POINT('Origin',(-4.14050880021632,100.971408476929,-25.5852664470753));
#1613=CARTESIAN_POINT('Origin',(-7.44050880029434,98.9362155072685,-42.4080905306378));
#1614=CARTESIAN_POINT('',(-7.44050880029435,98.9362155072684,-37.3350905306378));
#1615=CARTESIAN_POINT('',(-7.44050880029449,98.9362155072683,-34.8350905306382));
#1616=CARTESIAN_POINT('Origin',(-7.44050880029435,93.436215507268,-37.3350905306379));
#1617=CARTESIAN_POINT('',(-7.44050880021632,102.936215507269,-37.3350905306377));
#1618=CARTESIAN_POINT('Origin',(-7.44050880013824,102.936215507269,-47.4080905306378));
#1619=CARTESIAN_POINT('',(-4.44050880021647,102.936215507269,-34.8350905306376));
#1620=CARTESIAN_POINT('Origin',(0.959322901415378,100.971408476929,-27.3352664470763));
#1621=CARTESIAN_POINT('',(0.959322901415379,100.971408476929,-25.8352664470763));
#1622=CARTESIAN_POINT('Origin',(-7.44050880029469,108.436215507268,-34.835090530638));
#1623=UNCERTAINTY_MEASURE_WITH_UNIT(LENGTH_MEASURE(0.01),#1627,
'DISTANCE_ACCURACY_VALUE',
'Maximum model space distance between geometric entities at asserted c
onnectivities');
#1624=UNCERTAINTY_MEASURE_WITH_UNIT(LENGTH_MEASURE(0.01),#1627,
'DISTANCE_ACCURACY_VALUE',
'Maximum model space distance between geometric entities at asserted c
onnectivities');
#1625=(
GEOMETRIC_REPRESENTATION_CONTEXT(3)
GLOBAL_UNCERTAINTY_ASSIGNED_CONTEXT((#1623))
GLOBAL_UNIT_ASSIGNED_CONTEXT((#1627,#1629,#1630))
REPRESENTATION_CONTEXT('','3D')
);
#1626=(
GEOMETRIC_REPRESENTATION_CONTEXT(3)
GLOBAL_UNCERTAINTY_ASSIGNED_CONTEXT((#1624))
GLOBAL_UNIT_ASSIGNED_CONTEXT((#1627,#1629,#1630))
REPRESENTATION_CONTEXT('','3D')
);
#1627=(
LENGTH_UNIT()
NAMED_UNIT(*)
SI_UNIT(.MILLI.,.METRE.)
);
#1628=(
LENGTH_UNIT()
NAMED_UNIT(*)
SI_UNIT($,.METRE.)
);
#1629=(
NAMED_UNIT(*)
PLANE_ANGLE_UNIT()
SI_UNIT($,.RADIAN.)
);
#1630=(
NAMED_UNIT(*)
SI_UNIT($,.STERADIAN.)
SOLID_ANGLE_UNIT()
);
#1631=SHAPE_DEFINITION_REPRESENTATION(#1632,#1633);
#1632=PRODUCT_DEFINITION_SHAPE('',$,#1635);
#1633=SHAPE_REPRESENTATION('',(#951),#1625);
#1634=PRODUCT_DEFINITION_CONTEXT('part definition',#1639,'design');
#1635=PRODUCT_DEFINITION('2026-06-23-13-23-22-154','end-pulley-top',#1636,
#1634);
#1636=PRODUCT_DEFINITION_FORMATION('',$,#1641);
#1637=PRODUCT_RELATED_PRODUCT_CATEGORY('end-pulley-top',
'end-pulley-top',(#1641));
#1638=APPLICATION_PROTOCOL_DEFINITION('international standard',
'automotive_design',2009,#1639);
#1639=APPLICATION_CONTEXT(
'Core Data for Automotive Mechanical Design Process');
#1640=PRODUCT_CONTEXT('part definition',#1639,'mechanical');
#1641=PRODUCT('2026-06-23-13-23-22-154','end-pulley-top',$,(#1640));
#1642=PRESENTATION_STYLE_ASSIGNMENT((#1645));
#1643=PRESENTATION_STYLE_ASSIGNMENT((#1646));
#1644=PRESENTATION_STYLE_ASSIGNMENT((#1647));
#1645=SURFACE_STYLE_USAGE(.BOTH.,#1648);
#1646=SURFACE_STYLE_USAGE(.BOTH.,#1649);
#1647=SURFACE_STYLE_USAGE(.BOTH.,#1650);
#1648=SURFACE_SIDE_STYLE('',(#1651));
#1649=SURFACE_SIDE_STYLE('',(#1652));
#1650=SURFACE_SIDE_STYLE('',(#1653));
#1651=SURFACE_STYLE_FILL_AREA(#1654);
#1652=SURFACE_STYLE_FILL_AREA(#1655);
#1653=SURFACE_STYLE_FILL_AREA(#1656);
#1654=FILL_AREA_STYLE('Steel - Satin',(#1657));
#1655=FILL_AREA_STYLE('ABS (White)',(#1658));
#1656=FILL_AREA_STYLE('Paint - Enamel Glossy (Red)',(#1659));
#1657=FILL_AREA_STYLE_COLOUR('Steel - Satin',#1660);
#1658=FILL_AREA_STYLE_COLOUR('ABS (White)',#1661);
#1659=FILL_AREA_STYLE_COLOUR('Paint - Enamel Glossy (Red)',#1662);
#1660=COLOUR_RGB('Steel - Satin',0.627450980392157,0.627450980392157,0.627450980392157);
#1661=COLOUR_RGB('ABS (White)',0.964705882352941,0.964705882352941,0.952941176470588);
#1662=COLOUR_RGB('Paint - Enamel Glossy (Red)',0.768627450980392,0.207843137254902,
0.152941176470588);
ENDSEC;
END-ISO-10303-21;
