ISO-10303-21;
HEADER;
/* Generated by software containing ST-Developer
 * from STEP Tools, Inc. (www.steptools.com) 
 */

FILE_DESCRIPTION(
/* description */ (''),
/* implementation_level */ '2;1');

FILE_NAME(
/* name */ 'arm-left.step',
/* time_stamp */ '2026-02-22T10:56:44-08:00',
/* author */ (''),
/* organization */ (''),
/* preprocessor_version */ 'ST-DEVELOPER v20.1',
/* originating_system */ 'Autodesk Translation Framework v14.24.0.0',
/* authorisation */ '');

FILE_SCHEMA (('AUTOMOTIVE_DESIGN { 1 0 10303 214 3 1 1 }'));
ENDSEC;

DATA;
#10=MECHANICAL_DESIGN_GEOMETRIC_PRESENTATION_REPRESENTATION('',(#13),#1518);
#11=SHAPE_REPRESENTATION_RELATIONSHIP('SRR','None',#1525,#12);
#12=ADVANCED_BREP_SHAPE_REPRESENTATION('',(#14),#1517);
#13=STYLED_ITEM('',(#1535),#14);
#14=MANIFOLD_SOLID_BREP('Body1',#889);
#15=CONICAL_SURFACE('',#971,3.70000000000053,0.785398163397441);
#16=FACE_BOUND('',#100,.T.);
#17=FACE_BOUND('',#101,.T.);
#18=FACE_BOUND('',#108,.T.);
#19=FACE_BOUND('',#111,.T.);
#20=FACE_BOUND('',#112,.T.);
#21=FACE_BOUND('',#116,.T.);
#22=FACE_BOUND('',#125,.T.);
#23=FACE_BOUND('',#127,.T.);
#24=FACE_BOUND('',#140,.T.);
#25=FACE_BOUND('',#152,.T.);
#26=FACE_BOUND('',#154,.T.);
#27=PLANE('',#906);
#28=PLANE('',#913);
#29=PLANE('',#917);
#30=PLANE('',#923);
#31=PLANE('',#927);
#32=PLANE('',#935);
#33=PLANE('',#937);
#34=PLANE('',#942);
#35=PLANE('',#946);
#36=PLANE('',#950);
#37=PLANE('',#953);
#38=PLANE('',#959);
#39=PLANE('',#965);
#40=PLANE('',#967);
#41=PLANE('',#970);
#42=PLANE('',#975);
#43=PLANE('',#976);
#44=PLANE('',#978);
#45=PLANE('',#982);
#46=PLANE('',#989);
#47=PLANE('',#990);
#48=PLANE('',#991);
#49=PLANE('',#992);
#50=PLANE('',#993);
#51=FACE_OUTER_BOUND('',#98,.T.);
#52=FACE_OUTER_BOUND('',#99,.T.);
#53=FACE_OUTER_BOUND('',#102,.T.);
#54=FACE_OUTER_BOUND('',#103,.T.);
#55=FACE_OUTER_BOUND('',#104,.T.);
#56=FACE_OUTER_BOUND('',#105,.T.);
#57=FACE_OUTER_BOUND('',#106,.T.);
#58=FACE_OUTER_BOUND('',#107,.T.);
#59=FACE_OUTER_BOUND('',#109,.T.);
#60=FACE_OUTER_BOUND('',#110,.T.);
#61=FACE_OUTER_BOUND('',#113,.T.);
#62=FACE_OUTER_BOUND('',#114,.T.);
#63=FACE_OUTER_BOUND('',#115,.T.);
#64=FACE_OUTER_BOUND('',#117,.T.);
#65=FACE_OUTER_BOUND('',#118,.T.);
#66=FACE_OUTER_BOUND('',#119,.T.);
#67=FACE_OUTER_BOUND('',#120,.T.);
#68=FACE_OUTER_BOUND('',#121,.T.);
#69=FACE_OUTER_BOUND('',#122,.T.);
#70=FACE_OUTER_BOUND('',#123,.T.);
#71=FACE_OUTER_BOUND('',#124,.T.);
#72=FACE_OUTER_BOUND('',#126,.T.);
#73=FACE_OUTER_BOUND('',#128,.T.);
#74=FACE_OUTER_BOUND('',#129,.T.);
#75=FACE_OUTER_BOUND('',#130,.T.);
#76=FACE_OUTER_BOUND('',#131,.T.);
#77=FACE_OUTER_BOUND('',#132,.T.);
#78=FACE_OUTER_BOUND('',#133,.T.);
#79=FACE_OUTER_BOUND('',#134,.T.);
#80=FACE_OUTER_BOUND('',#135,.T.);
#81=FACE_OUTER_BOUND('',#136,.T.);
#82=FACE_OUTER_BOUND('',#137,.T.);
#83=FACE_OUTER_BOUND('',#138,.T.);
#84=FACE_OUTER_BOUND('',#139,.T.);
#85=FACE_OUTER_BOUND('',#141,.T.);
#86=FACE_OUTER_BOUND('',#142,.T.);
#87=FACE_OUTER_BOUND('',#143,.T.);
#88=FACE_OUTER_BOUND('',#144,.T.);
#89=FACE_OUTER_BOUND('',#145,.T.);
#90=FACE_OUTER_BOUND('',#146,.T.);
#91=FACE_OUTER_BOUND('',#147,.T.);
#92=FACE_OUTER_BOUND('',#148,.T.);
#93=FACE_OUTER_BOUND('',#149,.T.);
#94=FACE_OUTER_BOUND('',#150,.T.);
#95=FACE_OUTER_BOUND('',#151,.T.);
#96=FACE_OUTER_BOUND('',#153,.T.);
#97=FACE_OUTER_BOUND('',#155,.T.);
#98=EDGE_LOOP('',(#570,#571,#572,#573));
#99=EDGE_LOOP('',(#574,#575,#576,#577,#578,#579,#580,#581,#582,#583,#584,
#585,#586,#587));
#100=EDGE_LOOP('',(#588));
#101=EDGE_LOOP('',(#589,#590,#591,#592));
#102=EDGE_LOOP('',(#593,#594,#595,#596));
#103=EDGE_LOOP('',(#597,#598,#599,#600,#601,#602,#603,#604,#605,#606));
#104=EDGE_LOOP('',(#607,#608,#609,#610));
#105=EDGE_LOOP('',(#611,#612,#613,#614,#615,#616,#617,#618,#619,#620));
#106=EDGE_LOOP('',(#621,#622,#623,#624));
#107=EDGE_LOOP('',(#625,#626,#627,#628));
#108=EDGE_LOOP('',(#629));
#109=EDGE_LOOP('',(#630,#631,#632,#633));
#110=EDGE_LOOP('',(#634,#635,#636,#637,#638,#639,#640,#641,#642,#643,#644));
#111=EDGE_LOOP('',(#645));
#112=EDGE_LOOP('',(#646));
#113=EDGE_LOOP('',(#647,#648,#649,#650));
#114=EDGE_LOOP('',(#651,#652,#653,#654));
#115=EDGE_LOOP('',(#655,#656,#657,#658));
#116=EDGE_LOOP('',(#659));
#117=EDGE_LOOP('',(#660,#661,#662,#663));
#118=EDGE_LOOP('',(#664,#665,#666,#667,#668,#669,#670,#671,#672,#673,#674));
#119=EDGE_LOOP('',(#675,#676,#677,#678,#679,#680,#681,#682));
#120=EDGE_LOOP('',(#683,#684,#685,#686));
#121=EDGE_LOOP('',(#687,#688,#689,#690));
#122=EDGE_LOOP('',(#691,#692,#693,#694));
#123=EDGE_LOOP('',(#695,#696,#697,#698));
#124=EDGE_LOOP('',(#699,#700,#701,#702,#703,#704,#705,#706,#707,#708,#709,
#710));
#125=EDGE_LOOP('',(#711));
#126=EDGE_LOOP('',(#712,#713,#714,#715));
#127=EDGE_LOOP('',(#716));
#128=EDGE_LOOP('',(#717,#718,#719,#720));
#129=EDGE_LOOP('',(#721,#722,#723,#724));
#130=EDGE_LOOP('',(#725));
#131=EDGE_LOOP('',(#726,#727,#728,#729));
#132=EDGE_LOOP('',(#730,#731,#732,#733));
#133=EDGE_LOOP('',(#734,#735,#736,#737));
#134=EDGE_LOOP('',(#738,#739,#740,#741));
#135=EDGE_LOOP('',(#742,#743,#744,#745));
#136=EDGE_LOOP('',(#746,#747,#748,#749));
#137=EDGE_LOOP('',(#750));
#138=EDGE_LOOP('',(#751,#752,#753,#754));
#139=EDGE_LOOP('',(#755,#756,#757,#758));
#140=EDGE_LOOP('',(#759,#760,#761,#762,#763,#764,#765,#766,#767,#768));
#141=EDGE_LOOP('',(#769));
#142=EDGE_LOOP('',(#770,#771,#772,#773));
#143=EDGE_LOOP('',(#774,#775,#776,#777));
#144=EDGE_LOOP('',(#778,#779,#780,#781));
#145=EDGE_LOOP('',(#782,#783,#784,#785));
#146=EDGE_LOOP('',(#786,#787,#788,#789));
#147=EDGE_LOOP('',(#790,#791,#792,#793));
#148=EDGE_LOOP('',(#794,#795,#796,#797));
#149=EDGE_LOOP('',(#798,#799,#800,#801));
#150=EDGE_LOOP('',(#802,#803,#804,#805));
#151=EDGE_LOOP('',(#806,#807,#808,#809));
#152=EDGE_LOOP('',(#810));
#153=EDGE_LOOP('',(#811,#812,#813,#814));
#154=EDGE_LOOP('',(#815));
#155=EDGE_LOOP('',(#816,#817,#818,#819));
#156=LINE('',#1265,#237);
#157=LINE('',#1268,#238);
#158=LINE('',#1273,#239);
#159=LINE('',#1275,#240);
#160=LINE('',#1277,#241);
#161=LINE('',#1283,#242);
#162=LINE('',#1285,#243);
#163=LINE('',#1287,#244);
#164=LINE('',#1289,#245);
#165=LINE('',#1291,#246);
#166=LINE('',#1293,#247);
#167=LINE('',#1294,#248);
#168=LINE('',#1299,#249);
#169=LINE('',#1301,#250);
#170=LINE('',#1303,#251);
#171=LINE('',#1304,#252);
#172=LINE('',#1308,#253);
#173=LINE('',#1311,#254);
#174=LINE('',#1313,#255);
#175=LINE('',#1315,#256);
#176=LINE('',#1321,#257);
#177=LINE('',#1323,#258);
#178=LINE('',#1324,#259);
#179=LINE('',#1326,#260);
#180=LINE('',#1327,#261);
#181=LINE('',#1332,#262);
#182=LINE('',#1334,#263);
#183=LINE('',#1338,#264);
#184=LINE('',#1343,#265);
#185=LINE('',#1345,#266);
#186=LINE('',#1352,#267);
#187=LINE('',#1353,#268);
#188=LINE('',#1356,#269);
#189=LINE('',#1360,#270);
#190=LINE('',#1364,#271);
#191=LINE('',#1368,#272);
#192=LINE('',#1376,#273);
#193=LINE('',#1379,#274);
#194=LINE('',#1387,#275);
#195=LINE('',#1390,#276);
#196=LINE('',#1395,#277);
#197=LINE('',#1398,#278);
#198=LINE('',#1400,#279);
#199=LINE('',#1402,#280);
#200=LINE('',#1406,#281);
#201=LINE('',#1407,#282);
#202=LINE('',#1408,#283);
#203=LINE('',#1409,#284);
#204=LINE('',#1415,#285);
#205=LINE('',#1416,#286);
#206=LINE('',#1418,#287);
#207=LINE('',#1422,#288);
#208=LINE('',#1425,#289);
#209=LINE('',#1429,#290);
#210=LINE('',#1434,#291);
#211=LINE('',#1437,#292);
#212=LINE('',#1441,#293);
#213=LINE('',#1448,#294);
#214=LINE('',#1449,#295);
#215=LINE('',#1454,#296);
#216=LINE('',#1455,#297);
#217=LINE('',#1460,#298);
#218=LINE('',#1462,#299);
#219=LINE('',#1464,#300);
#220=LINE('',#1469,#301);
#221=LINE('',#1472,#302);
#222=LINE('',#1477,#303);
#223=LINE('',#1482,#304);
#224=LINE('',#1484,#305);
#225=LINE('',#1486,#306);
#226=LINE('',#1489,#307);
#227=LINE('',#1493,#308);
#228=LINE('',#1496,#309);
#229=LINE('',#1500,#310);
#230=LINE('',#1502,#311);
#231=LINE('',#1503,#312);
#232=LINE('',#1506,#313);
#233=LINE('',#1508,#314);
#234=LINE('',#1509,#315);
#235=LINE('',#1511,#316);
#236=LINE('',#1513,#317);
#237=VECTOR('',#1000,10.);
#238=VECTOR('',#1003,10.);
#239=VECTOR('',#1008,10.);
#240=VECTOR('',#1009,10.);
#241=VECTOR('',#1010,10.);
#242=VECTOR('',#1015,10.);
#243=VECTOR('',#1016,10.);
#244=VECTOR('',#1017,10.);
#245=VECTOR('',#1018,10.);
#246=VECTOR('',#1019,10.);
#247=VECTOR('',#1020,10.);
#248=VECTOR('',#1021,10.);
#249=VECTOR('',#1024,10.);
#250=VECTOR('',#1025,10.);
#251=VECTOR('',#1026,10.);
#252=VECTOR('',#1027,10.);
#253=VECTOR('',#1032,10.);
#254=VECTOR('',#1035,10.);
#255=VECTOR('',#1036,10.);
#256=VECTOR('',#1037,10.);
#257=VECTOR('',#1042,10.);
#258=VECTOR('',#1043,10.);
#259=VECTOR('',#1044,10.);
#260=VECTOR('',#1047,10.);
#261=VECTOR('',#1048,10.);
#262=VECTOR('',#1053,10.);
#263=VECTOR('',#1054,10.);
#264=VECTOR('',#1057,10.);
#265=VECTOR('',#1064,10.);
#266=VECTOR('',#1067,10.);
#267=VECTOR('',#1074,12.);
#268=VECTOR('',#1075,12.);
#269=VECTOR('',#1078,10.);
#270=VECTOR('',#1081,10.);
#271=VECTOR('',#1084,10.);
#272=VECTOR('',#1087,10.);
#273=VECTOR('',#1098,10.);
#274=VECTOR('',#1103,10.);
#275=VECTOR('',#1110,10.);
#276=VECTOR('',#1113,10.);
#277=VECTOR('',#1118,10.);
#278=VECTOR('',#1121,10.);
#279=VECTOR('',#1122,10.);
#280=VECTOR('',#1123,10.);
#281=VECTOR('',#1128,10.);
#282=VECTOR('',#1129,10.);
#283=VECTOR('',#1130,10.);
#284=VECTOR('',#1131,10.);
#285=VECTOR('',#1138,10.);
#286=VECTOR('',#1139,10.);
#287=VECTOR('',#1142,10.);
#288=VECTOR('',#1147,10.);
#289=VECTOR('',#1150,10.);
#290=VECTOR('',#1153,10.);
#291=VECTOR('',#1158,10.);
#292=VECTOR('',#1161,10.);
#293=VECTOR('',#1166,10.);
#294=VECTOR('',#1173,10.);
#295=VECTOR('',#1174,10.);
#296=VECTOR('',#1179,10.);
#297=VECTOR('',#1180,10.);
#298=VECTOR('',#1187,10.);
#299=VECTOR('',#1190,10.);
#300=VECTOR('',#1193,10.);
#301=VECTOR('',#1200,3.70000000000053);
#302=VECTOR('',#1203,3.50000000000054);
#303=VECTOR('',#1212,1.59999999999997);
#304=VECTOR('',#1219,1.50000000000003);
#305=VECTOR('',#1222,10.);
#306=VECTOR('',#1225,10.);
#307=VECTOR('',#1230,1.90000000000005);
#308=VECTOR('',#1235,1.49999999999994);
#309=VECTOR('',#1238,1.50000000000006);
#310=VECTOR('',#1243,10.);
#311=VECTOR('',#1244,10.);
#312=VECTOR('',#1245,10.);
#313=VECTOR('',#1248,10.);
#314=VECTOR('',#1249,10.);
#315=VECTOR('',#1250,10.);
#316=VECTOR('',#1253,10.);
#317=VECTOR('',#1256,10.);
#318=CIRCLE('',#904,1.5);
#319=CIRCLE('',#905,1.5);
#320=CIRCLE('',#907,1.5);
#321=CIRCLE('',#908,1.5);
#322=CIRCLE('',#909,1.5);
#323=CIRCLE('',#910,1.90000000000005);
#324=CIRCLE('',#912,1.5);
#325=CIRCLE('',#914,1.5);
#326=CIRCLE('',#915,1.5);
#327=CIRCLE('',#918,1.59999999999993);
#328=CIRCLE('',#919,2.);
#329=CIRCLE('',#920,12.);
#330=CIRCLE('',#921,2.);
#331=CIRCLE('',#924,1.50000000000003);
#332=CIRCLE('',#926,12.);
#333=CIRCLE('',#928,2.);
#334=CIRCLE('',#929,2.);
#335=CIRCLE('',#930,3.);
#336=CIRCLE('',#931,3.);
#337=CIRCLE('',#932,2.);
#338=CIRCLE('',#933,1.59999999999997);
#339=CIRCLE('',#934,1.50000000000003);
#340=CIRCLE('',#938,1.49999999999994);
#341=CIRCLE('',#940,2.);
#342=CIRCLE('',#941,2.);
#343=CIRCLE('',#943,2.00000000000017);
#344=CIRCLE('',#944,1.99999999999989);
#345=CIRCLE('',#945,1.6);
#346=CIRCLE('',#949,1.59999999999997);
#347=CIRCLE('',#952,2.);
#348=CIRCLE('',#954,2.);
#349=CIRCLE('',#955,2.);
#350=CIRCLE('',#956,3.);
#351=CIRCLE('',#957,3.);
#352=CIRCLE('',#958,1.59999999999997);
#353=CIRCLE('',#960,4.20000000000053);
#354=CIRCLE('',#962,1.59999999999997);
#355=CIRCLE('',#964,1.59999999999997);
#356=CIRCLE('',#966,1.90000000000005);
#357=CIRCLE('',#972,3.20000000000054);
#358=CIRCLE('',#974,3.20000000000054);
#359=CIRCLE('',#979,1.4);
#360=CIRCLE('',#986,1.49999999999994);
#361=CIRCLE('',#988,1.4);
#362=VERTEX_POINT('',#1261);
#363=VERTEX_POINT('',#1262);
#364=VERTEX_POINT('',#1264);
#365=VERTEX_POINT('',#1266);
#366=VERTEX_POINT('',#1270);
#367=VERTEX_POINT('',#1272);
#368=VERTEX_POINT('',#1274);
#369=VERTEX_POINT('',#1276);
#370=VERTEX_POINT('',#1278);
#371=VERTEX_POINT('',#1280);
#372=VERTEX_POINT('',#1282);
#373=VERTEX_POINT('',#1284);
#374=VERTEX_POINT('',#1286);
#375=VERTEX_POINT('',#1288);
#376=VERTEX_POINT('',#1290);
#377=VERTEX_POINT('',#1292);
#378=VERTEX_POINT('',#1295);
#379=VERTEX_POINT('',#1297);
#380=VERTEX_POINT('',#1298);
#381=VERTEX_POINT('',#1300);
#382=VERTEX_POINT('',#1302);
#383=VERTEX_POINT('',#1306);
#384=VERTEX_POINT('',#1310);
#385=VERTEX_POINT('',#1312);
#386=VERTEX_POINT('',#1314);
#387=VERTEX_POINT('',#1316);
#388=VERTEX_POINT('',#1318);
#389=VERTEX_POINT('',#1320);
#390=VERTEX_POINT('',#1322);
#391=VERTEX_POINT('',#1329);
#392=VERTEX_POINT('',#1331);
#393=VERTEX_POINT('',#1333);
#394=VERTEX_POINT('',#1335);
#395=VERTEX_POINT('',#1337);
#396=VERTEX_POINT('',#1339);
#397=VERTEX_POINT('',#1346);
#398=VERTEX_POINT('',#1349);
#399=VERTEX_POINT('',#1350);
#400=VERTEX_POINT('',#1355);
#401=VERTEX_POINT('',#1357);
#402=VERTEX_POINT('',#1359);
#403=VERTEX_POINT('',#1361);
#404=VERTEX_POINT('',#1363);
#405=VERTEX_POINT('',#1365);
#406=VERTEX_POINT('',#1367);
#407=VERTEX_POINT('',#1371);
#408=VERTEX_POINT('',#1373);
#409=VERTEX_POINT('',#1380);
#410=VERTEX_POINT('',#1383);
#411=VERTEX_POINT('',#1384);
#412=VERTEX_POINT('',#1386);
#413=VERTEX_POINT('',#1388);
#414=VERTEX_POINT('',#1392);
#415=VERTEX_POINT('',#1394);
#416=VERTEX_POINT('',#1396);
#417=VERTEX_POINT('',#1399);
#418=VERTEX_POINT('',#1401);
#419=VERTEX_POINT('',#1405);
#420=VERTEX_POINT('',#1412);
#421=VERTEX_POINT('',#1413);
#422=VERTEX_POINT('',#1420);
#423=VERTEX_POINT('',#1424);
#424=VERTEX_POINT('',#1426);
#425=VERTEX_POINT('',#1428);
#426=VERTEX_POINT('',#1431);
#427=VERTEX_POINT('',#1433);
#428=VERTEX_POINT('',#1435);
#429=VERTEX_POINT('',#1438);
#430=VERTEX_POINT('',#1442);
#431=VERTEX_POINT('',#1445);
#432=VERTEX_POINT('',#1446);
#433=VERTEX_POINT('',#1451);
#434=VERTEX_POINT('',#1452);
#435=VERTEX_POINT('',#1457);
#436=VERTEX_POINT('',#1467);
#437=VERTEX_POINT('',#1471);
#438=VERTEX_POINT('',#1479);
#439=VERTEX_POINT('',#1491);
#440=VERTEX_POINT('',#1495);
#441=VERTEX_POINT('',#1499);
#442=VERTEX_POINT('',#1501);
#443=VERTEX_POINT('',#1505);
#444=VERTEX_POINT('',#1507);
#445=EDGE_CURVE('',#362,#363,#318,.T.);
#446=EDGE_CURVE('',#363,#364,#156,.T.);
#447=EDGE_CURVE('',#364,#365,#319,.F.);
#448=EDGE_CURVE('',#365,#362,#157,.T.);
#449=EDGE_CURVE('',#366,#362,#320,.T.);
#450=EDGE_CURVE('',#367,#366,#158,.T.);
#451=EDGE_CURVE('',#368,#367,#159,.T.);
#452=EDGE_CURVE('',#369,#368,#160,.T.);
#453=EDGE_CURVE('',#370,#369,#321,.T.);
#454=EDGE_CURVE('',#371,#370,#322,.T.);
#455=EDGE_CURVE('',#372,#371,#161,.T.);
#456=EDGE_CURVE('',#373,#372,#162,.T.);
#457=EDGE_CURVE('',#374,#373,#163,.F.);
#458=EDGE_CURVE('',#375,#374,#164,.T.);
#459=EDGE_CURVE('',#376,#375,#165,.T.);
#460=EDGE_CURVE('',#376,#377,#166,.T.);
#461=EDGE_CURVE('',#377,#363,#167,.T.);
#462=EDGE_CURVE('',#378,#378,#323,.T.);
#463=EDGE_CURVE('',#379,#380,#168,.T.);
#464=EDGE_CURVE('',#380,#381,#169,.T.);
#465=EDGE_CURVE('',#382,#381,#170,.T.);
#466=EDGE_CURVE('',#382,#379,#171,.T.);
#467=EDGE_CURVE('',#383,#365,#324,.T.);
#468=EDGE_CURVE('',#383,#366,#172,.T.);
#469=EDGE_CURVE('',#364,#384,#173,.T.);
#470=EDGE_CURVE('',#384,#385,#174,.T.);
#471=EDGE_CURVE('',#385,#386,#175,.T.);
#472=EDGE_CURVE('',#387,#386,#325,.F.);
#473=EDGE_CURVE('',#387,#388,#326,.T.);
#474=EDGE_CURVE('',#388,#389,#176,.T.);
#475=EDGE_CURVE('',#390,#389,#177,.T.);
#476=EDGE_CURVE('',#390,#383,#178,.T.);
#477=EDGE_CURVE('',#370,#387,#179,.T.);
#478=EDGE_CURVE('',#386,#371,#180,.T.);
#479=EDGE_CURVE('',#385,#391,#327,.T.);
#480=EDGE_CURVE('',#392,#391,#181,.T.);
#481=EDGE_CURVE('',#392,#393,#182,.T.);
#482=EDGE_CURVE('',#394,#393,#328,.T.);
#483=EDGE_CURVE('',#394,#395,#183,.T.);
#484=EDGE_CURVE('',#396,#395,#329,.T.);
#485=EDGE_CURVE('',#396,#372,#330,.T.);
#486=EDGE_CURVE('',#369,#388,#184,.T.);
#487=EDGE_CURVE('',#389,#368,#185,.T.);
#488=EDGE_CURVE('',#397,#397,#331,.T.);
#489=EDGE_CURVE('',#398,#399,#332,.T.);
#490=EDGE_CURVE('',#399,#396,#186,.T.);
#491=EDGE_CURVE('',#395,#398,#187,.T.);
#492=EDGE_CURVE('',#400,#398,#188,.T.);
#493=EDGE_CURVE('',#401,#400,#333,.T.);
#494=EDGE_CURVE('',#402,#401,#189,.T.);
#495=EDGE_CURVE('',#403,#402,#334,.T.);
#496=EDGE_CURVE('',#403,#404,#190,.T.);
#497=EDGE_CURVE('',#405,#404,#335,.T.);
#498=EDGE_CURVE('',#405,#406,#191,.F.);
#499=EDGE_CURVE('',#374,#406,#336,.T.);
#500=EDGE_CURVE('',#399,#373,#337,.T.);
#501=EDGE_CURVE('',#407,#407,#338,.T.);
#502=EDGE_CURVE('',#408,#408,#339,.T.);
#503=EDGE_CURVE('',#400,#394,#192,.T.);
#504=EDGE_CURVE('',#367,#390,#193,.T.);
#505=EDGE_CURVE('',#409,#409,#340,.T.);
#506=EDGE_CURVE('',#410,#411,#341,.T.);
#507=EDGE_CURVE('',#411,#412,#194,.T.);
#508=EDGE_CURVE('',#412,#413,#342,.T.);
#509=EDGE_CURVE('',#413,#410,#195,.T.);
#510=EDGE_CURVE('',#377,#414,#343,.T.);
#511=EDGE_CURVE('',#414,#415,#196,.T.);
#512=EDGE_CURVE('',#415,#416,#344,.T.);
#513=EDGE_CURVE('',#416,#413,#197,.T.);
#514=EDGE_CURVE('',#412,#417,#198,.T.);
#515=EDGE_CURVE('',#418,#417,#199,.T.);
#516=EDGE_CURVE('',#418,#384,#345,.T.);
#517=EDGE_CURVE('',#411,#419,#200,.T.);
#518=EDGE_CURVE('',#402,#419,#201,.T.);
#519=EDGE_CURVE('',#393,#401,#202,.T.);
#520=EDGE_CURVE('',#392,#417,#203,.T.);
#521=EDGE_CURVE('',#420,#421,#346,.T.);
#522=EDGE_CURVE('',#421,#384,#204,.T.);
#523=EDGE_CURVE('',#418,#420,#205,.T.);
#524=EDGE_CURVE('',#391,#418,#206,.T.);
#525=EDGE_CURVE('',#419,#422,#347,.T.);
#526=EDGE_CURVE('',#422,#403,#207,.T.);
#527=EDGE_CURVE('',#410,#423,#208,.T.);
#528=EDGE_CURVE('',#423,#424,#348,.T.);
#529=EDGE_CURVE('',#424,#425,#209,.T.);
#530=EDGE_CURVE('',#425,#376,#349,.T.);
#531=EDGE_CURVE('',#426,#375,#350,.T.);
#532=EDGE_CURVE('',#426,#427,#210,.F.);
#533=EDGE_CURVE('',#428,#427,#351,.T.);
#534=EDGE_CURVE('',#428,#422,#211,.T.);
#535=EDGE_CURVE('',#429,#429,#352,.T.);
#536=EDGE_CURVE('',#404,#428,#212,.T.);
#537=EDGE_CURVE('',#430,#430,#353,.T.);
#538=EDGE_CURVE('',#431,#432,#354,.T.);
#539=EDGE_CURVE('',#432,#391,#213,.T.);
#540=EDGE_CURVE('',#385,#431,#214,.T.);
#541=EDGE_CURVE('',#433,#434,#355,.T.);
#542=EDGE_CURVE('',#434,#421,#215,.T.);
#543=EDGE_CURVE('',#420,#433,#216,.T.);
#544=EDGE_CURVE('',#435,#435,#356,.T.);
#545=EDGE_CURVE('',#416,#423,#217,.T.);
#546=EDGE_CURVE('',#415,#424,#218,.T.);
#547=EDGE_CURVE('',#414,#425,#219,.T.);
#548=EDGE_CURVE('',#436,#436,#357,.T.);
#549=EDGE_CURVE('',#436,#430,#220,.T.);
#550=EDGE_CURVE('',#436,#437,#221,.T.);
#551=EDGE_CURVE('',#437,#437,#358,.F.);
#552=EDGE_CURVE('',#407,#429,#222,.T.);
#553=EDGE_CURVE('',#438,#438,#359,.T.);
#554=EDGE_CURVE('',#408,#397,#223,.T.);
#555=EDGE_CURVE('',#427,#405,#224,.T.);
#556=EDGE_CURVE('',#406,#426,#225,.T.);
#557=EDGE_CURVE('',#435,#378,#226,.T.);
#558=EDGE_CURVE('',#439,#439,#360,.T.);
#559=EDGE_CURVE('',#439,#409,#227,.T.);
#560=EDGE_CURVE('',#438,#440,#228,.T.);
#561=EDGE_CURVE('',#440,#440,#361,.F.);
#562=EDGE_CURVE('',#441,#382,#229,.T.);
#563=EDGE_CURVE('',#442,#441,#230,.T.);
#564=EDGE_CURVE('',#379,#442,#231,.T.);
#565=EDGE_CURVE('',#443,#380,#232,.T.);
#566=EDGE_CURVE('',#444,#443,#233,.T.);
#567=EDGE_CURVE('',#381,#444,#234,.T.);
#568=EDGE_CURVE('',#443,#442,#235,.T.);
#569=EDGE_CURVE('',#441,#444,#236,.T.);
#570=ORIENTED_EDGE('',*,*,#445,.T.);
#571=ORIENTED_EDGE('',*,*,#446,.T.);
#572=ORIENTED_EDGE('',*,*,#447,.T.);
#573=ORIENTED_EDGE('',*,*,#448,.T.);
#574=ORIENTED_EDGE('',*,*,#445,.F.);
#575=ORIENTED_EDGE('',*,*,#449,.F.);
#576=ORIENTED_EDGE('',*,*,#450,.F.);
#577=ORIENTED_EDGE('',*,*,#451,.F.);
#578=ORIENTED_EDGE('',*,*,#452,.F.);
#579=ORIENTED_EDGE('',*,*,#453,.F.);
#580=ORIENTED_EDGE('',*,*,#454,.F.);
#581=ORIENTED_EDGE('',*,*,#455,.F.);
#582=ORIENTED_EDGE('',*,*,#456,.F.);
#583=ORIENTED_EDGE('',*,*,#457,.F.);
#584=ORIENTED_EDGE('',*,*,#458,.F.);
#585=ORIENTED_EDGE('',*,*,#459,.F.);
#586=ORIENTED_EDGE('',*,*,#460,.T.);
#587=ORIENTED_EDGE('',*,*,#461,.T.);
#588=ORIENTED_EDGE('',*,*,#462,.T.);
#589=ORIENTED_EDGE('',*,*,#463,.T.);
#590=ORIENTED_EDGE('',*,*,#464,.T.);
#591=ORIENTED_EDGE('',*,*,#465,.F.);
#592=ORIENTED_EDGE('',*,*,#466,.T.);
#593=ORIENTED_EDGE('',*,*,#448,.F.);
#594=ORIENTED_EDGE('',*,*,#467,.F.);
#595=ORIENTED_EDGE('',*,*,#468,.T.);
#596=ORIENTED_EDGE('',*,*,#449,.T.);
#597=ORIENTED_EDGE('',*,*,#467,.T.);
#598=ORIENTED_EDGE('',*,*,#447,.F.);
#599=ORIENTED_EDGE('',*,*,#469,.T.);
#600=ORIENTED_EDGE('',*,*,#470,.T.);
#601=ORIENTED_EDGE('',*,*,#471,.T.);
#602=ORIENTED_EDGE('',*,*,#472,.F.);
#603=ORIENTED_EDGE('',*,*,#473,.T.);
#604=ORIENTED_EDGE('',*,*,#474,.T.);
#605=ORIENTED_EDGE('',*,*,#475,.F.);
#606=ORIENTED_EDGE('',*,*,#476,.T.);
#607=ORIENTED_EDGE('',*,*,#454,.T.);
#608=ORIENTED_EDGE('',*,*,#477,.T.);
#609=ORIENTED_EDGE('',*,*,#472,.T.);
#610=ORIENTED_EDGE('',*,*,#478,.T.);
#611=ORIENTED_EDGE('',*,*,#478,.F.);
#612=ORIENTED_EDGE('',*,*,#471,.F.);
#613=ORIENTED_EDGE('',*,*,#479,.T.);
#614=ORIENTED_EDGE('',*,*,#480,.F.);
#615=ORIENTED_EDGE('',*,*,#481,.T.);
#616=ORIENTED_EDGE('',*,*,#482,.F.);
#617=ORIENTED_EDGE('',*,*,#483,.T.);
#618=ORIENTED_EDGE('',*,*,#484,.F.);
#619=ORIENTED_EDGE('',*,*,#485,.T.);
#620=ORIENTED_EDGE('',*,*,#455,.T.);
#621=ORIENTED_EDGE('',*,*,#477,.F.);
#622=ORIENTED_EDGE('',*,*,#453,.T.);
#623=ORIENTED_EDGE('',*,*,#486,.T.);
#624=ORIENTED_EDGE('',*,*,#473,.F.);
#625=ORIENTED_EDGE('',*,*,#486,.F.);
#626=ORIENTED_EDGE('',*,*,#452,.T.);
#627=ORIENTED_EDGE('',*,*,#487,.F.);
#628=ORIENTED_EDGE('',*,*,#474,.F.);
#629=ORIENTED_EDGE('',*,*,#488,.T.);
#630=ORIENTED_EDGE('',*,*,#489,.T.);
#631=ORIENTED_EDGE('',*,*,#490,.T.);
#632=ORIENTED_EDGE('',*,*,#484,.T.);
#633=ORIENTED_EDGE('',*,*,#491,.T.);
#634=ORIENTED_EDGE('',*,*,#489,.F.);
#635=ORIENTED_EDGE('',*,*,#492,.F.);
#636=ORIENTED_EDGE('',*,*,#493,.F.);
#637=ORIENTED_EDGE('',*,*,#494,.F.);
#638=ORIENTED_EDGE('',*,*,#495,.F.);
#639=ORIENTED_EDGE('',*,*,#496,.T.);
#640=ORIENTED_EDGE('',*,*,#497,.F.);
#641=ORIENTED_EDGE('',*,*,#498,.T.);
#642=ORIENTED_EDGE('',*,*,#499,.F.);
#643=ORIENTED_EDGE('',*,*,#457,.T.);
#644=ORIENTED_EDGE('',*,*,#500,.F.);
#645=ORIENTED_EDGE('',*,*,#501,.T.);
#646=ORIENTED_EDGE('',*,*,#502,.F.);
#647=ORIENTED_EDGE('',*,*,#491,.F.);
#648=ORIENTED_EDGE('',*,*,#483,.F.);
#649=ORIENTED_EDGE('',*,*,#503,.F.);
#650=ORIENTED_EDGE('',*,*,#492,.T.);
#651=ORIENTED_EDGE('',*,*,#490,.F.);
#652=ORIENTED_EDGE('',*,*,#500,.T.);
#653=ORIENTED_EDGE('',*,*,#456,.T.);
#654=ORIENTED_EDGE('',*,*,#485,.F.);
#655=ORIENTED_EDGE('',*,*,#468,.F.);
#656=ORIENTED_EDGE('',*,*,#476,.F.);
#657=ORIENTED_EDGE('',*,*,#504,.F.);
#658=ORIENTED_EDGE('',*,*,#450,.T.);
#659=ORIENTED_EDGE('',*,*,#505,.T.);
#660=ORIENTED_EDGE('',*,*,#506,.T.);
#661=ORIENTED_EDGE('',*,*,#507,.T.);
#662=ORIENTED_EDGE('',*,*,#508,.T.);
#663=ORIENTED_EDGE('',*,*,#509,.T.);
#664=ORIENTED_EDGE('',*,*,#446,.F.);
#665=ORIENTED_EDGE('',*,*,#461,.F.);
#666=ORIENTED_EDGE('',*,*,#510,.T.);
#667=ORIENTED_EDGE('',*,*,#511,.T.);
#668=ORIENTED_EDGE('',*,*,#512,.T.);
#669=ORIENTED_EDGE('',*,*,#513,.T.);
#670=ORIENTED_EDGE('',*,*,#508,.F.);
#671=ORIENTED_EDGE('',*,*,#514,.T.);
#672=ORIENTED_EDGE('',*,*,#515,.F.);
#673=ORIENTED_EDGE('',*,*,#516,.T.);
#674=ORIENTED_EDGE('',*,*,#469,.F.);
#675=ORIENTED_EDGE('',*,*,#507,.F.);
#676=ORIENTED_EDGE('',*,*,#517,.T.);
#677=ORIENTED_EDGE('',*,*,#518,.F.);
#678=ORIENTED_EDGE('',*,*,#494,.T.);
#679=ORIENTED_EDGE('',*,*,#519,.F.);
#680=ORIENTED_EDGE('',*,*,#481,.F.);
#681=ORIENTED_EDGE('',*,*,#520,.T.);
#682=ORIENTED_EDGE('',*,*,#514,.F.);
#683=ORIENTED_EDGE('',*,*,#493,.T.);
#684=ORIENTED_EDGE('',*,*,#503,.T.);
#685=ORIENTED_EDGE('',*,*,#482,.T.);
#686=ORIENTED_EDGE('',*,*,#519,.T.);
#687=ORIENTED_EDGE('',*,*,#521,.T.);
#688=ORIENTED_EDGE('',*,*,#522,.T.);
#689=ORIENTED_EDGE('',*,*,#516,.F.);
#690=ORIENTED_EDGE('',*,*,#523,.T.);
#691=ORIENTED_EDGE('',*,*,#515,.T.);
#692=ORIENTED_EDGE('',*,*,#520,.F.);
#693=ORIENTED_EDGE('',*,*,#480,.T.);
#694=ORIENTED_EDGE('',*,*,#524,.T.);
#695=ORIENTED_EDGE('',*,*,#495,.T.);
#696=ORIENTED_EDGE('',*,*,#518,.T.);
#697=ORIENTED_EDGE('',*,*,#525,.T.);
#698=ORIENTED_EDGE('',*,*,#526,.T.);
#699=ORIENTED_EDGE('',*,*,#506,.F.);
#700=ORIENTED_EDGE('',*,*,#527,.T.);
#701=ORIENTED_EDGE('',*,*,#528,.T.);
#702=ORIENTED_EDGE('',*,*,#529,.T.);
#703=ORIENTED_EDGE('',*,*,#530,.T.);
#704=ORIENTED_EDGE('',*,*,#459,.T.);
#705=ORIENTED_EDGE('',*,*,#531,.F.);
#706=ORIENTED_EDGE('',*,*,#532,.T.);
#707=ORIENTED_EDGE('',*,*,#533,.F.);
#708=ORIENTED_EDGE('',*,*,#534,.T.);
#709=ORIENTED_EDGE('',*,*,#525,.F.);
#710=ORIENTED_EDGE('',*,*,#517,.F.);
#711=ORIENTED_EDGE('',*,*,#535,.F.);
#712=ORIENTED_EDGE('',*,*,#526,.F.);
#713=ORIENTED_EDGE('',*,*,#534,.F.);
#714=ORIENTED_EDGE('',*,*,#536,.F.);
#715=ORIENTED_EDGE('',*,*,#496,.F.);
#716=ORIENTED_EDGE('',*,*,#537,.F.);
#717=ORIENTED_EDGE('',*,*,#538,.T.);
#718=ORIENTED_EDGE('',*,*,#539,.T.);
#719=ORIENTED_EDGE('',*,*,#479,.F.);
#720=ORIENTED_EDGE('',*,*,#540,.T.);
#721=ORIENTED_EDGE('',*,*,#541,.T.);
#722=ORIENTED_EDGE('',*,*,#542,.T.);
#723=ORIENTED_EDGE('',*,*,#521,.F.);
#724=ORIENTED_EDGE('',*,*,#543,.T.);
#725=ORIENTED_EDGE('',*,*,#544,.F.);
#726=ORIENTED_EDGE('',*,*,#509,.F.);
#727=ORIENTED_EDGE('',*,*,#513,.F.);
#728=ORIENTED_EDGE('',*,*,#545,.T.);
#729=ORIENTED_EDGE('',*,*,#527,.F.);
#730=ORIENTED_EDGE('',*,*,#545,.F.);
#731=ORIENTED_EDGE('',*,*,#512,.F.);
#732=ORIENTED_EDGE('',*,*,#546,.T.);
#733=ORIENTED_EDGE('',*,*,#528,.F.);
#734=ORIENTED_EDGE('',*,*,#460,.F.);
#735=ORIENTED_EDGE('',*,*,#530,.F.);
#736=ORIENTED_EDGE('',*,*,#547,.F.);
#737=ORIENTED_EDGE('',*,*,#510,.F.);
#738=ORIENTED_EDGE('',*,*,#546,.F.);
#739=ORIENTED_EDGE('',*,*,#511,.F.);
#740=ORIENTED_EDGE('',*,*,#547,.T.);
#741=ORIENTED_EDGE('',*,*,#529,.F.);
#742=ORIENTED_EDGE('',*,*,#548,.T.);
#743=ORIENTED_EDGE('',*,*,#549,.T.);
#744=ORIENTED_EDGE('',*,*,#537,.T.);
#745=ORIENTED_EDGE('',*,*,#549,.F.);
#746=ORIENTED_EDGE('',*,*,#548,.F.);
#747=ORIENTED_EDGE('',*,*,#550,.T.);
#748=ORIENTED_EDGE('',*,*,#551,.T.);
#749=ORIENTED_EDGE('',*,*,#550,.F.);
#750=ORIENTED_EDGE('',*,*,#551,.F.);
#751=ORIENTED_EDGE('',*,*,#487,.T.);
#752=ORIENTED_EDGE('',*,*,#451,.T.);
#753=ORIENTED_EDGE('',*,*,#504,.T.);
#754=ORIENTED_EDGE('',*,*,#475,.T.);
#755=ORIENTED_EDGE('',*,*,#501,.F.);
#756=ORIENTED_EDGE('',*,*,#552,.T.);
#757=ORIENTED_EDGE('',*,*,#535,.T.);
#758=ORIENTED_EDGE('',*,*,#552,.F.);
#759=ORIENTED_EDGE('',*,*,#541,.F.);
#760=ORIENTED_EDGE('',*,*,#543,.F.);
#761=ORIENTED_EDGE('',*,*,#523,.F.);
#762=ORIENTED_EDGE('',*,*,#524,.F.);
#763=ORIENTED_EDGE('',*,*,#539,.F.);
#764=ORIENTED_EDGE('',*,*,#538,.F.);
#765=ORIENTED_EDGE('',*,*,#540,.F.);
#766=ORIENTED_EDGE('',*,*,#470,.F.);
#767=ORIENTED_EDGE('',*,*,#522,.F.);
#768=ORIENTED_EDGE('',*,*,#542,.F.);
#769=ORIENTED_EDGE('',*,*,#553,.F.);
#770=ORIENTED_EDGE('',*,*,#502,.T.);
#771=ORIENTED_EDGE('',*,*,#554,.T.);
#772=ORIENTED_EDGE('',*,*,#488,.F.);
#773=ORIENTED_EDGE('',*,*,#554,.F.);
#774=ORIENTED_EDGE('',*,*,#533,.T.);
#775=ORIENTED_EDGE('',*,*,#555,.T.);
#776=ORIENTED_EDGE('',*,*,#497,.T.);
#777=ORIENTED_EDGE('',*,*,#536,.T.);
#778=ORIENTED_EDGE('',*,*,#555,.F.);
#779=ORIENTED_EDGE('',*,*,#532,.F.);
#780=ORIENTED_EDGE('',*,*,#556,.F.);
#781=ORIENTED_EDGE('',*,*,#498,.F.);
#782=ORIENTED_EDGE('',*,*,#499,.T.);
#783=ORIENTED_EDGE('',*,*,#556,.T.);
#784=ORIENTED_EDGE('',*,*,#531,.T.);
#785=ORIENTED_EDGE('',*,*,#458,.T.);
#786=ORIENTED_EDGE('',*,*,#544,.T.);
#787=ORIENTED_EDGE('',*,*,#557,.T.);
#788=ORIENTED_EDGE('',*,*,#462,.F.);
#789=ORIENTED_EDGE('',*,*,#557,.F.);
#790=ORIENTED_EDGE('',*,*,#558,.F.);
#791=ORIENTED_EDGE('',*,*,#559,.T.);
#792=ORIENTED_EDGE('',*,*,#505,.F.);
#793=ORIENTED_EDGE('',*,*,#559,.F.);
#794=ORIENTED_EDGE('',*,*,#553,.T.);
#795=ORIENTED_EDGE('',*,*,#560,.T.);
#796=ORIENTED_EDGE('',*,*,#561,.F.);
#797=ORIENTED_EDGE('',*,*,#560,.F.);
#798=ORIENTED_EDGE('',*,*,#466,.F.);
#799=ORIENTED_EDGE('',*,*,#562,.F.);
#800=ORIENTED_EDGE('',*,*,#563,.F.);
#801=ORIENTED_EDGE('',*,*,#564,.F.);
#802=ORIENTED_EDGE('',*,*,#464,.F.);
#803=ORIENTED_EDGE('',*,*,#565,.F.);
#804=ORIENTED_EDGE('',*,*,#566,.F.);
#805=ORIENTED_EDGE('',*,*,#567,.F.);
#806=ORIENTED_EDGE('',*,*,#463,.F.);
#807=ORIENTED_EDGE('',*,*,#564,.T.);
#808=ORIENTED_EDGE('',*,*,#568,.F.);
#809=ORIENTED_EDGE('',*,*,#565,.T.);
#810=ORIENTED_EDGE('',*,*,#561,.T.);
#811=ORIENTED_EDGE('',*,*,#465,.T.);
#812=ORIENTED_EDGE('',*,*,#567,.T.);
#813=ORIENTED_EDGE('',*,*,#569,.F.);
#814=ORIENTED_EDGE('',*,*,#562,.T.);
#815=ORIENTED_EDGE('',*,*,#558,.T.);
#816=ORIENTED_EDGE('',*,*,#569,.T.);
#817=ORIENTED_EDGE('',*,*,#566,.T.);
#818=ORIENTED_EDGE('',*,*,#568,.T.);
#819=ORIENTED_EDGE('',*,*,#563,.T.);
#820=CYLINDRICAL_SURFACE('',#903,1.5);
#821=CYLINDRICAL_SURFACE('',#911,1.5);
#822=CYLINDRICAL_SURFACE('',#916,1.5);
#823=CYLINDRICAL_SURFACE('',#922,1.5);
#824=CYLINDRICAL_SURFACE('',#925,12.);
#825=CYLINDRICAL_SURFACE('',#936,2.);
#826=CYLINDRICAL_SURFACE('',#939,2.);
#827=CYLINDRICAL_SURFACE('',#947,2.);
#828=CYLINDRICAL_SURFACE('',#948,1.6);
#829=CYLINDRICAL_SURFACE('',#951,2.);
#830=CYLINDRICAL_SURFACE('',#961,1.59999999999997);
#831=CYLINDRICAL_SURFACE('',#963,1.59999999999997);
#832=CYLINDRICAL_SURFACE('',#968,2.);
#833=CYLINDRICAL_SURFACE('',#969,2.);
#834=CYLINDRICAL_SURFACE('',#973,3.20000000000054);
#835=CYLINDRICAL_SURFACE('',#977,1.59999999999997);
#836=CYLINDRICAL_SURFACE('',#980,1.50000000000003);
#837=CYLINDRICAL_SURFACE('',#981,3.);
#838=CYLINDRICAL_SURFACE('',#983,3.);
#839=CYLINDRICAL_SURFACE('',#984,1.90000000000005);
#840=CYLINDRICAL_SURFACE('',#985,1.49999999999994);
#841=CYLINDRICAL_SURFACE('',#987,1.4);
#842=ADVANCED_FACE('',(#51),#820,.T.);
#843=ADVANCED_FACE('',(#52,#16,#17),#27,.F.);
#844=ADVANCED_FACE('',(#53),#821,.F.);
#845=ADVANCED_FACE('',(#54),#28,.F.);
#846=ADVANCED_FACE('',(#55),#822,.T.);
#847=ADVANCED_FACE('',(#56),#29,.T.);
#848=ADVANCED_FACE('',(#57),#823,.F.);
#849=ADVANCED_FACE('',(#58,#18),#30,.F.);
#850=ADVANCED_FACE('',(#59),#824,.T.);
#851=ADVANCED_FACE('',(#60,#19,#20),#31,.T.);
#852=ADVANCED_FACE('',(#61),#32,.T.);
#853=ADVANCED_FACE('',(#62),#825,.F.);
#854=ADVANCED_FACE('',(#63,#21),#33,.T.);
#855=ADVANCED_FACE('',(#64),#826,.T.);
#856=ADVANCED_FACE('',(#65),#34,.T.);
#857=ADVANCED_FACE('',(#66),#35,.T.);
#858=ADVANCED_FACE('',(#67),#827,.T.);
#859=ADVANCED_FACE('',(#68),#828,.F.);
#860=ADVANCED_FACE('',(#69),#36,.F.);
#861=ADVANCED_FACE('',(#70),#829,.T.);
#862=ADVANCED_FACE('',(#71,#22),#37,.T.);
#863=ADVANCED_FACE('',(#72,#23),#38,.F.);
#864=ADVANCED_FACE('',(#73),#830,.F.);
#865=ADVANCED_FACE('',(#74),#831,.F.);
#866=ADVANCED_FACE('',(#75),#39,.F.);
#867=ADVANCED_FACE('',(#76),#40,.T.);
#868=ADVANCED_FACE('',(#77),#832,.T.);
#869=ADVANCED_FACE('',(#78),#833,.F.);
#870=ADVANCED_FACE('',(#79),#41,.T.);
#871=ADVANCED_FACE('',(#80),#15,.F.);
#872=ADVANCED_FACE('',(#81),#834,.F.);
#873=ADVANCED_FACE('',(#82),#42,.F.);
#874=ADVANCED_FACE('',(#83),#43,.T.);
#875=ADVANCED_FACE('',(#84,#24),#835,.F.);
#876=ADVANCED_FACE('',(#85),#44,.F.);
#877=ADVANCED_FACE('',(#86),#836,.F.);
#878=ADVANCED_FACE('',(#87),#837,.T.);
#879=ADVANCED_FACE('',(#88),#45,.T.);
#880=ADVANCED_FACE('',(#89),#838,.T.);
#881=ADVANCED_FACE('',(#90),#839,.F.);
#882=ADVANCED_FACE('',(#91),#840,.F.);
#883=ADVANCED_FACE('',(#92),#841,.F.);
#884=ADVANCED_FACE('',(#93),#46,.F.);
#885=ADVANCED_FACE('',(#94),#47,.F.);
#886=ADVANCED_FACE('',(#95,#25),#48,.T.);
#887=ADVANCED_FACE('',(#96,#26),#49,.F.);
#888=ADVANCED_FACE('',(#97),#50,.F.);
#889=CLOSED_SHELL('',(#842,#843,#844,#845,#846,#847,#848,#849,#850,#851,
#852,#853,#854,#855,#856,#857,#858,#859,#860,#861,#862,#863,#864,#865,#866,
#867,#868,#869,#870,#871,#872,#873,#874,#875,#876,#877,#878,#879,#880,#881,
#882,#883,#884,#885,#886,#887,#888));
#890=DERIVED_UNIT_ELEMENT(#892,1.);
#891=DERIVED_UNIT_ELEMENT(#1520,-3.);
#892=(
MASS_UNIT()
NAMED_UNIT(*)
SI_UNIT(.KILO.,.GRAM.)
);
#893=DERIVED_UNIT((#890,#891));
#894=MEASURE_REPRESENTATION_ITEM('density measure',
POSITIVE_RATIO_MEASURE(7850.),#893);
#895=PROPERTY_DEFINITION_REPRESENTATION(#900,#897);
#896=PROPERTY_DEFINITION_REPRESENTATION(#901,#898);
#897=REPRESENTATION('material name',(#899),#1517);
#898=REPRESENTATION('density',(#894),#1517);
#899=DESCRIPTIVE_REPRESENTATION_ITEM('Steel','Steel');
#900=PROPERTY_DEFINITION('material property','material name',#1527);
#901=PROPERTY_DEFINITION('material property','density of part',#1527);
#902=AXIS2_PLACEMENT_3D('',#1259,#994,#995);
#903=AXIS2_PLACEMENT_3D('',#1260,#996,#997);
#904=AXIS2_PLACEMENT_3D('',#1263,#998,#999);
#905=AXIS2_PLACEMENT_3D('',#1267,#1001,#1002);
#906=AXIS2_PLACEMENT_3D('',#1269,#1004,#1005);
#907=AXIS2_PLACEMENT_3D('',#1271,#1006,#1007);
#908=AXIS2_PLACEMENT_3D('',#1279,#1011,#1012);
#909=AXIS2_PLACEMENT_3D('',#1281,#1013,#1014);
#910=AXIS2_PLACEMENT_3D('',#1296,#1022,#1023);
#911=AXIS2_PLACEMENT_3D('',#1305,#1028,#1029);
#912=AXIS2_PLACEMENT_3D('',#1307,#1030,#1031);
#913=AXIS2_PLACEMENT_3D('',#1309,#1033,#1034);
#914=AXIS2_PLACEMENT_3D('',#1317,#1038,#1039);
#915=AXIS2_PLACEMENT_3D('',#1319,#1040,#1041);
#916=AXIS2_PLACEMENT_3D('',#1325,#1045,#1046);
#917=AXIS2_PLACEMENT_3D('',#1328,#1049,#1050);
#918=AXIS2_PLACEMENT_3D('',#1330,#1051,#1052);
#919=AXIS2_PLACEMENT_3D('',#1336,#1055,#1056);
#920=AXIS2_PLACEMENT_3D('',#1340,#1058,#1059);
#921=AXIS2_PLACEMENT_3D('',#1341,#1060,#1061);
#922=AXIS2_PLACEMENT_3D('',#1342,#1062,#1063);
#923=AXIS2_PLACEMENT_3D('',#1344,#1065,#1066);
#924=AXIS2_PLACEMENT_3D('',#1347,#1068,#1069);
#925=AXIS2_PLACEMENT_3D('',#1348,#1070,#1071);
#926=AXIS2_PLACEMENT_3D('',#1351,#1072,#1073);
#927=AXIS2_PLACEMENT_3D('',#1354,#1076,#1077);
#928=AXIS2_PLACEMENT_3D('',#1358,#1079,#1080);
#929=AXIS2_PLACEMENT_3D('',#1362,#1082,#1083);
#930=AXIS2_PLACEMENT_3D('',#1366,#1085,#1086);
#931=AXIS2_PLACEMENT_3D('',#1369,#1088,#1089);
#932=AXIS2_PLACEMENT_3D('',#1370,#1090,#1091);
#933=AXIS2_PLACEMENT_3D('',#1372,#1092,#1093);
#934=AXIS2_PLACEMENT_3D('',#1374,#1094,#1095);
#935=AXIS2_PLACEMENT_3D('',#1375,#1096,#1097);
#936=AXIS2_PLACEMENT_3D('',#1377,#1099,#1100);
#937=AXIS2_PLACEMENT_3D('',#1378,#1101,#1102);
#938=AXIS2_PLACEMENT_3D('',#1381,#1104,#1105);
#939=AXIS2_PLACEMENT_3D('',#1382,#1106,#1107);
#940=AXIS2_PLACEMENT_3D('',#1385,#1108,#1109);
#941=AXIS2_PLACEMENT_3D('',#1389,#1111,#1112);
#942=AXIS2_PLACEMENT_3D('',#1391,#1114,#1115);
#943=AXIS2_PLACEMENT_3D('',#1393,#1116,#1117);
#944=AXIS2_PLACEMENT_3D('',#1397,#1119,#1120);
#945=AXIS2_PLACEMENT_3D('',#1403,#1124,#1125);
#946=AXIS2_PLACEMENT_3D('',#1404,#1126,#1127);
#947=AXIS2_PLACEMENT_3D('',#1410,#1132,#1133);
#948=AXIS2_PLACEMENT_3D('',#1411,#1134,#1135);
#949=AXIS2_PLACEMENT_3D('',#1414,#1136,#1137);
#950=AXIS2_PLACEMENT_3D('',#1417,#1140,#1141);
#951=AXIS2_PLACEMENT_3D('',#1419,#1143,#1144);
#952=AXIS2_PLACEMENT_3D('',#1421,#1145,#1146);
#953=AXIS2_PLACEMENT_3D('',#1423,#1148,#1149);
#954=AXIS2_PLACEMENT_3D('',#1427,#1151,#1152);
#955=AXIS2_PLACEMENT_3D('',#1430,#1154,#1155);
#956=AXIS2_PLACEMENT_3D('',#1432,#1156,#1157);
#957=AXIS2_PLACEMENT_3D('',#1436,#1159,#1160);
#958=AXIS2_PLACEMENT_3D('',#1439,#1162,#1163);
#959=AXIS2_PLACEMENT_3D('',#1440,#1164,#1165);
#960=AXIS2_PLACEMENT_3D('',#1443,#1167,#1168);
#961=AXIS2_PLACEMENT_3D('',#1444,#1169,#1170);
#962=AXIS2_PLACEMENT_3D('',#1447,#1171,#1172);
#963=AXIS2_PLACEMENT_3D('',#1450,#1175,#1176);
#964=AXIS2_PLACEMENT_3D('',#1453,#1177,#1178);
#965=AXIS2_PLACEMENT_3D('',#1456,#1181,#1182);
#966=AXIS2_PLACEMENT_3D('',#1458,#1183,#1184);
#967=AXIS2_PLACEMENT_3D('',#1459,#1185,#1186);
#968=AXIS2_PLACEMENT_3D('',#1461,#1188,#1189);
#969=AXIS2_PLACEMENT_3D('',#1463,#1191,#1192);
#970=AXIS2_PLACEMENT_3D('',#1465,#1194,#1195);
#971=AXIS2_PLACEMENT_3D('',#1466,#1196,#1197);
#972=AXIS2_PLACEMENT_3D('',#1468,#1198,#1199);
#973=AXIS2_PLACEMENT_3D('',#1470,#1201,#1202);
#974=AXIS2_PLACEMENT_3D('',#1473,#1204,#1205);
#975=AXIS2_PLACEMENT_3D('',#1474,#1206,#1207);
#976=AXIS2_PLACEMENT_3D('',#1475,#1208,#1209);
#977=AXIS2_PLACEMENT_3D('',#1476,#1210,#1211);
#978=AXIS2_PLACEMENT_3D('',#1478,#1213,#1214);
#979=AXIS2_PLACEMENT_3D('',#1480,#1215,#1216);
#980=AXIS2_PLACEMENT_3D('',#1481,#1217,#1218);
#981=AXIS2_PLACEMENT_3D('',#1483,#1220,#1221);
#982=AXIS2_PLACEMENT_3D('',#1485,#1223,#1224);
#983=AXIS2_PLACEMENT_3D('',#1487,#1226,#1227);
#984=AXIS2_PLACEMENT_3D('',#1488,#1228,#1229);
#985=AXIS2_PLACEMENT_3D('',#1490,#1231,#1232);
#986=AXIS2_PLACEMENT_3D('',#1492,#1233,#1234);
#987=AXIS2_PLACEMENT_3D('',#1494,#1236,#1237);
#988=AXIS2_PLACEMENT_3D('',#1497,#1239,#1240);
#989=AXIS2_PLACEMENT_3D('',#1498,#1241,#1242);
#990=AXIS2_PLACEMENT_3D('',#1504,#1246,#1247);
#991=AXIS2_PLACEMENT_3D('',#1510,#1251,#1252);
#992=AXIS2_PLACEMENT_3D('',#1512,#1254,#1255);
#993=AXIS2_PLACEMENT_3D('',#1514,#1257,#1258);
#994=DIRECTION('axis',(0.,0.,1.));
#995=DIRECTION('refdir',(1.,0.,0.));
#996=DIRECTION('center_axis',(-6.13132611855689E-14,0.,-1.));
#997=DIRECTION('ref_axis',(-0.866025403785722,-0.499999999997778,5.46976053014959E-14));
#998=DIRECTION('center_axis',(7.78169341898304E-14,1.88318497879226E-27,
-1.));
#999=DIRECTION('ref_axis',(-0.866025403785722,-0.499999999997778,5.46976053014959E-14));
#1000=DIRECTION('',(-5.55111516447976E-17,-3.32862926966615E-35,-1.));
#1001=DIRECTION('center_axis',(7.78169341898312E-14,2.83270139369203E-16,
-1.));
#1002=DIRECTION('ref_axis',(-0.866025403785722,-0.499999999997778,5.46976053014959E-14));
#1003=DIRECTION('',(6.13132611855689E-14,0.,1.));
#1004=DIRECTION('center_axis',(7.78169341898304E-14,1.88318497879226E-27,
-1.));
#1005=DIRECTION('ref_axis',(-1.,3.70585334036686E-14,-7.78169341898304E-14));
#1006=DIRECTION('center_axis',(-7.78169341898304E-14,-1.88318497879226E-27,
1.));
#1007=DIRECTION('ref_axis',(0.707106781186552,0.707106781186543,-6.69906115705082E-14));
#1008=DIRECTION('',(1.40851338958105E-14,1.,2.97924691621747E-27));
#1009=DIRECTION('',(1.,-1.33737755449986E-14,7.78169341898304E-14));
#1010=DIRECTION('',(-3.78653234506086E-29,-1.,1.14794370197489E-41));
#1011=DIRECTION('center_axis',(-7.78169341898304E-14,-1.88318497879226E-27,
1.));
#1012=DIRECTION('ref_axis',(-0.707106781186545,0.70710678118655,0.));
#1013=DIRECTION('center_axis',(7.78169341898304E-14,1.88318497879226E-27,
-1.));
#1014=DIRECTION('ref_axis',(0.866025403784247,-0.500000000000332,-5.4697605301589E-14));
#1015=DIRECTION('',(0.,-1.,0.));
#1016=DIRECTION('',(1.,-4.00796949932311E-14,7.78169341898304E-14));
#1017=DIRECTION('',(-9.24157264340542E-15,-1.,-2.60233582899467E-27));
#1018=DIRECTION('',(-1.,-2.57994536541749E-27,-7.78169341898304E-14));
#1019=DIRECTION('',(-3.7058533403663E-14,-1.,-7.10542735760148E-14));
#1020=DIRECTION('',(-1.,4.00796949932311E-14,-7.78169341898304E-14));
#1021=DIRECTION('',(0.,-1.,0.));
#1022=DIRECTION('center_axis',(7.78169341898304E-14,1.88318497879226E-27,
-1.));
#1023=DIRECTION('ref_axis',(-1.,3.71140445549018E-14,6.17539603344743E-14));
#1024=DIRECTION('',(-3.70585334036686E-14,-1.,-4.76696643383717E-27));
#1025=DIRECTION('',(-1.,3.70585334036686E-14,-7.78169341898304E-14));
#1026=DIRECTION('',(-9.36403732379235E-15,-1.,-2.61186565496892E-27));
#1027=DIRECTION('',(1.,-3.70585334036686E-14,7.78169341898304E-14));
#1028=DIRECTION('center_axis',(-6.13132611855689E-14,0.,-1.));
#1029=DIRECTION('ref_axis',(0.707106781186552,0.707106781186543,-6.69906115705082E-14));
#1030=DIRECTION('center_axis',(-7.78169341898312E-14,-2.83270139369203E-16,
1.));
#1031=DIRECTION('ref_axis',(0.707106781186552,0.707106781186543,-6.69906115705082E-14));
#1032=DIRECTION('',(6.13132611855689E-14,0.,1.));
#1033=DIRECTION('center_axis',(7.78169341898312E-14,2.83270139369203E-16,
-1.));
#1034=DIRECTION('ref_axis',(1.,-8.80009206512114E-15,7.78169341898312E-14));
#1035=DIRECTION('',(1.57246516629739E-32,1.,2.83270139369203E-16));
#1036=DIRECTION('',(-1.,-3.67688559337841E-10,-6.26949472729033E-14));
#1037=DIRECTION('',(-1.57246516629739E-32,-1.,-2.83270139369203E-16));
#1038=DIRECTION('center_axis',(7.78169341898312E-14,2.83270139369203E-16,
-1.));
#1039=DIRECTION('ref_axis',(0.866025403784247,-0.500000000000332,-5.4697605301589E-14));
#1040=DIRECTION('center_axis',(-7.78169341898312E-14,-2.83270139369203E-16,
1.));
#1041=DIRECTION('ref_axis',(-0.707106781186545,0.70710678118655,0.));
#1042=DIRECTION('',(-9.2415726438775E-15,-1.,-2.83270139369922E-16));
#1043=DIRECTION('',(-1.,1.33737755449994E-14,-7.78169341898312E-14));
#1044=DIRECTION('',(1.40851338958105E-14,1.,2.83270139370299E-16));
#1045=DIRECTION('center_axis',(6.13132611855687E-14,0.,1.));
#1046=DIRECTION('ref_axis',(0.866025403784247,-0.500000000000332,-5.4697605301589E-14));
#1047=DIRECTION('',(-6.13132611855687E-14,0.,-1.));
#1048=DIRECTION('',(5.55111516448229E-17,3.32862919234799E-35,1.));
#1049=DIRECTION('center_axis',(1.,-5.43380909436705E-22,-5.55111516448229E-17));
#1050=DIRECTION('ref_axis',(-5.55111516448229E-17,8.32666961989562E-17,
-1.));
#1051=DIRECTION('center_axis',(-1.,5.43380915747592E-22,5.55111516448481E-17));
#1052=DIRECTION('ref_axis',(1.09961119813228E-17,0.980186109855861,0.198078747082148));
#1053=DIRECTION('',(-5.43380909452429E-22,-1.,-2.83270139369203E-16));
#1054=DIRECTION('',(5.55111516448229E-17,-8.32666961989562E-17,1.));
#1055=DIRECTION('center_axis',(-1.,5.43380909436705E-22,5.55111516448229E-17));
#1056=DIRECTION('ref_axis',(2.82616642563078E-14,0.707106781186542,0.707106781186553));
#1057=DIRECTION('',(-5.43380909436705E-22,-1.,-8.32666961989562E-17));
#1058=DIRECTION('center_axis',(-1.,5.43380909436705E-22,5.55111516448229E-17));
#1059=DIRECTION('ref_axis',(0.,0.,-1.));
#1060=DIRECTION('center_axis',(-1.,5.43380915747592E-22,5.55111516448229E-17));
#1061=DIRECTION('ref_axis',(-5.55111516448228E-17,2.13246087424229E-13,
-1.));
#1062=DIRECTION('center_axis',(6.13132611855687E-14,0.,1.));
#1063=DIRECTION('ref_axis',(-0.707106781186545,0.70710678118655,0.));
#1064=DIRECTION('',(-6.13132611855687E-14,0.,-1.));
#1065=DIRECTION('center_axis',(-1.,9.24157264387749E-15,6.13132611855687E-14));
#1066=DIRECTION('ref_axis',(6.13132611855682E-14,-4.68395492316258E-14,
1.));
#1067=DIRECTION('',(3.68202440756642E-14,-0.70710678118654,0.707106781186555));
#1068=DIRECTION('center_axis',(-1.,9.24157264411762E-15,6.13687723367961E-14));
#1069=DIRECTION('ref_axis',(-6.13687723367962E-14,-1.33018596137874E-14,
-1.));
#1070=DIRECTION('center_axis',(1.,-1.05323330602953E-13,0.));
#1071=DIRECTION('ref_axis',(0.,0.,-1.));
#1072=DIRECTION('center_axis',(1.,-9.24157264340542E-15,-6.12022388831143E-14));
#1073=DIRECTION('ref_axis',(0.,0.,-1.));
#1074=DIRECTION('',(1.,-1.05323330602953E-13,0.));
#1075=DIRECTION('',(-1.,1.05323330602953E-13,0.));
#1076=DIRECTION('center_axis',(-1.,9.24157264340542E-15,6.12022388831143E-14));
#1077=DIRECTION('ref_axis',(6.12022388831139E-14,-4.67285269291544E-14,
1.));
#1078=DIRECTION('',(-4.00796949932311E-14,-1.,-2.7117093616992E-31));
#1079=DIRECTION('center_axis',(1.,-9.24157264340542E-15,-6.12022388831143E-14));
#1080=DIRECTION('ref_axis',(2.82616642563078E-14,0.707106781186542,0.707106781186553));
#1081=DIRECTION('',(6.12022388831143E-14,-5.59990457820977E-27,1.));
#1082=DIRECTION('center_axis',(1.,-9.24157264340542E-15,-6.12022388831143E-14));
#1083=DIRECTION('ref_axis',(-1.57009245868373E-14,0.707106781186559,-0.707106781186536));
#1084=DIRECTION('',(-9.24157264340828E-15,-1.,-4.67285269291538E-14));
#1085=DIRECTION('center_axis',(1.,-9.24157264340542E-15,-6.12022388831143E-14));
#1086=DIRECTION('ref_axis',(-4.34392246902524E-14,-0.707106781186534,-0.707106781186561));
#1087=DIRECTION('',(-6.12022388831146E-14,-3.31540350731866E-14,-1.));
#1088=DIRECTION('center_axis',(1.,-9.24157264340542E-15,-6.12022388831143E-14));
#1089=DIRECTION('ref_axis',(-5.44298719010378E-14,-0.707106781186551,0.707106781186544));
#1090=DIRECTION('center_axis',(-1.,9.24157264340542E-15,6.12022388831143E-14));
#1091=DIRECTION('ref_axis',(8.32149003102395E-14,0.707106781186542,-0.707106781186553));
#1092=DIRECTION('center_axis',(1.,-9.24157264340542E-15,-6.12022388831143E-14));
#1093=DIRECTION('ref_axis',(6.12022388830221E-14,-8.32667778729031E-17,
1.));
#1094=DIRECTION('center_axis',(-1.,9.24157264340542E-15,6.12022388831143E-14));
#1095=DIRECTION('ref_axis',(-6.87622002348485E-14,-1.33018596137873E-14,
-1.));
#1096=DIRECTION('center_axis',(0.,0.,1.));
#1097=DIRECTION('ref_axis',(1.,0.,0.));
#1098=DIRECTION('',(1.,-4.00796949932311E-14,0.));
#1099=DIRECTION('center_axis',(-1.,4.00796949932311E-14,-7.78169341898304E-14));
#1100=DIRECTION('ref_axis',(8.32149003102395E-14,0.707106781186542,-0.707106781186553));
#1101=DIRECTION('center_axis',(-1.,1.40851338958105E-14,6.13132611855689E-14));
#1102=DIRECTION('ref_axis',(-1.40851338958133E-14,-1.,-4.68395492316249E-14));
#1103=DIRECTION('',(-3.33953290693302E-14,0.70710678118654,-0.707106781186555));
#1104=DIRECTION('center_axis',(1.,-1.40851338960506E-14,-6.13687723367962E-14));
#1105=DIRECTION('ref_axis',(6.13687723367964E-14,1.33018596137874E-14,1.));
#1106=DIRECTION('center_axis',(1.,-4.00796949932311E-14,0.));
#1107=DIRECTION('ref_axis',(2.82616642563077E-14,0.707106781186543,0.707106781186552));
#1108=DIRECTION('center_axis',(-1.,1.40851338953384E-14,6.12022388831146E-14));
#1109=DIRECTION('ref_axis',(2.82616642563077E-14,0.707106781186543,0.707106781186552));
#1110=DIRECTION('',(-1.,4.00796949932311E-14,0.));
#1111=DIRECTION('center_axis',(1.,-5.43380922058479E-22,-5.55111516447976E-17));
#1112=DIRECTION('ref_axis',(2.82616642563077E-14,0.707106781186543,0.707106781186552));
#1113=DIRECTION('',(1.,-4.00796949932311E-14,0.));
#1114=DIRECTION('center_axis',(-1.,5.43380922058479E-22,5.55111516447976E-17));
#1115=DIRECTION('ref_axis',(5.55111516447976E-17,-8.32666961989562E-17,
1.));
#1116=DIRECTION('center_axis',(1.,-5.43380915747592E-22,-5.55111516448229E-17));
#1117=DIRECTION('ref_axis',(5.43380904703493E-22,1.,-1.46466172554309E-13));
#1118=DIRECTION('',(5.55111516448229E-17,-8.32666961989562E-17,1.));
#1119=DIRECTION('center_axis',(-1.,5.43380922058479E-22,5.55111516448229E-17));
#1120=DIRECTION('ref_axis',(-5.43380920480788E-22,-1.,-8.32666961989562E-17));
#1121=DIRECTION('',(5.43379842896761E-22,1.,-2.26685691519159E-13));
#1122=DIRECTION('',(-5.55111516448229E-17,-4.82549534950499E-13,-1.));
#1123=DIRECTION('',(5.43380922074204E-22,1.,2.83270139369203E-16));
#1124=DIRECTION('center_axis',(1.,-5.43380922058479E-22,-5.55111516448229E-17));
#1125=DIRECTION('ref_axis',(1.09950467524652E-17,-0.980186109855815,0.198078747082375));
#1126=DIRECTION('center_axis',(4.00796949932311E-14,1.,0.));
#1127=DIRECTION('ref_axis',(-1.,4.00796949932311E-14,-2.77679038637796E-28));
#1128=DIRECTION('',(-6.12577470311286E-14,5.60038506923034E-27,-1.));
#1129=DIRECTION('',(1.,-4.00796949932311E-14,-6.12022388831158E-14));
#1130=DIRECTION('',(-1.,4.00796949932311E-14,0.));
#1131=DIRECTION('',(1.,0.,7.78169341898312E-14));
#1132=DIRECTION('center_axis',(-1.,4.00796949932311E-14,0.));
#1133=DIRECTION('ref_axis',(2.82616642563078E-14,0.707106781186542,0.707106781186553));
#1134=DIRECTION('center_axis',(-1.,0.,0.));
#1135=DIRECTION('ref_axis',(0.,-0.980186109855815,0.198078747082375));
#1136=DIRECTION('center_axis',(1.,-1.40851338958105E-14,-6.13132611855689E-14));
#1137=DIRECTION('ref_axis',(6.13132611855879E-14,-8.32667778729026E-17,
1.));
#1138=DIRECTION('',(-1.,-3.67688559337841E-10,-6.26949472729033E-14));
#1139=DIRECTION('',(1.,-3.6767876325233E-10,6.26949472729033E-14));
#1140=DIRECTION('center_axis',(7.78169341898312E-14,2.83270139369203E-16,
-1.));
#1141=DIRECTION('ref_axis',(1.,-8.80009206512114E-15,7.78169341898312E-14));
#1142=DIRECTION('',(1.,-3.6767876325233E-10,6.26949472729033E-14));
#1143=DIRECTION('center_axis',(-1.,4.00796949932311E-14,6.12022388831158E-14));
#1144=DIRECTION('ref_axis',(-1.57009245868373E-14,0.707106781186559,-0.707106781186536));
#1145=DIRECTION('center_axis',(-1.,1.40851338953384E-14,6.12022388831146E-14));
#1146=DIRECTION('ref_axis',(-1.57009245868373E-14,0.707106781186559,-0.707106781186536));
#1147=DIRECTION('',(-1.,4.00796949932311E-14,6.12022388831158E-14));
#1148=DIRECTION('center_axis',(1.,-1.40851338953384E-14,-6.12022388831146E-14));
#1149=DIRECTION('ref_axis',(-1.40851338953413E-14,-1.,-4.67285269291535E-14));
#1150=DIRECTION('',(-4.00796949932311E-14,-1.,-2.7117093616992E-31));
#1151=DIRECTION('center_axis',(1.,-4.00796949932311E-14,0.));
#1152=DIRECTION('ref_axis',(-2.82616642563078E-14,-0.707106781186543,0.707106781186553));
#1153=DIRECTION('',(0.,0.,-1.));
#1154=DIRECTION('center_axis',(-1.,4.00796949932311E-14,0.));
#1155=DIRECTION('ref_axis',(8.32149003102395E-14,0.707106781186543,-0.707106781186553));
#1156=DIRECTION('center_axis',(-1.,1.40851338953384E-14,6.12022388831146E-14));
#1157=DIRECTION('ref_axis',(-5.44298719010378E-14,-0.707106781186551,0.707106781186544));
#1158=DIRECTION('',(6.1202238883115E-14,3.31540350731866E-14,1.));
#1159=DIRECTION('center_axis',(-1.,1.40851338953384E-14,6.12022388831146E-14));
#1160=DIRECTION('ref_axis',(-4.34392246902524E-14,-0.707106781186534,-0.707106781186561));
#1161=DIRECTION('',(1.40851338953413E-14,1.,4.67285269291535E-14));
#1162=DIRECTION('center_axis',(1.,-1.40851338953384E-14,-6.12022388831146E-14));
#1163=DIRECTION('ref_axis',(6.12022388830221E-14,-8.32667778729031E-17,
1.));
#1164=DIRECTION('center_axis',(6.12022388831139E-14,-4.67285269291544E-14,
1.));
#1165=DIRECTION('ref_axis',(1.40851338953413E-14,1.,4.67285269291535E-14));
#1166=DIRECTION('',(1.,-2.0291011744883E-27,-6.12022388831139E-14));
#1167=DIRECTION('center_axis',(-6.12022388831139E-14,4.67285269291544E-14,
-1.));
#1168=DIRECTION('ref_axis',(2.4017660508325E-25,1.,4.67285269291544E-14));
#1169=DIRECTION('center_axis',(1.,0.,0.));
#1170=DIRECTION('ref_axis',(0.,-8.32667778729026E-17,1.));
#1171=DIRECTION('center_axis',(-1.,9.24157264387749E-15,6.13132611855687E-14));
#1172=DIRECTION('ref_axis',(6.13132611855879E-14,-8.32667778729026E-17,
1.));
#1173=DIRECTION('',(1.,-3.6767876325233E-10,6.26949472729033E-14));
#1174=DIRECTION('',(-1.,-3.67688559337841E-10,-6.26949472729033E-14));
#1175=DIRECTION('center_axis',(-1.,1.11022302462516E-14,0.));
#1176=DIRECTION('ref_axis',(0.,-8.32667778722218E-17,1.));
#1177=DIRECTION('center_axis',(1.,-1.40851338958105E-14,-6.13132611855689E-14));
#1178=DIRECTION('ref_axis',(6.13132611855879E-14,-8.32667778729026E-17,
1.));
#1179=DIRECTION('',(-1.,-3.67688559337841E-10,-6.26949472729033E-14));
#1180=DIRECTION('',(1.,-3.6767876325233E-10,6.26949472729033E-14));
#1181=DIRECTION('center_axis',(-3.77303022705064E-21,-5.3769032085373E-30,
-1.));
#1182=DIRECTION('ref_axis',(-1.,4.00796954773889E-14,3.77303022705064E-21));
#1183=DIRECTION('center_axis',(-3.77303022705064E-21,-5.3769032085373E-30,
-1.));
#1184=DIRECTION('ref_axis',(-1.,3.71140445549018E-14,6.17539603344743E-14));
#1185=DIRECTION('center_axis',(0.,0.,1.));
#1186=DIRECTION('ref_axis',(1.,0.,0.));
#1187=DIRECTION('',(1.,-4.00873709613677E-14,0.));
#1188=DIRECTION('center_axis',(1.,-4.00796949932311E-14,0.));
#1189=DIRECTION('ref_axis',(-2.82616642563078E-14,-0.707106781186543,0.707106781186553));
#1190=DIRECTION('',(1.,-4.00873709613677E-14,0.));
#1191=DIRECTION('center_axis',(-1.,4.00796949932311E-14,-7.78169341898304E-14));
#1192=DIRECTION('ref_axis',(8.32149003102395E-14,0.707106781186543,-0.707106781186553));
#1193=DIRECTION('',(1.,-4.00873709613677E-14,0.));
#1194=DIRECTION('center_axis',(-4.00796949932311E-14,-1.,0.));
#1195=DIRECTION('ref_axis',(1.,-4.00796949932311E-14,2.77679038637796E-28));
#1196=DIRECTION('center_axis',(-6.21724893790079E-14,4.88498130835062E-14,
-1.));
#1197=DIRECTION('ref_axis',(2.40173980734028E-25,1.,4.66856469746037E-14));
#1198=DIRECTION('center_axis',(6.12022388831139E-14,-4.67285269291544E-14,
1.));
#1199=DIRECTION('ref_axis',(2.40170536275674E-25,1.,4.66293670342559E-14));
#1200=DIRECTION('',(-4.38759932376918E-14,-0.707106781186508,-0.707106781186587));
#1201=DIRECTION('center_axis',(6.10622663543827E-14,-4.66293670342559E-14,
1.));
#1202=DIRECTION('ref_axis',(2.40170536275674E-25,1.,4.66293670342559E-14));
#1203=DIRECTION('',(6.10622663543827E-14,-4.66293670342559E-14,1.));
#1204=DIRECTION('center_axis',(-6.12022388861465E-14,4.68129953275074E-14,
-1.));
#1205=DIRECTION('ref_axis',(2.40170536275674E-25,1.,4.66293670342559E-14));
#1206=DIRECTION('center_axis',(6.12022388861465E-14,-4.68129953275074E-14,
1.));
#1207=DIRECTION('ref_axis',(1.,-4.00796949932311E-14,-6.12022388861484E-14));
#1208=DIRECTION('center_axis',(-4.55681944788403E-14,0.707106781186555,
0.70710678118654));
#1209=DIRECTION('ref_axis',(1.,0.,6.44431586448315E-14));
#1210=DIRECTION('center_axis',(1.,4.81096644004235E-15,-1.8194015183326E-9));
#1211=DIRECTION('ref_axis',(1.8194015183326E-9,-8.32667691201179E-17,1.));
#1212=DIRECTION('',(1.,4.81096644004235E-15,-1.8194015183326E-9));
#1213=DIRECTION('center_axis',(1.,-1.40851338955785E-14,-6.12577500343419E-14));
#1214=DIRECTION('ref_axis',(-6.12577500343421E-14,-1.33018596137874E-14,
-1.));
#1215=DIRECTION('center_axis',(1.,-1.40851338955785E-14,-6.12577500343419E-14));
#1216=DIRECTION('ref_axis',(1.23855270770242E-28,1.33018596137896E-14,1.));
#1217=DIRECTION('center_axis',(-1.,9.31154794846905E-15,6.87622002348484E-14));
#1218=DIRECTION('ref_axis',(-6.87622002348485E-14,-1.33018596137873E-14,
-1.));
#1219=DIRECTION('',(1.,-9.31154794846905E-15,-6.87622002348484E-14));
#1220=DIRECTION('center_axis',(1.,-2.0291011744883E-27,-6.12022388831139E-14));
#1221=DIRECTION('ref_axis',(-4.34392246902524E-14,-0.707106781186534,-0.707106781186561));
#1222=DIRECTION('',(-1.,2.0291011744883E-27,6.12022388831139E-14));
#1223=DIRECTION('center_axis',(0.,-1.,3.31540350731866E-14));
#1224=DIRECTION('ref_axis',(-5.55111512271053E-17,-3.31540350731866E-14,
-1.));
#1225=DIRECTION('',(1.,2.57994536541749E-27,7.78169341898304E-14));
#1226=DIRECTION('center_axis',(-1.,-2.57994536541749E-27,-7.78169341898304E-14));
#1227=DIRECTION('ref_axis',(-5.44298719010378E-14,-0.707106781186551,0.707106781186544));
#1228=DIRECTION('center_axis',(6.17539603344725E-14,-4.80508490140027E-14,
1.));
#1229=DIRECTION('ref_axis',(-1.,3.71140445549018E-14,6.17539603344743E-14));
#1230=DIRECTION('',(6.17539603344725E-14,-4.80508490140027E-14,1.));
#1231=DIRECTION('center_axis',(1.,-1.40238697847388E-14,-7.47939721852737E-14));
#1232=DIRECTION('ref_axis',(7.47939721852739E-14,1.33018596137872E-14,1.));
#1233=DIRECTION('center_axis',(-1.,1.40851338960506E-14,6.13687723367963E-14));
#1234=DIRECTION('ref_axis',(6.13687723367965E-14,1.33018596137874E-14,1.));
#1235=DIRECTION('',(-1.,1.40238697847388E-14,7.47939721852737E-14));
#1236=DIRECTION('center_axis',(1.,-9.31154794846905E-15,0.));
#1237=DIRECTION('ref_axis',(1.23855270770242E-28,1.33018596137896E-14,1.));
#1238=DIRECTION('',(-1.,9.31154794846905E-15,0.));
#1239=DIRECTION('center_axis',(-1.,9.36403732402837E-15,1.11022302862891E-16));
#1240=DIRECTION('ref_axis',(9.86117218031701E-29,1.33018596137896E-14,1.));
#1241=DIRECTION('center_axis',(3.70585334036686E-14,1.,4.76696319073413E-27));
#1242=DIRECTION('ref_axis',(-1.,3.70585334036686E-14,-7.78169341898304E-14));
#1243=DIRECTION('',(1.11022302862891E-16,-5.55111511350147E-17,1.));
#1244=DIRECTION('',(-1.,7.88373995762562E-15,5.55111516356847E-17));
#1245=DIRECTION('',(-1.66533454090122E-16,1.66533453606421E-16,-1.));
#1246=DIRECTION('center_axis',(-3.70585334036686E-14,-1.,-4.76696319073413E-27));
#1247=DIRECTION('ref_axis',(1.,-3.70585334036686E-14,7.78169341898304E-14));
#1248=DIRECTION('',(1.66533454090122E-16,-1.66533453606421E-16,1.));
#1249=DIRECTION('',(1.,1.03109823134359E-14,6.70714946259247E-15));
#1250=DIRECTION('',(-1.11022302862891E-16,5.55111511350147E-17,-1.));
#1251=DIRECTION('center_axis',(-1.,9.36403732402837E-15,1.11022302862891E-16));
#1252=DIRECTION('ref_axis',(-1.11022302862891E-16,1.11022302370718E-16,
-1.));
#1253=DIRECTION('',(3.70585334036686E-14,1.,4.76696319073414E-27));
#1254=DIRECTION('center_axis',(-1.,9.36403732379235E-15,5.55111516356595E-17));
#1255=DIRECTION('ref_axis',(-5.55111516356595E-17,5.55111511350143E-17,
-1.));
#1256=DIRECTION('',(-3.70585334036686E-14,-1.,-4.76696319073414E-27));
#1257=DIRECTION('center_axis',(-4.08453244061715E-25,-1.00689203454968E-25,
-1.));
#1258=DIRECTION('ref_axis',(-9.36403732355631E-15,-1.,1.00689206698075E-25));
#1259=CARTESIAN_POINT('',(0.,0.,0.));
#1260=CARTESIAN_POINT('Origin',(15.036049647175,-2.63207259370123,451.787864865392));
#1261=CARTESIAN_POINT('',(14.2860496471688,-3.93111069937403,459.787864865401));
#1262=CARTESIAN_POINT('',(13.536049647175,-2.63207259370123,459.7878648654));
#1263=CARTESIAN_POINT('Origin',(15.0360496471755,-2.63207259370123,459.787864865401));
#1264=CARTESIAN_POINT('',(13.536049647175,-2.63207259370123,451.537864865391));
#1265=CARTESIAN_POINT('',(13.536049647175,-2.63207259370123,451.787864865392));
#1266=CARTESIAN_POINT('',(14.2860496471683,-3.93111069937403,451.537864865391));
#1267=CARTESIAN_POINT('Origin',(15.0360496471749,-2.63207259370123,451.537864865391));
#1268=CARTESIAN_POINT('',(14.2860496471683,-3.93111069937403,451.787864865392));
#1269=CARTESIAN_POINT('Origin',(19.3870496471619,-6.03060880015136,459.787864865401));
#1270=CARTESIAN_POINT('',(15.0360496471621,-5.23014880504686,459.7878648654));
#1271=CARTESIAN_POINT('Origin',(13.5360496471621,-5.23014880504684,459.787864865401));
#1272=CARTESIAN_POINT('',(15.036049647162,-18.7806088001456,459.7878648654));
#1273=CARTESIAN_POINT('',(15.0360496471622,2.46939119984977,459.7878648654));
#1274=CARTESIAN_POINT('',(8.83604964716204,-18.7806088001455,459.7878648654));
#1275=CARTESIAN_POINT('',(16.6370496471616,-18.7806088001464,459.787864865401));
#1276=CARTESIAN_POINT('',(8.8360496471623,-5.2301488050464,459.7878648654));
#1277=CARTESIAN_POINT('',(8.8360496471623,12.1693911949404,459.7878648654));
#1278=CARTESIAN_POINT('',(9.58604964716313,-3.93111069936918,459.787864865401));
#1279=CARTESIAN_POINT('Origin',(10.3360496471621,-5.23014880504641,459.787864865401));
#1280=CARTESIAN_POINT('',(10.336049647164,-2.63207259369195,459.7878648654));
#1281=CARTESIAN_POINT('Origin',(8.83604964716413,-2.63207259369195,459.787864865402));
#1282=CARTESIAN_POINT('',(10.336049647164,-1.26014880504684,459.7878648654));
#1283=CARTESIAN_POINT('',(10.336049647164,-1.73014880504641,459.7878648654));
#1284=CARTESIAN_POINT('',(6.03404964715922,-1.26014880505377,459.7878648654));
#1285=CARTESIAN_POINT('',(12.7105496471619,-1.26014880505404,459.7878648654));
#1286=CARTESIAN_POINT('',(6.03404964715888,-37.7301488001035,459.7878648654));
#1287=CARTESIAN_POINT('',(6.03404964715916,-7.53060880015532,459.7878648654));
#1288=CARTESIAN_POINT('',(26.0340496471629,-37.7301488001035,459.787864865392));
#1289=CARTESIAN_POINT('',(12.7105496471608,-37.7301488001035,459.7878648654));
#1290=CARTESIAN_POINT('',(26.034049647165,-1.73014880505479,459.787864865401));
#1291=CARTESIAN_POINT('',(26.0340496471629,-37.6906088001118,459.787864865392));
#1292=CARTESIAN_POINT('',(13.536049647175,-1.7301488050403,459.7878648654));
#1293=CARTESIAN_POINT('',(16.4870496471636,-1.7301488050403,459.787864865401));
#1294=CARTESIAN_POINT('',(13.536049647175,-1.7301488050403,459.7878648654));
#1295=CARTESIAN_POINT('',(17.8870496471527,-29.0402164370812,459.7878648654));
#1296=CARTESIAN_POINT('Origin',(15.9870496471526,-29.0402164370811,459.7878648654));
#1297=CARTESIAN_POINT('',(20.0870496471661,-6.18060880013715,459.787864865405));
#1298=CARTESIAN_POINT('',(20.0870496471661,-11.8806088001372,459.787864865405));
#1299=CARTESIAN_POINT('',(20.0870496471648,-6.15560880014623,459.787864865401));
#1300=CARTESIAN_POINT('',(17.4870496471647,-11.8806088001409,459.787864865403));
#1301=CARTESIAN_POINT('',(18.6370496471616,-11.8806088001374,459.787864865401));
#1302=CARTESIAN_POINT('',(17.4870496471647,-6.18060880014085,459.787864865403));
#1303=CARTESIAN_POINT('',(17.487049647162,-9.03685880015047,459.787864865401));
#1304=CARTESIAN_POINT('',(18.6370496471619,-6.18060880013732,459.787864865401));
#1305=CARTESIAN_POINT('Origin',(13.5360496471616,-5.23014880504684,451.787864865392));
#1306=CARTESIAN_POINT('',(15.0360496471616,-5.23014880504686,451.537864865392));
#1307=CARTESIAN_POINT('Origin',(13.5360496471616,-5.23014880504684,451.537864865391));
#1308=CARTESIAN_POINT('',(15.0360496471616,-5.23014880504686,451.787864865392));
#1309=CARTESIAN_POINT('Origin',(10.1870496471633,3.16939119494464,451.537864865391));
#1310=CARTESIAN_POINT('',(13.536049647175,4.90109342411444,451.537864865391));
#1311=CARTESIAN_POINT('',(13.536049647175,0.719621194952169,451.537864865391));
#1312=CARTESIAN_POINT('',(10.336049647164,4.90109342410832,451.537864865391));
#1313=CARTESIAN_POINT('',(11.8870496471631,4.90109342472635,451.537864865391));
#1314=CARTESIAN_POINT('',(10.336049647164,-2.63207259369195,451.537864865391));
#1315=CARTESIAN_POINT('',(10.336049647164,0.719621194949113,451.537864865391));
#1316=CARTESIAN_POINT('',(9.58604964716263,-3.93111069936918,451.537864865391));
#1317=CARTESIAN_POINT('Origin',(8.83604964716362,-2.63207259369195,451.537864865391));
#1318=CARTESIAN_POINT('',(8.83604964716163,-5.2301488050464,451.537864865391));
#1319=CARTESIAN_POINT('Origin',(10.3360496471616,-5.23014880504641,451.537864865391));
#1320=CARTESIAN_POINT('',(8.83604964716351,-10.5306088001367,451.537864865391));
#1321=CARTESIAN_POINT('',(8.83604964716165,-2.93060880260284,451.537864865391));
#1322=CARTESIAN_POINT('',(15.0360496471644,-10.5306088001368,451.537864865391));
#1323=CARTESIAN_POINT('',(13.4120496471628,-10.5306088001376,451.537864865391));
#1324=CARTESIAN_POINT('',(15.0360496471618,7.06939119739726,451.537864865392));
#1325=CARTESIAN_POINT('Origin',(8.83604964716404,-2.63207259369195,458.412864865396));
#1326=CARTESIAN_POINT('',(9.58604964716305,-3.93111069936918,458.412864865396));
#1327=CARTESIAN_POINT('',(10.336049647164,-2.63207259369195,458.412864865396));
#1328=CARTESIAN_POINT('Origin',(10.336049647164,5.50485119495278,458.162864865414));
#1329=CARTESIAN_POINT('',(10.336049647164,8.03768897564694,451.537864865391));
#1330=CARTESIAN_POINT('Origin',(10.336049647164,6.46939119987763,451.220938870059));
#1331=CARTESIAN_POINT('',(10.336049647164,12.2698511949457,451.537864865391));
#1332=CARTESIAN_POINT('',(10.336049647164,4.33712119494871,451.537864865391));
#1333=CARTESIAN_POINT('',(10.336049647164,12.2698511949457,462.787864865437));
#1334=CARTESIAN_POINT('',(10.336049647164,12.2698511949457,451.537864865391));
#1335=CARTESIAN_POINT('',(10.336049647164,10.2698511949458,464.787864865437));
#1336=CARTESIAN_POINT('Origin',(10.3360496471642,10.2698511949458,462.787864865437));
#1337=CARTESIAN_POINT('',(10.336049647164,9.46365648974062,464.787864865437));
#1338=CARTESIAN_POINT('',(10.336049647164,-1.26014880504641,464.787864865437));
#1339=CARTESIAN_POINT('',(10.336049647164,0.271823379921169,460.502150579688));
#1340=CARTESIAN_POINT('Origin',(10.3360496471645,9.46365648974062,452.787864865437));
#1341=CARTESIAN_POINT('Origin',(10.336049647164,-1.26014880504684,461.7878648654));
#1342=CARTESIAN_POINT('Origin',(10.3360496471621,-5.23014880504641,458.412864865396));
#1343=CARTESIAN_POINT('',(8.83604964716205,-5.2301488050464,458.412864865396));
#1344=CARTESIAN_POINT('Origin',(8.83604964716193,-9.03060880015033,457.037864865392));
#1345=CARTESIAN_POINT('',(8.83604964716181,-14.9681088001457,455.975364865399));
#1346=CARTESIAN_POINT('',(8.8360496471635,-9.03060880014522,458.437864865391));
#1347=CARTESIAN_POINT('Origin',(8.83604964716343,-9.03060880014522,456.937864865391));
#1348=CARTESIAN_POINT('Origin',(12.7105496471622,9.46365648974037,452.787864865437));
#1349=CARTESIAN_POINT('',(6.03404964716201,9.46365648974108,464.787864865437));
#1350=CARTESIAN_POINT('',(6.03404964715886,0.271823379917244,460.502150579691));
#1351=CARTESIAN_POINT('Origin',(6.03404964716093,9.46365648974108,452.787864865437));
#1352=CARTESIAN_POINT('',(12.7105496471613,0.271823379916566,460.502150579691));
#1353=CARTESIAN_POINT('',(12.7105496471622,9.46365648974037,464.787864865437));
#1354=CARTESIAN_POINT('Origin',(6.03404964715898,-9.03060880015941,457.037864865389));
#1355=CARTESIAN_POINT('',(6.03404964716204,10.269851194946,464.787864865437));
#1356=CARTESIAN_POINT('',(6.03404964716212,12.2698511949459,464.787864865437));
#1357=CARTESIAN_POINT('',(6.03404964715944,12.2698511949396,462.787864865437));
#1358=CARTESIAN_POINT('Origin',(6.03404964715975,10.269851194946,462.787864865437));
#1359=CARTESIAN_POINT('',(6.0340496471586,12.2698511949396,449.03786486539));
#1360=CARTESIAN_POINT('',(6.03404964715885,12.2698511949396,453.0378648664));
#1361=CARTESIAN_POINT('',(6.03404964715854,10.2698511949461,447.03786486539));
#1362=CARTESIAN_POINT('Origin',(6.03404964715926,10.269851194946,449.03786486539));
#1363=CARTESIAN_POINT('',(6.0340496471581,-37.7301488001036,447.037864865387));
#1364=CARTESIAN_POINT('',(6.03404964715832,-14.0306088001589,447.037864865389));
#1365=CARTESIAN_POINT('',(6.03404964715826,-40.7301488001037,450.037864865388));
#1366=CARTESIAN_POINT('Origin',(6.03404964715855,-37.7301488001037,450.037864865388));
#1367=CARTESIAN_POINT('',(6.03404964715867,-40.7301488001035,456.7878648654));
#1368=CARTESIAN_POINT('',(6.0340496471586,-40.7301488001035,455.652204365394));
#1369=CARTESIAN_POINT('Origin',(6.034049647159,-37.7301488001035,456.7878648654));
#1370=CARTESIAN_POINT('Origin',(6.03404964715892,-1.26014880505377,461.7878648654));
#1371=CARTESIAN_POINT('',(6.03404964715867,6.46939119987055,449.620938877616));
#1372=CARTESIAN_POINT('Origin',(6.03404964715877,6.46939119987055,451.220938877615));
#1373=CARTESIAN_POINT('',(6.03404964715908,-9.03060880014601,458.437864865392));
#1374=CARTESIAN_POINT('Origin',(6.03404964715898,-9.03060880014603,456.937864865392));
#1375=CARTESIAN_POINT('Origin',(8.11054964716277,6.26985119494577,464.787864865437));
#1376=CARTESIAN_POINT('',(12.8987996471642,10.2698511949457,464.787864865437));
#1377=CARTESIAN_POINT('Origin',(12.7105496471618,-1.26014880505404,461.7878648654));
#1378=CARTESIAN_POINT('Origin',(15.0360496471619,10.96939119985,452.037864865393));
#1379=CARTESIAN_POINT('',(15.0360496471615,-8.71810880014565,449.7253648654));
#1380=CARTESIAN_POINT('',(15.0360496471634,-9.03060880014564,455.437864865392));
#1381=CARTESIAN_POINT('Origin',(15.0360496471635,-9.0306088001455,456.937864865392));
#1382=CARTESIAN_POINT('Origin',(16.6370496471655,10.2698511949456,462.787864865437));
#1383=CARTESIAN_POINT('',(26.0340496471655,10.2698511949452,464.787864865437));
#1384=CARTESIAN_POINT('',(26.0340496471609,12.2698511949395,462.787864865437));
#1385=CARTESIAN_POINT('Origin',(26.0340496471595,10.2698511949452,462.787864865437));
#1386=CARTESIAN_POINT('',(13.536049647175,12.2698511949573,462.787864865437));
#1387=CARTESIAN_POINT('',(16.6370496471656,12.2698511949456,462.787864865437));
#1388=CARTESIAN_POINT('',(13.536049647175,10.2698511949457,464.787864865437));
#1389=CARTESIAN_POINT('Origin',(13.5360496471752,10.2698511949457,462.787864865437));
#1390=CARTESIAN_POINT('',(16.6370496471655,10.2698511949456,464.787864865437));
#1391=CARTESIAN_POINT('Origin',(13.536049647175,5.50485119495903,458.162864865414));
#1392=CARTESIAN_POINT('',(13.536049647175,0.269851194952793,461.7878648654));
#1393=CARTESIAN_POINT('Origin',(13.536049647175,-1.73014880504738,461.7878648654));
#1394=CARTESIAN_POINT('',(13.536049647175,0.269851194952793,462.787864865437));
#1395=CARTESIAN_POINT('',(13.536049647175,0.269851194952793,461.7878648654));
#1396=CARTESIAN_POINT('',(13.536049647175,2.26985119495311,464.787864865437));
#1397=CARTESIAN_POINT('Origin',(13.536049647175,2.26985119495268,462.787864865437));
#1398=CARTESIAN_POINT('',(13.536049647175,2.26985119495311,464.787864865437));
#1399=CARTESIAN_POINT('',(13.536049647175,12.2698511949518,451.537864865391));
#1400=CARTESIAN_POINT('',(13.536049647175,12.2698511949518,451.537864865391));
#1401=CARTESIAN_POINT('',(13.536049647175,8.03768897565291,451.537864865391));
#1402=CARTESIAN_POINT('',(13.536049647175,4.33712119495183,451.537864865391));
#1403=CARTESIAN_POINT('Origin',(13.536049647175,6.46939119988375,451.220938870059));
#1404=CARTESIAN_POINT('Origin',(17.6870496471656,12.2698511949456,459.787864865437));
#1405=CARTESIAN_POINT('',(26.0340496471601,12.2698511949395,449.037864865389));
#1406=CARTESIAN_POINT('',(26.0340496471606,12.2698511949395,456.53786486741));
#1407=CARTESIAN_POINT('',(11.8370496471623,12.2698511949458,449.037864865389));
#1408=CARTESIAN_POINT('',(12.8987996471643,12.2698511949457,462.787864865437));
#1409=CARTESIAN_POINT('',(8.18704964716164,12.2698511949395,451.537864865391));
#1410=CARTESIAN_POINT('Origin',(12.8987996471642,10.2698511949457,462.787864865437));
#1411=CARTESIAN_POINT('Origin',(15.036049647175,6.46939119988375,451.220938870059));
#1412=CARTESIAN_POINT('',(15.0360496471646,8.0376889743906,451.537864865391));
#1413=CARTESIAN_POINT('',(15.0360496471646,4.90109342535228,451.537864865391));
#1414=CARTESIAN_POINT('Origin',(15.0360496471618,6.46939119987144,451.220938863873));
#1415=CARTESIAN_POINT('',(11.8870496471631,4.90109342472635,451.537864865391));
#1416=CARTESIAN_POINT('',(11.8870496471631,8.0376889750148,451.537864865391));
#1417=CARTESIAN_POINT('Origin',(10.1870496471633,3.16939119494464,451.537864865391));
#1418=CARTESIAN_POINT('',(11.8870496471631,8.0376889750148,451.537864865391));
#1419=CARTESIAN_POINT('Origin',(11.8370496471622,10.2698511949458,449.037864865389));
#1420=CARTESIAN_POINT('',(26.0340496471587,10.2698511949453,447.037864865388));
#1421=CARTESIAN_POINT('Origin',(26.0340496471592,10.2698511949452,449.037864865389));
#1422=CARTESIAN_POINT('',(11.8370496471621,10.2698511949459,447.037864865389));
#1423=CARTESIAN_POINT('Origin',(26.0340496471589,-4.03060880015948,454.037864865388));
#1424=CARTESIAN_POINT('',(26.0340496471652,2.26985119494521,464.787864865437));
#1425=CARTESIAN_POINT('',(26.0340496471656,12.2698511949452,464.787864865437));
#1426=CARTESIAN_POINT('',(26.0340496471651,0.269851194945206,462.787864865437));
#1427=CARTESIAN_POINT('Origin',(26.0340496471652,2.26985119494521,462.787864865437));
#1428=CARTESIAN_POINT('',(26.0340496471651,0.269851194945206,461.787864865401));
#1429=CARTESIAN_POINT('',(26.0340496471651,0.269851194945206,459.787864865437));
#1430=CARTESIAN_POINT('Origin',(26.0340496471649,-1.73014880505479,461.787864865401));
#1431=CARTESIAN_POINT('',(26.0340496471586,-40.7301488001035,456.787864865402));
#1432=CARTESIAN_POINT('Origin',(26.0340496471587,-37.7301488001035,456.787864865402));
#1433=CARTESIAN_POINT('',(26.0340496471581,-40.7301488001037,450.037864865386));
#1434=CARTESIAN_POINT('',(26.0340496471584,-40.7301488001036,454.152204365393));
#1435=CARTESIAN_POINT('',(26.034049647158,-37.7301488001036,447.037864865386));
#1436=CARTESIAN_POINT('Origin',(26.0340496471587,-37.7301488001037,450.037864865386));
#1437=CARTESIAN_POINT('',(26.0340496471584,-11.5306088001592,447.037864865387));
#1438=CARTESIAN_POINT('',(26.0340496471588,6.46939119987064,449.620938841227));
#1439=CARTESIAN_POINT('Origin',(26.0340496471589,6.46939119987064,451.220938841228));
#1440=CARTESIAN_POINT('Origin',(5.98704964715828,-19.0306088001589,447.037864865388));
#1441=CARTESIAN_POINT('',(6.01054964715895,-37.7301488001036,447.037864865388));
#1442=CARTESIAN_POINT('',(15.9870496471533,-33.240216437077,447.037864865387));
#1443=CARTESIAN_POINT('Origin',(15.9870496471533,-29.0402164370764,447.037864865387));
#1444=CARTESIAN_POINT('Origin',(8.73604964716172,6.46939119987142,451.220938870059));
#1445=CARTESIAN_POINT('',(8.73604964716366,4.90109342410212,451.537864865391));
#1446=CARTESIAN_POINT('',(8.7360496471637,8.03768897564072,451.537864865391));
#1447=CARTESIAN_POINT('Origin',(8.73604964716172,6.46939119987142,451.220938870059));
#1448=CARTESIAN_POINT('',(11.8870496471631,8.0376889750148,451.537864865391));
#1449=CARTESIAN_POINT('',(11.8870496471631,4.90109342472635,451.537864865391));
#1450=CARTESIAN_POINT('Origin',(15.1360496471618,6.46939119987144,451.220938863873));
#1451=CARTESIAN_POINT('',(15.1360496471646,8.0376889743906,451.537864865391));
#1452=CARTESIAN_POINT('',(15.1360496471646,4.90109342535228,451.537864865391));
#1453=CARTESIAN_POINT('Origin',(15.1360496471618,6.46939119987144,451.220938863873));
#1454=CARTESIAN_POINT('',(11.8870496471631,4.90109342472635,451.537864865391));
#1455=CARTESIAN_POINT('',(11.8870496471631,8.0376889750148,451.537864865391));
#1456=CARTESIAN_POINT('Origin',(15.987049647154,-29.0402164370744,451.837864865404));
#1457=CARTESIAN_POINT('',(17.8870496471541,-29.0402164370744,451.837864865404));
#1458=CARTESIAN_POINT('Origin',(15.9870496471521,-29.0402164370808,451.837864865404));
#1459=CARTESIAN_POINT('Origin',(15.5870496471653,6.26985119494549,464.787864865437));
#1460=CARTESIAN_POINT('',(17.5870496471652,2.26985119494554,464.787864865437));
#1461=CARTESIAN_POINT('Origin',(14.5870496471652,2.26985119494567,462.787864865437));
#1462=CARTESIAN_POINT('',(17.5870496471651,0.269851194945545,462.787864865437));
#1463=CARTESIAN_POINT('Origin',(16.4870496471634,-1.73014880505441,461.787864865401));
#1464=CARTESIAN_POINT('',(17.5870496471651,0.269851194945545,461.787864865401));
#1465=CARTESIAN_POINT('Origin',(13.5870496471651,0.269851194945705,459.787864865437));
#1466=CARTESIAN_POINT('Origin',(15.9870496471534,-29.0402164370765,447.537864865387));
#1467=CARTESIAN_POINT('',(15.9870496471534,-32.240216437077,448.037864865387));
#1468=CARTESIAN_POINT('Origin',(15.9870496471534,-29.0402164370765,448.037864865387));
#1469=CARTESIAN_POINT('',(15.9870496471534,-32.740216437077,447.537864865387));
#1470=CARTESIAN_POINT('Origin',(15.9870496471535,-29.0402164370766,449.537864865387));
#1471=CARTESIAN_POINT('',(15.9870496471536,-32.2402164370772,451.537864865387));
#1472=CARTESIAN_POINT('',(15.9870496471535,-32.2402164370771,449.537864865387));
#1473=CARTESIAN_POINT('Origin',(15.9870496471536,-29.0402164370767,451.537864865387));
#1474=CARTESIAN_POINT('Origin',(15.9870496471555,-29.0402164370705,451.537864865387));
#1475=CARTESIAN_POINT('Origin',(16.6370496471617,-17.4056088001464,458.412864865401));
#1476=CARTESIAN_POINT('Origin',(2.33405039965042,6.46939119987053,451.220938884347));
#1477=CARTESIAN_POINT('',(2.33405039673938,6.46939119987053,449.620938884347));
#1478=CARTESIAN_POINT('Origin',(24.0340496471603,-9.03060880015485,457.037864865388));
#1479=CARTESIAN_POINT('',(24.0340496471603,-9.03060880015495,455.537864865388));
#1480=CARTESIAN_POINT('Origin',(24.0340496471603,-9.03060880015494,456.937864865388));
#1481=CARTESIAN_POINT('Origin',(10.1870496471631,-9.03060880014607,456.937864865391));
#1482=CARTESIAN_POINT('',(10.1870496471632,-9.03060880014605,458.437864865392));
#1483=CARTESIAN_POINT('Origin',(6.01054964715913,-37.7301488001037,450.037864865388));
#1484=CARTESIAN_POINT('',(6.01054964715913,-40.7301488001037,450.037864865388));
#1485=CARTESIAN_POINT('Origin',(6.03404964716006,-40.7301488001036,454.266543865397));
#1486=CARTESIAN_POINT('',(12.710549647161,-40.7301488001035,456.7878648654));
#1487=CARTESIAN_POINT('Origin',(12.710549647161,-37.7301488001035,456.7878648654));
#1488=CARTESIAN_POINT('Origin',(15.987049647152,-29.0402164370806,449.037864865387));
#1489=CARTESIAN_POINT('',(17.887049647152,-29.0402164370807,449.037864865387));
#1490=CARTESIAN_POINT('Origin',(13.5870496471632,-9.03060880014635,456.937864865392));
#1491=CARTESIAN_POINT('',(17.4870496471633,-9.03060880014624,455.437864865392));
#1492=CARTESIAN_POINT('Origin',(17.4870496471633,-9.0306088001461,456.937864865392));
#1493=CARTESIAN_POINT('',(13.5870496471631,-9.03060880014637,455.437864865392));
#1494=CARTESIAN_POINT('Origin',(18.0870496471663,-9.03060880015488,456.937864865388));
#1495=CARTESIAN_POINT('',(20.0870496471634,-9.03060880015462,455.537864865388));
#1496=CARTESIAN_POINT('',(18.0870496471663,-9.0306088001549,455.537864865388));
#1497=CARTESIAN_POINT('Origin',(20.0870496471634,-9.0306088001546,456.937864865388));
#1498=CARTESIAN_POINT('Origin',(17.8870496471619,-6.18060880013729,459.787864865392));
#1499=CARTESIAN_POINT('',(17.4870496471634,-6.18060880014511,453.987864865394));
#1500=CARTESIAN_POINT('',(17.4870496471633,-6.18060880014937,445.601043986133));
#1501=CARTESIAN_POINT('',(20.0870496471648,-6.18060880014127,453.987864865396));
#1502=CARTESIAN_POINT('',(17.8870496471619,-6.1806088001498,453.987864865392));
#1503=CARTESIAN_POINT('',(20.0870496471648,-6.18060880014127,459.787864865396));
#1504=CARTESIAN_POINT('Origin',(17.8870496471618,-11.8806088001374,454.287864865392));
#1505=CARTESIAN_POINT('',(20.0870496471647,-11.8806088001413,453.987864865396));
#1506=CARTESIAN_POINT('',(20.0870496471647,-11.8806088001413,454.287864865396));
#1507=CARTESIAN_POINT('',(17.4870496471633,-11.8806088001453,453.987864865394));
#1508=CARTESIAN_POINT('',(17.8870496471632,-11.8806088001456,453.987864865394));
#1509=CARTESIAN_POINT('',(17.4870496471633,-11.8806088001494,442.851043986133));
#1510=CARTESIAN_POINT('Origin',(20.0870496471633,-12.0431088001457,431.414223106874));
#1511=CARTESIAN_POINT('',(20.0870496471648,-6.28060880014132,453.987864865396));
#1512=CARTESIAN_POINT('Origin',(17.4870496471619,-12.0431088001499,431.414223106872));
#1513=CARTESIAN_POINT('',(17.4870496471633,-11.7806088001453,453.987864865394));
#1514=CARTESIAN_POINT('Origin',(17.8870496471605,-6.28060880015397,453.98786486539));
#1515=UNCERTAINTY_MEASURE_WITH_UNIT(LENGTH_MEASURE(0.01),#1519,
'DISTANCE_ACCURACY_VALUE',
'Maximum model space distance between geometric entities at asserted c
onnectivities');
#1516=UNCERTAINTY_MEASURE_WITH_UNIT(LENGTH_MEASURE(0.01),#1519,
'DISTANCE_ACCURACY_VALUE',
'Maximum model space distance between geometric entities at asserted c
onnectivities');
#1517=(
GEOMETRIC_REPRESENTATION_CONTEXT(3)
GLOBAL_UNCERTAINTY_ASSIGNED_CONTEXT((#1515))
GLOBAL_UNIT_ASSIGNED_CONTEXT((#1519,#1521,#1522))
REPRESENTATION_CONTEXT('','3D')
);
#1518=(
GEOMETRIC_REPRESENTATION_CONTEXT(3)
GLOBAL_UNCERTAINTY_ASSIGNED_CONTEXT((#1516))
GLOBAL_UNIT_ASSIGNED_CONTEXT((#1519,#1521,#1522))
REPRESENTATION_CONTEXT('','3D')
);
#1519=(
LENGTH_UNIT()
NAMED_UNIT(*)
SI_UNIT(.MILLI.,.METRE.)
);
#1520=(
LENGTH_UNIT()
NAMED_UNIT(*)
SI_UNIT($,.METRE.)
);
#1521=(
NAMED_UNIT(*)
PLANE_ANGLE_UNIT()
SI_UNIT($,.RADIAN.)
);
#1522=(
NAMED_UNIT(*)
SI_UNIT($,.STERADIAN.)
SOLID_ANGLE_UNIT()
);
#1523=SHAPE_DEFINITION_REPRESENTATION(#1524,#1525);
#1524=PRODUCT_DEFINITION_SHAPE('',$,#1527);
#1525=SHAPE_REPRESENTATION('',(#902),#1517);
#1526=PRODUCT_DEFINITION_CONTEXT('part definition',#1531,'design');
#1527=PRODUCT_DEFINITION('arm-left','arm-left',#1528,#1526);
#1528=PRODUCT_DEFINITION_FORMATION('',$,#1533);
#1529=PRODUCT_RELATED_PRODUCT_CATEGORY('arm-left','arm-left',(#1533));
#1530=APPLICATION_PROTOCOL_DEFINITION('international standard',
'automotive_design',2009,#1531);
#1531=APPLICATION_CONTEXT(
'Core Data for Automotive Mechanical Design Process');
#1532=PRODUCT_CONTEXT('part definition',#1531,'mechanical');
#1533=PRODUCT('arm-left','arm-left',$,(#1532));
#1534=PRESENTATION_STYLE_ASSIGNMENT((#1536));
#1535=PRESENTATION_STYLE_ASSIGNMENT((#1537));
#1536=SURFACE_STYLE_USAGE(.BOTH.,#1538);
#1537=SURFACE_STYLE_USAGE(.BOTH.,#1539);
#1538=SURFACE_SIDE_STYLE('',(#1540));
#1539=SURFACE_SIDE_STYLE('',(#1541));
#1540=SURFACE_STYLE_FILL_AREA(#1542);
#1541=SURFACE_STYLE_FILL_AREA(#1543);
#1542=FILL_AREA_STYLE('Steel - Satin',(#1544));
#1543=FILL_AREA_STYLE('Plastic - Translucent Matte (White) 3D Printed',
(#1545));
#1544=FILL_AREA_STYLE_COLOUR('Steel - Satin',#1546);
#1545=FILL_AREA_STYLE_COLOUR(
'Plastic - Translucent Matte (White) 3D Printed',#1547);
#1546=COLOUR_RGB('Steel - Satin',0.627450980392157,0.627450980392157,0.627450980392157);
#1547=COLOUR_RGB('Plastic - Translucent Matte (White) 3D Printed',0.964705882352941,
0.964705882352941,0.952941176470588);
ENDSEC;
END-ISO-10303-21;
