ISO-10303-21;
HEADER;
/* Generated by software containing ST-Developer
 * from STEP Tools, Inc. (www.steptools.com) 
 */

FILE_DESCRIPTION(
/* description */ (''),
/* implementation_level */ '2;1');

FILE_NAME(
/* name */ 'arm-right.step',
/* time_stamp */ '2026-02-22T12:26:49-08:00',
/* author */ (''),
/* organization */ (''),
/* preprocessor_version */ 'ST-DEVELOPER v20.1',
/* originating_system */ 'Autodesk Translation Framework v14.24.0.0',
/* authorisation */ '');

FILE_SCHEMA (('AUTOMOTIVE_DESIGN { 1 0 10303 214 3 1 1 }'));
ENDSEC;

DATA;
#10=MECHANICAL_DESIGN_GEOMETRIC_PRESENTATION_REPRESENTATION('',(#13),#1663);
#11=SHAPE_REPRESENTATION_RELATIONSHIP('SRR','None',#1670,#12);
#12=ADVANCED_BREP_SHAPE_REPRESENTATION('',(#14),#1662);
#13=STYLED_ITEM('',(#1680),#14);
#14=MANIFOLD_SOLID_BREP('Body2',#982);
#15=FACE_BOUND('',#299,.T.);
#16=FACE_BOUND('',#300,.T.);
#17=FACE_BOUND('',#306,.T.);
#18=FACE_BOUND('',#310,.T.);
#19=FACE_BOUND('',#312,.T.);
#20=FACE_BOUND('',#316,.T.);
#21=FACE_BOUND('',#319,.T.);
#22=FACE_BOUND('',#320,.T.);
#23=FACE_BOUND('',#321,.T.);
#24=FACE_BOUND('',#332,.T.);
#25=FACE_BOUND('',#341,.T.);
#26=FACE_BOUND('',#347,.T.);
#27=LINE('',#1386,#121);
#28=LINE('',#1389,#122);
#29=LINE('',#1394,#123);
#30=LINE('',#1401,#124);
#31=LINE('',#1404,#125);
#32=LINE('',#1407,#126);
#33=LINE('',#1409,#127);
#34=LINE('',#1410,#128);
#35=LINE('',#1414,#129);
#36=LINE('',#1416,#130);
#37=LINE('',#1417,#131);
#38=LINE('',#1421,#132);
#39=LINE('',#1426,#133);
#40=LINE('',#1428,#134);
#41=LINE('',#1432,#135);
#42=LINE('',#1436,#136);
#43=LINE('',#1439,#137);
#44=LINE('',#1445,#138);
#45=LINE('',#1448,#139);
#46=LINE('',#1453,#140);
#47=LINE('',#1456,#141);
#48=LINE('',#1458,#142);
#49=LINE('',#1462,#143);
#50=LINE('',#1464,#144);
#51=LINE('',#1468,#145);
#52=LINE('',#1469,#146);
#53=LINE('',#1472,#147);
#54=LINE('',#1474,#148);
#55=LINE('',#1475,#149);
#56=LINE('',#1477,#150);
#57=LINE('',#1479,#151);
#58=LINE('',#1481,#152);
#59=LINE('',#1483,#153);
#60=LINE('',#1484,#154);
#61=LINE('',#1487,#155);
#62=LINE('',#1489,#156);
#63=LINE('',#1491,#157);
#64=LINE('',#1492,#158);
#65=LINE('',#1499,#159);
#66=LINE('',#1500,#160);
#67=LINE('',#1502,#161);
#68=LINE('',#1504,#162);
#69=LINE('',#1506,#163);
#70=LINE('',#1508,#164);
#71=LINE('',#1509,#165);
#72=LINE('',#1516,#166);
#73=LINE('',#1517,#167);
#74=LINE('',#1519,#168);
#75=LINE('',#1523,#169);
#76=LINE('',#1528,#170);
#77=LINE('',#1532,#171);
#78=LINE('',#1536,#172);
#79=LINE('',#1541,#173);
#80=LINE('',#1544,#174);
#81=LINE('',#1549,#175);
#82=LINE('',#1550,#176);
#83=LINE('',#1559,#177);
#84=LINE('',#1560,#178);
#85=LINE('',#1567,#179);
#86=LINE('',#1568,#180);
#87=LINE('',#1570,#181);
#88=LINE('',#1574,#182);
#89=LINE('',#1579,#183);
#90=LINE('',#1587,#184);
#91=LINE('',#1589,#185);
#92=LINE('',#1591,#186);
#93=LINE('',#1592,#187);
#94=LINE('',#1594,#188);
#95=LINE('',#1596,#189);
#96=LINE('',#1600,#190);
#97=LINE('',#1601,#191);
#98=LINE('',#1606,#192);
#99=LINE('',#1610,#193);
#100=LINE('',#1612,#194);
#101=LINE('',#1614,#195);
#102=LINE('',#1615,#196);
#103=LINE('',#1617,#197);
#104=LINE('',#1618,#198);
#105=LINE('',#1620,#199);
#106=LINE('',#1624,#200);
#107=LINE('',#1626,#201);
#108=LINE('',#1630,#202);
#109=LINE('',#1632,#203);
#110=LINE('',#1633,#204);
#111=LINE('',#1636,#205);
#112=LINE('',#1637,#206);
#113=LINE('',#1639,#207);
#114=LINE('',#1643,#208);
#115=LINE('',#1646,#209);
#116=LINE('',#1647,#210);
#117=LINE('',#1649,#211);
#118=LINE('',#1652,#212);
#119=LINE('',#1655,#213);
#120=LINE('',#1658,#214);
#121=VECTOR('',#1101,10.);
#122=VECTOR('',#1104,10.);
#123=VECTOR('',#1109,10.);
#124=VECTOR('',#1116,10.);
#125=VECTOR('',#1119,10.);
#126=VECTOR('',#1122,10.);
#127=VECTOR('',#1123,10.);
#128=VECTOR('',#1124,10.);
#129=VECTOR('',#1127,10.);
#130=VECTOR('',#1128,10.);
#131=VECTOR('',#1129,10.);
#132=VECTOR('',#1134,10.);
#133=VECTOR('',#1139,10.);
#134=VECTOR('',#1140,10.);
#135=VECTOR('',#1143,10.);
#136=VECTOR('',#1146,10.);
#137=VECTOR('',#1149,10.);
#138=VECTOR('',#1154,12.);
#139=VECTOR('',#1157,12.);
#140=VECTOR('',#1162,10.);
#141=VECTOR('',#1167,10.);
#142=VECTOR('',#1168,10.);
#143=VECTOR('',#1171,10.);
#144=VECTOR('',#1172,10.);
#145=VECTOR('',#1177,10.);
#146=VECTOR('',#1178,10.);
#147=VECTOR('',#1181,10.);
#148=VECTOR('',#1182,10.);
#149=VECTOR('',#1183,10.);
#150=VECTOR('',#1184,10.);
#151=VECTOR('',#1185,10.);
#152=VECTOR('',#1186,10.);
#153=VECTOR('',#1187,10.);
#154=VECTOR('',#1188,10.);
#155=VECTOR('',#1189,10.);
#156=VECTOR('',#1190,10.);
#157=VECTOR('',#1191,10.);
#158=VECTOR('',#1192,10.);
#159=VECTOR('',#1199,10.);
#160=VECTOR('',#1200,10.);
#161=VECTOR('',#1203,10.);
#162=VECTOR('',#1204,10.);
#163=VECTOR('',#1205,10.);
#164=VECTOR('',#1206,10.);
#165=VECTOR('',#1207,10.);
#166=VECTOR('',#1216,10.);
#167=VECTOR('',#1217,10.);
#168=VECTOR('',#1220,10.);
#169=VECTOR('',#1225,10.);
#170=VECTOR('',#1230,10.);
#171=VECTOR('',#1235,10.);
#172=VECTOR('',#1238,10.);
#173=VECTOR('',#1243,10.);
#174=VECTOR('',#1246,10.);
#175=VECTOR('',#1251,10.);
#176=VECTOR('',#1252,10.);
#177=VECTOR('',#1261,10.);
#178=VECTOR('',#1262,10.);
#179=VECTOR('',#1269,10.);
#180=VECTOR('',#1270,10.);
#181=VECTOR('',#1273,10.);
#182=VECTOR('',#1278,10.);
#183=VECTOR('',#1283,10.);
#184=VECTOR('',#1290,10.);
#185=VECTOR('',#1291,10.);
#186=VECTOR('',#1292,10.);
#187=VECTOR('',#1293,10.);
#188=VECTOR('',#1296,10.);
#189=VECTOR('',#1299,10.);
#190=VECTOR('',#1306,1.59999999999997);
#191=VECTOR('',#1307,1.59999999999997);
#192=VECTOR('',#1314,1.50000000000003);
#193=VECTOR('',#1317,10.);
#194=VECTOR('',#1318,10.);
#195=VECTOR('',#1319,10.);
#196=VECTOR('',#1320,10.);
#197=VECTOR('',#1323,10.);
#198=VECTOR('',#1324,10.);
#199=VECTOR('',#1327,10.);
#200=VECTOR('',#1332,10.);
#201=VECTOR('',#1335,10.);
#202=VECTOR('',#1340,10.);
#203=VECTOR('',#1341,10.);
#204=VECTOR('',#1342,10.);
#205=VECTOR('',#1345,10.);
#206=VECTOR('',#1346,10.);
#207=VECTOR('',#1349,1.90000000000005);
#208=VECTOR('',#1354,1.65);
#209=VECTOR('',#1357,10.);
#210=VECTOR('',#1358,10.);
#211=VECTOR('',#1361,1.49999999999998);
#212=VECTOR('',#1364,1.49999999999998);
#213=VECTOR('',#1369,10.);
#214=VECTOR('',#1374,10.);
#215=CYLINDRICAL_SURFACE('',#998,1.5);
#216=CYLINDRICAL_SURFACE('',#1001,1.5);
#217=CYLINDRICAL_SURFACE('',#1004,1.5);
#218=CYLINDRICAL_SURFACE('',#1009,1.5);
#219=CYLINDRICAL_SURFACE('',#1016,12.);
#220=CYLINDRICAL_SURFACE('',#1019,2.);
#221=CYLINDRICAL_SURFACE('',#1028,2.);
#222=CYLINDRICAL_SURFACE('',#1031,2.);
#223=CYLINDRICAL_SURFACE('',#1033,1.60000000000006);
#224=CYLINDRICAL_SURFACE('',#1038,2.);
#225=CYLINDRICAL_SURFACE('',#1049,1.59999999999997);
#226=CYLINDRICAL_SURFACE('',#1052,1.59999999999997);
#227=CYLINDRICAL_SURFACE('',#1063,2.);
#228=CYLINDRICAL_SURFACE('',#1065,2.);
#229=CYLINDRICAL_SURFACE('',#1067,1.59999999999997);
#230=CYLINDRICAL_SURFACE('',#1070,1.50000000000003);
#231=CYLINDRICAL_SURFACE('',#1075,3.);
#232=CYLINDRICAL_SURFACE('',#1077,3.);
#233=CYLINDRICAL_SURFACE('',#1080,1.90000000000005);
#234=CYLINDRICAL_SURFACE('',#1081,1.4);
#235=CYLINDRICAL_SURFACE('',#1084,1.49999999999998);
#236=CYLINDRICAL_SURFACE('',#1085,1.4);
#237=FACE_OUTER_BOUND('',#287,.T.);
#238=FACE_OUTER_BOUND('',#288,.T.);
#239=FACE_OUTER_BOUND('',#289,.T.);
#240=FACE_OUTER_BOUND('',#290,.T.);
#241=FACE_OUTER_BOUND('',#291,.T.);
#242=FACE_OUTER_BOUND('',#292,.T.);
#243=FACE_OUTER_BOUND('',#293,.T.);
#244=FACE_OUTER_BOUND('',#294,.T.);
#245=FACE_OUTER_BOUND('',#295,.T.);
#246=FACE_OUTER_BOUND('',#296,.T.);
#247=FACE_OUTER_BOUND('',#297,.T.);
#248=FACE_OUTER_BOUND('',#298,.T.);
#249=FACE_OUTER_BOUND('',#301,.T.);
#250=FACE_OUTER_BOUND('',#302,.T.);
#251=FACE_OUTER_BOUND('',#303,.T.);
#252=FACE_OUTER_BOUND('',#304,.T.);
#253=FACE_OUTER_BOUND('',#305,.T.);
#254=FACE_OUTER_BOUND('',#307,.T.);
#255=FACE_OUTER_BOUND('',#308,.T.);
#256=FACE_OUTER_BOUND('',#309,.T.);
#257=FACE_OUTER_BOUND('',#311,.T.);
#258=FACE_OUTER_BOUND('',#313,.T.);
#259=FACE_OUTER_BOUND('',#314,.T.);
#260=FACE_OUTER_BOUND('',#315,.T.);
#261=FACE_OUTER_BOUND('',#317,.T.);
#262=FACE_OUTER_BOUND('',#318,.T.);
#263=FACE_OUTER_BOUND('',#322,.T.);
#264=FACE_OUTER_BOUND('',#323,.T.);
#265=FACE_OUTER_BOUND('',#324,.T.);
#266=FACE_OUTER_BOUND('',#325,.T.);
#267=FACE_OUTER_BOUND('',#326,.T.);
#268=FACE_OUTER_BOUND('',#327,.T.);
#269=FACE_OUTER_BOUND('',#328,.T.);
#270=FACE_OUTER_BOUND('',#329,.T.);
#271=FACE_OUTER_BOUND('',#330,.T.);
#272=FACE_OUTER_BOUND('',#331,.T.);
#273=FACE_OUTER_BOUND('',#333,.T.);
#274=FACE_OUTER_BOUND('',#334,.T.);
#275=FACE_OUTER_BOUND('',#335,.T.);
#276=FACE_OUTER_BOUND('',#336,.T.);
#277=FACE_OUTER_BOUND('',#337,.T.);
#278=FACE_OUTER_BOUND('',#338,.T.);
#279=FACE_OUTER_BOUND('',#339,.T.);
#280=FACE_OUTER_BOUND('',#340,.T.);
#281=FACE_OUTER_BOUND('',#342,.T.);
#282=FACE_OUTER_BOUND('',#343,.T.);
#283=FACE_OUTER_BOUND('',#344,.T.);
#284=FACE_OUTER_BOUND('',#345,.T.);
#285=FACE_OUTER_BOUND('',#346,.T.);
#286=FACE_OUTER_BOUND('',#348,.T.);
#287=EDGE_LOOP('',(#626));
#288=EDGE_LOOP('',(#627,#628,#629,#630));
#289=EDGE_LOOP('',(#631,#632,#633,#634));
#290=EDGE_LOOP('',(#635,#636,#637,#638));
#291=EDGE_LOOP('',(#639,#640,#641,#642,#643,#644,#645,#646,#647,#648));
#292=EDGE_LOOP('',(#649,#650,#651,#652));
#293=EDGE_LOOP('',(#653,#654,#655,#656,#657,#658,#659,#660,#661,#662,#663));
#294=EDGE_LOOP('',(#664,#665,#666,#667));
#295=EDGE_LOOP('',(#668,#669,#670,#671));
#296=EDGE_LOOP('',(#672,#673,#674,#675,#676,#677,#678,#679,#680,#681));
#297=EDGE_LOOP('',(#682,#683,#684,#685));
#298=EDGE_LOOP('',(#686,#687,#688,#689,#690,#691,#692,#693,#694,#695,#696,
#697,#698,#699,#700));
#299=EDGE_LOOP('',(#701,#702,#703,#704));
#300=EDGE_LOOP('',(#705));
#301=EDGE_LOOP('',(#706,#707,#708,#709));
#302=EDGE_LOOP('',(#710,#711,#712,#713,#714,#715,#716,#717));
#303=EDGE_LOOP('',(#718,#719,#720,#721));
#304=EDGE_LOOP('',(#722,#723,#724,#725));
#305=EDGE_LOOP('',(#726,#727,#728,#729));
#306=EDGE_LOOP('',(#730));
#307=EDGE_LOOP('',(#731,#732,#733,#734));
#308=EDGE_LOOP('',(#735,#736,#737,#738));
#309=EDGE_LOOP('',(#739,#740,#741,#742,#743,#744,#745,#746,#747,#748,#749,
#750));
#310=EDGE_LOOP('',(#751));
#311=EDGE_LOOP('',(#752,#753,#754,#755));
#312=EDGE_LOOP('',(#756));
#313=EDGE_LOOP('',(#757,#758,#759,#760,#761));
#314=EDGE_LOOP('',(#762,#763,#764,#765,#766));
#315=EDGE_LOOP('',(#767,#768,#769,#770));
#316=EDGE_LOOP('',(#771));
#317=EDGE_LOOP('',(#772,#773,#774,#775));
#318=EDGE_LOOP('',(#776,#777,#778,#779,#780,#781,#782,#783,#784,#785,#786));
#319=EDGE_LOOP('',(#787));
#320=EDGE_LOOP('',(#788));
#321=EDGE_LOOP('',(#789,#790,#791,#792));
#322=EDGE_LOOP('',(#793,#794,#795,#796,#797));
#323=EDGE_LOOP('',(#798,#799,#800,#801));
#324=EDGE_LOOP('',(#802,#803,#804,#805));
#325=EDGE_LOOP('',(#806,#807,#808,#809));
#326=EDGE_LOOP('',(#810,#811,#812,#813,#814,#815,#816,#817,#818,#819,#820,
#821,#822,#823,#824,#825,#826,#827));
#327=EDGE_LOOP('',(#828));
#328=EDGE_LOOP('',(#829,#830,#831,#832));
#329=EDGE_LOOP('',(#833,#834,#835,#836));
#330=EDGE_LOOP('',(#837,#838,#839,#840));
#331=EDGE_LOOP('',(#841,#842,#843,#844));
#332=EDGE_LOOP('',(#845));
#333=EDGE_LOOP('',(#846,#847,#848,#849));
#334=EDGE_LOOP('',(#850,#851,#852,#853));
#335=EDGE_LOOP('',(#854,#855,#856,#857));
#336=EDGE_LOOP('',(#858,#859,#860,#861));
#337=EDGE_LOOP('',(#862,#863,#864,#865));
#338=EDGE_LOOP('',(#866,#867,#868,#869));
#339=EDGE_LOOP('',(#870,#871,#872,#873));
#340=EDGE_LOOP('',(#874,#875,#876,#877));
#341=EDGE_LOOP('',(#878));
#342=EDGE_LOOP('',(#879,#880,#881,#882));
#343=EDGE_LOOP('',(#883,#884,#885,#886));
#344=EDGE_LOOP('',(#887,#888,#889,#890));
#345=EDGE_LOOP('',(#891,#892,#893,#894));
#346=EDGE_LOOP('',(#895,#896,#897,#898));
#347=EDGE_LOOP('',(#899));
#348=EDGE_LOOP('',(#900,#901,#902,#903));
#349=CIRCLE('',#997,1.90000000000005);
#350=CIRCLE('',#999,1.5);
#351=CIRCLE('',#1000,1.5);
#352=CIRCLE('',#1002,1.5);
#353=CIRCLE('',#1003,1.5);
#354=CIRCLE('',#1005,1.5);
#355=CIRCLE('',#1006,1.5);
#356=CIRCLE('',#1008,1.5);
#357=CIRCLE('',#1010,1.5);
#358=CIRCLE('',#1012,1.60000000000006);
#359=CIRCLE('',#1013,2.);
#360=CIRCLE('',#1014,2.00000000000003);
#361=CIRCLE('',#1015,2.00000000000011);
#362=CIRCLE('',#1017,12.);
#363=CIRCLE('',#1018,12.);
#364=CIRCLE('',#1020,2.);
#365=CIRCLE('',#1021,2.);
#366=CIRCLE('',#1023,2.);
#367=CIRCLE('',#1024,1.60000000000001);
#368=CIRCLE('',#1027,1.90000000000005);
#369=CIRCLE('',#1029,2.);
#370=CIRCLE('',#1032,2.);
#371=CIRCLE('',#1034,1.59999999999997);
#372=CIRCLE('',#1036,1.49999999999998);
#373=CIRCLE('',#1039,2.);
#374=CIRCLE('',#1040,2.);
#375=CIRCLE('',#1042,3.);
#376=CIRCLE('',#1043,3.);
#377=CIRCLE('',#1044,2.);
#378=CIRCLE('',#1045,2.);
#379=CIRCLE('',#1046,1.59999999999997);
#380=CIRCLE('',#1048,1.4);
#381=CIRCLE('',#1050,1.59999999999997);
#382=CIRCLE('',#1051,1.59999999999997);
#383=CIRCLE('',#1053,1.59999999999997);
#384=CIRCLE('',#1054,1.59999999999997);
#385=CIRCLE('',#1056,1.50000000000003);
#386=CIRCLE('',#1059,3.);
#387=CIRCLE('',#1060,3.);
#388=CIRCLE('',#1061,1.59999999999997);
#389=CIRCLE('',#1062,1.50000000000003);
#390=CIRCLE('',#1069,1.4);
#391=CIRCLE('',#1074,1.49999999999998);
#392=CIRCLE('',#1082,1.4);
#393=CIRCLE('',#1086,1.4);
#394=VERTEX_POINT('',#1379);
#395=VERTEX_POINT('',#1382);
#396=VERTEX_POINT('',#1383);
#397=VERTEX_POINT('',#1385);
#398=VERTEX_POINT('',#1387);
#399=VERTEX_POINT('',#1391);
#400=VERTEX_POINT('',#1393);
#401=VERTEX_POINT('',#1397);
#402=VERTEX_POINT('',#1398);
#403=VERTEX_POINT('',#1400);
#404=VERTEX_POINT('',#1402);
#405=VERTEX_POINT('',#1406);
#406=VERTEX_POINT('',#1408);
#407=VERTEX_POINT('',#1411);
#408=VERTEX_POINT('',#1413);
#409=VERTEX_POINT('',#1415);
#410=VERTEX_POINT('',#1419);
#411=VERTEX_POINT('',#1423);
#412=VERTEX_POINT('',#1425);
#413=VERTEX_POINT('',#1427);
#414=VERTEX_POINT('',#1429);
#415=VERTEX_POINT('',#1431);
#416=VERTEX_POINT('',#1433);
#417=VERTEX_POINT('',#1435);
#418=VERTEX_POINT('',#1437);
#419=VERTEX_POINT('',#1441);
#420=VERTEX_POINT('',#1442);
#421=VERTEX_POINT('',#1444);
#422=VERTEX_POINT('',#1446);
#423=VERTEX_POINT('',#1450);
#424=VERTEX_POINT('',#1452);
#425=VERTEX_POINT('',#1457);
#426=VERTEX_POINT('',#1459);
#427=VERTEX_POINT('',#1461);
#428=VERTEX_POINT('',#1463);
#429=VERTEX_POINT('',#1467);
#430=VERTEX_POINT('',#1471);
#431=VERTEX_POINT('',#1473);
#432=VERTEX_POINT('',#1476);
#433=VERTEX_POINT('',#1478);
#434=VERTEX_POINT('',#1480);
#435=VERTEX_POINT('',#1482);
#436=VERTEX_POINT('',#1485);
#437=VERTEX_POINT('',#1486);
#438=VERTEX_POINT('',#1488);
#439=VERTEX_POINT('',#1490);
#440=VERTEX_POINT('',#1493);
#441=VERTEX_POINT('',#1496);
#442=VERTEX_POINT('',#1497);
#443=VERTEX_POINT('',#1503);
#444=VERTEX_POINT('',#1505);
#445=VERTEX_POINT('',#1507);
#446=VERTEX_POINT('',#1513);
#447=VERTEX_POINT('',#1514);
#448=VERTEX_POINT('',#1520);
#449=VERTEX_POINT('',#1525);
#450=VERTEX_POINT('',#1527);
#451=VERTEX_POINT('',#1531);
#452=VERTEX_POINT('',#1533);
#453=VERTEX_POINT('',#1535);
#454=VERTEX_POINT('',#1538);
#455=VERTEX_POINT('',#1540);
#456=VERTEX_POINT('',#1542);
#457=VERTEX_POINT('',#1545);
#458=VERTEX_POINT('',#1548);
#459=VERTEX_POINT('',#1551);
#460=VERTEX_POINT('',#1554);
#461=VERTEX_POINT('',#1555);
#462=VERTEX_POINT('',#1557);
#463=VERTEX_POINT('',#1562);
#464=VERTEX_POINT('',#1563);
#465=VERTEX_POINT('',#1565);
#466=VERTEX_POINT('',#1571);
#467=VERTEX_POINT('',#1576);
#468=VERTEX_POINT('',#1578);
#469=VERTEX_POINT('',#1581);
#470=VERTEX_POINT('',#1583);
#471=VERTEX_POINT('',#1585);
#472=VERTEX_POINT('',#1586);
#473=VERTEX_POINT('',#1588);
#474=VERTEX_POINT('',#1590);
#475=VERTEX_POINT('',#1603);
#476=VERTEX_POINT('',#1608);
#477=VERTEX_POINT('',#1609);
#478=VERTEX_POINT('',#1611);
#479=VERTEX_POINT('',#1613);
#480=VERTEX_POINT('',#1621);
#481=VERTEX_POINT('',#1629);
#482=VERTEX_POINT('',#1631);
#483=VERTEX_POINT('',#1635);
#484=VERTEX_POINT('',#1641);
#485=VERTEX_POINT('',#1645);
#486=VERTEX_POINT('',#1651);
#487=EDGE_CURVE('',#394,#394,#349,.T.);
#488=EDGE_CURVE('',#395,#396,#350,.T.);
#489=EDGE_CURVE('',#395,#397,#27,.T.);
#490=EDGE_CURVE('',#397,#398,#351,.T.);
#491=EDGE_CURVE('',#398,#396,#28,.T.);
#492=EDGE_CURVE('',#395,#399,#352,.F.);
#493=EDGE_CURVE('',#399,#400,#29,.T.);
#494=EDGE_CURVE('',#400,#397,#353,.T.);
#495=EDGE_CURVE('',#401,#402,#354,.T.);
#496=EDGE_CURVE('',#401,#403,#30,.T.);
#497=EDGE_CURVE('',#403,#404,#355,.T.);
#498=EDGE_CURVE('',#404,#402,#31,.T.);
#499=EDGE_CURVE('',#396,#405,#32,.T.);
#500=EDGE_CURVE('',#406,#405,#33,.T.);
#501=EDGE_CURVE('',#406,#401,#34,.T.);
#502=EDGE_CURVE('',#407,#402,#356,.F.);
#503=EDGE_CURVE('',#407,#408,#35,.T.);
#504=EDGE_CURVE('',#408,#409,#36,.T.);
#505=EDGE_CURVE('',#409,#399,#37,.T.);
#506=EDGE_CURVE('',#404,#410,#357,.T.);
#507=EDGE_CURVE('',#410,#407,#38,.T.);
#508=EDGE_CURVE('',#409,#411,#358,.T.);
#509=EDGE_CURVE('',#412,#411,#39,.T.);
#510=EDGE_CURVE('',#412,#413,#40,.T.);
#511=EDGE_CURVE('',#414,#413,#359,.T.);
#512=EDGE_CURVE('',#414,#415,#41,.T.);
#513=EDGE_CURVE('',#415,#416,#360,.T.);
#514=EDGE_CURVE('',#416,#417,#42,.T.);
#515=EDGE_CURVE('',#417,#418,#361,.T.);
#516=EDGE_CURVE('',#418,#400,#43,.T.);
#517=EDGE_CURVE('',#419,#420,#362,.T.);
#518=EDGE_CURVE('',#420,#421,#44,.T.);
#519=EDGE_CURVE('',#421,#422,#363,.T.);
#520=EDGE_CURVE('',#422,#419,#45,.T.);
#521=EDGE_CURVE('',#423,#420,#364,.T.);
#522=EDGE_CURVE('',#424,#423,#46,.T.);
#523=EDGE_CURVE('',#424,#421,#365,.T.);
#524=EDGE_CURVE('',#410,#423,#47,.T.);
#525=EDGE_CURVE('',#419,#425,#48,.T.);
#526=EDGE_CURVE('',#426,#425,#366,.T.);
#527=EDGE_CURVE('',#426,#427,#49,.T.);
#528=EDGE_CURVE('',#428,#427,#50,.T.);
#529=EDGE_CURVE('',#428,#408,#367,.T.);
#530=EDGE_CURVE('',#422,#429,#51,.T.);
#531=EDGE_CURVE('',#425,#429,#52,.T.);
#532=EDGE_CURVE('',#430,#403,#53,.T.);
#533=EDGE_CURVE('',#431,#430,#54,.T.);
#534=EDGE_CURVE('',#398,#431,#55,.T.);
#535=EDGE_CURVE('',#432,#418,#56,.F.);
#536=EDGE_CURVE('',#433,#432,#57,.T.);
#537=EDGE_CURVE('',#433,#434,#58,.T.);
#538=EDGE_CURVE('',#435,#434,#59,.T.);
#539=EDGE_CURVE('',#435,#424,#60,.T.);
#540=EDGE_CURVE('',#436,#437,#61,.T.);
#541=EDGE_CURVE('',#437,#438,#62,.T.);
#542=EDGE_CURVE('',#438,#439,#63,.T.);
#543=EDGE_CURVE('',#439,#436,#64,.T.);
#544=EDGE_CURVE('',#440,#440,#368,.T.);
#545=EDGE_CURVE('',#441,#442,#369,.T.);
#546=EDGE_CURVE('',#442,#414,#65,.T.);
#547=EDGE_CURVE('',#413,#441,#66,.T.);
#548=EDGE_CURVE('',#412,#427,#67,.T.);
#549=EDGE_CURVE('',#443,#426,#68,.T.);
#550=EDGE_CURVE('',#444,#443,#69,.T.);
#551=EDGE_CURVE('',#445,#444,#70,.T.);
#552=EDGE_CURVE('',#441,#445,#71,.T.);
#553=EDGE_CURVE('',#429,#443,#370,.T.);
#554=EDGE_CURVE('',#446,#447,#371,.T.);
#555=EDGE_CURVE('',#447,#411,#72,.T.);
#556=EDGE_CURVE('',#409,#446,#73,.T.);
#557=EDGE_CURVE('',#405,#431,#74,.T.);
#558=EDGE_CURVE('',#448,#448,#372,.T.);
#559=EDGE_CURVE('',#411,#428,#75,.T.);
#560=EDGE_CURVE('',#444,#449,#373,.T.);
#561=EDGE_CURVE('',#449,#450,#76,.T.);
#562=EDGE_CURVE('',#450,#445,#374,.T.);
#563=EDGE_CURVE('',#451,#450,#77,.T.);
#564=EDGE_CURVE('',#452,#451,#375,.T.);
#565=EDGE_CURVE('',#452,#453,#78,.T.);
#566=EDGE_CURVE('',#434,#453,#376,.T.);
#567=EDGE_CURVE('',#433,#454,#377,.T.);
#568=EDGE_CURVE('',#454,#455,#79,.T.);
#569=EDGE_CURVE('',#455,#456,#378,.T.);
#570=EDGE_CURVE('',#456,#442,#80,.T.);
#571=EDGE_CURVE('',#457,#457,#379,.T.);
#572=EDGE_CURVE('',#458,#449,#81,.T.);
#573=EDGE_CURVE('',#451,#458,#82,.T.);
#574=EDGE_CURVE('',#459,#459,#380,.F.);
#575=EDGE_CURVE('',#460,#461,#381,.T.);
#576=EDGE_CURVE('',#461,#462,#382,.T.);
#577=EDGE_CURVE('',#462,#447,#83,.T.);
#578=EDGE_CURVE('',#446,#460,#84,.T.);
#579=EDGE_CURVE('',#463,#464,#383,.T.);
#580=EDGE_CURVE('',#464,#465,#384,.T.);
#581=EDGE_CURVE('',#465,#408,#85,.T.);
#582=EDGE_CURVE('',#428,#463,#86,.T.);
#583=EDGE_CURVE('',#430,#406,#87,.T.);
#584=EDGE_CURVE('',#466,#466,#385,.T.);
#585=EDGE_CURVE('',#456,#415,#88,.T.);
#586=EDGE_CURVE('',#467,#435,#386,.T.);
#587=EDGE_CURVE('',#468,#467,#89,.T.);
#588=EDGE_CURVE('',#458,#468,#387,.T.);
#589=EDGE_CURVE('',#469,#469,#388,.T.);
#590=EDGE_CURVE('',#470,#470,#389,.T.);
#591=EDGE_CURVE('',#471,#472,#90,.T.);
#592=EDGE_CURVE('',#472,#473,#91,.T.);
#593=EDGE_CURVE('',#473,#474,#92,.T.);
#594=EDGE_CURVE('',#474,#471,#93,.T.);
#595=EDGE_CURVE('',#454,#417,#94,.T.);
#596=EDGE_CURVE('',#455,#416,#95,.T.);
#597=EDGE_CURVE('',#469,#464,#96,.T.);
#598=EDGE_CURVE('',#461,#457,#97,.T.);
#599=EDGE_CURVE('',#475,#475,#390,.T.);
#600=EDGE_CURVE('',#470,#466,#98,.T.);
#601=EDGE_CURVE('',#476,#477,#99,.T.);
#602=EDGE_CURVE('',#478,#476,#100,.T.);
#603=EDGE_CURVE('',#479,#478,#101,.T.);
#604=EDGE_CURVE('',#477,#479,#102,.T.);
#605=EDGE_CURVE('',#438,#476,#103,.T.);
#606=EDGE_CURVE('',#478,#437,#104,.T.);
#607=EDGE_CURVE('',#477,#439,#105,.T.);
#608=EDGE_CURVE('',#480,#480,#391,.T.);
#609=EDGE_CURVE('',#468,#452,#106,.T.);
#610=EDGE_CURVE('',#453,#467,#107,.T.);
#611=EDGE_CURVE('',#473,#481,#108,.T.);
#612=EDGE_CURVE('',#482,#481,#109,.T.);
#613=EDGE_CURVE('',#482,#474,#110,.T.);
#614=EDGE_CURVE('',#483,#472,#111,.T.);
#615=EDGE_CURVE('',#481,#483,#112,.T.);
#616=EDGE_CURVE('',#440,#394,#113,.T.);
#617=EDGE_CURVE('',#484,#484,#392,.F.);
#618=EDGE_CURVE('',#484,#459,#114,.T.);
#619=EDGE_CURVE('',#485,#482,#115,.T.);
#620=EDGE_CURVE('',#471,#485,#116,.T.);
#621=EDGE_CURVE('',#480,#448,#117,.T.);
#622=EDGE_CURVE('',#475,#486,#118,.T.);
#623=EDGE_CURVE('',#486,#486,#393,.F.);
#624=EDGE_CURVE('',#485,#483,#119,.T.);
#625=EDGE_CURVE('',#479,#436,#120,.T.);
#626=ORIENTED_EDGE('',*,*,#487,.F.);
#627=ORIENTED_EDGE('',*,*,#488,.F.);
#628=ORIENTED_EDGE('',*,*,#489,.T.);
#629=ORIENTED_EDGE('',*,*,#490,.T.);
#630=ORIENTED_EDGE('',*,*,#491,.T.);
#631=ORIENTED_EDGE('',*,*,#489,.F.);
#632=ORIENTED_EDGE('',*,*,#492,.T.);
#633=ORIENTED_EDGE('',*,*,#493,.T.);
#634=ORIENTED_EDGE('',*,*,#494,.T.);
#635=ORIENTED_EDGE('',*,*,#495,.F.);
#636=ORIENTED_EDGE('',*,*,#496,.T.);
#637=ORIENTED_EDGE('',*,*,#497,.T.);
#638=ORIENTED_EDGE('',*,*,#498,.T.);
#639=ORIENTED_EDGE('',*,*,#488,.T.);
#640=ORIENTED_EDGE('',*,*,#499,.T.);
#641=ORIENTED_EDGE('',*,*,#500,.F.);
#642=ORIENTED_EDGE('',*,*,#501,.T.);
#643=ORIENTED_EDGE('',*,*,#495,.T.);
#644=ORIENTED_EDGE('',*,*,#502,.F.);
#645=ORIENTED_EDGE('',*,*,#503,.T.);
#646=ORIENTED_EDGE('',*,*,#504,.T.);
#647=ORIENTED_EDGE('',*,*,#505,.T.);
#648=ORIENTED_EDGE('',*,*,#492,.F.);
#649=ORIENTED_EDGE('',*,*,#498,.F.);
#650=ORIENTED_EDGE('',*,*,#506,.T.);
#651=ORIENTED_EDGE('',*,*,#507,.T.);
#652=ORIENTED_EDGE('',*,*,#502,.T.);
#653=ORIENTED_EDGE('',*,*,#493,.F.);
#654=ORIENTED_EDGE('',*,*,#505,.F.);
#655=ORIENTED_EDGE('',*,*,#508,.T.);
#656=ORIENTED_EDGE('',*,*,#509,.F.);
#657=ORIENTED_EDGE('',*,*,#510,.T.);
#658=ORIENTED_EDGE('',*,*,#511,.F.);
#659=ORIENTED_EDGE('',*,*,#512,.T.);
#660=ORIENTED_EDGE('',*,*,#513,.T.);
#661=ORIENTED_EDGE('',*,*,#514,.T.);
#662=ORIENTED_EDGE('',*,*,#515,.T.);
#663=ORIENTED_EDGE('',*,*,#516,.T.);
#664=ORIENTED_EDGE('',*,*,#517,.T.);
#665=ORIENTED_EDGE('',*,*,#518,.T.);
#666=ORIENTED_EDGE('',*,*,#519,.T.);
#667=ORIENTED_EDGE('',*,*,#520,.T.);
#668=ORIENTED_EDGE('',*,*,#518,.F.);
#669=ORIENTED_EDGE('',*,*,#521,.F.);
#670=ORIENTED_EDGE('',*,*,#522,.F.);
#671=ORIENTED_EDGE('',*,*,#523,.T.);
#672=ORIENTED_EDGE('',*,*,#507,.F.);
#673=ORIENTED_EDGE('',*,*,#524,.T.);
#674=ORIENTED_EDGE('',*,*,#521,.T.);
#675=ORIENTED_EDGE('',*,*,#517,.F.);
#676=ORIENTED_EDGE('',*,*,#525,.T.);
#677=ORIENTED_EDGE('',*,*,#526,.F.);
#678=ORIENTED_EDGE('',*,*,#527,.T.);
#679=ORIENTED_EDGE('',*,*,#528,.F.);
#680=ORIENTED_EDGE('',*,*,#529,.T.);
#681=ORIENTED_EDGE('',*,*,#503,.F.);
#682=ORIENTED_EDGE('',*,*,#520,.F.);
#683=ORIENTED_EDGE('',*,*,#530,.T.);
#684=ORIENTED_EDGE('',*,*,#531,.F.);
#685=ORIENTED_EDGE('',*,*,#525,.F.);
#686=ORIENTED_EDGE('',*,*,#532,.F.);
#687=ORIENTED_EDGE('',*,*,#533,.F.);
#688=ORIENTED_EDGE('',*,*,#534,.F.);
#689=ORIENTED_EDGE('',*,*,#490,.F.);
#690=ORIENTED_EDGE('',*,*,#494,.F.);
#691=ORIENTED_EDGE('',*,*,#516,.F.);
#692=ORIENTED_EDGE('',*,*,#535,.F.);
#693=ORIENTED_EDGE('',*,*,#536,.F.);
#694=ORIENTED_EDGE('',*,*,#537,.T.);
#695=ORIENTED_EDGE('',*,*,#538,.F.);
#696=ORIENTED_EDGE('',*,*,#539,.T.);
#697=ORIENTED_EDGE('',*,*,#522,.T.);
#698=ORIENTED_EDGE('',*,*,#524,.F.);
#699=ORIENTED_EDGE('',*,*,#506,.F.);
#700=ORIENTED_EDGE('',*,*,#497,.F.);
#701=ORIENTED_EDGE('',*,*,#540,.T.);
#702=ORIENTED_EDGE('',*,*,#541,.T.);
#703=ORIENTED_EDGE('',*,*,#542,.T.);
#704=ORIENTED_EDGE('',*,*,#543,.T.);
#705=ORIENTED_EDGE('',*,*,#544,.T.);
#706=ORIENTED_EDGE('',*,*,#545,.T.);
#707=ORIENTED_EDGE('',*,*,#546,.T.);
#708=ORIENTED_EDGE('',*,*,#511,.T.);
#709=ORIENTED_EDGE('',*,*,#547,.T.);
#710=ORIENTED_EDGE('',*,*,#547,.F.);
#711=ORIENTED_EDGE('',*,*,#510,.F.);
#712=ORIENTED_EDGE('',*,*,#548,.T.);
#713=ORIENTED_EDGE('',*,*,#527,.F.);
#714=ORIENTED_EDGE('',*,*,#549,.F.);
#715=ORIENTED_EDGE('',*,*,#550,.F.);
#716=ORIENTED_EDGE('',*,*,#551,.F.);
#717=ORIENTED_EDGE('',*,*,#552,.F.);
#718=ORIENTED_EDGE('',*,*,#553,.T.);
#719=ORIENTED_EDGE('',*,*,#549,.T.);
#720=ORIENTED_EDGE('',*,*,#526,.T.);
#721=ORIENTED_EDGE('',*,*,#531,.T.);
#722=ORIENTED_EDGE('',*,*,#554,.T.);
#723=ORIENTED_EDGE('',*,*,#555,.T.);
#724=ORIENTED_EDGE('',*,*,#508,.F.);
#725=ORIENTED_EDGE('',*,*,#556,.T.);
#726=ORIENTED_EDGE('',*,*,#491,.F.);
#727=ORIENTED_EDGE('',*,*,#534,.T.);
#728=ORIENTED_EDGE('',*,*,#557,.F.);
#729=ORIENTED_EDGE('',*,*,#499,.F.);
#730=ORIENTED_EDGE('',*,*,#558,.T.);
#731=ORIENTED_EDGE('',*,*,#509,.T.);
#732=ORIENTED_EDGE('',*,*,#559,.T.);
#733=ORIENTED_EDGE('',*,*,#528,.T.);
#734=ORIENTED_EDGE('',*,*,#548,.F.);
#735=ORIENTED_EDGE('',*,*,#560,.T.);
#736=ORIENTED_EDGE('',*,*,#561,.T.);
#737=ORIENTED_EDGE('',*,*,#562,.T.);
#738=ORIENTED_EDGE('',*,*,#551,.T.);
#739=ORIENTED_EDGE('',*,*,#545,.F.);
#740=ORIENTED_EDGE('',*,*,#552,.T.);
#741=ORIENTED_EDGE('',*,*,#562,.F.);
#742=ORIENTED_EDGE('',*,*,#563,.F.);
#743=ORIENTED_EDGE('',*,*,#564,.F.);
#744=ORIENTED_EDGE('',*,*,#565,.T.);
#745=ORIENTED_EDGE('',*,*,#566,.F.);
#746=ORIENTED_EDGE('',*,*,#537,.F.);
#747=ORIENTED_EDGE('',*,*,#567,.T.);
#748=ORIENTED_EDGE('',*,*,#568,.T.);
#749=ORIENTED_EDGE('',*,*,#569,.T.);
#750=ORIENTED_EDGE('',*,*,#570,.T.);
#751=ORIENTED_EDGE('',*,*,#571,.F.);
#752=ORIENTED_EDGE('',*,*,#561,.F.);
#753=ORIENTED_EDGE('',*,*,#572,.F.);
#754=ORIENTED_EDGE('',*,*,#573,.F.);
#755=ORIENTED_EDGE('',*,*,#563,.T.);
#756=ORIENTED_EDGE('',*,*,#574,.T.);
#757=ORIENTED_EDGE('',*,*,#575,.T.);
#758=ORIENTED_EDGE('',*,*,#576,.T.);
#759=ORIENTED_EDGE('',*,*,#577,.T.);
#760=ORIENTED_EDGE('',*,*,#554,.F.);
#761=ORIENTED_EDGE('',*,*,#578,.T.);
#762=ORIENTED_EDGE('',*,*,#579,.T.);
#763=ORIENTED_EDGE('',*,*,#580,.T.);
#764=ORIENTED_EDGE('',*,*,#581,.T.);
#765=ORIENTED_EDGE('',*,*,#529,.F.);
#766=ORIENTED_EDGE('',*,*,#582,.T.);
#767=ORIENTED_EDGE('',*,*,#496,.F.);
#768=ORIENTED_EDGE('',*,*,#501,.F.);
#769=ORIENTED_EDGE('',*,*,#583,.F.);
#770=ORIENTED_EDGE('',*,*,#532,.T.);
#771=ORIENTED_EDGE('',*,*,#584,.T.);
#772=ORIENTED_EDGE('',*,*,#546,.F.);
#773=ORIENTED_EDGE('',*,*,#570,.F.);
#774=ORIENTED_EDGE('',*,*,#585,.T.);
#775=ORIENTED_EDGE('',*,*,#512,.F.);
#776=ORIENTED_EDGE('',*,*,#519,.F.);
#777=ORIENTED_EDGE('',*,*,#523,.F.);
#778=ORIENTED_EDGE('',*,*,#539,.F.);
#779=ORIENTED_EDGE('',*,*,#586,.F.);
#780=ORIENTED_EDGE('',*,*,#587,.F.);
#781=ORIENTED_EDGE('',*,*,#588,.F.);
#782=ORIENTED_EDGE('',*,*,#572,.T.);
#783=ORIENTED_EDGE('',*,*,#560,.F.);
#784=ORIENTED_EDGE('',*,*,#550,.T.);
#785=ORIENTED_EDGE('',*,*,#553,.F.);
#786=ORIENTED_EDGE('',*,*,#530,.F.);
#787=ORIENTED_EDGE('',*,*,#589,.T.);
#788=ORIENTED_EDGE('',*,*,#590,.T.);
#789=ORIENTED_EDGE('',*,*,#591,.T.);
#790=ORIENTED_EDGE('',*,*,#592,.T.);
#791=ORIENTED_EDGE('',*,*,#593,.T.);
#792=ORIENTED_EDGE('',*,*,#594,.T.);
#793=ORIENTED_EDGE('',*,*,#535,.T.);
#794=ORIENTED_EDGE('',*,*,#515,.F.);
#795=ORIENTED_EDGE('',*,*,#595,.F.);
#796=ORIENTED_EDGE('',*,*,#567,.F.);
#797=ORIENTED_EDGE('',*,*,#536,.T.);
#798=ORIENTED_EDGE('',*,*,#595,.T.);
#799=ORIENTED_EDGE('',*,*,#514,.F.);
#800=ORIENTED_EDGE('',*,*,#596,.F.);
#801=ORIENTED_EDGE('',*,*,#568,.F.);
#802=ORIENTED_EDGE('',*,*,#585,.F.);
#803=ORIENTED_EDGE('',*,*,#569,.F.);
#804=ORIENTED_EDGE('',*,*,#596,.T.);
#805=ORIENTED_EDGE('',*,*,#513,.F.);
#806=ORIENTED_EDGE('',*,*,#557,.T.);
#807=ORIENTED_EDGE('',*,*,#533,.T.);
#808=ORIENTED_EDGE('',*,*,#583,.T.);
#809=ORIENTED_EDGE('',*,*,#500,.T.);
#810=ORIENTED_EDGE('',*,*,#589,.F.);
#811=ORIENTED_EDGE('',*,*,#597,.T.);
#812=ORIENTED_EDGE('',*,*,#579,.F.);
#813=ORIENTED_EDGE('',*,*,#582,.F.);
#814=ORIENTED_EDGE('',*,*,#559,.F.);
#815=ORIENTED_EDGE('',*,*,#555,.F.);
#816=ORIENTED_EDGE('',*,*,#577,.F.);
#817=ORIENTED_EDGE('',*,*,#576,.F.);
#818=ORIENTED_EDGE('',*,*,#598,.T.);
#819=ORIENTED_EDGE('',*,*,#571,.T.);
#820=ORIENTED_EDGE('',*,*,#598,.F.);
#821=ORIENTED_EDGE('',*,*,#575,.F.);
#822=ORIENTED_EDGE('',*,*,#578,.F.);
#823=ORIENTED_EDGE('',*,*,#556,.F.);
#824=ORIENTED_EDGE('',*,*,#504,.F.);
#825=ORIENTED_EDGE('',*,*,#581,.F.);
#826=ORIENTED_EDGE('',*,*,#580,.F.);
#827=ORIENTED_EDGE('',*,*,#597,.F.);
#828=ORIENTED_EDGE('',*,*,#599,.F.);
#829=ORIENTED_EDGE('',*,*,#590,.F.);
#830=ORIENTED_EDGE('',*,*,#600,.T.);
#831=ORIENTED_EDGE('',*,*,#584,.F.);
#832=ORIENTED_EDGE('',*,*,#600,.F.);
#833=ORIENTED_EDGE('',*,*,#601,.F.);
#834=ORIENTED_EDGE('',*,*,#602,.F.);
#835=ORIENTED_EDGE('',*,*,#603,.F.);
#836=ORIENTED_EDGE('',*,*,#604,.F.);
#837=ORIENTED_EDGE('',*,*,#602,.T.);
#838=ORIENTED_EDGE('',*,*,#605,.F.);
#839=ORIENTED_EDGE('',*,*,#541,.F.);
#840=ORIENTED_EDGE('',*,*,#606,.F.);
#841=ORIENTED_EDGE('',*,*,#601,.T.);
#842=ORIENTED_EDGE('',*,*,#607,.T.);
#843=ORIENTED_EDGE('',*,*,#542,.F.);
#844=ORIENTED_EDGE('',*,*,#605,.T.);
#845=ORIENTED_EDGE('',*,*,#608,.T.);
#846=ORIENTED_EDGE('',*,*,#588,.T.);
#847=ORIENTED_EDGE('',*,*,#609,.T.);
#848=ORIENTED_EDGE('',*,*,#564,.T.);
#849=ORIENTED_EDGE('',*,*,#573,.T.);
#850=ORIENTED_EDGE('',*,*,#609,.F.);
#851=ORIENTED_EDGE('',*,*,#587,.T.);
#852=ORIENTED_EDGE('',*,*,#610,.F.);
#853=ORIENTED_EDGE('',*,*,#565,.F.);
#854=ORIENTED_EDGE('',*,*,#566,.T.);
#855=ORIENTED_EDGE('',*,*,#610,.T.);
#856=ORIENTED_EDGE('',*,*,#586,.T.);
#857=ORIENTED_EDGE('',*,*,#538,.T.);
#858=ORIENTED_EDGE('',*,*,#611,.T.);
#859=ORIENTED_EDGE('',*,*,#612,.F.);
#860=ORIENTED_EDGE('',*,*,#613,.T.);
#861=ORIENTED_EDGE('',*,*,#593,.F.);
#862=ORIENTED_EDGE('',*,*,#614,.F.);
#863=ORIENTED_EDGE('',*,*,#615,.F.);
#864=ORIENTED_EDGE('',*,*,#611,.F.);
#865=ORIENTED_EDGE('',*,*,#592,.F.);
#866=ORIENTED_EDGE('',*,*,#544,.F.);
#867=ORIENTED_EDGE('',*,*,#616,.T.);
#868=ORIENTED_EDGE('',*,*,#487,.T.);
#869=ORIENTED_EDGE('',*,*,#616,.F.);
#870=ORIENTED_EDGE('',*,*,#617,.F.);
#871=ORIENTED_EDGE('',*,*,#618,.T.);
#872=ORIENTED_EDGE('',*,*,#574,.F.);
#873=ORIENTED_EDGE('',*,*,#618,.F.);
#874=ORIENTED_EDGE('',*,*,#613,.F.);
#875=ORIENTED_EDGE('',*,*,#619,.F.);
#876=ORIENTED_EDGE('',*,*,#620,.F.);
#877=ORIENTED_EDGE('',*,*,#594,.F.);
#878=ORIENTED_EDGE('',*,*,#617,.T.);
#879=ORIENTED_EDGE('',*,*,#608,.F.);
#880=ORIENTED_EDGE('',*,*,#621,.T.);
#881=ORIENTED_EDGE('',*,*,#558,.F.);
#882=ORIENTED_EDGE('',*,*,#621,.F.);
#883=ORIENTED_EDGE('',*,*,#599,.T.);
#884=ORIENTED_EDGE('',*,*,#622,.T.);
#885=ORIENTED_EDGE('',*,*,#623,.F.);
#886=ORIENTED_EDGE('',*,*,#622,.F.);
#887=ORIENTED_EDGE('',*,*,#620,.T.);
#888=ORIENTED_EDGE('',*,*,#624,.T.);
#889=ORIENTED_EDGE('',*,*,#614,.T.);
#890=ORIENTED_EDGE('',*,*,#591,.F.);
#891=ORIENTED_EDGE('',*,*,#624,.F.);
#892=ORIENTED_EDGE('',*,*,#619,.T.);
#893=ORIENTED_EDGE('',*,*,#612,.T.);
#894=ORIENTED_EDGE('',*,*,#615,.T.);
#895=ORIENTED_EDGE('',*,*,#603,.T.);
#896=ORIENTED_EDGE('',*,*,#606,.T.);
#897=ORIENTED_EDGE('',*,*,#540,.F.);
#898=ORIENTED_EDGE('',*,*,#625,.F.);
#899=ORIENTED_EDGE('',*,*,#623,.T.);
#900=ORIENTED_EDGE('',*,*,#604,.T.);
#901=ORIENTED_EDGE('',*,*,#625,.T.);
#902=ORIENTED_EDGE('',*,*,#543,.F.);
#903=ORIENTED_EDGE('',*,*,#607,.F.);
#904=PLANE('',#996);
#905=PLANE('',#1007);
#906=PLANE('',#1011);
#907=PLANE('',#1022);
#908=PLANE('',#1025);
#909=PLANE('',#1026);
#910=PLANE('',#1030);
#911=PLANE('',#1035);
#912=PLANE('',#1037);
#913=PLANE('',#1041);
#914=PLANE('',#1047);
#915=PLANE('',#1055);
#916=PLANE('',#1057);
#917=PLANE('',#1058);
#918=PLANE('',#1064);
#919=PLANE('',#1066);
#920=PLANE('',#1068);
#921=PLANE('',#1071);
#922=PLANE('',#1072);
#923=PLANE('',#1073);
#924=PLANE('',#1076);
#925=PLANE('',#1078);
#926=PLANE('',#1079);
#927=PLANE('',#1083);
#928=PLANE('',#1087);
#929=PLANE('',#1088);
#930=PLANE('',#1089);
#931=PLANE('',#1090);
#932=ADVANCED_FACE('',(#237),#904,.F.);
#933=ADVANCED_FACE('',(#238),#215,.F.);
#934=ADVANCED_FACE('',(#239),#216,.T.);
#935=ADVANCED_FACE('',(#240),#217,.F.);
#936=ADVANCED_FACE('',(#241),#905,.F.);
#937=ADVANCED_FACE('',(#242),#218,.T.);
#938=ADVANCED_FACE('',(#243),#906,.T.);
#939=ADVANCED_FACE('',(#244),#219,.T.);
#940=ADVANCED_FACE('',(#245),#220,.F.);
#941=ADVANCED_FACE('',(#246),#907,.T.);
#942=ADVANCED_FACE('',(#247),#908,.T.);
#943=ADVANCED_FACE('',(#248,#15,#16),#909,.F.);
#944=ADVANCED_FACE('',(#249),#221,.T.);
#945=ADVANCED_FACE('',(#250),#910,.F.);
#946=ADVANCED_FACE('',(#251),#222,.T.);
#947=ADVANCED_FACE('',(#252),#223,.F.);
#948=ADVANCED_FACE('',(#253,#17),#911,.F.);
#949=ADVANCED_FACE('',(#254),#912,.F.);
#950=ADVANCED_FACE('',(#255),#224,.T.);
#951=ADVANCED_FACE('',(#256,#18),#913,.F.);
#952=ADVANCED_FACE('',(#257,#19),#914,.T.);
#953=ADVANCED_FACE('',(#258),#225,.F.);
#954=ADVANCED_FACE('',(#259),#226,.F.);
#955=ADVANCED_FACE('',(#260,#20),#915,.T.);
#956=ADVANCED_FACE('',(#261),#916,.T.);
#957=ADVANCED_FACE('',(#262,#21,#22,#23),#917,.F.);
#958=ADVANCED_FACE('',(#263),#227,.F.);
#959=ADVANCED_FACE('',(#264),#918,.T.);
#960=ADVANCED_FACE('',(#265),#228,.T.);
#961=ADVANCED_FACE('',(#266),#919,.T.);
#962=ADVANCED_FACE('',(#267),#229,.F.);
#963=ADVANCED_FACE('',(#268),#920,.F.);
#964=ADVANCED_FACE('',(#269),#230,.F.);
#965=ADVANCED_FACE('',(#270),#921,.T.);
#966=ADVANCED_FACE('',(#271),#922,.F.);
#967=ADVANCED_FACE('',(#272,#24),#923,.F.);
#968=ADVANCED_FACE('',(#273),#231,.T.);
#969=ADVANCED_FACE('',(#274),#924,.T.);
#970=ADVANCED_FACE('',(#275),#232,.T.);
#971=ADVANCED_FACE('',(#276),#925,.F.);
#972=ADVANCED_FACE('',(#277),#926,.F.);
#973=ADVANCED_FACE('',(#278),#233,.F.);
#974=ADVANCED_FACE('',(#279),#234,.F.);
#975=ADVANCED_FACE('',(#280,#25),#927,.F.);
#976=ADVANCED_FACE('',(#281),#235,.F.);
#977=ADVANCED_FACE('',(#282),#236,.F.);
#978=ADVANCED_FACE('',(#283),#928,.F.);
#979=ADVANCED_FACE('',(#284),#929,.T.);
#980=ADVANCED_FACE('',(#285,#26),#930,.T.);
#981=ADVANCED_FACE('',(#286),#931,.F.);
#982=CLOSED_SHELL('',(#932,#933,#934,#935,#936,#937,#938,#939,#940,#941,
#942,#943,#944,#945,#946,#947,#948,#949,#950,#951,#952,#953,#954,#955,#956,
#957,#958,#959,#960,#961,#962,#963,#964,#965,#966,#967,#968,#969,#970,#971,
#972,#973,#974,#975,#976,#977,#978,#979,#980,#981));
#983=DERIVED_UNIT_ELEMENT(#985,1.);
#984=DERIVED_UNIT_ELEMENT(#1665,-3.);
#985=(
MASS_UNIT()
NAMED_UNIT(*)
SI_UNIT(.KILO.,.GRAM.)
);
#986=DERIVED_UNIT((#983,#984));
#987=MEASURE_REPRESENTATION_ITEM('density measure',
POSITIVE_RATIO_MEASURE(7850.),#986);
#988=PROPERTY_DEFINITION_REPRESENTATION(#993,#990);
#989=PROPERTY_DEFINITION_REPRESENTATION(#994,#991);
#990=REPRESENTATION('material name',(#992),#1662);
#991=REPRESENTATION('density',(#987),#1662);
#992=DESCRIPTIVE_REPRESENTATION_ITEM('Steel','Steel');
#993=PROPERTY_DEFINITION('material property','material name',#1672);
#994=PROPERTY_DEFINITION('material property','density of part',#1672);
#995=AXIS2_PLACEMENT_3D('',#1377,#1091,#1092);
#996=AXIS2_PLACEMENT_3D('',#1378,#1093,#1094);
#997=AXIS2_PLACEMENT_3D('',#1380,#1095,#1096);
#998=AXIS2_PLACEMENT_3D('',#1381,#1097,#1098);
#999=AXIS2_PLACEMENT_3D('',#1384,#1099,#1100);
#1000=AXIS2_PLACEMENT_3D('',#1388,#1102,#1103);
#1001=AXIS2_PLACEMENT_3D('',#1390,#1105,#1106);
#1002=AXIS2_PLACEMENT_3D('',#1392,#1107,#1108);
#1003=AXIS2_PLACEMENT_3D('',#1395,#1110,#1111);
#1004=AXIS2_PLACEMENT_3D('',#1396,#1112,#1113);
#1005=AXIS2_PLACEMENT_3D('',#1399,#1114,#1115);
#1006=AXIS2_PLACEMENT_3D('',#1403,#1117,#1118);
#1007=AXIS2_PLACEMENT_3D('',#1405,#1120,#1121);
#1008=AXIS2_PLACEMENT_3D('',#1412,#1125,#1126);
#1009=AXIS2_PLACEMENT_3D('',#1418,#1130,#1131);
#1010=AXIS2_PLACEMENT_3D('',#1420,#1132,#1133);
#1011=AXIS2_PLACEMENT_3D('',#1422,#1135,#1136);
#1012=AXIS2_PLACEMENT_3D('',#1424,#1137,#1138);
#1013=AXIS2_PLACEMENT_3D('',#1430,#1141,#1142);
#1014=AXIS2_PLACEMENT_3D('',#1434,#1144,#1145);
#1015=AXIS2_PLACEMENT_3D('',#1438,#1147,#1148);
#1016=AXIS2_PLACEMENT_3D('',#1440,#1150,#1151);
#1017=AXIS2_PLACEMENT_3D('',#1443,#1152,#1153);
#1018=AXIS2_PLACEMENT_3D('',#1447,#1155,#1156);
#1019=AXIS2_PLACEMENT_3D('',#1449,#1158,#1159);
#1020=AXIS2_PLACEMENT_3D('',#1451,#1160,#1161);
#1021=AXIS2_PLACEMENT_3D('',#1454,#1163,#1164);
#1022=AXIS2_PLACEMENT_3D('',#1455,#1165,#1166);
#1023=AXIS2_PLACEMENT_3D('',#1460,#1169,#1170);
#1024=AXIS2_PLACEMENT_3D('',#1465,#1173,#1174);
#1025=AXIS2_PLACEMENT_3D('',#1466,#1175,#1176);
#1026=AXIS2_PLACEMENT_3D('',#1470,#1179,#1180);
#1027=AXIS2_PLACEMENT_3D('',#1494,#1193,#1194);
#1028=AXIS2_PLACEMENT_3D('',#1495,#1195,#1196);
#1029=AXIS2_PLACEMENT_3D('',#1498,#1197,#1198);
#1030=AXIS2_PLACEMENT_3D('',#1501,#1201,#1202);
#1031=AXIS2_PLACEMENT_3D('',#1510,#1208,#1209);
#1032=AXIS2_PLACEMENT_3D('',#1511,#1210,#1211);
#1033=AXIS2_PLACEMENT_3D('',#1512,#1212,#1213);
#1034=AXIS2_PLACEMENT_3D('',#1515,#1214,#1215);
#1035=AXIS2_PLACEMENT_3D('',#1518,#1218,#1219);
#1036=AXIS2_PLACEMENT_3D('',#1521,#1221,#1222);
#1037=AXIS2_PLACEMENT_3D('',#1522,#1223,#1224);
#1038=AXIS2_PLACEMENT_3D('',#1524,#1226,#1227);
#1039=AXIS2_PLACEMENT_3D('',#1526,#1228,#1229);
#1040=AXIS2_PLACEMENT_3D('',#1529,#1231,#1232);
#1041=AXIS2_PLACEMENT_3D('',#1530,#1233,#1234);
#1042=AXIS2_PLACEMENT_3D('',#1534,#1236,#1237);
#1043=AXIS2_PLACEMENT_3D('',#1537,#1239,#1240);
#1044=AXIS2_PLACEMENT_3D('',#1539,#1241,#1242);
#1045=AXIS2_PLACEMENT_3D('',#1543,#1244,#1245);
#1046=AXIS2_PLACEMENT_3D('',#1546,#1247,#1248);
#1047=AXIS2_PLACEMENT_3D('',#1547,#1249,#1250);
#1048=AXIS2_PLACEMENT_3D('',#1552,#1253,#1254);
#1049=AXIS2_PLACEMENT_3D('',#1553,#1255,#1256);
#1050=AXIS2_PLACEMENT_3D('',#1556,#1257,#1258);
#1051=AXIS2_PLACEMENT_3D('',#1558,#1259,#1260);
#1052=AXIS2_PLACEMENT_3D('',#1561,#1263,#1264);
#1053=AXIS2_PLACEMENT_3D('',#1564,#1265,#1266);
#1054=AXIS2_PLACEMENT_3D('',#1566,#1267,#1268);
#1055=AXIS2_PLACEMENT_3D('',#1569,#1271,#1272);
#1056=AXIS2_PLACEMENT_3D('',#1572,#1274,#1275);
#1057=AXIS2_PLACEMENT_3D('',#1573,#1276,#1277);
#1058=AXIS2_PLACEMENT_3D('',#1575,#1279,#1280);
#1059=AXIS2_PLACEMENT_3D('',#1577,#1281,#1282);
#1060=AXIS2_PLACEMENT_3D('',#1580,#1284,#1285);
#1061=AXIS2_PLACEMENT_3D('',#1582,#1286,#1287);
#1062=AXIS2_PLACEMENT_3D('',#1584,#1288,#1289);
#1063=AXIS2_PLACEMENT_3D('',#1593,#1294,#1295);
#1064=AXIS2_PLACEMENT_3D('',#1595,#1297,#1298);
#1065=AXIS2_PLACEMENT_3D('',#1597,#1300,#1301);
#1066=AXIS2_PLACEMENT_3D('',#1598,#1302,#1303);
#1067=AXIS2_PLACEMENT_3D('',#1599,#1304,#1305);
#1068=AXIS2_PLACEMENT_3D('',#1602,#1308,#1309);
#1069=AXIS2_PLACEMENT_3D('',#1604,#1310,#1311);
#1070=AXIS2_PLACEMENT_3D('',#1605,#1312,#1313);
#1071=AXIS2_PLACEMENT_3D('',#1607,#1315,#1316);
#1072=AXIS2_PLACEMENT_3D('',#1616,#1321,#1322);
#1073=AXIS2_PLACEMENT_3D('',#1619,#1325,#1326);
#1074=AXIS2_PLACEMENT_3D('',#1622,#1328,#1329);
#1075=AXIS2_PLACEMENT_3D('',#1623,#1330,#1331);
#1076=AXIS2_PLACEMENT_3D('',#1625,#1333,#1334);
#1077=AXIS2_PLACEMENT_3D('',#1627,#1336,#1337);
#1078=AXIS2_PLACEMENT_3D('',#1628,#1338,#1339);
#1079=AXIS2_PLACEMENT_3D('',#1634,#1343,#1344);
#1080=AXIS2_PLACEMENT_3D('',#1638,#1347,#1348);
#1081=AXIS2_PLACEMENT_3D('',#1640,#1350,#1351);
#1082=AXIS2_PLACEMENT_3D('',#1642,#1352,#1353);
#1083=AXIS2_PLACEMENT_3D('',#1644,#1355,#1356);
#1084=AXIS2_PLACEMENT_3D('',#1648,#1359,#1360);
#1085=AXIS2_PLACEMENT_3D('',#1650,#1362,#1363);
#1086=AXIS2_PLACEMENT_3D('',#1653,#1365,#1366);
#1087=AXIS2_PLACEMENT_3D('',#1654,#1367,#1368);
#1088=AXIS2_PLACEMENT_3D('',#1656,#1370,#1371);
#1089=AXIS2_PLACEMENT_3D('',#1657,#1372,#1373);
#1090=AXIS2_PLACEMENT_3D('',#1659,#1375,#1376);
#1091=DIRECTION('axis',(0.,0.,1.));
#1092=DIRECTION('refdir',(1.,0.,0.));
#1093=DIRECTION('center_axis',(3.15544362088405E-27,1.51494030547401E-30,
1.));
#1094=DIRECTION('ref_axis',(1.,-4.00796944493954E-14,-3.15544362088405E-27));
#1095=DIRECTION('center_axis',(3.15544362088405E-27,1.51494030547401E-30,
1.));
#1096=DIRECTION('ref_axis',(-1.,-2.84669282358448E-10,-2.21959454892661E-11));
#1097=DIRECTION('center_axis',(6.23822810518186E-17,0.,-1.));
#1098=DIRECTION('ref_axis',(0.866025403786209,0.499999999996934,0.));
#1099=DIRECTION('center_axis',(-2.52435489670685E-29,-2.07012336251833E-13,
-1.));
#1100=DIRECTION('ref_axis',(0.866025403786209,0.499999999996934,0.));
#1101=DIRECTION('',(6.23822810518186E-17,0.,-1.));
#1102=DIRECTION('center_axis',(-7.78169341898305E-14,1.80725874298449E-27,
-1.));
#1103=DIRECTION('ref_axis',(0.866025403786209,0.499999999996934,0.));
#1104=DIRECTION('',(-6.13132611855691E-14,8.62726830606198E-28,1.));
#1105=DIRECTION('center_axis',(6.23822810518186E-17,0.,-1.));
#1106=DIRECTION('ref_axis',(-0.707106781186547,-0.707106781186548,0.));
#1107=DIRECTION('center_axis',(2.52435489670685E-29,2.07012336251833E-13,
1.));
#1108=DIRECTION('ref_axis',(-0.707106781186547,-0.707106781186548,0.));
#1109=DIRECTION('',(6.23822810518186E-17,0.,-1.));
#1110=DIRECTION('center_axis',(7.78169341898305E-14,-1.80725874298449E-27,
1.));
#1111=DIRECTION('ref_axis',(-0.707106781186547,-0.707106781186548,0.));
#1112=DIRECTION('center_axis',(-6.23822810517934E-17,0.,1.));
#1113=DIRECTION('ref_axis',(-0.866025403783082,0.50000000000235,0.));
#1114=DIRECTION('center_axis',(-2.52435489670685E-29,-2.07012336251833E-13,
-1.));
#1115=DIRECTION('ref_axis',(-0.866025403783082,0.50000000000235,0.));
#1116=DIRECTION('',(6.13132611855689E-14,-5.66054446897437E-28,-1.));
#1117=DIRECTION('center_axis',(-7.78169341898305E-14,1.80725874298449E-27,
-1.));
#1118=DIRECTION('ref_axis',(-0.866025403783082,0.50000000000235,0.));
#1119=DIRECTION('',(-6.23822810517934E-17,0.,1.));
#1120=DIRECTION('center_axis',(2.52435489670685E-29,2.07012336251833E-13,
1.));
#1121=DIRECTION('ref_axis',(6.50521293450681E-18,1.,-2.07012336251833E-13));
#1122=DIRECTION('',(-1.40851338958232E-14,-1.,2.07012336251833E-13));
#1123=DIRECTION('',(1.,6.28428114199801E-14,-1.30344807576505E-26));
#1124=DIRECTION('',(9.24157264389018E-15,1.,-2.07012336251833E-13));
#1125=DIRECTION('center_axis',(2.52435489670685E-29,2.07012336251833E-13,
1.));
#1126=DIRECTION('ref_axis',(0.707106781186548,-0.707106781186547,0.));
#1127=DIRECTION('',(1.29139017412554E-29,1.,-2.07012336251833E-13));
#1128=DIRECTION('',(1.,-2.09600964034929E-10,2.08983157575347E-14));
#1129=DIRECTION('',(-1.29139017412554E-29,-1.,2.07012336251833E-13));
#1130=DIRECTION('center_axis',(-6.23822810517934E-17,0.,1.));
#1131=DIRECTION('ref_axis',(0.707106781186548,-0.707106781186547,0.));
#1132=DIRECTION('center_axis',(7.78169341898305E-14,-1.80725874298449E-27,
1.));
#1133=DIRECTION('ref_axis',(0.707106781186548,-0.707106781186547,0.));
#1134=DIRECTION('',(-6.23822810517934E-17,0.,1.));
#1135=DIRECTION('center_axis',(-1.,6.50454334345085E-18,-6.23822810518186E-17));
#1136=DIRECTION('ref_axis',(-6.23822810518186E-17,6.61447983171372E-17,
1.));
#1137=DIRECTION('center_axis',(1.,-6.50454334345085E-18,6.23822810518439E-17));
#1138=DIRECTION('ref_axis',(1.35996845573234E-17,0.993432317113426,-0.114421288730067));
#1139=DIRECTION('',(-6.50454334346376E-18,-1.,2.07012336251833E-13));
#1140=DIRECTION('',(6.23822810518944E-17,-2.89645825786502E-13,-1.));
#1141=DIRECTION('center_axis',(1.,-6.50454334345085E-18,6.23822810518186E-17));
#1142=DIRECTION('ref_axis',(7.85046229341854E-15,0.707106781186518,-0.707106781186577));
#1143=DIRECTION('',(-6.50454334344454E-18,-1.,1.8705775851843E-14));
#1144=DIRECTION('center_axis',(-1.,6.50454334344454E-18,-6.2382281051339E-17));
#1145=DIRECTION('ref_axis',(6.23822810513571E-17,-6.61447983171372E-17,
-1.));
#1146=DIRECTION('',(-6.23822810518186E-17,6.61447983171372E-17,1.));
#1147=DIRECTION('center_axis',(1.,-6.50454334345085E-18,6.23822810518186E-17));
#1148=DIRECTION('ref_axis',(-6.23822810518279E-17,7.11204183743233E-14,
1.));
#1149=DIRECTION('',(0.,-1.,0.));
#1150=DIRECTION('center_axis',(-1.,1.05323330602952E-13,0.));
#1151=DIRECTION('ref_axis',(0.,0.,1.));
#1152=DIRECTION('center_axis',(-1.,6.50454334345085E-18,-6.23822810517934E-17));
#1153=DIRECTION('ref_axis',(0.,0.,1.));
#1154=DIRECTION('',(-1.,1.05323330602952E-13,0.));
#1155=DIRECTION('center_axis',(1.,-9.24157264340542E-15,6.12022388831143E-14));
#1156=DIRECTION('ref_axis',(0.,0.,1.));
#1157=DIRECTION('',(1.,-1.05323330602952E-13,0.));
#1158=DIRECTION('center_axis',(-1.,4.00796944493954E-14,7.78169341898305E-14));
#1159=DIRECTION('ref_axis',(8.32149003102395E-14,0.707106781186542,0.707106781186553));
#1160=DIRECTION('center_axis',(-1.,9.24157264387749E-15,-6.13132611855689E-14));
#1161=DIRECTION('ref_axis',(8.32149003102395E-14,0.707106781186542,0.707106781186553));
#1162=DIRECTION('',(1.,-4.00796944493954E-14,-7.78169341898305E-14));
#1163=DIRECTION('center_axis',(-1.,9.24157264340542E-15,-6.12022388831143E-14));
#1164=DIRECTION('ref_axis',(8.32149003102395E-14,0.707106781186542,0.707106781186553));
#1165=DIRECTION('center_axis',(1.,-6.50454334345085E-18,6.23822810517934E-17));
#1166=DIRECTION('ref_axis',(6.23822810517934E-17,-6.61447983171372E-17,
-1.));
#1167=DIRECTION('',(6.50454334345085E-18,1.,6.77988483177575E-28));
#1168=DIRECTION('',(4.00796944493954E-14,1.,-1.51609205219807E-30));
#1169=DIRECTION('center_axis',(-1.,6.50454334345085E-18,-6.23822810517934E-17));
#1170=DIRECTION('ref_axis',(7.06541606407668E-15,0.707106781186518,-0.707106781186577));
#1171=DIRECTION('',(-6.13132611855689E-14,6.07406287448972E-28,1.));
#1172=DIRECTION('',(6.50454334346376E-18,1.,-2.07012336251833E-13));
#1173=DIRECTION('center_axis',(-1.,6.50454334345085E-18,-6.23822810517934E-17));
#1174=DIRECTION('ref_axis',(6.76037426358417E-19,-0.993432317113546,-0.114421288729027));
#1175=DIRECTION('center_axis',(0.,0.,-1.));
#1176=DIRECTION('ref_axis',(-1.,0.,0.));
#1177=DIRECTION('',(4.00796944493954E-14,1.,2.42821247389062E-30));
#1178=DIRECTION('',(-1.,9.9066054505014E-15,0.));
#1179=DIRECTION('center_axis',(7.78169341898305E-14,-1.80725874298449E-27,
1.));
#1180=DIRECTION('ref_axis',(1.,-3.86588806285076E-14,-7.78169341898305E-14));
#1181=DIRECTION('',(9.24157264387749E-15,1.,1.08810789274536E-27));
#1182=DIRECTION('',(-1.,1.49741227698377E-14,7.78169341898305E-14));
#1183=DIRECTION('',(-9.87443113578867E-15,-1.,-1.48478276464827E-41));
#1184=DIRECTION('',(1.,-4.00796944493954E-14,-7.78169341898305E-14));
#1185=DIRECTION('',(-1.,3.99559369582157E-14,0.));
#1186=DIRECTION('',(-9.24157264340139E-15,-1.,-1.08810789278239E-27));
#1187=DIRECTION('',(1.,3.23410212364657E-27,-7.78169341898305E-14));
#1188=DIRECTION('',(6.50521293451312E-18,1.,4.15603898729439E-14));
#1189=DIRECTION('',(3.86588806285076E-14,1.,-1.20105682673658E-27));
#1190=DIRECTION('',(-1.,3.86588806285076E-14,7.78169341898305E-14));
#1191=DIRECTION('',(-3.86588806285076E-14,-1.,1.20105682673658E-27));
#1192=DIRECTION('',(1.,-3.86588806285076E-14,-7.78169341898305E-14));
#1193=DIRECTION('center_axis',(7.78169341898305E-14,-1.80725874298449E-27,
1.));
#1194=DIRECTION('ref_axis',(-1.,-2.84669282358448E-10,-2.21959454892661E-11));
#1195=DIRECTION('center_axis',(1.,-9.9066054505014E-15,0.));
#1196=DIRECTION('ref_axis',(7.85046229341854E-15,0.707106781186518,-0.707106781186577));
#1197=DIRECTION('center_axis',(-1.,9.24157264340139E-15,-3.86164530304403E-16));
#1198=DIRECTION('ref_axis',(7.85046229341854E-15,0.707106781186518,-0.707106781186577));
#1199=DIRECTION('',(-1.,9.9066054505014E-15,0.));
#1200=DIRECTION('',(1.,-9.9066054505014E-15,0.));
#1201=DIRECTION('center_axis',(-9.9066054505014E-15,-1.,0.));
#1202=DIRECTION('ref_axis',(0.,0.,-1.));
#1203=DIRECTION('',(-1.,9.9066054505014E-15,-2.02554598966637E-27));
#1204=DIRECTION('',(1.,-9.9066054505014E-15,0.));
#1205=DIRECTION('',(6.12022388831143E-14,-6.06306433302349E-28,-1.));
#1206=DIRECTION('',(-1.,9.9066054505014E-15,-6.12022388831144E-14));
#1207=DIRECTION('',(-3.86164530304403E-16,3.82557964070391E-30,1.));
#1208=DIRECTION('center_axis',(1.,-9.9066054505014E-15,0.));
#1209=DIRECTION('ref_axis',(7.06541606407668E-15,0.707106781186518,-0.707106781186577));
#1210=DIRECTION('center_axis',(1.,-9.24157264340542E-15,6.12022388831143E-14));
#1211=DIRECTION('ref_axis',(7.06541606407668E-15,0.707106781186518,-0.707106781186577));
#1212=DIRECTION('center_axis',(-1.,0.,0.));
#1213=DIRECTION('ref_axis',(0.,0.993432317113426,-0.114421288730067));
#1214=DIRECTION('center_axis',(1.,-1.40851338958105E-14,6.13132611855691E-14));
#1215=DIRECTION('ref_axis',(-6.13132611855881E-14,6.61447166231737E-17,
1.));
#1216=DIRECTION('',(-1.,-2.09610760120441E-10,-2.08983157575347E-14));
#1217=DIRECTION('',(1.,-2.09600964034929E-10,2.08983157575347E-14));
#1218=DIRECTION('center_axis',(1.,-1.40851338958105E-14,6.13132611855691E-14));
#1219=DIRECTION('ref_axis',(-1.40851338958133E-14,-1.,4.68395492316249E-14));
#1220=DIRECTION('',(3.33953290693296E-14,-0.707106781186549,-0.707106781186546));
#1221=DIRECTION('center_axis',(1.,-1.40916391088455E-14,6.13756434680685E-14));
#1222=DIRECTION('ref_axis',(-6.13756434680686E-14,-1.69618395333008E-15,
1.));
#1223=DIRECTION('center_axis',(2.52435489670685E-29,2.07012336251833E-13,
1.));
#1224=DIRECTION('ref_axis',(6.50521293450681E-18,1.,-2.07012336251833E-13));
#1225=DIRECTION('',(-1.,-2.09610760120441E-10,-2.08983157575347E-14));
#1226=DIRECTION('center_axis',(-1.,9.9066054505014E-15,-6.12022388831144E-14));
#1227=DIRECTION('ref_axis',(-3.61121265497258E-14,0.707106781186558,0.707106781186537));
#1228=DIRECTION('center_axis',(1.,-9.24157264340542E-15,6.12022388831143E-14));
#1229=DIRECTION('ref_axis',(-3.61121265497258E-14,0.707106781186558,0.707106781186537));
#1230=DIRECTION('',(1.,-9.9066054505014E-15,6.12022388831144E-14));
#1231=DIRECTION('center_axis',(-1.,9.24157264340139E-15,-3.86164530304403E-16));
#1232=DIRECTION('ref_axis',(-3.61121265497258E-14,0.707106781186558,0.707106781186537));
#1233=DIRECTION('center_axis',(-1.,9.24157264340139E-15,-3.86164530304403E-16));
#1234=DIRECTION('ref_axis',(9.24157264340139E-15,1.,-6.94197806383321E-29));
#1235=DIRECTION('',(9.2415726434014E-15,1.,-4.67285269291538E-14));
#1236=DIRECTION('center_axis',(-1.,9.24157264340139E-15,-3.86164530304403E-16));
#1237=DIRECTION('ref_axis',(-4.34392246902534E-14,-0.707106781186551,0.707106781186544));
#1238=DIRECTION('',(3.86164530304787E-16,4.15603898729439E-14,-1.));
#1239=DIRECTION('center_axis',(-1.,9.24157264340139E-15,-3.86164530304403E-16));
#1240=DIRECTION('ref_axis',(-5.44298719010365E-14,-0.707106781186534,-0.707106781186561));
#1241=DIRECTION('center_axis',(-1.,4.00796944493954E-14,0.));
#1242=DIRECTION('ref_axis',(8.32149003102395E-14,0.707106781186543,0.707106781186553));
#1243=DIRECTION('',(0.,0.,-1.));
#1244=DIRECTION('center_axis',(1.,-4.00796944493954E-14,0.));
#1245=DIRECTION('ref_axis',(-2.82616642563078E-14,-0.707106781186543,-0.707106781186553));
#1246=DIRECTION('',(4.00796944493954E-14,1.,-1.51609205221444E-30));
#1247=DIRECTION('center_axis',(1.,-9.24157264340139E-15,3.86164530304403E-16));
#1248=DIRECTION('ref_axis',(-3.86164530453325E-16,6.61447166234669E-17,
1.));
#1249=DIRECTION('center_axis',(-6.12022388831139E-14,4.67285269291544E-14,
1.));
#1250=DIRECTION('ref_axis',(1.40851338953413E-14,1.,-4.67285269291535E-14));
#1251=DIRECTION('',(9.24157264340828E-15,1.,-4.67285269291538E-14));
#1252=DIRECTION('',(-1.,2.54358890907926E-27,-6.12022388831139E-14));
#1253=DIRECTION('center_axis',(-6.12022388831139E-14,4.67285269291544E-14,
1.));
#1254=DIRECTION('ref_axis',(-3.86588806285113E-14,-1.,-4.67285269291461E-14));
#1255=DIRECTION('center_axis',(-1.,2.22044604925031E-14,0.));
#1256=DIRECTION('ref_axis',(-4.95032033360898E-27,-2.22876463381439E-13,
-1.));
#1257=DIRECTION('center_axis',(1.,-1.40851338958105E-14,6.13132611855691E-14));
#1258=DIRECTION('ref_axis',(-6.13132611855881E-14,6.61447166231737E-17,
1.));
#1259=DIRECTION('center_axis',(1.,-1.40851338958105E-14,6.13132611855691E-14));
#1260=DIRECTION('ref_axis',(-6.13132611855881E-14,6.61447166231737E-17,
1.));
#1261=DIRECTION('',(-1.,-2.09610760120441E-10,-2.08983157575347E-14));
#1262=DIRECTION('',(1.,-2.09600964034929E-10,2.08983157575347E-14));
#1263=DIRECTION('center_axis',(1.,-1.11022302462516E-14,0.));
#1264=DIRECTION('ref_axis',(-2.35955029316825E-27,-2.12463251704867E-13,
-1.));
#1265=DIRECTION('center_axis',(-1.,9.24157264387749E-15,-6.13132611855689E-14));
#1266=DIRECTION('ref_axis',(-6.13132611855881E-14,6.61447166231737E-17,
1.));
#1267=DIRECTION('center_axis',(-1.,9.24157264387749E-15,-6.13132611855689E-14));
#1268=DIRECTION('ref_axis',(-6.13132611855881E-14,6.61447166231737E-17,
1.));
#1269=DIRECTION('',(1.,-2.09600964034929E-10,2.08983157575347E-14));
#1270=DIRECTION('',(-1.,-2.09610760120441E-10,-2.08983157575347E-14));
#1271=DIRECTION('center_axis',(1.,-9.24157264387749E-15,6.13132611855689E-14));
#1272=DIRECTION('ref_axis',(6.13132611855684E-14,-4.68395492316257E-14,
-1.));
#1273=DIRECTION('',(-3.68202440756637E-14,0.707106781186549,0.707106781186546));
#1274=DIRECTION('center_axis',(-1.,9.24807785691229E-15,-6.13756434680686E-14));
#1275=DIRECTION('ref_axis',(6.13756434680686E-14,1.69618390039051E-15,-1.));
#1276=DIRECTION('center_axis',(0.,0.,-1.));
#1277=DIRECTION('ref_axis',(-1.,0.,0.));
#1278=DIRECTION('',(-1.,2.22044604925031E-14,0.));
#1279=DIRECTION('center_axis',(1.,-9.24157264340542E-15,6.12022388831143E-14));
#1280=DIRECTION('ref_axis',(6.12022388831139E-14,-4.67285269291544E-14,
-1.));
#1281=DIRECTION('center_axis',(1.,-9.24157264340542E-15,6.12022388831143E-14));
#1282=DIRECTION('ref_axis',(-5.44298719010365E-14,-0.707106781186534,-0.707106781186561));
#1283=DIRECTION('',(6.12022388831147E-14,4.15603898729439E-14,-1.));
#1284=DIRECTION('center_axis',(1.,-9.24157264340542E-15,6.12022388831143E-14));
#1285=DIRECTION('ref_axis',(-4.34392246902534E-14,-0.707106781186551,0.707106781186544));
#1286=DIRECTION('center_axis',(1.,-9.24157264340542E-15,6.12022388831143E-14));
#1287=DIRECTION('ref_axis',(-6.12022388830221E-14,6.61447166231743E-17,
1.));
#1288=DIRECTION('center_axis',(1.,-9.24157264340542E-15,6.12022388831143E-14));
#1289=DIRECTION('ref_axis',(5.26327952414889E-14,1.69618390039059E-15,-1.));
#1290=DIRECTION('',(6.12022388831143E-14,1.05102030751126E-25,-1.));
#1291=DIRECTION('',(9.24157264340542E-15,1.,5.56982651190394E-28));
#1292=DIRECTION('',(-6.12022388831143E-14,3.61324016730307E-27,1.));
#1293=DIRECTION('',(-9.24157264340543E-15,-1.,2.35693667386403E-16));
#1294=DIRECTION('center_axis',(1.,-4.00796944493954E-14,-7.78169341898305E-14));
#1295=DIRECTION('ref_axis',(8.32149003102395E-14,0.707106781186543,0.707106781186553));
#1296=DIRECTION('',(-1.,2.22044604925031E-14,0.));
#1297=DIRECTION('center_axis',(-4.00796944493954E-14,-1.,0.));
#1298=DIRECTION('ref_axis',(-1.,4.00796944493954E-14,3.78653234506086E-28));
#1299=DIRECTION('',(-1.,2.22044604925031E-14,0.));
#1300=DIRECTION('center_axis',(-1.,4.00796944493954E-14,0.));
#1301=DIRECTION('ref_axis',(-2.82616642563078E-14,-0.707106781186543,-0.707106781186553));
#1302=DIRECTION('center_axis',(-4.44365781039045E-14,0.707106781186546,
-0.707106781186549));
#1303=DIRECTION('ref_axis',(-1.,0.,6.28428114199929E-14));
#1304=DIRECTION('center_axis',(1.,4.81096644004235E-15,-1.8198373178772E-9));
#1305=DIRECTION('ref_axis',(1.8198373178772E-9,6.6144725378645E-17,1.));
#1306=DIRECTION('',(1.,4.81096644004235E-15,-1.8198373178772E-9));
#1307=DIRECTION('',(1.,4.81096644004235E-15,-1.8198373178772E-9));
#1308=DIRECTION('center_axis',(1.,-6.50454334346347E-18,6.23822810517934E-17));
#1309=DIRECTION('ref_axis',(6.23822810517934E-17,-6.61447983171372E-17,
-1.));
#1310=DIRECTION('center_axis',(1.,-6.50454334346347E-18,6.23822810517934E-17));
#1311=DIRECTION('ref_axis',(-1.57361315989402E-29,-1.69618395333277E-15,
1.));
#1312=DIRECTION('center_axis',(-1.,9.04626168213091E-15,-5.26327952414889E-14));
#1313=DIRECTION('ref_axis',(5.26327952414889E-14,1.69618390039059E-15,-1.));
#1314=DIRECTION('',(1.,-9.04626168213091E-15,5.26327952414889E-14));
#1315=DIRECTION('center_axis',(0.,0.,-1.));
#1316=DIRECTION('ref_axis',(-1.,0.,0.));
#1317=DIRECTION('',(-9.24157264387764E-15,-1.,-1.69858654380549E-41));
#1318=DIRECTION('',(-1.,3.86588806285076E-14,0.));
#1319=DIRECTION('',(9.24157264411369E-15,1.,1.69858654380489E-41));
#1320=DIRECTION('',(1.,-3.86588806285076E-14,0.));
#1321=DIRECTION('center_axis',(3.86588806285076E-14,1.,-1.20105305415063E-27));
#1322=DIRECTION('ref_axis',(-1.,3.86588806285076E-14,7.78169341898305E-14));
#1323=DIRECTION('',(2.52435489670724E-29,-1.72191555296234E-41,1.));
#1324=DIRECTION('',(1.66533453273128E-16,-1.66533453706252E-16,-1.));
#1325=DIRECTION('center_axis',(-1.,9.24157264387764E-15,-5.55111508186773E-17));
#1326=DIRECTION('ref_axis',(5.55111508186773E-17,-5.55111512348886E-17,
-1.));
#1327=DIRECTION('',(1.11022302045909E-16,-5.55111512348891E-17,-1.));
#1328=DIRECTION('center_axis',(-1.,1.40916391088455E-14,-6.13756434680685E-14));
#1329=DIRECTION('ref_axis',(-6.13756434680685E-14,-1.69618395333008E-15,
1.));
#1330=DIRECTION('center_axis',(-1.,2.54358890907926E-27,-6.12022388831139E-14));
#1331=DIRECTION('ref_axis',(-4.34392246902534E-14,-0.707106781186551,0.707106781186544));
#1332=DIRECTION('',(1.,-2.54358890907926E-27,6.12022388831139E-14));
#1333=DIRECTION('center_axis',(0.,-1.,-4.15603898729439E-14));
#1334=DIRECTION('ref_axis',(6.23822815235701E-17,4.15603898729439E-14,-1.));
#1335=DIRECTION('',(-1.,-3.23410212364657E-27,7.78169341898305E-14));
#1336=DIRECTION('center_axis',(1.,3.23410212364657E-27,-7.78169341898305E-14));
#1337=DIRECTION('ref_axis',(-5.44298719010365E-14,-0.707106781186534,-0.707106781186561));
#1338=DIRECTION('center_axis',(5.61038129082854E-15,1.,-3.26987227131642E-27));
#1339=DIRECTION('ref_axis',(-6.12577500343417E-14,3.6135478739973E-27,1.));
#1340=DIRECTION('',(1.,-5.61038129082855E-15,5.98851463838325E-14));
#1341=DIRECTION('',(6.02692499082225E-14,0.,-1.));
#1342=DIRECTION('',(-1.,0.,0.));
#1343=DIRECTION('center_axis',(6.02692499082225E-14,0.,-1.));
#1344=DIRECTION('ref_axis',(-1.,0.,-6.02692499082225E-14));
#1345=DIRECTION('',(-1.,5.61038129082855E-15,-5.98851463838325E-14));
#1346=DIRECTION('',(-3.86588806285076E-14,-1.,1.2857742337994E-27));
#1347=DIRECTION('center_axis',(-2.21959454892332E-11,-1.15590579846701E-13,
1.));
#1348=DIRECTION('ref_axis',(-1.,-2.84669282358448E-10,-2.21959454892661E-11));
#1349=DIRECTION('',(-2.21959454892332E-11,-1.15590579846701E-13,1.));
#1350=DIRECTION('center_axis',(2.16836107262774E-13,-4.67285269291544E-14,
1.));
#1351=DIRECTION('ref_axis',(-3.86588806285113E-14,-1.,-4.67285269291461E-14));
#1352=DIRECTION('center_axis',(6.00585509687865E-14,-2.35693667386958E-16,
-1.));
#1353=DIRECTION('ref_axis',(-3.86588806285113E-14,-1.,-4.67285269291461E-14));
#1354=DIRECTION('',(2.16836107262774E-13,-4.67285269291545E-14,1.));
#1355=DIRECTION('center_axis',(-6.00585509687865E-14,2.35693667386958E-16,
1.));
#1356=DIRECTION('ref_axis',(1.36472676505217E-11,-1.,2.35693668206593E-16));
#1357=DIRECTION('',(3.86588806285076E-14,1.,-2.35693667384636E-16));
#1358=DIRECTION('',(1.,-5.61038129082854E-15,6.00585509687865E-14));
#1359=DIRECTION('center_axis',(1.,-1.40238697847388E-14,7.47939721852737E-14));
#1360=DIRECTION('ref_axis',(-7.47939721852737E-14,-1.69618395332989E-15,
1.));
#1361=DIRECTION('',(-1.,1.40238697847388E-14,-7.47939721852737E-14));
#1362=DIRECTION('center_axis',(1.,-9.27947602671773E-15,0.));
#1363=DIRECTION('ref_axis',(-1.57361315989402E-29,-1.69618395333277E-15,
1.));
#1364=DIRECTION('',(-1.,9.27947602671773E-15,0.));
#1365=DIRECTION('center_axis',(-1.,9.24157264411369E-15,-1.11022302045909E-16));
#1366=DIRECTION('ref_axis',(9.50741736813217E-30,-1.69618395333277E-15,
1.));
#1367=DIRECTION('center_axis',(-5.61038129082854E-15,-1.,-1.05445398647113E-25));
#1368=DIRECTION('ref_axis',(-2.98780267314108E-11,2.73072524559925E-25,
-1.));
#1369=DIRECTION('',(5.71861856045886E-14,1.05124562341303E-25,-1.));
#1370=DIRECTION('center_axis',(-1.,3.86588806285076E-14,-5.71861856045886E-14));
#1371=DIRECTION('ref_axis',(-5.71861856045886E-14,3.45615201902345E-27,
1.));
#1372=DIRECTION('center_axis',(-1.,9.24157264411369E-15,-1.11022302045909E-16));
#1373=DIRECTION('ref_axis',(1.11022302045909E-16,-1.1102230247057E-16,-1.));
#1374=DIRECTION('',(1.66533453273128E-16,-1.66533453706252E-16,-1.));
#1375=DIRECTION('center_axis',(-3.86588806285076E-14,-1.,1.20105305415063E-27));
#1376=DIRECTION('ref_axis',(1.,-3.86588806285076E-14,-7.78169341898305E-14));
#1377=CARTESIAN_POINT('',(0.,0.,0.));
#1378=CARTESIAN_POINT('Origin',(15.9870496553945,-29.0402301429825,-455.96286486536));
#1379=CARTESIAN_POINT('',(17.8870496553996,-29.0402301424456,-455.962864865318));
#1380=CARTESIAN_POINT('Origin',(15.9870496553996,-29.0402301429864,-455.96286486536));
#1381=CARTESIAN_POINT('Origin',(13.4870496471619,-4.8281580114861,-458.975364865397));
#1382=CARTESIAN_POINT('',(14.2370496471711,-3.52911990581474,-451.537864865383));
#1383=CARTESIAN_POINT('',(14.9870496471615,-4.82815801148612,-451.537864865384));
#1384=CARTESIAN_POINT('Origin',(13.4870496471619,-4.8281580114861,-451.537864865383));
#1385=CARTESIAN_POINT('',(14.2370496471711,-3.52911990581474,-459.787864865389));
#1386=CARTESIAN_POINT('',(14.2370496471711,-3.52911990581474,-458.975364865397));
#1387=CARTESIAN_POINT('',(14.9870496471621,-4.82815801148612,-459.787864865388));
#1388=CARTESIAN_POINT('Origin',(13.4870496471619,-4.8281580114861,-459.787864865389));
#1389=CARTESIAN_POINT('',(14.9870496471619,-4.82815801148612,-458.975364865397));
#1390=CARTESIAN_POINT('Origin',(14.9870496471803,-2.23008180014338,-458.975364865397));
#1391=CARTESIAN_POINT('',(13.4870496471803,-2.23008180014338,-451.537864865384));
#1392=CARTESIAN_POINT('Origin',(14.9870496471803,-2.23008180014338,-451.537864865383));
#1393=CARTESIAN_POINT('',(13.4870496471803,-2.23008180014338,-459.787864865389));
#1394=CARTESIAN_POINT('',(13.4870496471803,-2.23008180014338,-458.975364865397));
#1395=CARTESIAN_POINT('Origin',(14.9870496471803,-2.23008180014338,-459.787864865389));
#1396=CARTESIAN_POINT('Origin',(10.2870496471619,-4.82815801150866,-453.600364865387));
#1397=CARTESIAN_POINT('',(8.78704964716178,-4.82815801150865,-451.537864865384));
#1398=CARTESIAN_POINT('',(9.53704964716895,-3.52911990582794,-451.537864865383));
#1399=CARTESIAN_POINT('Origin',(10.2870496471619,-4.82815801150866,-451.537864865383));
#1400=CARTESIAN_POINT('',(8.78704964716229,-4.82815801150865,-459.787864865388));
#1401=CARTESIAN_POINT('',(8.78704964716191,-4.82815801150865,-453.600364865387));
#1402=CARTESIAN_POINT('',(9.53704964716895,-3.52911990582794,-459.787864865389));
#1403=CARTESIAN_POINT('Origin',(10.2870496471619,-4.82815801150866,-459.787864865389));
#1404=CARTESIAN_POINT('',(9.53704964716895,-3.52911990582794,-453.600364865387));
#1405=CARTESIAN_POINT('Origin',(13.5870496471805,-9.03060880014138,-451.537864865383));
#1406=CARTESIAN_POINT('',(14.9870496471805,-10.5306088001412,-451.537864865383));
#1407=CARTESIAN_POINT('',(14.9870496471616,0.969391199853832,-451.537864865385));
#1408=CARTESIAN_POINT('',(8.78704964718059,-10.5306088001415,-451.537864865383));
#1409=CARTESIAN_POINT('',(15.1120496471711,-10.5306088001411,-451.537864865383));
#1410=CARTESIAN_POINT('',(8.78704964716175,-9.03060880014576,-451.537864865383));
#1411=CARTESIAN_POINT('',(10.2870496471759,-2.23008180014722,-451.537864865384));
#1412=CARTESIAN_POINT('Origin',(8.78704964717599,-2.23008180014722,-451.537864865383));
#1413=CARTESIAN_POINT('',(10.287049647176,4.87996661927738,-451.537864865387));
#1414=CARTESIAN_POINT('',(10.2870496471759,-5.38034530014345,-451.537864865384));
#1415=CARTESIAN_POINT('',(13.4870496471803,4.87996661928136,-451.537864865387));
#1416=CARTESIAN_POINT('',(11.8870496471714,4.87996661891719,-451.537864865386));
#1417=CARTESIAN_POINT('',(13.4870496471803,-5.38034530014046,-451.537864865384));
#1418=CARTESIAN_POINT('Origin',(8.78704964717599,-2.23008180014722,-453.600364865387));
#1419=CARTESIAN_POINT('',(10.287049647176,-2.23008180014722,-459.787864865388));
#1420=CARTESIAN_POINT('Origin',(8.78704964717599,-2.23008180014722,-459.787864865389));
#1421=CARTESIAN_POINT('',(10.287049647176,-2.23008180014722,-453.600364865387));
#1422=CARTESIAN_POINT('Origin',(13.4870496471803,5.50491819985453,-458.162864865406));
#1423=CARTESIAN_POINT('',(13.4870496471803,8.05895003404444,-451.537864865387));
#1424=CARTESIAN_POINT('Origin',(13.4870496471802,6.4694583266629,-451.354790803419));
#1425=CARTESIAN_POINT('',(13.4870496471803,12.2699181998524,-451.537864865387));
#1426=CARTESIAN_POINT('',(13.4870496471803,-1.76284530014274,-451.537864865384));
#1427=CARTESIAN_POINT('',(13.4870496471803,12.2699181998492,-462.787864865425));
#1428=CARTESIAN_POINT('',(13.4870496471803,12.2699181998486,-464.787864865426));
#1429=CARTESIAN_POINT('',(13.4870496471802,10.2699181998448,-464.787864865426));
#1430=CARTESIAN_POINT('Origin',(13.4870496471803,10.2699181998448,-462.787864865425));
#1431=CARTESIAN_POINT('',(13.4870496471803,2.26991832174605,-464.787864865425));
#1432=CARTESIAN_POINT('',(13.4870496471802,2.7399181998527,-464.787864865425));
#1433=CARTESIAN_POINT('',(13.4870496471803,0.269918321746019,-462.787864865425));
#1434=CARTESIAN_POINT('Origin',(13.4870496471803,2.26991832174605,-462.787864865425));
#1435=CARTESIAN_POINT('',(13.4870496471803,0.269918321746161,-461.787864865388));
#1436=CARTESIAN_POINT('',(13.4870496471803,0.269918321746019,-462.787864865425));
#1437=CARTESIAN_POINT('',(13.4870496471803,-1.73008180013955,-459.787864865389));
#1438=CARTESIAN_POINT('Origin',(13.4870496471803,-1.73008167825401,-461.787864865389));
#1439=CARTESIAN_POINT('',(13.4870496471803,-1.73008180013955,-459.787864865389));
#1440=CARTESIAN_POINT('Origin',(14.7870496471634,9.46372349464312,-452.787864865425));
#1441=CARTESIAN_POINT('',(10.2870496471645,9.4637234946436,-464.787864865425));
#1442=CARTESIAN_POINT('',(10.287049647162,0.271890384819825,-460.50215057968));
#1443=CARTESIAN_POINT('Origin',(10.2870496471764,9.4637234946436,-452.787864865425));
#1444=CARTESIAN_POINT('',(5.98550964715886,0.271890384820232,-460.50215057968));
#1445=CARTESIAN_POINT('',(14.7870496471625,0.271890384819289,-460.50215057968));
#1446=CARTESIAN_POINT('',(5.98550964716091,9.46372349464405,-464.787864865426));
#1447=CARTESIAN_POINT('Origin',(5.98550964716093,9.46372349464405,-452.787864865425));
#1448=CARTESIAN_POINT('',(14.7870496471634,9.46372349464312,-464.787864865426));
#1449=CARTESIAN_POINT('Origin',(14.787049647163,-1.26008180015135,-461.787864865389));
#1450=CARTESIAN_POINT('',(10.287049647176,-1.26008180015113,-459.787864865388));
#1451=CARTESIAN_POINT('Origin',(10.287049647162,-1.26008180015118,-461.787864865388));
#1452=CARTESIAN_POINT('',(5.98550964717276,-1.260081800151,-459.787864865387));
#1453=CARTESIAN_POINT('',(14.7870496471632,-1.26008180015135,-459.787864865388));
#1454=CARTESIAN_POINT('Origin',(5.98550964715892,-1.260081800151,-461.787864865388));
#1455=CARTESIAN_POINT('Origin',(10.287049647176,5.50491819985083,-455.662864865387));
#1456=CARTESIAN_POINT('',(10.287049647176,2.12241819984986,-459.787864865388));
#1457=CARTESIAN_POINT('',(10.2870496471645,10.2699181998449,-464.787864865425));
#1458=CARTESIAN_POINT('',(10.2870496471646,12.2699181998487,-464.787864865425));
#1459=CARTESIAN_POINT('',(10.2870496471626,12.2699181998449,-462.787864865425));
#1460=CARTESIAN_POINT('Origin',(10.287049647176,10.2699181998449,-462.787864865425));
#1461=CARTESIAN_POINT('',(10.287049647176,12.2699181998487,-451.537864865387));
#1462=CARTESIAN_POINT('',(10.2870496471623,12.2699181998449,-456.787864865389));
#1463=CARTESIAN_POINT('',(10.287049647176,8.05895003404061,-451.537864865387));
#1464=CARTESIAN_POINT('',(10.287049647176,-1.76284530014485,-451.537864865384));
#1465=CARTESIAN_POINT('Origin',(10.2870496471759,6.46945832665907,-451.354790803419));
#1466=CARTESIAN_POINT('Origin',(8.08627964716258,6.26991819984866,-464.787864865426));
#1467=CARTESIAN_POINT('',(5.98550964716094,10.2699181998449,-464.787864865426));
#1468=CARTESIAN_POINT('',(5.98550964716054,0.26991819984886,-464.787864865426));
#1469=CARTESIAN_POINT('',(7.08666464716161,10.2699181998449,-464.787864865426));
#1470=CARTESIAN_POINT('Origin',(19.3870496471622,-6.03060880015121,-459.787864865389));
#1471=CARTESIAN_POINT('',(8.78704964716219,-18.7806088001468,-459.787864865388));
#1472=CARTESIAN_POINT('',(8.78704964716227,-7.53060880015123,-459.787864865388));
#1473=CARTESIAN_POINT('',(14.9870496471618,-18.7806088001468,-459.787864865388));
#1474=CARTESIAN_POINT('',(16.6370496471621,-18.7806088001469,-459.787864865389));
#1475=CARTESIAN_POINT('',(14.9870496471622,13.1693911998448,-459.787864865388));
#1476=CARTESIAN_POINT('',(14.9870496471621,-1.7300817392006,-459.787864865389));
#1477=CARTESIAN_POINT('',(18.4627787904714,-1.73008180014338,-459.787864865389));
#1478=CARTESIAN_POINT('',(25.9855079337805,-1.73008167825832,-459.787864865389));
#1479=CARTESIAN_POINT('',(17.5385079337803,-1.73008167825798,-459.787864865389));
#1480=CARTESIAN_POINT('',(25.9855096471582,-37.7300816634589,-459.78786486539));
#1481=CARTESIAN_POINT('',(25.9855096471584,-19.5503835841317,-459.78786486539));
#1482=CARTESIAN_POINT('',(5.98550964717276,-37.7300816634589,-459.787864865388));
#1483=CARTESIAN_POINT('',(12.6862796471672,-37.7300816634589,-459.787864865389));
#1484=CARTESIAN_POINT('',(5.98550964717276,-38.8306086634589,-459.787864865388));
#1485=CARTESIAN_POINT('',(20.0870496471665,-11.8806088001382,-459.787864865389));
#1486=CARTESIAN_POINT('',(20.0870496471665,-6.18060880013843,-459.787864865389));
#1487=CARTESIAN_POINT('',(20.087049647165,-6.15560880014687,-459.787864865389));
#1488=CARTESIAN_POINT('',(17.4870496471651,-6.18060880014227,-459.787864865389));
#1489=CARTESIAN_POINT('',(18.6370496471619,-6.18060880013832,-459.787864865389));
#1490=CARTESIAN_POINT('',(17.4870496471651,-11.8806088001423,-459.787864865389));
#1491=CARTESIAN_POINT('',(17.4870496471636,-6.15560880015087,-459.787864865389));
#1492=CARTESIAN_POINT('',(20.1370496471631,-11.8806088001423,-459.787864865389));
#1493=CARTESIAN_POINT('',(17.8870496554845,-29.0402301424451,-459.787864865425));
#1494=CARTESIAN_POINT('Origin',(15.9870496554845,-29.040230142986,-459.787864865467));
#1495=CARTESIAN_POINT('Origin',(10.8249142188163,10.2699181998449,-462.787864865425));
#1496=CARTESIAN_POINT('',(25.9855096471587,12.2699181998447,-462.787864865425));
#1497=CARTESIAN_POINT('',(25.985507933781,10.2699181998447,-464.787864865426));
#1498=CARTESIAN_POINT('Origin',(25.9855096471587,10.2699181998447,-462.787864865425));
#1499=CARTESIAN_POINT('',(10.8249142188163,10.2699181998449,-464.787864865426));
#1500=CARTESIAN_POINT('',(10.8249142188163,12.2699181998449,-462.787864865425));
#1501=CARTESIAN_POINT('Origin',(6.08704964716062,12.2699181998449,-456.537864865389));
#1502=CARTESIAN_POINT('',(9.88704964717067,12.2699181998449,-451.537864865387));
#1503=CARTESIAN_POINT('',(5.98550964715953,12.2699181998449,-462.787864865425));
#1504=CARTESIAN_POINT('',(7.08666464716163,12.2699181998449,-462.787864865425));
#1505=CARTESIAN_POINT('',(5.98550964715869,12.2699181998449,-449.03786486539));
#1506=CARTESIAN_POINT('',(5.98550964715916,12.2699181998449,-456.787864865389));
#1507=CARTESIAN_POINT('',(25.9855096471587,12.2699181998447,-449.037864865389));
#1508=CARTESIAN_POINT('',(6.03704964715944,12.2699181998449,-449.03786486539));
#1509=CARTESIAN_POINT('',(25.9855096471587,12.2699181998447,-452.787864865411));
#1510=CARTESIAN_POINT('Origin',(7.08666464716161,10.2699181998449,-462.787864865425));
#1511=CARTESIAN_POINT('Origin',(5.98550964715917,10.2699181998449,-462.787864865425));
#1512=CARTESIAN_POINT('Origin',(14.9870496471802,6.4694583266629,-451.354790803419));
#1513=CARTESIAN_POINT('',(14.9870496471805,4.87996661856086,-451.537864865385));
#1514=CARTESIAN_POINT('',(14.9870496471805,8.05895003474935,-451.537864865386));
#1515=CARTESIAN_POINT('Origin',(14.9870496471616,6.46945832665514,-451.354790809606));
#1516=CARTESIAN_POINT('',(11.8870496471714,8.058950034393,-451.537864865386));
#1517=CARTESIAN_POINT('',(11.8870496471714,4.87996661891719,-451.537864865386));
#1518=CARTESIAN_POINT('Origin',(14.9870496471617,10.969391199849,-452.037864865389));
#1519=CARTESIAN_POINT('',(14.9870496471613,-8.71810880014807,-449.72536486539));
#1520=CARTESIAN_POINT('',(14.9870496471634,-9.03060880014621,-458.437864865388));
#1521=CARTESIAN_POINT('Origin',(14.9870496471634,-9.03060880014621,-456.937864865388));
#1522=CARTESIAN_POINT('Origin',(13.5870496471805,-9.03060880014138,-451.537864865383));
#1523=CARTESIAN_POINT('',(11.8870496471714,8.058950034393,-451.537864865386));
#1524=CARTESIAN_POINT('Origin',(6.03704964715942,10.2699181998449,-449.03786486539));
#1525=CARTESIAN_POINT('',(5.98550964715855,10.269918199845,-447.03786486539));
#1526=CARTESIAN_POINT('Origin',(5.98550964715868,10.2699181998449,-449.03786486539));
#1527=CARTESIAN_POINT('',(25.9855096471587,10.2699181998448,-447.037864865389));
#1528=CARTESIAN_POINT('',(6.03704964715929,10.269918199845,-447.03786486539));
#1529=CARTESIAN_POINT('Origin',(25.9855096471587,10.2699181998447,-449.037864865389));
#1530=CARTESIAN_POINT('Origin',(25.9855096471583,-33.0701583681122,-449.037864865434));
#1531=CARTESIAN_POINT('',(25.9855096471582,-37.730081663459,-447.037864865386));
#1532=CARTESIAN_POINT('',(25.9855096471583,-26.0503835841356,-447.037864865387));
#1533=CARTESIAN_POINT('',(25.9855096471582,-40.7300816634592,-450.037864865386));
#1534=CARTESIAN_POINT('Origin',(25.9855096471583,-37.7300816634592,-450.037864865386));
#1535=CARTESIAN_POINT('',(25.9855096471582,-40.7300816634589,-456.78786486539));
#1536=CARTESIAN_POINT('',(25.9855096471582,-40.7300816634591,-451.725364865411));
#1537=CARTESIAN_POINT('Origin',(25.9855096471577,-37.7300816634589,-456.78786486539));
#1538=CARTESIAN_POINT('',(25.9855079337806,0.269918321741702,-461.787864865389));
#1539=CARTESIAN_POINT('Origin',(25.9855079337803,-1.73008167825832,-461.787864865389));
#1540=CARTESIAN_POINT('',(25.9855079337806,0.269918321741702,-462.787864865425));
#1541=CARTESIAN_POINT('',(25.9855079337806,0.269918321741702,-459.787864865426));
#1542=CARTESIAN_POINT('',(25.9855079337806,2.26991832174168,-464.787864865426));
#1543=CARTESIAN_POINT('Origin',(25.9855079337806,2.26991832174168,-462.787864865425));
#1544=CARTESIAN_POINT('',(25.9855079337806,0.269918321741702,-464.787864865426));
#1545=CARTESIAN_POINT('',(25.9855096471586,6.4694583266552,-452.95479083217));
#1546=CARTESIAN_POINT('Origin',(25.9855096471586,6.4694583266552,-451.35479083217));
#1547=CARTESIAN_POINT('Origin',(5.98704964715828,-19.0306088001589,-447.037864865388));
#1548=CARTESIAN_POINT('',(5.9855096471581,-37.730081663459,-447.037864865387));
#1549=CARTESIAN_POINT('',(5.98550964715832,-14.0306088001589,-447.037864865389));
#1550=CARTESIAN_POINT('',(5.98627964716529,-37.730081663459,-447.037864865388));
#1551=CARTESIAN_POINT('',(15.9870496471526,-27.6402164370772,-447.037864865391));
#1552=CARTESIAN_POINT('Origin',(15.9870496471526,-29.0402164370772,-447.037864865391));
#1553=CARTESIAN_POINT('Origin',(15.0870496471616,6.46945832665514,-451.354790809606));
#1554=CARTESIAN_POINT('',(15.0870496471805,4.87996661856086,-451.537864865385));
#1555=CARTESIAN_POINT('',(15.0870496471617,6.46945832665515,-452.954790809606));
#1556=CARTESIAN_POINT('Origin',(15.0870496471616,6.46945832665514,-451.354790809606));
#1557=CARTESIAN_POINT('',(15.0870496471805,8.05895003474934,-451.537864865386));
#1558=CARTESIAN_POINT('Origin',(15.0870496471616,6.46945832665514,-451.354790809606));
#1559=CARTESIAN_POINT('',(11.8870496471714,8.058950034393,-451.537864865386));
#1560=CARTESIAN_POINT('',(11.8870496471714,4.87996661891719,-451.537864865386));
#1561=CARTESIAN_POINT('Origin',(8.68704964716188,6.46945832665512,-451.354790803419));
#1562=CARTESIAN_POINT('',(8.68704964718059,8.05895003403667,-451.537864865386));
#1563=CARTESIAN_POINT('',(8.68704964716198,6.46945832665512,-452.954790803419));
#1564=CARTESIAN_POINT('Origin',(8.68704964716188,6.46945832665512,-451.354790803419));
#1565=CARTESIAN_POINT('',(8.68704964718059,4.87996661927351,-451.537864865386));
#1566=CARTESIAN_POINT('Origin',(8.68704964716188,6.46945832665512,-451.354790803419));
#1567=CARTESIAN_POINT('',(11.8870496471714,4.87996661891719,-451.537864865386));
#1568=CARTESIAN_POINT('',(11.8870496471714,8.058950034393,-451.537864865386));
#1569=CARTESIAN_POINT('Origin',(8.78704964716208,-9.03060880015133,-457.037864865389));
#1570=CARTESIAN_POINT('',(8.78704964716196,-14.9681088001482,-455.97536486539));
#1571=CARTESIAN_POINT('',(8.78704964716336,-9.03060880014621,-455.437864865388));
#1572=CARTESIAN_POINT('Origin',(8.7870496471635,-9.03060880014621,-456.937864865388));
#1573=CARTESIAN_POINT('Origin',(15.5627787904719,6.26991832174198,-464.787864865426));
#1574=CARTESIAN_POINT('',(15.0870496471638,2.26991832174218,-464.787864865425));
#1575=CARTESIAN_POINT('Origin',(5.98550964715898,-9.03060880015941,-457.037864865389));
#1576=CARTESIAN_POINT('',(5.98550964715867,-40.7300816634589,-456.787864865388));
#1577=CARTESIAN_POINT('Origin',(5.985509647159,-37.7300816634589,-456.787864865388));
#1578=CARTESIAN_POINT('',(5.98550964715826,-40.7300816634592,-450.037864865388));
#1579=CARTESIAN_POINT('',(5.98550964715861,-40.7300816634589,-455.725364865389));
#1580=CARTESIAN_POINT('Origin',(5.98550964715855,-37.7300816634592,-450.037864865388));
#1581=CARTESIAN_POINT('',(5.98550964715887,6.4694583266551,-452.954790795773));
#1582=CARTESIAN_POINT('Origin',(5.98550964715877,6.4694583266551,-451.354790795773));
#1583=CARTESIAN_POINT('',(5.9855096471589,-9.03060880014618,-455.437864865388));
#1584=CARTESIAN_POINT('Origin',(5.98550964715898,-9.03060880014617,-456.937864865388));
#1585=CARTESIAN_POINT('',(5.98550964715851,-31.8902164370762,-452.86286486539));
#1586=CARTESIAN_POINT('',(5.98550964715868,-31.8902164370762,-455.662864865388));
#1587=CARTESIAN_POINT('',(5.98550964715856,-31.8902164370762,-453.700364865389));
#1588=CARTESIAN_POINT('',(5.98550964715874,-26.1902164370763,-455.662864865388));
#1589=CARTESIAN_POINT('',(5.98550964715883,-16.5984126186178,-455.66286486539));
#1590=CARTESIAN_POINT('',(5.98550964715857,-26.1902164370763,-452.86286486539));
#1591=CARTESIAN_POINT('',(5.9855096471587,-26.1902164370763,-455.000364865389));
#1592=CARTESIAN_POINT('',(5.98550964715868,-13.748412618611,-452.86286486539));
#1593=CARTESIAN_POINT('Origin',(18.4627787904713,-1.73008167825802,-461.787864865389));
#1594=CARTESIAN_POINT('',(15.0870496471637,0.269918321742182,-461.787864865388));
#1595=CARTESIAN_POINT('Origin',(17.5385079337806,0.269918321742022,-459.787864865426));
#1596=CARTESIAN_POINT('',(15.0870496471637,0.269918321742182,-462.787864865425));
#1597=CARTESIAN_POINT('Origin',(16.5506433621262,2.26991832174206,-462.787864865425));
#1598=CARTESIAN_POINT('Origin',(16.6370496471622,-17.4056088001469,-458.412864865389));
#1599=CARTESIAN_POINT('Origin',(2.28550874267306,6.46945832665509,-451.35479078904));
#1600=CARTESIAN_POINT('',(2.28550873976132,6.46945832665509,-452.95479078904));
#1601=CARTESIAN_POINT('',(2.28550873976132,6.46945832665509,-452.95479078904));
#1602=CARTESIAN_POINT('Origin',(23.98550964716,-9.03060880015502,-457.037864865388));
#1603=CARTESIAN_POINT('',(23.98550964716,-9.03060880015465,-458.337864865388));
#1604=CARTESIAN_POINT('Origin',(23.98550964716,-9.03060880015463,-456.937864865388));
#1605=CARTESIAN_POINT('Origin',(10.1870496471634,-9.03060880014621,-456.937864865388));
#1606=CARTESIAN_POINT('',(10.1870496471633,-9.03060880014621,-455.437864865388));
#1607=CARTESIAN_POINT('Origin',(17.8870496471605,-11.7806088001547,-453.987864865392));
#1608=CARTESIAN_POINT('',(17.4870496471635,-6.18060880014639,-453.987864865392));
#1609=CARTESIAN_POINT('',(17.4870496471635,-11.8806088001465,-453.987864865392));
#1610=CARTESIAN_POINT('',(17.4870496471622,-11.9118588001528,-453.987864865392));
#1611=CARTESIAN_POINT('',(20.087049647165,-6.18060880014241,-453.987864865392));
#1612=CARTESIAN_POINT('',(17.8870496471614,-6.18060880013829,-453.987864865392));
#1613=CARTESIAN_POINT('',(20.0870496471649,-11.8806088001423,-453.987864865392));
#1614=CARTESIAN_POINT('',(20.0870496471636,-11.9118588001508,-453.987864865392));
#1615=CARTESIAN_POINT('',(17.8870496471612,-11.8806088001422,-453.987864865392));
#1616=CARTESIAN_POINT('Origin',(17.887049647162,-6.18060880013829,-454.287864865392));
#1617=CARTESIAN_POINT('',(17.4870496471635,-6.18060880014639,-454.287864865391));
#1618=CARTESIAN_POINT('',(20.087049647165,-6.18060880014241,-454.287864865391));
#1619=CARTESIAN_POINT('Origin',(17.4870496471622,-12.043108800151,-482.661506623911));
#1620=CARTESIAN_POINT('',(17.4870496471636,-11.8806088001506,-471.224685744651));
#1621=CARTESIAN_POINT('',(17.4870496471636,-9.03060880014624,-458.437864865387));
#1622=CARTESIAN_POINT('Origin',(17.4870496471635,-9.03060880014624,-456.937864865387));
#1623=CARTESIAN_POINT('Origin',(5.98627964716548,-37.7300816634592,-450.037864865388));
#1624=CARTESIAN_POINT('',(5.98627964716548,-40.7300816634592,-450.037864865388));
#1625=CARTESIAN_POINT('Origin',(5.98550964717276,-40.730081663459,-454.412864865388));
#1626=CARTESIAN_POINT('',(12.6862796471675,-40.7300816634589,-456.787864865389));
#1627=CARTESIAN_POINT('Origin',(12.6862796471675,-37.7300816634589,-456.787864865389));
#1628=CARTESIAN_POINT('Origin',(5.98704964712468,-26.1902164370763,-452.962864865388));
#1629=CARTESIAN_POINT('',(18.8370496471294,-26.1902164370639,-455.662864865389));
#1630=CARTESIAN_POINT('',(5.98704964712493,-26.1902164370763,-455.662864865388));
#1631=CARTESIAN_POINT('',(18.8370496471334,-26.1902164370501,-452.86286486539));
#1632=CARTESIAN_POINT('',(18.8370496471293,-26.1902164370639,-454.962864865389));
#1633=CARTESIAN_POINT('',(5.98704964715856,-26.1902164370763,-452.86286486539));
#1634=CARTESIAN_POINT('Origin',(5.98704964712479,-24.1662164370761,-455.66286486539));
#1635=CARTESIAN_POINT('',(18.8370496471293,-31.8902164370638,-455.662864865389));
#1636=CARTESIAN_POINT('',(5.98704964712486,-31.8902164370762,-455.662864865388));
#1637=CARTESIAN_POINT('',(18.8370496471295,-17.8884126186023,-455.662864865388));
#1638=CARTESIAN_POINT('Origin',(15.9870496560271,-29.0402301429832,-484.237349155631));
#1639=CARTESIAN_POINT('',(17.8870496560272,-29.0402301424423,-484.237349155588));
#1640=CARTESIAN_POINT('Origin',(15.9870496471492,-29.0402164370765,-462.53786486531));
#1641=CARTESIAN_POINT('',(15.9870496471513,-27.640216437077,-452.862864865392));
#1642=CARTESIAN_POINT('Origin',(15.9870496471513,-29.040216437077,-452.862864865393));
#1643=CARTESIAN_POINT('',(15.9870496471492,-27.6402164370765,-462.53786486531));
#1644=CARTESIAN_POINT('Origin',(5.98704964712887,-18.4662164370626,-452.86286486539));
#1645=CARTESIAN_POINT('',(18.837049647211,-31.89021643705,-452.86286486539));
#1646=CARTESIAN_POINT('',(18.8370496471294,-15.0384126185955,-452.862864865389));
#1647=CARTESIAN_POINT('',(5.98704964716557,-31.8902164370762,-452.86286486539));
#1648=CARTESIAN_POINT('Origin',(13.5870496471634,-9.03060880014621,-456.937864865388));
#1649=CARTESIAN_POINT('',(13.5870496471635,-9.03060880014621,-458.437864865388));
#1650=CARTESIAN_POINT('Origin',(18.0870496471633,-9.0306088001546,-456.937864865388));
#1651=CARTESIAN_POINT('',(20.0870496471637,-9.03060880015459,-458.337864865388));
#1652=CARTESIAN_POINT('',(18.0870496471633,-9.03060880015459,-458.337864865388));
#1653=CARTESIAN_POINT('Origin',(20.0870496471637,-9.0306088001546,-456.937864865388));
#1654=CARTESIAN_POINT('Origin',(5.9870496472022,-31.8902164370762,-450.362864865388));
#1655=CARTESIAN_POINT('',(18.8370496471292,-31.8902164370763,-457.950364865368));
#1656=CARTESIAN_POINT('Origin',(18.8370496471303,-11.610608800128,-465.537864865349));
#1657=CARTESIAN_POINT('Origin',(20.0870496471636,-12.043108800147,-482.661506623912));
#1658=CARTESIAN_POINT('',(20.0870496471649,-11.8806088001423,-459.787864865391));
#1659=CARTESIAN_POINT('Origin',(17.887049647162,-11.8806088001422,-459.787864865392));
#1660=UNCERTAINTY_MEASURE_WITH_UNIT(LENGTH_MEASURE(0.01),#1664,
'DISTANCE_ACCURACY_VALUE',
'Maximum model space distance between geometric entities at asserted c
onnectivities');
#1661=UNCERTAINTY_MEASURE_WITH_UNIT(LENGTH_MEASURE(0.01),#1664,
'DISTANCE_ACCURACY_VALUE',
'Maximum model space distance between geometric entities at asserted c
onnectivities');
#1662=(
GEOMETRIC_REPRESENTATION_CONTEXT(3)
GLOBAL_UNCERTAINTY_ASSIGNED_CONTEXT((#1660))
GLOBAL_UNIT_ASSIGNED_CONTEXT((#1664,#1666,#1667))
REPRESENTATION_CONTEXT('','3D')
);
#1663=(
GEOMETRIC_REPRESENTATION_CONTEXT(3)
GLOBAL_UNCERTAINTY_ASSIGNED_CONTEXT((#1661))
GLOBAL_UNIT_ASSIGNED_CONTEXT((#1664,#1666,#1667))
REPRESENTATION_CONTEXT('','3D')
);
#1664=(
LENGTH_UNIT()
NAMED_UNIT(*)
SI_UNIT(.MILLI.,.METRE.)
);
#1665=(
LENGTH_UNIT()
NAMED_UNIT(*)
SI_UNIT($,.METRE.)
);
#1666=(
NAMED_UNIT(*)
PLANE_ANGLE_UNIT()
SI_UNIT($,.RADIAN.)
);
#1667=(
NAMED_UNIT(*)
SI_UNIT($,.STERADIAN.)
SOLID_ANGLE_UNIT()
);
#1668=SHAPE_DEFINITION_REPRESENTATION(#1669,#1670);
#1669=PRODUCT_DEFINITION_SHAPE('',$,#1672);
#1670=SHAPE_REPRESENTATION('',(#995),#1662);
#1671=PRODUCT_DEFINITION_CONTEXT('part definition',#1676,'design');
#1672=PRODUCT_DEFINITION('arm-right','arm-right',#1673,#1671);
#1673=PRODUCT_DEFINITION_FORMATION('',$,#1678);
#1674=PRODUCT_RELATED_PRODUCT_CATEGORY('arm-right','arm-right',(#1678));
#1675=APPLICATION_PROTOCOL_DEFINITION('international standard',
'automotive_design',2009,#1676);
#1676=APPLICATION_CONTEXT(
'Core Data for Automotive Mechanical Design Process');
#1677=PRODUCT_CONTEXT('part definition',#1676,'mechanical');
#1678=PRODUCT('arm-right','arm-right',$,(#1677));
#1679=PRESENTATION_STYLE_ASSIGNMENT((#1681));
#1680=PRESENTATION_STYLE_ASSIGNMENT((#1682));
#1681=SURFACE_STYLE_USAGE(.BOTH.,#1683);
#1682=SURFACE_STYLE_USAGE(.BOTH.,#1684);
#1683=SURFACE_SIDE_STYLE('',(#1685));
#1684=SURFACE_SIDE_STYLE('',(#1686));
#1685=SURFACE_STYLE_FILL_AREA(#1687);
#1686=SURFACE_STYLE_FILL_AREA(#1688);
#1687=FILL_AREA_STYLE('Steel - Satin',(#1689));
#1688=FILL_AREA_STYLE('Plastic - Translucent Matte (White) 3D Printed',
(#1690));
#1689=FILL_AREA_STYLE_COLOUR('Steel - Satin',#1691);
#1690=FILL_AREA_STYLE_COLOUR(
'Plastic - Translucent Matte (White) 3D Printed',#1692);
#1691=COLOUR_RGB('Steel - Satin',0.627450980392157,0.627450980392157,0.627450980392157);
#1692=COLOUR_RGB('Plastic - Translucent Matte (White) 3D Printed',0.964705882352941,
0.964705882352941,0.952941176470588);
ENDSEC;
END-ISO-10303-21;
