ISO-10303-21;
HEADER;
/* Generated by software containing ST-Developer
 * from STEP Tools, Inc. (www.steptools.com) 
 */

FILE_DESCRIPTION(
/* description */ (''),
/* implementation_level */ '2;1');

FILE_NAME(
/* name */ 'carriage-top-right.step',
/* time_stamp */ '2026-05-27T14:34:22-07:00',
/* author */ (''),
/* organization */ (''),
/* preprocessor_version */ 'ST-DEVELOPER v20.1',
/* originating_system */ 'Autodesk Translation Framework v15.8.0.0',
/* authorisation */ '');

FILE_SCHEMA (('AUTOMOTIVE_DESIGN { 1 0 10303 214 3 1 1 }'));
ENDSEC;

DATA;
#10=MECHANICAL_DESIGN_GEOMETRIC_PRESENTATION_REPRESENTATION('',(#13),#1771);
#11=SHAPE_REPRESENTATION_RELATIONSHIP('SRR','None',#1778,#12);
#12=ADVANCED_BREP_SHAPE_REPRESENTATION('',(#14),#1770);
#13=STYLED_ITEM('',(#1788),#14);
#14=MANIFOLD_SOLID_BREP('Body5',#1060);
#15=ELLIPSE('',#1119,4.24264068716471,3.);
#16=ELLIPSE('',#1120,4.24264068716471,3.);
#17=ELLIPSE('',#1124,4.24264068711917,3.);
#18=ELLIPSE('',#1125,4.24264068711917,3.);
#19=FACE_BOUND('',#112,.T.);
#20=FACE_BOUND('',#113,.T.);
#21=FACE_BOUND('',#115,.T.);
#22=FACE_BOUND('',#116,.T.);
#23=FACE_BOUND('',#123,.T.);
#24=FACE_BOUND('',#124,.T.);
#25=FACE_BOUND('',#136,.T.);
#26=FACE_BOUND('',#137,.T.);
#27=FACE_BOUND('',#145,.T.);
#28=FACE_BOUND('',#148,.T.);
#29=FACE_BOUND('',#159,.T.);
#30=FACE_BOUND('',#170,.T.);
#31=(
BOUNDED_CURVE()
B_SPLINE_CURVE(2,(#1521,#1522,#1523),.UNSPECIFIED.,.F.,.F.)
B_SPLINE_CURVE_WITH_KNOTS((3,3),(0.,0.152315379911372),.UNSPECIFIED.)
CURVE()
GEOMETRIC_REPRESENTATION_ITEM()
RATIONAL_B_SPLINE_CURVE((1.,1.,1.))
REPRESENTATION_ITEM('')
);
#32=(
BOUNDED_CURVE()
B_SPLINE_CURVE(2,(#1526,#1527,#1528),.UNSPECIFIED.,.F.,.F.)
B_SPLINE_CURVE_WITH_KNOTS((3,3),(0.152315379911372,0.304630759822777),
 .UNSPECIFIED.)
CURVE()
GEOMETRIC_REPRESENTATION_ITEM()
RATIONAL_B_SPLINE_CURVE((1.,1.,1.))
REPRESENTATION_ITEM('')
);
#33=(
BOUNDED_CURVE()
B_SPLINE_CURVE(2,(#1603,#1604,#1605),.UNSPECIFIED.,.F.,.F.)
B_SPLINE_CURVE_WITH_KNOTS((3,3),(0.,0.304630759810075),.UNSPECIFIED.)
CURVE()
GEOMETRIC_REPRESENTATION_ITEM()
RATIONAL_B_SPLINE_CURVE((1.,1.,1.))
REPRESENTATION_ITEM('')
);
#34=CONICAL_SURFACE('',#1082,2.50000000000012,0.785398163397468);
#35=CONICAL_SURFACE('',#1155,2.49999999999999,0.785398163397433);
#36=CYLINDRICAL_SURFACE('',#1079,2.);
#37=CYLINDRICAL_SURFACE('',#1093,2.6);
#38=CYLINDRICAL_SURFACE('',#1131,2.);
#39=CYLINDRICAL_SURFACE('',#1138,2.);
#40=CYLINDRICAL_SURFACE('',#1139,3.);
#41=CYLINDRICAL_SURFACE('',#1142,1.49999999999999);
#42=CYLINDRICAL_SURFACE('',#1143,2.75);
#43=CYLINDRICAL_SURFACE('',#1145,1.25);
#44=CYLINDRICAL_SURFACE('',#1146,1.7);
#45=CYLINDRICAL_SURFACE('',#1152,3.);
#46=CYLINDRICAL_SURFACE('',#1157,2.);
#47=CYLINDRICAL_SURFACE('',#1158,1.5);
#48=CYLINDRICAL_SURFACE('',#1159,2.75);
#49=CYLINDRICAL_SURFACE('',#1161,1.25);
#50=CYLINDRICAL_SURFACE('',#1164,1.7);
#51=FACE_OUTER_BOUND('',#106,.T.);
#52=FACE_OUTER_BOUND('',#107,.T.);
#53=FACE_OUTER_BOUND('',#108,.T.);
#54=FACE_OUTER_BOUND('',#109,.T.);
#55=FACE_OUTER_BOUND('',#110,.T.);
#56=FACE_OUTER_BOUND('',#111,.T.);
#57=FACE_OUTER_BOUND('',#114,.T.);
#58=FACE_OUTER_BOUND('',#117,.T.);
#59=FACE_OUTER_BOUND('',#118,.T.);
#60=FACE_OUTER_BOUND('',#119,.T.);
#61=FACE_OUTER_BOUND('',#120,.T.);
#62=FACE_OUTER_BOUND('',#121,.T.);
#63=FACE_OUTER_BOUND('',#122,.T.);
#64=FACE_OUTER_BOUND('',#125,.T.);
#65=FACE_OUTER_BOUND('',#126,.T.);
#66=FACE_OUTER_BOUND('',#127,.T.);
#67=FACE_OUTER_BOUND('',#128,.T.);
#68=FACE_OUTER_BOUND('',#129,.T.);
#69=FACE_OUTER_BOUND('',#130,.T.);
#70=FACE_OUTER_BOUND('',#131,.T.);
#71=FACE_OUTER_BOUND('',#132,.T.);
#72=FACE_OUTER_BOUND('',#133,.T.);
#73=FACE_OUTER_BOUND('',#134,.T.);
#74=FACE_OUTER_BOUND('',#135,.T.);
#75=FACE_OUTER_BOUND('',#138,.T.);
#76=FACE_OUTER_BOUND('',#139,.T.);
#77=FACE_OUTER_BOUND('',#140,.T.);
#78=FACE_OUTER_BOUND('',#141,.T.);
#79=FACE_OUTER_BOUND('',#142,.T.);
#80=FACE_OUTER_BOUND('',#143,.T.);
#81=FACE_OUTER_BOUND('',#144,.T.);
#82=FACE_OUTER_BOUND('',#146,.T.);
#83=FACE_OUTER_BOUND('',#147,.T.);
#84=FACE_OUTER_BOUND('',#149,.T.);
#85=FACE_OUTER_BOUND('',#150,.T.);
#86=FACE_OUTER_BOUND('',#151,.T.);
#87=FACE_OUTER_BOUND('',#152,.T.);
#88=FACE_OUTER_BOUND('',#153,.T.);
#89=FACE_OUTER_BOUND('',#154,.T.);
#90=FACE_OUTER_BOUND('',#155,.T.);
#91=FACE_OUTER_BOUND('',#156,.T.);
#92=FACE_OUTER_BOUND('',#157,.T.);
#93=FACE_OUTER_BOUND('',#158,.T.);
#94=FACE_OUTER_BOUND('',#160,.T.);
#95=FACE_OUTER_BOUND('',#161,.T.);
#96=FACE_OUTER_BOUND('',#162,.T.);
#97=FACE_OUTER_BOUND('',#163,.T.);
#98=FACE_OUTER_BOUND('',#164,.T.);
#99=FACE_OUTER_BOUND('',#165,.T.);
#100=FACE_OUTER_BOUND('',#166,.T.);
#101=FACE_OUTER_BOUND('',#167,.T.);
#102=FACE_OUTER_BOUND('',#168,.T.);
#103=FACE_OUTER_BOUND('',#169,.T.);
#104=FACE_OUTER_BOUND('',#171,.T.);
#105=FACE_OUTER_BOUND('',#172,.T.);
#106=EDGE_LOOP('',(#669,#670,#671,#672,#673,#674,#675,#676,#677,#678,#679,
#680));
#107=EDGE_LOOP('',(#681,#682,#683,#684));
#108=EDGE_LOOP('',(#685,#686,#687,#688,#689,#690,#691,#692,#693,#694));
#109=EDGE_LOOP('',(#695,#696,#697,#698));
#110=EDGE_LOOP('',(#699,#700,#701,#702,#703,#704));
#111=EDGE_LOOP('',(#705,#706,#707,#708,#709,#710,#711,#712));
#112=EDGE_LOOP('',(#713));
#113=EDGE_LOOP('',(#714));
#114=EDGE_LOOP('',(#715,#716,#717,#718,#719,#720,#721,#722));
#115=EDGE_LOOP('',(#723));
#116=EDGE_LOOP('',(#724));
#117=EDGE_LOOP('',(#725,#726,#727,#728));
#118=EDGE_LOOP('',(#729,#730,#731,#732));
#119=EDGE_LOOP('',(#733));
#120=EDGE_LOOP('',(#734));
#121=EDGE_LOOP('',(#735,#736,#737,#738,#739,#740,#741));
#122=EDGE_LOOP('',(#742,#743,#744,#745,#746,#747,#748,#749));
#123=EDGE_LOOP('',(#750));
#124=EDGE_LOOP('',(#751,#752,#753,#754));
#125=EDGE_LOOP('',(#755,#756,#757,#758,#759,#760));
#126=EDGE_LOOP('',(#761,#762,#763,#764,#765,#766,#767,#768,#769,#770));
#127=EDGE_LOOP('',(#771,#772,#773,#774,#775));
#128=EDGE_LOOP('',(#776,#777,#778,#779,#780));
#129=EDGE_LOOP('',(#781,#782,#783,#784));
#130=EDGE_LOOP('',(#785,#786,#787,#788));
#131=EDGE_LOOP('',(#789,#790,#791,#792));
#132=EDGE_LOOP('',(#793,#794,#795,#796));
#133=EDGE_LOOP('',(#797,#798,#799,#800,#801));
#134=EDGE_LOOP('',(#802,#803,#804,#805));
#135=EDGE_LOOP('',(#806,#807,#808,#809,#810,#811,#812,#813,#814));
#136=EDGE_LOOP('',(#815,#816,#817,#818));
#137=EDGE_LOOP('',(#819));
#138=EDGE_LOOP('',(#820,#821,#822,#823,#824,#825,#826));
#139=EDGE_LOOP('',(#827,#828,#829,#830,#831,#832,#833));
#140=EDGE_LOOP('',(#834,#835,#836,#837,#838,#839,#840));
#141=EDGE_LOOP('',(#841,#842,#843,#844,#845,#846,#847));
#142=EDGE_LOOP('',(#848,#849,#850,#851,#852,#853,#854));
#143=EDGE_LOOP('',(#855,#856,#857,#858,#859,#860,#861));
#144=EDGE_LOOP('',(#862,#863,#864,#865,#866));
#145=EDGE_LOOP('',(#867));
#146=EDGE_LOOP('',(#868,#869,#870,#871));
#147=EDGE_LOOP('',(#872,#873,#874,#875,#876));
#148=EDGE_LOOP('',(#877));
#149=EDGE_LOOP('',(#878,#879,#880,#881,#882));
#150=EDGE_LOOP('',(#883,#884,#885,#886));
#151=EDGE_LOOP('',(#887,#888,#889,#890,#891,#892));
#152=EDGE_LOOP('',(#893,#894,#895,#896,#897));
#153=EDGE_LOOP('',(#898,#899,#900,#901));
#154=EDGE_LOOP('',(#902,#903,#904,#905));
#155=EDGE_LOOP('',(#906,#907,#908,#909));
#156=EDGE_LOOP('',(#910,#911,#912,#913));
#157=EDGE_LOOP('',(#914,#915,#916,#917,#918));
#158=EDGE_LOOP('',(#919));
#159=EDGE_LOOP('',(#920));
#160=EDGE_LOOP('',(#921,#922,#923,#924,#925));
#161=EDGE_LOOP('',(#926));
#162=EDGE_LOOP('',(#927,#928,#929,#930,#931,#932));
#163=EDGE_LOOP('',(#933,#934,#935,#936,#937));
#164=EDGE_LOOP('',(#938,#939,#940,#941,#942,#943));
#165=EDGE_LOOP('',(#944,#945,#946,#947));
#166=EDGE_LOOP('',(#948,#949,#950,#951));
#167=EDGE_LOOP('',(#952,#953,#954,#955));
#168=EDGE_LOOP('',(#956,#957,#958,#959));
#169=EDGE_LOOP('',(#960));
#170=EDGE_LOOP('',(#961));
#171=EDGE_LOOP('',(#962,#963,#964,#965));
#172=EDGE_LOOP('',(#966));
#173=CIRCLE('',#1075,3.);
#174=CIRCLE('',#1076,3.);
#175=CIRCLE('',#1080,2.);
#176=CIRCLE('',#1081,2.);
#177=CIRCLE('',#1083,3.00000000000025);
#178=CIRCLE('',#1085,1.49999999999999);
#179=CIRCLE('',#1086,2.6);
#180=CIRCLE('',#1087,1.7);
#181=CIRCLE('',#1089,1.5);
#182=CIRCLE('',#1090,2.6);
#183=CIRCLE('',#1091,2.);
#184=CIRCLE('',#1092,1.7);
#185=CIRCLE('',#1096,1.25);
#186=CIRCLE('',#1098,1.25);
#187=CIRCLE('',#1101,2.75);
#188=CIRCLE('',#1102,1.49999999999999);
#189=CIRCLE('',#1114,2.99999999999998);
#190=CIRCLE('',#1115,2.99999999999998);
#191=CIRCLE('',#1116,1.5);
#192=CIRCLE('',#1117,2.75);
#193=CIRCLE('',#1129,2.);
#194=CIRCLE('',#1130,1.25);
#195=CIRCLE('',#1132,2.);
#196=CIRCLE('',#1134,2.);
#197=CIRCLE('',#1135,1.25);
#198=CIRCLE('',#1137,2.);
#199=CIRCLE('',#1140,3.);
#200=CIRCLE('',#1144,2.75);
#201=CIRCLE('',#1147,1.7);
#202=CIRCLE('',#1153,3.);
#203=CIRCLE('',#1156,2.);
#204=CIRCLE('',#1160,2.75);
#205=CIRCLE('',#1163,1.7);
#206=LINE('',#1465,#315);
#207=LINE('',#1467,#316);
#208=LINE('',#1469,#317);
#209=LINE('',#1473,#318);
#210=LINE('',#1475,#319);
#211=LINE('',#1477,#320);
#212=LINE('',#1479,#321);
#213=LINE('',#1481,#322);
#214=LINE('',#1485,#323);
#215=LINE('',#1486,#324);
#216=LINE('',#1490,#325);
#217=LINE('',#1492,#326);
#218=LINE('',#1494,#327);
#219=LINE('',#1495,#328);
#220=LINE('',#1498,#329);
#221=LINE('',#1500,#330);
#222=LINE('',#1502,#331);
#223=LINE('',#1503,#332);
#224=LINE('',#1505,#333);
#225=LINE('',#1507,#334);
#226=LINE('',#1509,#335);
#227=LINE('',#1510,#336);
#228=LINE('',#1515,#337);
#229=LINE('',#1519,#338);
#230=LINE('',#1533,#339);
#231=LINE('',#1535,#340);
#232=LINE('',#1537,#341);
#233=LINE('',#1539,#342);
#234=LINE('',#1541,#343);
#235=LINE('',#1548,#344);
#236=LINE('',#1550,#345);
#237=LINE('',#1552,#346);
#238=LINE('',#1554,#347);
#239=LINE('',#1556,#348);
#240=LINE('',#1564,#349);
#241=LINE('',#1566,#350);
#242=LINE('',#1576,#351);
#243=LINE('',#1578,#352);
#244=LINE('',#1579,#353);
#245=LINE('',#1581,#354);
#246=LINE('',#1582,#355);
#247=LINE('',#1585,#356);
#248=LINE('',#1587,#357);
#249=LINE('',#1589,#358);
#250=LINE('',#1591,#359);
#251=LINE('',#1592,#360);
#252=LINE('',#1598,#361);
#253=LINE('',#1599,#362);
#254=LINE('',#1607,#363);
#255=LINE('',#1609,#364);
#256=LINE('',#1611,#365);
#257=LINE('',#1613,#366);
#258=LINE('',#1614,#367);
#259=LINE('',#1616,#368);
#260=LINE('',#1618,#369);
#261=LINE('',#1620,#370);
#262=LINE('',#1621,#371);
#263=LINE('',#1622,#372);
#264=LINE('',#1625,#373);
#265=LINE('',#1626,#374);
#266=LINE('',#1628,#375);
#267=LINE('',#1629,#376);
#268=LINE('',#1631,#377);
#269=LINE('',#1634,#378);
#270=LINE('',#1635,#379);
#271=LINE('',#1637,#380);
#272=LINE('',#1641,#381);
#273=LINE('',#1642,#382);
#274=LINE('',#1643,#383);
#275=LINE('',#1645,#384);
#276=LINE('',#1648,#385);
#277=LINE('',#1650,#386);
#278=LINE('',#1651,#387);
#279=LINE('',#1653,#388);
#280=LINE('',#1660,#389);
#281=LINE('',#1661,#390);
#282=LINE('',#1666,#391);
#283=LINE('',#1667,#392);
#284=LINE('',#1673,#393);
#285=LINE('',#1675,#394);
#286=LINE('',#1677,#395);
#287=LINE('',#1678,#396);
#288=LINE('',#1680,#397);
#289=LINE('',#1681,#398);
#290=LINE('',#1687,#399);
#291=LINE('',#1688,#400);
#292=LINE('',#1691,#401);
#293=LINE('',#1692,#402);
#294=LINE('',#1695,#403);
#295=LINE('',#1697,#404);
#296=LINE('',#1698,#405);
#297=LINE('',#1701,#406);
#298=LINE('',#1707,#407);
#299=LINE('',#1712,#408);
#300=LINE('',#1717,#409);
#301=LINE('',#1720,#410);
#302=LINE('',#1723,#411);
#303=LINE('',#1726,#412);
#304=LINE('',#1727,#413);
#305=LINE('',#1729,#414);
#306=LINE('',#1732,#415);
#307=LINE('',#1735,#416);
#308=LINE('',#1739,#417);
#309=LINE('',#1746,#418);
#310=LINE('',#1752,#419);
#311=LINE('',#1754,#420);
#312=LINE('',#1758,#421);
#313=LINE('',#1761,#422);
#314=LINE('',#1766,#423);
#315=VECTOR('',#1170,10.);
#316=VECTOR('',#1171,10.);
#317=VECTOR('',#1172,10.);
#318=VECTOR('',#1175,10.);
#319=VECTOR('',#1176,10.);
#320=VECTOR('',#1177,10.);
#321=VECTOR('',#1178,10.);
#322=VECTOR('',#1179,10.);
#323=VECTOR('',#1182,10.);
#324=VECTOR('',#1183,10.);
#325=VECTOR('',#1186,10.);
#326=VECTOR('',#1187,10.);
#327=VECTOR('',#1188,10.);
#328=VECTOR('',#1189,10.);
#329=VECTOR('',#1192,10.);
#330=VECTOR('',#1193,10.);
#331=VECTOR('',#1194,10.);
#332=VECTOR('',#1195,10.);
#333=VECTOR('',#1196,10.);
#334=VECTOR('',#1197,10.);
#335=VECTOR('',#1198,10.);
#336=VECTOR('',#1199,10.);
#337=VECTOR('',#1204,1.74999999999999);
#338=VECTOR('',#1209,2.50000000000013);
#339=VECTOR('',#1216,10.);
#340=VECTOR('',#1217,10.);
#341=VECTOR('',#1218,10.);
#342=VECTOR('',#1219,10.);
#343=VECTOR('',#1220,10.);
#344=VECTOR('',#1227,10.);
#345=VECTOR('',#1228,10.);
#346=VECTOR('',#1229,10.);
#347=VECTOR('',#1230,10.);
#348=VECTOR('',#1231,10.);
#349=VECTOR('',#1242,10.);
#350=VECTOR('',#1245,10.);
#351=VECTOR('',#1256,10.);
#352=VECTOR('',#1257,10.);
#353=VECTOR('',#1258,10.);
#354=VECTOR('',#1259,10.);
#355=VECTOR('',#1260,10.);
#356=VECTOR('',#1263,10.);
#357=VECTOR('',#1264,10.);
#358=VECTOR('',#1265,10.);
#359=VECTOR('',#1266,10.);
#360=VECTOR('',#1267,10.);
#361=VECTOR('',#1272,10.);
#362=VECTOR('',#1273,10.);
#363=VECTOR('',#1276,10.);
#364=VECTOR('',#1277,10.);
#365=VECTOR('',#1278,10.);
#366=VECTOR('',#1279,10.);
#367=VECTOR('',#1280,10.);
#368=VECTOR('',#1283,10.);
#369=VECTOR('',#1284,10.);
#370=VECTOR('',#1285,10.);
#371=VECTOR('',#1286,10.);
#372=VECTOR('',#1287,10.);
#373=VECTOR('',#1290,10.);
#374=VECTOR('',#1291,10.);
#375=VECTOR('',#1294,10.);
#376=VECTOR('',#1295,10.);
#377=VECTOR('',#1298,10.);
#378=VECTOR('',#1301,10.);
#379=VECTOR('',#1302,10.);
#380=VECTOR('',#1305,10.);
#381=VECTOR('',#1308,10.);
#382=VECTOR('',#1309,10.);
#383=VECTOR('',#1310,10.);
#384=VECTOR('',#1313,10.);
#385=VECTOR('',#1316,10.);
#386=VECTOR('',#1317,10.);
#387=VECTOR('',#1318,10.);
#388=VECTOR('',#1321,10.);
#389=VECTOR('',#1328,10.);
#390=VECTOR('',#1329,10.);
#391=VECTOR('',#1334,10.);
#392=VECTOR('',#1335,10.);
#393=VECTOR('',#1342,10.);
#394=VECTOR('',#1343,10.);
#395=VECTOR('',#1344,10.);
#396=VECTOR('',#1345,10.);
#397=VECTOR('',#1348,10.);
#398=VECTOR('',#1349,10.);
#399=VECTOR('',#1356,10.);
#400=VECTOR('',#1357,10.);
#401=VECTOR('',#1360,10.);
#402=VECTOR('',#1361,10.);
#403=VECTOR('',#1364,10.);
#404=VECTOR('',#1365,10.);
#405=VECTOR('',#1366,10.);
#406=VECTOR('',#1369,10.);
#407=VECTOR('',#1376,10.);
#408=VECTOR('',#1383,10.);
#409=VECTOR('',#1388,10.);
#410=VECTOR('',#1393,10.);
#411=VECTOR('',#1396,3.);
#412=VECTOR('',#1401,10.);
#413=VECTOR('',#1402,10.);
#414=VECTOR('',#1405,10.);
#415=VECTOR('',#1408,2.75);
#416=VECTOR('',#1413,1.4);
#417=VECTOR('',#1418,1.7);
#418=VECTOR('',#1429,3.);
#419=VECTOR('',#1438,2.5);
#420=VECTOR('',#1441,1.74999999999999);
#421=VECTOR('',#1446,2.75);
#422=VECTOR('',#1451,1.4);
#423=VECTOR('',#1458,1.7);
#424=VERTEX_POINT('',#1463);
#425=VERTEX_POINT('',#1464);
#426=VERTEX_POINT('',#1466);
#427=VERTEX_POINT('',#1468);
#428=VERTEX_POINT('',#1470);
#429=VERTEX_POINT('',#1472);
#430=VERTEX_POINT('',#1474);
#431=VERTEX_POINT('',#1476);
#432=VERTEX_POINT('',#1478);
#433=VERTEX_POINT('',#1480);
#434=VERTEX_POINT('',#1482);
#435=VERTEX_POINT('',#1484);
#436=VERTEX_POINT('',#1488);
#437=VERTEX_POINT('',#1489);
#438=VERTEX_POINT('',#1491);
#439=VERTEX_POINT('',#1493);
#440=VERTEX_POINT('',#1497);
#441=VERTEX_POINT('',#1499);
#442=VERTEX_POINT('',#1501);
#443=VERTEX_POINT('',#1504);
#444=VERTEX_POINT('',#1506);
#445=VERTEX_POINT('',#1508);
#446=VERTEX_POINT('',#1512);
#447=VERTEX_POINT('',#1514);
#448=VERTEX_POINT('',#1518);
#449=VERTEX_POINT('',#1520);
#450=VERTEX_POINT('',#1524);
#451=VERTEX_POINT('',#1530);
#452=VERTEX_POINT('',#1532);
#453=VERTEX_POINT('',#1534);
#454=VERTEX_POINT('',#1536);
#455=VERTEX_POINT('',#1538);
#456=VERTEX_POINT('',#1540);
#457=VERTEX_POINT('',#1543);
#458=VERTEX_POINT('',#1546);
#459=VERTEX_POINT('',#1547);
#460=VERTEX_POINT('',#1549);
#461=VERTEX_POINT('',#1551);
#462=VERTEX_POINT('',#1553);
#463=VERTEX_POINT('',#1555);
#464=VERTEX_POINT('',#1559);
#465=VERTEX_POINT('',#1561);
#466=VERTEX_POINT('',#1568);
#467=VERTEX_POINT('',#1571);
#468=VERTEX_POINT('',#1574);
#469=VERTEX_POINT('',#1575);
#470=VERTEX_POINT('',#1577);
#471=VERTEX_POINT('',#1580);
#472=VERTEX_POINT('',#1584);
#473=VERTEX_POINT('',#1586);
#474=VERTEX_POINT('',#1588);
#475=VERTEX_POINT('',#1590);
#476=VERTEX_POINT('',#1593);
#477=VERTEX_POINT('',#1595);
#478=VERTEX_POINT('',#1597);
#479=VERTEX_POINT('',#1601);
#480=VERTEX_POINT('',#1602);
#481=VERTEX_POINT('',#1606);
#482=VERTEX_POINT('',#1608);
#483=VERTEX_POINT('',#1610);
#484=VERTEX_POINT('',#1612);
#485=VERTEX_POINT('',#1617);
#486=VERTEX_POINT('',#1619);
#487=VERTEX_POINT('',#1624);
#488=VERTEX_POINT('',#1633);
#489=VERTEX_POINT('',#1639);
#490=VERTEX_POINT('',#1640);
#491=VERTEX_POINT('',#1647);
#492=VERTEX_POINT('',#1649);
#493=VERTEX_POINT('',#1654);
#494=VERTEX_POINT('',#1657);
#495=VERTEX_POINT('',#1659);
#496=VERTEX_POINT('',#1662);
#497=VERTEX_POINT('',#1665);
#498=VERTEX_POINT('',#1668);
#499=VERTEX_POINT('',#1672);
#500=VERTEX_POINT('',#1674);
#501=VERTEX_POINT('',#1676);
#502=VERTEX_POINT('',#1683);
#503=VERTEX_POINT('',#1686);
#504=VERTEX_POINT('',#1690);
#505=VERTEX_POINT('',#1694);
#506=VERTEX_POINT('',#1696);
#507=VERTEX_POINT('',#1700);
#508=VERTEX_POINT('',#1703);
#509=VERTEX_POINT('',#1706);
#510=VERTEX_POINT('',#1710);
#511=VERTEX_POINT('',#1713);
#512=VERTEX_POINT('',#1716);
#513=VERTEX_POINT('',#1722);
#514=VERTEX_POINT('',#1731);
#515=VERTEX_POINT('',#1737);
#516=VERTEX_POINT('',#1745);
#517=VERTEX_POINT('',#1750);
#518=VERTEX_POINT('',#1757);
#519=VERTEX_POINT('',#1763);
#520=EDGE_CURVE('',#424,#425,#206,.T.);
#521=EDGE_CURVE('',#425,#426,#207,.T.);
#522=EDGE_CURVE('',#427,#426,#208,.T.);
#523=EDGE_CURVE('',#427,#428,#173,.T.);
#524=EDGE_CURVE('',#429,#428,#209,.T.);
#525=EDGE_CURVE('',#430,#429,#210,.T.);
#526=EDGE_CURVE('',#431,#430,#211,.T.);
#527=EDGE_CURVE('',#432,#431,#212,.T.);
#528=EDGE_CURVE('',#433,#432,#213,.T.);
#529=EDGE_CURVE('',#433,#434,#174,.T.);
#530=EDGE_CURVE('',#435,#434,#214,.T.);
#531=EDGE_CURVE('',#435,#424,#215,.T.);
#532=EDGE_CURVE('',#436,#437,#216,.T.);
#533=EDGE_CURVE('',#436,#438,#217,.T.);
#534=EDGE_CURVE('',#438,#439,#218,.T.);
#535=EDGE_CURVE('',#439,#437,#219,.T.);
#536=EDGE_CURVE('',#440,#424,#220,.T.);
#537=EDGE_CURVE('',#441,#440,#221,.T.);
#538=EDGE_CURVE('',#442,#441,#222,.T.);
#539=EDGE_CURVE('',#442,#436,#223,.T.);
#540=EDGE_CURVE('',#437,#443,#224,.T.);
#541=EDGE_CURVE('',#444,#443,#225,.T.);
#542=EDGE_CURVE('',#444,#445,#226,.T.);
#543=EDGE_CURVE('',#445,#425,#227,.T.);
#544=EDGE_CURVE('',#446,#446,#175,.F.);
#545=EDGE_CURVE('',#446,#447,#228,.T.);
#546=EDGE_CURVE('',#447,#447,#176,.T.);
#547=EDGE_CURVE('',#447,#448,#229,.T.);
#548=EDGE_CURVE('',#449,#448,#31,.T.);
#549=EDGE_CURVE('',#449,#450,#177,.T.);
#550=EDGE_CURVE('',#448,#450,#32,.T.);
#551=EDGE_CURVE('',#436,#451,#178,.T.);
#552=EDGE_CURVE('',#452,#451,#230,.T.);
#553=EDGE_CURVE('',#452,#453,#231,.T.);
#554=EDGE_CURVE('',#453,#454,#232,.T.);
#555=EDGE_CURVE('',#454,#455,#233,.T.);
#556=EDGE_CURVE('',#456,#455,#234,.T.);
#557=EDGE_CURVE('',#438,#456,#179,.T.);
#558=EDGE_CURVE('',#457,#457,#180,.T.);
#559=EDGE_CURVE('',#458,#459,#235,.T.);
#560=EDGE_CURVE('',#460,#458,#236,.T.);
#561=EDGE_CURVE('',#460,#461,#237,.T.);
#562=EDGE_CURVE('',#461,#462,#238,.T.);
#563=EDGE_CURVE('',#463,#462,#239,.T.);
#564=EDGE_CURVE('',#463,#437,#181,.T.);
#565=EDGE_CURVE('',#439,#459,#182,.T.);
#566=EDGE_CURVE('',#464,#464,#183,.F.);
#567=EDGE_CURVE('',#465,#465,#184,.T.);
#568=EDGE_CURVE('',#456,#459,#240,.T.);
#569=EDGE_CURVE('',#455,#458,#241,.T.);
#570=EDGE_CURVE('',#466,#466,#185,.T.);
#571=EDGE_CURVE('',#467,#467,#186,.T.);
#572=EDGE_CURVE('',#468,#469,#242,.T.);
#573=EDGE_CURVE('',#469,#470,#243,.T.);
#574=EDGE_CURVE('',#470,#449,#244,.T.);
#575=EDGE_CURVE('',#450,#471,#245,.T.);
#576=EDGE_CURVE('',#471,#468,#246,.T.);
#577=EDGE_CURVE('',#470,#472,#247,.T.);
#578=EDGE_CURVE('',#472,#473,#248,.T.);
#579=EDGE_CURVE('',#474,#473,#249,.T.);
#580=EDGE_CURVE('',#475,#474,#250,.T.);
#581=EDGE_CURVE('',#471,#475,#251,.T.);
#582=EDGE_CURVE('',#476,#476,#187,.T.);
#583=EDGE_CURVE('',#442,#477,#188,.T.);
#584=EDGE_CURVE('',#441,#478,#252,.T.);
#585=EDGE_CURVE('',#478,#477,#253,.T.);
#586=EDGE_CURVE('',#479,#480,#33,.T.);
#587=EDGE_CURVE('',#480,#481,#254,.T.);
#588=EDGE_CURVE('',#481,#482,#255,.T.);
#589=EDGE_CURVE('',#482,#483,#256,.T.);
#590=EDGE_CURVE('',#483,#484,#257,.T.);
#591=EDGE_CURVE('',#484,#479,#258,.T.);
#592=EDGE_CURVE('',#454,#469,#259,.T.);
#593=EDGE_CURVE('',#485,#468,#260,.T.);
#594=EDGE_CURVE('',#486,#485,#261,.T.);
#595=EDGE_CURVE('',#483,#486,#262,.T.);
#596=EDGE_CURVE('',#482,#460,#263,.T.);
#597=EDGE_CURVE('',#487,#481,#264,.T.);
#598=EDGE_CURVE('',#461,#487,#265,.T.);
#599=EDGE_CURVE('',#475,#431,#266,.T.);
#600=EDGE_CURVE('',#431,#485,#267,.T.);
#601=EDGE_CURVE('',#474,#432,#268,.T.);
#602=EDGE_CURVE('',#473,#488,#269,.T.);
#603=EDGE_CURVE('',#488,#432,#270,.T.);
#604=EDGE_CURVE('',#486,#430,#271,.T.);
#605=EDGE_CURVE('',#489,#490,#272,.T.);
#606=EDGE_CURVE('',#490,#430,#273,.T.);
#607=EDGE_CURVE('',#429,#489,#274,.T.);
#608=EDGE_CURVE('',#490,#484,#275,.T.);
#609=EDGE_CURVE('',#429,#491,#276,.T.);
#610=EDGE_CURVE('',#491,#492,#277,.T.);
#611=EDGE_CURVE('',#492,#489,#278,.T.);
#612=EDGE_CURVE('',#487,#492,#279,.T.);
#613=EDGE_CURVE('',#493,#480,#189,.T.);
#614=EDGE_CURVE('',#479,#493,#190,.T.);
#615=EDGE_CURVE('',#494,#443,#191,.T.);
#616=EDGE_CURVE('',#494,#495,#280,.T.);
#617=EDGE_CURVE('',#495,#444,#281,.T.);
#618=EDGE_CURVE('',#496,#496,#192,.T.);
#619=EDGE_CURVE('',#488,#497,#282,.T.);
#620=EDGE_CURVE('',#497,#435,#283,.T.);
#621=EDGE_CURVE('',#434,#498,#15,.T.);
#622=EDGE_CURVE('',#498,#433,#16,.T.);
#623=EDGE_CURVE('',#499,#497,#284,.T.);
#624=EDGE_CURVE('',#499,#500,#285,.T.);
#625=EDGE_CURVE('',#500,#501,#286,.T.);
#626=EDGE_CURVE('',#440,#501,#287,.T.);
#627=EDGE_CURVE('',#472,#453,#288,.T.);
#628=EDGE_CURVE('',#499,#452,#289,.T.);
#629=EDGE_CURVE('',#428,#502,#17,.T.);
#630=EDGE_CURVE('',#502,#427,#18,.T.);
#631=EDGE_CURVE('',#426,#503,#290,.T.);
#632=EDGE_CURVE('',#503,#491,#291,.T.);
#633=EDGE_CURVE('',#503,#504,#292,.T.);
#634=EDGE_CURVE('',#504,#462,#293,.T.);
#635=EDGE_CURVE('',#445,#505,#294,.T.);
#636=EDGE_CURVE('',#505,#506,#295,.T.);
#637=EDGE_CURVE('',#504,#506,#296,.T.);
#638=EDGE_CURVE('',#495,#507,#297,.T.);
#639=EDGE_CURVE('',#505,#507,#193,.F.);
#640=EDGE_CURVE('',#508,#508,#194,.T.);
#641=EDGE_CURVE('',#507,#509,#298,.T.);
#642=EDGE_CURVE('',#509,#506,#195,.T.);
#643=EDGE_CURVE('',#510,#501,#196,.F.);
#644=EDGE_CURVE('',#510,#478,#299,.T.);
#645=EDGE_CURVE('',#511,#511,#197,.T.);
#646=EDGE_CURVE('',#451,#512,#300,.T.);
#647=EDGE_CURVE('',#500,#512,#198,.T.);
#648=EDGE_CURVE('',#512,#510,#301,.T.);
#649=EDGE_CURVE('',#498,#513,#302,.T.);
#650=EDGE_CURVE('',#513,#513,#199,.T.);
#651=EDGE_CURVE('',#463,#494,#303,.T.);
#652=EDGE_CURVE('',#509,#463,#304,.T.);
#653=EDGE_CURVE('',#451,#477,#305,.T.);
#654=EDGE_CURVE('',#476,#514,#306,.T.);
#655=EDGE_CURVE('',#514,#514,#200,.T.);
#656=EDGE_CURVE('',#466,#511,#307,.T.);
#657=EDGE_CURVE('',#515,#515,#201,.T.);
#658=EDGE_CURVE('',#515,#457,#308,.T.);
#659=EDGE_CURVE('',#502,#516,#309,.T.);
#660=EDGE_CURVE('',#516,#516,#202,.T.);
#661=EDGE_CURVE('',#517,#517,#203,.T.);
#662=EDGE_CURVE('',#517,#493,#310,.T.);
#663=EDGE_CURVE('',#464,#517,#311,.T.);
#664=EDGE_CURVE('',#496,#518,#312,.T.);
#665=EDGE_CURVE('',#518,#518,#204,.T.);
#666=EDGE_CURVE('',#467,#508,#313,.T.);
#667=EDGE_CURVE('',#519,#519,#205,.T.);
#668=EDGE_CURVE('',#519,#465,#314,.T.);
#669=ORIENTED_EDGE('',*,*,#520,.T.);
#670=ORIENTED_EDGE('',*,*,#521,.T.);
#671=ORIENTED_EDGE('',*,*,#522,.F.);
#672=ORIENTED_EDGE('',*,*,#523,.T.);
#673=ORIENTED_EDGE('',*,*,#524,.F.);
#674=ORIENTED_EDGE('',*,*,#525,.F.);
#675=ORIENTED_EDGE('',*,*,#526,.F.);
#676=ORIENTED_EDGE('',*,*,#527,.F.);
#677=ORIENTED_EDGE('',*,*,#528,.F.);
#678=ORIENTED_EDGE('',*,*,#529,.T.);
#679=ORIENTED_EDGE('',*,*,#530,.F.);
#680=ORIENTED_EDGE('',*,*,#531,.T.);
#681=ORIENTED_EDGE('',*,*,#532,.F.);
#682=ORIENTED_EDGE('',*,*,#533,.T.);
#683=ORIENTED_EDGE('',*,*,#534,.T.);
#684=ORIENTED_EDGE('',*,*,#535,.T.);
#685=ORIENTED_EDGE('',*,*,#520,.F.);
#686=ORIENTED_EDGE('',*,*,#536,.F.);
#687=ORIENTED_EDGE('',*,*,#537,.F.);
#688=ORIENTED_EDGE('',*,*,#538,.F.);
#689=ORIENTED_EDGE('',*,*,#539,.T.);
#690=ORIENTED_EDGE('',*,*,#532,.T.);
#691=ORIENTED_EDGE('',*,*,#540,.T.);
#692=ORIENTED_EDGE('',*,*,#541,.F.);
#693=ORIENTED_EDGE('',*,*,#542,.T.);
#694=ORIENTED_EDGE('',*,*,#543,.T.);
#695=ORIENTED_EDGE('',*,*,#544,.F.);
#696=ORIENTED_EDGE('',*,*,#545,.T.);
#697=ORIENTED_EDGE('',*,*,#546,.F.);
#698=ORIENTED_EDGE('',*,*,#545,.F.);
#699=ORIENTED_EDGE('',*,*,#546,.T.);
#700=ORIENTED_EDGE('',*,*,#547,.T.);
#701=ORIENTED_EDGE('',*,*,#548,.F.);
#702=ORIENTED_EDGE('',*,*,#549,.T.);
#703=ORIENTED_EDGE('',*,*,#550,.F.);
#704=ORIENTED_EDGE('',*,*,#547,.F.);
#705=ORIENTED_EDGE('',*,*,#533,.F.);
#706=ORIENTED_EDGE('',*,*,#551,.T.);
#707=ORIENTED_EDGE('',*,*,#552,.F.);
#708=ORIENTED_EDGE('',*,*,#553,.T.);
#709=ORIENTED_EDGE('',*,*,#554,.T.);
#710=ORIENTED_EDGE('',*,*,#555,.T.);
#711=ORIENTED_EDGE('',*,*,#556,.F.);
#712=ORIENTED_EDGE('',*,*,#557,.F.);
#713=ORIENTED_EDGE('',*,*,#544,.T.);
#714=ORIENTED_EDGE('',*,*,#558,.T.);
#715=ORIENTED_EDGE('',*,*,#559,.F.);
#716=ORIENTED_EDGE('',*,*,#560,.F.);
#717=ORIENTED_EDGE('',*,*,#561,.T.);
#718=ORIENTED_EDGE('',*,*,#562,.T.);
#719=ORIENTED_EDGE('',*,*,#563,.F.);
#720=ORIENTED_EDGE('',*,*,#564,.T.);
#721=ORIENTED_EDGE('',*,*,#535,.F.);
#722=ORIENTED_EDGE('',*,*,#565,.T.);
#723=ORIENTED_EDGE('',*,*,#566,.T.);
#724=ORIENTED_EDGE('',*,*,#567,.T.);
#725=ORIENTED_EDGE('',*,*,#568,.T.);
#726=ORIENTED_EDGE('',*,*,#565,.F.);
#727=ORIENTED_EDGE('',*,*,#534,.F.);
#728=ORIENTED_EDGE('',*,*,#557,.T.);
#729=ORIENTED_EDGE('',*,*,#556,.T.);
#730=ORIENTED_EDGE('',*,*,#569,.T.);
#731=ORIENTED_EDGE('',*,*,#559,.T.);
#732=ORIENTED_EDGE('',*,*,#568,.F.);
#733=ORIENTED_EDGE('',*,*,#570,.F.);
#734=ORIENTED_EDGE('',*,*,#571,.F.);
#735=ORIENTED_EDGE('',*,*,#572,.T.);
#736=ORIENTED_EDGE('',*,*,#573,.T.);
#737=ORIENTED_EDGE('',*,*,#574,.T.);
#738=ORIENTED_EDGE('',*,*,#548,.T.);
#739=ORIENTED_EDGE('',*,*,#550,.T.);
#740=ORIENTED_EDGE('',*,*,#575,.T.);
#741=ORIENTED_EDGE('',*,*,#576,.T.);
#742=ORIENTED_EDGE('',*,*,#574,.F.);
#743=ORIENTED_EDGE('',*,*,#577,.T.);
#744=ORIENTED_EDGE('',*,*,#578,.T.);
#745=ORIENTED_EDGE('',*,*,#579,.F.);
#746=ORIENTED_EDGE('',*,*,#580,.F.);
#747=ORIENTED_EDGE('',*,*,#581,.F.);
#748=ORIENTED_EDGE('',*,*,#575,.F.);
#749=ORIENTED_EDGE('',*,*,#549,.F.);
#750=ORIENTED_EDGE('',*,*,#582,.T.);
#751=ORIENTED_EDGE('',*,*,#583,.F.);
#752=ORIENTED_EDGE('',*,*,#538,.T.);
#753=ORIENTED_EDGE('',*,*,#584,.T.);
#754=ORIENTED_EDGE('',*,*,#585,.T.);
#755=ORIENTED_EDGE('',*,*,#586,.T.);
#756=ORIENTED_EDGE('',*,*,#587,.T.);
#757=ORIENTED_EDGE('',*,*,#588,.T.);
#758=ORIENTED_EDGE('',*,*,#589,.T.);
#759=ORIENTED_EDGE('',*,*,#590,.T.);
#760=ORIENTED_EDGE('',*,*,#591,.T.);
#761=ORIENTED_EDGE('',*,*,#555,.F.);
#762=ORIENTED_EDGE('',*,*,#592,.T.);
#763=ORIENTED_EDGE('',*,*,#572,.F.);
#764=ORIENTED_EDGE('',*,*,#593,.F.);
#765=ORIENTED_EDGE('',*,*,#594,.F.);
#766=ORIENTED_EDGE('',*,*,#595,.F.);
#767=ORIENTED_EDGE('',*,*,#589,.F.);
#768=ORIENTED_EDGE('',*,*,#596,.T.);
#769=ORIENTED_EDGE('',*,*,#560,.T.);
#770=ORIENTED_EDGE('',*,*,#569,.F.);
#771=ORIENTED_EDGE('',*,*,#588,.F.);
#772=ORIENTED_EDGE('',*,*,#597,.F.);
#773=ORIENTED_EDGE('',*,*,#598,.F.);
#774=ORIENTED_EDGE('',*,*,#561,.F.);
#775=ORIENTED_EDGE('',*,*,#596,.F.);
#776=ORIENTED_EDGE('',*,*,#576,.F.);
#777=ORIENTED_EDGE('',*,*,#581,.T.);
#778=ORIENTED_EDGE('',*,*,#599,.T.);
#779=ORIENTED_EDGE('',*,*,#600,.T.);
#780=ORIENTED_EDGE('',*,*,#593,.T.);
#781=ORIENTED_EDGE('',*,*,#580,.T.);
#782=ORIENTED_EDGE('',*,*,#601,.T.);
#783=ORIENTED_EDGE('',*,*,#527,.T.);
#784=ORIENTED_EDGE('',*,*,#599,.F.);
#785=ORIENTED_EDGE('',*,*,#579,.T.);
#786=ORIENTED_EDGE('',*,*,#602,.T.);
#787=ORIENTED_EDGE('',*,*,#603,.T.);
#788=ORIENTED_EDGE('',*,*,#601,.F.);
#789=ORIENTED_EDGE('',*,*,#600,.F.);
#790=ORIENTED_EDGE('',*,*,#526,.T.);
#791=ORIENTED_EDGE('',*,*,#604,.F.);
#792=ORIENTED_EDGE('',*,*,#594,.T.);
#793=ORIENTED_EDGE('',*,*,#605,.T.);
#794=ORIENTED_EDGE('',*,*,#606,.T.);
#795=ORIENTED_EDGE('',*,*,#525,.T.);
#796=ORIENTED_EDGE('',*,*,#607,.T.);
#797=ORIENTED_EDGE('',*,*,#590,.F.);
#798=ORIENTED_EDGE('',*,*,#595,.T.);
#799=ORIENTED_EDGE('',*,*,#604,.T.);
#800=ORIENTED_EDGE('',*,*,#606,.F.);
#801=ORIENTED_EDGE('',*,*,#608,.T.);
#802=ORIENTED_EDGE('',*,*,#609,.T.);
#803=ORIENTED_EDGE('',*,*,#610,.T.);
#804=ORIENTED_EDGE('',*,*,#611,.T.);
#805=ORIENTED_EDGE('',*,*,#607,.F.);
#806=ORIENTED_EDGE('',*,*,#591,.F.);
#807=ORIENTED_EDGE('',*,*,#608,.F.);
#808=ORIENTED_EDGE('',*,*,#605,.F.);
#809=ORIENTED_EDGE('',*,*,#611,.F.);
#810=ORIENTED_EDGE('',*,*,#612,.F.);
#811=ORIENTED_EDGE('',*,*,#597,.T.);
#812=ORIENTED_EDGE('',*,*,#587,.F.);
#813=ORIENTED_EDGE('',*,*,#613,.F.);
#814=ORIENTED_EDGE('',*,*,#614,.F.);
#815=ORIENTED_EDGE('',*,*,#615,.F.);
#816=ORIENTED_EDGE('',*,*,#616,.T.);
#817=ORIENTED_EDGE('',*,*,#617,.T.);
#818=ORIENTED_EDGE('',*,*,#541,.T.);
#819=ORIENTED_EDGE('',*,*,#618,.T.);
#820=ORIENTED_EDGE('',*,*,#603,.F.);
#821=ORIENTED_EDGE('',*,*,#619,.T.);
#822=ORIENTED_EDGE('',*,*,#620,.T.);
#823=ORIENTED_EDGE('',*,*,#530,.T.);
#824=ORIENTED_EDGE('',*,*,#621,.T.);
#825=ORIENTED_EDGE('',*,*,#622,.T.);
#826=ORIENTED_EDGE('',*,*,#528,.T.);
#827=ORIENTED_EDGE('',*,*,#620,.F.);
#828=ORIENTED_EDGE('',*,*,#623,.F.);
#829=ORIENTED_EDGE('',*,*,#624,.T.);
#830=ORIENTED_EDGE('',*,*,#625,.T.);
#831=ORIENTED_EDGE('',*,*,#626,.F.);
#832=ORIENTED_EDGE('',*,*,#536,.T.);
#833=ORIENTED_EDGE('',*,*,#531,.F.);
#834=ORIENTED_EDGE('',*,*,#578,.F.);
#835=ORIENTED_EDGE('',*,*,#627,.T.);
#836=ORIENTED_EDGE('',*,*,#553,.F.);
#837=ORIENTED_EDGE('',*,*,#628,.F.);
#838=ORIENTED_EDGE('',*,*,#623,.T.);
#839=ORIENTED_EDGE('',*,*,#619,.F.);
#840=ORIENTED_EDGE('',*,*,#602,.F.);
#841=ORIENTED_EDGE('',*,*,#609,.F.);
#842=ORIENTED_EDGE('',*,*,#524,.T.);
#843=ORIENTED_EDGE('',*,*,#629,.T.);
#844=ORIENTED_EDGE('',*,*,#630,.T.);
#845=ORIENTED_EDGE('',*,*,#522,.T.);
#846=ORIENTED_EDGE('',*,*,#631,.T.);
#847=ORIENTED_EDGE('',*,*,#632,.T.);
#848=ORIENTED_EDGE('',*,*,#610,.F.);
#849=ORIENTED_EDGE('',*,*,#632,.F.);
#850=ORIENTED_EDGE('',*,*,#633,.T.);
#851=ORIENTED_EDGE('',*,*,#634,.T.);
#852=ORIENTED_EDGE('',*,*,#562,.F.);
#853=ORIENTED_EDGE('',*,*,#598,.T.);
#854=ORIENTED_EDGE('',*,*,#612,.T.);
#855=ORIENTED_EDGE('',*,*,#631,.F.);
#856=ORIENTED_EDGE('',*,*,#521,.F.);
#857=ORIENTED_EDGE('',*,*,#543,.F.);
#858=ORIENTED_EDGE('',*,*,#635,.T.);
#859=ORIENTED_EDGE('',*,*,#636,.T.);
#860=ORIENTED_EDGE('',*,*,#637,.F.);
#861=ORIENTED_EDGE('',*,*,#633,.F.);
#862=ORIENTED_EDGE('',*,*,#635,.F.);
#863=ORIENTED_EDGE('',*,*,#542,.F.);
#864=ORIENTED_EDGE('',*,*,#617,.F.);
#865=ORIENTED_EDGE('',*,*,#638,.T.);
#866=ORIENTED_EDGE('',*,*,#639,.F.);
#867=ORIENTED_EDGE('',*,*,#640,.F.);
#868=ORIENTED_EDGE('',*,*,#636,.F.);
#869=ORIENTED_EDGE('',*,*,#639,.T.);
#870=ORIENTED_EDGE('',*,*,#641,.T.);
#871=ORIENTED_EDGE('',*,*,#642,.T.);
#872=ORIENTED_EDGE('',*,*,#626,.T.);
#873=ORIENTED_EDGE('',*,*,#643,.F.);
#874=ORIENTED_EDGE('',*,*,#644,.T.);
#875=ORIENTED_EDGE('',*,*,#584,.F.);
#876=ORIENTED_EDGE('',*,*,#537,.T.);
#877=ORIENTED_EDGE('',*,*,#645,.F.);
#878=ORIENTED_EDGE('',*,*,#628,.T.);
#879=ORIENTED_EDGE('',*,*,#552,.T.);
#880=ORIENTED_EDGE('',*,*,#646,.T.);
#881=ORIENTED_EDGE('',*,*,#647,.F.);
#882=ORIENTED_EDGE('',*,*,#624,.F.);
#883=ORIENTED_EDGE('',*,*,#625,.F.);
#884=ORIENTED_EDGE('',*,*,#647,.T.);
#885=ORIENTED_EDGE('',*,*,#648,.T.);
#886=ORIENTED_EDGE('',*,*,#643,.T.);
#887=ORIENTED_EDGE('',*,*,#621,.F.);
#888=ORIENTED_EDGE('',*,*,#529,.F.);
#889=ORIENTED_EDGE('',*,*,#622,.F.);
#890=ORIENTED_EDGE('',*,*,#649,.T.);
#891=ORIENTED_EDGE('',*,*,#650,.F.);
#892=ORIENTED_EDGE('',*,*,#649,.F.);
#893=ORIENTED_EDGE('',*,*,#641,.F.);
#894=ORIENTED_EDGE('',*,*,#638,.F.);
#895=ORIENTED_EDGE('',*,*,#616,.F.);
#896=ORIENTED_EDGE('',*,*,#651,.F.);
#897=ORIENTED_EDGE('',*,*,#652,.F.);
#898=ORIENTED_EDGE('',*,*,#583,.T.);
#899=ORIENTED_EDGE('',*,*,#653,.F.);
#900=ORIENTED_EDGE('',*,*,#551,.F.);
#901=ORIENTED_EDGE('',*,*,#539,.F.);
#902=ORIENTED_EDGE('',*,*,#582,.F.);
#903=ORIENTED_EDGE('',*,*,#654,.T.);
#904=ORIENTED_EDGE('',*,*,#655,.F.);
#905=ORIENTED_EDGE('',*,*,#654,.F.);
#906=ORIENTED_EDGE('',*,*,#570,.T.);
#907=ORIENTED_EDGE('',*,*,#656,.T.);
#908=ORIENTED_EDGE('',*,*,#645,.T.);
#909=ORIENTED_EDGE('',*,*,#656,.F.);
#910=ORIENTED_EDGE('',*,*,#657,.F.);
#911=ORIENTED_EDGE('',*,*,#658,.T.);
#912=ORIENTED_EDGE('',*,*,#558,.F.);
#913=ORIENTED_EDGE('',*,*,#658,.F.);
#914=ORIENTED_EDGE('',*,*,#573,.F.);
#915=ORIENTED_EDGE('',*,*,#592,.F.);
#916=ORIENTED_EDGE('',*,*,#554,.F.);
#917=ORIENTED_EDGE('',*,*,#627,.F.);
#918=ORIENTED_EDGE('',*,*,#577,.F.);
#919=ORIENTED_EDGE('',*,*,#655,.T.);
#920=ORIENTED_EDGE('',*,*,#657,.T.);
#921=ORIENTED_EDGE('',*,*,#648,.F.);
#922=ORIENTED_EDGE('',*,*,#646,.F.);
#923=ORIENTED_EDGE('',*,*,#653,.T.);
#924=ORIENTED_EDGE('',*,*,#585,.F.);
#925=ORIENTED_EDGE('',*,*,#644,.F.);
#926=ORIENTED_EDGE('',*,*,#650,.T.);
#927=ORIENTED_EDGE('',*,*,#629,.F.);
#928=ORIENTED_EDGE('',*,*,#523,.F.);
#929=ORIENTED_EDGE('',*,*,#630,.F.);
#930=ORIENTED_EDGE('',*,*,#659,.T.);
#931=ORIENTED_EDGE('',*,*,#660,.F.);
#932=ORIENTED_EDGE('',*,*,#659,.F.);
#933=ORIENTED_EDGE('',*,*,#637,.T.);
#934=ORIENTED_EDGE('',*,*,#642,.F.);
#935=ORIENTED_EDGE('',*,*,#652,.T.);
#936=ORIENTED_EDGE('',*,*,#563,.T.);
#937=ORIENTED_EDGE('',*,*,#634,.F.);
#938=ORIENTED_EDGE('',*,*,#661,.T.);
#939=ORIENTED_EDGE('',*,*,#662,.T.);
#940=ORIENTED_EDGE('',*,*,#613,.T.);
#941=ORIENTED_EDGE('',*,*,#586,.F.);
#942=ORIENTED_EDGE('',*,*,#614,.T.);
#943=ORIENTED_EDGE('',*,*,#662,.F.);
#944=ORIENTED_EDGE('',*,*,#566,.F.);
#945=ORIENTED_EDGE('',*,*,#663,.T.);
#946=ORIENTED_EDGE('',*,*,#661,.F.);
#947=ORIENTED_EDGE('',*,*,#663,.F.);
#948=ORIENTED_EDGE('',*,*,#615,.T.);
#949=ORIENTED_EDGE('',*,*,#540,.F.);
#950=ORIENTED_EDGE('',*,*,#564,.F.);
#951=ORIENTED_EDGE('',*,*,#651,.T.);
#952=ORIENTED_EDGE('',*,*,#618,.F.);
#953=ORIENTED_EDGE('',*,*,#664,.T.);
#954=ORIENTED_EDGE('',*,*,#665,.F.);
#955=ORIENTED_EDGE('',*,*,#664,.F.);
#956=ORIENTED_EDGE('',*,*,#571,.T.);
#957=ORIENTED_EDGE('',*,*,#666,.T.);
#958=ORIENTED_EDGE('',*,*,#640,.T.);
#959=ORIENTED_EDGE('',*,*,#666,.F.);
#960=ORIENTED_EDGE('',*,*,#665,.T.);
#961=ORIENTED_EDGE('',*,*,#667,.T.);
#962=ORIENTED_EDGE('',*,*,#667,.F.);
#963=ORIENTED_EDGE('',*,*,#668,.T.);
#964=ORIENTED_EDGE('',*,*,#567,.F.);
#965=ORIENTED_EDGE('',*,*,#668,.F.);
#966=ORIENTED_EDGE('',*,*,#660,.T.);
#967=PLANE('',#1074);
#968=PLANE('',#1077);
#969=PLANE('',#1078);
#970=PLANE('',#1084);
#971=PLANE('',#1088);
#972=PLANE('',#1094);
#973=PLANE('',#1095);
#974=PLANE('',#1097);
#975=PLANE('',#1099);
#976=PLANE('',#1100);
#977=PLANE('',#1103);
#978=PLANE('',#1104);
#979=PLANE('',#1105);
#980=PLANE('',#1106);
#981=PLANE('',#1107);
#982=PLANE('',#1108);
#983=PLANE('',#1109);
#984=PLANE('',#1110);
#985=PLANE('',#1111);
#986=PLANE('',#1112);
#987=PLANE('',#1113);
#988=PLANE('',#1118);
#989=PLANE('',#1121);
#990=PLANE('',#1122);
#991=PLANE('',#1123);
#992=PLANE('',#1126);
#993=PLANE('',#1127);
#994=PLANE('',#1128);
#995=PLANE('',#1133);
#996=PLANE('',#1136);
#997=PLANE('',#1141);
#998=PLANE('',#1148);
#999=PLANE('',#1149);
#1000=PLANE('',#1150);
#1001=PLANE('',#1151);
#1002=PLANE('',#1154);
#1003=PLANE('',#1162);
#1004=PLANE('',#1165);
#1005=ADVANCED_FACE('',(#51),#967,.T.);
#1006=ADVANCED_FACE('',(#52),#968,.F.);
#1007=ADVANCED_FACE('',(#53),#969,.F.);
#1008=ADVANCED_FACE('',(#54),#36,.F.);
#1009=ADVANCED_FACE('',(#55),#34,.F.);
#1010=ADVANCED_FACE('',(#56,#19,#20),#970,.T.);
#1011=ADVANCED_FACE('',(#57,#21,#22),#971,.T.);
#1012=ADVANCED_FACE('',(#58),#37,.F.);
#1013=ADVANCED_FACE('',(#59),#972,.F.);
#1014=ADVANCED_FACE('',(#60),#973,.F.);
#1015=ADVANCED_FACE('',(#61),#974,.F.);
#1016=ADVANCED_FACE('',(#62),#975,.T.);
#1017=ADVANCED_FACE('',(#63,#23,#24),#976,.T.);
#1018=ADVANCED_FACE('',(#64),#977,.T.);
#1019=ADVANCED_FACE('',(#65),#978,.T.);
#1020=ADVANCED_FACE('',(#66),#979,.F.);
#1021=ADVANCED_FACE('',(#67),#980,.T.);
#1022=ADVANCED_FACE('',(#68),#981,.T.);
#1023=ADVANCED_FACE('',(#69),#982,.T.);
#1024=ADVANCED_FACE('',(#70),#983,.T.);
#1025=ADVANCED_FACE('',(#71),#984,.T.);
#1026=ADVANCED_FACE('',(#72),#985,.T.);
#1027=ADVANCED_FACE('',(#73),#986,.T.);
#1028=ADVANCED_FACE('',(#74,#25,#26),#987,.T.);
#1029=ADVANCED_FACE('',(#75),#988,.T.);
#1030=ADVANCED_FACE('',(#76),#989,.T.);
#1031=ADVANCED_FACE('',(#77),#990,.T.);
#1032=ADVANCED_FACE('',(#78),#991,.T.);
#1033=ADVANCED_FACE('',(#79),#992,.T.);
#1034=ADVANCED_FACE('',(#80),#993,.T.);
#1035=ADVANCED_FACE('',(#81,#27),#994,.T.);
#1036=ADVANCED_FACE('',(#82),#38,.T.);
#1037=ADVANCED_FACE('',(#83,#28),#995,.T.);
#1038=ADVANCED_FACE('',(#84),#996,.F.);
#1039=ADVANCED_FACE('',(#85),#39,.T.);
#1040=ADVANCED_FACE('',(#86),#40,.F.);
#1041=ADVANCED_FACE('',(#87),#997,.T.);
#1042=ADVANCED_FACE('',(#88),#41,.F.);
#1043=ADVANCED_FACE('',(#89),#42,.F.);
#1044=ADVANCED_FACE('',(#90),#43,.F.);
#1045=ADVANCED_FACE('',(#91),#44,.F.);
#1046=ADVANCED_FACE('',(#92),#998,.F.);
#1047=ADVANCED_FACE('',(#93,#29),#999,.F.);
#1048=ADVANCED_FACE('',(#94),#1000,.T.);
#1049=ADVANCED_FACE('',(#95),#1001,.F.);
#1050=ADVANCED_FACE('',(#96),#45,.F.);
#1051=ADVANCED_FACE('',(#97),#1002,.F.);
#1052=ADVANCED_FACE('',(#98),#35,.F.);
#1053=ADVANCED_FACE('',(#99),#46,.F.);
#1054=ADVANCED_FACE('',(#100),#47,.F.);
#1055=ADVANCED_FACE('',(#101),#48,.F.);
#1056=ADVANCED_FACE('',(#102),#49,.F.);
#1057=ADVANCED_FACE('',(#103,#30),#1003,.F.);
#1058=ADVANCED_FACE('',(#104),#50,.F.);
#1059=ADVANCED_FACE('',(#105),#1004,.F.);
#1060=CLOSED_SHELL('',(#1005,#1006,#1007,#1008,#1009,#1010,#1011,#1012,
#1013,#1014,#1015,#1016,#1017,#1018,#1019,#1020,#1021,#1022,#1023,#1024,
#1025,#1026,#1027,#1028,#1029,#1030,#1031,#1032,#1033,#1034,#1035,#1036,
#1037,#1038,#1039,#1040,#1041,#1042,#1043,#1044,#1045,#1046,#1047,#1048,
#1049,#1050,#1051,#1052,#1053,#1054,#1055,#1056,#1057,#1058,#1059));
#1061=DERIVED_UNIT_ELEMENT(#1063,1.);
#1062=DERIVED_UNIT_ELEMENT(#1773,-3.);
#1063=(
MASS_UNIT()
NAMED_UNIT(*)
SI_UNIT(.KILO.,.GRAM.)
);
#1064=DERIVED_UNIT((#1061,#1062));
#1065=MEASURE_REPRESENTATION_ITEM('density measure',
POSITIVE_RATIO_MEASURE(7850.),#1064);
#1066=PROPERTY_DEFINITION_REPRESENTATION(#1071,#1068);
#1067=PROPERTY_DEFINITION_REPRESENTATION(#1072,#1069);
#1068=REPRESENTATION('material name',(#1070),#1770);
#1069=REPRESENTATION('density',(#1065),#1770);
#1070=DESCRIPTIVE_REPRESENTATION_ITEM('Steel','Steel');
#1071=PROPERTY_DEFINITION('material property','material name',#1780);
#1072=PROPERTY_DEFINITION('material property','density of part',#1780);
#1073=AXIS2_PLACEMENT_3D('',#1461,#1166,#1167);
#1074=AXIS2_PLACEMENT_3D('',#1462,#1168,#1169);
#1075=AXIS2_PLACEMENT_3D('',#1471,#1173,#1174);
#1076=AXIS2_PLACEMENT_3D('',#1483,#1180,#1181);
#1077=AXIS2_PLACEMENT_3D('',#1487,#1184,#1185);
#1078=AXIS2_PLACEMENT_3D('',#1496,#1190,#1191);
#1079=AXIS2_PLACEMENT_3D('',#1511,#1200,#1201);
#1080=AXIS2_PLACEMENT_3D('',#1513,#1202,#1203);
#1081=AXIS2_PLACEMENT_3D('',#1516,#1205,#1206);
#1082=AXIS2_PLACEMENT_3D('',#1517,#1207,#1208);
#1083=AXIS2_PLACEMENT_3D('',#1525,#1210,#1211);
#1084=AXIS2_PLACEMENT_3D('',#1529,#1212,#1213);
#1085=AXIS2_PLACEMENT_3D('',#1531,#1214,#1215);
#1086=AXIS2_PLACEMENT_3D('',#1542,#1221,#1222);
#1087=AXIS2_PLACEMENT_3D('',#1544,#1223,#1224);
#1088=AXIS2_PLACEMENT_3D('',#1545,#1225,#1226);
#1089=AXIS2_PLACEMENT_3D('',#1557,#1232,#1233);
#1090=AXIS2_PLACEMENT_3D('',#1558,#1234,#1235);
#1091=AXIS2_PLACEMENT_3D('',#1560,#1236,#1237);
#1092=AXIS2_PLACEMENT_3D('',#1562,#1238,#1239);
#1093=AXIS2_PLACEMENT_3D('',#1563,#1240,#1241);
#1094=AXIS2_PLACEMENT_3D('',#1565,#1243,#1244);
#1095=AXIS2_PLACEMENT_3D('',#1567,#1246,#1247);
#1096=AXIS2_PLACEMENT_3D('',#1569,#1248,#1249);
#1097=AXIS2_PLACEMENT_3D('',#1570,#1250,#1251);
#1098=AXIS2_PLACEMENT_3D('',#1572,#1252,#1253);
#1099=AXIS2_PLACEMENT_3D('',#1573,#1254,#1255);
#1100=AXIS2_PLACEMENT_3D('',#1583,#1261,#1262);
#1101=AXIS2_PLACEMENT_3D('',#1594,#1268,#1269);
#1102=AXIS2_PLACEMENT_3D('',#1596,#1270,#1271);
#1103=AXIS2_PLACEMENT_3D('',#1600,#1274,#1275);
#1104=AXIS2_PLACEMENT_3D('',#1615,#1281,#1282);
#1105=AXIS2_PLACEMENT_3D('',#1623,#1288,#1289);
#1106=AXIS2_PLACEMENT_3D('',#1627,#1292,#1293);
#1107=AXIS2_PLACEMENT_3D('',#1630,#1296,#1297);
#1108=AXIS2_PLACEMENT_3D('',#1632,#1299,#1300);
#1109=AXIS2_PLACEMENT_3D('',#1636,#1303,#1304);
#1110=AXIS2_PLACEMENT_3D('',#1638,#1306,#1307);
#1111=AXIS2_PLACEMENT_3D('',#1644,#1311,#1312);
#1112=AXIS2_PLACEMENT_3D('',#1646,#1314,#1315);
#1113=AXIS2_PLACEMENT_3D('',#1652,#1319,#1320);
#1114=AXIS2_PLACEMENT_3D('',#1655,#1322,#1323);
#1115=AXIS2_PLACEMENT_3D('',#1656,#1324,#1325);
#1116=AXIS2_PLACEMENT_3D('',#1658,#1326,#1327);
#1117=AXIS2_PLACEMENT_3D('',#1663,#1330,#1331);
#1118=AXIS2_PLACEMENT_3D('',#1664,#1332,#1333);
#1119=AXIS2_PLACEMENT_3D('',#1669,#1336,#1337);
#1120=AXIS2_PLACEMENT_3D('',#1670,#1338,#1339);
#1121=AXIS2_PLACEMENT_3D('',#1671,#1340,#1341);
#1122=AXIS2_PLACEMENT_3D('',#1679,#1346,#1347);
#1123=AXIS2_PLACEMENT_3D('',#1682,#1350,#1351);
#1124=AXIS2_PLACEMENT_3D('',#1684,#1352,#1353);
#1125=AXIS2_PLACEMENT_3D('',#1685,#1354,#1355);
#1126=AXIS2_PLACEMENT_3D('',#1689,#1358,#1359);
#1127=AXIS2_PLACEMENT_3D('',#1693,#1362,#1363);
#1128=AXIS2_PLACEMENT_3D('',#1699,#1367,#1368);
#1129=AXIS2_PLACEMENT_3D('',#1702,#1370,#1371);
#1130=AXIS2_PLACEMENT_3D('',#1704,#1372,#1373);
#1131=AXIS2_PLACEMENT_3D('',#1705,#1374,#1375);
#1132=AXIS2_PLACEMENT_3D('',#1708,#1377,#1378);
#1133=AXIS2_PLACEMENT_3D('',#1709,#1379,#1380);
#1134=AXIS2_PLACEMENT_3D('',#1711,#1381,#1382);
#1135=AXIS2_PLACEMENT_3D('',#1714,#1384,#1385);
#1136=AXIS2_PLACEMENT_3D('',#1715,#1386,#1387);
#1137=AXIS2_PLACEMENT_3D('',#1718,#1389,#1390);
#1138=AXIS2_PLACEMENT_3D('',#1719,#1391,#1392);
#1139=AXIS2_PLACEMENT_3D('',#1721,#1394,#1395);
#1140=AXIS2_PLACEMENT_3D('',#1724,#1397,#1398);
#1141=AXIS2_PLACEMENT_3D('',#1725,#1399,#1400);
#1142=AXIS2_PLACEMENT_3D('',#1728,#1403,#1404);
#1143=AXIS2_PLACEMENT_3D('',#1730,#1406,#1407);
#1144=AXIS2_PLACEMENT_3D('',#1733,#1409,#1410);
#1145=AXIS2_PLACEMENT_3D('',#1734,#1411,#1412);
#1146=AXIS2_PLACEMENT_3D('',#1736,#1414,#1415);
#1147=AXIS2_PLACEMENT_3D('',#1738,#1416,#1417);
#1148=AXIS2_PLACEMENT_3D('',#1740,#1419,#1420);
#1149=AXIS2_PLACEMENT_3D('',#1741,#1421,#1422);
#1150=AXIS2_PLACEMENT_3D('',#1742,#1423,#1424);
#1151=AXIS2_PLACEMENT_3D('',#1743,#1425,#1426);
#1152=AXIS2_PLACEMENT_3D('',#1744,#1427,#1428);
#1153=AXIS2_PLACEMENT_3D('',#1747,#1430,#1431);
#1154=AXIS2_PLACEMENT_3D('',#1748,#1432,#1433);
#1155=AXIS2_PLACEMENT_3D('',#1749,#1434,#1435);
#1156=AXIS2_PLACEMENT_3D('',#1751,#1436,#1437);
#1157=AXIS2_PLACEMENT_3D('',#1753,#1439,#1440);
#1158=AXIS2_PLACEMENT_3D('',#1755,#1442,#1443);
#1159=AXIS2_PLACEMENT_3D('',#1756,#1444,#1445);
#1160=AXIS2_PLACEMENT_3D('',#1759,#1447,#1448);
#1161=AXIS2_PLACEMENT_3D('',#1760,#1449,#1450);
#1162=AXIS2_PLACEMENT_3D('',#1762,#1452,#1453);
#1163=AXIS2_PLACEMENT_3D('',#1764,#1454,#1455);
#1164=AXIS2_PLACEMENT_3D('',#1765,#1456,#1457);
#1165=AXIS2_PLACEMENT_3D('',#1767,#1459,#1460);
#1166=DIRECTION('axis',(0.,0.,1.));
#1167=DIRECTION('refdir',(1.,0.,0.));
#1168=DIRECTION('center_axis',(1.,-2.55819075594407E-23,3.54987407349455E-30));
#1169=DIRECTION('ref_axis',(-2.5581913497427E-23,-1.,1.2711794068773E-9));
#1170=DIRECTION('',(-1.77493703674728E-30,5.92250576417543E-11,1.));
#1171=DIRECTION('',(2.55819343947707E-23,0.999999999999997,-7.3267550285158E-8));
#1172=DIRECTION('',(3.54987390721586E-30,-6.49985512821625E-15,-1.));
#1173=DIRECTION('center_axis',(-1.,2.55819075594407E-23,-3.54987407349455E-30));
#1174=DIRECTION('ref_axis',(-2.55819177046852E-23,-1.,1.2711794068773E-9));
#1175=DIRECTION('',(3.54987390721586E-30,-6.49985512821625E-15,-1.));
#1176=DIRECTION('',(2.55819075594407E-23,1.,-5.55111117374699E-17));
#1177=DIRECTION('',(-3.54987416171849E-30,-3.4486846799474E-15,1.));
#1178=DIRECTION('',(-2.55819075594407E-23,-1.,5.55111115306747E-17));
#1179=DIRECTION('',(3.54987390721586E-30,-6.4998551280093E-15,-1.));
#1180=DIRECTION('center_axis',(-1.,2.55819075594407E-23,-3.54987407349455E-30));
#1181=DIRECTION('ref_axis',(-2.55819177046852E-23,-1.,1.2711794068773E-9));
#1182=DIRECTION('',(3.54987390721586E-30,-6.4998551280093E-15,-1.));
#1183=DIRECTION('',(-2.55818615962407E-23,-0.999999999999997,7.39043255335662E-8));
#1184=DIRECTION('center_axis',(1.,1.36642833800016E-14,-6.37666557735301E-14));
#1185=DIRECTION('ref_axis',(-6.37666557735307E-14,4.78506123613444E-14,
-1.));
#1186=DIRECTION('',(6.37666557735301E-14,1.92113783562813E-29,1.));
#1187=DIRECTION('',(1.36642833800016E-14,-1.,5.55111119401787E-17));
#1188=DIRECTION('',(6.07153216591882E-15,1.2712053631958E-9,1.));
#1189=DIRECTION('',(-1.36642833800013E-14,1.,3.13829882946506E-15));
#1190=DIRECTION('center_axis',(3.053113317718E-16,-1.,-2.57304240569129E-31));
#1191=DIRECTION('ref_axis',(3.7470027081099E-16,3.71704479265688E-31,-1.));
#1192=DIRECTION('',(1.,0.,0.));
#1193=DIRECTION('',(1.09075902266518E-14,-1.51461293802434E-28,1.));
#1194=DIRECTION('',(1.,-6.73098378195463E-15,-8.88178906383962E-14));
#1195=DIRECTION('',(6.37666557735301E-14,1.92113783562813E-29,1.));
#1196=DIRECTION('',(2.55480662836557E-15,2.05896302971549E-15,1.));
#1197=DIRECTION('',(-1.,6.73098378195505E-15,2.54400578114058E-15));
#1198=DIRECTION('',(-3.87650888904718E-14,-1.15781166748315E-29,-1.));
#1199=DIRECTION('',(1.,0.,0.));
#1200=DIRECTION('center_axis',(5.97812397515941E-17,-2.38192906899196E-15,
1.));
#1201=DIRECTION('ref_axis',(6.42013521155955E-14,1.,2.38192906899196E-15));
#1202=DIRECTION('center_axis',(6.40502608215901E-14,3.24917447554779E-15,
1.));
#1203=DIRECTION('ref_axis',(6.42013521155955E-14,1.,2.38192906899196E-15));
#1204=DIRECTION('',(-5.97812397515941E-17,2.38192906899196E-15,-1.));
#1205=DIRECTION('center_axis',(5.97812397515941E-17,-2.38192906899196E-15,
1.));
#1206=DIRECTION('ref_axis',(6.42013521155955E-14,1.,2.38192906899196E-15));
#1207=DIRECTION('center_axis',(0.,0.,-1.));
#1208=DIRECTION('ref_axis',(6.42013521155954E-14,1.,9.19464960678332E-16));
#1209=DIRECTION('',(-4.53106158366601E-14,-0.70710678118656,-0.707106781186535));
#1210=DIRECTION('center_axis',(-4.86682239829275E-20,-5.55111115306747E-17,
-1.));
#1211=DIRECTION('ref_axis',(6.42013521155955E-14,1.,-5.55111115306747E-17));
#1212=DIRECTION('center_axis',(6.40502608215901E-14,3.24917447554779E-15,
1.));
#1213=DIRECTION('ref_axis',(-3.2428285271508E-15,1.,-3.2491744755476E-15));
#1214=DIRECTION('center_axis',(-4.86682239829275E-20,-5.55111115306747E-17,
-1.));
#1215=DIRECTION('ref_axis',(6.42013521155955E-14,1.,-5.55111115306745E-17));
#1216=DIRECTION('',(1.36642833800018E-14,-1.,3.24917447554691E-15));
#1217=DIRECTION('',(-1.,1.11597732028527E-14,6.405026082159E-14));
#1218=DIRECTION('',(-1.09106469335879E-14,-1.,3.24917447554849E-15));
#1219=DIRECTION('',(1.,-1.0116143520749E-14,-6.40502608215899E-14));
#1220=DIRECTION('',(1.36642833800018E-14,-1.,3.24917447554691E-15));
#1221=DIRECTION('center_axis',(-4.86682239829275E-20,-5.55111115306747E-17,
-1.));
#1222=DIRECTION('ref_axis',(-5.33358079926717E-14,-1.,3.37893964048713E-17));
#1223=DIRECTION('center_axis',(-6.40502608215901E-14,-3.24917447554779E-15,
-1.));
#1224=DIRECTION('ref_axis',(6.42013521155954E-14,1.,-5.55111115306721E-17));
#1225=DIRECTION('center_axis',(-6.67573181936863E-14,3.13829882946415E-15,
-1.));
#1226=DIRECTION('ref_axis',(3.24282852715034E-15,-1.,-3.13829882946435E-15));
#1227=DIRECTION('',(-1.36642833800013E-14,1.,3.13829882946506E-15));
#1228=DIRECTION('',(1.,-1.01161435210792E-14,-6.67573181936862E-14));
#1229=DIRECTION('',(1.09106469335885E-14,1.,3.13829882946342E-15));
#1230=DIRECTION('',(1.,-1.11597732028529E-14,-6.67573181936862E-14));
#1231=DIRECTION('',(-1.36642833800013E-14,1.,3.13829882946506E-15));
#1232=DIRECTION('center_axis',(2.49507405683742E-15,5.5511111737477E-17,
1.));
#1233=DIRECTION('ref_axis',(-6.42013520971604E-14,-1.,5.5511111737637E-17));
#1234=DIRECTION('center_axis',(-6.67573181936863E-14,3.13829882946415E-15,
-1.));
#1235=DIRECTION('ref_axis',(-5.33358080001763E-14,-1.,-3.13829882947226E-15));
#1236=DIRECTION('center_axis',(-6.67573181936863E-14,3.13829882946415E-15,
-1.));
#1237=DIRECTION('ref_axis',(-6.42013521155956E-14,-1.,-2.38192906878501E-15));
#1238=DIRECTION('center_axis',(6.67573181936863E-14,-3.13829882946415E-15,
1.));
#1239=DIRECTION('ref_axis',(-6.42013521155956E-14,-1.,-2.381929068785E-15));
#1240=DIRECTION('center_axis',(6.07153216591882E-15,1.2712053631958E-9,
1.));
#1241=DIRECTION('ref_axis',(-5.33358079924581E-14,-1.,1.2712053631958E-9));
#1242=DIRECTION('',(6.07153216591882E-15,1.2712053631958E-9,1.));
#1243=DIRECTION('center_axis',(1.,1.36642833800016E-14,-6.37666557735301E-14));
#1244=DIRECTION('ref_axis',(-6.37666557735307E-14,4.78506123613444E-14,
-1.));
#1245=DIRECTION('',(6.55586696042108E-14,-4.9050610376922E-15,1.));
#1246=DIRECTION('center_axis',(1.,-2.55819075594407E-23,5.91645678915759E-30));
#1247=DIRECTION('ref_axis',(-2.5581913497427E-23,-1.,1.2711794068773E-9));
#1248=DIRECTION('center_axis',(1.,-2.55819075594407E-23,5.91645678915759E-30));
#1249=DIRECTION('ref_axis',(6.3766655773342E-14,3.3019463604251E-27,1.));
#1250=DIRECTION('center_axis',(1.,-2.55819075594407E-23,5.91645678915759E-30));
#1251=DIRECTION('ref_axis',(-2.5581913497427E-23,-1.,1.2711794068773E-9));
#1252=DIRECTION('center_axis',(1.,-2.55819075594407E-23,5.91645678915759E-30));
#1253=DIRECTION('ref_axis',(6.62616811619557E-14,2.10181620309956E-25,1.));
#1254=DIRECTION('center_axis',(-6.31724176399019E-15,-0.707106781180628,
-0.707106781192467));
#1255=DIRECTION('ref_axis',(-1.,0.,8.93392897934987E-15));
#1256=DIRECTION('',(-1.,8.93388031127546E-15,4.86682239824316E-20));
#1257=DIRECTION('',(-3.62898681288569E-14,0.707106781192467,-0.707106781180628));
#1258=DIRECTION('',(1.,-8.93388031127546E-15,-4.86682239824316E-20));
#1259=DIRECTION('',(1.,-8.93388031127546E-15,-4.86682239824316E-20));
#1260=DIRECTION('',(0.281084637702179,-0.678598344554147,0.678598344542783));
#1261=DIRECTION('center_axis',(-4.86682239829275E-20,-5.55111115306747E-17,
-1.));
#1262=DIRECTION('ref_axis',(6.42013521155955E-14,1.,-5.55111115306747E-17));
#1263=DIRECTION('',(-3.80135957660208E-14,1.,-4.02502365062257E-15));
#1264=DIRECTION('',(1.,3.85206460324653E-14,3.21811878164167E-9));
#1265=DIRECTION('',(-0.707106781194119,0.707106781178976,-3.92178697629156E-17));
#1266=DIRECTION('',(2.55819075594407E-23,1.,-5.55111115306747E-17));
#1267=DIRECTION('',(0.707106781186556,0.707106781186539,-3.9286697025749E-17));
#1268=DIRECTION('center_axis',(4.86682239829275E-20,5.55111115306747E-17,
1.));
#1269=DIRECTION('ref_axis',(6.42013521155955E-14,1.,-5.55111115306749E-17));
#1270=DIRECTION('center_axis',(-4.86682239829275E-20,-5.55111115306747E-17,
-1.));
#1271=DIRECTION('ref_axis',(6.42013521155955E-14,1.,-5.55111115306745E-17));
#1272=DIRECTION('',(-9.31731995747676E-16,1.,-5.97670057619823E-15));
#1273=DIRECTION('',(-1.,-3.71817409688952E-15,8.35933116989747E-14));
#1274=DIRECTION('center_axis',(-4.55292356525958E-15,-0.707106781186562,
0.707106781186533));
#1275=DIRECTION('ref_axis',(1.,0.,6.43880625443829E-15));
#1276=DIRECTION('',(-1.,8.93388031127546E-15,2.49507405683752E-15));
#1277=DIRECTION('',(-5.34841023685567E-14,-0.707106781186533,-0.707106781186562));
#1278=DIRECTION('',(1.,-8.93388031127546E-15,-2.49507405683752E-15));
#1279=DIRECTION('',(-0.281084637714841,0.67859834454583,0.678598344545855));
#1280=DIRECTION('',(-1.,8.93388031127546E-15,2.49507405683752E-15));
#1281=DIRECTION('center_axis',(-8.93388031127546E-15,-1.,-3.4486846799474E-15));
#1282=DIRECTION('ref_axis',(-6.55586696042109E-14,3.44868467994798E-15,
-1.));
#1283=DIRECTION('',(-6.22322706187609E-14,3.44868467994795E-15,-1.));
#1284=DIRECTION('',(-0.816496580927725,9.28558175689171E-15,-0.577350269189627));
#1285=DIRECTION('',(3.54987416171849E-30,3.4486846799474E-15,-1.));
#1286=DIRECTION('',(0.816496580927726,-5.30338370025618E-15,-0.577350269189626));
#1287=DIRECTION('',(-6.47272960073745E-14,3.44868467974116E-15,-1.));
#1288=DIRECTION('center_axis',(1.,-1.09106469335883E-14,-6.47272960073745E-14));
#1289=DIRECTION('ref_axis',(-6.47272960073746E-14,-6.49985512821212E-15,
-1.));
#1290=DIRECTION('',(7.37392086174134E-14,-1.,2.06616693966957E-25));
#1291=DIRECTION('',(6.47272960073746E-14,6.4998551282121E-15,1.));
#1292=DIRECTION('center_axis',(0.499999999999995,-0.500000000000007,-0.707106781186546));
#1293=DIRECTION('ref_axis',(-0.816496580927728,0.,-0.577350269189623));
#1294=DIRECTION('',(0.678598344545847,-0.281084637714821,0.678598344545847));
#1295=DIRECTION('',(-0.707106781186556,-0.707106781186539,3.9286697025749E-17));
#1296=DIRECTION('center_axis',(0.707106781186548,-3.92523014836831E-17,
-0.707106781186547));
#1297=DIRECTION('ref_axis',(-0.707106781186547,0.,-0.707106781186548));
#1298=DIRECTION('',(0.678598344545034,0.281084637718747,0.678598344545034));
#1299=DIRECTION('center_axis',(0.499999999994644,0.500000000005351,-0.707106781186551));
#1300=DIRECTION('ref_axis',(-0.816496580930643,0.,-0.5773502691855));
#1301=DIRECTION('',(0.816496580930659,-4.86674913856861E-14,0.577350269185477));
#1302=DIRECTION('',(0.707106781194119,-0.707106781178976,3.92178697629156E-17));
#1303=DIRECTION('center_axis',(0.707106781186539,-0.707106781186556,-2.43858832336499E-15));
#1304=DIRECTION('ref_axis',(-3.44868467994748E-15,0.,-1.));
#1305=DIRECTION('',(0.707106781186556,0.707106781186539,-1.80353606869323E-15));
#1306=DIRECTION('center_axis',(0.707106781186704,3.92522654516201E-17,0.707106781186391));
#1307=DIRECTION('ref_axis',(0.707106781186391,0.,-0.707106781186704));
#1308=DIRECTION('',(-2.55819075594407E-23,-1.,5.55111117374699E-17));
#1309=DIRECTION('',(0.678598344545849,-0.281084637714816,-0.678598344545847));
#1310=DIRECTION('',(-0.67859834454585,-0.281084637714812,0.678598344545848));
#1311=DIRECTION('center_axis',(0.499999999999996,-0.500000000000006,0.707106781186546));
#1312=DIRECTION('ref_axis',(0.816496580927728,0.,-0.577350269189623));
#1313=DIRECTION('',(-0.707106781186556,-0.707106781186539,1.80353606869323E-15));
#1314=DIRECTION('center_axis',(0.500000000000013,0.499999999999985,0.707106781186549));
#1315=DIRECTION('ref_axis',(0.81649658092772,0.,-0.577350269189635));
#1316=DIRECTION('',(-0.707106781186529,0.707106781186566,1.72503150161162E-15));
#1317=DIRECTION('',(-0.816496580927739,5.61728776012905E-14,0.577350269189608));
#1318=DIRECTION('',(0.707106781186529,-0.707106781186566,-1.72503150161162E-15));
#1319=DIRECTION('center_axis',(2.49507405683752E-15,5.55111117374699E-17,
1.));
#1320=DIRECTION('ref_axis',(-6.42013521155956E-14,-1.,5.55111117376301E-17));
#1321=DIRECTION('',(1.,6.85292146041447E-15,-7.3609080204376E-14));
#1322=DIRECTION('center_axis',(2.49507405683752E-15,5.55111117374699E-17,
1.));
#1323=DIRECTION('ref_axis',(-6.42013521155956E-14,-1.,5.551111173763E-17));
#1324=DIRECTION('center_axis',(2.49507405683752E-15,5.55111117374699E-17,
1.));
#1325=DIRECTION('ref_axis',(-6.42013521155956E-14,-1.,5.551111173763E-17));
#1326=DIRECTION('center_axis',(2.49507405683752E-15,5.55111117374699E-17,
1.));
#1327=DIRECTION('ref_axis',(-6.42013521155956E-14,-1.,5.55111117376305E-17));
#1328=DIRECTION('',(1.,-1.19555627213764E-14,-2.49502538861345E-15));
#1329=DIRECTION('',(9.31731995750979E-16,-1.,-5.51571138272316E-20));
#1330=DIRECTION('center_axis',(-2.49507405683752E-15,-5.55111117374699E-17,
-1.));
#1331=DIRECTION('ref_axis',(-6.42013521155956E-14,-1.,5.55111117376303E-17));
#1332=DIRECTION('center_axis',(0.707106781178976,0.707106781194119,-4.59609163779474E-15));
#1333=DIRECTION('ref_axis',(-6.49985512814849E-15,0.,-1.));
#1334=DIRECTION('',(-3.54987390721586E-30,6.4998551280093E-15,1.));
#1335=DIRECTION('',(0.707106781194118,-0.707106781178975,5.22582497432433E-8));
#1336=DIRECTION('center_axis',(-0.707106781178976,-0.707106781194119,4.59609163779474E-15));
#1337=DIRECTION('ref_axis',(0.707106781194119,-0.707106781178976,8.98859578698011E-10));
#1338=DIRECTION('center_axis',(-0.707106781178976,-0.707106781194119,4.59609163779474E-15));
#1339=DIRECTION('ref_axis',(0.707106781194119,-0.707106781178976,8.98859578698011E-10));
#1340=DIRECTION('center_axis',(0.,7.39043255335662E-8,0.999999999999997));
#1341=DIRECTION('ref_axis',(-2.55818615962407E-23,-0.999999999999997,7.39043255335662E-8));
#1342=DIRECTION('',(1.,0.,0.));
#1343=DIRECTION('',(1.36642880926333E-14,-0.999999999999997,7.39043255335662E-8));
#1344=DIRECTION('',(1.,1.40999642339826E-28,-3.52079466603085E-14));
#1345=DIRECTION('',(-9.31732000165775E-16,0.999999999999997,-7.39043255335662E-8));
#1346=DIRECTION('center_axis',(6.42013521155952E-14,1.,-6.4998551280093E-15));
#1347=DIRECTION('ref_axis',(3.51844621813382E-14,6.49985512800704E-15,1.));
#1348=DIRECTION('',(6.2232270618761E-14,6.4998551280053E-15,1.));
#1349=DIRECTION('',(-6.22322706187611E-14,-6.49985512800533E-15,-1.));
#1350=DIRECTION('center_axis',(0.707106781186566,0.707106781186529,-4.59609163789175E-15));
#1351=DIRECTION('ref_axis',(-6.49985512821592E-15,0.,-1.));
#1352=DIRECTION('center_axis',(-0.707106781186566,-0.707106781186529,4.59609163789175E-15));
#1353=DIRECTION('ref_axis',(0.707106781186529,-0.707106781186566,8.98859578707659E-10));
#1354=DIRECTION('center_axis',(-0.707106781186566,-0.707106781186529,4.59609163789175E-15));
#1355=DIRECTION('ref_axis',(0.707106781186529,-0.707106781186566,8.98859578707659E-10));
#1356=DIRECTION('',(-0.707106781186528,0.707106781186565,-5.18079816475629E-8));
#1357=DIRECTION('',(-3.54987390721586E-30,6.49985512821625E-15,1.));
#1358=DIRECTION('center_axis',(6.42013521155953E-14,1.,-6.49985512821625E-15));
#1359=DIRECTION('ref_axis',(3.76794875699517E-14,6.49985512821383E-15,1.));
#1360=DIRECTION('',(-1.,6.42013521155953E-14,-4.70387579450453E-21));
#1361=DIRECTION('',(6.62616811621435E-14,6.82182959007558E-17,1.));
#1362=DIRECTION('center_axis',(0.,-7.3267550285158E-8,-0.999999999999997));
#1363=DIRECTION('ref_axis',(2.55819343947707E-23,0.999999999999997,-7.3267550285158E-8));
#1364=DIRECTION('',(-9.31732182935029E-16,0.999999999999997,-7.3267550285158E-8));
#1365=DIRECTION('',(-1.,-8.0454917947906E-30,3.87650888904526E-14));
#1366=DIRECTION('',(1.36642882348325E-14,-0.999999999999997,7.3267550285158E-8));
#1367=DIRECTION('center_axis',(-1.,-9.31731995750608E-16,2.55480662836512E-15));
#1368=DIRECTION('ref_axis',(-9.31731995750592E-16,1.,5.86567835293037E-15));
#1369=DIRECTION('',(-1.34026156152655E-14,-2.06725733378597E-25,-1.));
#1370=DIRECTION('center_axis',(1.,9.31731995750608E-16,-2.55480662836512E-15));
#1371=DIRECTION('ref_axis',(-2.74766180266826E-14,-0.707106781193845,-0.70710678117925));
#1372=DIRECTION('center_axis',(-1.,-9.31731995750608E-16,2.55480662836512E-15));
#1373=DIRECTION('ref_axis',(6.62616811619557E-14,2.10181620309956E-25,1.));
#1374=DIRECTION('center_axis',(-1.,-8.0454917947906E-30,3.87650888904526E-14));
#1375=DIRECTION('ref_axis',(-2.74766180266826E-14,-0.707106781193845,-0.70710678117925));
#1376=DIRECTION('',(-1.,-8.0454917947906E-30,3.87650888904526E-14));
#1377=DIRECTION('center_axis',(1.,1.36642833800015E-14,-6.62616811621436E-14));
#1378=DIRECTION('ref_axis',(-2.74766180266826E-14,-0.707106781193845,-0.70710678117925));
#1379=DIRECTION('center_axis',(-1.,-9.31731995747685E-16,5.97812397515878E-17));
#1380=DIRECTION('ref_axis',(9.31731995747676E-16,-1.,5.97670057619823E-15));
#1381=DIRECTION('center_axis',(1.,9.31731995747685E-16,-5.97812397515878E-17));
#1382=DIRECTION('ref_axis',(2.49252177818619E-14,-0.707106781179253,0.707106781193842));
#1383=DIRECTION('',(-6.22322706187611E-14,-6.49985512800533E-15,-1.));
#1384=DIRECTION('center_axis',(-1.,-9.31731995747685E-16,5.97812397515878E-17));
#1385=DIRECTION('ref_axis',(6.3766655773342E-14,3.3019463604251E-27,1.));
#1386=DIRECTION('center_axis',(1.,1.36642833800016E-14,-6.37666557735301E-14));
#1387=DIRECTION('ref_axis',(-6.37666557735307E-14,4.78506123613444E-14,
-1.));
#1388=DIRECTION('',(3.52079466603085E-14,2.06189431016052E-11,1.));
#1389=DIRECTION('center_axis',(1.,1.36642833800016E-14,-6.37666557735301E-14));
#1390=DIRECTION('ref_axis',(2.49252177818619E-14,-0.707106781179253,0.707106781193842));
#1391=DIRECTION('center_axis',(1.,1.40999642339826E-28,-3.52079466603085E-14));
#1392=DIRECTION('ref_axis',(2.49252177818619E-14,-0.707106781179253,0.707106781193842));
#1393=DIRECTION('',(1.,1.40999642339826E-28,-3.52079466603085E-14));
#1394=DIRECTION('center_axis',(1.,0.,0.));
#1395=DIRECTION('ref_axis',(0.,-1.,1.2711794068773E-9));
#1396=DIRECTION('',(-1.,0.,0.));
#1397=DIRECTION('center_axis',(1.,1.36642833984371E-14,-6.37666557733422E-14));
#1398=DIRECTION('ref_axis',(0.,-1.,1.2711794068773E-9));
#1399=DIRECTION('center_axis',(8.04549180280704E-30,-1.,2.06795153138257E-25));
#1400=DIRECTION('ref_axis',(-1.36019170547711E-14,-2.06795153138257E-25,
-1.));
#1401=DIRECTION('',(2.55480662836557E-15,2.05896302971549E-15,1.));
#1402=DIRECTION('',(6.80536949928244E-14,-4.90506103748541E-15,1.));
#1403=DIRECTION('center_axis',(1.75154965822817E-15,-1.95898696437294E-15,
1.));
#1404=DIRECTION('ref_axis',(6.42013521155955E-14,1.,1.95898696437282E-15));
#1405=DIRECTION('',(-1.75154965822817E-15,1.95898696437294E-15,-1.));
#1406=DIRECTION('center_axis',(-3.28952094775232E-15,1.574494141992E-15,
-1.));
#1407=DIRECTION('ref_axis',(6.42013521155955E-14,1.,1.57449414199179E-15));
#1408=DIRECTION('',(3.28952094775232E-15,-1.574494141992E-15,1.));
#1409=DIRECTION('center_axis',(-6.34535159458536E-14,-3.2491744602763E-15,
-1.));
#1410=DIRECTION('ref_axis',(6.42013521155955E-14,1.,1.57449414199179E-15));
#1411=DIRECTION('center_axis',(-1.,-1.36642833793417E-14,6.3766655773342E-14));
#1412=DIRECTION('ref_axis',(6.3766655773342E-14,3.3019463604251E-27,1.));
#1413=DIRECTION('',(-1.,-1.36642833793417E-14,6.3766655773342E-14));
#1414=DIRECTION('center_axis',(4.86682239766166E-20,5.55111115306731E-17,
1.));
#1415=DIRECTION('ref_axis',(6.42013521155954E-14,1.,-5.55111115306721E-17));
#1416=DIRECTION('center_axis',(6.34535159458536E-14,3.2491744602763E-15,
1.));
#1417=DIRECTION('ref_axis',(6.42013521155954E-14,1.,-5.55111115306721E-17));
#1418=DIRECTION('',(4.86682239766166E-20,5.55111115306731E-17,1.));
#1419=DIRECTION('center_axis',(1.,-1.09106469335881E-14,-6.2232270618761E-14));
#1420=DIRECTION('ref_axis',(-6.2232270618761E-14,-6.49985512800533E-15,
-1.));
#1421=DIRECTION('center_axis',(6.34535159458536E-14,3.2491744602763E-15,
1.));
#1422=DIRECTION('ref_axis',(-1.36642833974469E-14,1.,-3.24917446027545E-15));
#1423=DIRECTION('center_axis',(1.40999642339826E-28,-1.,4.36924861176478E-41));
#1424=DIRECTION('ref_axis',(-1.11068916661576E-14,-4.5252242651536E-41,
-1.));
#1425=DIRECTION('center_axis',(-1.,-1.36642833984371E-14,6.37666557733422E-14));
#1426=DIRECTION('ref_axis',(6.37666557733422E-14,7.88860905221012E-30,1.));
#1427=DIRECTION('center_axis',(1.,0.,0.));
#1428=DIRECTION('ref_axis',(0.,-1.,1.2711794068773E-9));
#1429=DIRECTION('',(-1.,0.,0.));
#1430=DIRECTION('center_axis',(1.,1.36642833984371E-14,-6.37666557733422E-14));
#1431=DIRECTION('ref_axis',(0.,-1.,1.2711794068773E-9));
#1432=DIRECTION('center_axis',(1.,1.36642833800015E-14,-6.62616811621436E-14));
#1433=DIRECTION('ref_axis',(-6.62616811621443E-14,4.78506123611376E-14,
-1.));
#1434=DIRECTION('center_axis',(2.49502538861353E-15,2.06795153138257E-25,
1.));
#1435=DIRECTION('ref_axis',(-6.42013521155956E-14,-1.,-9.19464960471428E-16));
#1436=DIRECTION('center_axis',(-2.49507405683752E-15,-5.55111117374699E-17,
-1.));
#1437=DIRECTION('ref_axis',(-6.42013521155956E-14,-1.,-2.38192906878501E-15));
#1438=DIRECTION('',(4.72480564194269E-14,0.707106781186535,0.70710678118656));
#1439=DIRECTION('center_axis',(-2.55480662836513E-15,2.38192906878517E-15,
-1.));
#1440=DIRECTION('ref_axis',(-6.42013521155956E-14,-1.,-2.38192906878501E-15));
#1441=DIRECTION('',(2.55480662836513E-15,-2.38192906878517E-15,1.));
#1442=DIRECTION('center_axis',(-2.55480662836557E-15,-2.05896302971549E-15,
-1.));
#1443=DIRECTION('ref_axis',(-6.42013521155956E-14,-1.,2.05896302971566E-15));
#1444=DIRECTION('center_axis',(5.78454633636585E-15,-1.57449414178521E-15,
1.));
#1445=DIRECTION('ref_axis',(-6.42013521155956E-14,-1.,-1.57449414178484E-15));
#1446=DIRECTION('',(-5.78454633636585E-15,1.57449414178521E-15,-1.));
#1447=DIRECTION('center_axis',(6.61605733179499E-14,-3.13829884473564E-15,
1.));
#1448=DIRECTION('ref_axis',(-6.42013521155956E-14,-1.,-1.57449414178484E-15));
#1449=DIRECTION('center_axis',(-1.,-1.36642833796717E-14,6.62616811619557E-14));
#1450=DIRECTION('ref_axis',(6.62616811619557E-14,2.10181620309956E-25,1.));
#1451=DIRECTION('',(-1.,-1.36642833796717E-14,6.62616811619557E-14));
#1452=DIRECTION('center_axis',(-6.61605733179499E-14,3.13829884473564E-15,
-1.));
#1453=DIRECTION('ref_axis',(1.36642833974465E-14,-1.,-3.13829884473653E-15));
#1454=DIRECTION('center_axis',(-6.61605733179499E-14,3.13829884473564E-15,
-1.));
#1455=DIRECTION('ref_axis',(-6.42013521155956E-14,-1.,-2.381929068785E-15));
#1456=DIRECTION('center_axis',(-2.55480662836513E-15,2.38192906878517E-15,
-1.));
#1457=DIRECTION('ref_axis',(-6.42013521155956E-14,-1.,-2.381929068785E-15));
#1458=DIRECTION('',(-2.55480662836513E-15,2.38192906878517E-15,-1.));
#1459=DIRECTION('center_axis',(-1.,-1.36642833984371E-14,6.37666557733422E-14));
#1460=DIRECTION('ref_axis',(6.37666557733422E-14,7.88860905221012E-30,1.));
#1461=CARTESIAN_POINT('',(0.,0.,0.));
#1462=CARTESIAN_POINT('Origin',(6.99881391774089,93.8190413123477,-42.7247918505387));
#1463=CARTESIAN_POINT('',(6.99881391774088,92.3190420922933,-62.5095643649763));
#1464=CARTESIAN_POINT('',(6.99881391774088,92.3190420931107,-48.7095989457652));
#1465=CARTESIAN_POINT('',(6.99881391774088,92.3190420922933,-62.5095643649763));
#1466=CARTESIAN_POINT('',(6.99881391774088,96.2190416697828,-48.7095992315086));
#1467=CARTESIAN_POINT('',(6.99881391774088,92.3190420931107,-48.7095989457652));
#1468=CARTESIAN_POINT('',(6.99881391774089,96.2190416697828,-44.5247913739585));
#1469=CARTESIAN_POINT('',(6.99881391774089,96.2190416697828,-38.7671952946547));
#1470=CARTESIAN_POINT('',(6.99881391774089,96.2190416697828,-40.9247923271189));
#1471=CARTESIAN_POINT('Origin',(6.99881391774089,93.8190413123477,-42.7247918505387));
#1472=CARTESIAN_POINT('',(6.99881391774089,96.2190416697829,-33.6095988505352));
#1473=CARTESIAN_POINT('',(6.99881391774089,96.2190416697828,-38.7671952946547));
#1474=CARTESIAN_POINT('',(6.99881391774089,82.7190423123484,-33.6095988505366));
#1475=CARTESIAN_POINT('',(6.99881391774089,91.6440417573344,-33.6095988505366));
#1476=CARTESIAN_POINT('',(6.99881391774089,82.7190423123486,-77.6095649209759));
#1477=CARTESIAN_POINT('',(6.99881391774089,82.7190423123485,-68.4615765060766));
#1478=CARTESIAN_POINT('',(6.99881391774089,96.2190420923416,-77.6095649209759));
#1479=CARTESIAN_POINT('',(6.99881391774089,91.6440417573347,-77.6095649209759));
#1480=CARTESIAN_POINT('',(6.99881391774091,96.2190420923416,-70.7080008773053));
#1481=CARTESIAN_POINT('',(6.99881391774089,96.2190420923418,-46.0671785712515));
#1482=CARTESIAN_POINT('',(6.99881391774091,96.2190420923417,-67.1080029646536));
#1483=CARTESIAN_POINT('Origin',(6.99881391774091,93.8190413095864,-68.9080019209794));
#1484=CARTESIAN_POINT('',(6.99881391774088,96.2190420923417,-62.5095646532031));
#1485=CARTESIAN_POINT('',(6.99881391774089,96.2190420923418,-46.0671785712515));
#1486=CARTESIAN_POINT('',(6.99881391774088,98.4190420923896,-62.5095648157927));
#1487=CARTESIAN_POINT('Origin',(-0.501186082247624,87.7251687025041,-88.3967801623528));
#1488=CARTESIAN_POINT('',(-0.501186082243219,92.3190420922937,-76.4095649209767));
#1489=CARTESIAN_POINT('',(-0.501186082242162,92.3190420922938,-34.8095988505358));
#1490=CARTESIAN_POINT('',(-0.501186082248163,92.3190420922934,-96.3852781466247));
#1491=CARTESIAN_POINT('',(-0.501186082243237,87.7190427595698,-76.4095649209769));
#1492=CARTESIAN_POINT('',(-0.501186082246842,86.4220601621815,-76.4095649209763));
#1493=CARTESIAN_POINT('',(-0.501186082242206,87.7190428124261,-34.8095988505358));
#1494=CARTESIAN_POINT('',(-0.501186082246826,87.7190427593411,-76.4891994101282));
#1495=CARTESIAN_POINT('',(-0.501186082246732,93.397041897399,-34.8095988505358));
#1496=CARTESIAN_POINT('Origin',(-0.900843637261755,92.3190420922934,-104.373776130897));
#1497=CARTESIAN_POINT('',(1.29881391766995,92.3190420923874,-62.5095649209761));
#1498=CARTESIAN_POINT('',(4.79881391774088,92.3190420922933,-62.5095643649763));
#1499=CARTESIAN_POINT('',(1.29881391767057,92.3190420922932,-80.6095649209761));
#1500=CARTESIAN_POINT('',(1.29881391767231,92.3190420922938,-71.6262025182703));
#1501=CARTESIAN_POINT('',(-0.501186082245066,92.3190420922926,-80.6095649209752));
#1502=CARTESIAN_POINT('',(-3.10118608232331,92.3190420922933,-80.6095649209759));
#1503=CARTESIAN_POINT('',(-0.501186082248197,92.3190420922934,-96.3852781466247));
#1504=CARTESIAN_POINT('',(-0.501185757537959,92.3190420922927,-30.6095988505347));
#1505=CARTESIAN_POINT('',(-0.501186082245331,92.3190420922935,-30.6095988505347));
#1506=CARTESIAN_POINT('',(1.29881391767148,92.3190420922933,-30.6095988505352));
#1507=CARTESIAN_POINT('',(0.298813917671501,92.3190420922933,-30.6095988505352));
#1508=CARTESIAN_POINT('',(1.29881391767245,92.3190420922126,-48.7095993776532));
#1509=CARTESIAN_POINT('',(1.2988139176693,92.3190420922934,-76.4199689907161));
#1510=CARTESIAN_POINT('',(4.79881391774088,92.3190420931107,-48.7095989457652));
#1511=CARTESIAN_POINT('Origin',(-0.501186082244267,85.1190427595693,-78.4095649209763));
#1512=CARTESIAN_POINT('',(-0.501186082244395,83.1190427595693,-76.4095649209768));
#1513=CARTESIAN_POINT('Origin',(-0.501186082244267,85.1190427595693,-76.4095649209769));
#1514=CARTESIAN_POINT('',(-0.501186082244395,83.1190427595693,-79.6095649209757));
#1515=CARTESIAN_POINT('',(-0.501186082244395,83.1190427595693,-78.4095649209763));
#1516=CARTESIAN_POINT('Origin',(-0.501186082244267,85.1190427595693,-79.6095649209757));
#1517=CARTESIAN_POINT('Origin',(-0.501186082244267,85.1190427595693,-80.1095649209758));
#1518=CARTESIAN_POINT('',(-0.501186082244447,82.3190425359739,-80.4095651445708));
#1519=CARTESIAN_POINT('',(-0.501186082244427,82.6190427595692,-80.1095649209758));
#1520=CARTESIAN_POINT('',(-1.99784826010191,82.5190423123825,-80.6095649209759));
#1521=CARTESIAN_POINT('Ctrl Pts',(-1.99784826010191,82.5190423123825,-80.6095649209759));
#1522=CARTESIAN_POINT('Ctrl Pts',(-1.24951717117318,82.319042535974,-80.4095651445708));
#1523=CARTESIAN_POINT('Ctrl Pts',(-0.501186082244447,82.3190425359739,-80.4095651445708));
#1524=CARTESIAN_POINT('',(0.995476095613334,82.5190423123824,-80.6095649209759));
#1525=CARTESIAN_POINT('Origin',(-0.501186082244267,85.1190427595693,-80.6095649209759));
#1526=CARTESIAN_POINT('Ctrl Pts',(-0.501186082244447,82.3190425359739,-80.4095651445708));
#1527=CARTESIAN_POINT('Ctrl Pts',(0.247145006684444,82.3190425359739,-80.4095651445707));
#1528=CARTESIAN_POINT('Ctrl Pts',(0.995476095613327,82.5190423123824,-80.6095649209759));
#1529=CARTESIAN_POINT('Origin',(3.62481391775393,83.7880413123487,-76.4095649209769));
#1530=CARTESIAN_POINT('',(-0.501186082243219,95.3190420922937,-76.4095649209767));
#1531=CARTESIAN_POINT('Origin',(-0.501186082244978,93.8190420922926,-76.4095649209752));
#1532=CARTESIAN_POINT('',(-0.501186082244054,98.4190420922938,-76.4095649209767));
#1533=CARTESIAN_POINT('',(-0.501186082248428,86.9910415074264,-76.4095649209767));
#1534=CARTESIAN_POINT('',(-10.9011860822545,98.4190420922939,-76.4095649209759));
#1535=CARTESIAN_POINT('',(1.56181391775359,98.4190420922938,-76.4095649209768));
#1536=CARTESIAN_POINT('',(-10.9011860822538,80.5190423124051,-76.4095649209759));
#1537=CARTESIAN_POINT('',(-10.9011860822547,82.153541812377,-76.409564920976));
#1538=CARTESIAN_POINT('',(-0.501186082243965,80.5190423123486,-76.4095649209766));
#1539=CARTESIAN_POINT('',(-1.38818608224812,80.5190423123486,-76.4095649209765));
#1540=CARTESIAN_POINT('',(-0.501186082243219,82.5190427595698,-76.4095649209769));
#1541=CARTESIAN_POINT('',(-0.501186082248445,85.7566050074263,-76.4095649209767));
#1542=CARTESIAN_POINT('Origin',(-0.501186082242602,85.1190427595699,-76.4095649209757));
#1543=CARTESIAN_POINT('',(-6.63818608225285,87.7690422023205,-76.4095649209768));
#1544=CARTESIAN_POINT('Origin',(-6.63818608225274,89.4690422023205,-76.4095649209769));
#1545=CARTESIAN_POINT('Origin',(3.62481391775776,96.6000420922941,-34.8095988505361));
#1546=CARTESIAN_POINT('',(-0.501186082242926,80.5190423123487,-34.8095988505357));
#1547=CARTESIAN_POINT('',(-0.501186082244136,82.5190428124261,-34.8095988505359));
#1548=CARTESIAN_POINT('',(-0.501186082246749,92.162605397399,-34.8095988505358));
#1549=CARTESIAN_POINT('',(-10.9011860822531,80.5190423123488,-34.809598850535));
#1550=CARTESIAN_POINT('',(-1.38818608224558,80.5190423123488,-34.8095988505357));
#1551=CARTESIAN_POINT('',(-10.9011860822544,98.4190420922939,-34.8095988037871));
#1552=CARTESIAN_POINT('',(-10.9011860822544,97.5095420922941,-34.8095988505351));
#1553=CARTESIAN_POINT('',(-0.501186082244311,98.4190420922938,-34.8095988037868));
#1554=CARTESIAN_POINT('',(1.56181391775632,98.4190420922938,-34.8095988505359));
#1555=CARTESIAN_POINT('',(-0.501186082242162,95.3190420922936,-34.8095988505358));
#1556=CARTESIAN_POINT('',(-0.501186082246732,93.397041897399,-34.8095988505358));
#1557=CARTESIAN_POINT('Origin',(-0.501186082246141,93.8190420922926,-34.8095988505346));
#1558=CARTESIAN_POINT('Origin',(-0.501186082242345,85.1190428124261,-34.8095988505359));
#1559=CARTESIAN_POINT('',(-0.501186082244538,87.1190427595695,-34.8095988505362));
#1560=CARTESIAN_POINT('Origin',(-0.501186082244667,85.1190427595695,-34.8095988505361));
#1561=CARTESIAN_POINT('',(-6.63818608225186,91.169042202321,-34.8095988505362));
#1562=CARTESIAN_POINT('Origin',(-6.63818608225196,89.469042202321,-34.8095988505361));
#1563=CARTESIAN_POINT('Origin',(-0.501186082242598,85.1190427594428,-76.489199406823));
#1564=CARTESIAN_POINT('',(-0.501186082251769,82.5190427593408,-76.4891994035179));
#1565=CARTESIAN_POINT('Origin',(-0.501186082247624,87.7251687025041,-88.3967801623528));
#1566=CARTESIAN_POINT('',(-0.501186082248211,80.5190423123488,-75.1035954037297));
#1567=CARTESIAN_POINT('Origin',(4.49881391774091,93.8190413095863,-68.9080019209806));
#1568=CARTESIAN_POINT('',(4.49881391774085,93.8190413095865,-70.1580019209783));
#1569=CARTESIAN_POINT('Origin',(4.49881391774091,93.8190413095865,-68.9080019209783));
#1570=CARTESIAN_POINT('Origin',(4.49881391774091,93.8190413123476,-42.72479185054));
#1571=CARTESIAN_POINT('',(4.49881391774085,93.8190413123479,-43.9747918505375));
#1572=CARTESIAN_POINT('Origin',(4.49881391774091,93.8190413123479,-42.7247918505375));
#1573=CARTESIAN_POINT('Origin',(-5.01968608225393,81.5190423123656,-79.6095649209757));
#1574=CARTESIAN_POINT('',(3.38460035536821,80.5190423123487,-78.6095649209756));
#1575=CARTESIAN_POINT('',(-10.9011860822548,80.5190423123489,-78.6095649209756));
#1576=CARTESIAN_POINT('',(-5.01968608225394,80.5190423123487,-78.6095649209756));
#1577=CARTESIAN_POINT('',(-10.9011860822547,82.5190423123826,-80.6095649209752));
#1578=CARTESIAN_POINT('',(-10.9011860822548,80.4690423123713,-78.559564920999));
#1579=CARTESIAN_POINT('',(-5.01968608225392,82.5190423123825,-80.6095649209759));
#1580=CARTESIAN_POINT('',(2.55617323065542,82.5190423123824,-80.6095649209759));
#1581=CARTESIAN_POINT('',(-5.01968608225392,82.5190423123825,-80.6095649209759));
#1582=CARTESIAN_POINT('',(2.68908324319906,82.198169157506,-80.2886917661049));
#1583=CARTESIAN_POINT('Origin',(-3.63818608225454,89.4690422023216,-80.6095649209759));
#1584=CARTESIAN_POINT('',(-10.9011860822553,98.4190420922933,-80.6095649209752));
#1585=CARTESIAN_POINT('',(-10.9011860822546,80.5190423124047,-80.6095649209752));
#1586=CARTESIAN_POINT('',(0.556173230576886,98.4190420922937,-80.6095648841041));
#1587=CARTESIAN_POINT('',(-10.9011860822553,98.4190420922933,-80.6095649209752));
#1588=CARTESIAN_POINT('',(3.99881391774089,94.9764014052034,-80.6095649209759));
#1589=CARTESIAN_POINT('',(3.35574354665308,95.6194717762775,-80.6095649209759));
#1590=CARTESIAN_POINT('',(3.99881391774089,83.9616829994679,-80.6095649209759));
#1591=CARTESIAN_POINT('',(3.99881391774089,91.6440417573347,-80.6095649209759));
#1592=CARTESIAN_POINT('',(3.35574354667561,83.3186126284026,-80.6095649209759));
#1593=CARTESIAN_POINT('',(-6.63818608225364,86.71904220232,-80.6095649209759));
#1594=CARTESIAN_POINT('Origin',(-6.63818608225347,89.46904220232,-80.6095649209759));
#1595=CARTESIAN_POINT('',(-0.501186082244871,95.3190420922926,-80.6095649209752));
#1596=CARTESIAN_POINT('Origin',(-0.501186082244978,93.8190420922926,-80.6095649209752));
#1597=CARTESIAN_POINT('',(1.29881391767057,95.3190420922932,-80.6095649209762));
#1598=CARTESIAN_POINT('',(1.29881391767057,92.3190420922932,-80.6095649209761));
#1599=CARTESIAN_POINT('',(0.298813917670575,95.3190420922932,-80.6095649209762));
#1600=CARTESIAN_POINT('Origin',(-5.01968608225273,81.5190423123485,-31.6095988505352));
#1601=CARTESIAN_POINT('',(0.995476095552976,82.5190423123484,-30.6095988505352));
#1602=CARTESIAN_POINT('',(-1.99784826004234,82.5190423123485,-30.6095988505352));
#1603=CARTESIAN_POINT('Ctrl Pts',(0.995476095552947,82.5190423123484,-30.6095988505352));
#1604=CARTESIAN_POINT('Ctrl Pts',(-0.501186082244671,82.1190427595695,-31.0095984033141));
#1605=CARTESIAN_POINT('Ctrl Pts',(-1.99784826004231,82.5190423123484,-30.6095988505352));
#1606=CARTESIAN_POINT('',(-10.9011860822538,82.5190423123485,-30.6095988505352));
#1607=CARTESIAN_POINT('',(-5.01968608225272,82.5190423123485,-30.6095988505352));
#1608=CARTESIAN_POINT('',(-10.9011860822545,80.5190423123488,-32.6095988505352));
#1609=CARTESIAN_POINT('',(-10.9011860822541,84.9440422690218,-28.1845988938618));
#1610=CARTESIAN_POINT('',(3.3846003553678,80.5190423123485,-32.6095988505352));
#1611=CARTESIAN_POINT('',(-5.01968608225274,80.5190423123486,-32.6095988505352));
#1612=CARTESIAN_POINT('',(2.55617323062156,82.5190423123484,-30.6095988505352));
#1613=CARTESIAN_POINT('',(2.68908324315845,82.1981691575067,-30.9304720053769));
#1614=CARTESIAN_POINT('',(-5.01968608225272,82.5190423123485,-30.6095988505352));
#1615=CARTESIAN_POINT('Origin',(-6.40118608225325,80.5190423123488,-94.1983611616145));
#1616=CARTESIAN_POINT('',(-10.9011860822545,80.5190423123489,-72.6637630412951));
#1617=CARTESIAN_POINT('',(4.7988139177409,80.5190423123486,-77.6095649209759));
#1618=CARTESIAN_POINT('',(-3.32555964377141,80.5190423123487,-83.354364559214));
#1619=CARTESIAN_POINT('',(4.7988139177409,80.5190423123485,-33.6095988505352));
#1620=CARTESIAN_POINT('',(4.7988139177409,80.5190423123486,-68.4615765060766));
#1621=CARTESIAN_POINT('',(14.8653653586759,80.5190423123484,-40.7277256375836));
#1622=CARTESIAN_POINT('',(-10.9011860822553,80.5190423123488,-44.5637967061038));
#1623=CARTESIAN_POINT('Origin',(-10.9011860822544,98.4190420922939,-34.8095988037871));
#1624=CARTESIAN_POINT('',(-10.901186082255,98.4190420922933,-30.6095988505352));
#1625=CARTESIAN_POINT('',(-10.901186082255,98.4190420922933,-30.6095988505352));
#1626=CARTESIAN_POINT('',(-10.9011860822544,98.419041669784,-34.8095987712784));
#1627=CARTESIAN_POINT('Origin',(4.41640371845542,82.2579524566228,-79.1095649209759));
#1628=CARTESIAN_POINT('',(3.99881391774089,83.9616829994679,-80.6095649209759));
#1629=CARTESIAN_POINT('',(5.47706389023522,81.1972922848429,-77.6095649209759));
#1630=CARTESIAN_POINT('Origin',(5.49881391774089,91.6440417573347,-79.1095649209759));
#1631=CARTESIAN_POINT('',(3.99881391774089,94.9764014052034,-80.6095649209759));
#1632=CARTESIAN_POINT('Origin',(4.41640371842155,96.6801319480687,-79.1095649209759));
#1633=CARTESIAN_POINT('',(4.79881391774088,98.4190420922945,-77.6095649209759));
#1634=CARTESIAN_POINT('',(10.573260783062,98.4190420922941,-73.5264143849499));
#1635=CARTESIAN_POINT('',(5.47706389019003,97.7407921198599,-77.6095649209759));
#1636=CARTESIAN_POINT('Origin',(5.8988139177409,81.6190423123486,-68.4615765060766));
#1637=CARTESIAN_POINT('',(5.47706389023572,81.1972922848433,-33.6095988505352));
#1638=CARTESIAN_POINT('Origin',(5.49881391774088,91.6440417573344,-32.1095988505359));
#1639=CARTESIAN_POINT('',(3.99881391774088,94.9764009826636,-30.6095988505352));
#1640=CARTESIAN_POINT('',(3.99881391774087,83.9616829994677,-30.6095988505352));
#1641=CARTESIAN_POINT('',(3.99881391774088,91.6440417573344,-30.6095988505352));
#1642=CARTESIAN_POINT('',(3.99881391774087,83.9616829994677,-30.6095988505352));
#1643=CARTESIAN_POINT('',(6.99881391774089,96.2190416697829,-33.6095988505352));
#1644=CARTESIAN_POINT('Origin',(4.41640371845592,82.2579524566231,-32.1095988505352));
#1645=CARTESIAN_POINT('',(3.35574354667612,83.3186126284029,-30.6095988505352));
#1646=CARTESIAN_POINT('Origin',(4.41640361282836,96.6801316311358,-32.1095988505352));
#1647=CARTESIAN_POINT('',(4.79881391774089,98.419041669783,-33.6095988505352));
#1648=CARTESIAN_POINT('',(5.47706378460821,97.7407918029156,-33.6095988505352));
#1649=CARTESIAN_POINT('',(0.556172808111093,98.4190420922936,-30.6095988505349));
#1650=CARTESIAN_POINT('',(4.20929977831139,98.419041669783,-33.1927494049393));
#1651=CARTESIAN_POINT('',(3.3557434410485,95.619471459356,-30.6095988505352));
#1652=CARTESIAN_POINT('Origin',(-3.6381860822523,89.469042202321,-30.6095988505352));
#1653=CARTESIAN_POINT('',(3.79881391774808,98.4190420922936,-30.6095988505351));
#1654=CARTESIAN_POINT('',(-0.501186082244463,88.1190427595695,-30.6095988505352));
#1655=CARTESIAN_POINT('Origin',(-0.501186082244656,85.1190427595695,-30.6095988505352));
#1656=CARTESIAN_POINT('Origin',(-0.501186082244656,85.1190427595695,-30.6095988505352));
#1657=CARTESIAN_POINT('',(-0.501186082245225,95.3190420922927,-30.6095988505347));
#1658=CARTESIAN_POINT('Origin',(-0.501186082245331,93.8190420922927,-30.6095988505347));
#1659=CARTESIAN_POINT('',(1.29881391767148,95.3190420922932,-30.6095988505352));
#1660=CARTESIAN_POINT('',(-3.10118608232237,95.3190420922932,-30.6095988505352));
#1661=CARTESIAN_POINT('',(1.29881391767148,95.3190420922932,-30.6095988505352));
#1662=CARTESIAN_POINT('',(-6.63818608225249,92.2190422023205,-30.6095988505352));
#1663=CARTESIAN_POINT('Origin',(-6.63818608225266,89.4690422023205,-30.6095988505352));
#1664=CARTESIAN_POINT('Origin',(5.89881391774089,97.3190420923183,-46.0671785712515));
#1665=CARTESIAN_POINT('',(4.79881391774088,98.4190420923896,-62.5095648157927));
#1666=CARTESIAN_POINT('',(4.79881391774088,98.4190420922947,-46.0671785712516));
#1667=CARTESIAN_POINT('',(5.34881422150797,97.8690417885393,-62.5095647751453));
#1668=CARTESIAN_POINT('',(6.39881470048333,96.8190413095864,-68.908001924793));
#1669=CARTESIAN_POINT('Origin',(9.39881470054758,93.8190413095864,-68.9080019209794));
#1670=CARTESIAN_POINT('Origin',(9.39881470054758,93.8190413095864,-68.9080019209794));
#1671=CARTESIAN_POINT('Origin',(4.79881391774088,98.4190420923896,-62.5095648157927));
#1672=CARTESIAN_POINT('',(-0.501186082250019,98.4190420923888,-62.5095649458895));
#1673=CARTESIAN_POINT('',(4.79881391774088,98.4190420923896,-62.5095648157927));
#1674=CARTESIAN_POINT('',(-0.501186082250086,97.3190420923345,-62.5095649458668));
#1675=CARTESIAN_POINT('',(-0.501186082247641,94.30654191987,-62.5095645118611));
#1676=CARTESIAN_POINT('',(1.29881391767057,97.3190420923345,-62.5095643650781));
#1677=CARTESIAN_POINT('',(0.611813917710877,97.3190422401019,-62.5095647344979));
#1678=CARTESIAN_POINT('',(1.29881391767057,96.8690426798808,-62.509564701241));
#1679=CARTESIAN_POINT('Origin',(3.62481391775024,98.4190420922947,-49.4095652919644));
#1680=CARTESIAN_POINT('',(-10.9011860822537,98.4190420922956,-62.9095651064698));
#1681=CARTESIAN_POINT('',(-0.501186082250751,98.4190420922941,-76.4095648742293));
#1682=CARTESIAN_POINT('Origin',(5.89881391774089,97.3190416697829,-38.7671952946547));
#1683=CARTESIAN_POINT('',(6.398814275176,96.8190413123477,-42.7247918543522));
#1684=CARTESIAN_POINT('Origin',(9.39881427517585,93.8190413123477,-42.7247918505387));
#1685=CARTESIAN_POINT('Origin',(9.39881427517585,93.8190413123477,-42.7247918505387));
#1686=CARTESIAN_POINT('',(4.79881391774089,98.4190416697829,-48.7095993926972));
#1687=CARTESIAN_POINT('',(6.87381399402283,96.3440415935008,-48.709599240667));
#1688=CARTESIAN_POINT('',(4.79881391774089,98.4190416697829,-38.7671952946547));
#1689=CARTESIAN_POINT('Origin',(3.6248139177503,98.419041669783,-34.8095987387706));
#1690=CARTESIAN_POINT('',(-0.501186082247715,98.4190416697782,-48.7095993926958));
#1691=CARTESIAN_POINT('',(4.21181391774578,98.4190416697829,-48.7095993926972));
#1692=CARTESIAN_POINT('',(-0.501186082247934,98.4190420922945,-41.6630061739647));
#1693=CARTESIAN_POINT('Origin',(4.79881391774088,92.3190420931107,-48.7095989457652));
#1694=CARTESIAN_POINT('',(1.29881391767141,97.3190420922519,-48.709598945867));
#1695=CARTESIAN_POINT('',(1.29881391767142,92.319041510225,-48.7095989457651));
#1696=CARTESIAN_POINT('',(-0.5011860822477,97.3190420922519,-48.7095993926731));
#1697=CARTESIAN_POINT('',(-2.7241341679984,97.3190419457581,-48.7095993121029));
#1698=CARTESIAN_POINT('',(-0.501186082247624,91.2565418907302,-48.7095988679184));
#1699=CARTESIAN_POINT('Origin',(1.29881391767146,92.3190420922933,-32.8095988505354));
#1700=CARTESIAN_POINT('',(1.29881391767344,95.3190420922936,-46.709598945867));
#1701=CARTESIAN_POINT('',(1.29881391767332,95.3190420922936,-56.1417446014938));
#1702=CARTESIAN_POINT('Origin',(1.29881391767092,97.3190420922933,-46.709598945867));
#1703=CARTESIAN_POINT('',(1.29881391767088,93.8190413123479,-43.9747918505372));
#1704=CARTESIAN_POINT('Origin',(1.29881391767097,93.8190413123479,-42.7247918505372));
#1705=CARTESIAN_POINT('Origin',(-2.72413416799832,97.3190420922933,-46.7095989458669));
#1706=CARTESIAN_POINT('',(-0.501186082248327,95.3190420922938,-46.7095989458669));
#1707=CARTESIAN_POINT('',(-2.72413416799832,95.3190420922933,-46.7095989458669));
#1708=CARTESIAN_POINT('Origin',(-0.501186082247526,97.3190420922933,-46.7095989458669));
#1709=CARTESIAN_POINT('Origin',(1.29881391767057,95.3190420922932,-78.4095649209762));
#1710=CARTESIAN_POINT('',(1.29881391767222,95.3190420922938,-64.5095643650781));
#1711=CARTESIAN_POINT('Origin',(1.29881391767106,97.3190420922932,-64.5095643650781));
#1712=CARTESIAN_POINT('',(1.29881391767148,95.3190420922938,-76.4095649209768));
#1713=CARTESIAN_POINT('',(1.29881391767094,93.8190413095865,-70.1580019209781));
#1714=CARTESIAN_POINT('Origin',(1.29881391767102,93.8190413095865,-68.9080019209781));
#1715=CARTESIAN_POINT('Origin',(-0.501186082247624,90.1940417025041,-63.1163801623528));
#1716=CARTESIAN_POINT('',(-0.501186082248632,95.3190420923469,-64.509564365078));
#1717=CARTESIAN_POINT('',(-0.501186082248722,95.3190420922942,-67.0661279458256));
#1718=CARTESIAN_POINT('Origin',(-0.501186082247673,97.3190420922932,-64.509564365078));
#1719=CARTESIAN_POINT('Origin',(0.611813917710806,97.3190420922932,-64.509564365078));
#1720=CARTESIAN_POINT('',(0.611813917710806,95.3190420922932,-64.509564365078));
#1721=CARTESIAN_POINT('Origin',(4.79881391774091,93.8190413095864,-68.9080019209794));
#1722=CARTESIAN_POINT('',(4.79881391774091,96.8190413095864,-68.9080019247929));
#1723=CARTESIAN_POINT('',(4.79881391774091,96.8190413095864,-68.908001924793));
#1724=CARTESIAN_POINT('Origin',(4.7988139177518,93.8190413095864,-68.9080019209794));
#1725=CARTESIAN_POINT('Origin',(-2.40118608232581,95.3190420922933,-23.5181028505371));
#1726=CARTESIAN_POINT('',(-0.501186082245331,95.3190420922933,-30.6095988505347));
#1727=CARTESIAN_POINT('',(-0.501186082247545,95.3190420922938,-35.2232288505359));
#1728=CARTESIAN_POINT('Origin',(-0.501186082244978,93.8190420922926,-80.6095649209752));
#1729=CARTESIAN_POINT('',(-0.501186082244978,95.3190420922932,-80.6095649209752));
#1730=CARTESIAN_POINT('Origin',(-6.63818608225347,89.46904220232,-78.4095649209759));
#1731=CARTESIAN_POINT('',(-6.63818608225364,86.71904220232,-78.4095649209759));
#1732=CARTESIAN_POINT('',(-6.63818608225364,86.71904220232,-78.4095649209759));
#1733=CARTESIAN_POINT('Origin',(-6.63818608225347,89.46904220232,-78.409564920977));
#1734=CARTESIAN_POINT('Origin',(1.84881391774995,93.8190413095865,-68.9080019209782));
#1735=CARTESIAN_POINT('',(1.84881391774987,93.8190413095865,-70.1580019209782));
#1736=CARTESIAN_POINT('Origin',(-6.63818608225274,89.4690422023205,-77.4095649209759));
#1737=CARTESIAN_POINT('',(-6.63818608225285,87.7690422023205,-78.4095649209771));
#1738=CARTESIAN_POINT('Origin',(-6.63818608225274,89.4690422023205,-78.409564920977));
#1739=CARTESIAN_POINT('',(-6.63818608225285,87.7690422023205,-77.4095649209759));
#1740=CARTESIAN_POINT('Origin',(-10.9011860822547,80.5190423124051,-76.409564920976));
#1741=CARTESIAN_POINT('Origin',(3.62481391774782,83.7880413123488,-78.409564920977));
#1742=CARTESIAN_POINT('Origin',(-2.4011860823259,95.3190420922932,-38.1180694037309));
#1743=CARTESIAN_POINT('Origin',(4.7988139177518,93.8280413123224,-96.1017993561502));
#1744=CARTESIAN_POINT('Origin',(4.79881391774089,93.8190413123477,-42.7247918505387));
#1745=CARTESIAN_POINT('',(4.79881391774089,96.8190413123477,-42.7247918543522));
#1746=CARTESIAN_POINT('',(4.79881391774089,96.8190413123477,-42.7247918543522));
#1747=CARTESIAN_POINT('Origin',(4.7988139177518,93.8190413123477,-42.7247918505387));
#1748=CARTESIAN_POINT('Origin',(-0.501186082247596,90.1940417025041,-48.516413609159));
#1749=CARTESIAN_POINT('Origin',(-0.501186082244657,85.1190427595695,-31.1095988505352));
#1750=CARTESIAN_POINT('',(-0.50118608224453,87.1190427595695,-31.6095988505352));
#1751=CARTESIAN_POINT('Origin',(-0.501186082244659,85.1190427595695,-31.6095988505352));
#1752=CARTESIAN_POINT('',(-0.501186082244496,87.6190427595695,-31.1095988505352));
#1753=CARTESIAN_POINT('Origin',(-0.501186082244662,85.1190427595695,-32.8095988505357));
#1754=CARTESIAN_POINT('',(-0.501186082244533,87.1190427595695,-32.8095988505356));
#1755=CARTESIAN_POINT('Origin',(-0.501186082245331,93.8190420922927,-30.6095988505347));
#1756=CARTESIAN_POINT('Origin',(-6.63818608225269,89.4690422023205,-32.8095988505352));
#1757=CARTESIAN_POINT('',(-6.63818608225251,92.2190422023205,-32.8095988505352));
#1758=CARTESIAN_POINT('',(-6.63818608225251,92.2190422023205,-32.8095988505352));
#1759=CARTESIAN_POINT('Origin',(-6.63818608225269,89.4690422023205,-32.8095988505361));
#1760=CARTESIAN_POINT('Origin',(1.84881391775393,93.8190413123479,-42.7247918505373));
#1761=CARTESIAN_POINT('',(1.84881391775385,93.8190413123479,-43.9747918505373));
#1762=CARTESIAN_POINT('Origin',(3.62481391775176,96.6000420922942,-32.8095988505362));
#1763=CARTESIAN_POINT('',(-6.63818608225185,91.169042202321,-32.8095988505361));
#1764=CARTESIAN_POINT('Origin',(-6.63818608225196,89.469042202321,-32.8095988505362));
#1765=CARTESIAN_POINT('Origin',(-6.63818608225196,89.469042202321,-32.809598850535));
#1766=CARTESIAN_POINT('',(-6.63818608225185,91.169042202321,-32.809598850535));
#1767=CARTESIAN_POINT('Origin',(4.7988139177518,93.8280413123224,-96.1017993561502));
#1768=UNCERTAINTY_MEASURE_WITH_UNIT(LENGTH_MEASURE(0.01),#1772,
'DISTANCE_ACCURACY_VALUE',
'Maximum model space distance between geometric entities at asserted c
onnectivities');
#1769=UNCERTAINTY_MEASURE_WITH_UNIT(LENGTH_MEASURE(0.01),#1772,
'DISTANCE_ACCURACY_VALUE',
'Maximum model space distance between geometric entities at asserted c
onnectivities');
#1770=(
GEOMETRIC_REPRESENTATION_CONTEXT(3)
GLOBAL_UNCERTAINTY_ASSIGNED_CONTEXT((#1768))
GLOBAL_UNIT_ASSIGNED_CONTEXT((#1772,#1774,#1775))
REPRESENTATION_CONTEXT('','3D')
);
#1771=(
GEOMETRIC_REPRESENTATION_CONTEXT(3)
GLOBAL_UNCERTAINTY_ASSIGNED_CONTEXT((#1769))
GLOBAL_UNIT_ASSIGNED_CONTEXT((#1772,#1774,#1775))
REPRESENTATION_CONTEXT('','3D')
);
#1772=(
LENGTH_UNIT()
NAMED_UNIT(*)
SI_UNIT(.MILLI.,.METRE.)
);
#1773=(
LENGTH_UNIT()
NAMED_UNIT(*)
SI_UNIT($,.METRE.)
);
#1774=(
NAMED_UNIT(*)
PLANE_ANGLE_UNIT()
SI_UNIT($,.RADIAN.)
);
#1775=(
NAMED_UNIT(*)
SI_UNIT($,.STERADIAN.)
SOLID_ANGLE_UNIT()
);
#1776=SHAPE_DEFINITION_REPRESENTATION(#1777,#1778);
#1777=PRODUCT_DEFINITION_SHAPE('',$,#1780);
#1778=SHAPE_REPRESENTATION('',(#1073),#1770);
#1779=PRODUCT_DEFINITION_CONTEXT('part definition',#1784,'design');
#1780=PRODUCT_DEFINITION('carriage-top-right','carriage-top-right',#1781,
#1779);
#1781=PRODUCT_DEFINITION_FORMATION('',$,#1786);
#1782=PRODUCT_RELATED_PRODUCT_CATEGORY('carriage-top-right',
'carriage-top-right',(#1786));
#1783=APPLICATION_PROTOCOL_DEFINITION('international standard',
'automotive_design',2009,#1784);
#1784=APPLICATION_CONTEXT(
'Core Data for Automotive Mechanical Design Process');
#1785=PRODUCT_CONTEXT('part definition',#1784,'mechanical');
#1786=PRODUCT('carriage-top-right','carriage-top-right',$,(#1785));
#1787=PRESENTATION_STYLE_ASSIGNMENT((#1789));
#1788=PRESENTATION_STYLE_ASSIGNMENT((#1790));
#1789=SURFACE_STYLE_USAGE(.BOTH.,#1791);
#1790=SURFACE_STYLE_USAGE(.BOTH.,#1792);
#1791=SURFACE_SIDE_STYLE('',(#1793));
#1792=SURFACE_SIDE_STYLE('',(#1794));
#1793=SURFACE_STYLE_FILL_AREA(#1795);
#1794=SURFACE_STYLE_FILL_AREA(#1796);
#1795=FILL_AREA_STYLE('Steel - Satin',(#1797));
#1796=FILL_AREA_STYLE('ABS (White)',(#1798));
#1797=FILL_AREA_STYLE_COLOUR('Steel - Satin',#1799);
#1798=FILL_AREA_STYLE_COLOUR('ABS (White)',#1800);
#1799=COLOUR_RGB('Steel - Satin',0.627450980392157,0.627450980392157,0.627450980392157);
#1800=COLOUR_RGB('ABS (White)',0.964705882352941,0.964705882352941,0.952941176470588);
ENDSEC;
END-ISO-10303-21;
