ISO-10303-21;
HEADER;
/* Generated by software containing ST-Developer
 * from STEP Tools, Inc. (www.steptools.com) 
 */

FILE_DESCRIPTION(
/* description */ (''),
/* implementation_level */ '2;1');

FILE_NAME(
/* name */ 'tube-cut-tool.step',
/* time_stamp */ '2026-02-13T07:45:06-08:00',
/* author */ (''),
/* organization */ (''),
/* preprocessor_version */ 'ST-DEVELOPER v20.1',
/* originating_system */ 'Autodesk Translation Framework v14.24.0.0',
/* authorisation */ '');

FILE_SCHEMA (('AUTOMOTIVE_DESIGN { 1 0 10303 214 3 1 1 }'));
ENDSEC;

DATA;
#10=MECHANICAL_DESIGN_GEOMETRIC_PRESENTATION_REPRESENTATION('',(#13),#585);
#11=SHAPE_REPRESENTATION_RELATIONSHIP('SRR','None',#592,#12);
#12=ADVANCED_BREP_SHAPE_REPRESENTATION('',(#14),#584);
#13=STYLED_ITEM('',(#601),#14);
#14=MANIFOLD_SOLID_BREP('Body1',#341);
#15=FACE_BOUND('',#68,.T.);
#16=FACE_BOUND('',#71,.T.);
#17=FACE_BOUND('',#74,.T.);
#18=FACE_BOUND('',#80,.T.);
#19=FACE_BOUND('',#81,.T.);
#20=FACE_BOUND('',#82,.T.);
#21=CYLINDRICAL_SURFACE('',#363,2.2);
#22=CYLINDRICAL_SURFACE('',#369,2.2);
#23=CYLINDRICAL_SURFACE('',#373,2.2);
#24=CYLINDRICAL_SURFACE('',#380,2.7);
#25=CYLINDRICAL_SURFACE('',#383,2.7);
#26=CYLINDRICAL_SURFACE('',#386,2.7);
#27=CIRCLE('',#358,2.2);
#28=CIRCLE('',#360,2.2);
#29=CIRCLE('',#362,2.2);
#30=CIRCLE('',#364,2.2);
#31=CIRCLE('',#368,2.2);
#32=CIRCLE('',#370,2.2);
#33=CIRCLE('',#377,2.7);
#34=CIRCLE('',#378,2.7);
#35=CIRCLE('',#379,2.7);
#36=CIRCLE('',#381,2.7);
#37=CIRCLE('',#384,2.7);
#38=CIRCLE('',#387,2.7);
#39=FACE_OUTER_BOUND('',#61,.T.);
#40=FACE_OUTER_BOUND('',#62,.T.);
#41=FACE_OUTER_BOUND('',#63,.T.);
#42=FACE_OUTER_BOUND('',#64,.T.);
#43=FACE_OUTER_BOUND('',#65,.T.);
#44=FACE_OUTER_BOUND('',#66,.T.);
#45=FACE_OUTER_BOUND('',#67,.T.);
#46=FACE_OUTER_BOUND('',#69,.T.);
#47=FACE_OUTER_BOUND('',#70,.T.);
#48=FACE_OUTER_BOUND('',#72,.T.);
#49=FACE_OUTER_BOUND('',#73,.T.);
#50=FACE_OUTER_BOUND('',#75,.T.);
#51=FACE_OUTER_BOUND('',#76,.T.);
#52=FACE_OUTER_BOUND('',#77,.T.);
#53=FACE_OUTER_BOUND('',#78,.T.);
#54=FACE_OUTER_BOUND('',#79,.T.);
#55=FACE_OUTER_BOUND('',#83,.T.);
#56=FACE_OUTER_BOUND('',#84,.T.);
#57=FACE_OUTER_BOUND('',#85,.T.);
#58=FACE_OUTER_BOUND('',#86,.T.);
#59=FACE_OUTER_BOUND('',#87,.T.);
#60=FACE_OUTER_BOUND('',#88,.T.);
#61=EDGE_LOOP('',(#219,#220,#221,#222,#223,#224,#225,#226));
#62=EDGE_LOOP('',(#227,#228,#229,#230,#231,#232,#233,#234));
#63=EDGE_LOOP('',(#235));
#64=EDGE_LOOP('',(#236));
#65=EDGE_LOOP('',(#237));
#66=EDGE_LOOP('',(#238,#239,#240,#241));
#67=EDGE_LOOP('',(#242,#243,#244,#245));
#68=EDGE_LOOP('',(#246));
#69=EDGE_LOOP('',(#247,#248,#249,#250));
#70=EDGE_LOOP('',(#251,#252,#253,#254));
#71=EDGE_LOOP('',(#255));
#72=EDGE_LOOP('',(#256,#257,#258,#259));
#73=EDGE_LOOP('',(#260,#261,#262,#263));
#74=EDGE_LOOP('',(#264));
#75=EDGE_LOOP('',(#265,#266,#267,#268));
#76=EDGE_LOOP('',(#269,#270,#271,#272));
#77=EDGE_LOOP('',(#273,#274,#275,#276));
#78=EDGE_LOOP('',(#277,#278,#279,#280));
#79=EDGE_LOOP('',(#281,#282,#283,#284));
#80=EDGE_LOOP('',(#285));
#81=EDGE_LOOP('',(#286));
#82=EDGE_LOOP('',(#287));
#83=EDGE_LOOP('',(#288,#289,#290,#291));
#84=EDGE_LOOP('',(#292));
#85=EDGE_LOOP('',(#293,#294,#295,#296));
#86=EDGE_LOOP('',(#297));
#87=EDGE_LOOP('',(#298,#299,#300,#301));
#88=EDGE_LOOP('',(#302));
#89=LINE('',#493,#119);
#90=LINE('',#495,#120);
#91=LINE('',#497,#121);
#92=LINE('',#499,#122);
#93=LINE('',#501,#123);
#94=LINE('',#503,#124);
#95=LINE('',#505,#125);
#96=LINE('',#506,#126);
#97=LINE('',#510,#127);
#98=LINE('',#512,#128);
#99=LINE('',#514,#129);
#100=LINE('',#516,#130);
#101=LINE('',#518,#131);
#102=LINE('',#520,#132);
#103=LINE('',#522,#133);
#104=LINE('',#523,#134);
#105=LINE('',#536,#135);
#106=LINE('',#538,#136);
#107=LINE('',#539,#137);
#108=LINE('',#541,#138);
#109=LINE('',#543,#139);
#110=LINE('',#549,#140);
#111=LINE('',#551,#141);
#112=LINE('',#552,#142);
#113=LINE('',#555,#143);
#114=LINE('',#557,#144);
#115=LINE('',#559,#145);
#116=LINE('',#569,#146);
#117=LINE('',#574,#147);
#118=LINE('',#579,#148);
#119=VECTOR('',#393,10.);
#120=VECTOR('',#394,10.);
#121=VECTOR('',#395,10.);
#122=VECTOR('',#396,10.);
#123=VECTOR('',#397,10.);
#124=VECTOR('',#398,10.);
#125=VECTOR('',#399,10.);
#126=VECTOR('',#400,10.);
#127=VECTOR('',#403,10.);
#128=VECTOR('',#404,10.);
#129=VECTOR('',#405,10.);
#130=VECTOR('',#406,10.);
#131=VECTOR('',#407,10.);
#132=VECTOR('',#408,10.);
#133=VECTOR('',#409,10.);
#134=VECTOR('',#410,10.);
#135=VECTOR('',#427,2.2);
#136=VECTOR('',#430,10.);
#137=VECTOR('',#431,10.);
#138=VECTOR('',#434,10.);
#139=VECTOR('',#437,10.);
#140=VECTOR('',#444,2.2);
#141=VECTOR('',#447,10.);
#142=VECTOR('',#448,10.);
#143=VECTOR('',#453,2.2);
#144=VECTOR('',#456,10.);
#145=VECTOR('',#459,10.);
#146=VECTOR('',#470,2.7);
#147=VECTOR('',#477,2.7);
#148=VECTOR('',#484,2.7);
#149=VERTEX_POINT('',#491);
#150=VERTEX_POINT('',#492);
#151=VERTEX_POINT('',#494);
#152=VERTEX_POINT('',#496);
#153=VERTEX_POINT('',#498);
#154=VERTEX_POINT('',#500);
#155=VERTEX_POINT('',#502);
#156=VERTEX_POINT('',#504);
#157=VERTEX_POINT('',#508);
#158=VERTEX_POINT('',#509);
#159=VERTEX_POINT('',#511);
#160=VERTEX_POINT('',#513);
#161=VERTEX_POINT('',#515);
#162=VERTEX_POINT('',#517);
#163=VERTEX_POINT('',#519);
#164=VERTEX_POINT('',#521);
#165=VERTEX_POINT('',#525);
#166=VERTEX_POINT('',#528);
#167=VERTEX_POINT('',#531);
#168=VERTEX_POINT('',#534);
#169=VERTEX_POINT('',#544);
#170=VERTEX_POINT('',#547);
#171=VERTEX_POINT('',#561);
#172=VERTEX_POINT('',#563);
#173=VERTEX_POINT('',#565);
#174=VERTEX_POINT('',#568);
#175=VERTEX_POINT('',#573);
#176=VERTEX_POINT('',#578);
#177=EDGE_CURVE('',#149,#150,#89,.T.);
#178=EDGE_CURVE('',#150,#151,#90,.T.);
#179=EDGE_CURVE('',#151,#152,#91,.T.);
#180=EDGE_CURVE('',#152,#153,#92,.T.);
#181=EDGE_CURVE('',#153,#154,#93,.T.);
#182=EDGE_CURVE('',#154,#155,#94,.T.);
#183=EDGE_CURVE('',#155,#156,#95,.T.);
#184=EDGE_CURVE('',#156,#149,#96,.T.);
#185=EDGE_CURVE('',#157,#158,#97,.T.);
#186=EDGE_CURVE('',#158,#159,#98,.T.);
#187=EDGE_CURVE('',#159,#160,#99,.T.);
#188=EDGE_CURVE('',#160,#161,#100,.T.);
#189=EDGE_CURVE('',#161,#162,#101,.T.);
#190=EDGE_CURVE('',#162,#163,#102,.T.);
#191=EDGE_CURVE('',#163,#164,#103,.T.);
#192=EDGE_CURVE('',#164,#157,#104,.T.);
#193=EDGE_CURVE('',#165,#165,#27,.T.);
#194=EDGE_CURVE('',#166,#166,#28,.T.);
#195=EDGE_CURVE('',#167,#167,#29,.T.);
#196=EDGE_CURVE('',#168,#168,#30,.T.);
#197=EDGE_CURVE('',#168,#166,#105,.T.);
#198=EDGE_CURVE('',#163,#156,#106,.T.);
#199=EDGE_CURVE('',#155,#164,#107,.T.);
#200=EDGE_CURVE('',#149,#162,#108,.T.);
#201=EDGE_CURVE('',#150,#161,#109,.T.);
#202=EDGE_CURVE('',#169,#169,#31,.T.);
#203=EDGE_CURVE('',#170,#170,#32,.T.);
#204=EDGE_CURVE('',#170,#167,#110,.T.);
#205=EDGE_CURVE('',#154,#157,#111,.T.);
#206=EDGE_CURVE('',#158,#153,#112,.T.);
#207=EDGE_CURVE('',#169,#165,#113,.T.);
#208=EDGE_CURVE('',#151,#160,#114,.T.);
#209=EDGE_CURVE('',#159,#152,#115,.T.);
#210=EDGE_CURVE('',#171,#171,#33,.T.);
#211=EDGE_CURVE('',#172,#172,#34,.T.);
#212=EDGE_CURVE('',#173,#173,#35,.T.);
#213=EDGE_CURVE('',#171,#174,#116,.T.);
#214=EDGE_CURVE('',#174,#174,#36,.T.);
#215=EDGE_CURVE('',#172,#175,#117,.T.);
#216=EDGE_CURVE('',#175,#175,#37,.T.);
#217=EDGE_CURVE('',#173,#176,#118,.T.);
#218=EDGE_CURVE('',#176,#176,#38,.T.);
#219=ORIENTED_EDGE('',*,*,#177,.T.);
#220=ORIENTED_EDGE('',*,*,#178,.T.);
#221=ORIENTED_EDGE('',*,*,#179,.T.);
#222=ORIENTED_EDGE('',*,*,#180,.T.);
#223=ORIENTED_EDGE('',*,*,#181,.T.);
#224=ORIENTED_EDGE('',*,*,#182,.T.);
#225=ORIENTED_EDGE('',*,*,#183,.T.);
#226=ORIENTED_EDGE('',*,*,#184,.T.);
#227=ORIENTED_EDGE('',*,*,#185,.T.);
#228=ORIENTED_EDGE('',*,*,#186,.T.);
#229=ORIENTED_EDGE('',*,*,#187,.T.);
#230=ORIENTED_EDGE('',*,*,#188,.T.);
#231=ORIENTED_EDGE('',*,*,#189,.T.);
#232=ORIENTED_EDGE('',*,*,#190,.T.);
#233=ORIENTED_EDGE('',*,*,#191,.T.);
#234=ORIENTED_EDGE('',*,*,#192,.T.);
#235=ORIENTED_EDGE('',*,*,#193,.F.);
#236=ORIENTED_EDGE('',*,*,#194,.F.);
#237=ORIENTED_EDGE('',*,*,#195,.F.);
#238=ORIENTED_EDGE('',*,*,#196,.F.);
#239=ORIENTED_EDGE('',*,*,#197,.T.);
#240=ORIENTED_EDGE('',*,*,#194,.T.);
#241=ORIENTED_EDGE('',*,*,#197,.F.);
#242=ORIENTED_EDGE('',*,*,#198,.T.);
#243=ORIENTED_EDGE('',*,*,#183,.F.);
#244=ORIENTED_EDGE('',*,*,#199,.T.);
#245=ORIENTED_EDGE('',*,*,#191,.F.);
#246=ORIENTED_EDGE('',*,*,#196,.T.);
#247=ORIENTED_EDGE('',*,*,#198,.F.);
#248=ORIENTED_EDGE('',*,*,#190,.F.);
#249=ORIENTED_EDGE('',*,*,#200,.F.);
#250=ORIENTED_EDGE('',*,*,#184,.F.);
#251=ORIENTED_EDGE('',*,*,#200,.T.);
#252=ORIENTED_EDGE('',*,*,#189,.F.);
#253=ORIENTED_EDGE('',*,*,#201,.F.);
#254=ORIENTED_EDGE('',*,*,#177,.F.);
#255=ORIENTED_EDGE('',*,*,#202,.T.);
#256=ORIENTED_EDGE('',*,*,#203,.F.);
#257=ORIENTED_EDGE('',*,*,#204,.T.);
#258=ORIENTED_EDGE('',*,*,#195,.T.);
#259=ORIENTED_EDGE('',*,*,#204,.F.);
#260=ORIENTED_EDGE('',*,*,#205,.F.);
#261=ORIENTED_EDGE('',*,*,#181,.F.);
#262=ORIENTED_EDGE('',*,*,#206,.F.);
#263=ORIENTED_EDGE('',*,*,#185,.F.);
#264=ORIENTED_EDGE('',*,*,#203,.T.);
#265=ORIENTED_EDGE('',*,*,#205,.T.);
#266=ORIENTED_EDGE('',*,*,#192,.F.);
#267=ORIENTED_EDGE('',*,*,#199,.F.);
#268=ORIENTED_EDGE('',*,*,#182,.F.);
#269=ORIENTED_EDGE('',*,*,#202,.F.);
#270=ORIENTED_EDGE('',*,*,#207,.T.);
#271=ORIENTED_EDGE('',*,*,#193,.T.);
#272=ORIENTED_EDGE('',*,*,#207,.F.);
#273=ORIENTED_EDGE('',*,*,#201,.T.);
#274=ORIENTED_EDGE('',*,*,#188,.F.);
#275=ORIENTED_EDGE('',*,*,#208,.F.);
#276=ORIENTED_EDGE('',*,*,#178,.F.);
#277=ORIENTED_EDGE('',*,*,#206,.T.);
#278=ORIENTED_EDGE('',*,*,#180,.F.);
#279=ORIENTED_EDGE('',*,*,#209,.F.);
#280=ORIENTED_EDGE('',*,*,#186,.F.);
#281=ORIENTED_EDGE('',*,*,#209,.T.);
#282=ORIENTED_EDGE('',*,*,#179,.F.);
#283=ORIENTED_EDGE('',*,*,#208,.T.);
#284=ORIENTED_EDGE('',*,*,#187,.F.);
#285=ORIENTED_EDGE('',*,*,#210,.T.);
#286=ORIENTED_EDGE('',*,*,#211,.T.);
#287=ORIENTED_EDGE('',*,*,#212,.T.);
#288=ORIENTED_EDGE('',*,*,#210,.F.);
#289=ORIENTED_EDGE('',*,*,#213,.T.);
#290=ORIENTED_EDGE('',*,*,#214,.T.);
#291=ORIENTED_EDGE('',*,*,#213,.F.);
#292=ORIENTED_EDGE('',*,*,#214,.F.);
#293=ORIENTED_EDGE('',*,*,#211,.F.);
#294=ORIENTED_EDGE('',*,*,#215,.T.);
#295=ORIENTED_EDGE('',*,*,#216,.T.);
#296=ORIENTED_EDGE('',*,*,#215,.F.);
#297=ORIENTED_EDGE('',*,*,#216,.F.);
#298=ORIENTED_EDGE('',*,*,#212,.F.);
#299=ORIENTED_EDGE('',*,*,#217,.T.);
#300=ORIENTED_EDGE('',*,*,#218,.T.);
#301=ORIENTED_EDGE('',*,*,#217,.F.);
#302=ORIENTED_EDGE('',*,*,#218,.F.);
#303=PLANE('',#355);
#304=PLANE('',#356);
#305=PLANE('',#357);
#306=PLANE('',#359);
#307=PLANE('',#361);
#308=PLANE('',#365);
#309=PLANE('',#366);
#310=PLANE('',#367);
#311=PLANE('',#371);
#312=PLANE('',#372);
#313=PLANE('',#374);
#314=PLANE('',#375);
#315=PLANE('',#376);
#316=PLANE('',#382);
#317=PLANE('',#385);
#318=PLANE('',#388);
#319=ADVANCED_FACE('',(#39),#303,.T.);
#320=ADVANCED_FACE('',(#40),#304,.T.);
#321=ADVANCED_FACE('',(#41),#305,.F.);
#322=ADVANCED_FACE('',(#42),#306,.F.);
#323=ADVANCED_FACE('',(#43),#307,.F.);
#324=ADVANCED_FACE('',(#44),#21,.F.);
#325=ADVANCED_FACE('',(#45,#15),#308,.T.);
#326=ADVANCED_FACE('',(#46),#309,.F.);
#327=ADVANCED_FACE('',(#47,#16),#310,.T.);
#328=ADVANCED_FACE('',(#48),#22,.F.);
#329=ADVANCED_FACE('',(#49,#17),#311,.T.);
#330=ADVANCED_FACE('',(#50),#312,.F.);
#331=ADVANCED_FACE('',(#51),#23,.F.);
#332=ADVANCED_FACE('',(#52),#313,.F.);
#333=ADVANCED_FACE('',(#53),#314,.F.);
#334=ADVANCED_FACE('',(#54,#18,#19,#20),#315,.T.);
#335=ADVANCED_FACE('',(#55),#24,.F.);
#336=ADVANCED_FACE('',(#56),#316,.F.);
#337=ADVANCED_FACE('',(#57),#25,.F.);
#338=ADVANCED_FACE('',(#58),#317,.F.);
#339=ADVANCED_FACE('',(#59),#26,.F.);
#340=ADVANCED_FACE('',(#60),#318,.F.);
#341=CLOSED_SHELL('',(#319,#320,#321,#322,#323,#324,#325,#326,#327,#328,
#329,#330,#331,#332,#333,#334,#335,#336,#337,#338,#339,#340));
#342=DERIVED_UNIT_ELEMENT(#344,1.);
#343=DERIVED_UNIT_ELEMENT(#587,-3.);
#344=(
MASS_UNIT()
NAMED_UNIT(*)
SI_UNIT(.KILO.,.GRAM.)
);
#345=DERIVED_UNIT((#342,#343));
#346=MEASURE_REPRESENTATION_ITEM('density measure',
POSITIVE_RATIO_MEASURE(7850.),#345);
#347=PROPERTY_DEFINITION_REPRESENTATION(#352,#349);
#348=PROPERTY_DEFINITION_REPRESENTATION(#353,#350);
#349=REPRESENTATION('material name',(#351),#584);
#350=REPRESENTATION('density',(#346),#584);
#351=DESCRIPTIVE_REPRESENTATION_ITEM('Steel','Steel');
#352=PROPERTY_DEFINITION('material property','material name',#594);
#353=PROPERTY_DEFINITION('material property','density of part',#594);
#354=AXIS2_PLACEMENT_3D('',#489,#389,#390);
#355=AXIS2_PLACEMENT_3D('',#490,#391,#392);
#356=AXIS2_PLACEMENT_3D('',#507,#401,#402);
#357=AXIS2_PLACEMENT_3D('',#524,#411,#412);
#358=AXIS2_PLACEMENT_3D('',#526,#413,#414);
#359=AXIS2_PLACEMENT_3D('',#527,#415,#416);
#360=AXIS2_PLACEMENT_3D('',#529,#417,#418);
#361=AXIS2_PLACEMENT_3D('',#530,#419,#420);
#362=AXIS2_PLACEMENT_3D('',#532,#421,#422);
#363=AXIS2_PLACEMENT_3D('',#533,#423,#424);
#364=AXIS2_PLACEMENT_3D('',#535,#425,#426);
#365=AXIS2_PLACEMENT_3D('',#537,#428,#429);
#366=AXIS2_PLACEMENT_3D('',#540,#432,#433);
#367=AXIS2_PLACEMENT_3D('',#542,#435,#436);
#368=AXIS2_PLACEMENT_3D('',#545,#438,#439);
#369=AXIS2_PLACEMENT_3D('',#546,#440,#441);
#370=AXIS2_PLACEMENT_3D('',#548,#442,#443);
#371=AXIS2_PLACEMENT_3D('',#550,#445,#446);
#372=AXIS2_PLACEMENT_3D('',#553,#449,#450);
#373=AXIS2_PLACEMENT_3D('',#554,#451,#452);
#374=AXIS2_PLACEMENT_3D('',#556,#454,#455);
#375=AXIS2_PLACEMENT_3D('',#558,#457,#458);
#376=AXIS2_PLACEMENT_3D('',#560,#460,#461);
#377=AXIS2_PLACEMENT_3D('',#562,#462,#463);
#378=AXIS2_PLACEMENT_3D('',#564,#464,#465);
#379=AXIS2_PLACEMENT_3D('',#566,#466,#467);
#380=AXIS2_PLACEMENT_3D('',#567,#468,#469);
#381=AXIS2_PLACEMENT_3D('',#570,#471,#472);
#382=AXIS2_PLACEMENT_3D('',#571,#473,#474);
#383=AXIS2_PLACEMENT_3D('',#572,#475,#476);
#384=AXIS2_PLACEMENT_3D('',#575,#478,#479);
#385=AXIS2_PLACEMENT_3D('',#576,#480,#481);
#386=AXIS2_PLACEMENT_3D('',#577,#482,#483);
#387=AXIS2_PLACEMENT_3D('',#580,#485,#486);
#388=AXIS2_PLACEMENT_3D('',#581,#487,#488);
#389=DIRECTION('axis',(0.,0.,1.));
#390=DIRECTION('refdir',(1.,0.,0.));
#391=DIRECTION('center_axis',(0.,-1.,2.22044604925028E-15));
#392=DIRECTION('ref_axis',(0.,-2.22044604925028E-15,-1.));
#393=DIRECTION('',(0.,2.18037224609843E-15,1.));
#394=DIRECTION('',(-1.,6.80878964320889E-17,0.));
#395=DIRECTION('',(-5.42887412286205E-31,-2.18037224609841E-15,-1.));
#396=DIRECTION('',(1.,-6.80878964320889E-17,0.));
#397=DIRECTION('',(0.,2.18037224609843E-15,1.));
#398=DIRECTION('',(1.,-6.80878964320889E-17,1.51185500634398E-31));
#399=DIRECTION('',(0.,2.18037224609843E-15,1.));
#400=DIRECTION('',(1.,-6.80878964320889E-17,1.51185500634398E-31));
#401=DIRECTION('center_axis',(0.,1.,-2.22044604925028E-15));
#402=DIRECTION('ref_axis',(0.,2.22044604925028E-15,1.));
#403=DIRECTION('',(0.,-2.22044604925032E-15,-1.));
#404=DIRECTION('',(-1.,0.,0.));
#405=DIRECTION('',(5.42887412286205E-31,2.18037224609841E-15,1.));
#406=DIRECTION('',(1.,0.,0.));
#407=DIRECTION('',(0.,-2.22044604925032E-15,-1.));
#408=DIRECTION('',(-1.,0.,0.));
#409=DIRECTION('',(0.,-2.22044604925032E-15,-1.));
#410=DIRECTION('',(-1.,0.,0.));
#411=DIRECTION('center_axis',(-1.,0.,0.));
#412=DIRECTION('ref_axis',(0.,0.,1.));
#413=DIRECTION('center_axis',(-1.,0.,0.));
#414=DIRECTION('ref_axis',(0.,1.,0.));
#415=DIRECTION('center_axis',(-1.,0.,0.));
#416=DIRECTION('ref_axis',(0.,0.,1.));
#417=DIRECTION('center_axis',(-1.,0.,0.));
#418=DIRECTION('ref_axis',(0.,1.,0.));
#419=DIRECTION('center_axis',(-1.,0.,0.));
#420=DIRECTION('ref_axis',(0.,0.,1.));
#421=DIRECTION('center_axis',(-1.,0.,0.));
#422=DIRECTION('ref_axis',(0.,1.,0.));
#423=DIRECTION('center_axis',(-1.,0.,0.));
#424=DIRECTION('ref_axis',(0.,1.,0.));
#425=DIRECTION('center_axis',(-1.,0.,0.));
#426=DIRECTION('ref_axis',(0.,1.,0.));
#427=DIRECTION('',(-1.,0.,0.));
#428=DIRECTION('center_axis',(1.,0.,0.));
#429=DIRECTION('ref_axis',(0.,-1.,0.));
#430=DIRECTION('',(0.,-1.,2.22044604925028E-15));
#431=DIRECTION('',(0.,1.,-2.22044604925028E-15));
#432=DIRECTION('center_axis',(0.,2.22044604925033E-15,1.));
#433=DIRECTION('ref_axis',(-1.,0.,0.));
#434=DIRECTION('',(0.,1.,-2.22044604925028E-15));
#435=DIRECTION('center_axis',(1.,0.,0.));
#436=DIRECTION('ref_axis',(0.,-1.,0.));
#437=DIRECTION('',(0.,1.,0.));
#438=DIRECTION('center_axis',(-1.,0.,0.));
#439=DIRECTION('ref_axis',(0.,1.,0.));
#440=DIRECTION('center_axis',(-1.,0.,0.));
#441=DIRECTION('ref_axis',(0.,1.,0.));
#442=DIRECTION('center_axis',(-1.,0.,0.));
#443=DIRECTION('ref_axis',(0.,1.,0.));
#444=DIRECTION('',(-1.,0.,0.));
#445=DIRECTION('center_axis',(1.,0.,0.));
#446=DIRECTION('ref_axis',(0.,-1.,0.));
#447=DIRECTION('',(0.,1.,-2.22044604925028E-15));
#448=DIRECTION('',(0.,-1.,0.));
#449=DIRECTION('center_axis',(0.,2.22044604925033E-15,1.));
#450=DIRECTION('ref_axis',(-1.,0.,0.));
#451=DIRECTION('center_axis',(-1.,0.,0.));
#452=DIRECTION('ref_axis',(0.,1.,0.));
#453=DIRECTION('',(-1.,0.,0.));
#454=DIRECTION('center_axis',(0.,0.,-1.));
#455=DIRECTION('ref_axis',(-1.,0.,0.));
#456=DIRECTION('',(1.20545220979863E-45,1.,0.));
#457=DIRECTION('center_axis',(0.,0.,1.));
#458=DIRECTION('ref_axis',(1.,0.,0.));
#459=DIRECTION('',(-1.20545220979863E-45,-1.,0.));
#460=DIRECTION('center_axis',(-1.,1.20545220979863E-45,5.42887412286205E-31));
#461=DIRECTION('ref_axis',(5.42887412286205E-31,2.18037224609841E-15,1.));
#462=DIRECTION('center_axis',(1.,-1.20545220979863E-45,-5.42887412286205E-31));
#463=DIRECTION('ref_axis',(0.,-1.,0.));
#464=DIRECTION('center_axis',(1.,-1.20545220979863E-45,-5.42887412286205E-31));
#465=DIRECTION('ref_axis',(0.,-1.,0.));
#466=DIRECTION('center_axis',(1.,-1.20545220979863E-45,-5.42887412286205E-31));
#467=DIRECTION('ref_axis',(0.,-1.,0.));
#468=DIRECTION('center_axis',(1.,0.,0.));
#469=DIRECTION('ref_axis',(0.,-1.,0.));
#470=DIRECTION('',(1.,0.,0.));
#471=DIRECTION('center_axis',(1.,0.,0.));
#472=DIRECTION('ref_axis',(0.,-1.,0.));
#473=DIRECTION('center_axis',(1.,0.,0.));
#474=DIRECTION('ref_axis',(0.,-1.,0.));
#475=DIRECTION('center_axis',(1.,0.,0.));
#476=DIRECTION('ref_axis',(0.,-1.,0.));
#477=DIRECTION('',(1.,0.,0.));
#478=DIRECTION('center_axis',(1.,0.,0.));
#479=DIRECTION('ref_axis',(0.,-1.,0.));
#480=DIRECTION('center_axis',(1.,0.,0.));
#481=DIRECTION('ref_axis',(0.,-1.,0.));
#482=DIRECTION('center_axis',(1.,0.,0.));
#483=DIRECTION('ref_axis',(0.,-1.,0.));
#484=DIRECTION('',(1.,0.,0.));
#485=DIRECTION('center_axis',(1.,0.,0.));
#486=DIRECTION('ref_axis',(0.,-1.,0.));
#487=DIRECTION('center_axis',(1.,0.,0.));
#488=DIRECTION('ref_axis',(0.,-1.,0.));
#489=CARTESIAN_POINT('',(0.,0.,0.));
#490=CARTESIAN_POINT('Origin',(124.003795475645,-1004.89956452655,53.993327837852));
#491=CARTESIAN_POINT('',(151.118795475645,-1004.89956452655,25.6817326992127));
#492=CARTESIAN_POINT('',(151.118795475645,-1004.89956452655,35.493327837852));
#493=CARTESIAN_POINT('',(151.118795475645,-1004.89956452655,44.743327837852));
#494=CARTESIAN_POINT('',(79.0037954756451,-1004.89956452655,35.493327837852));
#495=CARTESIAN_POINT('',(101.503795475645,-1004.89956452655,35.493327837852));
#496=CARTESIAN_POINT('',(79.0037954756451,-1004.89956452655,9.29332783785204));
#497=CARTESIAN_POINT('',(79.0037954756451,-1004.89956452655,98.993327837852));
#498=CARTESIAN_POINT('',(91.0037954756452,-1004.89956452655,9.29332783785204));
#499=CARTESIAN_POINT('',(146.503795475645,-1004.89956452655,9.29332783785203));
#500=CARTESIAN_POINT('',(91.0037954756452,-1004.89956452655,18.2817326992127));
#501=CARTESIAN_POINT('',(91.0037954756452,-1004.89956452655,35.3875302685324));
#502=CARTESIAN_POINT('',(123.403795475645,-1004.89956452655,18.2817326992127));
#503=CARTESIAN_POINT('',(123.703795475645,-1004.89956452655,18.2817326992127));
#504=CARTESIAN_POINT('',(123.403795475645,-1004.89956452655,25.6817326992127));
#505=CARTESIAN_POINT('',(123.403795475645,-1004.89956452655,39.0875302685324));
#506=CARTESIAN_POINT('',(137.561295475645,-1004.89956452655,25.6817326992127));
#507=CARTESIAN_POINT('Origin',(124.003795475645,-988.899564526551,53.993327837852));
#508=CARTESIAN_POINT('',(91.0037954756452,-988.899564526551,18.2817326992127));
#509=CARTESIAN_POINT('',(91.0037954756452,-988.899564526551,9.29332783785201));
#510=CARTESIAN_POINT('',(91.0037954756452,-988.899564526551,31.643327837852));
#511=CARTESIAN_POINT('',(79.0037954756451,-988.899564526551,9.29332783785201));
#512=CARTESIAN_POINT('',(146.503795475645,-988.899564526551,9.29332783785201));
#513=CARTESIAN_POINT('',(79.0037954756451,-988.899564526551,35.493327837852));
#514=CARTESIAN_POINT('',(79.0037954756451,-988.899564526551,98.993327837852));
#515=CARTESIAN_POINT('',(151.118795475645,-988.899564526551,35.493327837852));
#516=CARTESIAN_POINT('',(101.503795475645,-988.899564526551,35.493327837852));
#517=CARTESIAN_POINT('',(151.118795475645,-988.899564526551,25.6817326992127));
#518=CARTESIAN_POINT('',(151.118795475645,-988.899564526551,39.0875302685323));
#519=CARTESIAN_POINT('',(123.403795475645,-988.899564526551,25.6817326992127));
#520=CARTESIAN_POINT('',(123.703795475645,-988.899564526551,25.6817326992127));
#521=CARTESIAN_POINT('',(123.403795475645,-988.899564526551,18.2817326992127));
#522=CARTESIAN_POINT('',(123.403795475645,-988.899564526551,35.3875302685323));
#523=CARTESIAN_POINT('',(107.503795475645,-988.899564526551,18.2817326992127));
#524=CARTESIAN_POINT('Origin',(148.418795475645,-996.899564526551,29.793327837852));
#525=CARTESIAN_POINT('',(148.418795475645,-999.099564526551,29.793327837852));
#526=CARTESIAN_POINT('Origin',(148.418795475645,-996.899564526551,29.793327837852));
#527=CARTESIAN_POINT('Origin',(120.703795475645,-996.899564526551,22.393327837852));
#528=CARTESIAN_POINT('',(120.703795475645,-999.099564526551,22.393327837852));
#529=CARTESIAN_POINT('Origin',(120.703795475645,-996.899564526551,22.393327837852));
#530=CARTESIAN_POINT('Origin',(88.3037954756452,-996.899564526551,14.993327837852));
#531=CARTESIAN_POINT('',(88.3037954756452,-999.099564526551,14.993327837852));
#532=CARTESIAN_POINT('Origin',(88.3037954756452,-996.899564526551,14.993327837852));
#533=CARTESIAN_POINT('Origin',(116.561295475645,-996.899564526551,22.393327837852));
#534=CARTESIAN_POINT('',(123.403795475645,-999.099564526551,22.393327837852));
#535=CARTESIAN_POINT('Origin',(123.403795475645,-996.899564526551,22.393327837852));
#536=CARTESIAN_POINT('',(116.561295475645,-999.099564526551,22.393327837852));
#537=CARTESIAN_POINT('Origin',(123.403795475645,-996.899564526551,22.393327837852));
#538=CARTESIAN_POINT('',(123.403795475645,-1000.89956452655,25.6817326992127));
#539=CARTESIAN_POINT('',(123.403795475645,-992.899564526551,18.2817326992127));
#540=CARTESIAN_POINT('Origin',(151.118795475645,-997.899564526551,25.6817326992127));
#541=CARTESIAN_POINT('',(151.118795475645,-992.899564526551,25.6817326992127));
#542=CARTESIAN_POINT('Origin',(151.118795475645,-996.899564526551,29.793327837852));
#543=CARTESIAN_POINT('',(151.118795475645,-998.399564526551,35.493327837852));
#544=CARTESIAN_POINT('',(151.118795475645,-999.099564526551,29.793327837852));
#545=CARTESIAN_POINT('Origin',(151.118795475645,-996.899564526551,29.793327837852));
#546=CARTESIAN_POINT('Origin',(116.561295475645,-996.899564526551,14.993327837852));
#547=CARTESIAN_POINT('',(91.0037954756452,-999.099564526551,14.993327837852));
#548=CARTESIAN_POINT('Origin',(91.0037954756452,-996.899564526551,14.993327837852));
#549=CARTESIAN_POINT('',(116.561295475645,-999.099564526551,14.993327837852));
#550=CARTESIAN_POINT('Origin',(91.0037954756452,-996.899564526551,14.993327837852));
#551=CARTESIAN_POINT('',(91.0037954756452,-992.899564526551,18.2817326992127));
#552=CARTESIAN_POINT('',(91.0037954756452,-999.399564526551,9.29332783785202));
#553=CARTESIAN_POINT('Origin',(123.403795475645,-997.899564526551,18.2817326992127));
#554=CARTESIAN_POINT('Origin',(116.561295475645,-996.899564526551,29.793327837852));
#555=CARTESIAN_POINT('',(116.561295475645,-999.099564526551,29.793327837852));
#556=CARTESIAN_POINT('Origin',(79.0037954756451,-1000.89956452655,35.493327837852));
#557=CARTESIAN_POINT('',(79.0037954756451,-1000.89956452655,35.493327837852));
#558=CARTESIAN_POINT('Origin',(169.003795475645,-1000.89956452655,9.29332783785202));
#559=CARTESIAN_POINT('',(79.0037954756451,-1000.89956452655,9.29332783785202));
#560=CARTESIAN_POINT('Origin',(79.0037954756451,-1000.89956452655,8.99332783785203));
#561=CARTESIAN_POINT('',(79.0037954756451,-994.199564526551,29.793327837852));
#562=CARTESIAN_POINT('Origin',(79.0037954756451,-996.899564526551,29.793327837852));
#563=CARTESIAN_POINT('',(79.0037954756451,-994.199564526551,22.393327837852));
#564=CARTESIAN_POINT('Origin',(79.0037954756451,-996.899564526551,22.393327837852));
#565=CARTESIAN_POINT('',(79.0037954756451,-994.199564526551,14.993327837852));
#566=CARTESIAN_POINT('Origin',(79.0037954756451,-996.899564526551,14.993327837852));
#567=CARTESIAN_POINT('Origin',(113.561295475645,-996.899564526551,29.793327837852));
#568=CARTESIAN_POINT('',(148.118795475645,-994.199564526551,29.793327837852));
#569=CARTESIAN_POINT('',(113.561295475645,-994.199564526551,29.793327837852));
#570=CARTESIAN_POINT('Origin',(148.118795475645,-996.899564526551,29.793327837852));
#571=CARTESIAN_POINT('Origin',(148.118795475645,-996.899564526551,29.793327837852));
#572=CARTESIAN_POINT('Origin',(99.7037954756452,-996.899564526551,22.393327837852));
#573=CARTESIAN_POINT('',(120.403795475645,-994.199564526551,22.393327837852));
#574=CARTESIAN_POINT('',(99.7037954756452,-994.199564526551,22.393327837852));
#575=CARTESIAN_POINT('Origin',(120.403795475645,-996.899564526551,22.393327837852));
#576=CARTESIAN_POINT('Origin',(120.403795475645,-996.899564526551,22.393327837852));
#577=CARTESIAN_POINT('Origin',(83.5037954756451,-996.899564526551,14.993327837852));
#578=CARTESIAN_POINT('',(88.0037954756452,-994.199564526551,14.993327837852));
#579=CARTESIAN_POINT('',(83.5037954756451,-994.199564526551,14.993327837852));
#580=CARTESIAN_POINT('Origin',(88.0037954756452,-996.899564526551,14.993327837852));
#581=CARTESIAN_POINT('Origin',(88.0037954756452,-996.899564526551,14.993327837852));
#582=UNCERTAINTY_MEASURE_WITH_UNIT(LENGTH_MEASURE(0.01),#586,
'DISTANCE_ACCURACY_VALUE',
'Maximum model space distance between geometric entities at asserted c
onnectivities');
#583=UNCERTAINTY_MEASURE_WITH_UNIT(LENGTH_MEASURE(0.01),#586,
'DISTANCE_ACCURACY_VALUE',
'Maximum model space distance between geometric entities at asserted c
onnectivities');
#584=(
GEOMETRIC_REPRESENTATION_CONTEXT(3)
GLOBAL_UNCERTAINTY_ASSIGNED_CONTEXT((#582))
GLOBAL_UNIT_ASSIGNED_CONTEXT((#586,#588,#589))
REPRESENTATION_CONTEXT('','3D')
);
#585=(
GEOMETRIC_REPRESENTATION_CONTEXT(3)
GLOBAL_UNCERTAINTY_ASSIGNED_CONTEXT((#583))
GLOBAL_UNIT_ASSIGNED_CONTEXT((#586,#588,#589))
REPRESENTATION_CONTEXT('','3D')
);
#586=(
LENGTH_UNIT()
NAMED_UNIT(*)
SI_UNIT(.MILLI.,.METRE.)
);
#587=(
LENGTH_UNIT()
NAMED_UNIT(*)
SI_UNIT($,.METRE.)
);
#588=(
NAMED_UNIT(*)
PLANE_ANGLE_UNIT()
SI_UNIT($,.RADIAN.)
);
#589=(
NAMED_UNIT(*)
SI_UNIT($,.STERADIAN.)
SOLID_ANGLE_UNIT()
);
#590=SHAPE_DEFINITION_REPRESENTATION(#591,#592);
#591=PRODUCT_DEFINITION_SHAPE('',$,#594);
#592=SHAPE_REPRESENTATION('',(#354),#584);
#593=PRODUCT_DEFINITION_CONTEXT('part definition',#598,'design');
#594=PRODUCT_DEFINITION('FusionComponent','FusionComponent',#595,#593);
#595=PRODUCT_DEFINITION_FORMATION('',$,#600);
#596=PRODUCT_RELATED_PRODUCT_CATEGORY('FusionComponent',
'FusionComponent',(#600));
#597=APPLICATION_PROTOCOL_DEFINITION('international standard',
'automotive_design',2009,#598);
#598=APPLICATION_CONTEXT(
'Core Data for Automotive Mechanical Design Process');
#599=PRODUCT_CONTEXT('part definition',#598,'mechanical');
#600=PRODUCT('FusionComponent','FusionComponent',$,(#599));
#601=PRESENTATION_STYLE_ASSIGNMENT((#602));
#602=SURFACE_STYLE_USAGE(.BOTH.,#603);
#603=SURFACE_SIDE_STYLE('',(#604));
#604=SURFACE_STYLE_FILL_AREA(#605);
#605=FILL_AREA_STYLE('Steel - Satin',(#606));
#606=FILL_AREA_STYLE_COLOUR('Steel - Satin',#607);
#607=COLOUR_RGB('Steel - Satin',0.627450980392157,0.627450980392157,0.627450980392157);
ENDSEC;
END-ISO-10303-21;
