ISO-10303-21;
HEADER;
/* Generated by software containing ST-Developer
 * from STEP Tools, Inc. (www.steptools.com) 
 */

FILE_DESCRIPTION(
/* description */ (''),
/* implementation_level */ '2;1');

FILE_NAME(
/* name */ 'arm-left.step',
/* time_stamp */ '2026-06-23T13:19:24-07:00',
/* author */ (''),
/* organization */ (''),
/* preprocessor_version */ 'ST-DEVELOPER v20.1',
/* originating_system */ 'Autodesk Translation Framework v15.8.0.0',
/* authorisation */ '');

FILE_SCHEMA (('AUTOMOTIVE_DESIGN { 1 0 10303 214 3 1 1 }'));
ENDSEC;

DATA;
#10=MECHANICAL_DESIGN_GEOMETRIC_PRESENTATION_REPRESENTATION('',(#13),#1277);
#11=SHAPE_REPRESENTATION_RELATIONSHIP('SRR','None',#1284,#12);
#12=ADVANCED_BREP_SHAPE_REPRESENTATION('',(#14),#1276);
#13=STYLED_ITEM('',(#1294),#14);
#14=MANIFOLD_SOLID_BREP('Body1',#750);
#15=CONICAL_SURFACE('',#822,3.70000000000053,0.785398163397441);
#16=CYLINDRICAL_SURFACE('',#780,1.4);
#17=CYLINDRICAL_SURFACE('',#782,1.3);
#18=CYLINDRICAL_SURFACE('',#793,4.);
#19=CYLINDRICAL_SURFACE('',#795,12.0000000000002);
#20=CYLINDRICAL_SURFACE('',#796,1.99999999999994);
#21=CYLINDRICAL_SURFACE('',#798,12.);
#22=CYLINDRICAL_SURFACE('',#808,2.);
#23=CYLINDRICAL_SURFACE('',#809,2.);
#24=CYLINDRICAL_SURFACE('',#811,2.);
#25=CYLINDRICAL_SURFACE('',#812,1.6);
#26=CYLINDRICAL_SURFACE('',#815,2.);
#27=CYLINDRICAL_SURFACE('',#818,1.59999999999997);
#28=CYLINDRICAL_SURFACE('',#824,3.20000000000054);
#29=CYLINDRICAL_SURFACE('',#827,1.59999999999997);
#30=CYLINDRICAL_SURFACE('',#828,3.);
#31=CYLINDRICAL_SURFACE('',#830,3.);
#32=CYLINDRICAL_SURFACE('',#831,1.90000000000005);
#33=CYLINDRICAL_SURFACE('',#832,1.3);
#34=FACE_BOUND('',#122,.T.);
#35=FACE_BOUND('',#123,.T.);
#36=FACE_BOUND('',#126,.T.);
#37=FACE_BOUND('',#129,.T.);
#38=FACE_BOUND('',#133,.T.);
#39=FACE_BOUND('',#134,.T.);
#40=FACE_BOUND('',#142,.T.);
#41=FACE_BOUND('',#143,.T.);
#42=FACE_BOUND('',#152,.T.);
#43=FACE_BOUND('',#159,.T.);
#44=FACE_BOUND('',#168,.T.);
#45=FACE_BOUND('',#170,.T.);
#46=CIRCLE('',#765,1.90000000000005);
#47=CIRCLE('',#768,4.);
#48=CIRCLE('',#769,2.);
#49=CIRCLE('',#770,12.);
#50=CIRCLE('',#771,2.);
#51=CIRCLE('',#772,1.4);
#52=CIRCLE('',#775,1.99999999999994);
#53=CIRCLE('',#776,12.0000000000002);
#54=CIRCLE('',#777,2.);
#55=CIRCLE('',#778,4.);
#56=CIRCLE('',#779,1.3);
#57=CIRCLE('',#781,1.4);
#58=CIRCLE('',#783,1.3);
#59=CIRCLE('',#785,3.);
#60=CIRCLE('',#786,3.);
#61=CIRCLE('',#787,2.);
#62=CIRCLE('',#788,2.);
#63=CIRCLE('',#789,12.0000000000002);
#64=CIRCLE('',#790,1.99999999999994);
#65=CIRCLE('',#791,1.59999999999997);
#66=CIRCLE('',#792,1.3);
#67=CIRCLE('',#799,12.);
#68=CIRCLE('',#801,2.);
#69=CIRCLE('',#802,2.);
#70=CIRCLE('',#803,3.);
#71=CIRCLE('',#804,3.);
#72=CIRCLE('',#805,2.);
#73=CIRCLE('',#806,1.59999999999997);
#74=CIRCLE('',#813,1.59999999999997);
#75=CIRCLE('',#814,1.59999999999997);
#76=CIRCLE('',#817,4.20000000000053);
#77=CIRCLE('',#819,1.59999999999997);
#78=CIRCLE('',#821,1.90000000000005);
#79=CIRCLE('',#823,3.20000000000054);
#80=CIRCLE('',#825,3.20000000000054);
#81=CIRCLE('',#833,1.3);
#82=FACE_OUTER_BOUND('',#121,.T.);
#83=FACE_OUTER_BOUND('',#124,.T.);
#84=FACE_OUTER_BOUND('',#125,.T.);
#85=FACE_OUTER_BOUND('',#127,.T.);
#86=FACE_OUTER_BOUND('',#128,.T.);
#87=FACE_OUTER_BOUND('',#130,.T.);
#88=FACE_OUTER_BOUND('',#131,.T.);
#89=FACE_OUTER_BOUND('',#132,.T.);
#90=FACE_OUTER_BOUND('',#135,.T.);
#91=FACE_OUTER_BOUND('',#136,.T.);
#92=FACE_OUTER_BOUND('',#137,.T.);
#93=FACE_OUTER_BOUND('',#138,.T.);
#94=FACE_OUTER_BOUND('',#139,.T.);
#95=FACE_OUTER_BOUND('',#140,.T.);
#96=FACE_OUTER_BOUND('',#141,.T.);
#97=FACE_OUTER_BOUND('',#144,.T.);
#98=FACE_OUTER_BOUND('',#145,.T.);
#99=FACE_OUTER_BOUND('',#146,.T.);
#100=FACE_OUTER_BOUND('',#147,.T.);
#101=FACE_OUTER_BOUND('',#148,.T.);
#102=FACE_OUTER_BOUND('',#149,.T.);
#103=FACE_OUTER_BOUND('',#150,.T.);
#104=FACE_OUTER_BOUND('',#151,.T.);
#105=FACE_OUTER_BOUND('',#153,.T.);
#106=FACE_OUTER_BOUND('',#154,.T.);
#107=FACE_OUTER_BOUND('',#155,.T.);
#108=FACE_OUTER_BOUND('',#156,.T.);
#109=FACE_OUTER_BOUND('',#157,.T.);
#110=FACE_OUTER_BOUND('',#158,.T.);
#111=FACE_OUTER_BOUND('',#160,.T.);
#112=FACE_OUTER_BOUND('',#161,.T.);
#113=FACE_OUTER_BOUND('',#162,.T.);
#114=FACE_OUTER_BOUND('',#163,.T.);
#115=FACE_OUTER_BOUND('',#164,.T.);
#116=FACE_OUTER_BOUND('',#165,.T.);
#117=FACE_OUTER_BOUND('',#166,.T.);
#118=FACE_OUTER_BOUND('',#167,.T.);
#119=FACE_OUTER_BOUND('',#169,.T.);
#120=FACE_OUTER_BOUND('',#171,.T.);
#121=EDGE_LOOP('',(#483,#484,#485,#486,#487,#488,#489,#490));
#122=EDGE_LOOP('',(#491));
#123=EDGE_LOOP('',(#492,#493,#494,#495));
#124=EDGE_LOOP('',(#496,#497,#498,#499));
#125=EDGE_LOOP('',(#500,#501,#502,#503,#504,#505,#506,#507,#508,#509));
#126=EDGE_LOOP('',(#510));
#127=EDGE_LOOP('',(#511,#512,#513,#514));
#128=EDGE_LOOP('',(#515,#516,#517,#518,#519,#520,#521,#522,#523,#524));
#129=EDGE_LOOP('',(#525));
#130=EDGE_LOOP('',(#526,#527,#528,#529));
#131=EDGE_LOOP('',(#530,#531,#532,#533));
#132=EDGE_LOOP('',(#534,#535,#536,#537,#538,#539,#540,#541,#542,#543,#544));
#133=EDGE_LOOP('',(#545));
#134=EDGE_LOOP('',(#546));
#135=EDGE_LOOP('',(#547,#548,#549,#550));
#136=EDGE_LOOP('',(#551,#552,#553,#554));
#137=EDGE_LOOP('',(#555,#556,#557,#558));
#138=EDGE_LOOP('',(#559,#560,#561,#562));
#139=EDGE_LOOP('',(#563,#564,#565,#566));
#140=EDGE_LOOP('',(#567,#568,#569,#570));
#141=EDGE_LOOP('',(#571,#572,#573,#574,#575,#576,#577,#578,#579,#580,#581));
#142=EDGE_LOOP('',(#582));
#143=EDGE_LOOP('',(#583));
#144=EDGE_LOOP('',(#584,#585,#586,#587));
#145=EDGE_LOOP('',(#588,#589,#590,#591));
#146=EDGE_LOOP('',(#592,#593,#594,#595));
#147=EDGE_LOOP('',(#596,#597,#598,#599,#600,#601,#602,#603));
#148=EDGE_LOOP('',(#604,#605,#606,#607));
#149=EDGE_LOOP('',(#608,#609,#610,#611,#612,#613));
#150=EDGE_LOOP('',(#614,#615,#616,#617));
#151=EDGE_LOOP('',(#618,#619,#620,#621));
#152=EDGE_LOOP('',(#622));
#153=EDGE_LOOP('',(#623,#624,#625,#626));
#154=EDGE_LOOP('',(#627));
#155=EDGE_LOOP('',(#628,#629,#630,#631));
#156=EDGE_LOOP('',(#632,#633,#634,#635));
#157=EDGE_LOOP('',(#636));
#158=EDGE_LOOP('',(#637,#638,#639,#640));
#159=EDGE_LOOP('',(#641,#642,#643,#644,#645,#646,#647,#648));
#160=EDGE_LOOP('',(#649,#650,#651,#652));
#161=EDGE_LOOP('',(#653,#654,#655,#656));
#162=EDGE_LOOP('',(#657,#658,#659,#660));
#163=EDGE_LOOP('',(#661,#662,#663,#664));
#164=EDGE_LOOP('',(#665,#666,#667,#668));
#165=EDGE_LOOP('',(#669,#670,#671,#672));
#166=EDGE_LOOP('',(#673,#674,#675,#676));
#167=EDGE_LOOP('',(#677,#678,#679,#680));
#168=EDGE_LOOP('',(#681));
#169=EDGE_LOOP('',(#682,#683,#684,#685));
#170=EDGE_LOOP('',(#686));
#171=EDGE_LOOP('',(#687,#688,#689,#690));
#172=LINE('',#1063,#240);
#173=LINE('',#1065,#241);
#174=LINE('',#1067,#242);
#175=LINE('',#1069,#243);
#176=LINE('',#1071,#244);
#177=LINE('',#1073,#245);
#178=LINE('',#1075,#246);
#179=LINE('',#1076,#247);
#180=LINE('',#1081,#248);
#181=LINE('',#1083,#249);
#182=LINE('',#1085,#250);
#183=LINE('',#1086,#251);
#184=LINE('',#1090,#252);
#185=LINE('',#1092,#253);
#186=LINE('',#1094,#254);
#187=LINE('',#1095,#255);
#188=LINE('',#1097,#256);
#189=LINE('',#1101,#257);
#190=LINE('',#1103,#258);
#191=LINE('',#1107,#259);
#192=LINE('',#1114,#260);
#193=LINE('',#1121,#261);
#194=LINE('',#1125,#262);
#195=LINE('',#1127,#263);
#196=LINE('',#1134,#264);
#197=LINE('',#1138,#265);
#198=LINE('',#1143,#266);
#199=LINE('',#1147,#267);
#200=LINE('',#1151,#268);
#201=LINE('',#1155,#269);
#202=LINE('',#1164,#270);
#203=LINE('',#1166,#271);
#204=LINE('',#1168,#272);
#205=LINE('',#1169,#273);
#206=LINE('',#1172,#274);
#207=LINE('',#1177,#275);
#208=LINE('',#1178,#276);
#209=LINE('',#1181,#277);
#210=LINE('',#1185,#278);
#211=LINE('',#1189,#279);
#212=LINE('',#1193,#280);
#213=LINE('',#1199,#281);
#214=LINE('',#1202,#282);
#215=LINE('',#1204,#283);
#216=LINE('',#1205,#284);
#217=LINE('',#1212,#285);
#218=LINE('',#1214,#286);
#219=LINE('',#1218,#287);
#220=LINE('',#1219,#288);
#221=LINE('',#1221,#289);
#222=LINE('',#1223,#290);
#223=LINE('',#1230,#291);
#224=LINE('',#1231,#292);
#225=LINE('',#1238,#293);
#226=LINE('',#1241,#294);
#227=LINE('',#1245,#295);
#228=LINE('',#1247,#296);
#229=LINE('',#1249,#297);
#230=LINE('',#1252,#298);
#231=LINE('',#1255,#299);
#232=LINE('',#1259,#300);
#233=LINE('',#1261,#301);
#234=LINE('',#1262,#302);
#235=LINE('',#1265,#303);
#236=LINE('',#1267,#304);
#237=LINE('',#1268,#305);
#238=LINE('',#1270,#306);
#239=LINE('',#1272,#307);
#240=VECTOR('',#843,10.);
#241=VECTOR('',#844,10.);
#242=VECTOR('',#845,10.);
#243=VECTOR('',#846,10.);
#244=VECTOR('',#847,10.);
#245=VECTOR('',#848,10.);
#246=VECTOR('',#849,10.);
#247=VECTOR('',#850,10.);
#248=VECTOR('',#853,10.);
#249=VECTOR('',#854,10.);
#250=VECTOR('',#855,10.);
#251=VECTOR('',#856,10.);
#252=VECTOR('',#859,10.);
#253=VECTOR('',#860,10.);
#254=VECTOR('',#861,10.);
#255=VECTOR('',#862,10.);
#256=VECTOR('',#865,10.);
#257=VECTOR('',#868,10.);
#258=VECTOR('',#869,10.);
#259=VECTOR('',#872,10.);
#260=VECTOR('',#881,10.);
#261=VECTOR('',#888,10.);
#262=VECTOR('',#891,10.);
#263=VECTOR('',#892,10.);
#264=VECTOR('',#901,1.4);
#265=VECTOR('',#906,1.49999999999994);
#266=VECTOR('',#911,10.);
#267=VECTOR('',#914,10.);
#268=VECTOR('',#917,10.);
#269=VECTOR('',#920,10.);
#270=VECTOR('',#931,10.);
#271=VECTOR('',#934,10.);
#272=VECTOR('',#937,10.);
#273=VECTOR('',#938,10.);
#274=VECTOR('',#943,10.);
#275=VECTOR('',#948,12.);
#276=VECTOR('',#949,12.);
#277=VECTOR('',#952,10.);
#278=VECTOR('',#955,10.);
#279=VECTOR('',#958,10.);
#280=VECTOR('',#961,10.);
#281=VECTOR('',#970,10.);
#282=VECTOR('',#975,10.);
#283=VECTOR('',#978,10.);
#284=VECTOR('',#979,10.);
#285=VECTOR('',#986,10.);
#286=VECTOR('',#987,10.);
#287=VECTOR('',#990,10.);
#288=VECTOR('',#991,10.);
#289=VECTOR('',#994,10.);
#290=VECTOR('',#997,10.);
#291=VECTOR('',#1004,10.);
#292=VECTOR('',#1005,10.);
#293=VECTOR('',#1014,3.70000000000053);
#294=VECTOR('',#1017,3.50000000000054);
#295=VECTOR('',#1024,1.59999999999997);
#296=VECTOR('',#1027,10.);
#297=VECTOR('',#1030,10.);
#298=VECTOR('',#1035,1.90000000000005);
#299=VECTOR('',#1038,1.50000000000006);
#300=VECTOR('',#1043,10.);
#301=VECTOR('',#1044,10.);
#302=VECTOR('',#1045,10.);
#303=VECTOR('',#1048,10.);
#304=VECTOR('',#1049,10.);
#305=VECTOR('',#1050,10.);
#306=VECTOR('',#1053,10.);
#307=VECTOR('',#1056,10.);
#308=VERTEX_POINT('',#1061);
#309=VERTEX_POINT('',#1062);
#310=VERTEX_POINT('',#1064);
#311=VERTEX_POINT('',#1066);
#312=VERTEX_POINT('',#1068);
#313=VERTEX_POINT('',#1070);
#314=VERTEX_POINT('',#1072);
#315=VERTEX_POINT('',#1074);
#316=VERTEX_POINT('',#1077);
#317=VERTEX_POINT('',#1079);
#318=VERTEX_POINT('',#1080);
#319=VERTEX_POINT('',#1082);
#320=VERTEX_POINT('',#1084);
#321=VERTEX_POINT('',#1088);
#322=VERTEX_POINT('',#1089);
#323=VERTEX_POINT('',#1091);
#324=VERTEX_POINT('',#1093);
#325=VERTEX_POINT('',#1098);
#326=VERTEX_POINT('',#1100);
#327=VERTEX_POINT('',#1102);
#328=VERTEX_POINT('',#1104);
#329=VERTEX_POINT('',#1106);
#330=VERTEX_POINT('',#1108);
#331=VERTEX_POINT('',#1111);
#332=VERTEX_POINT('',#1116);
#333=VERTEX_POINT('',#1118);
#334=VERTEX_POINT('',#1120);
#335=VERTEX_POINT('',#1122);
#336=VERTEX_POINT('',#1124);
#337=VERTEX_POINT('',#1126);
#338=VERTEX_POINT('',#1129);
#339=VERTEX_POINT('',#1132);
#340=VERTEX_POINT('',#1136);
#341=VERTEX_POINT('',#1140);
#342=VERTEX_POINT('',#1142);
#343=VERTEX_POINT('',#1144);
#344=VERTEX_POINT('',#1146);
#345=VERTEX_POINT('',#1148);
#346=VERTEX_POINT('',#1150);
#347=VERTEX_POINT('',#1152);
#348=VERTEX_POINT('',#1154);
#349=VERTEX_POINT('',#1156);
#350=VERTEX_POINT('',#1159);
#351=VERTEX_POINT('',#1161);
#352=VERTEX_POINT('',#1174);
#353=VERTEX_POINT('',#1175);
#354=VERTEX_POINT('',#1180);
#355=VERTEX_POINT('',#1182);
#356=VERTEX_POINT('',#1184);
#357=VERTEX_POINT('',#1186);
#358=VERTEX_POINT('',#1188);
#359=VERTEX_POINT('',#1190);
#360=VERTEX_POINT('',#1192);
#361=VERTEX_POINT('',#1196);
#362=VERTEX_POINT('',#1208);
#363=VERTEX_POINT('',#1209);
#364=VERTEX_POINT('',#1211);
#365=VERTEX_POINT('',#1213);
#366=VERTEX_POINT('',#1215);
#367=VERTEX_POINT('',#1217);
#368=VERTEX_POINT('',#1224);
#369=VERTEX_POINT('',#1227);
#370=VERTEX_POINT('',#1228);
#371=VERTEX_POINT('',#1233);
#372=VERTEX_POINT('',#1236);
#373=VERTEX_POINT('',#1240);
#374=VERTEX_POINT('',#1254);
#375=VERTEX_POINT('',#1258);
#376=VERTEX_POINT('',#1260);
#377=VERTEX_POINT('',#1264);
#378=VERTEX_POINT('',#1266);
#379=EDGE_CURVE('',#308,#309,#172,.T.);
#380=EDGE_CURVE('',#310,#309,#173,.T.);
#381=EDGE_CURVE('',#311,#310,#174,.F.);
#382=EDGE_CURVE('',#312,#311,#175,.T.);
#383=EDGE_CURVE('',#313,#312,#176,.T.);
#384=EDGE_CURVE('',#314,#313,#177,.T.);
#385=EDGE_CURVE('',#315,#314,#178,.T.);
#386=EDGE_CURVE('',#308,#315,#179,.T.);
#387=EDGE_CURVE('',#316,#316,#46,.T.);
#388=EDGE_CURVE('',#317,#318,#180,.T.);
#389=EDGE_CURVE('',#318,#319,#181,.T.);
#390=EDGE_CURVE('',#320,#319,#182,.T.);
#391=EDGE_CURVE('',#320,#317,#183,.T.);
#392=EDGE_CURVE('',#321,#322,#184,.T.);
#393=EDGE_CURVE('',#323,#322,#185,.F.);
#394=EDGE_CURVE('',#323,#324,#186,.T.);
#395=EDGE_CURVE('',#324,#321,#187,.T.);
#396=EDGE_CURVE('',#322,#308,#188,.T.);
#397=EDGE_CURVE('',#321,#325,#47,.T.);
#398=EDGE_CURVE('',#326,#325,#189,.T.);
#399=EDGE_CURVE('',#326,#327,#190,.T.);
#400=EDGE_CURVE('',#328,#327,#48,.T.);
#401=EDGE_CURVE('',#328,#329,#191,.T.);
#402=EDGE_CURVE('',#330,#329,#49,.T.);
#403=EDGE_CURVE('',#330,#309,#50,.T.);
#404=EDGE_CURVE('',#331,#331,#51,.T.);
#405=EDGE_CURVE('',#315,#323,#192,.T.);
#406=EDGE_CURVE('',#314,#332,#52,.T.);
#407=EDGE_CURVE('',#332,#333,#53,.T.);
#408=EDGE_CURVE('',#333,#334,#193,.T.);
#409=EDGE_CURVE('',#335,#334,#54,.T.);
#410=EDGE_CURVE('',#335,#336,#194,.T.);
#411=EDGE_CURVE('',#337,#336,#195,.T.);
#412=EDGE_CURVE('',#337,#324,#55,.T.);
#413=EDGE_CURVE('',#338,#338,#56,.T.);
#414=EDGE_CURVE('',#339,#339,#57,.T.);
#415=EDGE_CURVE('',#339,#331,#196,.T.);
#416=EDGE_CURVE('',#340,#340,#58,.T.);
#417=EDGE_CURVE('',#340,#338,#197,.T.);
#418=EDGE_CURVE('',#341,#312,#59,.T.);
#419=EDGE_CURVE('',#341,#342,#198,.F.);
#420=EDGE_CURVE('',#343,#342,#60,.T.);
#421=EDGE_CURVE('',#343,#344,#199,.T.);
#422=EDGE_CURVE('',#345,#344,#61,.T.);
#423=EDGE_CURVE('',#346,#345,#200,.T.);
#424=EDGE_CURVE('',#347,#346,#62,.T.);
#425=EDGE_CURVE('',#347,#348,#201,.T.);
#426=EDGE_CURVE('',#348,#349,#63,.T.);
#427=EDGE_CURVE('',#349,#313,#64,.T.);
#428=EDGE_CURVE('',#350,#350,#65,.T.);
#429=EDGE_CURVE('',#351,#351,#66,.T.);
#430=EDGE_CURVE('',#325,#337,#202,.T.);
#431=EDGE_CURVE('',#326,#336,#203,.T.);
#432=EDGE_CURVE('',#332,#349,#204,.T.);
#433=EDGE_CURVE('',#348,#333,#205,.T.);
#434=EDGE_CURVE('',#334,#347,#206,.T.);
#435=EDGE_CURVE('',#352,#353,#67,.T.);
#436=EDGE_CURVE('',#353,#330,#207,.T.);
#437=EDGE_CURVE('',#329,#352,#208,.T.);
#438=EDGE_CURVE('',#354,#352,#209,.T.);
#439=EDGE_CURVE('',#355,#354,#68,.T.);
#440=EDGE_CURVE('',#356,#355,#210,.T.);
#441=EDGE_CURVE('',#357,#356,#69,.T.);
#442=EDGE_CURVE('',#357,#358,#211,.T.);
#443=EDGE_CURVE('',#359,#358,#70,.T.);
#444=EDGE_CURVE('',#359,#360,#212,.F.);
#445=EDGE_CURVE('',#311,#360,#71,.T.);
#446=EDGE_CURVE('',#353,#310,#72,.T.);
#447=EDGE_CURVE('',#361,#361,#73,.T.);
#448=EDGE_CURVE('',#354,#328,#213,.T.);
#449=EDGE_CURVE('',#346,#335,#214,.T.);
#450=EDGE_CURVE('',#356,#345,#215,.T.);
#451=EDGE_CURVE('',#327,#355,#216,.T.);
#452=EDGE_CURVE('',#362,#363,#74,.T.);
#453=EDGE_CURVE('',#363,#364,#217,.T.);
#454=EDGE_CURVE('',#364,#365,#218,.T.);
#455=EDGE_CURVE('',#365,#366,#75,.T.);
#456=EDGE_CURVE('',#366,#367,#219,.T.);
#457=EDGE_CURVE('',#367,#362,#220,.T.);
#458=EDGE_CURVE('',#344,#357,#221,.T.);
#459=EDGE_CURVE('',#358,#343,#222,.T.);
#460=EDGE_CURVE('',#368,#368,#76,.T.);
#461=EDGE_CURVE('',#369,#370,#77,.T.);
#462=EDGE_CURVE('',#370,#363,#223,.T.);
#463=EDGE_CURVE('',#362,#369,#224,.T.);
#464=EDGE_CURVE('',#371,#371,#78,.T.);
#465=EDGE_CURVE('',#372,#372,#79,.T.);
#466=EDGE_CURVE('',#372,#368,#225,.T.);
#467=EDGE_CURVE('',#372,#373,#226,.T.);
#468=EDGE_CURVE('',#373,#373,#80,.F.);
#469=EDGE_CURVE('',#361,#350,#227,.T.);
#470=EDGE_CURVE('',#342,#359,#228,.T.);
#471=EDGE_CURVE('',#360,#341,#229,.T.);
#472=EDGE_CURVE('',#371,#316,#230,.T.);
#473=EDGE_CURVE('',#351,#374,#231,.T.);
#474=EDGE_CURVE('',#374,#374,#81,.F.);
#475=EDGE_CURVE('',#375,#320,#232,.T.);
#476=EDGE_CURVE('',#376,#375,#233,.T.);
#477=EDGE_CURVE('',#317,#376,#234,.T.);
#478=EDGE_CURVE('',#377,#318,#235,.T.);
#479=EDGE_CURVE('',#378,#377,#236,.T.);
#480=EDGE_CURVE('',#319,#378,#237,.T.);
#481=EDGE_CURVE('',#377,#376,#238,.T.);
#482=EDGE_CURVE('',#375,#378,#239,.T.);
#483=ORIENTED_EDGE('',*,*,#379,.T.);
#484=ORIENTED_EDGE('',*,*,#380,.F.);
#485=ORIENTED_EDGE('',*,*,#381,.F.);
#486=ORIENTED_EDGE('',*,*,#382,.F.);
#487=ORIENTED_EDGE('',*,*,#383,.F.);
#488=ORIENTED_EDGE('',*,*,#384,.F.);
#489=ORIENTED_EDGE('',*,*,#385,.F.);
#490=ORIENTED_EDGE('',*,*,#386,.F.);
#491=ORIENTED_EDGE('',*,*,#387,.T.);
#492=ORIENTED_EDGE('',*,*,#388,.T.);
#493=ORIENTED_EDGE('',*,*,#389,.T.);
#494=ORIENTED_EDGE('',*,*,#390,.F.);
#495=ORIENTED_EDGE('',*,*,#391,.T.);
#496=ORIENTED_EDGE('',*,*,#392,.T.);
#497=ORIENTED_EDGE('',*,*,#393,.F.);
#498=ORIENTED_EDGE('',*,*,#394,.T.);
#499=ORIENTED_EDGE('',*,*,#395,.T.);
#500=ORIENTED_EDGE('',*,*,#379,.F.);
#501=ORIENTED_EDGE('',*,*,#396,.F.);
#502=ORIENTED_EDGE('',*,*,#392,.F.);
#503=ORIENTED_EDGE('',*,*,#397,.T.);
#504=ORIENTED_EDGE('',*,*,#398,.F.);
#505=ORIENTED_EDGE('',*,*,#399,.T.);
#506=ORIENTED_EDGE('',*,*,#400,.F.);
#507=ORIENTED_EDGE('',*,*,#401,.T.);
#508=ORIENTED_EDGE('',*,*,#402,.F.);
#509=ORIENTED_EDGE('',*,*,#403,.T.);
#510=ORIENTED_EDGE('',*,*,#404,.T.);
#511=ORIENTED_EDGE('',*,*,#396,.T.);
#512=ORIENTED_EDGE('',*,*,#386,.T.);
#513=ORIENTED_EDGE('',*,*,#405,.T.);
#514=ORIENTED_EDGE('',*,*,#393,.T.);
#515=ORIENTED_EDGE('',*,*,#394,.F.);
#516=ORIENTED_EDGE('',*,*,#405,.F.);
#517=ORIENTED_EDGE('',*,*,#385,.T.);
#518=ORIENTED_EDGE('',*,*,#406,.T.);
#519=ORIENTED_EDGE('',*,*,#407,.T.);
#520=ORIENTED_EDGE('',*,*,#408,.T.);
#521=ORIENTED_EDGE('',*,*,#409,.F.);
#522=ORIENTED_EDGE('',*,*,#410,.T.);
#523=ORIENTED_EDGE('',*,*,#411,.F.);
#524=ORIENTED_EDGE('',*,*,#412,.T.);
#525=ORIENTED_EDGE('',*,*,#413,.T.);
#526=ORIENTED_EDGE('',*,*,#414,.F.);
#527=ORIENTED_EDGE('',*,*,#415,.T.);
#528=ORIENTED_EDGE('',*,*,#404,.F.);
#529=ORIENTED_EDGE('',*,*,#415,.F.);
#530=ORIENTED_EDGE('',*,*,#416,.F.);
#531=ORIENTED_EDGE('',*,*,#417,.T.);
#532=ORIENTED_EDGE('',*,*,#413,.F.);
#533=ORIENTED_EDGE('',*,*,#417,.F.);
#534=ORIENTED_EDGE('',*,*,#383,.T.);
#535=ORIENTED_EDGE('',*,*,#418,.F.);
#536=ORIENTED_EDGE('',*,*,#419,.T.);
#537=ORIENTED_EDGE('',*,*,#420,.F.);
#538=ORIENTED_EDGE('',*,*,#421,.T.);
#539=ORIENTED_EDGE('',*,*,#422,.F.);
#540=ORIENTED_EDGE('',*,*,#423,.F.);
#541=ORIENTED_EDGE('',*,*,#424,.F.);
#542=ORIENTED_EDGE('',*,*,#425,.T.);
#543=ORIENTED_EDGE('',*,*,#426,.T.);
#544=ORIENTED_EDGE('',*,*,#427,.T.);
#545=ORIENTED_EDGE('',*,*,#428,.F.);
#546=ORIENTED_EDGE('',*,*,#429,.F.);
#547=ORIENTED_EDGE('',*,*,#397,.F.);
#548=ORIENTED_EDGE('',*,*,#395,.F.);
#549=ORIENTED_EDGE('',*,*,#412,.F.);
#550=ORIENTED_EDGE('',*,*,#430,.F.);
#551=ORIENTED_EDGE('',*,*,#430,.T.);
#552=ORIENTED_EDGE('',*,*,#411,.T.);
#553=ORIENTED_EDGE('',*,*,#431,.F.);
#554=ORIENTED_EDGE('',*,*,#398,.T.);
#555=ORIENTED_EDGE('',*,*,#407,.F.);
#556=ORIENTED_EDGE('',*,*,#432,.T.);
#557=ORIENTED_EDGE('',*,*,#426,.F.);
#558=ORIENTED_EDGE('',*,*,#433,.T.);
#559=ORIENTED_EDGE('',*,*,#406,.F.);
#560=ORIENTED_EDGE('',*,*,#384,.T.);
#561=ORIENTED_EDGE('',*,*,#427,.F.);
#562=ORIENTED_EDGE('',*,*,#432,.F.);
#563=ORIENTED_EDGE('',*,*,#433,.F.);
#564=ORIENTED_EDGE('',*,*,#425,.F.);
#565=ORIENTED_EDGE('',*,*,#434,.F.);
#566=ORIENTED_EDGE('',*,*,#408,.F.);
#567=ORIENTED_EDGE('',*,*,#435,.T.);
#568=ORIENTED_EDGE('',*,*,#436,.T.);
#569=ORIENTED_EDGE('',*,*,#402,.T.);
#570=ORIENTED_EDGE('',*,*,#437,.T.);
#571=ORIENTED_EDGE('',*,*,#435,.F.);
#572=ORIENTED_EDGE('',*,*,#438,.F.);
#573=ORIENTED_EDGE('',*,*,#439,.F.);
#574=ORIENTED_EDGE('',*,*,#440,.F.);
#575=ORIENTED_EDGE('',*,*,#441,.F.);
#576=ORIENTED_EDGE('',*,*,#442,.T.);
#577=ORIENTED_EDGE('',*,*,#443,.F.);
#578=ORIENTED_EDGE('',*,*,#444,.T.);
#579=ORIENTED_EDGE('',*,*,#445,.F.);
#580=ORIENTED_EDGE('',*,*,#381,.T.);
#581=ORIENTED_EDGE('',*,*,#446,.F.);
#582=ORIENTED_EDGE('',*,*,#414,.T.);
#583=ORIENTED_EDGE('',*,*,#447,.T.);
#584=ORIENTED_EDGE('',*,*,#437,.F.);
#585=ORIENTED_EDGE('',*,*,#401,.F.);
#586=ORIENTED_EDGE('',*,*,#448,.F.);
#587=ORIENTED_EDGE('',*,*,#438,.T.);
#588=ORIENTED_EDGE('',*,*,#436,.F.);
#589=ORIENTED_EDGE('',*,*,#446,.T.);
#590=ORIENTED_EDGE('',*,*,#380,.T.);
#591=ORIENTED_EDGE('',*,*,#403,.F.);
#592=ORIENTED_EDGE('',*,*,#424,.T.);
#593=ORIENTED_EDGE('',*,*,#449,.T.);
#594=ORIENTED_EDGE('',*,*,#409,.T.);
#595=ORIENTED_EDGE('',*,*,#434,.T.);
#596=ORIENTED_EDGE('',*,*,#449,.F.);
#597=ORIENTED_EDGE('',*,*,#423,.T.);
#598=ORIENTED_EDGE('',*,*,#450,.F.);
#599=ORIENTED_EDGE('',*,*,#440,.T.);
#600=ORIENTED_EDGE('',*,*,#451,.F.);
#601=ORIENTED_EDGE('',*,*,#399,.F.);
#602=ORIENTED_EDGE('',*,*,#431,.T.);
#603=ORIENTED_EDGE('',*,*,#410,.F.);
#604=ORIENTED_EDGE('',*,*,#439,.T.);
#605=ORIENTED_EDGE('',*,*,#448,.T.);
#606=ORIENTED_EDGE('',*,*,#400,.T.);
#607=ORIENTED_EDGE('',*,*,#451,.T.);
#608=ORIENTED_EDGE('',*,*,#452,.T.);
#609=ORIENTED_EDGE('',*,*,#453,.T.);
#610=ORIENTED_EDGE('',*,*,#454,.T.);
#611=ORIENTED_EDGE('',*,*,#455,.T.);
#612=ORIENTED_EDGE('',*,*,#456,.T.);
#613=ORIENTED_EDGE('',*,*,#457,.T.);
#614=ORIENTED_EDGE('',*,*,#441,.T.);
#615=ORIENTED_EDGE('',*,*,#450,.T.);
#616=ORIENTED_EDGE('',*,*,#422,.T.);
#617=ORIENTED_EDGE('',*,*,#458,.T.);
#618=ORIENTED_EDGE('',*,*,#458,.F.);
#619=ORIENTED_EDGE('',*,*,#421,.F.);
#620=ORIENTED_EDGE('',*,*,#459,.F.);
#621=ORIENTED_EDGE('',*,*,#442,.F.);
#622=ORIENTED_EDGE('',*,*,#460,.F.);
#623=ORIENTED_EDGE('',*,*,#461,.T.);
#624=ORIENTED_EDGE('',*,*,#462,.T.);
#625=ORIENTED_EDGE('',*,*,#452,.F.);
#626=ORIENTED_EDGE('',*,*,#463,.T.);
#627=ORIENTED_EDGE('',*,*,#464,.F.);
#628=ORIENTED_EDGE('',*,*,#465,.T.);
#629=ORIENTED_EDGE('',*,*,#466,.T.);
#630=ORIENTED_EDGE('',*,*,#460,.T.);
#631=ORIENTED_EDGE('',*,*,#466,.F.);
#632=ORIENTED_EDGE('',*,*,#465,.F.);
#633=ORIENTED_EDGE('',*,*,#467,.T.);
#634=ORIENTED_EDGE('',*,*,#468,.T.);
#635=ORIENTED_EDGE('',*,*,#467,.F.);
#636=ORIENTED_EDGE('',*,*,#468,.F.);
#637=ORIENTED_EDGE('',*,*,#447,.F.);
#638=ORIENTED_EDGE('',*,*,#469,.T.);
#639=ORIENTED_EDGE('',*,*,#428,.T.);
#640=ORIENTED_EDGE('',*,*,#469,.F.);
#641=ORIENTED_EDGE('',*,*,#461,.F.);
#642=ORIENTED_EDGE('',*,*,#463,.F.);
#643=ORIENTED_EDGE('',*,*,#457,.F.);
#644=ORIENTED_EDGE('',*,*,#456,.F.);
#645=ORIENTED_EDGE('',*,*,#455,.F.);
#646=ORIENTED_EDGE('',*,*,#454,.F.);
#647=ORIENTED_EDGE('',*,*,#453,.F.);
#648=ORIENTED_EDGE('',*,*,#462,.F.);
#649=ORIENTED_EDGE('',*,*,#420,.T.);
#650=ORIENTED_EDGE('',*,*,#470,.T.);
#651=ORIENTED_EDGE('',*,*,#443,.T.);
#652=ORIENTED_EDGE('',*,*,#459,.T.);
#653=ORIENTED_EDGE('',*,*,#470,.F.);
#654=ORIENTED_EDGE('',*,*,#419,.F.);
#655=ORIENTED_EDGE('',*,*,#471,.F.);
#656=ORIENTED_EDGE('',*,*,#444,.F.);
#657=ORIENTED_EDGE('',*,*,#445,.T.);
#658=ORIENTED_EDGE('',*,*,#471,.T.);
#659=ORIENTED_EDGE('',*,*,#418,.T.);
#660=ORIENTED_EDGE('',*,*,#382,.T.);
#661=ORIENTED_EDGE('',*,*,#464,.T.);
#662=ORIENTED_EDGE('',*,*,#472,.T.);
#663=ORIENTED_EDGE('',*,*,#387,.F.);
#664=ORIENTED_EDGE('',*,*,#472,.F.);
#665=ORIENTED_EDGE('',*,*,#429,.T.);
#666=ORIENTED_EDGE('',*,*,#473,.T.);
#667=ORIENTED_EDGE('',*,*,#474,.F.);
#668=ORIENTED_EDGE('',*,*,#473,.F.);
#669=ORIENTED_EDGE('',*,*,#391,.F.);
#670=ORIENTED_EDGE('',*,*,#475,.F.);
#671=ORIENTED_EDGE('',*,*,#476,.F.);
#672=ORIENTED_EDGE('',*,*,#477,.F.);
#673=ORIENTED_EDGE('',*,*,#389,.F.);
#674=ORIENTED_EDGE('',*,*,#478,.F.);
#675=ORIENTED_EDGE('',*,*,#479,.F.);
#676=ORIENTED_EDGE('',*,*,#480,.F.);
#677=ORIENTED_EDGE('',*,*,#388,.F.);
#678=ORIENTED_EDGE('',*,*,#477,.T.);
#679=ORIENTED_EDGE('',*,*,#481,.F.);
#680=ORIENTED_EDGE('',*,*,#478,.T.);
#681=ORIENTED_EDGE('',*,*,#474,.T.);
#682=ORIENTED_EDGE('',*,*,#390,.T.);
#683=ORIENTED_EDGE('',*,*,#480,.T.);
#684=ORIENTED_EDGE('',*,*,#482,.F.);
#685=ORIENTED_EDGE('',*,*,#475,.T.);
#686=ORIENTED_EDGE('',*,*,#416,.T.);
#687=ORIENTED_EDGE('',*,*,#482,.T.);
#688=ORIENTED_EDGE('',*,*,#479,.T.);
#689=ORIENTED_EDGE('',*,*,#481,.T.);
#690=ORIENTED_EDGE('',*,*,#476,.T.);
#691=PLANE('',#764);
#692=PLANE('',#766);
#693=PLANE('',#767);
#694=PLANE('',#773);
#695=PLANE('',#774);
#696=PLANE('',#784);
#697=PLANE('',#794);
#698=PLANE('',#797);
#699=PLANE('',#800);
#700=PLANE('',#807);
#701=PLANE('',#810);
#702=PLANE('',#816);
#703=PLANE('',#820);
#704=PLANE('',#826);
#705=PLANE('',#829);
#706=PLANE('',#834);
#707=PLANE('',#835);
#708=PLANE('',#836);
#709=PLANE('',#837);
#710=PLANE('',#838);
#711=ADVANCED_FACE('',(#82,#34,#35),#691,.F.);
#712=ADVANCED_FACE('',(#83),#692,.F.);
#713=ADVANCED_FACE('',(#84,#36),#693,.F.);
#714=ADVANCED_FACE('',(#85),#694,.T.);
#715=ADVANCED_FACE('',(#86,#37),#695,.T.);
#716=ADVANCED_FACE('',(#87),#16,.F.);
#717=ADVANCED_FACE('',(#88),#17,.F.);
#718=ADVANCED_FACE('',(#89,#38,#39),#696,.T.);
#719=ADVANCED_FACE('',(#90),#18,.T.);
#720=ADVANCED_FACE('',(#91),#697,.F.);
#721=ADVANCED_FACE('',(#92),#19,.T.);
#722=ADVANCED_FACE('',(#93),#20,.F.);
#723=ADVANCED_FACE('',(#94),#698,.T.);
#724=ADVANCED_FACE('',(#95),#21,.T.);
#725=ADVANCED_FACE('',(#96,#40,#41),#699,.T.);
#726=ADVANCED_FACE('',(#97),#700,.T.);
#727=ADVANCED_FACE('',(#98),#22,.F.);
#728=ADVANCED_FACE('',(#99),#23,.T.);
#729=ADVANCED_FACE('',(#100),#701,.T.);
#730=ADVANCED_FACE('',(#101),#24,.T.);
#731=ADVANCED_FACE('',(#102),#25,.F.);
#732=ADVANCED_FACE('',(#103),#26,.T.);
#733=ADVANCED_FACE('',(#104,#42),#702,.F.);
#734=ADVANCED_FACE('',(#105),#27,.F.);
#735=ADVANCED_FACE('',(#106),#703,.F.);
#736=ADVANCED_FACE('',(#107),#15,.F.);
#737=ADVANCED_FACE('',(#108),#28,.F.);
#738=ADVANCED_FACE('',(#109),#704,.F.);
#739=ADVANCED_FACE('',(#110,#43),#29,.F.);
#740=ADVANCED_FACE('',(#111),#30,.T.);
#741=ADVANCED_FACE('',(#112),#705,.T.);
#742=ADVANCED_FACE('',(#113),#31,.T.);
#743=ADVANCED_FACE('',(#114),#32,.F.);
#744=ADVANCED_FACE('',(#115),#33,.F.);
#745=ADVANCED_FACE('',(#116),#706,.F.);
#746=ADVANCED_FACE('',(#117),#707,.F.);
#747=ADVANCED_FACE('',(#118,#44),#708,.T.);
#748=ADVANCED_FACE('',(#119,#45),#709,.F.);
#749=ADVANCED_FACE('',(#120),#710,.F.);
#750=CLOSED_SHELL('',(#711,#712,#713,#714,#715,#716,#717,#718,#719,#720,
#721,#722,#723,#724,#725,#726,#727,#728,#729,#730,#731,#732,#733,#734,#735,
#736,#737,#738,#739,#740,#741,#742,#743,#744,#745,#746,#747,#748,#749));
#751=DERIVED_UNIT_ELEMENT(#753,1.);
#752=DERIVED_UNIT_ELEMENT(#1279,-3.);
#753=(
MASS_UNIT()
NAMED_UNIT(*)
SI_UNIT(.KILO.,.GRAM.)
);
#754=DERIVED_UNIT((#751,#752));
#755=MEASURE_REPRESENTATION_ITEM('density measure',
POSITIVE_RATIO_MEASURE(7850.),#754);
#756=PROPERTY_DEFINITION_REPRESENTATION(#761,#758);
#757=PROPERTY_DEFINITION_REPRESENTATION(#762,#759);
#758=REPRESENTATION('material name',(#760),#1276);
#759=REPRESENTATION('density',(#755),#1276);
#760=DESCRIPTIVE_REPRESENTATION_ITEM('Steel','Steel');
#761=PROPERTY_DEFINITION('material property','material name',#1286);
#762=PROPERTY_DEFINITION('material property','density of part',#1286);
#763=AXIS2_PLACEMENT_3D('',#1059,#839,#840);
#764=AXIS2_PLACEMENT_3D('',#1060,#841,#842);
#765=AXIS2_PLACEMENT_3D('',#1078,#851,#852);
#766=AXIS2_PLACEMENT_3D('',#1087,#857,#858);
#767=AXIS2_PLACEMENT_3D('',#1096,#863,#864);
#768=AXIS2_PLACEMENT_3D('',#1099,#866,#867);
#769=AXIS2_PLACEMENT_3D('',#1105,#870,#871);
#770=AXIS2_PLACEMENT_3D('',#1109,#873,#874);
#771=AXIS2_PLACEMENT_3D('',#1110,#875,#876);
#772=AXIS2_PLACEMENT_3D('',#1112,#877,#878);
#773=AXIS2_PLACEMENT_3D('',#1113,#879,#880);
#774=AXIS2_PLACEMENT_3D('',#1115,#882,#883);
#775=AXIS2_PLACEMENT_3D('',#1117,#884,#885);
#776=AXIS2_PLACEMENT_3D('',#1119,#886,#887);
#777=AXIS2_PLACEMENT_3D('',#1123,#889,#890);
#778=AXIS2_PLACEMENT_3D('',#1128,#893,#894);
#779=AXIS2_PLACEMENT_3D('',#1130,#895,#896);
#780=AXIS2_PLACEMENT_3D('',#1131,#897,#898);
#781=AXIS2_PLACEMENT_3D('',#1133,#899,#900);
#782=AXIS2_PLACEMENT_3D('',#1135,#902,#903);
#783=AXIS2_PLACEMENT_3D('',#1137,#904,#905);
#784=AXIS2_PLACEMENT_3D('',#1139,#907,#908);
#785=AXIS2_PLACEMENT_3D('',#1141,#909,#910);
#786=AXIS2_PLACEMENT_3D('',#1145,#912,#913);
#787=AXIS2_PLACEMENT_3D('',#1149,#915,#916);
#788=AXIS2_PLACEMENT_3D('',#1153,#918,#919);
#789=AXIS2_PLACEMENT_3D('',#1157,#921,#922);
#790=AXIS2_PLACEMENT_3D('',#1158,#923,#924);
#791=AXIS2_PLACEMENT_3D('',#1160,#925,#926);
#792=AXIS2_PLACEMENT_3D('',#1162,#927,#928);
#793=AXIS2_PLACEMENT_3D('',#1163,#929,#930);
#794=AXIS2_PLACEMENT_3D('',#1165,#932,#933);
#795=AXIS2_PLACEMENT_3D('',#1167,#935,#936);
#796=AXIS2_PLACEMENT_3D('',#1170,#939,#940);
#797=AXIS2_PLACEMENT_3D('',#1171,#941,#942);
#798=AXIS2_PLACEMENT_3D('',#1173,#944,#945);
#799=AXIS2_PLACEMENT_3D('',#1176,#946,#947);
#800=AXIS2_PLACEMENT_3D('',#1179,#950,#951);
#801=AXIS2_PLACEMENT_3D('',#1183,#953,#954);
#802=AXIS2_PLACEMENT_3D('',#1187,#956,#957);
#803=AXIS2_PLACEMENT_3D('',#1191,#959,#960);
#804=AXIS2_PLACEMENT_3D('',#1194,#962,#963);
#805=AXIS2_PLACEMENT_3D('',#1195,#964,#965);
#806=AXIS2_PLACEMENT_3D('',#1197,#966,#967);
#807=AXIS2_PLACEMENT_3D('',#1198,#968,#969);
#808=AXIS2_PLACEMENT_3D('',#1200,#971,#972);
#809=AXIS2_PLACEMENT_3D('',#1201,#973,#974);
#810=AXIS2_PLACEMENT_3D('',#1203,#976,#977);
#811=AXIS2_PLACEMENT_3D('',#1206,#980,#981);
#812=AXIS2_PLACEMENT_3D('',#1207,#982,#983);
#813=AXIS2_PLACEMENT_3D('',#1210,#984,#985);
#814=AXIS2_PLACEMENT_3D('',#1216,#988,#989);
#815=AXIS2_PLACEMENT_3D('',#1220,#992,#993);
#816=AXIS2_PLACEMENT_3D('',#1222,#995,#996);
#817=AXIS2_PLACEMENT_3D('',#1225,#998,#999);
#818=AXIS2_PLACEMENT_3D('',#1226,#1000,#1001);
#819=AXIS2_PLACEMENT_3D('',#1229,#1002,#1003);
#820=AXIS2_PLACEMENT_3D('',#1232,#1006,#1007);
#821=AXIS2_PLACEMENT_3D('',#1234,#1008,#1009);
#822=AXIS2_PLACEMENT_3D('',#1235,#1010,#1011);
#823=AXIS2_PLACEMENT_3D('',#1237,#1012,#1013);
#824=AXIS2_PLACEMENT_3D('',#1239,#1015,#1016);
#825=AXIS2_PLACEMENT_3D('',#1242,#1018,#1019);
#826=AXIS2_PLACEMENT_3D('',#1243,#1020,#1021);
#827=AXIS2_PLACEMENT_3D('',#1244,#1022,#1023);
#828=AXIS2_PLACEMENT_3D('',#1246,#1025,#1026);
#829=AXIS2_PLACEMENT_3D('',#1248,#1028,#1029);
#830=AXIS2_PLACEMENT_3D('',#1250,#1031,#1032);
#831=AXIS2_PLACEMENT_3D('',#1251,#1033,#1034);
#832=AXIS2_PLACEMENT_3D('',#1253,#1036,#1037);
#833=AXIS2_PLACEMENT_3D('',#1256,#1039,#1040);
#834=AXIS2_PLACEMENT_3D('',#1257,#1041,#1042);
#835=AXIS2_PLACEMENT_3D('',#1263,#1046,#1047);
#836=AXIS2_PLACEMENT_3D('',#1269,#1051,#1052);
#837=AXIS2_PLACEMENT_3D('',#1271,#1054,#1055);
#838=AXIS2_PLACEMENT_3D('',#1273,#1057,#1058);
#839=DIRECTION('axis',(0.,0.,1.));
#840=DIRECTION('refdir',(1.,0.,0.));
#841=DIRECTION('center_axis',(7.78169341898304E-14,1.88318497879226E-27,
-1.));
#842=DIRECTION('ref_axis',(-1.,3.70585334036686E-14,-7.78169341898304E-14));
#843=DIRECTION('',(9.65411325761006E-15,1.,0.));
#844=DIRECTION('',(1.,-4.00796949932311E-14,7.78169341898304E-14));
#845=DIRECTION('',(-9.24157264340542E-15,-1.,-2.60233582899467E-27));
#846=DIRECTION('',(-1.,-2.57994536541749E-27,-7.78169341898304E-14));
#847=DIRECTION('',(-3.7058533403663E-14,-1.,-7.10542735760148E-14));
#848=DIRECTION('',(1.,0.,0.));
#849=DIRECTION('',(1.40851338958105E-14,1.,2.97924691621747E-27));
#850=DIRECTION('',(1.,-1.33737755449986E-14,7.78169341898304E-14));
#851=DIRECTION('center_axis',(7.78169341898304E-14,1.88318497879226E-27,
-1.));
#852=DIRECTION('ref_axis',(-1.,3.71140445549019E-14,6.17539603344743E-14));
#853=DIRECTION('',(-3.70585334036686E-14,-1.,-4.76696643383717E-27));
#854=DIRECTION('',(-1.,3.70585334036686E-14,-7.78169341898304E-14));
#855=DIRECTION('',(-9.36403732379235E-15,-1.,-2.61186565496892E-27));
#856=DIRECTION('',(1.,-3.70585334036686E-14,7.78169341898304E-14));
#857=DIRECTION('center_axis',(7.78169341898312E-14,2.83270139369203E-16,
-1.));
#858=DIRECTION('ref_axis',(1.,-8.80009206512114E-15,7.78169341898312E-14));
#859=DIRECTION('',(-9.65411325761007E-15,-1.,-2.83270139369954E-16));
#860=DIRECTION('',(1.,-1.33737755449994E-14,7.78169341898312E-14));
#861=DIRECTION('',(1.57246516629739E-32,1.,2.83270139369203E-16));
#862=DIRECTION('',(-1.,0.,0.));
#863=DIRECTION('center_axis',(-1.,9.24157264387749E-15,6.13132611855687E-14));
#864=DIRECTION('ref_axis',(6.13132611855682E-14,-4.68395492316258E-14,1.));
#865=DIRECTION('',(3.68202440756642E-14,-0.70710678118654,0.707106781186555));
#866=DIRECTION('center_axis',(-1.,5.43380909436705E-22,5.55111516448229E-17));
#867=DIRECTION('ref_axis',(0.,-8.32666961989562E-17,1.));
#868=DIRECTION('',(-5.43380909452429E-22,-1.,-2.83270139369203E-16));
#869=DIRECTION('',(5.55111516448229E-17,-8.32666961989562E-17,1.));
#870=DIRECTION('center_axis',(-1.,5.43380909436705E-22,5.55111516448229E-17));
#871=DIRECTION('ref_axis',(2.82616642563078E-14,0.707106781186542,0.707106781186553));
#872=DIRECTION('',(-5.43380909436705E-22,-1.,-8.32666961989562E-17));
#873=DIRECTION('center_axis',(-1.,5.43380909436705E-22,5.55111516448229E-17));
#874=DIRECTION('ref_axis',(0.,0.,-1.));
#875=DIRECTION('center_axis',(-1.,5.43380915747592E-22,5.55111516448229E-17));
#876=DIRECTION('ref_axis',(-5.55111516448228E-17,2.13246087424229E-13,-1.));
#877=DIRECTION('center_axis',(-1.,9.24157264387749E-15,6.13132611855687E-14));
#878=DIRECTION('ref_axis',(5.55111516447958E-17,-8.32666961989562E-17,1.));
#879=DIRECTION('center_axis',(-4.55681944788403E-14,0.707106781186555,0.70710678118654));
#880=DIRECTION('ref_axis',(1.,0.,6.44431586448315E-14));
#881=DIRECTION('',(-3.33953290693302E-14,0.70710678118654,-0.707106781186555));
#882=DIRECTION('center_axis',(-1.,1.40851338958105E-14,6.13132611855689E-14));
#883=DIRECTION('ref_axis',(-1.40851338958133E-14,-1.,-4.68395492316249E-14));
#884=DIRECTION('center_axis',(1.,-5.43380922058479E-22,-5.55111516447976E-17));
#885=DIRECTION('ref_axis',(0.,0.765986092485515,-0.642857142854283));
#886=DIRECTION('center_axis',(-1.,5.43380922058479E-22,5.55111516447976E-17));
#887=DIRECTION('ref_axis',(0.,-0.765986092485312,0.642857142854525));
#888=DIRECTION('',(5.43379842896761E-22,1.,-2.26685691519159E-13));
#889=DIRECTION('center_axis',(1.,-5.43380922058479E-22,-5.55111516447976E-17));
#890=DIRECTION('ref_axis',(2.82616642563077E-14,0.707106781186543,0.707106781186552));
#891=DIRECTION('',(-5.55111516448229E-17,-4.82549534950499E-13,-1.));
#892=DIRECTION('',(5.43380922074204E-22,1.,2.83270139369203E-16));
#893=DIRECTION('center_axis',(1.,-5.43380922058479E-22,-5.55111516447976E-17));
#894=DIRECTION('ref_axis',(0.,-8.32666961989562E-17,1.));
#895=DIRECTION('center_axis',(1.,-1.40851338958105E-14,-6.13132611855689E-14));
#896=DIRECTION('ref_axis',(7.47939721852739E-14,1.33018596137872E-14,1.));
#897=DIRECTION('center_axis',(1.,-5.43380909436705E-22,-5.55111516448229E-17));
#898=DIRECTION('ref_axis',(5.55111516447958E-17,-8.32666961989562E-17,1.));
#899=DIRECTION('center_axis',(1.,-9.24157264340542E-15,-6.12022388831143E-14));
#900=DIRECTION('ref_axis',(5.55111516447958E-17,-8.32666961989562E-17,1.));
#901=DIRECTION('',(1.,-5.43380909436705E-22,-5.55111516448229E-17));
#902=DIRECTION('center_axis',(1.,-1.40238697847388E-14,-7.47939721852737E-14));
#903=DIRECTION('ref_axis',(7.47939721852739E-14,1.33018596137872E-14,1.));
#904=DIRECTION('center_axis',(-1.,9.36403732379235E-15,5.55111516356595E-17));
#905=DIRECTION('ref_axis',(7.47939721852739E-14,1.33018596137872E-14,1.));
#906=DIRECTION('',(-1.,1.40238697847388E-14,7.47939721852737E-14));
#907=DIRECTION('center_axis',(1.,-1.40851338953384E-14,-6.12022388831146E-14));
#908=DIRECTION('ref_axis',(-1.40851338953413E-14,-1.,-4.67285269291535E-14));
#909=DIRECTION('center_axis',(-1.,1.40851338953384E-14,6.12022388831146E-14));
#910=DIRECTION('ref_axis',(-5.44298719010378E-14,-0.707106781186551,0.707106781186544));
#911=DIRECTION('',(6.1202238883115E-14,3.31540350731866E-14,1.));
#912=DIRECTION('center_axis',(-1.,1.40851338953384E-14,6.12022388831146E-14));
#913=DIRECTION('ref_axis',(-4.34392246902524E-14,-0.707106781186534,-0.707106781186561));
#914=DIRECTION('',(1.40851338953413E-14,1.,4.67285269291535E-14));
#915=DIRECTION('center_axis',(-1.,1.40851338953384E-14,6.12022388831146E-14));
#916=DIRECTION('ref_axis',(-1.57009245868373E-14,0.707106781186559,-0.707106781186536));
#917=DIRECTION('',(-6.12577470311286E-14,5.60038506923034E-27,-1.));
#918=DIRECTION('center_axis',(-1.,1.40851338953384E-14,6.12022388831146E-14));
#919=DIRECTION('ref_axis',(2.82616642563077E-14,0.707106781186543,0.707106781186552));
#920=DIRECTION('',(-4.00796949932311E-14,-1.,-2.7117093616992E-31));
#921=DIRECTION('center_axis',(1.,-1.40851338953384E-14,-6.12022388831146E-14));
#922=DIRECTION('ref_axis',(0.,-0.765986092485312,0.642857142854525));
#923=DIRECTION('center_axis',(-1.,1.40851338953384E-14,6.12022388831146E-14));
#924=DIRECTION('ref_axis',(0.,0.765986092485515,-0.642857142854283));
#925=DIRECTION('center_axis',(1.,-1.40851338953384E-14,-6.12022388831146E-14));
#926=DIRECTION('ref_axis',(6.12022388830221E-14,-8.32667778729031E-17,1.));
#927=DIRECTION('center_axis',(1.,-1.40851338953384E-14,-6.12022388831146E-14));
#928=DIRECTION('ref_axis',(1.23855270770242E-28,1.33018596137896E-14,1.));
#929=DIRECTION('center_axis',(-1.,0.,0.));
#930=DIRECTION('ref_axis',(0.,-8.32666961989562E-17,1.));
#931=DIRECTION('',(1.,0.,0.));
#932=DIRECTION('center_axis',(7.78169341898312E-14,2.83270139369203E-16,
-1.));
#933=DIRECTION('ref_axis',(1.,-8.80009206512114E-15,7.78169341898312E-14));
#934=DIRECTION('',(1.,0.,7.78169341898312E-14));
#935=DIRECTION('center_axis',(1.,0.,0.));
#936=DIRECTION('ref_axis',(0.,-0.765986092485312,0.642857142854525));
#937=DIRECTION('',(1.,0.,0.));
#938=DIRECTION('',(-1.,0.,0.));
#939=DIRECTION('center_axis',(1.,0.,0.));
#940=DIRECTION('ref_axis',(0.,0.765986092485515,-0.642857142854283));
#941=DIRECTION('center_axis',(0.,0.,1.));
#942=DIRECTION('ref_axis',(1.,0.,0.));
#943=DIRECTION('',(1.,-4.00796949932311E-14,0.));
#944=DIRECTION('center_axis',(1.,-1.05323330602953E-13,0.));
#945=DIRECTION('ref_axis',(0.,0.,-1.));
#946=DIRECTION('center_axis',(1.,-9.24157264340542E-15,-6.12022388831143E-14));
#947=DIRECTION('ref_axis',(0.,0.,-1.));
#948=DIRECTION('',(1.,-1.05323330602953E-13,0.));
#949=DIRECTION('',(-1.,1.05323330602953E-13,0.));
#950=DIRECTION('center_axis',(-1.,9.24157264340542E-15,6.12022388831143E-14));
#951=DIRECTION('ref_axis',(6.12022388831139E-14,-4.67285269291544E-14,1.));
#952=DIRECTION('',(-4.00796949932311E-14,-1.,-2.7117093616992E-31));
#953=DIRECTION('center_axis',(1.,-9.24157264340542E-15,-6.12022388831143E-14));
#954=DIRECTION('ref_axis',(2.82616642563078E-14,0.707106781186542,0.707106781186553));
#955=DIRECTION('',(6.12022388831143E-14,-5.59990457820977E-27,1.));
#956=DIRECTION('center_axis',(1.,-9.24157264340542E-15,-6.12022388831143E-14));
#957=DIRECTION('ref_axis',(-1.57009245868373E-14,0.707106781186559,-0.707106781186536));
#958=DIRECTION('',(-9.24157264340828E-15,-1.,-4.67285269291538E-14));
#959=DIRECTION('center_axis',(1.,-9.24157264340542E-15,-6.12022388831143E-14));
#960=DIRECTION('ref_axis',(-4.34392246902524E-14,-0.707106781186534,-0.707106781186561));
#961=DIRECTION('',(-6.12022388831146E-14,-3.31540350731866E-14,-1.));
#962=DIRECTION('center_axis',(1.,-9.24157264340542E-15,-6.12022388831143E-14));
#963=DIRECTION('ref_axis',(-5.44298719010378E-14,-0.707106781186551,0.707106781186544));
#964=DIRECTION('center_axis',(-1.,9.24157264340542E-15,6.12022388831143E-14));
#965=DIRECTION('ref_axis',(8.32149003102395E-14,0.707106781186542,-0.707106781186553));
#966=DIRECTION('center_axis',(1.,-9.24157264340542E-15,-6.12022388831143E-14));
#967=DIRECTION('ref_axis',(6.12022388830221E-14,-8.32667778729031E-17,1.));
#968=DIRECTION('center_axis',(0.,0.,1.));
#969=DIRECTION('ref_axis',(1.,0.,0.));
#970=DIRECTION('',(1.,-4.00796949932311E-14,0.));
#971=DIRECTION('center_axis',(-1.,4.00796949932311E-14,-7.78169341898304E-14));
#972=DIRECTION('ref_axis',(8.32149003102395E-14,0.707106781186542,-0.707106781186553));
#973=DIRECTION('center_axis',(1.,-4.00796949932311E-14,0.));
#974=DIRECTION('ref_axis',(2.82616642563077E-14,0.707106781186543,0.707106781186552));
#975=DIRECTION('',(-1.,4.00796949932311E-14,0.));
#976=DIRECTION('center_axis',(4.00796949932311E-14,1.,0.));
#977=DIRECTION('ref_axis',(-1.,4.00796949932311E-14,-2.77679038637796E-28));
#978=DIRECTION('',(1.,-4.00796949932311E-14,-6.12022388831158E-14));
#979=DIRECTION('',(-1.,4.00796949932311E-14,0.));
#980=DIRECTION('center_axis',(-1.,4.00796949932311E-14,0.));
#981=DIRECTION('ref_axis',(2.82616642563078E-14,0.707106781186542,0.707106781186553));
#982=DIRECTION('center_axis',(-1.,0.,0.));
#983=DIRECTION('ref_axis',(0.,-0.980186109855815,0.198078747082375));
#984=DIRECTION('center_axis',(1.,-1.40851338958105E-14,-6.13132611855689E-14));
#985=DIRECTION('ref_axis',(6.13132611855879E-14,-8.32667778729026E-17,1.));
#986=DIRECTION('',(-1.,-3.67688559337841E-10,-6.26949472729033E-14));
#987=DIRECTION('',(-1.,-3.67688559337841E-10,-6.26949472729033E-14));
#988=DIRECTION('center_axis',(-1.,9.24157264387749E-15,6.13132611855687E-14));
#989=DIRECTION('ref_axis',(6.13132611855879E-14,-8.32667778729026E-17,1.));
#990=DIRECTION('',(1.,-3.6767876325233E-10,6.26949472729033E-14));
#991=DIRECTION('',(1.,-3.6767876325233E-10,6.26949472729033E-14));
#992=DIRECTION('center_axis',(-1.,4.00796949932311E-14,6.12022388831158E-14));
#993=DIRECTION('ref_axis',(-1.57009245868373E-14,0.707106781186559,-0.707106781186536));
#994=DIRECTION('',(-1.,4.00796949932311E-14,6.12022388831158E-14));
#995=DIRECTION('center_axis',(6.12022388831139E-14,-4.67285269291544E-14,
1.));
#996=DIRECTION('ref_axis',(1.40851338953413E-14,1.,4.67285269291535E-14));
#997=DIRECTION('',(1.,-2.0291011744883E-27,-6.12022388831139E-14));
#998=DIRECTION('center_axis',(-6.12022388831139E-14,4.67285269291544E-14,
-1.));
#999=DIRECTION('ref_axis',(2.40195537744975E-25,1.,4.67285269291544E-14));
#1000=DIRECTION('center_axis',(-1.,1.11022302462516E-14,0.));
#1001=DIRECTION('ref_axis',(0.,-8.32667778722218E-17,1.));
#1002=DIRECTION('center_axis',(1.,-1.40851338958105E-14,-6.13132611855689E-14));
#1003=DIRECTION('ref_axis',(6.13132611855879E-14,-8.32667778729026E-17,
1.));
#1004=DIRECTION('',(-1.,-3.67688559337841E-10,-6.26949472729033E-14));
#1005=DIRECTION('',(1.,-3.6767876325233E-10,6.26949472729033E-14));
#1006=DIRECTION('center_axis',(-3.77303022705064E-21,-5.3769032085373E-30,
-1.));
#1007=DIRECTION('ref_axis',(-1.,4.00796954773889E-14,3.77303022705064E-21));
#1008=DIRECTION('center_axis',(-3.77303022705064E-21,-5.3769032085373E-30,
-1.));
#1009=DIRECTION('ref_axis',(-1.,3.71140445549019E-14,6.17539603344743E-14));
#1010=DIRECTION('center_axis',(-6.21724893790079E-14,4.88498130835062E-14,
-1.));
#1011=DIRECTION('ref_axis',(2.40192913395753E-25,1.,4.66856469746037E-14));
#1012=DIRECTION('center_axis',(6.12022388831139E-14,-4.67285269291544E-14,
1.));
#1013=DIRECTION('ref_axis',(2.401894689374E-25,1.,4.66293670342559E-14));
#1014=DIRECTION('',(-4.38759932376918E-14,-0.707106781186508,-0.707106781186587));
#1015=DIRECTION('center_axis',(6.10622663543827E-14,-4.66293670342559E-14,
1.));
#1016=DIRECTION('ref_axis',(2.401894689374E-25,1.,4.66293670342559E-14));
#1017=DIRECTION('',(6.10622663543827E-14,-4.66293670342559E-14,1.));
#1018=DIRECTION('center_axis',(-6.12022388861465E-14,4.68129953275074E-14,
-1.));
#1019=DIRECTION('ref_axis',(2.401894689374E-25,1.,4.66293670342559E-14));
#1020=DIRECTION('center_axis',(6.12022388861465E-14,-4.68129953275074E-14,
1.));
#1021=DIRECTION('ref_axis',(1.,-4.00796949932311E-14,-6.12022388861484E-14));
#1022=DIRECTION('center_axis',(1.,4.81096644004235E-15,-1.8194015183326E-9));
#1023=DIRECTION('ref_axis',(1.8194015183326E-9,-8.32667691201179E-17,1.));
#1024=DIRECTION('',(1.,4.81096644004235E-15,-1.8194015183326E-9));
#1025=DIRECTION('center_axis',(1.,-2.0291011744883E-27,-6.12022388831139E-14));
#1026=DIRECTION('ref_axis',(-4.34392246902524E-14,-0.707106781186534,-0.707106781186561));
#1027=DIRECTION('',(-1.,2.0291011744883E-27,6.12022388831139E-14));
#1028=DIRECTION('center_axis',(0.,-1.,3.31540350731866E-14));
#1029=DIRECTION('ref_axis',(-5.55111512271053E-17,-3.31540350731866E-14,
-1.));
#1030=DIRECTION('',(1.,2.57994536541749E-27,7.78169341898304E-14));
#1031=DIRECTION('center_axis',(-1.,-2.57994536541749E-27,-7.78169341898304E-14));
#1032=DIRECTION('ref_axis',(-5.44298719010378E-14,-0.707106781186551,0.707106781186544));
#1033=DIRECTION('center_axis',(6.17539603344725E-14,-4.80508490140027E-14,
1.));
#1034=DIRECTION('ref_axis',(-1.,3.71140445549019E-14,6.17539603344743E-14));
#1035=DIRECTION('',(6.17539603344725E-14,-4.80508490140027E-14,1.));
#1036=DIRECTION('center_axis',(1.,-9.31154794846905E-15,0.));
#1037=DIRECTION('ref_axis',(1.23855270770242E-28,1.33018596137896E-14,1.));
#1038=DIRECTION('',(-1.,9.31154794846905E-15,0.));
#1039=DIRECTION('center_axis',(-1.,9.36403732402837E-15,1.11022302862891E-16));
#1040=DIRECTION('ref_axis',(9.86117218031702E-29,1.33018596137896E-14,1.));
#1041=DIRECTION('center_axis',(3.70585334036686E-14,1.,4.76696319073413E-27));
#1042=DIRECTION('ref_axis',(-1.,3.70585334036686E-14,-7.78169341898304E-14));
#1043=DIRECTION('',(1.11022302862891E-16,-5.55111511350147E-17,1.));
#1044=DIRECTION('',(-1.,7.88373995762562E-15,5.55111516356847E-17));
#1045=DIRECTION('',(-1.66533454090122E-16,1.66533453606421E-16,-1.));
#1046=DIRECTION('center_axis',(-3.70585334036686E-14,-1.,-4.76696319073413E-27));
#1047=DIRECTION('ref_axis',(1.,-3.70585334036686E-14,7.78169341898304E-14));
#1048=DIRECTION('',(1.66533454090122E-16,-1.66533453606421E-16,1.));
#1049=DIRECTION('',(1.,1.03109823134359E-14,6.70714946259247E-15));
#1050=DIRECTION('',(-1.11022302862891E-16,5.55111511350147E-17,-1.));
#1051=DIRECTION('center_axis',(-1.,9.36403732402837E-15,1.11022302862891E-16));
#1052=DIRECTION('ref_axis',(-1.11022302862891E-16,1.11022302370718E-16,
-1.));
#1053=DIRECTION('',(3.70585334036686E-14,1.,4.76696319073414E-27));
#1054=DIRECTION('center_axis',(-1.,9.36403732379235E-15,5.55111516356595E-17));
#1055=DIRECTION('ref_axis',(-5.55111516356595E-17,5.55111511350143E-17,
-1.));
#1056=DIRECTION('',(-3.70585334036686E-14,-1.,-4.76696319073414E-27));
#1057=DIRECTION('center_axis',(-4.08453244061715E-25,-1.00689203454968E-25,
-1.));
#1058=DIRECTION('ref_axis',(-9.36403732355631E-15,-1.,1.00689206698075E-25));
#1059=CARTESIAN_POINT('',(0.,0.,0.));
#1060=CARTESIAN_POINT('Origin',(19.3870496471619,-6.03060880015136,459.787864865401));
#1061=CARTESIAN_POINT('',(9.53604964716204,-24.7806088001455,459.7878648654));
#1062=CARTESIAN_POINT('',(9.53604964716405,-1.26014880504684,459.7878648654));
#1063=CARTESIAN_POINT('',(9.5360496471623,-5.23014880504641,459.7878648654));
#1064=CARTESIAN_POINT('',(6.03404964715922,-1.26014880505377,459.7878648654));
#1065=CARTESIAN_POINT('',(12.7105496471619,-1.26014880505404,459.7878648654));
#1066=CARTESIAN_POINT('',(6.03404964715888,-37.7301488001035,459.7878648654));
#1067=CARTESIAN_POINT('',(6.03404964715916,-7.53060880015532,459.7878648654));
#1068=CARTESIAN_POINT('',(26.0340496471629,-37.7301488001035,459.787864865392));
#1069=CARTESIAN_POINT('',(12.7105496471608,-37.7301488001035,459.7878648654));
#1070=CARTESIAN_POINT('',(26.0340496471769,-1.26014880504769,459.7878648654));
#1071=CARTESIAN_POINT('',(26.0340496471629,-37.6906088001118,459.787864865392));
#1072=CARTESIAN_POINT('',(14.7360496471769,-1.26014880504769,459.7878648654));
#1073=CARTESIAN_POINT('',(13.5360496471769,-1.26014880504769,459.7878648654));
#1074=CARTESIAN_POINT('',(14.736049647162,-24.7806088001455,459.7878648654));
#1075=CARTESIAN_POINT('',(14.7360496471622,2.46939119984977,459.7878648654));
#1076=CARTESIAN_POINT('',(16.6370496471616,-24.7806088001464,459.787864865401));
#1077=CARTESIAN_POINT('',(13.8360496471528,-29.0402164370808,459.7878648654));
#1078=CARTESIAN_POINT('Origin',(11.9360496471528,-29.0402164370807,459.7878648654));
#1079=CARTESIAN_POINT('',(19.4870496471661,-6.18060880013715,459.787864865405));
#1080=CARTESIAN_POINT('',(19.4870496471661,-11.8806088001372,459.787864865405));
#1081=CARTESIAN_POINT('',(19.4870496471648,-6.15560880014623,459.787864865401));
#1082=CARTESIAN_POINT('',(17.4870496471647,-11.8806088001409,459.787864865403));
#1083=CARTESIAN_POINT('',(18.6370496471616,-11.8806088001374,459.787864865401));
#1084=CARTESIAN_POINT('',(17.4870496471647,-6.18060880014085,459.787864865403));
#1085=CARTESIAN_POINT('',(17.487049647162,-9.03685880015047,459.787864865401));
#1086=CARTESIAN_POINT('',(18.6370496471619,-6.18060880013732,459.787864865401));
#1087=CARTESIAN_POINT('Origin',(10.1870496471633,3.16939119494464,448.537864865391));
#1088=CARTESIAN_POINT('',(9.53604964716405,3.50272406563932,448.537864865391));
#1089=CARTESIAN_POINT('',(9.53604964716143,-13.5306088001376,448.537864865391));
#1090=CARTESIAN_POINT('',(9.53604964716149,-1.03037880505088,448.537864865391));
#1091=CARTESIAN_POINT('',(14.7360496471614,-13.5306088001377,448.537864865392));
#1092=CARTESIAN_POINT('',(13.4120496471629,-13.5306088001377,448.537864865391));
#1093=CARTESIAN_POINT('',(14.736049647175,3.50272406563932,448.537864865391));
#1094=CARTESIAN_POINT('',(14.736049647175,0.719621194952169,448.537864865391));
#1095=CARTESIAN_POINT('',(13.7360496471769,3.50272406563932,448.537864865391));
#1096=CARTESIAN_POINT('Origin',(9.53604964716193,-9.03060880015034,457.037864865392));
#1097=CARTESIAN_POINT('',(9.53604964716168,-19.4681088001457,454.475364865399));
#1098=CARTESIAN_POINT('',(9.53604964716405,10.4568161726675,451.537864865391));
#1099=CARTESIAN_POINT('Origin',(9.53604964716405,6.46939119989582,451.220938870059));
#1100=CARTESIAN_POINT('',(9.53604964716405,12.2698511949457,451.537864865391));
#1101=CARTESIAN_POINT('',(9.53604964716405,4.33712119494871,451.537864865391));
#1102=CARTESIAN_POINT('',(9.53604964716405,12.2698511949457,462.787864865437));
#1103=CARTESIAN_POINT('',(9.53604964716405,12.2698511949457,451.537864865391));
#1104=CARTESIAN_POINT('',(9.53604964716405,10.2698511949458,464.787864865437));
#1105=CARTESIAN_POINT('Origin',(9.53604964716424,10.2698511949458,462.787864865437));
#1106=CARTESIAN_POINT('',(9.53604964716405,9.46365648974062,464.787864865437));
#1107=CARTESIAN_POINT('',(9.53604964716405,-1.26014880504641,464.787864865437));
#1108=CARTESIAN_POINT('',(9.53604964716405,0.271823379921169,460.502150579688));
#1109=CARTESIAN_POINT('Origin',(9.53604964716446,9.46365648974062,452.787864865437));
#1110=CARTESIAN_POINT('Origin',(9.53604964716405,-1.26014880504684,461.7878648654));
#1111=CARTESIAN_POINT('',(9.53604964716193,-9.03060880014039,454.387864865392));
#1112=CARTESIAN_POINT('Origin',(9.53604964716193,-9.03060880014039,455.787864865392));
#1113=CARTESIAN_POINT('Origin',(16.6370496471617,-23.4056088001464,458.412864865401));
#1114=CARTESIAN_POINT('',(14.7360496471613,-13.2181088001457,448.2253648654));
#1115=CARTESIAN_POINT('Origin',(14.7360496471619,10.96939119985,452.037864865393));
#1116=CARTESIAN_POINT('',(14.7360496471769,0.271823379923291,460.502150579691));
#1117=CARTESIAN_POINT('Origin',(14.736049647175,-1.26014880504769,461.7878648654));
#1118=CARTESIAN_POINT('',(14.7360496471769,9.46365648974705,464.787864865437));
#1119=CARTESIAN_POINT('Origin',(14.736049647175,9.46365648974719,452.787864865437));
#1120=CARTESIAN_POINT('',(14.736049647175,10.2698511949457,464.787864865437));
#1121=CARTESIAN_POINT('',(14.736049647175,2.26985119495311,464.787864865437));
#1122=CARTESIAN_POINT('',(14.736049647175,12.2698511949573,462.787864865437));
#1123=CARTESIAN_POINT('Origin',(14.7360496471752,10.2698511949457,462.787864865437));
#1124=CARTESIAN_POINT('',(14.736049647175,12.2698511949518,451.537864865391));
#1125=CARTESIAN_POINT('',(14.736049647175,12.2698511949518,451.537864865391));
#1126=CARTESIAN_POINT('',(14.7360496471769,10.4568161726675,451.537864865391));
#1127=CARTESIAN_POINT('',(14.736049647175,4.33712119495183,451.537864865391));
#1128=CARTESIAN_POINT('Origin',(14.736049647175,6.46939119989582,451.220938870059));
#1129=CARTESIAN_POINT('',(14.7360496471619,-9.03060880014639,454.487864865392));
#1130=CARTESIAN_POINT('Origin',(14.736049647162,-9.03060880014637,455.787864865392));
#1131=CARTESIAN_POINT('Origin',(8.28404964716078,-9.03060880014039,455.787864865392));
#1132=CARTESIAN_POINT('',(6.03404964715897,-9.03060880014039,454.387864865392));
#1133=CARTESIAN_POINT('Origin',(6.03404964715898,-9.03060880014039,455.787864865392));
#1134=CARTESIAN_POINT('',(8.28404964716078,-9.03060880014039,454.387864865392));
#1135=CARTESIAN_POINT('Origin',(13.5870496471632,-9.03060880014635,455.787864865392));
#1136=CARTESIAN_POINT('',(17.4870496471638,-9.03060880014611,454.487864865392));
#1137=CARTESIAN_POINT('Origin',(17.4870496471639,-9.0306088001461,455.787864865392));
#1138=CARTESIAN_POINT('',(13.5870496471631,-9.03060880014637,454.487864865392));
#1139=CARTESIAN_POINT('Origin',(26.0340496471589,-4.03060880015948,454.037864865388));
#1140=CARTESIAN_POINT('',(26.0340496471586,-40.7301488001035,456.787864865402));
#1141=CARTESIAN_POINT('Origin',(26.0340496471587,-37.7301488001035,456.787864865402));
#1142=CARTESIAN_POINT('',(26.0340496471581,-40.7301488001037,450.037864865386));
#1143=CARTESIAN_POINT('',(26.0340496471584,-40.7301488001036,454.152204365393));
#1144=CARTESIAN_POINT('',(26.034049647158,-37.7301488001036,447.037864865386));
#1145=CARTESIAN_POINT('Origin',(26.0340496471587,-37.7301488001037,450.037864865386));
#1146=CARTESIAN_POINT('',(26.0340496471587,10.2698511949453,447.037864865388));
#1147=CARTESIAN_POINT('',(26.0340496471584,-11.5306088001592,447.037864865387));
#1148=CARTESIAN_POINT('',(26.0340496471601,12.2698511949395,449.037864865389));
#1149=CARTESIAN_POINT('Origin',(26.0340496471592,10.2698511949452,449.037864865389));
#1150=CARTESIAN_POINT('',(26.0340496471609,12.2698511949395,462.787864865437));
#1151=CARTESIAN_POINT('',(26.0340496471606,12.2698511949395,456.53786486741));
#1152=CARTESIAN_POINT('',(26.0340496471655,10.2698511949452,464.787864865437));
#1153=CARTESIAN_POINT('Origin',(26.0340496471595,10.2698511949452,462.787864865437));
#1154=CARTESIAN_POINT('',(26.0340496471769,9.46365648974705,464.787864865437));
#1155=CARTESIAN_POINT('',(26.0340496471656,12.2698511949452,464.787864865437));
#1156=CARTESIAN_POINT('',(26.0340496471769,0.271823379923291,460.502150579691));
#1157=CARTESIAN_POINT('Origin',(26.0340496471589,9.46365648974719,452.787864865437));
#1158=CARTESIAN_POINT('Origin',(26.0340496471589,-1.26014880504769,461.7878648654));
#1159=CARTESIAN_POINT('',(26.0340496471588,6.46939119987064,449.620938841227));
#1160=CARTESIAN_POINT('Origin',(26.0340496471589,6.46939119987064,451.220938841228));
#1161=CARTESIAN_POINT('',(26.0340496471589,-9.03060880015497,454.487864865388));
#1162=CARTESIAN_POINT('Origin',(26.0340496471589,-9.03060880015495,455.787864865388));
#1163=CARTESIAN_POINT('Origin',(13.7360496471769,6.46939119989582,451.220938870059));
#1164=CARTESIAN_POINT('',(13.7360496471769,10.4568161726674,451.537864865391));
#1165=CARTESIAN_POINT('Origin',(10.1870496471633,3.16939119494464,451.537864865391));
#1166=CARTESIAN_POINT('',(8.18704964716164,12.2698511949395,451.537864865391));
#1167=CARTESIAN_POINT('Origin',(13.5360496471769,9.46365648974719,452.787864865437));
#1168=CARTESIAN_POINT('',(13.5360496471769,0.271823379923291,460.502150579691));
#1169=CARTESIAN_POINT('',(13.5360496471769,9.46365648974719,464.787864865437));
#1170=CARTESIAN_POINT('Origin',(13.5360496471769,-1.26014880504769,461.7878648654));
#1171=CARTESIAN_POINT('Origin',(15.5870496471653,6.26985119494549,464.787864865437));
#1172=CARTESIAN_POINT('',(16.6370496471655,10.2698511949456,464.787864865437));
#1173=CARTESIAN_POINT('Origin',(12.7105496471622,9.46365648974037,452.787864865437));
#1174=CARTESIAN_POINT('',(6.03404964716201,9.46365648974108,464.787864865437));
#1175=CARTESIAN_POINT('',(6.03404964715886,0.271823379917244,460.502150579691));
#1176=CARTESIAN_POINT('Origin',(6.03404964716093,9.46365648974108,452.787864865437));
#1177=CARTESIAN_POINT('',(12.7105496471613,0.271823379916566,460.502150579691));
#1178=CARTESIAN_POINT('',(12.7105496471622,9.46365648974037,464.787864865437));
#1179=CARTESIAN_POINT('Origin',(6.03404964715898,-9.03060880015941,457.037864865389));
#1180=CARTESIAN_POINT('',(6.03404964716204,10.269851194946,464.787864865437));
#1181=CARTESIAN_POINT('',(6.03404964716212,12.2698511949459,464.787864865437));
#1182=CARTESIAN_POINT('',(6.03404964715944,12.2698511949396,462.787864865437));
#1183=CARTESIAN_POINT('Origin',(6.03404964715975,10.269851194946,462.787864865437));
#1184=CARTESIAN_POINT('',(6.0340496471586,12.2698511949396,449.03786486539));
#1185=CARTESIAN_POINT('',(6.03404964715885,12.2698511949396,453.0378648664));
#1186=CARTESIAN_POINT('',(6.03404964715854,10.2698511949461,447.03786486539));
#1187=CARTESIAN_POINT('Origin',(6.03404964715926,10.269851194946,449.03786486539));
#1188=CARTESIAN_POINT('',(6.0340496471581,-37.7301488001036,447.037864865387));
#1189=CARTESIAN_POINT('',(6.03404964715832,-14.0306088001589,447.037864865389));
#1190=CARTESIAN_POINT('',(6.03404964715826,-40.7301488001037,450.037864865388));
#1191=CARTESIAN_POINT('Origin',(6.03404964715855,-37.7301488001037,450.037864865388));
#1192=CARTESIAN_POINT('',(6.03404964715867,-40.7301488001035,456.7878648654));
#1193=CARTESIAN_POINT('',(6.0340496471586,-40.7301488001035,455.652204365394));
#1194=CARTESIAN_POINT('Origin',(6.034049647159,-37.7301488001035,456.7878648654));
#1195=CARTESIAN_POINT('Origin',(6.03404964715892,-1.26014880505377,461.7878648654));
#1196=CARTESIAN_POINT('',(6.03404964715867,6.46939119987055,449.620938877616));
#1197=CARTESIAN_POINT('Origin',(6.03404964715877,6.46939119987055,451.220938877615));
#1198=CARTESIAN_POINT('Origin',(8.11054964716277,6.26985119494577,464.787864865437));
#1199=CARTESIAN_POINT('',(12.8987996471642,10.2698511949457,464.787864865437));
#1200=CARTESIAN_POINT('Origin',(12.7105496471618,-1.26014880505404,461.7878648654));
#1201=CARTESIAN_POINT('Origin',(16.6370496471655,10.2698511949456,462.787864865437));
#1202=CARTESIAN_POINT('',(16.6370496471656,12.2698511949456,462.787864865437));
#1203=CARTESIAN_POINT('Origin',(17.6870496471656,12.2698511949456,459.787864865437));
#1204=CARTESIAN_POINT('',(11.8370496471623,12.2698511949458,449.037864865389));
#1205=CARTESIAN_POINT('',(12.8987996471643,12.2698511949457,462.787864865437));
#1206=CARTESIAN_POINT('Origin',(12.8987996471642,10.2698511949457,462.787864865437));
#1207=CARTESIAN_POINT('Origin',(15.036049647175,6.46939119988375,451.220938870059));
#1208=CARTESIAN_POINT('',(15.0360496471646,8.0376889743906,451.537864865391));
#1209=CARTESIAN_POINT('',(15.0360496471646,4.90109342535228,451.537864865391));
#1210=CARTESIAN_POINT('Origin',(15.0360496471618,6.46939119987144,451.220938863873));
#1211=CARTESIAN_POINT('',(10.136049647164,4.90109342408252,451.537864865391));
#1212=CARTESIAN_POINT('',(11.8870496471631,4.90109342472635,451.537864865391));
#1213=CARTESIAN_POINT('',(8.73604964716366,4.90109342410212,451.537864865391));
#1214=CARTESIAN_POINT('',(11.8870496471631,4.90109342472635,451.537864865391));
#1215=CARTESIAN_POINT('',(8.7360496471637,8.03768897564072,451.537864865391));
#1216=CARTESIAN_POINT('Origin',(8.73604964716172,6.46939119987142,451.220938870059));
#1217=CARTESIAN_POINT('',(10.136049647164,8.03768897565862,451.537864865391));
#1218=CARTESIAN_POINT('',(11.8870496471631,8.0376889750148,451.537864865391));
#1219=CARTESIAN_POINT('',(11.8870496471631,8.0376889750148,451.537864865391));
#1220=CARTESIAN_POINT('Origin',(11.8370496471622,10.2698511949458,449.037864865389));
#1221=CARTESIAN_POINT('',(11.8370496471621,10.2698511949459,447.037864865389));
#1222=CARTESIAN_POINT('Origin',(5.98704964715828,-19.0306088001589,447.037864865388));
#1223=CARTESIAN_POINT('',(6.01054964715895,-37.7301488001036,447.037864865388));
#1224=CARTESIAN_POINT('',(11.9360496471535,-33.2402164370765,447.037864865387));
#1225=CARTESIAN_POINT('Origin',(11.9360496471535,-29.040216437076,447.037864865387));
#1226=CARTESIAN_POINT('Origin',(15.1360496471618,6.46939119987144,451.220938863873));
#1227=CARTESIAN_POINT('',(15.1360496471646,8.0376889743906,451.537864865391));
#1228=CARTESIAN_POINT('',(15.1360496471646,4.90109342535228,451.537864865391));
#1229=CARTESIAN_POINT('Origin',(15.1360496471618,6.46939119987144,451.220938863873));
#1230=CARTESIAN_POINT('',(11.8870496471631,4.90109342472635,451.537864865391));
#1231=CARTESIAN_POINT('',(11.8870496471631,8.0376889750148,451.537864865391));
#1232=CARTESIAN_POINT('Origin',(15.987049647154,-29.0402164370744,451.837864865404));
#1233=CARTESIAN_POINT('',(13.8360496471542,-29.040216437074,451.837864865404));
#1234=CARTESIAN_POINT('Origin',(11.9360496471523,-29.0402164370803,451.837864865404));
#1235=CARTESIAN_POINT('Origin',(11.9360496471535,-29.040216437076,447.537864865387));
#1236=CARTESIAN_POINT('',(11.9360496471536,-32.2402164370766,448.037864865387));
#1237=CARTESIAN_POINT('Origin',(11.9360496471536,-29.0402164370761,448.037864865387));
#1238=CARTESIAN_POINT('',(11.9360496471535,-32.7402164370766,447.537864865387));
#1239=CARTESIAN_POINT('Origin',(11.9360496471536,-29.0402164370761,449.537864865387));
#1240=CARTESIAN_POINT('',(11.9360496471538,-32.2402164370768,451.537864865387));
#1241=CARTESIAN_POINT('',(11.9360496471536,-32.2402164370767,449.537864865387));
#1242=CARTESIAN_POINT('Origin',(11.9360496471538,-29.0402164370762,451.537864865387));
#1243=CARTESIAN_POINT('Origin',(15.9870496471555,-29.0402164370705,451.537864865387));
#1244=CARTESIAN_POINT('Origin',(2.33405039965042,6.46939119987053,451.220938884347));
#1245=CARTESIAN_POINT('',(2.33405039673938,6.46939119987053,449.620938884347));
#1246=CARTESIAN_POINT('Origin',(6.01054964715913,-37.7301488001037,450.037864865388));
#1247=CARTESIAN_POINT('',(6.01054964715913,-40.7301488001037,450.037864865388));
#1248=CARTESIAN_POINT('Origin',(6.03404964716006,-40.7301488001036,454.266543865397));
#1249=CARTESIAN_POINT('',(12.710549647161,-40.7301488001035,456.7878648654));
#1250=CARTESIAN_POINT('Origin',(12.710549647161,-37.7301488001035,456.7878648654));
#1251=CARTESIAN_POINT('Origin',(11.9360496471521,-29.0402164370802,449.037864865388));
#1252=CARTESIAN_POINT('',(13.8360496471522,-29.0402164370803,449.037864865387));
#1253=CARTESIAN_POINT('Origin',(18.0870496471663,-9.03060880015488,455.787864865388));
#1254=CARTESIAN_POINT('',(19.4870496471634,-9.03060880015461,454.487864865388));
#1255=CARTESIAN_POINT('',(18.0870496471663,-9.0306088001549,454.487864865388));
#1256=CARTESIAN_POINT('Origin',(19.4870496471634,-9.0306088001546,455.787864865388));
#1257=CARTESIAN_POINT('Origin',(17.8870496471619,-6.18060880013729,459.787864865392));
#1258=CARTESIAN_POINT('',(17.4870496471634,-6.18060880014511,452.837864865394));
#1259=CARTESIAN_POINT('',(17.4870496471633,-6.18060880014937,445.601043986133));
#1260=CARTESIAN_POINT('',(19.4870496471648,-6.18060880014127,452.837864865396));
#1261=CARTESIAN_POINT('',(17.8870496471619,-6.1806088001498,452.837864865392));
#1262=CARTESIAN_POINT('',(19.4870496471648,-6.18060880014127,459.787864865396));
#1263=CARTESIAN_POINT('Origin',(17.8870496471618,-11.8806088001374,454.287864865392));
#1264=CARTESIAN_POINT('',(19.4870496471647,-11.8806088001413,452.837864865396));
#1265=CARTESIAN_POINT('',(19.4870496471647,-11.8806088001413,454.287864865396));
#1266=CARTESIAN_POINT('',(17.4870496471633,-11.8806088001453,452.837864865394));
#1267=CARTESIAN_POINT('',(17.8870496471632,-11.8806088001456,452.837864865394));
#1268=CARTESIAN_POINT('',(17.4870496471633,-11.8806088001494,442.851043986133));
#1269=CARTESIAN_POINT('Origin',(19.4870496471633,-12.0431088001457,431.414223106874));
#1270=CARTESIAN_POINT('',(19.4870496471648,-6.28060880014132,452.837864865396));
#1271=CARTESIAN_POINT('Origin',(17.4870496471619,-12.0431088001499,431.414223106872));
#1272=CARTESIAN_POINT('',(17.4870496471633,-11.7806088001453,452.837864865394));
#1273=CARTESIAN_POINT('Origin',(17.8870496471605,-6.28060880015397,452.83786486539));
#1274=UNCERTAINTY_MEASURE_WITH_UNIT(LENGTH_MEASURE(0.01),#1278,
'DISTANCE_ACCURACY_VALUE',
'Maximum model space distance between geometric entities at asserted c
onnectivities');
#1275=UNCERTAINTY_MEASURE_WITH_UNIT(LENGTH_MEASURE(0.01),#1278,
'DISTANCE_ACCURACY_VALUE',
'Maximum model space distance between geometric entities at asserted c
onnectivities');
#1276=(
GEOMETRIC_REPRESENTATION_CONTEXT(3)
GLOBAL_UNCERTAINTY_ASSIGNED_CONTEXT((#1274))
GLOBAL_UNIT_ASSIGNED_CONTEXT((#1278,#1280,#1281))
REPRESENTATION_CONTEXT('','3D')
);
#1277=(
GEOMETRIC_REPRESENTATION_CONTEXT(3)
GLOBAL_UNCERTAINTY_ASSIGNED_CONTEXT((#1275))
GLOBAL_UNIT_ASSIGNED_CONTEXT((#1278,#1280,#1281))
REPRESENTATION_CONTEXT('','3D')
);
#1278=(
LENGTH_UNIT()
NAMED_UNIT(*)
SI_UNIT(.MILLI.,.METRE.)
);
#1279=(
LENGTH_UNIT()
NAMED_UNIT(*)
SI_UNIT($,.METRE.)
);
#1280=(
NAMED_UNIT(*)
PLANE_ANGLE_UNIT()
SI_UNIT($,.RADIAN.)
);
#1281=(
NAMED_UNIT(*)
SI_UNIT($,.STERADIAN.)
SOLID_ANGLE_UNIT()
);
#1282=SHAPE_DEFINITION_REPRESENTATION(#1283,#1284);
#1283=PRODUCT_DEFINITION_SHAPE('',$,#1286);
#1284=SHAPE_REPRESENTATION('',(#763),#1276);
#1285=PRODUCT_DEFINITION_CONTEXT('part definition',#1290,'design');
#1286=PRODUCT_DEFINITION('2026-06-23-13-19-24-483','arm-left',#1287,#1285);
#1287=PRODUCT_DEFINITION_FORMATION('',$,#1292);
#1288=PRODUCT_RELATED_PRODUCT_CATEGORY('arm-left','arm-left',(#1292));
#1289=APPLICATION_PROTOCOL_DEFINITION('international standard',
'automotive_design',2009,#1290);
#1290=APPLICATION_CONTEXT(
'Core Data for Automotive Mechanical Design Process');
#1291=PRODUCT_CONTEXT('part definition',#1290,'mechanical');
#1292=PRODUCT('2026-06-23-13-19-24-483','arm-left',$,(#1291));
#1293=PRESENTATION_STYLE_ASSIGNMENT((#1295));
#1294=PRESENTATION_STYLE_ASSIGNMENT((#1296));
#1295=SURFACE_STYLE_USAGE(.BOTH.,#1297);
#1296=SURFACE_STYLE_USAGE(.BOTH.,#1298);
#1297=SURFACE_SIDE_STYLE('',(#1299));
#1298=SURFACE_SIDE_STYLE('',(#1300));
#1299=SURFACE_STYLE_FILL_AREA(#1301);
#1300=SURFACE_STYLE_FILL_AREA(#1302);
#1301=FILL_AREA_STYLE('Steel - Satin',(#1303));
#1302=FILL_AREA_STYLE('Plastic - Translucent Matte (White) 3D Printed',
(#1304));
#1303=FILL_AREA_STYLE_COLOUR('Steel - Satin',#1305);
#1304=FILL_AREA_STYLE_COLOUR(
'Plastic - Translucent Matte (White) 3D Printed',#1306);
#1305=COLOUR_RGB('Steel - Satin',0.627450980392157,0.627450980392157,0.627450980392157);
#1306=COLOUR_RGB('Plastic - Translucent Matte (White) 3D Printed',0.964705882352941,
0.964705882352941,0.952941176470588);
ENDSEC;
END-ISO-10303-21;
