ISO-10303-21;
HEADER;
/* Generated by software containing ST-Developer
 * from STEP Tools, Inc. (www.steptools.com) 
 */

FILE_DESCRIPTION(
/* description */ (''),
/* implementation_level */ '2;1');

FILE_NAME(
/* name */ 'rope-elbow-bottom.step',
/* time_stamp */ '2026-06-23T13:21:45-07:00',
/* author */ (''),
/* organization */ (''),
/* preprocessor_version */ 'ST-DEVELOPER v20.1',
/* originating_system */ 'Autodesk Translation Framework v15.8.0.0',
/* authorisation */ '');

FILE_SCHEMA (('AUTOMOTIVE_DESIGN { 1 0 10303 214 3 1 1 }','INTEGRATED_CNC_SCHEMA'));
ENDSEC;

DATA;
#10=MECHANICAL_DESIGN_GEOMETRIC_PRESENTATION_REPRESENTATION('',(#13),#1235);
#11=SHAPE_REPRESENTATION_RELATIONSHIP('SRR','None',#1242,#12);
#12=ADVANCED_BREP_SHAPE_REPRESENTATION('',(#14),#1234);
#13=STYLED_ITEM('',(#1252),#14);
#14=MANIFOLD_SOLID_BREP('Body1',#598);
#15=FACE_BOUND('',#97,.T.);
#16=FACE_BOUND('',#98,.T.);
#17=FACE_BOUND('',#113,.T.);
#18=FACE_BOUND('',#114,.T.);
#19=TOROIDAL_SURFACE('',#636,43.9999999999998,2.7);
#20=TOROIDAL_SURFACE('',#641,43.9999999999998,2.7);
#21=CIRCLE('',#615,1.);
#22=CIRCLE('',#616,1.);
#23=CIRCLE('',#618,44.);
#24=CIRCLE('',#619,1.);
#25=CIRCLE('',#620,38.9999999999997);
#26=CIRCLE('',#622,2.);
#27=CIRCLE('',#623,2.);
#28=CIRCLE('',#627,1.);
#29=CIRCLE('',#629,38.9999999999997);
#30=CIRCLE('',#630,44.);
#31=CIRCLE('',#632,2.00000000000003);
#32=CIRCLE('',#633,2.);
#33=CIRCLE('',#637,44.);
#34=CIRCLE('',#638,44.);
#35=CIRCLE('',#640,44.);
#36=CIRCLE('',#642,44.);
#37=CIRCLE('',#646,2.00000000000003);
#38=CIRCLE('',#648,2.);
#39=CIRCLE('',#653,2.);
#40=CIRCLE('',#656,2.);
#41=CYLINDRICAL_SURFACE('',#614,1.);
#42=CYLINDRICAL_SURFACE('',#626,1.);
#43=CYLINDRICAL_SURFACE('',#639,44.);
#44=CYLINDRICAL_SURFACE('',#643,44.);
#45=CYLINDRICAL_SURFACE('',#644,1.25);
#46=CYLINDRICAL_SURFACE('',#647,2.);
#47=CYLINDRICAL_SURFACE('',#649,2.00000000000003);
#48=CYLINDRICAL_SURFACE('',#652,2.);
#49=CYLINDRICAL_SURFACE('',#655,2.);
#50=CYLINDRICAL_SURFACE('',#659,38.9999999999997);
#51=CYLINDRICAL_SURFACE('',#660,44.);
#52=CYLINDRICAL_SURFACE('',#661,1.25);
#53=FACE_OUTER_BOUND('',#83,.T.);
#54=FACE_OUTER_BOUND('',#84,.T.);
#55=FACE_OUTER_BOUND('',#85,.T.);
#56=FACE_OUTER_BOUND('',#86,.T.);
#57=FACE_OUTER_BOUND('',#87,.T.);
#58=FACE_OUTER_BOUND('',#88,.T.);
#59=FACE_OUTER_BOUND('',#89,.T.);
#60=FACE_OUTER_BOUND('',#90,.T.);
#61=FACE_OUTER_BOUND('',#91,.T.);
#62=FACE_OUTER_BOUND('',#92,.T.);
#63=FACE_OUTER_BOUND('',#93,.T.);
#64=FACE_OUTER_BOUND('',#94,.T.);
#65=FACE_OUTER_BOUND('',#95,.T.);
#66=FACE_OUTER_BOUND('',#96,.T.);
#67=FACE_OUTER_BOUND('',#99,.T.);
#68=FACE_OUTER_BOUND('',#100,.T.);
#69=FACE_OUTER_BOUND('',#101,.T.);
#70=FACE_OUTER_BOUND('',#102,.T.);
#71=FACE_OUTER_BOUND('',#103,.T.);
#72=FACE_OUTER_BOUND('',#104,.T.);
#73=FACE_OUTER_BOUND('',#105,.T.);
#74=FACE_OUTER_BOUND('',#106,.T.);
#75=FACE_OUTER_BOUND('',#107,.T.);
#76=FACE_OUTER_BOUND('',#108,.T.);
#77=FACE_OUTER_BOUND('',#109,.T.);
#78=FACE_OUTER_BOUND('',#110,.T.);
#79=FACE_OUTER_BOUND('',#111,.T.);
#80=FACE_OUTER_BOUND('',#112,.T.);
#81=FACE_OUTER_BOUND('',#115,.T.);
#82=FACE_OUTER_BOUND('',#116,.T.);
#83=EDGE_LOOP('',(#378,#379,#380,#381,#382,#383));
#84=EDGE_LOOP('',(#384,#385,#386,#387,#388,#389,#390,#391));
#85=EDGE_LOOP('',(#392,#393,#394,#395));
#86=EDGE_LOOP('',(#396,#397,#398,#399,#400,#401,#402,#403,#404,#405));
#87=EDGE_LOOP('',(#406,#407,#408,#409,#410,#411,#412,#413));
#88=EDGE_LOOP('',(#414,#415,#416,#417,#418,#419));
#89=EDGE_LOOP('',(#420,#421,#422,#423));
#90=EDGE_LOOP('',(#424,#425,#426,#427));
#91=EDGE_LOOP('',(#428,#429,#430,#431,#432,#433,#434,#435,#436,#437));
#92=EDGE_LOOP('',(#438,#439,#440,#441,#442,#443,#444,#445));
#93=EDGE_LOOP('',(#446,#447,#448,#449,#450,#451,#452,#453));
#94=EDGE_LOOP('',(#454,#455,#456,#457));
#95=EDGE_LOOP('',(#458,#459,#460,#461,#462,#463,#464,#465));
#96=EDGE_LOOP('',(#466,#467,#468,#469));
#97=EDGE_LOOP('',(#470,#471));
#98=EDGE_LOOP('',(#472));
#99=EDGE_LOOP('',(#473,#474,#475,#476,#477,#478,#479,#480));
#100=EDGE_LOOP('',(#481,#482,#483,#484));
#101=EDGE_LOOP('',(#485,#486,#487,#488,#489));
#102=EDGE_LOOP('',(#490,#491,#492,#493));
#103=EDGE_LOOP('',(#494,#495,#496,#497));
#104=EDGE_LOOP('',(#498,#499,#500,#501));
#105=EDGE_LOOP('',(#502,#503,#504,#505,#506,#507));
#106=EDGE_LOOP('',(#508,#509,#510,#511));
#107=EDGE_LOOP('',(#512,#513,#514,#515));
#108=EDGE_LOOP('',(#516,#517,#518,#519));
#109=EDGE_LOOP('',(#520,#521,#522,#523));
#110=EDGE_LOOP('',(#524,#525,#526,#527));
#111=EDGE_LOOP('',(#528,#529,#530,#531,#532,#533));
#112=EDGE_LOOP('',(#534,#535,#536,#537));
#113=EDGE_LOOP('',(#538,#539));
#114=EDGE_LOOP('',(#540,#541));
#115=EDGE_LOOP('',(#542,#543,#544,#545));
#116=EDGE_LOOP('',(#546,#547,#548,#549,#550,#551));
#117=LINE('',#821,#165);
#118=LINE('',#823,#166);
#119=LINE('',#825,#167);
#120=LINE('',#827,#168);
#121=LINE('',#828,#169);
#122=LINE('',#837,#170);
#123=LINE('',#839,#171);
#124=LINE('',#841,#172);
#125=LINE('',#843,#173);
#126=LINE('',#845,#174);
#127=LINE('',#851,#175);
#128=LINE('',#857,#176);
#129=LINE('',#860,#177);
#130=LINE('',#863,#178);
#131=LINE('',#865,#179);
#132=LINE('',#868,#180);
#133=LINE('',#872,#181);
#134=LINE('',#875,#182);
#135=LINE('',#878,#183);
#136=LINE('',#880,#184);
#137=LINE('',#884,#185);
#138=LINE('',#893,#186);
#139=LINE('',#894,#187);
#140=LINE('',#896,#188);
#141=LINE('',#897,#189);
#142=LINE('',#900,#190);
#143=LINE('',#901,#191);
#144=LINE('',#904,#192);
#145=LINE('',#907,#193);
#146=LINE('',#911,#194);
#147=LINE('',#913,#195);
#148=LINE('',#915,#196);
#149=LINE('',#921,#197);
#150=LINE('',#924,#198);
#151=LINE('',#933,#199);
#152=LINE('',#934,#200);
#153=LINE('',#936,#201);
#154=LINE('',#938,#202);
#155=LINE('',#944,#203);
#156=LINE('',#946,#204);
#157=LINE('',#1128,#205);
#158=LINE('',#1131,#206);
#159=LINE('',#1174,#207);
#160=LINE('',#1177,#208);
#161=LINE('',#1185,#209);
#162=LINE('',#1187,#210);
#163=LINE('',#1189,#211);
#164=LINE('',#1231,#212);
#165=VECTOR('',#666,10.);
#166=VECTOR('',#667,10.);
#167=VECTOR('',#668,10.);
#168=VECTOR('',#669,10.);
#169=VECTOR('',#670,10.);
#170=VECTOR('',#673,10.);
#171=VECTOR('',#674,10.);
#172=VECTOR('',#675,10.);
#173=VECTOR('',#676,10.);
#174=VECTOR('',#677,10.);
#175=VECTOR('',#678,10.);
#176=VECTOR('',#683,10.);
#177=VECTOR('',#686,10.);
#178=VECTOR('',#689,10.);
#179=VECTOR('',#690,10.);
#180=VECTOR('',#693,10.);
#181=VECTOR('',#696,10.);
#182=VECTOR('',#699,10.);
#183=VECTOR('',#702,10.);
#184=VECTOR('',#703,10.);
#185=VECTOR('',#708,10.);
#186=VECTOR('',#711,10.);
#187=VECTOR('',#712,10.);
#188=VECTOR('',#713,10.);
#189=VECTOR('',#714,10.);
#190=VECTOR('',#717,10.);
#191=VECTOR('',#718,10.);
#192=VECTOR('',#721,10.);
#193=VECTOR('',#724,10.);
#194=VECTOR('',#729,10.);
#195=VECTOR('',#730,10.);
#196=VECTOR('',#731,10.);
#197=VECTOR('',#738,10.);
#198=VECTOR('',#741,10.);
#199=VECTOR('',#744,10.);
#200=VECTOR('',#745,10.);
#201=VECTOR('',#746,10.);
#202=VECTOR('',#747,10.);
#203=VECTOR('',#748,10.);
#204=VECTOR('',#751,10.);
#205=VECTOR('',#768,10.);
#206=VECTOR('',#771,1.25);
#207=VECTOR('',#780,10.);
#208=VECTOR('',#785,10.);
#209=VECTOR('',#798,10.);
#210=VECTOR('',#801,10.);
#211=VECTOR('',#804,10.);
#212=VECTOR('',#811,1.25);
#213=B_SPLINE_CURVE_WITH_KNOTS('',3,(#816,#817,#818,#819),.UNSPECIFIED.,
 .F.,.F.,(4,4),(3.15151659567902,3.20122316635984),.UNSPECIFIED.);
#214=B_SPLINE_CURVE_WITH_KNOTS('',3,(#832,#833,#834,#835),.UNSPECIFIED.,
 .F.,.F.,(4,4),(-0.0497065706940992,0.),.UNSPECIFIED.);
#215=B_SPLINE_CURVE_WITH_KNOTS('',3,(#847,#848,#849,#850),.UNSPECIFIED.,
 .F.,.F.,(4,4),(3.12908046350361,3.17870521726408),.UNSPECIFIED.);
#216=B_SPLINE_CURVE_WITH_KNOTS('',3,(#888,#889,#890,#891),.UNSPECIFIED.,
 .F.,.F.,(4,4),(6.20853617324219,6.25816092700721),.UNSPECIFIED.);
#217=B_SPLINE_CURVE_WITH_KNOTS('',3,(#928,#929,#930,#931),.UNSPECIFIED.,
 .F.,.F.,(4,4),(3.15151659565137,3.20122316633245),.UNSPECIFIED.);
#218=B_SPLINE_CURVE_WITH_KNOTS('',3,(#940,#941,#942,#943),.UNSPECIFIED.,
 .F.,.F.,(4,4),(0.,0.0497065706810476),.UNSPECIFIED.);
#219=B_SPLINE_CURVE_WITH_KNOTS('',3,(#951,#952,#953,#954),.UNSPECIFIED.,
 .F.,.F.,(4,4),(3.20122325269728,3.25092982338283),.UNSPECIFIED.);
#220=B_SPLINE_CURVE_WITH_KNOTS('',3,(#955,#956,#957,#958,#959,#960,#961,
#962,#963,#964,#965,#966,#967,#968,#969,#970,#971,#972,#973,#974,#975,#976),
 .UNSPECIFIED.,.F.,.F.,(4,2,2,2,2,2,2,2,2,2,4),(0.399588213715078,0.399872171359487,
0.499845855643826,0.599816516912584,0.699782970364926,0.799745692247926,
0.899708414130927,0.999674867583269,1.09964552885203,1.19961921313637,1.19990317078169),
 .UNSPECIFIED.);
#221=B_SPLINE_CURVE_WITH_KNOTS('',3,(#978,#979,#980,#981,#982,#983,#984,
#985,#986,#987,#988,#989,#990,#991,#992,#993,#994,#995,#996,#997,#998,#999),
 .UNSPECIFIED.,.F.,.F.,(4,2,2,2,2,2,2,2,2,2,4),(0.399588198715869,0.399872171359488,
0.499845855643827,0.599816516912585,0.699782970364927,0.799745692247928,
0.899708414130928,0.99967486758327,1.09964552885203,1.19961921313637,1.19990318578095),
 .UNSPECIFIED.);
#222=B_SPLINE_CURVE_WITH_KNOTS('',3,(#1004,#1005,#1006,#1007,#1008,#1009,
#1010,#1011,#1012,#1013,#1014,#1015,#1016,#1017,#1018,#1019,#1020,#1021,
#1022,#1023,#1024,#1025,#1026,#1027,#1028,#1029),.UNSPECIFIED.,.F.,.F.,
(4,2,2,2,2,2,2,2,2,2,2,2,4),(0.194042624362719,0.243068690008624,0.292094755654528,
0.339651120848084,0.38720748604164,0.434148132984115,0.481088779926591,
0.530729527977561,0.580370276028531,0.630404777932058,0.680439279835586,
0.727424086056365,0.774408892277145),.UNSPECIFIED.);
#223=B_SPLINE_CURVE_WITH_KNOTS('',3,(#1030,#1031,#1032,#1033,#1034,#1035,
#1036,#1037,#1038,#1039),.UNSPECIFIED.,.F.,.F.,(4,2,2,2,4),(0.,0.0477338044557203,
0.0954676089114405,0.14475511663708,0.194042624362719),.UNSPECIFIED.);
#224=B_SPLINE_CURVE_WITH_KNOTS('',3,(#1041,#1042,#1043,#1044,#1045,#1046,
#1047,#1048,#1049,#1050,#1051,#1052,#1053,#1054,#1055,#1056,#1057,#1058,
#1059,#1060,#1061,#1062,#1063,#1064,#1065,#1066,#1067,#1068,#1069,#1070,
#1071,#1072,#1073,#1074),.UNSPECIFIED.,.T.,.F.,(4,2,2,2,2,2,2,2,2,2,2,2,
2,2,2,2,4),(0.,0.0469421456829779,0.0938842913659558,0.143495298463414,
0.193106305560872,0.243108272824708,0.293110240088544,0.340096178907866,
0.387082117727187,0.434808861101503,0.482535604475818,0.531798727932614,
0.58106185138941,0.630065391213422,0.679068931037434,0.72661955549587,0.774170179954307),
 .UNSPECIFIED.);
#225=B_SPLINE_CURVE_WITH_KNOTS('',3,(#1079,#1080,#1081,#1082),
 .UNSPECIFIED.,.F.,.F.,(4,4),(0.,0.0497065706813033),.UNSPECIFIED.);
#226=B_SPLINE_CURVE_WITH_KNOTS('',3,(#1083,#1084,#1085,#1086,#1087,#1088,
#1089,#1090,#1091,#1092,#1093,#1094,#1095,#1096,#1097,#1098,#1099,#1100,
#1101,#1102,#1103,#1104),.UNSPECIFIED.,.F.,.F.,(4,2,2,2,2,2,2,2,2,2,4),
(0.399588198711125,0.399872171359487,0.499845855643826,0.599816516912585,
0.699782970364926,0.799745692247927,0.899710152815034,0.999678345115823,
1.09964726769471,1.19961921313954,1.19990318578886),.UNSPECIFIED.);
#227=B_SPLINE_CURVE_WITH_KNOTS('',3,(#1105,#1106,#1107,#1108,#1109,#1110,
#1111,#1112,#1113,#1114,#1115,#1116,#1117,#1118,#1119,#1120,#1121,#1122,
#1123,#1124,#1125,#1126),.UNSPECIFIED.,.F.,.F.,(4,2,2,2,2,2,2,2,2,2,4),
(0.399588213715082,0.399872171359484,0.499845855643823,0.59981651691258,
0.699782970364921,0.799745692247922,0.899708414130924,0.999674867583264,
1.09964552885202,1.19961921313636,1.19990317078162),.UNSPECIFIED.);
#228=B_SPLINE_CURVE_WITH_KNOTS('',3,(#1133,#1134,#1135,#1136,#1137,#1138,
#1139,#1140,#1141,#1142,#1143,#1144,#1145,#1146,#1147,#1148,#1149,#1150),
 .UNSPECIFIED.,.F.,.F.,(4,2,2,2,2,2,2,2,4),(0.,0.0469614173811281,0.0939228347622562,
0.144818269970621,0.195713705178986,0.246086172234026,0.296458639289067,
0.343359553824293,0.390260468359519),.UNSPECIFIED.);
#229=B_SPLINE_CURVE_WITH_KNOTS('',3,(#1151,#1152,#1153,#1154,#1155,#1156,
#1157,#1158,#1159,#1160,#1161,#1162,#1163,#1164,#1165,#1166,#1167,#1168),
 .UNSPECIFIED.,.F.,.F.,(4,2,2,2,2,2,2,2,4),(0.390260468359519,0.437952267467492,
0.485644066575465,0.535227325140835,0.584810583706206,0.634741192237046,
0.684671800767886,0.732601435013629,0.780531069259373),.UNSPECIFIED.);
#230=B_SPLINE_CURVE_WITH_KNOTS('',3,(#1193,#1194,#1195,#1196,#1197,#1198,
#1199,#1200,#1201,#1202,#1203,#1204,#1205,#1206,#1207,#1208,#1209,#1210,
#1211,#1212,#1213,#1214,#1215,#1216,#1217,#1218),.UNSPECIFIED.,.F.,.F.,
(4,2,2,2,2,2,2,2,2,2,2,2,4),(0.194625515870103,0.244588848756752,0.294552181643401,
0.34249143741573,0.390430693188059,0.437390725818488,0.484350758448918,
0.535289846791479,0.58622893513404,0.636641007451169,0.687053079768297,
0.733952048239056,0.780851016709814),.UNSPECIFIED.);
#231=B_SPLINE_CURVE_WITH_KNOTS('',3,(#1219,#1220,#1221,#1222,#1223,#1224,
#1225,#1226,#1227,#1228),.UNSPECIFIED.,.F.,.F.,(4,2,2,2,4),(0.,0.0476994691452787,
0.0953989382905575,0.14501222708033,0.194625515870103),.UNSPECIFIED.);
#232=VERTEX_POINT('',#814);
#233=VERTEX_POINT('',#815);
#234=VERTEX_POINT('',#820);
#235=VERTEX_POINT('',#822);
#236=VERTEX_POINT('',#824);
#237=VERTEX_POINT('',#826);
#238=VERTEX_POINT('',#830);
#239=VERTEX_POINT('',#831);
#240=VERTEX_POINT('',#836);
#241=VERTEX_POINT('',#838);
#242=VERTEX_POINT('',#840);
#243=VERTEX_POINT('',#842);
#244=VERTEX_POINT('',#844);
#245=VERTEX_POINT('',#846);
#246=VERTEX_POINT('',#853);
#247=VERTEX_POINT('',#854);
#248=VERTEX_POINT('',#856);
#249=VERTEX_POINT('',#858);
#250=VERTEX_POINT('',#862);
#251=VERTEX_POINT('',#864);
#252=VERTEX_POINT('',#867);
#253=VERTEX_POINT('',#869);
#254=VERTEX_POINT('',#871);
#255=VERTEX_POINT('',#873);
#256=VERTEX_POINT('',#877);
#257=VERTEX_POINT('',#879);
#258=VERTEX_POINT('',#882);
#259=VERTEX_POINT('',#886);
#260=VERTEX_POINT('',#887);
#261=VERTEX_POINT('',#892);
#262=VERTEX_POINT('',#895);
#263=VERTEX_POINT('',#899);
#264=VERTEX_POINT('',#903);
#265=VERTEX_POINT('',#905);
#266=VERTEX_POINT('',#909);
#267=VERTEX_POINT('',#912);
#268=VERTEX_POINT('',#914);
#269=VERTEX_POINT('',#918);
#270=VERTEX_POINT('',#920);
#271=VERTEX_POINT('',#922);
#272=VERTEX_POINT('',#926);
#273=VERTEX_POINT('',#927);
#274=VERTEX_POINT('',#932);
#275=VERTEX_POINT('',#935);
#276=VERTEX_POINT('',#937);
#277=VERTEX_POINT('',#939);
#278=VERTEX_POINT('',#948);
#279=VERTEX_POINT('',#950);
#280=VERTEX_POINT('',#1002);
#281=VERTEX_POINT('',#1003);
#282=VERTEX_POINT('',#1040);
#283=VERTEX_POINT('',#1076);
#284=VERTEX_POINT('',#1078);
#285=VERTEX_POINT('',#1130);
#286=VERTEX_POINT('',#1132);
#287=VERTEX_POINT('',#1172);
#288=VERTEX_POINT('',#1183);
#289=VERTEX_POINT('',#1191);
#290=VERTEX_POINT('',#1192);
#291=EDGE_CURVE('',#232,#233,#213,.T.);
#292=EDGE_CURVE('',#234,#232,#117,.T.);
#293=EDGE_CURVE('',#234,#235,#118,.T.);
#294=EDGE_CURVE('',#236,#235,#119,.T.);
#295=EDGE_CURVE('',#237,#236,#120,.T.);
#296=EDGE_CURVE('',#233,#237,#121,.T.);
#297=EDGE_CURVE('',#238,#239,#214,.T.);
#298=EDGE_CURVE('',#240,#238,#122,.T.);
#299=EDGE_CURVE('',#241,#240,#123,.T.);
#300=EDGE_CURVE('',#241,#242,#124,.T.);
#301=EDGE_CURVE('',#242,#243,#125,.T.);
#302=EDGE_CURVE('',#244,#243,#126,.T.);
#303=EDGE_CURVE('',#245,#244,#215,.T.);
#304=EDGE_CURVE('',#239,#245,#127,.T.);
#305=EDGE_CURVE('',#246,#247,#21,.T.);
#306=EDGE_CURVE('',#247,#248,#128,.T.);
#307=EDGE_CURVE('',#248,#249,#22,.T.);
#308=EDGE_CURVE('',#249,#246,#129,.T.);
#309=EDGE_CURVE('',#250,#248,#130,.T.);
#310=EDGE_CURVE('',#251,#250,#131,.T.);
#311=EDGE_CURVE('',#237,#251,#23,.T.);
#312=EDGE_CURVE('',#252,#236,#132,.T.);
#313=EDGE_CURVE('',#253,#252,#24,.T.);
#314=EDGE_CURVE('',#254,#253,#133,.T.);
#315=EDGE_CURVE('',#254,#255,#25,.T.);
#316=EDGE_CURVE('',#255,#249,#134,.T.);
#317=EDGE_CURVE('',#247,#256,#135,.T.);
#318=EDGE_CURVE('',#256,#257,#136,.T.);
#319=EDGE_CURVE('',#242,#257,#26,.T.);
#320=EDGE_CURVE('',#258,#241,#27,.T.);
#321=EDGE_CURVE('',#250,#258,#137,.T.);
#322=EDGE_CURVE('',#259,#260,#216,.T.);
#323=EDGE_CURVE('',#261,#259,#138,.T.);
#324=EDGE_CURVE('',#257,#261,#139,.T.);
#325=EDGE_CURVE('',#262,#256,#140,.T.);
#326=EDGE_CURVE('',#260,#262,#141,.T.);
#327=EDGE_CURVE('',#255,#263,#142,.T.);
#328=EDGE_CURVE('',#263,#246,#143,.T.);
#329=EDGE_CURVE('',#252,#264,#144,.T.);
#330=EDGE_CURVE('',#264,#265,#28,.T.);
#331=EDGE_CURVE('',#265,#253,#145,.T.);
#332=EDGE_CURVE('',#263,#266,#29,.T.);
#333=EDGE_CURVE('',#266,#265,#146,.T.);
#334=EDGE_CURVE('',#267,#264,#147,.T.);
#335=EDGE_CURVE('',#268,#267,#148,.T.);
#336=EDGE_CURVE('',#262,#268,#30,.T.);
#337=EDGE_CURVE('',#235,#269,#31,.T.);
#338=EDGE_CURVE('',#269,#270,#149,.T.);
#339=EDGE_CURVE('',#270,#271,#32,.T.);
#340=EDGE_CURVE('',#271,#267,#150,.T.);
#341=EDGE_CURVE('',#272,#273,#217,.T.);
#342=EDGE_CURVE('',#274,#272,#151,.T.);
#343=EDGE_CURVE('',#274,#270,#152,.T.);
#344=EDGE_CURVE('',#275,#269,#153,.T.);
#345=EDGE_CURVE('',#275,#276,#154,.T.);
#346=EDGE_CURVE('',#277,#276,#218,.T.);
#347=EDGE_CURVE('',#273,#277,#155,.T.);
#348=EDGE_CURVE('',#266,#254,#156,.T.);
#349=EDGE_CURVE('',#278,#233,#33,.T.);
#350=EDGE_CURVE('',#278,#279,#219,.T.);
#351=EDGE_CURVE('',#279,#238,#220,.T.);
#352=EDGE_CURVE('',#277,#239,#34,.T.);
#353=EDGE_CURVE('',#276,#232,#221,.T.);
#354=EDGE_CURVE('',#245,#273,#35,.T.);
#355=EDGE_CURVE('',#280,#281,#222,.F.);
#356=EDGE_CURVE('',#281,#280,#223,.F.);
#357=EDGE_CURVE('',#282,#282,#224,.T.);
#358=EDGE_CURVE('',#283,#260,#36,.T.);
#359=EDGE_CURVE('',#283,#284,#225,.T.);
#360=EDGE_CURVE('',#284,#272,#226,.T.);
#361=EDGE_CURVE('',#244,#259,#227,.T.);
#362=EDGE_CURVE('',#268,#283,#157,.T.);
#363=EDGE_CURVE('',#282,#285,#158,.T.);
#364=EDGE_CURVE('',#286,#285,#228,.T.);
#365=EDGE_CURVE('',#285,#286,#229,.T.);
#366=EDGE_CURVE('',#275,#234,#37,.T.);
#367=EDGE_CURVE('',#287,#274,#38,.T.);
#368=EDGE_CURVE('',#287,#271,#159,.T.);
#369=EDGE_CURVE('',#287,#284,#160,.T.);
#370=EDGE_CURVE('',#243,#261,#39,.T.);
#371=EDGE_CURVE('',#288,#240,#40,.T.);
#372=EDGE_CURVE('',#258,#288,#161,.T.);
#373=EDGE_CURVE('',#279,#288,#162,.T.);
#374=EDGE_CURVE('',#251,#278,#163,.T.);
#375=EDGE_CURVE('',#289,#290,#230,.F.);
#376=EDGE_CURVE('',#290,#289,#231,.F.);
#377=EDGE_CURVE('',#281,#290,#164,.T.);
#378=ORIENTED_EDGE('',*,*,#291,.F.);
#379=ORIENTED_EDGE('',*,*,#292,.F.);
#380=ORIENTED_EDGE('',*,*,#293,.T.);
#381=ORIENTED_EDGE('',*,*,#294,.F.);
#382=ORIENTED_EDGE('',*,*,#295,.F.);
#383=ORIENTED_EDGE('',*,*,#296,.F.);
#384=ORIENTED_EDGE('',*,*,#297,.F.);
#385=ORIENTED_EDGE('',*,*,#298,.F.);
#386=ORIENTED_EDGE('',*,*,#299,.F.);
#387=ORIENTED_EDGE('',*,*,#300,.T.);
#388=ORIENTED_EDGE('',*,*,#301,.T.);
#389=ORIENTED_EDGE('',*,*,#302,.F.);
#390=ORIENTED_EDGE('',*,*,#303,.F.);
#391=ORIENTED_EDGE('',*,*,#304,.F.);
#392=ORIENTED_EDGE('',*,*,#305,.T.);
#393=ORIENTED_EDGE('',*,*,#306,.T.);
#394=ORIENTED_EDGE('',*,*,#307,.T.);
#395=ORIENTED_EDGE('',*,*,#308,.T.);
#396=ORIENTED_EDGE('',*,*,#307,.F.);
#397=ORIENTED_EDGE('',*,*,#309,.F.);
#398=ORIENTED_EDGE('',*,*,#310,.F.);
#399=ORIENTED_EDGE('',*,*,#311,.F.);
#400=ORIENTED_EDGE('',*,*,#295,.T.);
#401=ORIENTED_EDGE('',*,*,#312,.F.);
#402=ORIENTED_EDGE('',*,*,#313,.F.);
#403=ORIENTED_EDGE('',*,*,#314,.F.);
#404=ORIENTED_EDGE('',*,*,#315,.T.);
#405=ORIENTED_EDGE('',*,*,#316,.T.);
#406=ORIENTED_EDGE('',*,*,#306,.F.);
#407=ORIENTED_EDGE('',*,*,#317,.T.);
#408=ORIENTED_EDGE('',*,*,#318,.T.);
#409=ORIENTED_EDGE('',*,*,#319,.F.);
#410=ORIENTED_EDGE('',*,*,#300,.F.);
#411=ORIENTED_EDGE('',*,*,#320,.F.);
#412=ORIENTED_EDGE('',*,*,#321,.F.);
#413=ORIENTED_EDGE('',*,*,#309,.T.);
#414=ORIENTED_EDGE('',*,*,#322,.F.);
#415=ORIENTED_EDGE('',*,*,#323,.F.);
#416=ORIENTED_EDGE('',*,*,#324,.F.);
#417=ORIENTED_EDGE('',*,*,#318,.F.);
#418=ORIENTED_EDGE('',*,*,#325,.F.);
#419=ORIENTED_EDGE('',*,*,#326,.F.);
#420=ORIENTED_EDGE('',*,*,#308,.F.);
#421=ORIENTED_EDGE('',*,*,#316,.F.);
#422=ORIENTED_EDGE('',*,*,#327,.T.);
#423=ORIENTED_EDGE('',*,*,#328,.T.);
#424=ORIENTED_EDGE('',*,*,#313,.T.);
#425=ORIENTED_EDGE('',*,*,#329,.T.);
#426=ORIENTED_EDGE('',*,*,#330,.T.);
#427=ORIENTED_EDGE('',*,*,#331,.T.);
#428=ORIENTED_EDGE('',*,*,#305,.F.);
#429=ORIENTED_EDGE('',*,*,#328,.F.);
#430=ORIENTED_EDGE('',*,*,#332,.T.);
#431=ORIENTED_EDGE('',*,*,#333,.T.);
#432=ORIENTED_EDGE('',*,*,#330,.F.);
#433=ORIENTED_EDGE('',*,*,#334,.F.);
#434=ORIENTED_EDGE('',*,*,#335,.F.);
#435=ORIENTED_EDGE('',*,*,#336,.F.);
#436=ORIENTED_EDGE('',*,*,#325,.T.);
#437=ORIENTED_EDGE('',*,*,#317,.F.);
#438=ORIENTED_EDGE('',*,*,#329,.F.);
#439=ORIENTED_EDGE('',*,*,#312,.T.);
#440=ORIENTED_EDGE('',*,*,#294,.T.);
#441=ORIENTED_EDGE('',*,*,#337,.T.);
#442=ORIENTED_EDGE('',*,*,#338,.T.);
#443=ORIENTED_EDGE('',*,*,#339,.T.);
#444=ORIENTED_EDGE('',*,*,#340,.T.);
#445=ORIENTED_EDGE('',*,*,#334,.T.);
#446=ORIENTED_EDGE('',*,*,#341,.F.);
#447=ORIENTED_EDGE('',*,*,#342,.F.);
#448=ORIENTED_EDGE('',*,*,#343,.T.);
#449=ORIENTED_EDGE('',*,*,#338,.F.);
#450=ORIENTED_EDGE('',*,*,#344,.F.);
#451=ORIENTED_EDGE('',*,*,#345,.T.);
#452=ORIENTED_EDGE('',*,*,#346,.F.);
#453=ORIENTED_EDGE('',*,*,#347,.F.);
#454=ORIENTED_EDGE('',*,*,#331,.F.);
#455=ORIENTED_EDGE('',*,*,#333,.F.);
#456=ORIENTED_EDGE('',*,*,#348,.T.);
#457=ORIENTED_EDGE('',*,*,#314,.T.);
#458=ORIENTED_EDGE('',*,*,#291,.T.);
#459=ORIENTED_EDGE('',*,*,#349,.F.);
#460=ORIENTED_EDGE('',*,*,#350,.T.);
#461=ORIENTED_EDGE('',*,*,#351,.T.);
#462=ORIENTED_EDGE('',*,*,#297,.T.);
#463=ORIENTED_EDGE('',*,*,#352,.F.);
#464=ORIENTED_EDGE('',*,*,#346,.T.);
#465=ORIENTED_EDGE('',*,*,#353,.T.);
#466=ORIENTED_EDGE('',*,*,#304,.T.);
#467=ORIENTED_EDGE('',*,*,#354,.T.);
#468=ORIENTED_EDGE('',*,*,#347,.T.);
#469=ORIENTED_EDGE('',*,*,#352,.T.);
#470=ORIENTED_EDGE('',*,*,#355,.T.);
#471=ORIENTED_EDGE('',*,*,#356,.T.);
#472=ORIENTED_EDGE('',*,*,#357,.T.);
#473=ORIENTED_EDGE('',*,*,#322,.T.);
#474=ORIENTED_EDGE('',*,*,#358,.F.);
#475=ORIENTED_EDGE('',*,*,#359,.T.);
#476=ORIENTED_EDGE('',*,*,#360,.T.);
#477=ORIENTED_EDGE('',*,*,#341,.T.);
#478=ORIENTED_EDGE('',*,*,#354,.F.);
#479=ORIENTED_EDGE('',*,*,#303,.T.);
#480=ORIENTED_EDGE('',*,*,#361,.T.);
#481=ORIENTED_EDGE('',*,*,#326,.T.);
#482=ORIENTED_EDGE('',*,*,#336,.T.);
#483=ORIENTED_EDGE('',*,*,#362,.T.);
#484=ORIENTED_EDGE('',*,*,#358,.T.);
#485=ORIENTED_EDGE('',*,*,#357,.F.);
#486=ORIENTED_EDGE('',*,*,#363,.T.);
#487=ORIENTED_EDGE('',*,*,#364,.F.);
#488=ORIENTED_EDGE('',*,*,#365,.F.);
#489=ORIENTED_EDGE('',*,*,#363,.F.);
#490=ORIENTED_EDGE('',*,*,#353,.F.);
#491=ORIENTED_EDGE('',*,*,#345,.F.);
#492=ORIENTED_EDGE('',*,*,#366,.T.);
#493=ORIENTED_EDGE('',*,*,#292,.T.);
#494=ORIENTED_EDGE('',*,*,#367,.F.);
#495=ORIENTED_EDGE('',*,*,#368,.T.);
#496=ORIENTED_EDGE('',*,*,#339,.F.);
#497=ORIENTED_EDGE('',*,*,#343,.F.);
#498=ORIENTED_EDGE('',*,*,#366,.F.);
#499=ORIENTED_EDGE('',*,*,#344,.T.);
#500=ORIENTED_EDGE('',*,*,#337,.F.);
#501=ORIENTED_EDGE('',*,*,#293,.F.);
#502=ORIENTED_EDGE('',*,*,#369,.T.);
#503=ORIENTED_EDGE('',*,*,#359,.F.);
#504=ORIENTED_EDGE('',*,*,#362,.F.);
#505=ORIENTED_EDGE('',*,*,#335,.T.);
#506=ORIENTED_EDGE('',*,*,#340,.F.);
#507=ORIENTED_EDGE('',*,*,#368,.F.);
#508=ORIENTED_EDGE('',*,*,#360,.F.);
#509=ORIENTED_EDGE('',*,*,#369,.F.);
#510=ORIENTED_EDGE('',*,*,#367,.T.);
#511=ORIENTED_EDGE('',*,*,#342,.T.);
#512=ORIENTED_EDGE('',*,*,#319,.T.);
#513=ORIENTED_EDGE('',*,*,#324,.T.);
#514=ORIENTED_EDGE('',*,*,#370,.F.);
#515=ORIENTED_EDGE('',*,*,#301,.F.);
#516=ORIENTED_EDGE('',*,*,#361,.F.);
#517=ORIENTED_EDGE('',*,*,#302,.T.);
#518=ORIENTED_EDGE('',*,*,#370,.T.);
#519=ORIENTED_EDGE('',*,*,#323,.T.);
#520=ORIENTED_EDGE('',*,*,#320,.T.);
#521=ORIENTED_EDGE('',*,*,#299,.T.);
#522=ORIENTED_EDGE('',*,*,#371,.F.);
#523=ORIENTED_EDGE('',*,*,#372,.F.);
#524=ORIENTED_EDGE('',*,*,#351,.F.);
#525=ORIENTED_EDGE('',*,*,#373,.T.);
#526=ORIENTED_EDGE('',*,*,#371,.T.);
#527=ORIENTED_EDGE('',*,*,#298,.T.);
#528=ORIENTED_EDGE('',*,*,#310,.T.);
#529=ORIENTED_EDGE('',*,*,#321,.T.);
#530=ORIENTED_EDGE('',*,*,#372,.T.);
#531=ORIENTED_EDGE('',*,*,#373,.F.);
#532=ORIENTED_EDGE('',*,*,#350,.F.);
#533=ORIENTED_EDGE('',*,*,#374,.F.);
#534=ORIENTED_EDGE('',*,*,#332,.F.);
#535=ORIENTED_EDGE('',*,*,#327,.F.);
#536=ORIENTED_EDGE('',*,*,#315,.F.);
#537=ORIENTED_EDGE('',*,*,#348,.F.);
#538=ORIENTED_EDGE('',*,*,#364,.T.);
#539=ORIENTED_EDGE('',*,*,#365,.T.);
#540=ORIENTED_EDGE('',*,*,#375,.T.);
#541=ORIENTED_EDGE('',*,*,#376,.T.);
#542=ORIENTED_EDGE('',*,*,#296,.T.);
#543=ORIENTED_EDGE('',*,*,#311,.T.);
#544=ORIENTED_EDGE('',*,*,#374,.T.);
#545=ORIENTED_EDGE('',*,*,#349,.T.);
#546=ORIENTED_EDGE('',*,*,#355,.F.);
#547=ORIENTED_EDGE('',*,*,#356,.F.);
#548=ORIENTED_EDGE('',*,*,#377,.T.);
#549=ORIENTED_EDGE('',*,*,#375,.F.);
#550=ORIENTED_EDGE('',*,*,#376,.F.);
#551=ORIENTED_EDGE('',*,*,#377,.F.);
#552=PLANE('',#612);
#553=PLANE('',#613);
#554=PLANE('',#617);
#555=PLANE('',#621);
#556=PLANE('',#624);
#557=PLANE('',#625);
#558=PLANE('',#628);
#559=PLANE('',#631);
#560=PLANE('',#634);
#561=PLANE('',#635);
#562=PLANE('',#645);
#563=PLANE('',#650);
#564=PLANE('',#651);
#565=PLANE('',#654);
#566=PLANE('',#657);
#567=PLANE('',#658);
#568=ADVANCED_FACE('',(#53),#552,.T.);
#569=ADVANCED_FACE('',(#54),#553,.T.);
#570=ADVANCED_FACE('',(#55),#41,.T.);
#571=ADVANCED_FACE('',(#56),#554,.F.);
#572=ADVANCED_FACE('',(#57),#555,.F.);
#573=ADVANCED_FACE('',(#58),#556,.T.);
#574=ADVANCED_FACE('',(#59),#557,.T.);
#575=ADVANCED_FACE('',(#60),#42,.T.);
#576=ADVANCED_FACE('',(#61),#558,.F.);
#577=ADVANCED_FACE('',(#62),#559,.T.);
#578=ADVANCED_FACE('',(#63),#560,.T.);
#579=ADVANCED_FACE('',(#64),#561,.T.);
#580=ADVANCED_FACE('',(#65),#19,.F.);
#581=ADVANCED_FACE('',(#66,#15,#16),#43,.T.);
#582=ADVANCED_FACE('',(#67),#20,.F.);
#583=ADVANCED_FACE('',(#68),#44,.T.);
#584=ADVANCED_FACE('',(#69),#45,.F.);
#585=ADVANCED_FACE('',(#70),#562,.F.);
#586=ADVANCED_FACE('',(#71),#46,.F.);
#587=ADVANCED_FACE('',(#72),#47,.F.);
#588=ADVANCED_FACE('',(#73),#563,.T.);
#589=ADVANCED_FACE('',(#74),#564,.F.);
#590=ADVANCED_FACE('',(#75),#48,.F.);
#591=ADVANCED_FACE('',(#76),#565,.F.);
#592=ADVANCED_FACE('',(#77),#49,.F.);
#593=ADVANCED_FACE('',(#78),#566,.F.);
#594=ADVANCED_FACE('',(#79),#567,.T.);
#595=ADVANCED_FACE('',(#80,#17,#18),#50,.F.);
#596=ADVANCED_FACE('',(#81),#51,.T.);
#597=ADVANCED_FACE('',(#82),#52,.F.);
#598=CLOSED_SHELL('',(#568,#569,#570,#571,#572,#573,#574,#575,#576,#577,
#578,#579,#580,#581,#582,#583,#584,#585,#586,#587,#588,#589,#590,#591,#592,
#593,#594,#595,#596,#597));
#599=DERIVED_UNIT_ELEMENT(#601,1.);
#600=DERIVED_UNIT_ELEMENT(#1237,-3.);
#601=(
MASS_UNIT()
NAMED_UNIT(*)
SI_UNIT(.KILO.,.GRAM.)
);
#602=DERIVED_UNIT((#599,#600));
#603=MEASURE_REPRESENTATION_ITEM('density measure',
POSITIVE_RATIO_MEASURE(7850.),#602);
#604=PROPERTY_DEFINITION_REPRESENTATION(#609,#606);
#605=PROPERTY_DEFINITION_REPRESENTATION(#610,#607);
#606=REPRESENTATION('material name',(#608),#1234);
#607=REPRESENTATION('density',(#603),#1234);
#608=DESCRIPTIVE_REPRESENTATION_ITEM('Steel','Steel');
#609=PROPERTY_DEFINITION('material property','material name',#1244);
#610=PROPERTY_DEFINITION('material property','density of part',#1244);
#611=AXIS2_PLACEMENT_3D('',#812,#662,#663);
#612=AXIS2_PLACEMENT_3D('',#813,#664,#665);
#613=AXIS2_PLACEMENT_3D('',#829,#671,#672);
#614=AXIS2_PLACEMENT_3D('',#852,#679,#680);
#615=AXIS2_PLACEMENT_3D('',#855,#681,#682);
#616=AXIS2_PLACEMENT_3D('',#859,#684,#685);
#617=AXIS2_PLACEMENT_3D('',#861,#687,#688);
#618=AXIS2_PLACEMENT_3D('',#866,#691,#692);
#619=AXIS2_PLACEMENT_3D('',#870,#694,#695);
#620=AXIS2_PLACEMENT_3D('',#874,#697,#698);
#621=AXIS2_PLACEMENT_3D('',#876,#700,#701);
#622=AXIS2_PLACEMENT_3D('',#881,#704,#705);
#623=AXIS2_PLACEMENT_3D('',#883,#706,#707);
#624=AXIS2_PLACEMENT_3D('',#885,#709,#710);
#625=AXIS2_PLACEMENT_3D('',#898,#715,#716);
#626=AXIS2_PLACEMENT_3D('',#902,#719,#720);
#627=AXIS2_PLACEMENT_3D('',#906,#722,#723);
#628=AXIS2_PLACEMENT_3D('',#908,#725,#726);
#629=AXIS2_PLACEMENT_3D('',#910,#727,#728);
#630=AXIS2_PLACEMENT_3D('',#916,#732,#733);
#631=AXIS2_PLACEMENT_3D('',#917,#734,#735);
#632=AXIS2_PLACEMENT_3D('',#919,#736,#737);
#633=AXIS2_PLACEMENT_3D('',#923,#739,#740);
#634=AXIS2_PLACEMENT_3D('',#925,#742,#743);
#635=AXIS2_PLACEMENT_3D('',#945,#749,#750);
#636=AXIS2_PLACEMENT_3D('',#947,#752,#753);
#637=AXIS2_PLACEMENT_3D('',#949,#754,#755);
#638=AXIS2_PLACEMENT_3D('',#977,#756,#757);
#639=AXIS2_PLACEMENT_3D('',#1000,#758,#759);
#640=AXIS2_PLACEMENT_3D('',#1001,#760,#761);
#641=AXIS2_PLACEMENT_3D('',#1075,#762,#763);
#642=AXIS2_PLACEMENT_3D('',#1077,#764,#765);
#643=AXIS2_PLACEMENT_3D('',#1127,#766,#767);
#644=AXIS2_PLACEMENT_3D('',#1129,#769,#770);
#645=AXIS2_PLACEMENT_3D('',#1169,#772,#773);
#646=AXIS2_PLACEMENT_3D('',#1170,#774,#775);
#647=AXIS2_PLACEMENT_3D('',#1171,#776,#777);
#648=AXIS2_PLACEMENT_3D('',#1173,#778,#779);
#649=AXIS2_PLACEMENT_3D('',#1175,#781,#782);
#650=AXIS2_PLACEMENT_3D('',#1176,#783,#784);
#651=AXIS2_PLACEMENT_3D('',#1178,#786,#787);
#652=AXIS2_PLACEMENT_3D('',#1179,#788,#789);
#653=AXIS2_PLACEMENT_3D('',#1180,#790,#791);
#654=AXIS2_PLACEMENT_3D('',#1181,#792,#793);
#655=AXIS2_PLACEMENT_3D('',#1182,#794,#795);
#656=AXIS2_PLACEMENT_3D('',#1184,#796,#797);
#657=AXIS2_PLACEMENT_3D('',#1186,#799,#800);
#658=AXIS2_PLACEMENT_3D('',#1188,#802,#803);
#659=AXIS2_PLACEMENT_3D('',#1190,#805,#806);
#660=AXIS2_PLACEMENT_3D('',#1229,#807,#808);
#661=AXIS2_PLACEMENT_3D('',#1230,#809,#810);
#662=DIRECTION('axis',(0.,0.,1.));
#663=DIRECTION('refdir',(1.,0.,0.));
#664=DIRECTION('center_axis',(-1.,-1.80318722916209E-14,-4.00387995905159E-29));
#665=DIRECTION('ref_axis',(1.80318722916209E-14,-1.,2.44249065427948E-15));
#666=DIRECTION('',(1.34656595638174E-15,1.,1.79856167954307E-16));
#667=DIRECTION('',(0.,-2.22044604925031E-15,1.));
#668=DIRECTION('',(1.80318722916209E-14,-1.,2.44249065427948E-15));
#669=DIRECTION('',(0.,-2.22044604925031E-15,1.));
#670=DIRECTION('',(1.34656595638173E-15,1.,1.79856167954304E-16));
#671=DIRECTION('center_axis',(9.9698027611339E-13,1.79856167952962E-16,
-1.));
#672=DIRECTION('ref_axis',(1.34656595638173E-15,1.,1.79856167954304E-16));
#673=DIRECTION('',(-1.34656595638173E-15,-1.,-1.79856167954303E-16));
#674=DIRECTION('',(-1.,0.,0.));
#675=DIRECTION('',(-4.92714683922333E-16,-1.,-4.15264266260557E-13));
#676=DIRECTION('',(-1.,0.,0.));
#677=DIRECTION('',(-4.92714683922333E-16,-1.,-4.15264266260557E-13));
#678=DIRECTION('',(-1.34656595638173E-15,-1.,-1.79856167954304E-16));
#679=DIRECTION('center_axis',(1.11418810685652E-15,-1.,-1.08611909687692E-16));
#680=DIRECTION('ref_axis',(0.707106781185844,0.,0.707106781187251));
#681=DIRECTION('center_axis',(3.22841402175607E-15,1.,2.3698919794053E-14));
#682=DIRECTION('ref_axis',(0.707106781185844,0.,0.707106781187251));
#683=DIRECTION('',(-1.11418810685652E-15,1.,1.08611909687692E-16));
#684=DIRECTION('center_axis',(5.79392319288104E-15,-1.,-1.17016260240726E-14));
#685=DIRECTION('ref_axis',(0.707106781185844,0.,0.707106781187251));
#686=DIRECTION('',(1.11418810685652E-15,-1.,-1.08611909687692E-16));
#687=DIRECTION('center_axis',(5.79392319288104E-15,-1.,-1.17016260240726E-14));
#688=DIRECTION('ref_axis',(1.20396233056043E-14,-1.17016260240725E-14,1.));
#689=DIRECTION('',(-2.84912377819578E-14,-1.17016260240728E-14,1.));
#690=DIRECTION('',(1.,2.22044604925031E-15,9.9698027611339E-13));
#691=DIRECTION('center_axis',(5.79392319288104E-15,-1.,-1.17016260240726E-14));
#692=DIRECTION('ref_axis',(1.,-1.34656595638174E-15,2.8310687127931E-14));
#693=DIRECTION('',(-1.,-8.8197967447882E-14,1.51461293802434E-28));
#694=DIRECTION('center_axis',(5.79392319288104E-15,-1.,-1.17016260240726E-14));
#695=DIRECTION('ref_axis',(0.707106781186548,0.,0.707106781186548));
#696=DIRECTION('',(0.,-2.22044604925031E-15,1.));
#697=DIRECTION('center_axis',(5.79392319288104E-15,-1.,-1.17016260240726E-14));
#698=DIRECTION('ref_axis',(-4.63873953494134E-14,1.08611909689611E-16,-1.));
#699=DIRECTION('',(1.,2.22044604925031E-15,9.9698027611339E-13));
#700=DIRECTION('center_axis',(-1.,-1.11418810685641E-15,-9.96160529544032E-13));
#701=DIRECTION('ref_axis',(-9.96160529544032E-13,-1.99074473381087E-14,
1.));
#702=DIRECTION('',(9.96160529544032E-13,2.36989197940497E-14,-1.));
#703=DIRECTION('',(1.34656595638173E-15,1.,1.798561679543E-16));
#704=DIRECTION('center_axis',(1.,-4.92714684077609E-16,1.38917290593969E-16));
#705=DIRECTION('ref_axis',(-4.92714684077607E-16,-1.,-1.55211197809564E-14));
#706=DIRECTION('center_axis',(1.,-4.92714684077609E-16,1.38917290593969E-16));
#707=DIRECTION('ref_axis',(-4.92714684077607E-16,-1.,-1.55211197809564E-14));
#708=DIRECTION('',(-4.92714683922333E-16,-1.,-4.15264266260557E-13));
#709=DIRECTION('center_axis',(9.9698027611339E-13,1.79856167952962E-16,
-1.));
#710=DIRECTION('ref_axis',(1.34656595638173E-15,1.,1.79856167954304E-16));
#711=DIRECTION('',(-4.92714683922333E-16,-1.,-4.15264266260557E-13));
#712=DIRECTION('',(-1.,0.,0.));
#713=DIRECTION('',(1.,2.22044604925031E-15,9.9698027611339E-13));
#714=DIRECTION('',(-1.34656595638173E-15,-1.,-1.79856167954304E-16));
#715=DIRECTION('center_axis',(-9.9698027611339E-13,-1.08611909688803E-16,
1.));
#716=DIRECTION('ref_axis',(-7.76611890264E-16,-1.,-1.08611909689577E-16));
#717=DIRECTION('',(-7.76611890264E-16,-1.,-1.08611909689577E-16));
#718=DIRECTION('',(1.,2.22044604925031E-15,9.9698027611339E-13));
#719=DIRECTION('center_axis',(-2.15382287586253E-15,1.,1.99840082901007E-15));
#720=DIRECTION('ref_axis',(0.707106781186548,0.,0.707106781186548));
#721=DIRECTION('',(2.15382287586253E-15,-1.,-1.99840082901007E-15));
#722=DIRECTION('center_axis',(3.22841402175607E-15,1.,2.3698919794053E-14));
#723=DIRECTION('ref_axis',(0.707106781186548,0.,0.707106781186548));
#724=DIRECTION('',(-2.15382287586253E-15,1.,1.99840082901007E-15));
#725=DIRECTION('center_axis',(3.22841402175607E-15,1.,2.3698919794053E-14));
#726=DIRECTION('ref_axis',(1.,-3.22841402175606E-15,-5.82243711177398E-16));
#727=DIRECTION('center_axis',(3.22841402175607E-15,1.,2.3698919794053E-14));
#728=DIRECTION('ref_axis',(-4.63873953494134E-14,1.08611909689611E-16,-1.));
#729=DIRECTION('',(0.,-2.22044604925031E-15,1.));
#730=DIRECTION('',(1.,-3.23722530263247E-14,1.06969538747969E-27));
#731=DIRECTION('',(0.,-2.22044604925031E-15,1.));
#732=DIRECTION('center_axis',(3.22841402175607E-15,1.,2.3698919794053E-14));
#733=DIRECTION('ref_axis',(1.,-1.34656595638174E-15,2.8310687127931E-14));
#734=DIRECTION('center_axis',(-1.13280425989737E-27,-1.99840082901007E-15,
1.));
#735=DIRECTION('ref_axis',(-1.80318722916209E-14,1.,1.99840082901006E-15));
#736=DIRECTION('center_axis',(8.20415341429852E-29,-2.44249065427886E-15,
-1.));
#737=DIRECTION('ref_axis',(-1.80318722916209E-14,1.,-2.44249065427886E-15));
#738=DIRECTION('',(-7.52868791879857E-15,-1.,3.08150465953926E-15));
#739=DIRECTION('center_axis',(8.20415341429852E-29,-2.44249065427886E-15,
-1.));
#740=DIRECTION('ref_axis',(-1.80318722916209E-14,1.,-2.44249065427887E-15));
#741=DIRECTION('',(-7.52868791879857E-15,-1.,3.08150465953926E-15));
#742=DIRECTION('center_axis',(-1.,7.52868791879857E-15,1.67170453453349E-29));
#743=DIRECTION('ref_axis',(-7.52868791879857E-15,-1.,3.08150465953927E-15));
#744=DIRECTION('',(1.34656595638174E-15,1.,1.79856167954307E-16));
#745=DIRECTION('',(0.,-2.22044604925031E-15,1.));
#746=DIRECTION('',(0.,-2.22044604925031E-15,1.));
#747=DIRECTION('',(-7.52868791879857E-15,-1.,3.08150465953926E-15));
#748=DIRECTION('',(1.34656595638173E-15,1.,1.79856167954304E-16));
#749=DIRECTION('center_axis',(1.,2.15382287586253E-15,4.7824474954939E-30));
#750=DIRECTION('ref_axis',(-2.15382287586253E-15,1.,-2.44249065427887E-15));
#751=DIRECTION('',(7.76611890264E-16,1.,1.08611909689577E-16));
#752=DIRECTION('center_axis',(1.83928064044407E-15,1.,-1.77225219273429E-14));
#753=DIRECTION('ref_axis',(-0.707106781186565,-1.1259135427462E-14,-0.70710678118653));
#754=DIRECTION('center_axis',(1.34656595638173E-15,1.,1.79856167954304E-16));
#755=DIRECTION('ref_axis',(1.,-1.34656595638174E-15,2.8310687127931E-14));
#756=DIRECTION('center_axis',(-1.34656595638173E-15,-1.,-1.79856167954304E-16));
#757=DIRECTION('ref_axis',(1.,-1.34656595638174E-15,2.8310687127931E-14));
#758=DIRECTION('center_axis',(1.34656595638173E-15,1.,1.79856167954304E-16));
#759=DIRECTION('ref_axis',(1.,-1.34656595638174E-15,2.8310687127931E-14));
#760=DIRECTION('center_axis',(1.34656595638173E-15,1.,1.79856167954304E-16));
#761=DIRECTION('ref_axis',(1.,-1.34656595638174E-15,2.8310687127931E-14));
#762=DIRECTION('center_axis',(1.83928064047718E-15,1.,-1.77225219273231E-14));
#763=DIRECTION('ref_axis',(-0.707106781186994,-1.1259135427462E-14,-0.707106781186101));
#764=DIRECTION('center_axis',(-1.34656595638173E-15,-1.,-1.79856167954304E-16));
#765=DIRECTION('ref_axis',(1.,-1.34656595638174E-15,2.8310687127931E-14));
#766=DIRECTION('center_axis',(1.34656595638173E-15,1.,1.79856167954304E-16));
#767=DIRECTION('ref_axis',(1.,-1.34656595638174E-15,2.8310687127931E-14));
#768=DIRECTION('',(1.34656595638173E-15,1.,1.79856167954304E-16));
#769=DIRECTION('center_axis',(-6.6264316038565E-29,2.44249065427887E-15,
1.));
#770=DIRECTION('ref_axis',(-1.,-1.80318722916214E-14,-2.20881053461883E-29));
#771=DIRECTION('',(-6.6264316038565E-29,2.44249065427887E-15,1.));
#772=DIRECTION('center_axis',(-1.13280425989737E-27,-1.99840082901007E-15,
1.));
#773=DIRECTION('ref_axis',(-1.80318722916209E-14,1.,1.99840082901006E-15));
#774=DIRECTION('center_axis',(-8.20415341429852E-29,2.44249065427886E-15,
1.));
#775=DIRECTION('ref_axis',(-1.80318722916209E-14,1.,-2.44249065427886E-15));
#776=DIRECTION('center_axis',(0.,-2.22044604925031E-15,1.));
#777=DIRECTION('ref_axis',(1.,-1.76789615162562E-14,-3.94430452610506E-29));
#778=DIRECTION('center_axis',(-8.20415341429852E-29,2.44249065427886E-15,
1.));
#779=DIRECTION('ref_axis',(-1.80318722916209E-14,1.,-2.44249065427887E-15));
#780=DIRECTION('',(0.,-2.22044604925031E-15,1.));
#781=DIRECTION('center_axis',(0.,-2.22044604925031E-15,1.));
#782=DIRECTION('ref_axis',(1.,-1.76789615162562E-14,-3.99360833268132E-29));
#783=DIRECTION('center_axis',(-1.,7.52868791879857E-15,1.67170453453349E-29));
#784=DIRECTION('ref_axis',(-7.52868791879857E-15,-1.,3.08150465953927E-15));
#785=DIRECTION('',(-7.52868791879857E-15,-1.,3.08150465953926E-15));
#786=DIRECTION('center_axis',(-1.13280425989737E-27,-1.99840082901007E-15,
1.));
#787=DIRECTION('ref_axis',(-1.80318722916209E-14,1.,1.99840082901006E-15));
#788=DIRECTION('center_axis',(-1.,0.,0.));
#789=DIRECTION('ref_axis',(0.,-1.,-1.55211197809564E-14));
#790=DIRECTION('center_axis',(1.,-4.92714684077609E-16,1.38917290593969E-16));
#791=DIRECTION('ref_axis',(-4.92714684077607E-16,-1.,-1.55211197809564E-14));
#792=DIRECTION('center_axis',(1.,-4.92714684077606E-16,1.38917290593981E-16));
#793=DIRECTION('ref_axis',(-4.92714684077606E-16,-1.,-1.55211197809564E-14));
#794=DIRECTION('center_axis',(-1.,0.,0.));
#795=DIRECTION('ref_axis',(0.,-1.,-1.55211197809564E-14));
#796=DIRECTION('center_axis',(1.,-4.92714684077609E-16,1.38917290593972E-16));
#797=DIRECTION('ref_axis',(-4.92714684077607E-16,-1.,-1.55211197809564E-14));
#798=DIRECTION('',(-1.,0.,0.));
#799=DIRECTION('center_axis',(1.,-4.92714684077609E-16,1.38917290593937E-16));
#800=DIRECTION('ref_axis',(-4.92714684077609E-16,-1.,-1.55211197809564E-14));
#801=DIRECTION('',(-4.92714683922333E-16,-1.,-4.15264266260557E-13));
#802=DIRECTION('center_axis',(9.9698027611339E-13,1.79856167952962E-16,
-1.));
#803=DIRECTION('ref_axis',(1.34656595638173E-15,1.,1.79856167954304E-16));
#804=DIRECTION('',(-1.34656595638173E-15,-1.,-1.79856167954304E-16));
#805=DIRECTION('center_axis',(-7.76611890264E-16,-1.,-1.08611909689577E-16));
#806=DIRECTION('ref_axis',(-4.63873953494134E-14,1.08611909689611E-16,-1.));
#807=DIRECTION('center_axis',(1.34656595638173E-15,1.,1.79856167954304E-16));
#808=DIRECTION('ref_axis',(1.,-1.34656595638174E-15,2.8310687127931E-14));
#809=DIRECTION('center_axis',(1.,-4.14910271381156E-16,2.98906198927099E-16));
#810=DIRECTION('ref_axis',(4.14910271381153E-16,1.,1.55211197809564E-14));
#811=DIRECTION('',(1.,-4.14910271381156E-16,2.98906198927099E-16));
#812=CARTESIAN_POINT('',(0.,0.,0.));
#813=CARTESIAN_POINT('Origin',(-36.0562288002014,49.8369088146699,10.1647335529247));
#814=CARTESIAN_POINT('',(-36.0562288002046,47.9361081326246,10.6647335529246));
#815=CARTESIAN_POINT('',(-36.0562288002013,47.9361096272724,10.1647335529257));
#816=CARTESIAN_POINT('Ctrl Pts',(-36.0562288002013,47.9361081326246,10.6647335529224));
#817=CARTESIAN_POINT('Ctrl Pts',(-36.0562288002013,47.9361101366415,10.4971199119723));
#818=CARTESIAN_POINT('Ctrl Pts',(-36.0562288002013,47.9361096272725,10.3304221218618));
#819=CARTESIAN_POINT('Ctrl Pts',(-36.0562288002013,47.9361096272725,10.1647335529257));
#820=CARTESIAN_POINT('',(-36.0562288002012,47.2361096272716,10.6647335529247));
#821=CARTESIAN_POINT('',(-36.0562288002046,49.8369088146708,10.6647335529246));
#822=CARTESIAN_POINT('',(-36.0562288002011,47.2361096272716,12.6647335529247));
#823=CARTESIAN_POINT('',(-36.0562288002013,47.2361096272716,10.1647335529247));
#824=CARTESIAN_POINT('',(-36.0562288002011,49.8369088146699,12.6647335529247));
#825=CARTESIAN_POINT('',(-36.0562288002011,49.8369088146699,12.6647335529247));
#826=CARTESIAN_POINT('',(-36.0562288002047,49.8369088146707,10.1647335529246));
#827=CARTESIAN_POINT('',(-36.0562288002014,49.8369088146699,10.1647335529247));
#828=CARTESIAN_POINT('',(-36.0562288002047,49.8369088146708,10.1647335529246));
#829=CARTESIAN_POINT('Origin',(7.94377135002402,39.1369084769289,-33.8352664470744));
#830=CARTESIAN_POINT('',(8.44377135002421,42.5361111217616,-33.8352664470744));
#831=CARTESIAN_POINT('',(7.94377134998231,42.5361096272724,-33.8352664470744));
#832=CARTESIAN_POINT('Ctrl Pts',(8.44377135002203,42.5361111217616,-33.8352664470739));
#833=CARTESIAN_POINT('Ctrl Pts',(8.27615770908574,42.5361091178505,-33.8352664470741));
#834=CARTESIAN_POINT('Ctrl Pts',(8.10945991896264,42.5361096272716,-33.8352664470743));
#835=CARTESIAN_POINT('Ctrl Pts',(7.94377134998231,42.5361096272716,-33.8352664470744));
#836=CARTESIAN_POINT('',(8.44377134993553,43.2361096272717,-33.8352664470747));
#837=CARTESIAN_POINT('',(8.44377135002422,49.8369088146708,-33.8352664470744));
#838=CARTESIAN_POINT('',(10.4437713499355,43.2361096272717,-33.8352664470742));
#839=CARTESIAN_POINT('',(9.94377134993535,43.2361096272717,-33.8352664470747));
#840=CARTESIAN_POINT('',(10.4437713499355,38.5369084769288,-33.8352664470741));
#841=CARTESIAN_POINT('',(10.4437713499354,47.4014575774784,-33.8352664470713));
#842=CARTESIAN_POINT('',(8.44377134993546,38.5369084769288,-33.8352664470741));
#843=CARTESIAN_POINT('',(9.94377134993535,38.5369084769288,-33.8352664470747));
#844=CARTESIAN_POINT('',(8.44377134993539,39.2369069824389,-33.8352664470747));
#845=CARTESIAN_POINT('',(8.44377134993539,47.4014575774784,-33.8352664470713));
#846=CARTESIAN_POINT('',(7.94377135002985,39.2369084769296,-33.8352664470744));
#847=CARTESIAN_POINT('Ctrl Pts',(7.94377135002985,39.2369084769288,-33.8352664470744));
#848=CARTESIAN_POINT('Ctrl Pts',(8.10918719589807,39.2369084769288,-33.8352664470743));
#849=CARTESIAN_POINT('Ctrl Pts',(8.27589128508923,39.2369089895351,-33.8352664470741));
#850=CARTESIAN_POINT('Ctrl Pts',(8.44377134993546,39.2369069824388,-33.8352664470739));
#851=CARTESIAN_POINT('',(7.94377135002403,49.8369088146707,-33.8352664470744));
#852=CARTESIAN_POINT('Origin',(9.44377135002017,40.8869085072673,-29.8352664470724));
#853=CARTESIAN_POINT('',(9.44377135001919,31.936908199863,-28.8352664470724));
#854=CARTESIAN_POINT('',(10.4437713500202,31.9369081998631,-29.8352664470714));
#855=CARTESIAN_POINT('Origin',(9.44377135002018,31.9369081998626,-29.8352664470724));
#856=CARTESIAN_POINT('',(10.4437711997933,49.8369088146715,-29.8352664470714));
#857=CARTESIAN_POINT('',(10.4437713500202,40.8869085072673,-29.8352664470714));
#858=CARTESIAN_POINT('',(9.44377135001917,49.8369088146715,-28.8352664470724));
#859=CARTESIAN_POINT('Origin',(9.44377135002016,49.8369088146715,-29.8352664470724));
#860=CARTESIAN_POINT('',(9.44377135001918,40.8869085072673,-28.8352664470724));
#861=CARTESIAN_POINT('Origin',(-1.77700880021298,49.8369088146715,-38.9352664470772));
#862=CARTESIAN_POINT('',(10.4437711997934,49.8369088146716,-33.8352664470719));
#863=CARTESIAN_POINT('',(10.4437711997932,49.8369088146715,-28.0827224160319));
#864=CARTESIAN_POINT('',(7.94377119979325,49.8369088146715,-33.8352664470744));
#865=CARTESIAN_POINT('',(7.94377119979325,49.8369088146715,-33.8352664470744));
#866=CARTESIAN_POINT('Origin',(7.94377119979529,49.8369088146714,10.1647335529255));
#867=CARTESIAN_POINT('',(-32.0562288001978,49.8369088146702,12.6647335529247));
#868=CARTESIAN_POINT('',(-31.0562288001977,49.8369088146703,12.6647335529247));
#869=CARTESIAN_POINT('',(-31.0562288001979,49.8369088146703,11.6647335529248));
#870=CARTESIAN_POINT('Origin',(-32.0562288001978,49.8369088146713,11.6647335529248));
#871=CARTESIAN_POINT('',(-31.0562288002011,49.8369088146711,10.1647335529249));
#872=CARTESIAN_POINT('',(-31.0562288001979,49.8369088146703,10.1647335529247));
#873=CARTESIAN_POINT('',(7.94377119979679,49.8369088146715,-28.8352664470739));
#874=CARTESIAN_POINT('Origin',(7.94377119979856,49.8369088146714,10.1647335529258));
#875=CARTESIAN_POINT('',(7.94377119979679,49.8369088146715,-28.8352664470739));
#876=CARTESIAN_POINT('Origin',(10.4437713500235,31.9369081998631,-33.1352664470724));
#877=CARTESIAN_POINT('',(10.4437713500242,31.9369081998632,-33.8352664470719));
#878=CARTESIAN_POINT('',(10.4437713500099,31.9369081998628,-19.4877664470613));
#879=CARTESIAN_POINT('',(10.4437713499355,34.5369084769288,-33.8352664470742));
#880=CARTESIAN_POINT('',(10.4437713500241,49.8369088146708,-33.8352664470719));
#881=CARTESIAN_POINT('Origin',(10.4437713499354,36.5369084769288,-33.8352664470742));
#882=CARTESIAN_POINT('',(10.4437713499355,47.2361096272717,-33.8352664470741));
#883=CARTESIAN_POINT('Origin',(10.4437713499354,45.2361096272717,-33.8352664470741));
#884=CARTESIAN_POINT('',(10.4437713499354,47.4014575774784,-33.8352664470713));
#885=CARTESIAN_POINT('Origin',(7.94377135002401,31.9369081998632,-33.8352664470744));
#886=CARTESIAN_POINT('',(8.44377134993538,33.8369099714187,-33.835266447077));
#887=CARTESIAN_POINT('',(7.94377135002984,33.8369084769296,-33.8352664470744));
#888=CARTESIAN_POINT('Ctrl Pts',(8.44377134998174,33.8369099714187,-33.8352664470739));
#889=CARTESIAN_POINT('Ctrl Pts',(8.27589128511986,33.8369079643224,-33.8352664470741));
#890=CARTESIAN_POINT('Ctrl Pts',(8.10918719591326,33.8369084769288,-33.8352664470743));
#891=CARTESIAN_POINT('Ctrl Pts',(7.94377135002984,33.8369084769288,-33.8352664470744));
#892=CARTESIAN_POINT('',(8.44377134993546,34.5369084769288,-33.8352664470742));
#893=CARTESIAN_POINT('',(8.44377134993539,47.4014575774784,-33.8352664470713));
#894=CARTESIAN_POINT('',(9.94377134993535,34.5369084769288,-33.8352664470747));
#895=CARTESIAN_POINT('',(7.94377135002405,31.9369081998632,-33.8352664470744));
#896=CARTESIAN_POINT('',(7.94377135002405,31.9369081998632,-33.8352664470744));
#897=CARTESIAN_POINT('',(7.94377135002403,49.8369088146707,-33.8352664470744));
#898=CARTESIAN_POINT('Origin',(7.94377135001905,49.8369088146715,-28.8352664470739));
#899=CARTESIAN_POINT('',(7.94377119979677,31.936908199863,-28.8352664470739));
#900=CARTESIAN_POINT('',(7.94377135001905,49.8369088146712,-28.8352664470739));
#901=CARTESIAN_POINT('',(7.94377119979677,31.936908199863,-28.8352664470739));
#902=CARTESIAN_POINT('Origin',(-32.0562288001978,36.4119083535637,11.6647335529247));
#903=CARTESIAN_POINT('',(-32.0562288001978,31.9369081998615,12.6647335529247));
#904=CARTESIAN_POINT('',(-32.0562288001978,36.4119083535637,12.6647335529247));
#905=CARTESIAN_POINT('',(-31.0562288001978,31.9369081998615,11.6647335529247));
#906=CARTESIAN_POINT('Origin',(-32.0562288001978,31.9369081998625,11.6647335529247));
#907=CARTESIAN_POINT('',(-31.0562288001978,36.4119083535637,11.6647335529247));
#908=CARTESIAN_POINT('Origin',(-14.9903229015683,31.9369081998626,-5.84026644707546));
#909=CARTESIAN_POINT('',(-31.0562288002012,31.9369081998622,10.1647335529249));
#910=CARTESIAN_POINT('Origin',(7.94377119979855,31.9369081998626,10.1647335529258));
#911=CARTESIAN_POINT('',(-31.0562288001978,31.9369081998615,10.1647335529247));
#912=CARTESIAN_POINT('',(-36.0562288002012,31.9369081998617,12.6647335529247));
#913=CARTESIAN_POINT('',(-36.0562288002012,31.9369081998617,12.6647335529247));
#914=CARTESIAN_POINT('',(-36.0562288002047,31.9369081998624,10.1647335529237));
#915=CARTESIAN_POINT('',(-36.0562288002014,31.9369081998617,10.1647335529247));
#916=CARTESIAN_POINT('Origin',(7.94377119979527,31.9369081998625,10.1647335529255));
#917=CARTESIAN_POINT('Origin',(-33.5562288001994,40.8869085072659,12.6647335529248));
#918=CARTESIAN_POINT('',(-36.0562288002011,43.2361096272715,12.6647335529247));
#919=CARTESIAN_POINT('Origin',(-36.0562286500141,45.2361096272716,12.6647335529247));
#920=CARTESIAN_POINT('',(-36.0562288002011,38.5369084769294,12.6647335529247));
#921=CARTESIAN_POINT('',(-36.0562288002011,47.8361096272715,12.6647335529247));
#922=CARTESIAN_POINT('',(-36.0562288002012,34.5369084769294,12.6647335529247));
#923=CARTESIAN_POINT('Origin',(-36.0562286500137,36.5369084769294,12.6647335529247));
#924=CARTESIAN_POINT('',(-36.0562288002011,47.8361096272715,12.6647335529247));
#925=CARTESIAN_POINT('Origin',(-36.0562288002013,43.2361096272715,10.1647335529247));
#926=CARTESIAN_POINT('',(-36.0562288002045,39.2369069822817,10.6647335529246));
#927=CARTESIAN_POINT('',(-36.0562288002013,39.2369084769296,10.1647335529231));
#928=CARTESIAN_POINT('Ctrl Pts',(-36.0562288002013,39.2369069822817,10.6647335529224));
#929=CARTESIAN_POINT('Ctrl Pts',(-36.0562288002013,39.2369089862987,10.4971199119714));
#930=CARTESIAN_POINT('Ctrl Pts',(-36.0562288002013,39.2369084769296,10.33042212186));
#931=CARTESIAN_POINT('Ctrl Pts',(-36.0562288002013,39.2369084769296,10.164733552923));
#932=CARTESIAN_POINT('',(-36.0562288002011,38.5369084769294,10.6647335529247));
#933=CARTESIAN_POINT('',(-36.0562288002045,49.8369088146708,10.6647335529246));
#934=CARTESIAN_POINT('',(-36.0562288002014,38.5369084769294,10.1647335529247));
#935=CARTESIAN_POINT('',(-36.0562288002013,43.2361096272715,10.6647335529247));
#936=CARTESIAN_POINT('',(-36.0562288002014,43.2361096272715,10.1647335529247));
#937=CARTESIAN_POINT('',(-36.0562288002013,42.5361111219204,10.6647335529247));
#938=CARTESIAN_POINT('',(-36.0562288002012,47.8361096272715,10.6647335529247));
#939=CARTESIAN_POINT('',(-36.0562288002013,42.5361096272725,10.1647335529257));
#940=CARTESIAN_POINT('Ctrl Pts',(-36.0562288002013,42.5361096272725,10.1647335529258));
#941=CARTESIAN_POINT('Ctrl Pts',(-36.0562288002013,42.5361096272725,10.3304221218626));
#942=CARTESIAN_POINT('Ctrl Pts',(-36.0562288002013,42.5361091179034,10.4971199119739));
#943=CARTESIAN_POINT('Ctrl Pts',(-36.0562288002013,42.5361111219204,10.6647335529248));
#944=CARTESIAN_POINT('',(-36.0562288002047,49.8369088146708,10.1647335529246));
#945=CARTESIAN_POINT('Origin',(-31.0562288001978,31.9369081998615,10.1647335529247));
#946=CARTESIAN_POINT('',(-31.0562288002011,49.8369088146712,10.1647335529246));
#947=CARTESIAN_POINT('Origin',(7.94377134993844,45.2361096272724,10.1647335529257));
#948=CARTESIAN_POINT('',(7.94377134998232,47.9361096272724,-33.8352664470744));
#949=CARTESIAN_POINT('Origin',(7.94377134993845,47.9361096272724,10.1647335529257));
#950=CARTESIAN_POINT('',(8.44377134993546,47.9361081327817,-33.8352664470716));
#951=CARTESIAN_POINT('Ctrl Pts',(7.94377134998232,47.9361096272716,-33.8352664470744));
#952=CARTESIAN_POINT('Ctrl Pts',(8.10945991893412,47.9361096272716,-33.8352664470743));
#953=CARTESIAN_POINT('Ctrl Pts',(8.27615770902835,47.9361101366927,-33.8352664470741));
#954=CARTESIAN_POINT('Ctrl Pts',(8.44377134993546,47.9361081327817,-33.8352664470739));
#955=CARTESIAN_POINT('Ctrl Pts',(8.44377134993546,47.9361081327817,-33.8352664470654));
#956=CARTESIAN_POINT('Ctrl Pts',(8.44377134993546,47.9361091296069,-33.834318973144));
#957=CARTESIAN_POINT('Ctrl Pts',(8.44377134993546,47.9361096272716,-33.8333719717454));
#958=CARTESIAN_POINT('Ctrl Pts',(8.44377134993546,47.9361096272716,-33.4991798319829));
#959=CARTESIAN_POINT('Ctrl Pts',(8.44377134993546,47.8580975306648,-33.1069682646201));
#960=CARTESIAN_POINT('Ctrl Pts',(8.44377134993546,47.6030550017186,-32.4912163387672));
#961=CARTESIAN_POINT('Ctrl Pts',(8.44377134993546,47.3809001261612,-32.1587207130843));
#962=CARTESIAN_POINT('Ctrl Pts',(8.44377134993546,46.9096540883556,-31.6874541535789));
#963=CARTESIAN_POINT('Ctrl Pts',(8.44377134993546,46.577183437434,-31.4652921961488));
#964=CARTESIAN_POINT('Ctrl Pts',(8.44377134993546,45.9614857402815,-31.2102508865282));
#965=CARTESIAN_POINT('Ctrl Pts',(8.44377134993546,45.569318700215,-31.1322397017813));
#966=CARTESIAN_POINT('Ctrl Pts',(8.44377134993546,44.9029005543283,-31.1322397017813));
#967=CARTESIAN_POINT('Ctrl Pts',(8.44377134993546,44.5107335142618,-31.2102508865282));
#968=CARTESIAN_POINT('Ctrl Pts',(8.44377134993546,43.8950358171093,-31.4652921961487));
#969=CARTESIAN_POINT('Ctrl Pts',(8.44377134993546,43.5625651661877,-31.6874541535789));
#970=CARTESIAN_POINT('Ctrl Pts',(8.44377134993546,43.0913191283821,-32.1587207130843));
#971=CARTESIAN_POINT('Ctrl Pts',(8.44377134993546,42.8691642528246,-32.4912163387671));
#972=CARTESIAN_POINT('Ctrl Pts',(8.44377134993546,42.6141217238784,-33.1069682646201));
#973=CARTESIAN_POINT('Ctrl Pts',(8.44377134993546,42.5361096272716,-33.4991798319828));
#974=CARTESIAN_POINT('Ctrl Pts',(8.44377134993546,42.5361096272716,-33.8333719717484));
#975=CARTESIAN_POINT('Ctrl Pts',(8.44377134993546,42.5361101249363,-33.83431897315));
#976=CARTESIAN_POINT('Ctrl Pts',(8.44377134993546,42.5361111217616,-33.8352664470744));
#977=CARTESIAN_POINT('Origin',(7.94377134993844,42.5361096272724,10.1647335529257));
#978=CARTESIAN_POINT('Ctrl Pts',(-36.056228800195,42.5361111219204,10.6647335529248));
#979=CARTESIAN_POINT('Ctrl Pts',(-36.0552812761762,42.5361101249898,10.6647335529248));
#980=CARTESIAN_POINT('Ctrl Pts',(-36.05433422473,42.5361096272725,10.6647335529248));
#981=CARTESIAN_POINT('Ctrl Pts',(-35.7201420349701,42.5361096272725,10.6647335529248));
#982=CARTESIAN_POINT('Ctrl Pts',(-35.3279304676073,42.6141217238793,10.6647335529248));
#983=CARTESIAN_POINT('Ctrl Pts',(-34.7121785417544,42.8691642528255,10.6647335529248));
#984=CARTESIAN_POINT('Ctrl Pts',(-34.3796829160716,43.091319128383,10.6647335529248));
#985=CARTESIAN_POINT('Ctrl Pts',(-33.9084163565661,43.5625651661886,10.6647335529248));
#986=CARTESIAN_POINT('Ctrl Pts',(-33.686254399136,43.8950358171101,10.6647335529248));
#987=CARTESIAN_POINT('Ctrl Pts',(-33.4312130895154,44.5107335142627,10.6647335529248));
#988=CARTESIAN_POINT('Ctrl Pts',(-33.3532019047685,44.9029005543292,10.6647335529248));
#989=CARTESIAN_POINT('Ctrl Pts',(-33.3532019047685,45.5693187002158,10.6647335529248));
#990=CARTESIAN_POINT('Ctrl Pts',(-33.4312130895154,45.9614857402823,10.6647335529248));
#991=CARTESIAN_POINT('Ctrl Pts',(-33.686254399136,46.5771834374348,10.6647335529248));
#992=CARTESIAN_POINT('Ctrl Pts',(-33.9084163565662,46.9096540883564,10.6647335529248));
#993=CARTESIAN_POINT('Ctrl Pts',(-34.3796829160716,47.380900126162,10.6647335529248));
#994=CARTESIAN_POINT('Ctrl Pts',(-34.7121785417544,47.6030550017195,10.6647335529248));
#995=CARTESIAN_POINT('Ctrl Pts',(-35.3279304676073,47.8580975306657,10.6647335529248));
#996=CARTESIAN_POINT('Ctrl Pts',(-35.7201420349701,47.9361096272725,10.6647335529248));
#997=CARTESIAN_POINT('Ctrl Pts',(-36.0543342247332,47.9361096272725,10.6647335529248));
#998=CARTESIAN_POINT('Ctrl Pts',(-36.0552812761826,47.9361091295552,10.6647335529248));
#999=CARTESIAN_POINT('Ctrl Pts',(-36.0562288002046,47.9361081326246,10.6647335529248));
#1000=CARTESIAN_POINT('Origin',(7.94377119979529,49.8369088146707,10.1647335529255));
#1001=CARTESIAN_POINT('Origin',(7.94377134998598,39.2369084769296,10.1647335529231));
#1002=CARTESIAN_POINT('',(-33.3104407063846,40.8869085072658,-5.13526644707469));
#1003=CARTESIAN_POINT('',(-33.7527214584607,39.6369085072658,-3.8852664470747));
#1004=CARTESIAN_POINT('Ctrl Pts',(-33.7527214584607,39.6369085072658,-3.88526644707469));
#1005=CARTESIAN_POINT('Ctrl Pts',(-33.8049045056065,39.6369085072658,-3.73040167538775));
#1006=CARTESIAN_POINT('Ctrl Pts',(-33.8598511719731,39.6674193766516,-3.56419167215118));
#1007=CARTESIAN_POINT('Ctrl Pts',(-33.959787229672,39.7940420336494,-3.25607201825492));
#1008=CARTESIAN_POINT('Ctrl Pts',(-34.004815814399,39.8902098795698,-3.11419812180437));
#1009=CARTESIAN_POINT('Ctrl Pts',(-34.0745126009738,40.112458216166,-2.89194978520815));
#1010=CARTESIAN_POINT('Ctrl Pts',(-34.1042076015411,40.2520052587121,-2.79566710513529));
#1011=CARTESIAN_POINT('Ctrl Pts',(-34.1435588588271,40.5599631708263,-2.66730272388536));
#1012=CARTESIAN_POINT('Ctrl Pts',(-34.1532595743578,40.728387289954,-2.63526644707469));
#1013=CARTESIAN_POINT('Ctrl Pts',(-34.1532595743578,41.0433773304074,-2.63526644707469));
#1014=CARTESIAN_POINT('Ctrl Pts',(-34.1438054486542,41.2097761674064,-2.6664857770934));
#1015=CARTESIAN_POINT('Ctrl Pts',(-34.1053837296091,41.5146777848963,-2.79184266836522));
#1016=CARTESIAN_POINT('Ctrl Pts',(-34.0763744350282,41.6531940393414,-2.88593466799965));
#1017=CARTESIAN_POINT('Ctrl Pts',(-34.0073639435627,41.8776649138164,-3.1061492081163));
#1018=CARTESIAN_POINT('Ctrl Pts',(-33.9620242682253,41.9760385283584,-3.24910473940322));
#1019=CARTESIAN_POINT('Ctrl Pts',(-33.8611423829299,42.1056326980969,-3.56027835554397));
#1020=CARTESIAN_POINT('Ctrl Pts',(-33.8055587698331,42.1369085072658,-3.72846000111578));
#1021=CARTESIAN_POINT('Ctrl Pts',(-33.699465037874,42.1369085072658,-4.0433166926262));
#1022=CARTESIAN_POINT('Ctrl Pts',(-33.6414940284502,42.1051826185413,-4.21208601174105));
#1023=CARTESIAN_POINT('Ctrl Pts',(-33.5325000345963,41.9748314211262,-4.52356619174512));
#1024=CARTESIAN_POINT('Ctrl Pts',(-33.4815271749854,41.8761817448206,-4.66628439231927));
#1025=CARTESIAN_POINT('Ctrl Pts',(-33.4023922203575,41.6519101029406,-4.88543264790393));
#1026=CARTESIAN_POINT('Ctrl Pts',(-33.3681001601124,41.5139686206551,-4.97903471474689));
#1027=CARTESIAN_POINT('Ctrl Pts',(-33.322082018946,41.2097962840031,-5.10398580229786));
#1028=CARTESIAN_POINT('Ctrl Pts',(-33.3104407063846,41.0435245280018,-5.13526644707469));
#1029=CARTESIAN_POINT('Ctrl Pts',(-33.3104407063846,40.8869085072658,-5.13526644707469));
#1030=CARTESIAN_POINT('Ctrl Pts',(-33.3104407063846,40.8869085072658,-5.13526644707469));
#1031=CARTESIAN_POINT('Ctrl Pts',(-33.3104407063846,40.7277958257468,-5.13526644707469));
#1032=CARTESIAN_POINT('Ctrl Pts',(-33.3224532985293,40.5590756003348,-5.10299088549683));
#1033=CARTESIAN_POINT('Ctrl Pts',(-33.3697994038587,40.2512198855307,-4.97440703803699));
#1034=CARTESIAN_POINT('Ctrl Pts',(-33.4050446289625,40.1120422602328,-4.878167153008));
#1035=CARTESIAN_POINT('Ctrl Pts',(-33.4849972965307,39.8904593637461,-4.65658425652132));
#1036=CARTESIAN_POINT('Ctrl Pts',(-33.5354670100523,39.7944646709763,-4.51516364628634));
#1037=CARTESIAN_POINT('Ctrl Pts',(-33.6431222850452,39.667702119045,-4.20735309201236));
#1038=CARTESIAN_POINT('Ctrl Pts',(-33.7002601339497,39.6369085072658,-4.0409570685918));
#1039=CARTESIAN_POINT('Ctrl Pts',(-33.7527214584607,39.6369085072658,-3.88526644707469));
#1040=CARTESIAN_POINT('',(-4.78283710806522,40.8869085072664,-31.9545428057477));
#1041=CARTESIAN_POINT('Ctrl Pts',(-4.78283710806522,40.8869085072664,-31.9545428057477));
#1042=CARTESIAN_POINT('Ctrl Pts',(-4.78283710806523,41.0433823262097,-31.9545428057477));
#1043=CARTESIAN_POINT('Ctrl Pts',(-4.81405795849426,41.2097927968882,-31.9451475910455));
#1044=CARTESIAN_POINT('Ctrl Pts',(-4.9394401688106,41.5147301313021,-31.9069571623773));
#1045=CARTESIAN_POINT('Ctrl Pts',(-5.03355657893292,41.6532702290507,-31.8781200696244));
#1046=CARTESIAN_POINT('Ctrl Pts',(-5.25379191198835,41.8777130162243,-31.8095249358308));
#1047=CARTESIAN_POINT('Ctrl Pts',(-5.3967216756769,41.9760623119417,-31.7644682638859));
#1048=CARTESIAN_POINT('Ctrl Pts',(-5.70785978091941,42.1056326689428,-31.664200054425));
#1049=CARTESIAN_POINT('Ctrl Pts',(-5.87603193335663,42.1369085072664,-31.6089470199621));
#1050=CARTESIAN_POINT('Ctrl Pts',(-6.19087798792836,42.1369085072664,-31.5034734195811));
#1051=CARTESIAN_POINT('Ctrl Pts',(-6.35963384519343,42.1051855783424,-31.4458394895165));
#1052=CARTESIAN_POINT('Ctrl Pts',(-6.67107659684728,41.9748632291118,-31.3374761314036));
#1053=CARTESIAN_POINT('Ctrl Pts',(-6.81377080372376,41.8762396356095,-31.2867967988479));
#1054=CARTESIAN_POINT('Ctrl Pts',(-7.03294664655583,41.6519946836923,-31.2080914723543));
#1055=CARTESIAN_POINT('Ctrl Pts',(-7.1265763608953,41.5140255477542,-31.1739777622573));
#1056=CARTESIAN_POINT('Ctrl Pts',(-7.25155539833816,41.2098125777788,-31.1282014165439));
#1057=CARTESIAN_POINT('Ctrl Pts',(-7.28283710806522,41.0435283033308,-31.1166230071367));
#1058=CARTESIAN_POINT('Ctrl Pts',(-7.28283710806522,40.7278193626854,-31.1166230071367));
#1059=CARTESIAN_POINT('Ctrl Pts',(-7.25057141368372,40.5591129254005,-31.1285666241402));
#1060=CARTESIAN_POINT('Ctrl Pts',(-7.12199832754429,40.2512555766083,-31.175649554884));
#1061=CARTESIAN_POINT('Ctrl Pts',(-7.02575857083984,40.1120630170747,-31.2107011701023));
#1062=CARTESIAN_POINT('Ctrl Pts',(-6.80417253705172,39.8904769832865,-31.2902113093108));
#1063=CARTESIAN_POINT('Ctrl Pts',(-6.66276188831695,39.7944802232105,-31.3403955626033));
#1064=CARTESIAN_POINT('Ctrl Pts',(-6.35495002320938,39.6677087445671,-31.4474416261968));
#1065=CARTESIAN_POINT('Ctrl Pts',(-6.18854272930285,39.6369085072664,-31.5042557324971));
#1066=CARTESIAN_POINT('Ctrl Pts',(-5.87795195106068,39.6369085072664,-31.6083038129817));
#1067=CARTESIAN_POINT('Ctrl Pts',(-5.71172914689191,39.6674278866095,-31.6629308773765));
#1068=CARTESIAN_POINT('Ctrl Pts',(-5.40361001127957,39.7940605877686,-31.7622698722267));
#1069=CARTESIAN_POINT('Ctrl Pts',(-5.26174919336912,39.8902294689962,-31.8070211154148));
#1070=CARTESIAN_POINT('Ctrl Pts',(-5.03950236707385,40.1124762952914,-31.8762910637317));
#1071=CARTESIAN_POINT('Ctrl Pts',(-4.94322029919115,40.2520356295867,-31.9058018744036));
#1072=CARTESIAN_POINT('Ctrl Pts',(-4.81486526409076,40.5599941895413,-31.9449054457342));
#1073=CARTESIAN_POINT('Ctrl Pts',(-4.78283710806522,40.7284064257383,-31.9545428057477));
#1074=CARTESIAN_POINT('Ctrl Pts',(-4.78283710806522,40.8869085072664,-31.9545428057477));
#1075=CARTESIAN_POINT('Origin',(7.94377134998598,36.5369084769296,10.1647335529231));
#1076=CARTESIAN_POINT('',(-36.0562288002014,33.8369084769296,10.1647335529231));
#1077=CARTESIAN_POINT('Origin',(7.94377134998598,33.8369084769296,10.1647335529231));
#1078=CARTESIAN_POINT('',(-36.0562288002012,33.8369099715776,10.6647335529247));
#1079=CARTESIAN_POINT('Ctrl Pts',(-36.0562288002014,33.8369084769296,10.1647335529231));
#1080=CARTESIAN_POINT('Ctrl Pts',(-36.0562288002014,33.8369084769297,10.3304221218608));
#1081=CARTESIAN_POINT('Ctrl Pts',(-36.0562288002014,33.8369079675606,10.497119911973));
#1082=CARTESIAN_POINT('Ctrl Pts',(-36.0562288002014,33.8369099715776,10.6647335529247));
#1083=CARTESIAN_POINT('Ctrl Pts',(-36.0562288001949,33.8369099715776,10.6647335529247));
#1084=CARTESIAN_POINT('Ctrl Pts',(-36.0552812761603,33.8369089746469,10.6647335529247));
#1085=CARTESIAN_POINT('Ctrl Pts',(-36.0543342246982,33.8369084769296,10.6647335529247));
#1086=CARTESIAN_POINT('Ctrl Pts',(-35.7201420349226,33.8369084769296,10.6647335529247));
#1087=CARTESIAN_POINT('Ctrl Pts',(-35.3279304675598,33.9149205735364,10.6647335529247));
#1088=CARTESIAN_POINT('Ctrl Pts',(-34.7121785417069,34.1699631024826,10.6647335529247));
#1089=CARTESIAN_POINT('Ctrl Pts',(-34.379682916024,34.3921179780401,10.6647335529247));
#1090=CARTESIAN_POINT('Ctrl Pts',(-33.9084163565186,34.8633640158457,10.6647335529247));
#1091=CARTESIAN_POINT('Ctrl Pts',(-33.6862543990884,35.1958346667673,10.6647335529247));
#1092=CARTESIAN_POINT('Ctrl Pts',(-33.4312130894679,35.8115323639198,10.6647335529247));
#1093=CARTESIAN_POINT('Ctrl Pts',(-33.3532019047209,36.2036994039863,10.6647335529247));
#1094=CARTESIAN_POINT('Ctrl Pts',(-33.3532019047209,36.8701233454867,10.6647335529247));
#1095=CARTESIAN_POINT('Ctrl Pts',(-33.4312157707322,37.2622969431874,10.6647335529247));
#1096=CARTESIAN_POINT('Ctrl Pts',(-33.6862656748659,37.8780036271325,10.6647335529247));
#1097=CARTESIAN_POINT('Ctrl Pts',(-33.9084348648868,38.2104778104244,10.6647335529248));
#1098=CARTESIAN_POINT('Ctrl Pts',(-34.3797077899432,38.6817174830634,10.6647335529248));
#1099=CARTESIAN_POINT('Ctrl Pts',(-34.7121998832434,38.9038651267561,10.6647335529248));
#1100=CARTESIAN_POINT('Ctrl Pts',(-35.3279428220068,39.1588990615078,10.6647335529248));
#1101=CARTESIAN_POINT('Ctrl Pts',(-35.7201478310543,39.2369084769296,10.6647335529248));
#1102=CARTESIAN_POINT('Ctrl Pts',(-36.0543342247014,39.2369084769296,10.6647335529248));
#1103=CARTESIAN_POINT('Ctrl Pts',(-36.0552812761667,39.2369079792123,10.6647335529248));
#1104=CARTESIAN_POINT('Ctrl Pts',(-36.0562288002045,39.2369069822817,10.6647335529248));
#1105=CARTESIAN_POINT('Ctrl Pts',(8.44377134993546,39.2369069824389,-33.8352664470685));
#1106=CARTESIAN_POINT('Ctrl Pts',(8.44377134993546,39.2369079792641,-33.8343189731471));
#1107=CARTESIAN_POINT('Ctrl Pts',(8.44377134993546,39.2369084769288,-33.8333719717486));
#1108=CARTESIAN_POINT('Ctrl Pts',(8.44377134993546,39.2369084769288,-33.4991798319861));
#1109=CARTESIAN_POINT('Ctrl Pts',(8.44377134993546,39.158896380322,-33.1069682646233));
#1110=CARTESIAN_POINT('Ctrl Pts',(8.44377134993546,38.9038538513758,-32.4912163387704));
#1111=CARTESIAN_POINT('Ctrl Pts',(8.44377134993546,38.6816989758183,-32.1587207130875));
#1112=CARTESIAN_POINT('Ctrl Pts',(8.44377134993546,38.2104529380128,-31.6874541535821));
#1113=CARTESIAN_POINT('Ctrl Pts',(8.44377134993546,37.8779822870912,-31.465292196152));
#1114=CARTESIAN_POINT('Ctrl Pts',(8.44377134993546,37.2622845899387,-31.2102508865314));
#1115=CARTESIAN_POINT('Ctrl Pts',(8.44377134993546,36.8701175498722,-31.1322397017845));
#1116=CARTESIAN_POINT('Ctrl Pts',(8.44377134993546,36.2036994039855,-31.1322397017845));
#1117=CARTESIAN_POINT('Ctrl Pts',(8.44377134993546,35.811532363919,-31.2102508865314));
#1118=CARTESIAN_POINT('Ctrl Pts',(8.44377134993546,35.1958346667665,-31.4652921961519));
#1119=CARTESIAN_POINT('Ctrl Pts',(8.44377134993546,34.8633640158449,-31.6874541535821));
#1120=CARTESIAN_POINT('Ctrl Pts',(8.44377134993546,34.3921179780393,-32.1587207130875));
#1121=CARTESIAN_POINT('Ctrl Pts',(8.44377134993546,34.1699631024818,-32.4912163387703));
#1122=CARTESIAN_POINT('Ctrl Pts',(8.44377134993546,33.9149205735356,-33.1069682646232));
#1123=CARTESIAN_POINT('Ctrl Pts',(8.44377134993546,33.8369084769288,-33.499179831986));
#1124=CARTESIAN_POINT('Ctrl Pts',(8.44377134993546,33.8369084769288,-33.8333719717513));
#1125=CARTESIAN_POINT('Ctrl Pts',(8.44377134993546,33.8369089745935,-33.8343189731528));
#1126=CARTESIAN_POINT('Ctrl Pts',(8.44377134993546,33.8369099714187,-33.835266447077));
#1127=CARTESIAN_POINT('Origin',(7.94377119979529,49.8369088146707,10.1647335529255));
#1128=CARTESIAN_POINT('',(-36.0562288002047,49.8369088146708,10.1647335529246));
#1129=CARTESIAN_POINT('Origin',(-6.03283710806522,40.8869085072664,-29.4352664470618));
#1130=CARTESIAN_POINT('',(-4.78283710806522,40.8869085072664,-26.7003371913192));
#1131=CARTESIAN_POINT('',(-4.78283710806522,40.8869085072665,-29.4352664470618));
#1132=CARTESIAN_POINT('',(-7.28283710806522,40.8869085072664,-25.7400070733323));
#1133=CARTESIAN_POINT('Ctrl Pts',(-7.28283710806522,40.8869085072664,-25.7400070733323));
#1134=CARTESIAN_POINT('Ctrl Pts',(-7.28283710806522,41.0434465652035,-25.7400070733323));
#1135=CARTESIAN_POINT('Ctrl Pts',(-7.25157705965696,41.2093917725411,-25.7533111089423));
#1136=CARTESIAN_POINT('Ctrl Pts',(-7.12736259271804,41.5124774670702,-25.8056079417861));
#1137=CARTESIAN_POINT('Ctrl Pts',(-7.03449795068836,41.6496735387354,-25.844491725211));
#1138=CARTESIAN_POINT('Ctrl Pts',(-6.81612260478154,41.8746078168262,-25.9345826480677));
#1139=CARTESIAN_POINT('Ctrl Pts',(-6.67281953494859,41.9739353220812,-25.9930259298693));
#1140=CARTESIAN_POINT('Ctrl Pts',(-6.36037405375899,42.1050728480151,-26.1177653148309));
#1141=CARTESIAN_POINT('Ctrl Pts',(-6.19121995048145,42.1369085072664,-26.1840051706696));
#1142=CARTESIAN_POINT('Ctrl Pts',(-5.87608170398954,42.1369085072664,-26.3049779744384));
#1143=CARTESIAN_POINT('Ctrl Pts',(-5.70770131743266,42.1056637587449,-26.3683330151782));
#1144=CARTESIAN_POINT('Ctrl Pts',(-5.39565436124834,41.9755203770934,-26.4834230234893));
#1145=CARTESIAN_POINT('Ctrl Pts',(-5.2520330721412,41.8765529950436,-26.5352030013187));
#1146=CARTESIAN_POINT('Ctrl Pts',(-5.03226731460052,41.6513544927817,-26.6134539467334));
#1147=CARTESIAN_POINT('Ctrl Pts',(-4.93876006640312,41.5134040696792,-26.6461989241886));
#1148=CARTESIAN_POINT('Ctrl Pts',(-4.81401498692252,41.2093583925465,-26.6896183372467));
#1149=CARTESIAN_POINT('Ctrl Pts',(-4.78283710806522,41.0432448890505,-26.7003371913192));
#1150=CARTESIAN_POINT('Ctrl Pts',(-4.78283710806522,40.8869085072664,-26.7003371913192));
#1151=CARTESIAN_POINT('Ctrl Pts',(-4.78283710806522,40.8869085072664,-26.7003371913192));
#1152=CARTESIAN_POINT('Ctrl Pts',(-4.78283710806522,40.7279358435732,-26.7003371913192));
#1153=CARTESIAN_POINT('Ctrl Pts',(-4.81506542730222,40.5592297849715,-26.6892583964321));
#1154=CARTESIAN_POINT('Ctrl Pts',(-4.94365231525536,40.2512846659604,-26.6444901532987));
#1155=CARTESIAN_POINT('Ctrl Pts',(-5.03995099871105,40.1120276636542,-26.6107521489074));
#1156=CARTESIAN_POINT('Ctrl Pts',(-5.26227931505462,39.8896993473107,-26.5315156252945));
#1157=CARTESIAN_POINT('Ctrl Pts',(-5.404511090226,39.7935478821069,-26.4801887723477));
#1158=CARTESIAN_POINT('Ctrl Pts',(-5.71266237860851,39.6671875661211,-26.3664694692471));
#1159=CARTESIAN_POINT('Ctrl Pts',(-5.87853766262986,39.6369085072664,-26.3040352002561));
#1160=CARTESIAN_POINT('Ctrl Pts',(-6.18821748098689,39.6369085072664,-26.1851577351617));
#1161=CARTESIAN_POINT('Ctrl Pts',(-6.35434675354489,39.6675589762183,-26.1201292678724));
#1162=CARTESIAN_POINT('Ctrl Pts',(-6.66209979340587,39.7941092595924,-25.9973457493066));
#1163=CARTESIAN_POINT('Ctrl Pts',(-6.80373301500498,39.8900374612398,-25.9396436605521));
#1164=CARTESIAN_POINT('Ctrl Pts',(-7.02518016559251,40.1114846118274,-25.8483787332683));
#1165=CARTESIAN_POINT('Ctrl Pts',(-7.12141585869971,40.2502503008973,-25.8081037906918));
#1166=CARTESIAN_POINT('Ctrl Pts',(-7.25028929213602,40.5580506194236,-25.7538607047367));
#1167=CARTESIAN_POINT('Ctrl Pts',(-7.28283710806522,40.7271430597806,-25.7400070733323));
#1168=CARTESIAN_POINT('Ctrl Pts',(-7.28283710806522,40.8869085072664,-25.7400070733323));
#1169=CARTESIAN_POINT('Origin',(-33.5562288001996,40.8869085072659,10.6647335529248));
#1170=CARTESIAN_POINT('Origin',(-36.0562286500142,45.2361096272716,10.6647335529247));
#1171=CARTESIAN_POINT('Origin',(-36.0562286500139,36.5369084769294,10.1647335529247));
#1172=CARTESIAN_POINT('',(-36.0562288002012,34.5369084769294,10.6647335529247));
#1173=CARTESIAN_POINT('Origin',(-36.0562286500137,36.5369084769294,10.6647335529247));
#1174=CARTESIAN_POINT('',(-36.0562288002014,34.5369084769294,10.1647335529247));
#1175=CARTESIAN_POINT('Origin',(-36.0562286500143,45.2361096272716,10.1647335529247));
#1176=CARTESIAN_POINT('Origin',(-36.0562288002014,34.5369084769294,10.1647335529247));
#1177=CARTESIAN_POINT('',(-36.0562288002011,47.8361096272715,10.6647335529247));
#1178=CARTESIAN_POINT('Origin',(-33.5562288001994,40.8869085072659,10.6647335529248));
#1179=CARTESIAN_POINT('Origin',(9.94377134993528,36.5369084769288,-33.8352664470747));
#1180=CARTESIAN_POINT('Origin',(8.44377134993539,36.5369084769288,-33.8352664470742));
#1181=CARTESIAN_POINT('Origin',(8.44377134993546,36.5369084769288,-32.5352664470755));
#1182=CARTESIAN_POINT('Origin',(9.94377134993528,45.2361096272717,-33.8352664470747));
#1183=CARTESIAN_POINT('',(8.44377134993553,47.2361096272717,-33.8352664470746));
#1184=CARTESIAN_POINT('Origin',(8.44377134993546,45.2361096272717,-33.8352664470746));
#1185=CARTESIAN_POINT('',(9.94377134993535,47.2361096272717,-33.8352664470746));
#1186=CARTESIAN_POINT('Origin',(8.44377134993546,45.2361096272717,-32.5352664470746));
#1187=CARTESIAN_POINT('',(8.44377134993546,47.4014575774784,-33.8352664470718));
#1188=CARTESIAN_POINT('Origin',(7.94377135002403,47.8361096272718,-33.8352664470744));
#1189=CARTESIAN_POINT('',(7.94377135002403,49.8369088146707,-33.8352664470744));
#1190=CARTESIAN_POINT('Origin',(7.94377119979856,49.8369088146712,10.1647335529258));
#1191=CARTESIAN_POINT('',(-28.8958813501369,40.8869085072658,-2.63526644707469));
#1192=CARTESIAN_POINT('',(-28.4375083269026,39.6369085072658,-3.8852664470747));
#1193=CARTESIAN_POINT('Ctrl Pts',(-28.4375083269026,39.6369085072658,-3.88526644707469));
#1194=CARTESIAN_POINT('Ctrl Pts',(-28.3775096237353,39.6369085072658,-4.04062798381271));
#1195=CARTESIAN_POINT('Ctrl Pts',(-28.3120994739361,39.6675506226751,-4.20674280846952));
#1196=CARTESIAN_POINT('Ctrl Pts',(-28.1885934220261,39.7940894305497,-4.51449387740564));
#1197=CARTESIAN_POINT('Ctrl Pts',(-28.1305504755267,39.8900147197442,-4.65613961251939));
#1198=CARTESIAN_POINT('Ctrl Pts',(-28.0387595499758,40.1114571527565,-4.87758204553171));
#1199=CARTESIAN_POINT('Ctrl Pts',(-27.99825388988,40.2502026389262,-4.97381755433781));
#1200=CARTESIAN_POINT('Ctrl Pts',(-27.9436947153737,40.5580002875417,-5.1027052428538));
#1201=CARTESIAN_POINT('Ctrl Pts',(-27.9297566445599,40.7271109880247,-5.13526644707469));
#1202=CARTESIAN_POINT('Ctrl Pts',(-27.9297566445599,41.0434419493673,-5.13526644707469));
#1203=CARTESIAN_POINT('Ctrl Pts',(-27.943135686714,41.2093705177869,-5.104007728477));
#1204=CARTESIAN_POINT('Ctrl Pts',(-27.9957159533549,41.5124022505593,-4.97983013666299));
#1205=CARTESIAN_POINT('Ctrl Pts',(-28.0348073135153,41.6495616749746,-4.88700208304947));
#1206=CARTESIAN_POINT('Ctrl Pts',(-28.1254052036238,41.8745315333353,-4.6686626289465));
#1207=CARTESIAN_POINT('Ctrl Pts',(-28.1842017683581,41.9738931712969,-4.52532838059043));
#1208=CARTESIAN_POINT('Ctrl Pts',(-28.3096962403993,42.1050687761985,-4.21283400775183));
#1209=CARTESIAN_POINT('Ctrl Pts',(-28.3763378832092,42.1369085072658,-4.04366210620512));
#1210=CARTESIAN_POINT('Ctrl Pts',(-28.4980459009244,42.1369085072658,-3.72850955010976));
#1211=CARTESIAN_POINT('Ctrl Pts',(-28.5617925059089,42.1056639020405,-3.56011699510525));
#1212=CARTESIAN_POINT('Ctrl Pts',(-28.6776111421153,41.975489546127,-3.2480237845622));
#1213=CARTESIAN_POINT('Ctrl Pts',(-28.7297280567906,41.8764904807079,-3.104368703757));
#1214=CARTESIAN_POINT('Ctrl Pts',(-28.8084638569214,41.6512543777925,-2.88462941090358));
#1215=CARTESIAN_POINT('Ctrl Pts',(-28.8414070358367,41.5133352390965,-2.79115420444557));
#1216=CARTESIAN_POINT('Ctrl Pts',(-28.8850937153718,41.2093365473817,-2.66644232617058));
#1217=CARTESIAN_POINT('Ctrl Pts',(-28.8958813501369,41.0432384021684,-2.63526644707469));
#1218=CARTESIAN_POINT('Ctrl Pts',(-28.8958813501369,40.8869085072658,-2.63526644707469));
#1219=CARTESIAN_POINT('Ctrl Pts',(-28.8958813501369,40.8869085072658,-2.63526644707469));
#1220=CARTESIAN_POINT('Ctrl Pts',(-28.8958813501369,40.7279102767816,-2.63526644707469));
#1221=CARTESIAN_POINT('Ctrl Pts',(-28.8847270101073,40.5591885798096,-2.6675055981527));
#1222=CARTESIAN_POINT('Ctrl Pts',(-28.8396668076791,40.2512445413902,-2.79610478449596));
#1223=CARTESIAN_POINT('Ctrl Pts',(-28.8057126155858,40.1120039145657,-2.89240408680842));
#1224=CARTESIAN_POINT('Ctrl Pts',(-28.7259742768631,39.8896736470041,-3.11473435437001));
#1225=CARTESIAN_POINT('Ctrl Pts',(-28.6743190697167,39.793523715746,-3.25698308619547));
#1226=CARTESIAN_POINT('Ctrl Pts',(-28.5598960969621,39.6671765546866,-3.56513485226822));
#1227=CARTESIAN_POINT('Ctrl Pts',(-28.4970866779706,39.6369085072658,-3.73099337633113));
#1228=CARTESIAN_POINT('Ctrl Pts',(-28.4375083269026,39.6369085072658,-3.88526644707469));
#1229=CARTESIAN_POINT('Origin',(7.94377119979529,49.8369088146707,10.1647335529255));
#1230=CARTESIAN_POINT('Origin',(-37.9905088001887,40.8869085072658,-3.88526644707469));
#1231=CARTESIAN_POINT('',(-37.9905088001887,39.6369085072658,-3.88526644707471));
#1232=UNCERTAINTY_MEASURE_WITH_UNIT(LENGTH_MEASURE(0.01),#1236,
'DISTANCE_ACCURACY_VALUE',
'Maximum model space distance between geometric entities at asserted c
onnectivities');
#1233=UNCERTAINTY_MEASURE_WITH_UNIT(LENGTH_MEASURE(0.01),#1236,
'DISTANCE_ACCURACY_VALUE',
'Maximum model space distance between geometric entities at asserted c
onnectivities');
#1234=(
GEOMETRIC_REPRESENTATION_CONTEXT(3)
GLOBAL_UNCERTAINTY_ASSIGNED_CONTEXT((#1232))
GLOBAL_UNIT_ASSIGNED_CONTEXT((#1236,#1238,#1239))
REPRESENTATION_CONTEXT('','3D')
);
#1235=(
GEOMETRIC_REPRESENTATION_CONTEXT(3)
GLOBAL_UNCERTAINTY_ASSIGNED_CONTEXT((#1233))
GLOBAL_UNIT_ASSIGNED_CONTEXT((#1236,#1238,#1239))
REPRESENTATION_CONTEXT('','3D')
);
#1236=(
LENGTH_UNIT()
NAMED_UNIT(*)
SI_UNIT(.MILLI.,.METRE.)
);
#1237=(
LENGTH_UNIT()
NAMED_UNIT(*)
SI_UNIT($,.METRE.)
);
#1238=(
NAMED_UNIT(*)
PLANE_ANGLE_UNIT()
SI_UNIT($,.RADIAN.)
);
#1239=(
NAMED_UNIT(*)
SI_UNIT($,.STERADIAN.)
SOLID_ANGLE_UNIT()
);
#1240=SHAPE_DEFINITION_REPRESENTATION(#1241,#1242);
#1241=PRODUCT_DEFINITION_SHAPE('',$,#1244);
#1242=SHAPE_REPRESENTATION('',(#611),#1234);
#1243=PRODUCT_DEFINITION_CONTEXT('part definition',#1248,'design');
#1244=PRODUCT_DEFINITION('2026-06-23-13-21-45-241','rope-elbow-bottom',
#1245,#1243);
#1245=PRODUCT_DEFINITION_FORMATION('',$,#1250);
#1246=PRODUCT_RELATED_PRODUCT_CATEGORY('rope-elbow-bottom',
'rope-elbow-bottom',(#1250));
#1247=APPLICATION_PROTOCOL_DEFINITION('international standard',
'automotive_design',2009,#1248);
#1248=APPLICATION_CONTEXT(
'Core Data for Automotive Mechanical Design Process');
#1249=PRODUCT_CONTEXT('part definition',#1248,'mechanical');
#1250=PRODUCT('2026-06-23-13-21-45-241','rope-elbow-bottom',$,(#1249));
#1251=PRESENTATION_STYLE_ASSIGNMENT((#1253));
#1252=PRESENTATION_STYLE_ASSIGNMENT((#1254));
#1253=SURFACE_STYLE_USAGE(.BOTH.,#1255);
#1254=SURFACE_STYLE_USAGE(.BOTH.,#1256);
#1255=SURFACE_SIDE_STYLE('',(#1257));
#1256=SURFACE_SIDE_STYLE('',(#1258));
#1257=SURFACE_STYLE_FILL_AREA(#1259);
#1258=SURFACE_STYLE_FILL_AREA(#1260);
#1259=FILL_AREA_STYLE('Steel - Satin',(#1261));
#1260=FILL_AREA_STYLE('ABS (White)',(#1262));
#1261=FILL_AREA_STYLE_COLOUR('Steel - Satin',#1263);
#1262=FILL_AREA_STYLE_COLOUR('ABS (White)',#1264);
#1263=COLOUR_RGB('Steel - Satin',0.627450980392157,0.627450980392157,0.627450980392157);
#1264=COLOUR_RGB('ABS (White)',0.964705882352941,0.964705882352941,0.952941176470588);
ENDSEC;
END-ISO-10303-21;
