ISO-10303-21;
HEADER;
/* Generated by software containing ST-Developer
 * from STEP Tools, Inc. (www.steptools.com) 
 */

FILE_DESCRIPTION(
/* description */ (''),
/* implementation_level */ '2;1');

FILE_NAME(
/* name */ 'arm-left.step',
/* time_stamp */ '2026-04-10T09:00:33-07:00',
/* author */ (''),
/* organization */ (''),
/* preprocessor_version */ 'ST-DEVELOPER v20.1',
/* originating_system */ 'Autodesk Translation Framework v14.24.0.0',
/* authorisation */ '');

FILE_SCHEMA (('AUTOMOTIVE_DESIGN { 1 0 10303 214 3 1 1 }'));
ENDSEC;

DATA;
#10=MECHANICAL_DESIGN_GEOMETRIC_PRESENTATION_REPRESENTATION('',(#13),#1483);
#11=SHAPE_REPRESENTATION_RELATIONSHIP('SRR','None',#1490,#12);
#12=ADVANCED_BREP_SHAPE_REPRESENTATION('',(#14),#1482);
#13=STYLED_ITEM('',(#1500),#14);
#14=MANIFOLD_SOLID_BREP('Body1',#868);
#15=CONICAL_SURFACE('',#953,3.70000000000053,0.785398163397441);
#16=FACE_BOUND('',#97,.T.);
#17=FACE_BOUND('',#98,.T.);
#18=FACE_BOUND('',#107,.T.);
#19=FACE_BOUND('',#108,.T.);
#20=FACE_BOUND('',#116,.T.);
#21=FACE_BOUND('',#119,.T.);
#22=FACE_BOUND('',#120,.T.);
#23=FACE_BOUND('',#124,.T.);
#24=FACE_BOUND('',#131,.T.);
#25=FACE_BOUND('',#139,.T.);
#26=FACE_BOUND('',#148,.T.);
#27=FACE_BOUND('',#150,.T.);
#28=PLANE('',#885);
#29=PLANE('',#900);
#30=PLANE('',#901);
#31=PLANE('',#905);
#32=PLANE('',#910);
#33=PLANE('',#916);
#34=PLANE('',#926);
#35=PLANE('',#927);
#36=PLANE('',#930);
#37=PLANE('',#937);
#38=PLANE('',#939);
#39=PLANE('',#941);
#40=PLANE('',#947);
#41=PLANE('',#951);
#42=PLANE('',#957);
#43=PLANE('',#958);
#44=PLANE('',#961);
#45=PLANE('',#966);
#46=PLANE('',#967);
#47=PLANE('',#968);
#48=PLANE('',#969);
#49=PLANE('',#970);
#50=FACE_OUTER_BOUND('',#95,.T.);
#51=FACE_OUTER_BOUND('',#96,.T.);
#52=FACE_OUTER_BOUND('',#99,.T.);
#53=FACE_OUTER_BOUND('',#100,.T.);
#54=FACE_OUTER_BOUND('',#101,.T.);
#55=FACE_OUTER_BOUND('',#102,.T.);
#56=FACE_OUTER_BOUND('',#103,.T.);
#57=FACE_OUTER_BOUND('',#104,.T.);
#58=FACE_OUTER_BOUND('',#105,.T.);
#59=FACE_OUTER_BOUND('',#106,.T.);
#60=FACE_OUTER_BOUND('',#109,.T.);
#61=FACE_OUTER_BOUND('',#110,.T.);
#62=FACE_OUTER_BOUND('',#111,.T.);
#63=FACE_OUTER_BOUND('',#112,.T.);
#64=FACE_OUTER_BOUND('',#113,.T.);
#65=FACE_OUTER_BOUND('',#114,.T.);
#66=FACE_OUTER_BOUND('',#115,.T.);
#67=FACE_OUTER_BOUND('',#117,.T.);
#68=FACE_OUTER_BOUND('',#118,.T.);
#69=FACE_OUTER_BOUND('',#121,.T.);
#70=FACE_OUTER_BOUND('',#122,.T.);
#71=FACE_OUTER_BOUND('',#123,.T.);
#72=FACE_OUTER_BOUND('',#125,.T.);
#73=FACE_OUTER_BOUND('',#126,.T.);
#74=FACE_OUTER_BOUND('',#127,.T.);
#75=FACE_OUTER_BOUND('',#128,.T.);
#76=FACE_OUTER_BOUND('',#129,.T.);
#77=FACE_OUTER_BOUND('',#130,.T.);
#78=FACE_OUTER_BOUND('',#132,.T.);
#79=FACE_OUTER_BOUND('',#133,.T.);
#80=FACE_OUTER_BOUND('',#134,.T.);
#81=FACE_OUTER_BOUND('',#135,.T.);
#82=FACE_OUTER_BOUND('',#136,.T.);
#83=FACE_OUTER_BOUND('',#137,.T.);
#84=FACE_OUTER_BOUND('',#138,.T.);
#85=FACE_OUTER_BOUND('',#140,.T.);
#86=FACE_OUTER_BOUND('',#141,.T.);
#87=FACE_OUTER_BOUND('',#142,.T.);
#88=FACE_OUTER_BOUND('',#143,.T.);
#89=FACE_OUTER_BOUND('',#144,.T.);
#90=FACE_OUTER_BOUND('',#145,.T.);
#91=FACE_OUTER_BOUND('',#146,.T.);
#92=FACE_OUTER_BOUND('',#147,.T.);
#93=FACE_OUTER_BOUND('',#149,.T.);
#94=FACE_OUTER_BOUND('',#151,.T.);
#95=EDGE_LOOP('',(#557,#558,#559,#560));
#96=EDGE_LOOP('',(#561,#562,#563,#564,#565,#566,#567,#568,#569,#570,#571));
#97=EDGE_LOOP('',(#572));
#98=EDGE_LOOP('',(#573));
#99=EDGE_LOOP('',(#574,#575,#576,#577));
#100=EDGE_LOOP('',(#578,#579,#580,#581));
#101=EDGE_LOOP('',(#582,#583,#584,#585));
#102=EDGE_LOOP('',(#586,#587,#588,#589,#590,#591,#592,#593,#594,#595));
#103=EDGE_LOOP('',(#596,#597,#598,#599,#600,#601,#602,#603,#604,#605));
#104=EDGE_LOOP('',(#606,#607,#608,#609,#610,#611,#612,#613,#614,#615));
#105=EDGE_LOOP('',(#616,#617,#618,#619));
#106=EDGE_LOOP('',(#620,#621,#622,#623,#624,#625,#626,#627,#628,#629,#630,
#631,#632,#633));
#107=EDGE_LOOP('',(#634));
#108=EDGE_LOOP('',(#635,#636,#637,#638));
#109=EDGE_LOOP('',(#639,#640,#641,#642));
#110=EDGE_LOOP('',(#643,#644,#645,#646));
#111=EDGE_LOOP('',(#647,#648,#649,#650));
#112=EDGE_LOOP('',(#651,#652,#653,#654));
#113=EDGE_LOOP('',(#655,#656,#657,#658));
#114=EDGE_LOOP('',(#659,#660,#661,#662));
#115=EDGE_LOOP('',(#663,#664,#665,#666));
#116=EDGE_LOOP('',(#667));
#117=EDGE_LOOP('',(#668,#669,#670,#671));
#118=EDGE_LOOP('',(#672,#673,#674,#675,#676,#677,#678,#679,#680,#681,#682));
#119=EDGE_LOOP('',(#683));
#120=EDGE_LOOP('',(#684));
#121=EDGE_LOOP('',(#685,#686,#687,#688));
#122=EDGE_LOOP('',(#689,#690,#691,#692));
#123=EDGE_LOOP('',(#693,#694,#695,#696));
#124=EDGE_LOOP('',(#697));
#125=EDGE_LOOP('',(#698,#699,#700,#701));
#126=EDGE_LOOP('',(#702,#703,#704,#705,#706,#707,#708,#709));
#127=EDGE_LOOP('',(#710,#711,#712,#713));
#128=EDGE_LOOP('',(#714,#715,#716,#717,#718,#719));
#129=EDGE_LOOP('',(#720,#721,#722,#723));
#130=EDGE_LOOP('',(#724,#725,#726,#727));
#131=EDGE_LOOP('',(#728));
#132=EDGE_LOOP('',(#729,#730,#731,#732));
#133=EDGE_LOOP('',(#733));
#134=EDGE_LOOP('',(#734,#735,#736,#737));
#135=EDGE_LOOP('',(#738,#739,#740,#741));
#136=EDGE_LOOP('',(#742));
#137=EDGE_LOOP('',(#743,#744,#745,#746));
#138=EDGE_LOOP('',(#747,#748,#749,#750));
#139=EDGE_LOOP('',(#751,#752,#753,#754,#755,#756,#757,#758));
#140=EDGE_LOOP('',(#759,#760,#761,#762));
#141=EDGE_LOOP('',(#763,#764,#765,#766));
#142=EDGE_LOOP('',(#767,#768,#769,#770));
#143=EDGE_LOOP('',(#771,#772,#773,#774));
#144=EDGE_LOOP('',(#775,#776,#777,#778));
#145=EDGE_LOOP('',(#779,#780,#781,#782));
#146=EDGE_LOOP('',(#783,#784,#785,#786));
#147=EDGE_LOOP('',(#787,#788,#789,#790));
#148=EDGE_LOOP('',(#791));
#149=EDGE_LOOP('',(#792,#793,#794,#795));
#150=EDGE_LOOP('',(#796));
#151=EDGE_LOOP('',(#797,#798,#799,#800));
#152=LINE('',#1234,#230);
#153=LINE('',#1239,#231);
#154=LINE('',#1243,#232);
#155=LINE('',#1247,#233);
#156=LINE('',#1251,#234);
#157=LINE('',#1255,#235);
#158=LINE('',#1267,#236);
#159=LINE('',#1274,#237);
#160=LINE('',#1277,#238);
#161=LINE('',#1280,#239);
#162=LINE('',#1282,#240);
#163=LINE('',#1283,#241);
#164=LINE('',#1286,#242);
#165=LINE('',#1288,#243);
#166=LINE('',#1290,#244);
#167=LINE('',#1296,#245);
#168=LINE('',#1299,#246);
#169=LINE('',#1302,#247);
#170=LINE('',#1308,#248);
#171=LINE('',#1310,#249);
#172=LINE('',#1312,#250);
#173=LINE('',#1318,#251);
#174=LINE('',#1322,#252);
#175=LINE('',#1328,#253);
#176=LINE('',#1329,#254);
#177=LINE('',#1333,#255);
#178=LINE('',#1336,#256);
#179=LINE('',#1338,#257);
#180=LINE('',#1339,#258);
#181=LINE('',#1340,#259);
#182=LINE('',#1346,#260);
#183=LINE('',#1348,#261);
#184=LINE('',#1350,#262);
#185=LINE('',#1356,#263);
#186=LINE('',#1358,#264);
#187=LINE('',#1360,#265);
#188=LINE('',#1361,#266);
#189=LINE('',#1363,#267);
#190=LINE('',#1365,#268);
#191=LINE('',#1367,#269);
#192=LINE('',#1369,#270);
#193=LINE('',#1370,#271);
#194=LINE('',#1373,#272);
#195=LINE('',#1375,#273);
#196=LINE('',#1380,#274);
#197=LINE('',#1381,#275);
#198=LINE('',#1384,#276);
#199=LINE('',#1388,#277);
#200=LINE('',#1392,#278);
#201=LINE('',#1396,#279);
#202=LINE('',#1402,#280);
#203=LINE('',#1405,#281);
#204=LINE('',#1407,#282);
#205=LINE('',#1409,#283);
#206=LINE('',#1410,#284);
#207=LINE('',#1417,#285);
#208=LINE('',#1419,#286);
#209=LINE('',#1423,#287);
#210=LINE('',#1424,#288);
#211=LINE('',#1426,#289);
#212=LINE('',#1428,#290);
#213=LINE('',#1435,#291);
#214=LINE('',#1436,#292);
#215=LINE('',#1443,#293);
#216=LINE('',#1446,#294);
#217=LINE('',#1451,#295);
#218=LINE('',#1453,#296);
#219=LINE('',#1455,#297);
#220=LINE('',#1458,#298);
#221=LINE('',#1461,#299);
#222=LINE('',#1465,#300);
#223=LINE('',#1467,#301);
#224=LINE('',#1468,#302);
#225=LINE('',#1471,#303);
#226=LINE('',#1473,#304);
#227=LINE('',#1474,#305);
#228=LINE('',#1476,#306);
#229=LINE('',#1478,#307);
#230=VECTOR('',#977,1.49999999999994);
#231=VECTOR('',#982,10.);
#232=VECTOR('',#985,10.);
#233=VECTOR('',#988,10.);
#234=VECTOR('',#991,10.);
#235=VECTOR('',#994,10.);
#236=VECTOR('',#1007,1.4);
#237=VECTOR('',#1014,10.);
#238=VECTOR('',#1017,10.);
#239=VECTOR('',#1020,10.);
#240=VECTOR('',#1021,10.);
#241=VECTOR('',#1022,10.);
#242=VECTOR('',#1025,10.);
#243=VECTOR('',#1026,10.);
#244=VECTOR('',#1027,10.);
#245=VECTOR('',#1032,10.);
#246=VECTOR('',#1035,10.);
#247=VECTOR('',#1038,10.);
#248=VECTOR('',#1043,10.);
#249=VECTOR('',#1044,10.);
#250=VECTOR('',#1045,10.);
#251=VECTOR('',#1052,10.);
#252=VECTOR('',#1055,10.);
#253=VECTOR('',#1060,10.);
#254=VECTOR('',#1061,10.);
#255=VECTOR('',#1066,10.);
#256=VECTOR('',#1069,10.);
#257=VECTOR('',#1070,10.);
#258=VECTOR('',#1071,10.);
#259=VECTOR('',#1072,10.);
#260=VECTOR('',#1077,10.);
#261=VECTOR('',#1078,10.);
#262=VECTOR('',#1079,10.);
#263=VECTOR('',#1084,10.);
#264=VECTOR('',#1085,10.);
#265=VECTOR('',#1086,10.);
#266=VECTOR('',#1087,10.);
#267=VECTOR('',#1090,10.);
#268=VECTOR('',#1093,10.);
#269=VECTOR('',#1096,10.);
#270=VECTOR('',#1099,10.);
#271=VECTOR('',#1100,10.);
#272=VECTOR('',#1105,10.);
#273=VECTOR('',#1108,10.);
#274=VECTOR('',#1113,12.);
#275=VECTOR('',#1114,12.);
#276=VECTOR('',#1117,10.);
#277=VECTOR('',#1120,10.);
#278=VECTOR('',#1123,10.);
#279=VECTOR('',#1126,10.);
#280=VECTOR('',#1135,10.);
#281=VECTOR('',#1140,10.);
#282=VECTOR('',#1143,10.);
#283=VECTOR('',#1146,10.);
#284=VECTOR('',#1147,10.);
#285=VECTOR('',#1154,10.);
#286=VECTOR('',#1155,10.);
#287=VECTOR('',#1158,10.);
#288=VECTOR('',#1159,10.);
#289=VECTOR('',#1162,10.);
#290=VECTOR('',#1165,10.);
#291=VECTOR('',#1172,10.);
#292=VECTOR('',#1173,10.);
#293=VECTOR('',#1182,3.70000000000053);
#294=VECTOR('',#1185,3.50000000000054);
#295=VECTOR('',#1194,1.59999999999997);
#296=VECTOR('',#1197,10.);
#297=VECTOR('',#1200,10.);
#298=VECTOR('',#1205,1.90000000000005);
#299=VECTOR('',#1208,1.50000000000006);
#300=VECTOR('',#1213,10.);
#301=VECTOR('',#1214,10.);
#302=VECTOR('',#1215,10.);
#303=VECTOR('',#1218,10.);
#304=VECTOR('',#1219,10.);
#305=VECTOR('',#1220,10.);
#306=VECTOR('',#1223,10.);
#307=VECTOR('',#1226,10.);
#308=CIRCLE('',#883,1.3);
#309=CIRCLE('',#884,1.3);
#310=CIRCLE('',#886,3.);
#311=CIRCLE('',#887,3.);
#312=CIRCLE('',#888,2.);
#313=CIRCLE('',#889,2.);
#314=CIRCLE('',#890,12.0000000000002);
#315=CIRCLE('',#891,1.99999999999994);
#316=CIRCLE('',#892,1.59999999999997);
#317=CIRCLE('',#893,1.3);
#318=CIRCLE('',#895,1.4);
#319=CIRCLE('',#896,1.4);
#320=CIRCLE('',#898,4.);
#321=CIRCLE('',#899,4.);
#322=CIRCLE('',#902,1.99999999999994);
#323=CIRCLE('',#903,12.0000000000002);
#324=CIRCLE('',#904,2.);
#325=CIRCLE('',#906,1.5);
#326=CIRCLE('',#907,1.5);
#327=CIRCLE('',#908,1.5);
#328=CIRCLE('',#909,1.5);
#329=CIRCLE('',#911,2.);
#330=CIRCLE('',#912,12.);
#331=CIRCLE('',#913,2.);
#332=CIRCLE('',#915,1.5);
#333=CIRCLE('',#917,1.5);
#334=CIRCLE('',#918,1.5);
#335=CIRCLE('',#919,1.5);
#336=CIRCLE('',#920,1.90000000000005);
#337=CIRCLE('',#929,12.);
#338=CIRCLE('',#931,2.);
#339=CIRCLE('',#932,2.);
#340=CIRCLE('',#933,3.);
#341=CIRCLE('',#934,3.);
#342=CIRCLE('',#935,2.);
#343=CIRCLE('',#936,1.59999999999997);
#344=CIRCLE('',#944,1.59999999999997);
#345=CIRCLE('',#945,1.59999999999997);
#346=CIRCLE('',#948,4.20000000000053);
#347=CIRCLE('',#950,1.59999999999997);
#348=CIRCLE('',#952,1.90000000000005);
#349=CIRCLE('',#954,3.20000000000054);
#350=CIRCLE('',#956,3.20000000000054);
#351=CIRCLE('',#965,1.3);
#352=VERTEX_POINT('',#1231);
#353=VERTEX_POINT('',#1233);
#354=VERTEX_POINT('',#1237);
#355=VERTEX_POINT('',#1238);
#356=VERTEX_POINT('',#1240);
#357=VERTEX_POINT('',#1242);
#358=VERTEX_POINT('',#1244);
#359=VERTEX_POINT('',#1246);
#360=VERTEX_POINT('',#1248);
#361=VERTEX_POINT('',#1250);
#362=VERTEX_POINT('',#1252);
#363=VERTEX_POINT('',#1254);
#364=VERTEX_POINT('',#1256);
#365=VERTEX_POINT('',#1259);
#366=VERTEX_POINT('',#1261);
#367=VERTEX_POINT('',#1264);
#368=VERTEX_POINT('',#1266);
#369=VERTEX_POINT('',#1270);
#370=VERTEX_POINT('',#1271);
#371=VERTEX_POINT('',#1273);
#372=VERTEX_POINT('',#1275);
#373=VERTEX_POINT('',#1279);
#374=VERTEX_POINT('',#1281);
#375=VERTEX_POINT('',#1285);
#376=VERTEX_POINT('',#1287);
#377=VERTEX_POINT('',#1289);
#378=VERTEX_POINT('',#1291);
#379=VERTEX_POINT('',#1293);
#380=VERTEX_POINT('',#1295);
#381=VERTEX_POINT('',#1297);
#382=VERTEX_POINT('',#1301);
#383=VERTEX_POINT('',#1303);
#384=VERTEX_POINT('',#1305);
#385=VERTEX_POINT('',#1307);
#386=VERTEX_POINT('',#1309);
#387=VERTEX_POINT('',#1311);
#388=VERTEX_POINT('',#1313);
#389=VERTEX_POINT('',#1317);
#390=VERTEX_POINT('',#1319);
#391=VERTEX_POINT('',#1321);
#392=VERTEX_POINT('',#1323);
#393=VERTEX_POINT('',#1325);
#394=VERTEX_POINT('',#1327);
#395=VERTEX_POINT('',#1331);
#396=VERTEX_POINT('',#1335);
#397=VERTEX_POINT('',#1337);
#398=VERTEX_POINT('',#1341);
#399=VERTEX_POINT('',#1343);
#400=VERTEX_POINT('',#1345);
#401=VERTEX_POINT('',#1347);
#402=VERTEX_POINT('',#1349);
#403=VERTEX_POINT('',#1352);
#404=VERTEX_POINT('',#1354);
#405=VERTEX_POINT('',#1355);
#406=VERTEX_POINT('',#1357);
#407=VERTEX_POINT('',#1359);
#408=VERTEX_POINT('',#1377);
#409=VERTEX_POINT('',#1378);
#410=VERTEX_POINT('',#1383);
#411=VERTEX_POINT('',#1385);
#412=VERTEX_POINT('',#1387);
#413=VERTEX_POINT('',#1389);
#414=VERTEX_POINT('',#1391);
#415=VERTEX_POINT('',#1393);
#416=VERTEX_POINT('',#1395);
#417=VERTEX_POINT('',#1399);
#418=VERTEX_POINT('',#1413);
#419=VERTEX_POINT('',#1414);
#420=VERTEX_POINT('',#1416);
#421=VERTEX_POINT('',#1418);
#422=VERTEX_POINT('',#1420);
#423=VERTEX_POINT('',#1422);
#424=VERTEX_POINT('',#1429);
#425=VERTEX_POINT('',#1432);
#426=VERTEX_POINT('',#1433);
#427=VERTEX_POINT('',#1438);
#428=VERTEX_POINT('',#1441);
#429=VERTEX_POINT('',#1445);
#430=VERTEX_POINT('',#1460);
#431=VERTEX_POINT('',#1464);
#432=VERTEX_POINT('',#1466);
#433=VERTEX_POINT('',#1470);
#434=VERTEX_POINT('',#1472);
#435=EDGE_CURVE('',#352,#352,#308,.T.);
#436=EDGE_CURVE('',#352,#353,#152,.T.);
#437=EDGE_CURVE('',#353,#353,#309,.T.);
#438=EDGE_CURVE('',#354,#355,#153,.T.);
#439=EDGE_CURVE('',#356,#355,#310,.T.);
#440=EDGE_CURVE('',#356,#357,#154,.F.);
#441=EDGE_CURVE('',#358,#357,#311,.T.);
#442=EDGE_CURVE('',#358,#359,#155,.T.);
#443=EDGE_CURVE('',#360,#359,#312,.T.);
#444=EDGE_CURVE('',#361,#360,#156,.T.);
#445=EDGE_CURVE('',#362,#361,#313,.T.);
#446=EDGE_CURVE('',#362,#363,#157,.T.);
#447=EDGE_CURVE('',#363,#364,#314,.T.);
#448=EDGE_CURVE('',#364,#354,#315,.T.);
#449=EDGE_CURVE('',#365,#365,#316,.T.);
#450=EDGE_CURVE('',#366,#366,#317,.T.);
#451=EDGE_CURVE('',#367,#367,#318,.T.);
#452=EDGE_CURVE('',#367,#368,#158,.T.);
#453=EDGE_CURVE('',#368,#368,#319,.T.);
#454=EDGE_CURVE('',#369,#370,#320,.T.);
#455=EDGE_CURVE('',#371,#369,#159,.T.);
#456=EDGE_CURVE('',#372,#371,#321,.T.);
#457=EDGE_CURVE('',#370,#372,#160,.T.);
#458=EDGE_CURVE('',#372,#373,#161,.T.);
#459=EDGE_CURVE('',#374,#373,#162,.T.);
#460=EDGE_CURVE('',#374,#370,#163,.T.);
#461=EDGE_CURVE('',#375,#371,#164,.T.);
#462=EDGE_CURVE('',#376,#375,#165,.T.);
#463=EDGE_CURVE('',#377,#376,#166,.T.);
#464=EDGE_CURVE('',#377,#378,#322,.T.);
#465=EDGE_CURVE('',#378,#379,#323,.T.);
#466=EDGE_CURVE('',#379,#380,#167,.T.);
#467=EDGE_CURVE('',#381,#380,#324,.T.);
#468=EDGE_CURVE('',#381,#373,#168,.T.);
#469=EDGE_CURVE('',#369,#382,#169,.T.);
#470=EDGE_CURVE('',#383,#382,#325,.F.);
#471=EDGE_CURVE('',#383,#384,#326,.T.);
#472=EDGE_CURVE('',#384,#385,#170,.T.);
#473=EDGE_CURVE('',#386,#385,#171,.T.);
#474=EDGE_CURVE('',#386,#387,#172,.T.);
#475=EDGE_CURVE('',#387,#388,#327,.T.);
#476=EDGE_CURVE('',#375,#388,#328,.F.);
#477=EDGE_CURVE('',#374,#389,#173,.T.);
#478=EDGE_CURVE('',#390,#389,#329,.T.);
#479=EDGE_CURVE('',#390,#391,#174,.T.);
#480=EDGE_CURVE('',#392,#391,#330,.T.);
#481=EDGE_CURVE('',#392,#393,#331,.T.);
#482=EDGE_CURVE('',#393,#394,#175,.T.);
#483=EDGE_CURVE('',#382,#394,#176,.T.);
#484=EDGE_CURVE('',#394,#395,#332,.T.);
#485=EDGE_CURVE('',#395,#383,#177,.T.);
#486=EDGE_CURVE('',#396,#393,#178,.T.);
#487=EDGE_CURVE('',#397,#396,#179,.F.);
#488=EDGE_CURVE('',#355,#397,#180,.T.);
#489=EDGE_CURVE('',#377,#354,#181,.T.);
#490=EDGE_CURVE('',#398,#376,#333,.T.);
#491=EDGE_CURVE('',#399,#398,#334,.T.);
#492=EDGE_CURVE('',#400,#399,#182,.T.);
#493=EDGE_CURVE('',#401,#400,#183,.T.);
#494=EDGE_CURVE('',#402,#401,#184,.T.);
#495=EDGE_CURVE('',#395,#402,#335,.T.);
#496=EDGE_CURVE('',#403,#403,#336,.T.);
#497=EDGE_CURVE('',#404,#405,#185,.T.);
#498=EDGE_CURVE('',#405,#406,#186,.T.);
#499=EDGE_CURVE('',#407,#406,#187,.T.);
#500=EDGE_CURVE('',#407,#404,#188,.T.);
#501=EDGE_CURVE('',#402,#384,#189,.T.);
#502=EDGE_CURVE('',#388,#398,#190,.T.);
#503=EDGE_CURVE('',#387,#399,#191,.T.);
#504=EDGE_CURVE('',#378,#364,#192,.T.);
#505=EDGE_CURVE('',#363,#379,#193,.T.);
#506=EDGE_CURVE('',#380,#362,#194,.T.);
#507=EDGE_CURVE('',#385,#401,#195,.T.);
#508=EDGE_CURVE('',#408,#409,#337,.T.);
#509=EDGE_CURVE('',#409,#392,#196,.T.);
#510=EDGE_CURVE('',#391,#408,#197,.T.);
#511=EDGE_CURVE('',#410,#408,#198,.T.);
#512=EDGE_CURVE('',#411,#410,#338,.T.);
#513=EDGE_CURVE('',#412,#411,#199,.T.);
#514=EDGE_CURVE('',#413,#412,#339,.T.);
#515=EDGE_CURVE('',#413,#414,#200,.T.);
#516=EDGE_CURVE('',#415,#414,#340,.T.);
#517=EDGE_CURVE('',#415,#416,#201,.F.);
#518=EDGE_CURVE('',#397,#416,#341,.T.);
#519=EDGE_CURVE('',#409,#396,#342,.T.);
#520=EDGE_CURVE('',#417,#417,#343,.T.);
#521=EDGE_CURVE('',#410,#390,#202,.T.);
#522=EDGE_CURVE('',#400,#386,#203,.T.);
#523=EDGE_CURVE('',#361,#381,#204,.T.);
#524=EDGE_CURVE('',#412,#360,#205,.T.);
#525=EDGE_CURVE('',#389,#411,#206,.T.);
#526=EDGE_CURVE('',#418,#419,#344,.T.);
#527=EDGE_CURVE('',#419,#420,#207,.T.);
#528=EDGE_CURVE('',#420,#421,#208,.T.);
#529=EDGE_CURVE('',#421,#422,#345,.T.);
#530=EDGE_CURVE('',#422,#423,#209,.T.);
#531=EDGE_CURVE('',#423,#418,#210,.T.);
#532=EDGE_CURVE('',#359,#413,#211,.T.);
#533=EDGE_CURVE('',#414,#358,#212,.T.);
#534=EDGE_CURVE('',#424,#424,#346,.T.);
#535=EDGE_CURVE('',#425,#426,#347,.T.);
#536=EDGE_CURVE('',#426,#419,#213,.T.);
#537=EDGE_CURVE('',#418,#425,#214,.T.);
#538=EDGE_CURVE('',#427,#427,#348,.T.);
#539=EDGE_CURVE('',#428,#428,#349,.T.);
#540=EDGE_CURVE('',#428,#424,#215,.T.);
#541=EDGE_CURVE('',#428,#429,#216,.T.);
#542=EDGE_CURVE('',#429,#429,#350,.F.);
#543=EDGE_CURVE('',#417,#365,#217,.T.);
#544=EDGE_CURVE('',#357,#415,#218,.T.);
#545=EDGE_CURVE('',#416,#356,#219,.T.);
#546=EDGE_CURVE('',#427,#403,#220,.T.);
#547=EDGE_CURVE('',#366,#430,#221,.T.);
#548=EDGE_CURVE('',#430,#430,#351,.F.);
#549=EDGE_CURVE('',#431,#407,#222,.T.);
#550=EDGE_CURVE('',#432,#431,#223,.T.);
#551=EDGE_CURVE('',#404,#432,#224,.T.);
#552=EDGE_CURVE('',#433,#405,#225,.T.);
#553=EDGE_CURVE('',#434,#433,#226,.T.);
#554=EDGE_CURVE('',#406,#434,#227,.T.);
#555=EDGE_CURVE('',#433,#432,#228,.T.);
#556=EDGE_CURVE('',#431,#434,#229,.T.);
#557=ORIENTED_EDGE('',*,*,#435,.F.);
#558=ORIENTED_EDGE('',*,*,#436,.T.);
#559=ORIENTED_EDGE('',*,*,#437,.F.);
#560=ORIENTED_EDGE('',*,*,#436,.F.);
#561=ORIENTED_EDGE('',*,*,#438,.T.);
#562=ORIENTED_EDGE('',*,*,#439,.F.);
#563=ORIENTED_EDGE('',*,*,#440,.T.);
#564=ORIENTED_EDGE('',*,*,#441,.F.);
#565=ORIENTED_EDGE('',*,*,#442,.T.);
#566=ORIENTED_EDGE('',*,*,#443,.F.);
#567=ORIENTED_EDGE('',*,*,#444,.F.);
#568=ORIENTED_EDGE('',*,*,#445,.F.);
#569=ORIENTED_EDGE('',*,*,#446,.T.);
#570=ORIENTED_EDGE('',*,*,#447,.T.);
#571=ORIENTED_EDGE('',*,*,#448,.T.);
#572=ORIENTED_EDGE('',*,*,#449,.F.);
#573=ORIENTED_EDGE('',*,*,#450,.F.);
#574=ORIENTED_EDGE('',*,*,#451,.F.);
#575=ORIENTED_EDGE('',*,*,#452,.T.);
#576=ORIENTED_EDGE('',*,*,#453,.F.);
#577=ORIENTED_EDGE('',*,*,#452,.F.);
#578=ORIENTED_EDGE('',*,*,#454,.F.);
#579=ORIENTED_EDGE('',*,*,#455,.F.);
#580=ORIENTED_EDGE('',*,*,#456,.F.);
#581=ORIENTED_EDGE('',*,*,#457,.F.);
#582=ORIENTED_EDGE('',*,*,#457,.T.);
#583=ORIENTED_EDGE('',*,*,#458,.T.);
#584=ORIENTED_EDGE('',*,*,#459,.F.);
#585=ORIENTED_EDGE('',*,*,#460,.T.);
#586=ORIENTED_EDGE('',*,*,#456,.T.);
#587=ORIENTED_EDGE('',*,*,#461,.F.);
#588=ORIENTED_EDGE('',*,*,#462,.F.);
#589=ORIENTED_EDGE('',*,*,#463,.F.);
#590=ORIENTED_EDGE('',*,*,#464,.T.);
#591=ORIENTED_EDGE('',*,*,#465,.T.);
#592=ORIENTED_EDGE('',*,*,#466,.T.);
#593=ORIENTED_EDGE('',*,*,#467,.F.);
#594=ORIENTED_EDGE('',*,*,#468,.T.);
#595=ORIENTED_EDGE('',*,*,#458,.F.);
#596=ORIENTED_EDGE('',*,*,#455,.T.);
#597=ORIENTED_EDGE('',*,*,#469,.T.);
#598=ORIENTED_EDGE('',*,*,#470,.F.);
#599=ORIENTED_EDGE('',*,*,#471,.T.);
#600=ORIENTED_EDGE('',*,*,#472,.T.);
#601=ORIENTED_EDGE('',*,*,#473,.F.);
#602=ORIENTED_EDGE('',*,*,#474,.T.);
#603=ORIENTED_EDGE('',*,*,#475,.T.);
#604=ORIENTED_EDGE('',*,*,#476,.F.);
#605=ORIENTED_EDGE('',*,*,#461,.T.);
#606=ORIENTED_EDGE('',*,*,#454,.T.);
#607=ORIENTED_EDGE('',*,*,#460,.F.);
#608=ORIENTED_EDGE('',*,*,#477,.T.);
#609=ORIENTED_EDGE('',*,*,#478,.F.);
#610=ORIENTED_EDGE('',*,*,#479,.T.);
#611=ORIENTED_EDGE('',*,*,#480,.F.);
#612=ORIENTED_EDGE('',*,*,#481,.T.);
#613=ORIENTED_EDGE('',*,*,#482,.T.);
#614=ORIENTED_EDGE('',*,*,#483,.F.);
#615=ORIENTED_EDGE('',*,*,#469,.F.);
#616=ORIENTED_EDGE('',*,*,#484,.T.);
#617=ORIENTED_EDGE('',*,*,#485,.T.);
#618=ORIENTED_EDGE('',*,*,#470,.T.);
#619=ORIENTED_EDGE('',*,*,#483,.T.);
#620=ORIENTED_EDGE('',*,*,#484,.F.);
#621=ORIENTED_EDGE('',*,*,#482,.F.);
#622=ORIENTED_EDGE('',*,*,#486,.F.);
#623=ORIENTED_EDGE('',*,*,#487,.F.);
#624=ORIENTED_EDGE('',*,*,#488,.F.);
#625=ORIENTED_EDGE('',*,*,#438,.F.);
#626=ORIENTED_EDGE('',*,*,#489,.F.);
#627=ORIENTED_EDGE('',*,*,#463,.T.);
#628=ORIENTED_EDGE('',*,*,#490,.F.);
#629=ORIENTED_EDGE('',*,*,#491,.F.);
#630=ORIENTED_EDGE('',*,*,#492,.F.);
#631=ORIENTED_EDGE('',*,*,#493,.F.);
#632=ORIENTED_EDGE('',*,*,#494,.F.);
#633=ORIENTED_EDGE('',*,*,#495,.F.);
#634=ORIENTED_EDGE('',*,*,#496,.T.);
#635=ORIENTED_EDGE('',*,*,#497,.T.);
#636=ORIENTED_EDGE('',*,*,#498,.T.);
#637=ORIENTED_EDGE('',*,*,#499,.F.);
#638=ORIENTED_EDGE('',*,*,#500,.T.);
#639=ORIENTED_EDGE('',*,*,#485,.F.);
#640=ORIENTED_EDGE('',*,*,#495,.T.);
#641=ORIENTED_EDGE('',*,*,#501,.T.);
#642=ORIENTED_EDGE('',*,*,#471,.F.);
#643=ORIENTED_EDGE('',*,*,#490,.T.);
#644=ORIENTED_EDGE('',*,*,#462,.T.);
#645=ORIENTED_EDGE('',*,*,#476,.T.);
#646=ORIENTED_EDGE('',*,*,#502,.T.);
#647=ORIENTED_EDGE('',*,*,#502,.F.);
#648=ORIENTED_EDGE('',*,*,#475,.F.);
#649=ORIENTED_EDGE('',*,*,#503,.T.);
#650=ORIENTED_EDGE('',*,*,#491,.T.);
#651=ORIENTED_EDGE('',*,*,#465,.F.);
#652=ORIENTED_EDGE('',*,*,#504,.T.);
#653=ORIENTED_EDGE('',*,*,#447,.F.);
#654=ORIENTED_EDGE('',*,*,#505,.T.);
#655=ORIENTED_EDGE('',*,*,#464,.F.);
#656=ORIENTED_EDGE('',*,*,#489,.T.);
#657=ORIENTED_EDGE('',*,*,#448,.F.);
#658=ORIENTED_EDGE('',*,*,#504,.F.);
#659=ORIENTED_EDGE('',*,*,#505,.F.);
#660=ORIENTED_EDGE('',*,*,#446,.F.);
#661=ORIENTED_EDGE('',*,*,#506,.F.);
#662=ORIENTED_EDGE('',*,*,#466,.F.);
#663=ORIENTED_EDGE('',*,*,#501,.F.);
#664=ORIENTED_EDGE('',*,*,#494,.T.);
#665=ORIENTED_EDGE('',*,*,#507,.F.);
#666=ORIENTED_EDGE('',*,*,#472,.F.);
#667=ORIENTED_EDGE('',*,*,#451,.T.);
#668=ORIENTED_EDGE('',*,*,#508,.T.);
#669=ORIENTED_EDGE('',*,*,#509,.T.);
#670=ORIENTED_EDGE('',*,*,#480,.T.);
#671=ORIENTED_EDGE('',*,*,#510,.T.);
#672=ORIENTED_EDGE('',*,*,#508,.F.);
#673=ORIENTED_EDGE('',*,*,#511,.F.);
#674=ORIENTED_EDGE('',*,*,#512,.F.);
#675=ORIENTED_EDGE('',*,*,#513,.F.);
#676=ORIENTED_EDGE('',*,*,#514,.F.);
#677=ORIENTED_EDGE('',*,*,#515,.T.);
#678=ORIENTED_EDGE('',*,*,#516,.F.);
#679=ORIENTED_EDGE('',*,*,#517,.T.);
#680=ORIENTED_EDGE('',*,*,#518,.F.);
#681=ORIENTED_EDGE('',*,*,#487,.T.);
#682=ORIENTED_EDGE('',*,*,#519,.F.);
#683=ORIENTED_EDGE('',*,*,#453,.T.);
#684=ORIENTED_EDGE('',*,*,#520,.T.);
#685=ORIENTED_EDGE('',*,*,#510,.F.);
#686=ORIENTED_EDGE('',*,*,#479,.F.);
#687=ORIENTED_EDGE('',*,*,#521,.F.);
#688=ORIENTED_EDGE('',*,*,#511,.T.);
#689=ORIENTED_EDGE('',*,*,#509,.F.);
#690=ORIENTED_EDGE('',*,*,#519,.T.);
#691=ORIENTED_EDGE('',*,*,#486,.T.);
#692=ORIENTED_EDGE('',*,*,#481,.F.);
#693=ORIENTED_EDGE('',*,*,#503,.F.);
#694=ORIENTED_EDGE('',*,*,#474,.F.);
#695=ORIENTED_EDGE('',*,*,#522,.F.);
#696=ORIENTED_EDGE('',*,*,#492,.T.);
#697=ORIENTED_EDGE('',*,*,#437,.T.);
#698=ORIENTED_EDGE('',*,*,#445,.T.);
#699=ORIENTED_EDGE('',*,*,#523,.T.);
#700=ORIENTED_EDGE('',*,*,#467,.T.);
#701=ORIENTED_EDGE('',*,*,#506,.T.);
#702=ORIENTED_EDGE('',*,*,#523,.F.);
#703=ORIENTED_EDGE('',*,*,#444,.T.);
#704=ORIENTED_EDGE('',*,*,#524,.F.);
#705=ORIENTED_EDGE('',*,*,#513,.T.);
#706=ORIENTED_EDGE('',*,*,#525,.F.);
#707=ORIENTED_EDGE('',*,*,#477,.F.);
#708=ORIENTED_EDGE('',*,*,#459,.T.);
#709=ORIENTED_EDGE('',*,*,#468,.F.);
#710=ORIENTED_EDGE('',*,*,#512,.T.);
#711=ORIENTED_EDGE('',*,*,#521,.T.);
#712=ORIENTED_EDGE('',*,*,#478,.T.);
#713=ORIENTED_EDGE('',*,*,#525,.T.);
#714=ORIENTED_EDGE('',*,*,#526,.T.);
#715=ORIENTED_EDGE('',*,*,#527,.T.);
#716=ORIENTED_EDGE('',*,*,#528,.T.);
#717=ORIENTED_EDGE('',*,*,#529,.T.);
#718=ORIENTED_EDGE('',*,*,#530,.T.);
#719=ORIENTED_EDGE('',*,*,#531,.T.);
#720=ORIENTED_EDGE('',*,*,#514,.T.);
#721=ORIENTED_EDGE('',*,*,#524,.T.);
#722=ORIENTED_EDGE('',*,*,#443,.T.);
#723=ORIENTED_EDGE('',*,*,#532,.T.);
#724=ORIENTED_EDGE('',*,*,#532,.F.);
#725=ORIENTED_EDGE('',*,*,#442,.F.);
#726=ORIENTED_EDGE('',*,*,#533,.F.);
#727=ORIENTED_EDGE('',*,*,#515,.F.);
#728=ORIENTED_EDGE('',*,*,#534,.F.);
#729=ORIENTED_EDGE('',*,*,#535,.T.);
#730=ORIENTED_EDGE('',*,*,#536,.T.);
#731=ORIENTED_EDGE('',*,*,#526,.F.);
#732=ORIENTED_EDGE('',*,*,#537,.T.);
#733=ORIENTED_EDGE('',*,*,#538,.F.);
#734=ORIENTED_EDGE('',*,*,#539,.T.);
#735=ORIENTED_EDGE('',*,*,#540,.T.);
#736=ORIENTED_EDGE('',*,*,#534,.T.);
#737=ORIENTED_EDGE('',*,*,#540,.F.);
#738=ORIENTED_EDGE('',*,*,#539,.F.);
#739=ORIENTED_EDGE('',*,*,#541,.T.);
#740=ORIENTED_EDGE('',*,*,#542,.T.);
#741=ORIENTED_EDGE('',*,*,#541,.F.);
#742=ORIENTED_EDGE('',*,*,#542,.F.);
#743=ORIENTED_EDGE('',*,*,#507,.T.);
#744=ORIENTED_EDGE('',*,*,#493,.T.);
#745=ORIENTED_EDGE('',*,*,#522,.T.);
#746=ORIENTED_EDGE('',*,*,#473,.T.);
#747=ORIENTED_EDGE('',*,*,#520,.F.);
#748=ORIENTED_EDGE('',*,*,#543,.T.);
#749=ORIENTED_EDGE('',*,*,#449,.T.);
#750=ORIENTED_EDGE('',*,*,#543,.F.);
#751=ORIENTED_EDGE('',*,*,#535,.F.);
#752=ORIENTED_EDGE('',*,*,#537,.F.);
#753=ORIENTED_EDGE('',*,*,#531,.F.);
#754=ORIENTED_EDGE('',*,*,#530,.F.);
#755=ORIENTED_EDGE('',*,*,#529,.F.);
#756=ORIENTED_EDGE('',*,*,#528,.F.);
#757=ORIENTED_EDGE('',*,*,#527,.F.);
#758=ORIENTED_EDGE('',*,*,#536,.F.);
#759=ORIENTED_EDGE('',*,*,#441,.T.);
#760=ORIENTED_EDGE('',*,*,#544,.T.);
#761=ORIENTED_EDGE('',*,*,#516,.T.);
#762=ORIENTED_EDGE('',*,*,#533,.T.);
#763=ORIENTED_EDGE('',*,*,#544,.F.);
#764=ORIENTED_EDGE('',*,*,#440,.F.);
#765=ORIENTED_EDGE('',*,*,#545,.F.);
#766=ORIENTED_EDGE('',*,*,#517,.F.);
#767=ORIENTED_EDGE('',*,*,#518,.T.);
#768=ORIENTED_EDGE('',*,*,#545,.T.);
#769=ORIENTED_EDGE('',*,*,#439,.T.);
#770=ORIENTED_EDGE('',*,*,#488,.T.);
#771=ORIENTED_EDGE('',*,*,#538,.T.);
#772=ORIENTED_EDGE('',*,*,#546,.T.);
#773=ORIENTED_EDGE('',*,*,#496,.F.);
#774=ORIENTED_EDGE('',*,*,#546,.F.);
#775=ORIENTED_EDGE('',*,*,#450,.T.);
#776=ORIENTED_EDGE('',*,*,#547,.T.);
#777=ORIENTED_EDGE('',*,*,#548,.F.);
#778=ORIENTED_EDGE('',*,*,#547,.F.);
#779=ORIENTED_EDGE('',*,*,#500,.F.);
#780=ORIENTED_EDGE('',*,*,#549,.F.);
#781=ORIENTED_EDGE('',*,*,#550,.F.);
#782=ORIENTED_EDGE('',*,*,#551,.F.);
#783=ORIENTED_EDGE('',*,*,#498,.F.);
#784=ORIENTED_EDGE('',*,*,#552,.F.);
#785=ORIENTED_EDGE('',*,*,#553,.F.);
#786=ORIENTED_EDGE('',*,*,#554,.F.);
#787=ORIENTED_EDGE('',*,*,#497,.F.);
#788=ORIENTED_EDGE('',*,*,#551,.T.);
#789=ORIENTED_EDGE('',*,*,#555,.F.);
#790=ORIENTED_EDGE('',*,*,#552,.T.);
#791=ORIENTED_EDGE('',*,*,#548,.T.);
#792=ORIENTED_EDGE('',*,*,#499,.T.);
#793=ORIENTED_EDGE('',*,*,#554,.T.);
#794=ORIENTED_EDGE('',*,*,#556,.F.);
#795=ORIENTED_EDGE('',*,*,#549,.T.);
#796=ORIENTED_EDGE('',*,*,#435,.T.);
#797=ORIENTED_EDGE('',*,*,#556,.T.);
#798=ORIENTED_EDGE('',*,*,#553,.T.);
#799=ORIENTED_EDGE('',*,*,#555,.T.);
#800=ORIENTED_EDGE('',*,*,#550,.T.);
#801=CYLINDRICAL_SURFACE('',#882,1.3);
#802=CYLINDRICAL_SURFACE('',#894,1.4);
#803=CYLINDRICAL_SURFACE('',#897,4.);
#804=CYLINDRICAL_SURFACE('',#914,1.5);
#805=CYLINDRICAL_SURFACE('',#921,1.5);
#806=CYLINDRICAL_SURFACE('',#922,1.5);
#807=CYLINDRICAL_SURFACE('',#923,1.5);
#808=CYLINDRICAL_SURFACE('',#924,12.0000000000002);
#809=CYLINDRICAL_SURFACE('',#925,1.99999999999994);
#810=CYLINDRICAL_SURFACE('',#928,12.);
#811=CYLINDRICAL_SURFACE('',#938,2.);
#812=CYLINDRICAL_SURFACE('',#940,2.);
#813=CYLINDRICAL_SURFACE('',#942,2.);
#814=CYLINDRICAL_SURFACE('',#943,1.6);
#815=CYLINDRICAL_SURFACE('',#946,2.);
#816=CYLINDRICAL_SURFACE('',#949,1.59999999999997);
#817=CYLINDRICAL_SURFACE('',#955,3.20000000000054);
#818=CYLINDRICAL_SURFACE('',#959,1.59999999999997);
#819=CYLINDRICAL_SURFACE('',#960,3.);
#820=CYLINDRICAL_SURFACE('',#962,3.);
#821=CYLINDRICAL_SURFACE('',#963,1.90000000000005);
#822=CYLINDRICAL_SURFACE('',#964,1.3);
#823=ADVANCED_FACE('',(#50),#801,.F.);
#824=ADVANCED_FACE('',(#51,#16,#17),#28,.T.);
#825=ADVANCED_FACE('',(#52),#802,.F.);
#826=ADVANCED_FACE('',(#53),#803,.T.);
#827=ADVANCED_FACE('',(#54),#29,.F.);
#828=ADVANCED_FACE('',(#55),#30,.T.);
#829=ADVANCED_FACE('',(#56),#31,.F.);
#830=ADVANCED_FACE('',(#57),#32,.T.);
#831=ADVANCED_FACE('',(#58),#804,.T.);
#832=ADVANCED_FACE('',(#59,#18,#19),#33,.F.);
#833=ADVANCED_FACE('',(#60),#805,.F.);
#834=ADVANCED_FACE('',(#61),#806,.T.);
#835=ADVANCED_FACE('',(#62),#807,.F.);
#836=ADVANCED_FACE('',(#63),#808,.T.);
#837=ADVANCED_FACE('',(#64),#809,.F.);
#838=ADVANCED_FACE('',(#65),#34,.T.);
#839=ADVANCED_FACE('',(#66,#20),#35,.F.);
#840=ADVANCED_FACE('',(#67),#810,.T.);
#841=ADVANCED_FACE('',(#68,#21,#22),#36,.T.);
#842=ADVANCED_FACE('',(#69),#37,.T.);
#843=ADVANCED_FACE('',(#70),#811,.F.);
#844=ADVANCED_FACE('',(#71,#23),#38,.T.);
#845=ADVANCED_FACE('',(#72),#812,.T.);
#846=ADVANCED_FACE('',(#73),#39,.T.);
#847=ADVANCED_FACE('',(#74),#813,.T.);
#848=ADVANCED_FACE('',(#75),#814,.F.);
#849=ADVANCED_FACE('',(#76),#815,.T.);
#850=ADVANCED_FACE('',(#77,#24),#40,.F.);
#851=ADVANCED_FACE('',(#78),#816,.F.);
#852=ADVANCED_FACE('',(#79),#41,.F.);
#853=ADVANCED_FACE('',(#80),#15,.F.);
#854=ADVANCED_FACE('',(#81),#817,.F.);
#855=ADVANCED_FACE('',(#82),#42,.F.);
#856=ADVANCED_FACE('',(#83),#43,.T.);
#857=ADVANCED_FACE('',(#84,#25),#818,.F.);
#858=ADVANCED_FACE('',(#85),#819,.T.);
#859=ADVANCED_FACE('',(#86),#44,.T.);
#860=ADVANCED_FACE('',(#87),#820,.T.);
#861=ADVANCED_FACE('',(#88),#821,.F.);
#862=ADVANCED_FACE('',(#89),#822,.F.);
#863=ADVANCED_FACE('',(#90),#45,.F.);
#864=ADVANCED_FACE('',(#91),#46,.F.);
#865=ADVANCED_FACE('',(#92,#26),#47,.T.);
#866=ADVANCED_FACE('',(#93,#27),#48,.F.);
#867=ADVANCED_FACE('',(#94),#49,.F.);
#868=CLOSED_SHELL('',(#823,#824,#825,#826,#827,#828,#829,#830,#831,#832,
#833,#834,#835,#836,#837,#838,#839,#840,#841,#842,#843,#844,#845,#846,#847,
#848,#849,#850,#851,#852,#853,#854,#855,#856,#857,#858,#859,#860,#861,#862,
#863,#864,#865,#866,#867));
#869=DERIVED_UNIT_ELEMENT(#871,1.);
#870=DERIVED_UNIT_ELEMENT(#1485,-3.);
#871=(
MASS_UNIT()
NAMED_UNIT(*)
SI_UNIT(.KILO.,.GRAM.)
);
#872=DERIVED_UNIT((#869,#870));
#873=MEASURE_REPRESENTATION_ITEM('density measure',
POSITIVE_RATIO_MEASURE(7850.),#872);
#874=PROPERTY_DEFINITION_REPRESENTATION(#879,#876);
#875=PROPERTY_DEFINITION_REPRESENTATION(#880,#877);
#876=REPRESENTATION('material name',(#878),#1482);
#877=REPRESENTATION('density',(#873),#1482);
#878=DESCRIPTIVE_REPRESENTATION_ITEM('Steel','Steel');
#879=PROPERTY_DEFINITION('material property','material name',#1492);
#880=PROPERTY_DEFINITION('material property','density of part',#1492);
#881=AXIS2_PLACEMENT_3D('',#1229,#971,#972);
#882=AXIS2_PLACEMENT_3D('',#1230,#973,#974);
#883=AXIS2_PLACEMENT_3D('',#1232,#975,#976);
#884=AXIS2_PLACEMENT_3D('',#1235,#978,#979);
#885=AXIS2_PLACEMENT_3D('',#1236,#980,#981);
#886=AXIS2_PLACEMENT_3D('',#1241,#983,#984);
#887=AXIS2_PLACEMENT_3D('',#1245,#986,#987);
#888=AXIS2_PLACEMENT_3D('',#1249,#989,#990);
#889=AXIS2_PLACEMENT_3D('',#1253,#992,#993);
#890=AXIS2_PLACEMENT_3D('',#1257,#995,#996);
#891=AXIS2_PLACEMENT_3D('',#1258,#997,#998);
#892=AXIS2_PLACEMENT_3D('',#1260,#999,#1000);
#893=AXIS2_PLACEMENT_3D('',#1262,#1001,#1002);
#894=AXIS2_PLACEMENT_3D('',#1263,#1003,#1004);
#895=AXIS2_PLACEMENT_3D('',#1265,#1005,#1006);
#896=AXIS2_PLACEMENT_3D('',#1268,#1008,#1009);
#897=AXIS2_PLACEMENT_3D('',#1269,#1010,#1011);
#898=AXIS2_PLACEMENT_3D('',#1272,#1012,#1013);
#899=AXIS2_PLACEMENT_3D('',#1276,#1015,#1016);
#900=AXIS2_PLACEMENT_3D('',#1278,#1018,#1019);
#901=AXIS2_PLACEMENT_3D('',#1284,#1023,#1024);
#902=AXIS2_PLACEMENT_3D('',#1292,#1028,#1029);
#903=AXIS2_PLACEMENT_3D('',#1294,#1030,#1031);
#904=AXIS2_PLACEMENT_3D('',#1298,#1033,#1034);
#905=AXIS2_PLACEMENT_3D('',#1300,#1036,#1037);
#906=AXIS2_PLACEMENT_3D('',#1304,#1039,#1040);
#907=AXIS2_PLACEMENT_3D('',#1306,#1041,#1042);
#908=AXIS2_PLACEMENT_3D('',#1314,#1046,#1047);
#909=AXIS2_PLACEMENT_3D('',#1315,#1048,#1049);
#910=AXIS2_PLACEMENT_3D('',#1316,#1050,#1051);
#911=AXIS2_PLACEMENT_3D('',#1320,#1053,#1054);
#912=AXIS2_PLACEMENT_3D('',#1324,#1056,#1057);
#913=AXIS2_PLACEMENT_3D('',#1326,#1058,#1059);
#914=AXIS2_PLACEMENT_3D('',#1330,#1062,#1063);
#915=AXIS2_PLACEMENT_3D('',#1332,#1064,#1065);
#916=AXIS2_PLACEMENT_3D('',#1334,#1067,#1068);
#917=AXIS2_PLACEMENT_3D('',#1342,#1073,#1074);
#918=AXIS2_PLACEMENT_3D('',#1344,#1075,#1076);
#919=AXIS2_PLACEMENT_3D('',#1351,#1080,#1081);
#920=AXIS2_PLACEMENT_3D('',#1353,#1082,#1083);
#921=AXIS2_PLACEMENT_3D('',#1362,#1088,#1089);
#922=AXIS2_PLACEMENT_3D('',#1364,#1091,#1092);
#923=AXIS2_PLACEMENT_3D('',#1366,#1094,#1095);
#924=AXIS2_PLACEMENT_3D('',#1368,#1097,#1098);
#925=AXIS2_PLACEMENT_3D('',#1371,#1101,#1102);
#926=AXIS2_PLACEMENT_3D('',#1372,#1103,#1104);
#927=AXIS2_PLACEMENT_3D('',#1374,#1106,#1107);
#928=AXIS2_PLACEMENT_3D('',#1376,#1109,#1110);
#929=AXIS2_PLACEMENT_3D('',#1379,#1111,#1112);
#930=AXIS2_PLACEMENT_3D('',#1382,#1115,#1116);
#931=AXIS2_PLACEMENT_3D('',#1386,#1118,#1119);
#932=AXIS2_PLACEMENT_3D('',#1390,#1121,#1122);
#933=AXIS2_PLACEMENT_3D('',#1394,#1124,#1125);
#934=AXIS2_PLACEMENT_3D('',#1397,#1127,#1128);
#935=AXIS2_PLACEMENT_3D('',#1398,#1129,#1130);
#936=AXIS2_PLACEMENT_3D('',#1400,#1131,#1132);
#937=AXIS2_PLACEMENT_3D('',#1401,#1133,#1134);
#938=AXIS2_PLACEMENT_3D('',#1403,#1136,#1137);
#939=AXIS2_PLACEMENT_3D('',#1404,#1138,#1139);
#940=AXIS2_PLACEMENT_3D('',#1406,#1141,#1142);
#941=AXIS2_PLACEMENT_3D('',#1408,#1144,#1145);
#942=AXIS2_PLACEMENT_3D('',#1411,#1148,#1149);
#943=AXIS2_PLACEMENT_3D('',#1412,#1150,#1151);
#944=AXIS2_PLACEMENT_3D('',#1415,#1152,#1153);
#945=AXIS2_PLACEMENT_3D('',#1421,#1156,#1157);
#946=AXIS2_PLACEMENT_3D('',#1425,#1160,#1161);
#947=AXIS2_PLACEMENT_3D('',#1427,#1163,#1164);
#948=AXIS2_PLACEMENT_3D('',#1430,#1166,#1167);
#949=AXIS2_PLACEMENT_3D('',#1431,#1168,#1169);
#950=AXIS2_PLACEMENT_3D('',#1434,#1170,#1171);
#951=AXIS2_PLACEMENT_3D('',#1437,#1174,#1175);
#952=AXIS2_PLACEMENT_3D('',#1439,#1176,#1177);
#953=AXIS2_PLACEMENT_3D('',#1440,#1178,#1179);
#954=AXIS2_PLACEMENT_3D('',#1442,#1180,#1181);
#955=AXIS2_PLACEMENT_3D('',#1444,#1183,#1184);
#956=AXIS2_PLACEMENT_3D('',#1447,#1186,#1187);
#957=AXIS2_PLACEMENT_3D('',#1448,#1188,#1189);
#958=AXIS2_PLACEMENT_3D('',#1449,#1190,#1191);
#959=AXIS2_PLACEMENT_3D('',#1450,#1192,#1193);
#960=AXIS2_PLACEMENT_3D('',#1452,#1195,#1196);
#961=AXIS2_PLACEMENT_3D('',#1454,#1198,#1199);
#962=AXIS2_PLACEMENT_3D('',#1456,#1201,#1202);
#963=AXIS2_PLACEMENT_3D('',#1457,#1203,#1204);
#964=AXIS2_PLACEMENT_3D('',#1459,#1206,#1207);
#965=AXIS2_PLACEMENT_3D('',#1462,#1209,#1210);
#966=AXIS2_PLACEMENT_3D('',#1463,#1211,#1212);
#967=AXIS2_PLACEMENT_3D('',#1469,#1216,#1217);
#968=AXIS2_PLACEMENT_3D('',#1475,#1221,#1222);
#969=AXIS2_PLACEMENT_3D('',#1477,#1224,#1225);
#970=AXIS2_PLACEMENT_3D('',#1479,#1227,#1228);
#971=DIRECTION('axis',(0.,0.,1.));
#972=DIRECTION('refdir',(1.,0.,0.));
#973=DIRECTION('center_axis',(1.,-1.40238697847388E-14,-7.47939721852737E-14));
#974=DIRECTION('ref_axis',(7.47939721852739E-14,1.33018596137872E-14,1.));
#975=DIRECTION('center_axis',(-1.,9.36403732379235E-15,5.55111516356595E-17));
#976=DIRECTION('ref_axis',(7.47939721852739E-14,1.33018596137872E-14,1.));
#977=DIRECTION('',(-1.,1.40238697847388E-14,7.47939721852737E-14));
#978=DIRECTION('center_axis',(1.,-1.40851338958105E-14,-6.13132611855689E-14));
#979=DIRECTION('ref_axis',(7.47939721852739E-14,1.33018596137872E-14,1.));
#980=DIRECTION('center_axis',(1.,-1.40851338953384E-14,-6.12022388831146E-14));
#981=DIRECTION('ref_axis',(-1.40851338953413E-14,-1.,-4.67285269291535E-14));
#982=DIRECTION('',(-3.7058533403663E-14,-1.,-7.10542735760148E-14));
#983=DIRECTION('center_axis',(-1.,1.40851338953384E-14,6.12022388831146E-14));
#984=DIRECTION('ref_axis',(-5.44298719010378E-14,-0.707106781186551,0.707106781186544));
#985=DIRECTION('',(6.1202238883115E-14,3.31540350731866E-14,1.));
#986=DIRECTION('center_axis',(-1.,1.40851338953384E-14,6.12022388831146E-14));
#987=DIRECTION('ref_axis',(-4.34392246902524E-14,-0.707106781186534,-0.707106781186561));
#988=DIRECTION('',(1.40851338953413E-14,1.,4.67285269291535E-14));
#989=DIRECTION('center_axis',(-1.,1.40851338953384E-14,6.12022388831146E-14));
#990=DIRECTION('ref_axis',(-1.57009245868373E-14,0.707106781186559,-0.707106781186536));
#991=DIRECTION('',(-6.12577470311286E-14,5.60038506923034E-27,-1.));
#992=DIRECTION('center_axis',(-1.,1.40851338953384E-14,6.12022388831146E-14));
#993=DIRECTION('ref_axis',(2.82616642563077E-14,0.707106781186543,0.707106781186552));
#994=DIRECTION('',(-4.00796949932311E-14,-1.,-2.7117093616992E-31));
#995=DIRECTION('center_axis',(1.,-1.40851338953384E-14,-6.12022388831146E-14));
#996=DIRECTION('ref_axis',(0.,-0.765986092485312,0.642857142854525));
#997=DIRECTION('center_axis',(-1.,1.40851338953384E-14,6.12022388831146E-14));
#998=DIRECTION('ref_axis',(0.,0.765986092485515,-0.642857142854283));
#999=DIRECTION('center_axis',(1.,-1.40851338953384E-14,-6.12022388831146E-14));
#1000=DIRECTION('ref_axis',(6.12022388830221E-14,-8.32667778729031E-17,
1.));
#1001=DIRECTION('center_axis',(1.,-1.40851338953384E-14,-6.12022388831146E-14));
#1002=DIRECTION('ref_axis',(1.23855270770242E-28,1.33018596137896E-14,1.));
#1003=DIRECTION('center_axis',(1.,0.,0.));
#1004=DIRECTION('ref_axis',(0.,-8.32666961989562E-17,1.));
#1005=DIRECTION('center_axis',(-1.,5.43380909436705E-22,5.55111516448229E-17));
#1006=DIRECTION('ref_axis',(5.55111516448409E-17,-8.32666961989562E-17,
1.));
#1007=DIRECTION('',(-1.,0.,0.));
#1008=DIRECTION('center_axis',(1.,-5.43380909436705E-22,-5.55111516448229E-17));
#1009=DIRECTION('ref_axis',(5.55111516448409E-17,-8.32666961989562E-17,
1.));
#1010=DIRECTION('center_axis',(-1.,0.,0.));
#1011=DIRECTION('ref_axis',(0.,-8.32666961989562E-17,1.));
#1012=DIRECTION('center_axis',(-1.,5.43380909436705E-22,5.55111516448229E-17));
#1013=DIRECTION('ref_axis',(0.,-8.32666961989562E-17,1.));
#1014=DIRECTION('',(-1.,0.,0.));
#1015=DIRECTION('center_axis',(1.,-5.43380922058479E-22,-5.55111516447976E-17));
#1016=DIRECTION('ref_axis',(0.,-8.32666961989562E-17,1.));
#1017=DIRECTION('',(1.,0.,0.));
#1018=DIRECTION('center_axis',(7.78169341898312E-14,2.83270139369203E-16,
-1.));
#1019=DIRECTION('ref_axis',(1.,-8.80009206512114E-15,7.78169341898312E-14));
#1020=DIRECTION('',(5.43380922074204E-22,1.,2.83270139369203E-16));
#1021=DIRECTION('',(1.,0.,7.78169341898312E-14));
#1022=DIRECTION('',(-5.43380909452429E-22,-1.,-2.83270139369203E-16));
#1023=DIRECTION('center_axis',(-1.,5.43380922058479E-22,5.55111516447976E-17));
#1024=DIRECTION('ref_axis',(5.55111516447976E-17,-8.32666961989562E-17,
1.));
#1025=DIRECTION('',(1.57246516629739E-32,1.,2.83270139369203E-16));
#1026=DIRECTION('',(-5.55111516447976E-17,-3.32862926966615E-35,-1.));
#1027=DIRECTION('',(0.,-1.,0.));
#1028=DIRECTION('center_axis',(1.,-5.43380922058479E-22,-5.55111516447976E-17));
#1029=DIRECTION('ref_axis',(0.,0.765986092485515,-0.642857142854283));
#1030=DIRECTION('center_axis',(-1.,5.43380922058479E-22,5.55111516447976E-17));
#1031=DIRECTION('ref_axis',(0.,-0.765986092485312,0.642857142854525));
#1032=DIRECTION('',(5.43379842896761E-22,1.,-2.26685691519159E-13));
#1033=DIRECTION('center_axis',(1.,-5.43380922058479E-22,-5.55111516447976E-17));
#1034=DIRECTION('ref_axis',(2.82616642563077E-14,0.707106781186543,0.707106781186552));
#1035=DIRECTION('',(-5.55111516448229E-17,-4.82549534950499E-13,-1.));
#1036=DIRECTION('center_axis',(7.78169341898312E-14,2.83270139369203E-16,
-1.));
#1037=DIRECTION('ref_axis',(1.,-8.80009206512114E-15,7.78169341898312E-14));
#1038=DIRECTION('',(-1.57246516629739E-32,-1.,-2.83270139369203E-16));
#1039=DIRECTION('center_axis',(7.78169341898312E-14,2.83270139369203E-16,
-1.));
#1040=DIRECTION('ref_axis',(0.885061203156597,-0.465474668125987,-5.35211752005344E-14));
#1041=DIRECTION('center_axis',(-7.78169341898312E-14,-2.83270139369203E-16,
1.));
#1042=DIRECTION('ref_axis',(-0.707106781186545,0.70710678118655,0.));
#1043=DIRECTION('',(-9.2415726438775E-15,-1.,-2.83270139369922E-16));
#1044=DIRECTION('',(-1.,1.33737755449994E-14,-7.78169341898312E-14));
#1045=DIRECTION('',(1.40851338958105E-14,1.,2.83270139370299E-16));
#1046=DIRECTION('center_axis',(-7.78169341898312E-14,-2.83270139369203E-16,
1.));
#1047=DIRECTION('ref_axis',(0.707106781186552,0.707106781186543,-6.69906115705082E-14));
#1048=DIRECTION('center_axis',(7.78169341898312E-14,2.83270139369203E-16,
-1.));
#1049=DIRECTION('ref_axis',(-0.885061203158039,-0.465474668123244,5.35211752004473E-14));
#1050=DIRECTION('center_axis',(1.,-5.43380909436705E-22,-5.55111516448229E-17));
#1051=DIRECTION('ref_axis',(-5.55111516448229E-17,8.32666961989562E-17,
-1.));
#1052=DIRECTION('',(5.55111516448229E-17,-8.32666961989562E-17,1.));
#1053=DIRECTION('center_axis',(-1.,5.43380909436705E-22,5.55111516448229E-17));
#1054=DIRECTION('ref_axis',(2.82616642563078E-14,0.707106781186542,0.707106781186553));
#1055=DIRECTION('',(-5.43380909436705E-22,-1.,-8.32666961989562E-17));
#1056=DIRECTION('center_axis',(-1.,5.43380909436705E-22,5.55111516448229E-17));
#1057=DIRECTION('ref_axis',(0.,0.,-1.));
#1058=DIRECTION('center_axis',(-1.,5.43380915747592E-22,5.55111516448229E-17));
#1059=DIRECTION('ref_axis',(-5.55111516448228E-17,2.13246087424229E-13,
-1.));
#1060=DIRECTION('',(0.,-1.,0.));
#1061=DIRECTION('',(5.55111516448229E-17,3.32862919234799E-35,1.));
#1062=DIRECTION('center_axis',(6.13132611855687E-14,0.,1.));
#1063=DIRECTION('ref_axis',(0.885061203156597,-0.465474668125987,-5.35211752005344E-14));
#1064=DIRECTION('center_axis',(7.78169341898304E-14,1.88318497879226E-27,
-1.));
#1065=DIRECTION('ref_axis',(0.885061203156597,-0.465474668125987,-5.35211752005344E-14));
#1066=DIRECTION('',(-6.13132611855687E-14,0.,-1.));
#1067=DIRECTION('center_axis',(7.78169341898304E-14,1.88318497879226E-27,
-1.));
#1068=DIRECTION('ref_axis',(-1.,3.70585334036686E-14,-7.78169341898304E-14));
#1069=DIRECTION('',(1.,-4.00796949932311E-14,7.78169341898304E-14));
#1070=DIRECTION('',(-9.24157264340542E-15,-1.,-2.60233582899467E-27));
#1071=DIRECTION('',(-1.,-2.57994536541749E-27,-7.78169341898304E-14));
#1072=DIRECTION('',(1.,0.,0.));
#1073=DIRECTION('center_axis',(7.78169341898304E-14,1.88318497879226E-27,
-1.));
#1074=DIRECTION('ref_axis',(-0.885061203158039,-0.465474668123244,5.35211752004473E-14));
#1075=DIRECTION('center_axis',(-7.78169341898304E-14,-1.88318497879226E-27,
1.));
#1076=DIRECTION('ref_axis',(0.707106781186552,0.707106781186543,-6.69906115705082E-14));
#1077=DIRECTION('',(1.40851338958105E-14,1.,2.97924691621747E-27));
#1078=DIRECTION('',(1.,-1.33737755449986E-14,7.78169341898304E-14));
#1079=DIRECTION('',(-3.78653234506086E-29,-1.,1.14794370197489E-41));
#1080=DIRECTION('center_axis',(-7.78169341898304E-14,-1.88318497879226E-27,
1.));
#1081=DIRECTION('ref_axis',(-0.707106781186545,0.70710678118655,0.));
#1082=DIRECTION('center_axis',(7.78169341898304E-14,1.88318497879226E-27,
-1.));
#1083=DIRECTION('ref_axis',(-1.,3.71140445549019E-14,6.17539603344743E-14));
#1084=DIRECTION('',(-3.70585334036686E-14,-1.,-4.76696643383717E-27));
#1085=DIRECTION('',(-1.,3.70585334036686E-14,-7.78169341898304E-14));
#1086=DIRECTION('',(-9.36403732379235E-15,-1.,-2.61186565496892E-27));
#1087=DIRECTION('',(1.,-3.70585334036686E-14,7.78169341898304E-14));
#1088=DIRECTION('center_axis',(6.13132611855687E-14,0.,1.));
#1089=DIRECTION('ref_axis',(-0.707106781186545,0.70710678118655,0.));
#1090=DIRECTION('',(-6.13132611855687E-14,0.,-1.));
#1091=DIRECTION('center_axis',(6.13132611855689E-14,0.,1.));
#1092=DIRECTION('ref_axis',(-0.885061203158039,-0.465474668123244,5.35211752004473E-14));
#1093=DIRECTION('',(6.13132611855689E-14,0.,1.));
#1094=DIRECTION('center_axis',(-6.13132611855689E-14,0.,-1.));
#1095=DIRECTION('ref_axis',(0.707106781186552,0.707106781186543,-6.69906115705082E-14));
#1096=DIRECTION('',(6.13132611855689E-14,0.,1.));
#1097=DIRECTION('center_axis',(1.,0.,0.));
#1098=DIRECTION('ref_axis',(0.,-0.765986092485312,0.642857142854525));
#1099=DIRECTION('',(1.,0.,0.));
#1100=DIRECTION('',(-1.,0.,0.));
#1101=DIRECTION('center_axis',(1.,0.,0.));
#1102=DIRECTION('ref_axis',(0.,0.765986092485515,-0.642857142854283));
#1103=DIRECTION('center_axis',(0.,0.,1.));
#1104=DIRECTION('ref_axis',(1.,0.,0.));
#1105=DIRECTION('',(1.,-4.00796949932311E-14,0.));
#1106=DIRECTION('center_axis',(-1.,9.24157264387749E-15,6.13132611855687E-14));
#1107=DIRECTION('ref_axis',(6.13132611855682E-14,-4.68395492316258E-14,
1.));
#1108=DIRECTION('',(3.68202440756642E-14,-0.70710678118654,0.707106781186555));
#1109=DIRECTION('center_axis',(1.,-1.05323330602953E-13,0.));
#1110=DIRECTION('ref_axis',(0.,0.,-1.));
#1111=DIRECTION('center_axis',(1.,-9.24157264340542E-15,-6.12022388831143E-14));
#1112=DIRECTION('ref_axis',(0.,0.,-1.));
#1113=DIRECTION('',(1.,-1.05323330602953E-13,0.));
#1114=DIRECTION('',(-1.,1.05323330602953E-13,0.));
#1115=DIRECTION('center_axis',(-1.,9.24157264340542E-15,6.12022388831143E-14));
#1116=DIRECTION('ref_axis',(6.12022388831139E-14,-4.67285269291544E-14,
1.));
#1117=DIRECTION('',(-4.00796949932311E-14,-1.,-2.7117093616992E-31));
#1118=DIRECTION('center_axis',(1.,-9.24157264340542E-15,-6.12022388831143E-14));
#1119=DIRECTION('ref_axis',(2.82616642563078E-14,0.707106781186542,0.707106781186553));
#1120=DIRECTION('',(6.12022388831143E-14,-5.59990457820977E-27,1.));
#1121=DIRECTION('center_axis',(1.,-9.24157264340542E-15,-6.12022388831143E-14));
#1122=DIRECTION('ref_axis',(-1.57009245868373E-14,0.707106781186559,-0.707106781186536));
#1123=DIRECTION('',(-9.24157264340828E-15,-1.,-4.67285269291538E-14));
#1124=DIRECTION('center_axis',(1.,-9.24157264340542E-15,-6.12022388831143E-14));
#1125=DIRECTION('ref_axis',(-4.34392246902524E-14,-0.707106781186534,-0.707106781186561));
#1126=DIRECTION('',(-6.12022388831146E-14,-3.31540350731866E-14,-1.));
#1127=DIRECTION('center_axis',(1.,-9.24157264340542E-15,-6.12022388831143E-14));
#1128=DIRECTION('ref_axis',(-5.44298719010378E-14,-0.707106781186551,0.707106781186544));
#1129=DIRECTION('center_axis',(-1.,9.24157264340542E-15,6.12022388831143E-14));
#1130=DIRECTION('ref_axis',(8.32149003102395E-14,0.707106781186542,-0.707106781186553));
#1131=DIRECTION('center_axis',(1.,-9.24157264340542E-15,-6.12022388831143E-14));
#1132=DIRECTION('ref_axis',(6.12022388830221E-14,-8.32667778729031E-17,
1.));
#1133=DIRECTION('center_axis',(0.,0.,1.));
#1134=DIRECTION('ref_axis',(1.,0.,0.));
#1135=DIRECTION('',(1.,-4.00796949932311E-14,0.));
#1136=DIRECTION('center_axis',(-1.,4.00796949932311E-14,-7.78169341898304E-14));
#1137=DIRECTION('ref_axis',(8.32149003102395E-14,0.707106781186542,-0.707106781186553));
#1138=DIRECTION('center_axis',(-1.,1.40851338958105E-14,6.13132611855689E-14));
#1139=DIRECTION('ref_axis',(-1.40851338958133E-14,-1.,-4.68395492316249E-14));
#1140=DIRECTION('',(-3.33953290693302E-14,0.70710678118654,-0.707106781186555));
#1141=DIRECTION('center_axis',(1.,-4.00796949932311E-14,0.));
#1142=DIRECTION('ref_axis',(2.82616642563077E-14,0.707106781186543,0.707106781186552));
#1143=DIRECTION('',(-1.,4.00796949932311E-14,0.));
#1144=DIRECTION('center_axis',(4.00796949932311E-14,1.,0.));
#1145=DIRECTION('ref_axis',(-1.,4.00796949932311E-14,-2.77679038637796E-28));
#1146=DIRECTION('',(1.,-4.00796949932311E-14,-6.12022388831158E-14));
#1147=DIRECTION('',(-1.,4.00796949932311E-14,0.));
#1148=DIRECTION('center_axis',(-1.,4.00796949932311E-14,0.));
#1149=DIRECTION('ref_axis',(2.82616642563078E-14,0.707106781186542,0.707106781186553));
#1150=DIRECTION('center_axis',(-1.,0.,0.));
#1151=DIRECTION('ref_axis',(0.,-0.980186109855815,0.198078747082375));
#1152=DIRECTION('center_axis',(1.,-1.40851338958105E-14,-6.13132611855689E-14));
#1153=DIRECTION('ref_axis',(6.13132611855879E-14,-8.32667778729026E-17,
1.));
#1154=DIRECTION('',(-1.,-3.67688559337841E-10,-6.26949472729033E-14));
#1155=DIRECTION('',(-1.,-3.67688559337841E-10,-6.26949472729033E-14));
#1156=DIRECTION('center_axis',(-1.,9.24157264387749E-15,6.13132611855687E-14));
#1157=DIRECTION('ref_axis',(6.13132611855879E-14,-8.32667778729026E-17,
1.));
#1158=DIRECTION('',(1.,-3.6767876325233E-10,6.26949472729033E-14));
#1159=DIRECTION('',(1.,-3.6767876325233E-10,6.26949472729033E-14));
#1160=DIRECTION('center_axis',(-1.,4.00796949932311E-14,6.12022388831158E-14));
#1161=DIRECTION('ref_axis',(-1.57009245868373E-14,0.707106781186559,-0.707106781186536));
#1162=DIRECTION('',(-1.,4.00796949932311E-14,6.12022388831158E-14));
#1163=DIRECTION('center_axis',(6.12022388831139E-14,-4.67285269291544E-14,
1.));
#1164=DIRECTION('ref_axis',(1.40851338953413E-14,1.,4.67285269291535E-14));
#1165=DIRECTION('',(1.,-2.0291011744883E-27,-6.12022388831139E-14));
#1166=DIRECTION('center_axis',(-6.12022388831139E-14,4.67285269291544E-14,
-1.));
#1167=DIRECTION('ref_axis',(2.40195537744975E-25,1.,4.67285269291544E-14));
#1168=DIRECTION('center_axis',(-1.,1.11022302462516E-14,0.));
#1169=DIRECTION('ref_axis',(0.,-8.32667778722218E-17,1.));
#1170=DIRECTION('center_axis',(1.,-1.40851338958105E-14,-6.13132611855689E-14));
#1171=DIRECTION('ref_axis',(6.13132611855879E-14,-8.32667778729026E-17,
1.));
#1172=DIRECTION('',(-1.,-3.67688559337841E-10,-6.26949472729033E-14));
#1173=DIRECTION('',(1.,-3.6767876325233E-10,6.26949472729033E-14));
#1174=DIRECTION('center_axis',(-3.77303022705064E-21,-5.3769032085373E-30,
-1.));
#1175=DIRECTION('ref_axis',(-1.,4.00796954773889E-14,3.77303022705064E-21));
#1176=DIRECTION('center_axis',(-3.77303022705064E-21,-5.3769032085373E-30,
-1.));
#1177=DIRECTION('ref_axis',(-1.,3.71140445549019E-14,6.17539603344743E-14));
#1178=DIRECTION('center_axis',(-6.21724893790079E-14,4.88498130835062E-14,
-1.));
#1179=DIRECTION('ref_axis',(2.40192913395753E-25,1.,4.66856469746037E-14));
#1180=DIRECTION('center_axis',(6.12022388831139E-14,-4.67285269291544E-14,
1.));
#1181=DIRECTION('ref_axis',(2.401894689374E-25,1.,4.66293670342559E-14));
#1182=DIRECTION('',(-4.38759932376918E-14,-0.707106781186508,-0.707106781186587));
#1183=DIRECTION('center_axis',(6.10622663543827E-14,-4.66293670342559E-14,
1.));
#1184=DIRECTION('ref_axis',(2.401894689374E-25,1.,4.66293670342559E-14));
#1185=DIRECTION('',(6.10622663543827E-14,-4.66293670342559E-14,1.));
#1186=DIRECTION('center_axis',(-6.12022388861465E-14,4.68129953275074E-14,
-1.));
#1187=DIRECTION('ref_axis',(2.401894689374E-25,1.,4.66293670342559E-14));
#1188=DIRECTION('center_axis',(6.12022388861465E-14,-4.68129953275074E-14,
1.));
#1189=DIRECTION('ref_axis',(1.,-4.00796949932311E-14,-6.12022388861484E-14));
#1190=DIRECTION('center_axis',(-4.55681944788403E-14,0.707106781186555,
0.70710678118654));
#1191=DIRECTION('ref_axis',(1.,0.,6.44431586448315E-14));
#1192=DIRECTION('center_axis',(1.,4.81096644004235E-15,-1.8194015183326E-9));
#1193=DIRECTION('ref_axis',(1.8194015183326E-9,-8.32667691201179E-17,1.));
#1194=DIRECTION('',(1.,4.81096644004235E-15,-1.8194015183326E-9));
#1195=DIRECTION('center_axis',(1.,-2.0291011744883E-27,-6.12022388831139E-14));
#1196=DIRECTION('ref_axis',(-4.34392246902524E-14,-0.707106781186534,-0.707106781186561));
#1197=DIRECTION('',(-1.,2.0291011744883E-27,6.12022388831139E-14));
#1198=DIRECTION('center_axis',(0.,-1.,3.31540350731866E-14));
#1199=DIRECTION('ref_axis',(-5.55111512271053E-17,-3.31540350731866E-14,
-1.));
#1200=DIRECTION('',(1.,2.57994536541749E-27,7.78169341898304E-14));
#1201=DIRECTION('center_axis',(-1.,-2.57994536541749E-27,-7.78169341898304E-14));
#1202=DIRECTION('ref_axis',(-5.44298719010378E-14,-0.707106781186551,0.707106781186544));
#1203=DIRECTION('center_axis',(6.17539603344725E-14,-4.80508490140027E-14,
1.));
#1204=DIRECTION('ref_axis',(-1.,3.71140445549019E-14,6.17539603344743E-14));
#1205=DIRECTION('',(6.17539603344725E-14,-4.80508490140027E-14,1.));
#1206=DIRECTION('center_axis',(1.,-9.31154794846905E-15,0.));
#1207=DIRECTION('ref_axis',(1.23855270770242E-28,1.33018596137896E-14,1.));
#1208=DIRECTION('',(-1.,9.31154794846905E-15,0.));
#1209=DIRECTION('center_axis',(-1.,9.36403732402837E-15,1.11022302862891E-16));
#1210=DIRECTION('ref_axis',(9.86117218031702E-29,1.33018596137896E-14,1.));
#1211=DIRECTION('center_axis',(3.70585334036686E-14,1.,4.76696319073413E-27));
#1212=DIRECTION('ref_axis',(-1.,3.70585334036686E-14,-7.78169341898304E-14));
#1213=DIRECTION('',(1.11022302862891E-16,-5.55111511350147E-17,1.));
#1214=DIRECTION('',(-1.,7.88373995762562E-15,5.55111516356847E-17));
#1215=DIRECTION('',(-1.66533454090122E-16,1.66533453606421E-16,-1.));
#1216=DIRECTION('center_axis',(-3.70585334036686E-14,-1.,-4.76696319073413E-27));
#1217=DIRECTION('ref_axis',(1.,-3.70585334036686E-14,7.78169341898304E-14));
#1218=DIRECTION('',(1.66533454090122E-16,-1.66533453606421E-16,1.));
#1219=DIRECTION('',(1.,1.03109823134359E-14,6.70714946259247E-15));
#1220=DIRECTION('',(-1.11022302862891E-16,5.55111511350147E-17,-1.));
#1221=DIRECTION('center_axis',(-1.,9.36403732402837E-15,1.11022302862891E-16));
#1222=DIRECTION('ref_axis',(-1.11022302862891E-16,1.11022302370718E-16,
-1.));
#1223=DIRECTION('',(3.70585334036686E-14,1.,4.76696319073414E-27));
#1224=DIRECTION('center_axis',(-1.,9.36403732379235E-15,5.55111516356595E-17));
#1225=DIRECTION('ref_axis',(-5.55111516356595E-17,5.55111511350143E-17,
-1.));
#1226=DIRECTION('',(-3.70585334036686E-14,-1.,-4.76696319073414E-27));
#1227=DIRECTION('center_axis',(-4.08453244061715E-25,-1.00689203454968E-25,
-1.));
#1228=DIRECTION('ref_axis',(-9.36403732355631E-15,-1.,1.00689206698075E-25));
#1229=CARTESIAN_POINT('',(0.,0.,0.));
#1230=CARTESIAN_POINT('Origin',(13.5870496471632,-9.03060880014635,456.937864865392));
#1231=CARTESIAN_POINT('',(17.4870496471638,-9.03060880014611,455.637864865392));
#1232=CARTESIAN_POINT('Origin',(17.4870496471639,-9.0306088001461,456.937864865392));
#1233=CARTESIAN_POINT('',(15.0360496471619,-9.03060880014639,455.637864865392));
#1234=CARTESIAN_POINT('',(13.5870496471631,-9.03060880014637,455.637864865392));
#1235=CARTESIAN_POINT('Origin',(15.036049647162,-9.03060880014637,456.937864865392));
#1236=CARTESIAN_POINT('Origin',(26.0340496471589,-4.03060880015948,454.037864865388));
#1237=CARTESIAN_POINT('',(26.0340496471769,-1.26014880504769,459.7878648654));
#1238=CARTESIAN_POINT('',(26.0340496471629,-37.7301488001035,459.787864865392));
#1239=CARTESIAN_POINT('',(26.0340496471629,-37.6906088001118,459.787864865392));
#1240=CARTESIAN_POINT('',(26.0340496471586,-40.7301488001035,456.787864865402));
#1241=CARTESIAN_POINT('Origin',(26.0340496471587,-37.7301488001035,456.787864865402));
#1242=CARTESIAN_POINT('',(26.0340496471581,-40.7301488001037,450.037864865386));
#1243=CARTESIAN_POINT('',(26.0340496471584,-40.7301488001036,454.152204365393));
#1244=CARTESIAN_POINT('',(26.034049647158,-37.7301488001036,447.037864865386));
#1245=CARTESIAN_POINT('Origin',(26.0340496471587,-37.7301488001037,450.037864865386));
#1246=CARTESIAN_POINT('',(26.0340496471587,10.2698511949453,447.037864865388));
#1247=CARTESIAN_POINT('',(26.0340496471584,-11.5306088001592,447.037864865387));
#1248=CARTESIAN_POINT('',(26.0340496471601,12.2698511949395,449.037864865389));
#1249=CARTESIAN_POINT('Origin',(26.0340496471592,10.2698511949452,449.037864865389));
#1250=CARTESIAN_POINT('',(26.0340496471609,12.2698511949395,462.787864865437));
#1251=CARTESIAN_POINT('',(26.0340496471606,12.2698511949395,456.53786486741));
#1252=CARTESIAN_POINT('',(26.0340496471655,10.2698511949452,464.787864865437));
#1253=CARTESIAN_POINT('Origin',(26.0340496471595,10.2698511949452,462.787864865437));
#1254=CARTESIAN_POINT('',(26.0340496471769,9.46365648974705,464.787864865437));
#1255=CARTESIAN_POINT('',(26.0340496471656,12.2698511949452,464.787864865437));
#1256=CARTESIAN_POINT('',(26.0340496471769,0.271823379923291,460.502150579691));
#1257=CARTESIAN_POINT('Origin',(26.0340496471589,9.46365648974719,452.787864865437));
#1258=CARTESIAN_POINT('Origin',(26.0340496471589,-1.26014880504769,461.7878648654));
#1259=CARTESIAN_POINT('',(26.0340496471588,6.46939119987064,449.620938841227));
#1260=CARTESIAN_POINT('Origin',(26.0340496471589,6.46939119987064,451.220938841228));
#1261=CARTESIAN_POINT('',(26.0340496471589,-9.03060880015497,455.637864865388));
#1262=CARTESIAN_POINT('Origin',(26.0340496471589,-9.03060880015495,456.937864865388));
#1263=CARTESIAN_POINT('Origin',(6.03404964716077,-9.03060880013996,456.937864865392));
#1264=CARTESIAN_POINT('',(8.83604964716077,-9.03060880013996,455.537864865391));
#1265=CARTESIAN_POINT('Origin',(8.83604964716077,-9.03060880013996,456.937864865392));
#1266=CARTESIAN_POINT('',(6.03404964716077,-9.03060880013996,455.537864865391));
#1267=CARTESIAN_POINT('',(6.03404964716077,-9.03060880013996,455.537864865391));
#1268=CARTESIAN_POINT('Origin',(6.03404964716077,-9.03060880013996,456.937864865392));
#1269=CARTESIAN_POINT('Origin',(13.7360496471769,6.46939119989582,451.220938870059));
#1270=CARTESIAN_POINT('',(10.136049647164,2.48196622712421,451.537864865391));
#1271=CARTESIAN_POINT('',(10.136049647164,10.4568161726675,451.537864865391));
#1272=CARTESIAN_POINT('Origin',(10.136049647164,6.46939119989582,451.220938870059));
#1273=CARTESIAN_POINT('',(13.7360496471769,2.48196622712427,451.537864865391));
#1274=CARTESIAN_POINT('',(13.7360496471769,2.48196622712424,451.537864865391));
#1275=CARTESIAN_POINT('',(13.7360496471769,10.4568161726675,451.537864865391));
#1276=CARTESIAN_POINT('Origin',(13.736049647175,6.46939119989582,451.220938870059));
#1277=CARTESIAN_POINT('',(13.7360496471769,10.4568161726674,451.537864865391));
#1278=CARTESIAN_POINT('Origin',(10.1870496471633,3.16939119494464,451.537864865391));
#1279=CARTESIAN_POINT('',(13.736049647175,12.2698511949518,451.537864865391));
#1280=CARTESIAN_POINT('',(13.736049647175,4.33712119495183,451.537864865391));
#1281=CARTESIAN_POINT('',(10.136049647164,12.2698511949457,451.537864865391));
#1282=CARTESIAN_POINT('',(8.18704964716164,12.2698511949395,451.537864865391));
#1283=CARTESIAN_POINT('',(10.136049647164,4.33712119494871,451.537864865391));
#1284=CARTESIAN_POINT('Origin',(13.736049647175,5.50485119495903,458.162864865414));
#1285=CARTESIAN_POINT('',(13.736049647175,-2.75830738619436,451.537864865391));
#1286=CARTESIAN_POINT('',(13.736049647175,0.719621194952169,451.537864865391));
#1287=CARTESIAN_POINT('',(13.736049647175,-2.75830738619436,459.7878648654));
#1288=CARTESIAN_POINT('',(13.736049647175,-2.75830738619436,451.787864865392));
#1289=CARTESIAN_POINT('',(13.7360496471769,-1.26014880504769,459.7878648654));
#1290=CARTESIAN_POINT('',(13.736049647175,-1.7301488050403,459.7878648654));
#1291=CARTESIAN_POINT('',(13.7360496471769,0.271823379923291,460.502150579691));
#1292=CARTESIAN_POINT('Origin',(13.736049647175,-1.26014880504769,461.7878648654));
#1293=CARTESIAN_POINT('',(13.7360496471769,9.46365648974705,464.787864865437));
#1294=CARTESIAN_POINT('Origin',(13.736049647175,9.46365648974719,452.787864865437));
#1295=CARTESIAN_POINT('',(13.736049647175,10.2698511949457,464.787864865437));
#1296=CARTESIAN_POINT('',(13.736049647175,2.26985119495311,464.787864865437));
#1297=CARTESIAN_POINT('',(13.736049647175,12.2698511949573,462.787864865437));
#1298=CARTESIAN_POINT('Origin',(13.7360496471752,10.2698511949457,462.787864865437));
#1299=CARTESIAN_POINT('',(13.736049647175,12.2698511949518,451.537864865391));
#1300=CARTESIAN_POINT('Origin',(10.1870496471633,3.16939119494464,451.537864865391));
#1301=CARTESIAN_POINT('',(10.136049647164,-2.75830738618339,451.537864865391));
#1302=CARTESIAN_POINT('',(10.136049647164,0.719621194949113,451.537864865391));
#1303=CARTESIAN_POINT('',(9.48604964716263,-3.9942280956149,451.537864865391));
#1304=CARTESIAN_POINT('Origin',(8.63604964716362,-2.75830738618339,451.537864865391));
#1305=CARTESIAN_POINT('',(8.83604964716163,-5.2301488050464,451.537864865391));
#1306=CARTESIAN_POINT('Origin',(10.3360496471616,-5.23014880504641,451.537864865391));
#1307=CARTESIAN_POINT('',(8.83604964716351,-10.5306088001367,451.537864865391));
#1308=CARTESIAN_POINT('',(8.83604964716165,-2.93060880260284,451.537864865391));
#1309=CARTESIAN_POINT('',(15.0360496471644,-10.5306088001368,451.537864865391));
#1310=CARTESIAN_POINT('',(13.4120496471628,-10.5306088001376,451.537864865391));
#1311=CARTESIAN_POINT('',(15.0360496471616,-5.23014880504686,451.537864865392));
#1312=CARTESIAN_POINT('',(15.0360496471618,7.06939119739726,451.537864865392));
#1313=CARTESIAN_POINT('',(14.3860496471683,-3.9942280956206,451.537864865391));
#1314=CARTESIAN_POINT('Origin',(13.5360496471616,-5.23014880504684,451.537864865391));
#1315=CARTESIAN_POINT('Origin',(15.2360496471749,-2.75830738619436,451.537864865391));
#1316=CARTESIAN_POINT('Origin',(10.136049647164,5.50485119495278,458.162864865414));
#1317=CARTESIAN_POINT('',(10.136049647164,12.2698511949457,462.787864865437));
#1318=CARTESIAN_POINT('',(10.136049647164,12.2698511949457,451.537864865391));
#1319=CARTESIAN_POINT('',(10.136049647164,10.2698511949458,464.787864865437));
#1320=CARTESIAN_POINT('Origin',(10.1360496471642,10.2698511949458,462.787864865437));
#1321=CARTESIAN_POINT('',(10.136049647164,9.46365648974062,464.787864865437));
#1322=CARTESIAN_POINT('',(10.136049647164,-1.26014880504641,464.787864865437));
#1323=CARTESIAN_POINT('',(10.136049647164,0.271823379921169,460.502150579688));
#1324=CARTESIAN_POINT('Origin',(10.1360496471645,9.46365648974062,452.787864865437));
#1325=CARTESIAN_POINT('',(10.136049647164,-1.26014880504684,459.7878648654));
#1326=CARTESIAN_POINT('Origin',(10.136049647164,-1.26014880504684,461.7878648654));
#1327=CARTESIAN_POINT('',(10.136049647164,-2.75830738618339,459.7878648654));
#1328=CARTESIAN_POINT('',(10.136049647164,-1.73014880504641,459.7878648654));
#1329=CARTESIAN_POINT('',(10.136049647164,-2.75830738618339,458.412864865396));
#1330=CARTESIAN_POINT('Origin',(8.63604964716404,-2.75830738618339,458.412864865396));
#1331=CARTESIAN_POINT('',(9.48604964716313,-3.9942280956149,459.787864865401));
#1332=CARTESIAN_POINT('Origin',(8.63604964716413,-2.75830738618339,459.787864865402));
#1333=CARTESIAN_POINT('',(9.48604964716305,-3.9942280956149,458.412864865396));
#1334=CARTESIAN_POINT('Origin',(19.3870496471619,-6.03060880015136,459.787864865401));
#1335=CARTESIAN_POINT('',(6.03404964715922,-1.26014880505377,459.7878648654));
#1336=CARTESIAN_POINT('',(12.7105496471619,-1.26014880505404,459.7878648654));
#1337=CARTESIAN_POINT('',(6.03404964715888,-37.7301488001035,459.7878648654));
#1338=CARTESIAN_POINT('',(6.03404964715916,-7.53060880015532,459.7878648654));
#1339=CARTESIAN_POINT('',(12.7105496471608,-37.7301488001035,459.7878648654));
#1340=CARTESIAN_POINT('',(13.5360496471769,-1.26014880504769,459.7878648654));
#1341=CARTESIAN_POINT('',(14.3860496471688,-3.9942280956206,459.787864865401));
#1342=CARTESIAN_POINT('Origin',(15.2360496471755,-2.75830738619436,459.787864865401));
#1343=CARTESIAN_POINT('',(15.0360496471621,-5.23014880504686,459.7878648654));
#1344=CARTESIAN_POINT('Origin',(13.5360496471621,-5.23014880504684,459.787864865401));
#1345=CARTESIAN_POINT('',(15.036049647162,-18.7806088001456,459.7878648654));
#1346=CARTESIAN_POINT('',(15.0360496471622,2.46939119984977,459.7878648654));
#1347=CARTESIAN_POINT('',(8.83604964716204,-18.7806088001455,459.7878648654));
#1348=CARTESIAN_POINT('',(16.6370496471616,-18.7806088001464,459.787864865401));
#1349=CARTESIAN_POINT('',(8.8360496471623,-5.2301488050464,459.7878648654));
#1350=CARTESIAN_POINT('',(8.8360496471623,12.1693911949404,459.7878648654));
#1351=CARTESIAN_POINT('Origin',(10.3360496471621,-5.23014880504641,459.787864865401));
#1352=CARTESIAN_POINT('',(13.8360496471528,-29.0402164370808,459.7878648654));
#1353=CARTESIAN_POINT('Origin',(11.9360496471528,-29.0402164370807,459.7878648654));
#1354=CARTESIAN_POINT('',(19.4870496471661,-6.18060880013715,459.787864865405));
#1355=CARTESIAN_POINT('',(19.4870496471661,-11.8806088001372,459.787864865405));
#1356=CARTESIAN_POINT('',(19.4870496471648,-6.15560880014623,459.787864865401));
#1357=CARTESIAN_POINT('',(17.4870496471647,-11.8806088001409,459.787864865403));
#1358=CARTESIAN_POINT('',(18.6370496471616,-11.8806088001374,459.787864865401));
#1359=CARTESIAN_POINT('',(17.4870496471647,-6.18060880014085,459.787864865403));
#1360=CARTESIAN_POINT('',(17.487049647162,-9.03685880015047,459.787864865401));
#1361=CARTESIAN_POINT('',(18.6370496471619,-6.18060880013732,459.787864865401));
#1362=CARTESIAN_POINT('Origin',(10.3360496471621,-5.23014880504641,458.412864865396));
#1363=CARTESIAN_POINT('',(8.83604964716205,-5.2301488050464,458.412864865396));
#1364=CARTESIAN_POINT('Origin',(15.236049647175,-2.75830738619436,451.787864865392));
#1365=CARTESIAN_POINT('',(14.3860496471683,-3.9942280956206,451.787864865392));
#1366=CARTESIAN_POINT('Origin',(13.5360496471616,-5.23014880504684,451.787864865392));
#1367=CARTESIAN_POINT('',(15.0360496471616,-5.23014880504686,451.787864865392));
#1368=CARTESIAN_POINT('Origin',(13.5360496471769,9.46365648974719,452.787864865437));
#1369=CARTESIAN_POINT('',(13.5360496471769,0.271823379923291,460.502150579691));
#1370=CARTESIAN_POINT('',(13.5360496471769,9.46365648974719,464.787864865437));
#1371=CARTESIAN_POINT('Origin',(13.5360496471769,-1.26014880504769,461.7878648654));
#1372=CARTESIAN_POINT('Origin',(15.5870496471653,6.26985119494549,464.787864865437));
#1373=CARTESIAN_POINT('',(16.6370496471655,10.2698511949456,464.787864865437));
#1374=CARTESIAN_POINT('Origin',(8.83604964716193,-9.03060880015033,457.037864865392));
#1375=CARTESIAN_POINT('',(8.83604964716181,-14.9681088001457,455.975364865399));
#1376=CARTESIAN_POINT('Origin',(12.7105496471622,9.46365648974037,452.787864865437));
#1377=CARTESIAN_POINT('',(6.03404964716201,9.46365648974108,464.787864865437));
#1378=CARTESIAN_POINT('',(6.03404964715886,0.271823379917244,460.502150579691));
#1379=CARTESIAN_POINT('Origin',(6.03404964716093,9.46365648974108,452.787864865437));
#1380=CARTESIAN_POINT('',(12.7105496471613,0.271823379916566,460.502150579691));
#1381=CARTESIAN_POINT('',(12.7105496471622,9.46365648974037,464.787864865437));
#1382=CARTESIAN_POINT('Origin',(6.03404964715898,-9.03060880015941,457.037864865389));
#1383=CARTESIAN_POINT('',(6.03404964716204,10.269851194946,464.787864865437));
#1384=CARTESIAN_POINT('',(6.03404964716212,12.2698511949459,464.787864865437));
#1385=CARTESIAN_POINT('',(6.03404964715944,12.2698511949396,462.787864865437));
#1386=CARTESIAN_POINT('Origin',(6.03404964715975,10.269851194946,462.787864865437));
#1387=CARTESIAN_POINT('',(6.0340496471586,12.2698511949396,449.03786486539));
#1388=CARTESIAN_POINT('',(6.03404964715885,12.2698511949396,453.0378648664));
#1389=CARTESIAN_POINT('',(6.03404964715854,10.2698511949461,447.03786486539));
#1390=CARTESIAN_POINT('Origin',(6.03404964715926,10.269851194946,449.03786486539));
#1391=CARTESIAN_POINT('',(6.0340496471581,-37.7301488001036,447.037864865387));
#1392=CARTESIAN_POINT('',(6.03404964715832,-14.0306088001589,447.037864865389));
#1393=CARTESIAN_POINT('',(6.03404964715826,-40.7301488001037,450.037864865388));
#1394=CARTESIAN_POINT('Origin',(6.03404964715855,-37.7301488001037,450.037864865388));
#1395=CARTESIAN_POINT('',(6.03404964715867,-40.7301488001035,456.7878648654));
#1396=CARTESIAN_POINT('',(6.0340496471586,-40.7301488001035,455.652204365394));
#1397=CARTESIAN_POINT('Origin',(6.034049647159,-37.7301488001035,456.7878648654));
#1398=CARTESIAN_POINT('Origin',(6.03404964715892,-1.26014880505377,461.7878648654));
#1399=CARTESIAN_POINT('',(6.03404964715867,6.46939119987055,449.620938877616));
#1400=CARTESIAN_POINT('Origin',(6.03404964715877,6.46939119987055,451.220938877615));
#1401=CARTESIAN_POINT('Origin',(8.11054964716277,6.26985119494577,464.787864865437));
#1402=CARTESIAN_POINT('',(12.8987996471642,10.2698511949457,464.787864865437));
#1403=CARTESIAN_POINT('Origin',(12.7105496471618,-1.26014880505404,461.7878648654));
#1404=CARTESIAN_POINT('Origin',(15.0360496471619,10.96939119985,452.037864865393));
#1405=CARTESIAN_POINT('',(15.0360496471615,-8.71810880014565,449.7253648654));
#1406=CARTESIAN_POINT('Origin',(16.6370496471655,10.2698511949456,462.787864865437));
#1407=CARTESIAN_POINT('',(16.6370496471656,12.2698511949456,462.787864865437));
#1408=CARTESIAN_POINT('Origin',(17.6870496471656,12.2698511949456,459.787864865437));
#1409=CARTESIAN_POINT('',(11.8370496471623,12.2698511949458,449.037864865389));
#1410=CARTESIAN_POINT('',(12.8987996471643,12.2698511949457,462.787864865437));
#1411=CARTESIAN_POINT('Origin',(12.8987996471642,10.2698511949457,462.787864865437));
#1412=CARTESIAN_POINT('Origin',(15.036049647175,6.46939119988375,451.220938870059));
#1413=CARTESIAN_POINT('',(15.0360496471646,8.0376889743906,451.537864865391));
#1414=CARTESIAN_POINT('',(15.0360496471646,4.90109342535228,451.537864865391));
#1415=CARTESIAN_POINT('Origin',(15.0360496471618,6.46939119987144,451.220938863873));
#1416=CARTESIAN_POINT('',(10.136049647164,4.90109342408252,451.537864865391));
#1417=CARTESIAN_POINT('',(11.8870496471631,4.90109342472635,451.537864865391));
#1418=CARTESIAN_POINT('',(8.73604964716366,4.90109342410212,451.537864865391));
#1419=CARTESIAN_POINT('',(11.8870496471631,4.90109342472635,451.537864865391));
#1420=CARTESIAN_POINT('',(8.7360496471637,8.03768897564072,451.537864865391));
#1421=CARTESIAN_POINT('Origin',(8.73604964716172,6.46939119987142,451.220938870059));
#1422=CARTESIAN_POINT('',(10.136049647164,8.03768897565862,451.537864865391));
#1423=CARTESIAN_POINT('',(11.8870496471631,8.0376889750148,451.537864865391));
#1424=CARTESIAN_POINT('',(11.8870496471631,8.0376889750148,451.537864865391));
#1425=CARTESIAN_POINT('Origin',(11.8370496471622,10.2698511949458,449.037864865389));
#1426=CARTESIAN_POINT('',(11.8370496471621,10.2698511949459,447.037864865389));
#1427=CARTESIAN_POINT('Origin',(5.98704964715828,-19.0306088001589,447.037864865388));
#1428=CARTESIAN_POINT('',(6.01054964715895,-37.7301488001036,447.037864865388));
#1429=CARTESIAN_POINT('',(11.9360496471535,-33.2402164370765,447.037864865387));
#1430=CARTESIAN_POINT('Origin',(11.9360496471535,-29.040216437076,447.037864865387));
#1431=CARTESIAN_POINT('Origin',(15.1360496471618,6.46939119987144,451.220938863873));
#1432=CARTESIAN_POINT('',(15.1360496471646,8.0376889743906,451.537864865391));
#1433=CARTESIAN_POINT('',(15.1360496471646,4.90109342535228,451.537864865391));
#1434=CARTESIAN_POINT('Origin',(15.1360496471618,6.46939119987144,451.220938863873));
#1435=CARTESIAN_POINT('',(11.8870496471631,4.90109342472635,451.537864865391));
#1436=CARTESIAN_POINT('',(11.8870496471631,8.0376889750148,451.537864865391));
#1437=CARTESIAN_POINT('Origin',(15.987049647154,-29.0402164370744,451.837864865404));
#1438=CARTESIAN_POINT('',(13.8360496471542,-29.040216437074,451.837864865404));
#1439=CARTESIAN_POINT('Origin',(11.9360496471523,-29.0402164370803,451.837864865404));
#1440=CARTESIAN_POINT('Origin',(11.9360496471535,-29.040216437076,447.537864865387));
#1441=CARTESIAN_POINT('',(11.9360496471536,-32.2402164370766,448.037864865387));
#1442=CARTESIAN_POINT('Origin',(11.9360496471536,-29.0402164370761,448.037864865387));
#1443=CARTESIAN_POINT('',(11.9360496471535,-32.7402164370766,447.537864865387));
#1444=CARTESIAN_POINT('Origin',(11.9360496471536,-29.0402164370761,449.537864865387));
#1445=CARTESIAN_POINT('',(11.9360496471538,-32.2402164370768,451.537864865387));
#1446=CARTESIAN_POINT('',(11.9360496471536,-32.2402164370767,449.537864865387));
#1447=CARTESIAN_POINT('Origin',(11.9360496471538,-29.0402164370762,451.537864865387));
#1448=CARTESIAN_POINT('Origin',(15.9870496471555,-29.0402164370705,451.537864865387));
#1449=CARTESIAN_POINT('Origin',(16.6370496471617,-17.4056088001464,458.412864865401));
#1450=CARTESIAN_POINT('Origin',(2.33405039965042,6.46939119987053,451.220938884347));
#1451=CARTESIAN_POINT('',(2.33405039673938,6.46939119987053,449.620938884347));
#1452=CARTESIAN_POINT('Origin',(6.01054964715913,-37.7301488001037,450.037864865388));
#1453=CARTESIAN_POINT('',(6.01054964715913,-40.7301488001037,450.037864865388));
#1454=CARTESIAN_POINT('Origin',(6.03404964716006,-40.7301488001036,454.266543865397));
#1455=CARTESIAN_POINT('',(12.710549647161,-40.7301488001035,456.7878648654));
#1456=CARTESIAN_POINT('Origin',(12.710549647161,-37.7301488001035,456.7878648654));
#1457=CARTESIAN_POINT('Origin',(11.9360496471521,-29.0402164370802,449.037864865388));
#1458=CARTESIAN_POINT('',(13.8360496471522,-29.0402164370803,449.037864865387));
#1459=CARTESIAN_POINT('Origin',(18.0870496471663,-9.03060880015488,456.937864865388));
#1460=CARTESIAN_POINT('',(19.4870496471634,-9.03060880015461,455.637864865388));
#1461=CARTESIAN_POINT('',(18.0870496471663,-9.0306088001549,455.637864865388));
#1462=CARTESIAN_POINT('Origin',(19.4870496471634,-9.0306088001546,456.937864865388));
#1463=CARTESIAN_POINT('Origin',(17.8870496471619,-6.18060880013729,459.787864865392));
#1464=CARTESIAN_POINT('',(17.4870496471634,-6.18060880014511,453.987864865394));
#1465=CARTESIAN_POINT('',(17.4870496471633,-6.18060880014937,445.601043986133));
#1466=CARTESIAN_POINT('',(19.4870496471648,-6.18060880014127,453.987864865396));
#1467=CARTESIAN_POINT('',(17.8870496471619,-6.1806088001498,453.987864865392));
#1468=CARTESIAN_POINT('',(19.4870496471648,-6.18060880014127,459.787864865396));
#1469=CARTESIAN_POINT('Origin',(17.8870496471618,-11.8806088001374,454.287864865392));
#1470=CARTESIAN_POINT('',(19.4870496471647,-11.8806088001413,453.987864865396));
#1471=CARTESIAN_POINT('',(19.4870496471647,-11.8806088001413,454.287864865396));
#1472=CARTESIAN_POINT('',(17.4870496471633,-11.8806088001453,453.987864865394));
#1473=CARTESIAN_POINT('',(17.8870496471632,-11.8806088001456,453.987864865394));
#1474=CARTESIAN_POINT('',(17.4870496471633,-11.8806088001494,442.851043986133));
#1475=CARTESIAN_POINT('Origin',(19.4870496471633,-12.0431088001457,431.414223106874));
#1476=CARTESIAN_POINT('',(19.4870496471648,-6.28060880014132,453.987864865396));
#1477=CARTESIAN_POINT('Origin',(17.4870496471619,-12.0431088001499,431.414223106872));
#1478=CARTESIAN_POINT('',(17.4870496471633,-11.7806088001453,453.987864865394));
#1479=CARTESIAN_POINT('Origin',(17.8870496471605,-6.28060880015397,453.98786486539));
#1480=UNCERTAINTY_MEASURE_WITH_UNIT(LENGTH_MEASURE(0.01),#1484,
'DISTANCE_ACCURACY_VALUE',
'Maximum model space distance between geometric entities at asserted c
onnectivities');
#1481=UNCERTAINTY_MEASURE_WITH_UNIT(LENGTH_MEASURE(0.01),#1484,
'DISTANCE_ACCURACY_VALUE',
'Maximum model space distance between geometric entities at asserted c
onnectivities');
#1482=(
GEOMETRIC_REPRESENTATION_CONTEXT(3)
GLOBAL_UNCERTAINTY_ASSIGNED_CONTEXT((#1480))
GLOBAL_UNIT_ASSIGNED_CONTEXT((#1484,#1486,#1487))
REPRESENTATION_CONTEXT('','3D')
);
#1483=(
GEOMETRIC_REPRESENTATION_CONTEXT(3)
GLOBAL_UNCERTAINTY_ASSIGNED_CONTEXT((#1481))
GLOBAL_UNIT_ASSIGNED_CONTEXT((#1484,#1486,#1487))
REPRESENTATION_CONTEXT('','3D')
);
#1484=(
LENGTH_UNIT()
NAMED_UNIT(*)
SI_UNIT(.MILLI.,.METRE.)
);
#1485=(
LENGTH_UNIT()
NAMED_UNIT(*)
SI_UNIT($,.METRE.)
);
#1486=(
NAMED_UNIT(*)
PLANE_ANGLE_UNIT()
SI_UNIT($,.RADIAN.)
);
#1487=(
NAMED_UNIT(*)
SI_UNIT($,.STERADIAN.)
SOLID_ANGLE_UNIT()
);
#1488=SHAPE_DEFINITION_REPRESENTATION(#1489,#1490);
#1489=PRODUCT_DEFINITION_SHAPE('',$,#1492);
#1490=SHAPE_REPRESENTATION('',(#881),#1482);
#1491=PRODUCT_DEFINITION_CONTEXT('part definition',#1496,'design');
#1492=PRODUCT_DEFINITION('arm-left','arm-left',#1493,#1491);
#1493=PRODUCT_DEFINITION_FORMATION('',$,#1498);
#1494=PRODUCT_RELATED_PRODUCT_CATEGORY('arm-left','arm-left',(#1498));
#1495=APPLICATION_PROTOCOL_DEFINITION('international standard',
'automotive_design',2009,#1496);
#1496=APPLICATION_CONTEXT(
'Core Data for Automotive Mechanical Design Process');
#1497=PRODUCT_CONTEXT('part definition',#1496,'mechanical');
#1498=PRODUCT('arm-left','arm-left',$,(#1497));
#1499=PRESENTATION_STYLE_ASSIGNMENT((#1501));
#1500=PRESENTATION_STYLE_ASSIGNMENT((#1502));
#1501=SURFACE_STYLE_USAGE(.BOTH.,#1503);
#1502=SURFACE_STYLE_USAGE(.BOTH.,#1504);
#1503=SURFACE_SIDE_STYLE('',(#1505));
#1504=SURFACE_SIDE_STYLE('',(#1506));
#1505=SURFACE_STYLE_FILL_AREA(#1507);
#1506=SURFACE_STYLE_FILL_AREA(#1508);
#1507=FILL_AREA_STYLE('Steel - Satin',(#1509));
#1508=FILL_AREA_STYLE('Plastic - Translucent Matte (White) 3D Printed',
(#1510));
#1509=FILL_AREA_STYLE_COLOUR('Steel - Satin',#1511);
#1510=FILL_AREA_STYLE_COLOUR(
'Plastic - Translucent Matte (White) 3D Printed',#1512);
#1511=COLOUR_RGB('Steel - Satin',0.627450980392157,0.627450980392157,0.627450980392157);
#1512=COLOUR_RGB('Plastic - Translucent Matte (White) 3D Printed',0.964705882352941,
0.964705882352941,0.952941176470588);
ENDSEC;
END-ISO-10303-21;
