ISO-10303-21;
HEADER;
/* Generated by software containing ST-Developer
 * from STEP Tools, Inc. (www.steptools.com) 
 */

FILE_DESCRIPTION(
/* description */ (''),
/* implementation_level */ '2;1');

FILE_NAME(
/* name */ 'end-pulley-top.step',
/* time_stamp */ '2026-02-10T20:51:37-08:00',
/* author */ (''),
/* organization */ (''),
/* preprocessor_version */ 'ST-DEVELOPER v20.1',
/* originating_system */ 'Autodesk Translation Framework v14.24.0.0',
/* authorisation */ '');

FILE_SCHEMA (('AUTOMOTIVE_DESIGN { 1 0 10303 214 3 1 1 }'));
ENDSEC;

DATA;
#10=MECHANICAL_DESIGN_GEOMETRIC_PRESENTATION_REPRESENTATION('',(#13),#1686);
#11=SHAPE_REPRESENTATION_RELATIONSHIP('SRR','None',#1693,#12);
#12=ADVANCED_BREP_SHAPE_REPRESENTATION('',(#14),#1685);
#13=STYLED_ITEM('',(#1703),#14);
#14=MANIFOLD_SOLID_BREP('Body1',#996);
#15=ELLIPSE('',#1060,3.12787694708389,2.211743);
#16=ELLIPSE('',#1064,3.12787694708388,2.211743);
#17=FACE_BOUND('',#333,.T.);
#18=FACE_BOUND('',#352,.T.);
#19=FACE_BOUND('',#353,.T.);
#20=FACE_BOUND('',#354,.T.);
#21=FACE_BOUND('',#366,.T.);
#22=PLANE('',#1017);
#23=PLANE('',#1025);
#24=PLANE('',#1026);
#25=PLANE('',#1029);
#26=PLANE('',#1032);
#27=PLANE('',#1034);
#28=PLANE('',#1036);
#29=PLANE('',#1038);
#30=PLANE('',#1040);
#31=PLANE('',#1041);
#32=PLANE('',#1044);
#33=PLANE('',#1048);
#34=PLANE('',#1053);
#35=PLANE('',#1056);
#36=PLANE('',#1059);
#37=PLANE('',#1063);
#38=PLANE('',#1068);
#39=PLANE('',#1069);
#40=PLANE('',#1070);
#41=PLANE('',#1071);
#42=PLANE('',#1072);
#43=PLANE('',#1074);
#44=PLANE('',#1075);
#45=PLANE('',#1076);
#46=PLANE('',#1077);
#47=PLANE('',#1078);
#48=PLANE('',#1079);
#49=PLANE('',#1080);
#50=PLANE('',#1081);
#51=PLANE('',#1082);
#52=PLANE('',#1086);
#53=PLANE('',#1087);
#54=PLANE('',#1088);
#55=PLANE('',#1091);
#56=PLANE('',#1092);
#57=PLANE('',#1093);
#58=PLANE('',#1095);
#59=LINE('',#1401,#161);
#60=LINE('',#1404,#162);
#61=LINE('',#1417,#163);
#62=LINE('',#1419,#164);
#63=LINE('',#1421,#165);
#64=LINE('',#1423,#166);
#65=LINE('',#1425,#167);
#66=LINE('',#1427,#168);
#67=LINE('',#1429,#169);
#68=LINE('',#1431,#170);
#69=LINE('',#1433,#171);
#70=LINE('',#1435,#172);
#71=LINE('',#1437,#173);
#72=LINE('',#1456,#174);
#73=LINE('',#1458,#175);
#74=LINE('',#1460,#176);
#75=LINE('',#1463,#177);
#76=LINE('',#1470,#178);
#77=LINE('',#1480,#179);
#78=LINE('',#1484,#180);
#79=LINE('',#1487,#181);
#80=LINE('',#1489,#182);
#81=LINE('',#1491,#183);
#82=LINE('',#1493,#184);
#83=LINE('',#1495,#185);
#84=LINE('',#1496,#186);
#85=LINE('',#1497,#187);
#86=LINE('',#1501,#188);
#87=LINE('',#1503,#189);
#88=LINE('',#1505,#190);
#89=LINE('',#1507,#191);
#90=LINE('',#1513,#192);
#91=LINE('',#1516,#193);
#92=LINE('',#1518,#194);
#93=LINE('',#1520,#195);
#94=LINE('',#1522,#196);
#95=LINE('',#1524,#197);
#96=LINE('',#1525,#198);
#97=LINE('',#1532,#199);
#98=LINE('',#1535,#200);
#99=LINE('',#1538,#201);
#100=LINE('',#1542,#202);
#101=LINE('',#1544,#203);
#102=LINE('',#1545,#204);
#103=LINE('',#1547,#205);
#104=LINE('',#1549,#206);
#105=LINE('',#1550,#207);
#106=LINE('',#1555,#208);
#107=LINE('',#1557,#209);
#108=LINE('',#1559,#210);
#109=LINE('',#1560,#211);
#110=LINE('',#1563,#212);
#111=LINE('',#1565,#213);
#112=LINE('',#1567,#214);
#113=LINE('',#1568,#215);
#114=LINE('',#1571,#216);
#115=LINE('',#1572,#217);
#116=LINE('',#1576,#218);
#117=LINE('',#1578,#219);
#118=LINE('',#1581,#220);
#119=LINE('',#1585,#221);
#120=LINE('',#1587,#222);
#121=LINE('',#1589,#223);
#122=LINE('',#1591,#224);
#123=LINE('',#1597,#225);
#124=LINE('',#1600,#226);
#125=LINE('',#1604,#227);
#126=LINE('',#1607,#228);
#127=LINE('',#1609,#229);
#128=LINE('',#1611,#230);
#129=LINE('',#1613,#231);
#130=LINE('',#1615,#232);
#131=LINE('',#1617,#233);
#132=LINE('',#1619,#234);
#133=LINE('',#1620,#235);
#134=LINE('',#1625,#236);
#135=LINE('',#1626,#237);
#136=LINE('',#1628,#238);
#137=LINE('',#1630,#239);
#138=LINE('',#1631,#240);
#139=LINE('',#1634,#241);
#140=LINE('',#1635,#242);
#141=LINE('',#1638,#243);
#142=LINE('',#1640,#244);
#143=LINE('',#1642,#245);
#144=LINE('',#1643,#246);
#145=LINE('',#1645,#247);
#146=LINE('',#1649,#248);
#147=LINE('',#1651,#249);
#148=LINE('',#1652,#250);
#149=LINE('',#1655,#251);
#150=LINE('',#1657,#252);
#151=LINE('',#1658,#253);
#152=LINE('',#1660,#254);
#153=LINE('',#1662,#255);
#154=LINE('',#1665,#256);
#155=LINE('',#1669,#257);
#156=LINE('',#1674,#258);
#157=LINE('',#1675,#259);
#158=LINE('',#1677,#260);
#159=LINE('',#1679,#261);
#160=LINE('',#1681,#262);
#161=VECTOR('',#1108,10.);
#162=VECTOR('',#1111,10.);
#163=VECTOR('',#1116,10.);
#164=VECTOR('',#1117,10.);
#165=VECTOR('',#1118,10.);
#166=VECTOR('',#1119,10.);
#167=VECTOR('',#1120,10.);
#168=VECTOR('',#1121,10.);
#169=VECTOR('',#1122,10.);
#170=VECTOR('',#1123,10.);
#171=VECTOR('',#1124,10.);
#172=VECTOR('',#1125,10.);
#173=VECTOR('',#1126,10.);
#174=VECTOR('',#1141,10.);
#175=VECTOR('',#1144,10.);
#176=VECTOR('',#1147,10.);
#177=VECTOR('',#1150,10.);
#178=VECTOR('',#1159,10.);
#179=VECTOR('',#1172,10.);
#180=VECTOR('',#1177,10.);
#181=VECTOR('',#1180,10.);
#182=VECTOR('',#1181,10.);
#183=VECTOR('',#1182,10.);
#184=VECTOR('',#1183,10.);
#185=VECTOR('',#1184,10.);
#186=VECTOR('',#1185,10.);
#187=VECTOR('',#1186,10.);
#188=VECTOR('',#1191,10.);
#189=VECTOR('',#1192,10.);
#190=VECTOR('',#1193,10.);
#191=VECTOR('',#1194,10.);
#192=VECTOR('',#1201,10.);
#193=VECTOR('',#1206,10.);
#194=VECTOR('',#1209,10.);
#195=VECTOR('',#1210,10.);
#196=VECTOR('',#1211,10.);
#197=VECTOR('',#1212,10.);
#198=VECTOR('',#1213,10.);
#199=VECTOR('',#1220,10.);
#200=VECTOR('',#1223,10.);
#201=VECTOR('',#1226,10.);
#202=VECTOR('',#1229,10.);
#203=VECTOR('',#1230,10.);
#204=VECTOR('',#1231,10.);
#205=VECTOR('',#1232,10.);
#206=VECTOR('',#1233,10.);
#207=VECTOR('',#1234,10.);
#208=VECTOR('',#1237,10.);
#209=VECTOR('',#1238,10.);
#210=VECTOR('',#1239,10.);
#211=VECTOR('',#1240,10.);
#212=VECTOR('',#1241,10.);
#213=VECTOR('',#1242,10.);
#214=VECTOR('',#1243,10.);
#215=VECTOR('',#1244,10.);
#216=VECTOR('',#1247,10.);
#217=VECTOR('',#1248,10.);
#218=VECTOR('',#1253,10.);
#219=VECTOR('',#1256,10.);
#220=VECTOR('',#1259,10.);
#221=VECTOR('',#1264,10.);
#222=VECTOR('',#1267,10.);
#223=VECTOR('',#1268,10.);
#224=VECTOR('',#1269,10.);
#225=VECTOR('',#1276,10.);
#226=VECTOR('',#1281,10.);
#227=VECTOR('',#1288,10.);
#228=VECTOR('',#1291,10.);
#229=VECTOR('',#1292,10.);
#230=VECTOR('',#1293,10.);
#231=VECTOR('',#1294,10.);
#232=VECTOR('',#1295,10.);
#233=VECTOR('',#1296,10.);
#234=VECTOR('',#1297,10.);
#235=VECTOR('',#1298,10.);
#236=VECTOR('',#1303,10.);
#237=VECTOR('',#1304,10.);
#238=VECTOR('',#1307,10.);
#239=VECTOR('',#1308,10.);
#240=VECTOR('',#1309,10.);
#241=VECTOR('',#1312,10.);
#242=VECTOR('',#1313,10.);
#243=VECTOR('',#1316,10.);
#244=VECTOR('',#1317,10.);
#245=VECTOR('',#1318,10.);
#246=VECTOR('',#1319,10.);
#247=VECTOR('',#1322,10.);
#248=VECTOR('',#1327,10.);
#249=VECTOR('',#1328,10.);
#250=VECTOR('',#1329,10.);
#251=VECTOR('',#1332,10.);
#252=VECTOR('',#1333,10.);
#253=VECTOR('',#1334,10.);
#254=VECTOR('',#1337,10.);
#255=VECTOR('',#1340,1.69999999999998);
#256=VECTOR('',#1343,3.05);
#257=VECTOR('',#1350,10.);
#258=VECTOR('',#1359,10.);
#259=VECTOR('',#1360,10.);
#260=VECTOR('',#1363,10.);
#261=VECTOR('',#1366,10.);
#262=VECTOR('',#1369,1.5);
#263=CYLINDRICAL_SURFACE('',#1014,6.5);
#264=CYLINDRICAL_SURFACE('',#1023,1.7);
#265=CYLINDRICAL_SURFACE('',#1027,1.7);
#266=CYLINDRICAL_SURFACE('',#1047,1.5);
#267=CYLINDRICAL_SURFACE('',#1049,1.49999999999999);
#268=CYLINDRICAL_SURFACE('',#1050,5.);
#269=CYLINDRICAL_SURFACE('',#1057,5.);
#270=CYLINDRICAL_SURFACE('',#1061,2.211743);
#271=CYLINDRICAL_SURFACE('',#1065,2.211743);
#272=CYLINDRICAL_SURFACE('',#1083,1.69999999999998);
#273=CYLINDRICAL_SURFACE('',#1084,3.05);
#274=CYLINDRICAL_SURFACE('',#1089,2.5);
#275=CYLINDRICAL_SURFACE('',#1090,2.5);
#276=CYLINDRICAL_SURFACE('',#1094,1.5);
#277=FACE_OUTER_BOUND('',#330,.T.);
#278=FACE_OUTER_BOUND('',#331,.T.);
#279=FACE_OUTER_BOUND('',#332,.T.);
#280=FACE_OUTER_BOUND('',#334,.T.);
#281=FACE_OUTER_BOUND('',#335,.T.);
#282=FACE_OUTER_BOUND('',#336,.T.);
#283=FACE_OUTER_BOUND('',#337,.T.);
#284=FACE_OUTER_BOUND('',#338,.T.);
#285=FACE_OUTER_BOUND('',#339,.T.);
#286=FACE_OUTER_BOUND('',#340,.T.);
#287=FACE_OUTER_BOUND('',#341,.T.);
#288=FACE_OUTER_BOUND('',#342,.T.);
#289=FACE_OUTER_BOUND('',#343,.T.);
#290=FACE_OUTER_BOUND('',#344,.T.);
#291=FACE_OUTER_BOUND('',#345,.T.);
#292=FACE_OUTER_BOUND('',#346,.T.);
#293=FACE_OUTER_BOUND('',#347,.T.);
#294=FACE_OUTER_BOUND('',#348,.T.);
#295=FACE_OUTER_BOUND('',#349,.T.);
#296=FACE_OUTER_BOUND('',#350,.T.);
#297=FACE_OUTER_BOUND('',#351,.T.);
#298=FACE_OUTER_BOUND('',#355,.T.);
#299=FACE_OUTER_BOUND('',#356,.T.);
#300=FACE_OUTER_BOUND('',#357,.T.);
#301=FACE_OUTER_BOUND('',#358,.T.);
#302=FACE_OUTER_BOUND('',#359,.T.);
#303=FACE_OUTER_BOUND('',#360,.T.);
#304=FACE_OUTER_BOUND('',#361,.T.);
#305=FACE_OUTER_BOUND('',#362,.T.);
#306=FACE_OUTER_BOUND('',#363,.T.);
#307=FACE_OUTER_BOUND('',#364,.T.);
#308=FACE_OUTER_BOUND('',#365,.T.);
#309=FACE_OUTER_BOUND('',#367,.T.);
#310=FACE_OUTER_BOUND('',#368,.T.);
#311=FACE_OUTER_BOUND('',#369,.T.);
#312=FACE_OUTER_BOUND('',#370,.T.);
#313=FACE_OUTER_BOUND('',#371,.T.);
#314=FACE_OUTER_BOUND('',#372,.T.);
#315=FACE_OUTER_BOUND('',#373,.T.);
#316=FACE_OUTER_BOUND('',#374,.T.);
#317=FACE_OUTER_BOUND('',#375,.T.);
#318=FACE_OUTER_BOUND('',#376,.T.);
#319=FACE_OUTER_BOUND('',#377,.T.);
#320=FACE_OUTER_BOUND('',#378,.T.);
#321=FACE_OUTER_BOUND('',#379,.T.);
#322=FACE_OUTER_BOUND('',#380,.T.);
#323=FACE_OUTER_BOUND('',#381,.T.);
#324=FACE_OUTER_BOUND('',#382,.T.);
#325=FACE_OUTER_BOUND('',#383,.T.);
#326=FACE_OUTER_BOUND('',#384,.T.);
#327=FACE_OUTER_BOUND('',#385,.T.);
#328=FACE_OUTER_BOUND('',#386,.T.);
#329=FACE_OUTER_BOUND('',#387,.T.);
#330=EDGE_LOOP('',(#659,#660,#661,#662,#663,#664));
#331=EDGE_LOOP('',(#665,#666,#667,#668,#669,#670));
#332=EDGE_LOOP('',(#671,#672,#673,#674,#675,#676,#677,#678,#679,#680,#681,
#682,#683,#684));
#333=EDGE_LOOP('',(#685));
#334=EDGE_LOOP('',(#686,#687,#688,#689,#690,#691));
#335=EDGE_LOOP('',(#692,#693,#694,#695));
#336=EDGE_LOOP('',(#696,#697,#698));
#337=EDGE_LOOP('',(#699,#700,#701));
#338=EDGE_LOOP('',(#702,#703,#704,#705));
#339=EDGE_LOOP('',(#706,#707,#708,#709));
#340=EDGE_LOOP('',(#710));
#341=EDGE_LOOP('',(#711));
#342=EDGE_LOOP('',(#712,#713,#714,#715));
#343=EDGE_LOOP('',(#716,#717,#718,#719));
#344=EDGE_LOOP('',(#720,#721,#722,#723,#724,#725,#726,#727,#728,#729,#730));
#345=EDGE_LOOP('',(#731,#732,#733,#734,#735,#736,#737,#738));
#346=EDGE_LOOP('',(#739,#740,#741,#742));
#347=EDGE_LOOP('',(#743,#744,#745,#746));
#348=EDGE_LOOP('',(#747,#748,#749,#750,#751,#752,#753,#754,#755,#756,#757));
#349=EDGE_LOOP('',(#758,#759,#760,#761));
#350=EDGE_LOOP('',(#762,#763,#764,#765));
#351=EDGE_LOOP('',(#766,#767,#768,#769,#770,#771,#772,#773,#774,#775));
#352=EDGE_LOOP('',(#776));
#353=EDGE_LOOP('',(#777,#778,#779,#780));
#354=EDGE_LOOP('',(#781,#782,#783,#784));
#355=EDGE_LOOP('',(#785,#786,#787,#788));
#356=EDGE_LOOP('',(#789,#790,#791,#792));
#357=EDGE_LOOP('',(#793,#794,#795,#796,#797));
#358=EDGE_LOOP('',(#798,#799,#800,#801));
#359=EDGE_LOOP('',(#802,#803,#804,#805,#806,#807));
#360=EDGE_LOOP('',(#808,#809,#810,#811,#812));
#361=EDGE_LOOP('',(#813,#814,#815));
#362=EDGE_LOOP('',(#816,#817,#818,#819));
#363=EDGE_LOOP('',(#820,#821,#822,#823));
#364=EDGE_LOOP('',(#824,#825,#826,#827));
#365=EDGE_LOOP('',(#828,#829,#830,#831,#832,#833,#834,#835,#836,#837,#838,
#839,#840,#841));
#366=EDGE_LOOP('',(#842));
#367=EDGE_LOOP('',(#843,#844,#845,#846,#847,#848));
#368=EDGE_LOOP('',(#849,#850,#851,#852,#853,#854,#855,#856));
#369=EDGE_LOOP('',(#857,#858,#859,#860));
#370=EDGE_LOOP('',(#861,#862,#863,#864,#865,#866,#867,#868,#869,#870));
#371=EDGE_LOOP('',(#871,#872,#873,#874));
#372=EDGE_LOOP('',(#875,#876,#877,#878,#879));
#373=EDGE_LOOP('',(#880,#881,#882,#883));
#374=EDGE_LOOP('',(#884,#885,#886,#887));
#375=EDGE_LOOP('',(#888,#889,#890,#891));
#376=EDGE_LOOP('',(#892,#893,#894,#895));
#377=EDGE_LOOP('',(#896,#897,#898,#899));
#378=EDGE_LOOP('',(#900));
#379=EDGE_LOOP('',(#901,#902,#903,#904));
#380=EDGE_LOOP('',(#905,#906,#907,#908));
#381=EDGE_LOOP('',(#909,#910,#911,#912));
#382=EDGE_LOOP('',(#913,#914,#915,#916));
#383=EDGE_LOOP('',(#917,#918,#919,#920,#921,#922));
#384=EDGE_LOOP('',(#923,#924,#925,#926));
#385=EDGE_LOOP('',(#927,#928,#929,#930,#931,#932));
#386=EDGE_LOOP('',(#933,#934,#935,#936));
#387=EDGE_LOOP('',(#937,#938,#939,#940));
#388=(
BOUNDED_CURVE()
B_SPLINE_CURVE(2,(#1389,#1390,#1391,#1392),.UNSPECIFIED.,.F.,.F.)
B_SPLINE_CURVE_WITH_KNOTS((3,1,3),(1.72220648852942E-5,2.32890524874606E-5,
2.90793579794967E-5),.UNSPECIFIED.)
CURVE()
GEOMETRIC_REPRESENTATION_ITEM()
RATIONAL_B_SPLINE_CURVE((1.74553318831496,1.87685024655541,2.13349415874683,
2.2588210834642))
REPRESENTATION_ITEM('')
);
#389=(
BOUNDED_CURVE()
B_SPLINE_CURVE(2,(#1395,#1396,#1397),.UNSPECIFIED.,.F.,.F.)
B_SPLINE_CURVE_WITH_KNOTS((3,3),(1.05120027620865,1.05120405040568),
 .UNSPECIFIED.)
CURVE()
GEOMETRIC_REPRESENTATION_ITEM()
RATIONAL_B_SPLINE_CURVE((1.18320706210232,1.10151587043309,1.01982409215842))
REPRESENTATION_ITEM('')
);
#390=(
BOUNDED_CURVE()
B_SPLINE_CURVE(2,(#1438,#1439,#1440),.UNSPECIFIED.,.F.,.F.)
B_SPLINE_CURVE_WITH_KNOTS((3,3),(4.57940803044978E-7,4.23213783107056E-6),
 .UNSPECIFIED.)
CURVE()
GEOMETRIC_REPRESENTATION_ITEM()
RATIONAL_B_SPLINE_CURVE((1.01982409215312,1.10151587043093,1.18320706210331))
REPRESENTATION_ITEM('')
);
#391=(
BOUNDED_CURVE()
B_SPLINE_CURVE(2,(#1446,#1447,#1448),.UNSPECIFIED.,.F.,.F.)
B_SPLINE_CURVE_WITH_KNOTS((3,3),(2.02210484029152,2.02211678760718),
 .UNSPECIFIED.)
CURVE()
GEOMETRIC_REPRESENTATION_ITEM()
RATIONAL_B_SPLINE_CURVE((2.27597009512658,2.01737922980289,1.75878530874088))
REPRESENTATION_ITEM('')
);
#392=CIRCLE('',#1011,2.19992449429876);
#393=CIRCLE('',#1012,2.19992449429876);
#394=CIRCLE('',#1013,1.7);
#395=CIRCLE('',#1015,6.5);
#396=CIRCLE('',#1016,6.5);
#397=CIRCLE('',#1018,1.69999999999998);
#398=CIRCLE('',#1020,2.19992449429878);
#399=CIRCLE('',#1021,2.19992449429878);
#400=CIRCLE('',#1022,1.7);
#401=CIRCLE('',#1024,1.7);
#402=CIRCLE('',#1028,1.7);
#403=CIRCLE('',#1030,1.49999999999999);
#404=CIRCLE('',#1031,2.5);
#405=CIRCLE('',#1033,1.69999999999998);
#406=CIRCLE('',#1035,1.5);
#407=CIRCLE('',#1037,2.5);
#408=CIRCLE('',#1039,2.5);
#409=CIRCLE('',#1042,1.49999999999999);
#410=CIRCLE('',#1043,1.5);
#411=CIRCLE('',#1045,1.5);
#412=CIRCLE('',#1046,2.5);
#413=CIRCLE('',#1051,5.);
#414=CIRCLE('',#1052,5.);
#415=CIRCLE('',#1054,5.);
#416=CIRCLE('',#1055,3.05);
#417=CIRCLE('',#1058,5.);
#418=CIRCLE('',#1062,2.211743);
#419=CIRCLE('',#1066,2.211743);
#420=CIRCLE('',#1067,2.211743);
#421=CIRCLE('',#1073,1.5);
#422=CIRCLE('',#1085,3.05);
#423=B_SPLINE_CURVE_WITH_KNOTS('',3,(#1376,#1377,#1378,#1379,#1380,#1381,
#1382,#1383),.UNSPECIFIED.,.F.,.F.,(4,2,2,4),(1.46033748622695,1.56751805112561,
1.67470745600539,1.69995814409841),.UNSPECIFIED.);
#424=B_SPLINE_CURVE_WITH_KNOTS('',3,(#1407,#1408,#1409,#1410,#1411,#1412,
#1413,#1414),.UNSPECIFIED.,.F.,.F.,(4,2,2,4),(1.22063630273905,1.24588699083202,
1.35307639571179,1.46025696061042),.UNSPECIFIED.);
#425=VERTEX_POINT('',#1374);
#426=VERTEX_POINT('',#1375);
#427=VERTEX_POINT('',#1384);
#428=VERTEX_POINT('',#1386);
#429=VERTEX_POINT('',#1388);
#430=VERTEX_POINT('',#1393);
#431=VERTEX_POINT('',#1399);
#432=VERTEX_POINT('',#1400);
#433=VERTEX_POINT('',#1402);
#434=VERTEX_POINT('',#1405);
#435=VERTEX_POINT('',#1416);
#436=VERTEX_POINT('',#1418);
#437=VERTEX_POINT('',#1420);
#438=VERTEX_POINT('',#1422);
#439=VERTEX_POINT('',#1424);
#440=VERTEX_POINT('',#1426);
#441=VERTEX_POINT('',#1428);
#442=VERTEX_POINT('',#1430);
#443=VERTEX_POINT('',#1432);
#444=VERTEX_POINT('',#1434);
#445=VERTEX_POINT('',#1436);
#446=VERTEX_POINT('',#1441);
#447=VERTEX_POINT('',#1444);
#448=VERTEX_POINT('',#1445);
#449=VERTEX_POINT('',#1449);
#450=VERTEX_POINT('',#1454);
#451=VERTEX_POINT('',#1462);
#452=VERTEX_POINT('',#1466);
#453=VERTEX_POINT('',#1468);
#454=VERTEX_POINT('',#1472);
#455=VERTEX_POINT('',#1475);
#456=VERTEX_POINT('',#1478);
#457=VERTEX_POINT('',#1482);
#458=VERTEX_POINT('',#1486);
#459=VERTEX_POINT('',#1488);
#460=VERTEX_POINT('',#1490);
#461=VERTEX_POINT('',#1492);
#462=VERTEX_POINT('',#1494);
#463=VERTEX_POINT('',#1500);
#464=VERTEX_POINT('',#1502);
#465=VERTEX_POINT('',#1504);
#466=VERTEX_POINT('',#1506);
#467=VERTEX_POINT('',#1510);
#468=VERTEX_POINT('',#1512);
#469=VERTEX_POINT('',#1519);
#470=VERTEX_POINT('',#1521);
#471=VERTEX_POINT('',#1523);
#472=VERTEX_POINT('',#1528);
#473=VERTEX_POINT('',#1529);
#474=VERTEX_POINT('',#1531);
#475=VERTEX_POINT('',#1533);
#476=VERTEX_POINT('',#1537);
#477=VERTEX_POINT('',#1539);
#478=VERTEX_POINT('',#1541);
#479=VERTEX_POINT('',#1543);
#480=VERTEX_POINT('',#1546);
#481=VERTEX_POINT('',#1548);
#482=VERTEX_POINT('',#1551);
#483=VERTEX_POINT('',#1553);
#484=VERTEX_POINT('',#1554);
#485=VERTEX_POINT('',#1556);
#486=VERTEX_POINT('',#1558);
#487=VERTEX_POINT('',#1561);
#488=VERTEX_POINT('',#1562);
#489=VERTEX_POINT('',#1564);
#490=VERTEX_POINT('',#1566);
#491=VERTEX_POINT('',#1570);
#492=VERTEX_POINT('',#1574);
#493=VERTEX_POINT('',#1579);
#494=VERTEX_POINT('',#1583);
#495=VERTEX_POINT('',#1588);
#496=VERTEX_POINT('',#1590);
#497=VERTEX_POINT('',#1594);
#498=VERTEX_POINT('',#1596);
#499=VERTEX_POINT('',#1606);
#500=VERTEX_POINT('',#1608);
#501=VERTEX_POINT('',#1610);
#502=VERTEX_POINT('',#1612);
#503=VERTEX_POINT('',#1614);
#504=VERTEX_POINT('',#1616);
#505=VERTEX_POINT('',#1618);
#506=VERTEX_POINT('',#1621);
#507=VERTEX_POINT('',#1624);
#508=VERTEX_POINT('',#1629);
#509=VERTEX_POINT('',#1633);
#510=VERTEX_POINT('',#1637);
#511=VERTEX_POINT('',#1639);
#512=VERTEX_POINT('',#1641);
#513=VERTEX_POINT('',#1648);
#514=VERTEX_POINT('',#1650);
#515=VERTEX_POINT('',#1654);
#516=VERTEX_POINT('',#1656);
#517=VERTEX_POINT('',#1664);
#518=EDGE_CURVE('',#425,#426,#423,.T.);
#519=EDGE_CURVE('',#426,#427,#392,.T.);
#520=EDGE_CURVE('',#427,#428,#393,.T.);
#521=EDGE_CURVE('',#428,#429,#388,.T.);
#522=EDGE_CURVE('',#429,#430,#394,.T.);
#523=EDGE_CURVE('',#430,#425,#389,.T.);
#524=EDGE_CURVE('',#431,#432,#59,.T.);
#525=EDGE_CURVE('',#431,#433,#395,.T.);
#526=EDGE_CURVE('',#426,#433,#60,.T.);
#527=EDGE_CURVE('',#434,#425,#396,.T.);
#528=EDGE_CURVE('',#432,#434,#424,.T.);
#529=EDGE_CURVE('',#430,#435,#61,.T.);
#530=EDGE_CURVE('',#435,#436,#62,.T.);
#531=EDGE_CURVE('',#437,#436,#63,.T.);
#532=EDGE_CURVE('',#437,#438,#64,.T.);
#533=EDGE_CURVE('',#438,#439,#65,.T.);
#534=EDGE_CURVE('',#440,#439,#66,.T.);
#535=EDGE_CURVE('',#440,#441,#67,.T.);
#536=EDGE_CURVE('',#442,#441,#68,.T.);
#537=EDGE_CURVE('',#442,#443,#69,.T.);
#538=EDGE_CURVE('',#443,#444,#70,.T.);
#539=EDGE_CURVE('',#445,#444,#71,.F.);
#540=EDGE_CURVE('',#434,#445,#390,.T.);
#541=EDGE_CURVE('',#446,#446,#397,.T.);
#542=EDGE_CURVE('',#447,#448,#391,.T.);
#543=EDGE_CURVE('',#448,#449,#398,.T.);
#544=EDGE_CURVE('',#449,#432,#399,.T.);
#545=EDGE_CURVE('',#445,#447,#400,.T.);
#546=EDGE_CURVE('',#444,#450,#401,.T.);
#547=EDGE_CURVE('',#447,#450,#72,.T.);
#548=EDGE_CURVE('',#427,#433,#73,.T.);
#549=EDGE_CURVE('',#431,#449,#74,.T.);
#550=EDGE_CURVE('',#429,#451,#75,.F.);
#551=EDGE_CURVE('',#451,#435,#402,.T.);
#552=EDGE_CURVE('',#452,#438,#403,.T.);
#553=EDGE_CURVE('',#453,#437,#404,.T.);
#554=EDGE_CURVE('',#453,#452,#76,.T.);
#555=EDGE_CURVE('',#454,#454,#405,.T.);
#556=EDGE_CURVE('',#455,#455,#406,.T.);
#557=EDGE_CURVE('',#456,#443,#407,.T.);
#558=EDGE_CURVE('',#450,#456,#77,.T.);
#559=EDGE_CURVE('',#436,#457,#408,.T.);
#560=EDGE_CURVE('',#457,#451,#78,.T.);
#561=EDGE_CURVE('',#428,#458,#79,.T.);
#562=EDGE_CURVE('',#459,#458,#80,.F.);
#563=EDGE_CURVE('',#460,#459,#81,.T.);
#564=EDGE_CURVE('',#460,#461,#82,.T.);
#565=EDGE_CURVE('',#462,#461,#83,.T.);
#566=EDGE_CURVE('',#462,#452,#84,.T.);
#567=EDGE_CURVE('',#457,#453,#85,.T.);
#568=EDGE_CURVE('',#439,#462,#409,.T.);
#569=EDGE_CURVE('',#461,#463,#86,.T.);
#570=EDGE_CURVE('',#463,#464,#87,.T.);
#571=EDGE_CURVE('',#464,#465,#88,.T.);
#572=EDGE_CURVE('',#465,#466,#89,.T.);
#573=EDGE_CURVE('',#466,#440,#410,.T.);
#574=EDGE_CURVE('',#441,#467,#411,.T.);
#575=EDGE_CURVE('',#468,#467,#90,.T.);
#576=EDGE_CURVE('',#442,#468,#412,.T.);
#577=EDGE_CURVE('',#467,#466,#91,.T.);
#578=EDGE_CURVE('',#456,#468,#92,.T.);
#579=EDGE_CURVE('',#469,#465,#93,.T.);
#580=EDGE_CURVE('',#470,#469,#94,.T.);
#581=EDGE_CURVE('',#471,#470,#95,.F.);
#582=EDGE_CURVE('',#448,#471,#96,.T.);
#583=EDGE_CURVE('',#472,#473,#413,.T.);
#584=EDGE_CURVE('',#473,#474,#97,.T.);
#585=EDGE_CURVE('',#474,#475,#414,.T.);
#586=EDGE_CURVE('',#475,#472,#98,.T.);
#587=EDGE_CURVE('',#472,#476,#99,.T.);
#588=EDGE_CURVE('',#477,#476,#415,.T.);
#589=EDGE_CURVE('',#478,#477,#100,.T.);
#590=EDGE_CURVE('',#479,#478,#101,.T.);
#591=EDGE_CURVE('',#479,#464,#102,.T.);
#592=EDGE_CURVE('',#480,#463,#103,.T.);
#593=EDGE_CURVE('',#481,#480,#104,.T.);
#594=EDGE_CURVE('',#473,#481,#105,.T.);
#595=EDGE_CURVE('',#482,#482,#416,.T.);
#596=EDGE_CURVE('',#483,#484,#106,.T.);
#597=EDGE_CURVE('',#484,#485,#107,.T.);
#598=EDGE_CURVE('',#485,#486,#108,.T.);
#599=EDGE_CURVE('',#483,#486,#109,.T.);
#600=EDGE_CURVE('',#487,#488,#110,.T.);
#601=EDGE_CURVE('',#488,#489,#111,.T.);
#602=EDGE_CURVE('',#489,#490,#112,.T.);
#603=EDGE_CURVE('',#490,#487,#113,.T.);
#604=EDGE_CURVE('',#475,#491,#114,.T.);
#605=EDGE_CURVE('',#476,#491,#115,.T.);
#606=EDGE_CURVE('',#491,#492,#417,.T.);
#607=EDGE_CURVE('',#492,#477,#116,.T.);
#608=EDGE_CURVE('',#480,#460,#117,.T.);
#609=EDGE_CURVE('',#459,#493,#15,.T.);
#610=EDGE_CURVE('',#493,#481,#118,.T.);
#611=EDGE_CURVE('',#494,#458,#418,.F.);
#612=EDGE_CURVE('',#494,#493,#119,.F.);
#613=EDGE_CURVE('',#469,#479,#120,.T.);
#614=EDGE_CURVE('',#478,#495,#121,.T.);
#615=EDGE_CURVE('',#495,#496,#122,.T.);
#616=EDGE_CURVE('',#496,#470,#16,.T.);
#617=EDGE_CURVE('',#496,#497,#419,.F.);
#618=EDGE_CURVE('',#497,#498,#123,.T.);
#619=EDGE_CURVE('',#498,#471,#420,.T.);
#620=EDGE_CURVE('',#497,#495,#124,.T.);
#621=EDGE_CURVE('',#449,#498,#125,.T.);
#622=EDGE_CURVE('',#499,#495,#126,.T.);
#623=EDGE_CURVE('',#500,#499,#127,.T.);
#624=EDGE_CURVE('',#500,#501,#128,.T.);
#625=EDGE_CURVE('',#501,#502,#129,.T.);
#626=EDGE_CURVE('',#502,#503,#130,.T.);
#627=EDGE_CURVE('',#504,#503,#131,.T.);
#628=EDGE_CURVE('',#504,#505,#132,.T.);
#629=EDGE_CURVE('',#505,#427,#133,.T.);
#630=EDGE_CURVE('',#506,#506,#421,.T.);
#631=EDGE_CURVE('',#492,#507,#134,.T.);
#632=EDGE_CURVE('',#507,#499,#135,.T.);
#633=EDGE_CURVE('',#505,#494,#136,.T.);
#634=EDGE_CURVE('',#504,#508,#137,.T.);
#635=EDGE_CURVE('',#508,#474,#138,.T.);
#636=EDGE_CURVE('',#509,#507,#139,.T.);
#637=EDGE_CURVE('',#500,#509,#140,.T.);
#638=EDGE_CURVE('',#510,#508,#141,.T.);
#639=EDGE_CURVE('',#511,#510,#142,.T.);
#640=EDGE_CURVE('',#512,#511,#143,.T.);
#641=EDGE_CURVE('',#509,#512,#144,.T.);
#642=EDGE_CURVE('',#510,#503,#145,.T.);
#643=EDGE_CURVE('',#513,#484,#146,.T.);
#644=EDGE_CURVE('',#514,#513,#147,.T.);
#645=EDGE_CURVE('',#485,#514,#148,.T.);
#646=EDGE_CURVE('',#483,#515,#149,.T.);
#647=EDGE_CURVE('',#516,#486,#150,.T.);
#648=EDGE_CURVE('',#515,#516,#151,.T.);
#649=EDGE_CURVE('',#516,#514,#152,.T.);
#650=EDGE_CURVE('',#454,#446,#153,.T.);
#651=EDGE_CURVE('',#482,#517,#154,.T.);
#652=EDGE_CURVE('',#517,#517,#422,.T.);
#653=EDGE_CURVE('',#513,#515,#155,.T.);
#654=EDGE_CURVE('',#489,#512,#156,.T.);
#655=EDGE_CURVE('',#501,#488,#157,.T.);
#656=EDGE_CURVE('',#511,#490,#158,.T.);
#657=EDGE_CURVE('',#487,#502,#159,.T.);
#658=EDGE_CURVE('',#506,#455,#160,.T.);
#659=ORIENTED_EDGE('',*,*,#518,.T.);
#660=ORIENTED_EDGE('',*,*,#519,.T.);
#661=ORIENTED_EDGE('',*,*,#520,.T.);
#662=ORIENTED_EDGE('',*,*,#521,.T.);
#663=ORIENTED_EDGE('',*,*,#522,.T.);
#664=ORIENTED_EDGE('',*,*,#523,.T.);
#665=ORIENTED_EDGE('',*,*,#524,.F.);
#666=ORIENTED_EDGE('',*,*,#525,.T.);
#667=ORIENTED_EDGE('',*,*,#526,.F.);
#668=ORIENTED_EDGE('',*,*,#518,.F.);
#669=ORIENTED_EDGE('',*,*,#527,.F.);
#670=ORIENTED_EDGE('',*,*,#528,.F.);
#671=ORIENTED_EDGE('',*,*,#523,.F.);
#672=ORIENTED_EDGE('',*,*,#529,.T.);
#673=ORIENTED_EDGE('',*,*,#530,.T.);
#674=ORIENTED_EDGE('',*,*,#531,.F.);
#675=ORIENTED_EDGE('',*,*,#532,.T.);
#676=ORIENTED_EDGE('',*,*,#533,.T.);
#677=ORIENTED_EDGE('',*,*,#534,.F.);
#678=ORIENTED_EDGE('',*,*,#535,.T.);
#679=ORIENTED_EDGE('',*,*,#536,.F.);
#680=ORIENTED_EDGE('',*,*,#537,.T.);
#681=ORIENTED_EDGE('',*,*,#538,.T.);
#682=ORIENTED_EDGE('',*,*,#539,.F.);
#683=ORIENTED_EDGE('',*,*,#540,.F.);
#684=ORIENTED_EDGE('',*,*,#527,.T.);
#685=ORIENTED_EDGE('',*,*,#541,.T.);
#686=ORIENTED_EDGE('',*,*,#542,.T.);
#687=ORIENTED_EDGE('',*,*,#543,.T.);
#688=ORIENTED_EDGE('',*,*,#544,.T.);
#689=ORIENTED_EDGE('',*,*,#528,.T.);
#690=ORIENTED_EDGE('',*,*,#540,.T.);
#691=ORIENTED_EDGE('',*,*,#545,.T.);
#692=ORIENTED_EDGE('',*,*,#545,.F.);
#693=ORIENTED_EDGE('',*,*,#539,.T.);
#694=ORIENTED_EDGE('',*,*,#546,.T.);
#695=ORIENTED_EDGE('',*,*,#547,.F.);
#696=ORIENTED_EDGE('',*,*,#519,.F.);
#697=ORIENTED_EDGE('',*,*,#526,.T.);
#698=ORIENTED_EDGE('',*,*,#548,.F.);
#699=ORIENTED_EDGE('',*,*,#544,.F.);
#700=ORIENTED_EDGE('',*,*,#549,.F.);
#701=ORIENTED_EDGE('',*,*,#524,.T.);
#702=ORIENTED_EDGE('',*,*,#522,.F.);
#703=ORIENTED_EDGE('',*,*,#550,.T.);
#704=ORIENTED_EDGE('',*,*,#551,.T.);
#705=ORIENTED_EDGE('',*,*,#529,.F.);
#706=ORIENTED_EDGE('',*,*,#552,.T.);
#707=ORIENTED_EDGE('',*,*,#532,.F.);
#708=ORIENTED_EDGE('',*,*,#553,.F.);
#709=ORIENTED_EDGE('',*,*,#554,.T.);
#710=ORIENTED_EDGE('',*,*,#555,.F.);
#711=ORIENTED_EDGE('',*,*,#556,.F.);
#712=ORIENTED_EDGE('',*,*,#538,.F.);
#713=ORIENTED_EDGE('',*,*,#557,.F.);
#714=ORIENTED_EDGE('',*,*,#558,.F.);
#715=ORIENTED_EDGE('',*,*,#546,.F.);
#716=ORIENTED_EDGE('',*,*,#559,.F.);
#717=ORIENTED_EDGE('',*,*,#530,.F.);
#718=ORIENTED_EDGE('',*,*,#551,.F.);
#719=ORIENTED_EDGE('',*,*,#560,.F.);
#720=ORIENTED_EDGE('',*,*,#561,.T.);
#721=ORIENTED_EDGE('',*,*,#562,.F.);
#722=ORIENTED_EDGE('',*,*,#563,.F.);
#723=ORIENTED_EDGE('',*,*,#564,.T.);
#724=ORIENTED_EDGE('',*,*,#565,.F.);
#725=ORIENTED_EDGE('',*,*,#566,.T.);
#726=ORIENTED_EDGE('',*,*,#554,.F.);
#727=ORIENTED_EDGE('',*,*,#567,.F.);
#728=ORIENTED_EDGE('',*,*,#560,.T.);
#729=ORIENTED_EDGE('',*,*,#550,.F.);
#730=ORIENTED_EDGE('',*,*,#521,.F.);
#731=ORIENTED_EDGE('',*,*,#534,.T.);
#732=ORIENTED_EDGE('',*,*,#568,.T.);
#733=ORIENTED_EDGE('',*,*,#565,.T.);
#734=ORIENTED_EDGE('',*,*,#569,.T.);
#735=ORIENTED_EDGE('',*,*,#570,.T.);
#736=ORIENTED_EDGE('',*,*,#571,.T.);
#737=ORIENTED_EDGE('',*,*,#572,.T.);
#738=ORIENTED_EDGE('',*,*,#573,.T.);
#739=ORIENTED_EDGE('',*,*,#574,.T.);
#740=ORIENTED_EDGE('',*,*,#575,.F.);
#741=ORIENTED_EDGE('',*,*,#576,.F.);
#742=ORIENTED_EDGE('',*,*,#536,.T.);
#743=ORIENTED_EDGE('',*,*,#574,.F.);
#744=ORIENTED_EDGE('',*,*,#535,.F.);
#745=ORIENTED_EDGE('',*,*,#573,.F.);
#746=ORIENTED_EDGE('',*,*,#577,.F.);
#747=ORIENTED_EDGE('',*,*,#542,.F.);
#748=ORIENTED_EDGE('',*,*,#547,.T.);
#749=ORIENTED_EDGE('',*,*,#558,.T.);
#750=ORIENTED_EDGE('',*,*,#578,.T.);
#751=ORIENTED_EDGE('',*,*,#575,.T.);
#752=ORIENTED_EDGE('',*,*,#577,.T.);
#753=ORIENTED_EDGE('',*,*,#572,.F.);
#754=ORIENTED_EDGE('',*,*,#579,.F.);
#755=ORIENTED_EDGE('',*,*,#580,.F.);
#756=ORIENTED_EDGE('',*,*,#581,.F.);
#757=ORIENTED_EDGE('',*,*,#582,.F.);
#758=ORIENTED_EDGE('',*,*,#552,.F.);
#759=ORIENTED_EDGE('',*,*,#566,.F.);
#760=ORIENTED_EDGE('',*,*,#568,.F.);
#761=ORIENTED_EDGE('',*,*,#533,.F.);
#762=ORIENTED_EDGE('',*,*,#583,.T.);
#763=ORIENTED_EDGE('',*,*,#584,.T.);
#764=ORIENTED_EDGE('',*,*,#585,.T.);
#765=ORIENTED_EDGE('',*,*,#586,.T.);
#766=ORIENTED_EDGE('',*,*,#583,.F.);
#767=ORIENTED_EDGE('',*,*,#587,.T.);
#768=ORIENTED_EDGE('',*,*,#588,.F.);
#769=ORIENTED_EDGE('',*,*,#589,.F.);
#770=ORIENTED_EDGE('',*,*,#590,.F.);
#771=ORIENTED_EDGE('',*,*,#591,.T.);
#772=ORIENTED_EDGE('',*,*,#570,.F.);
#773=ORIENTED_EDGE('',*,*,#592,.F.);
#774=ORIENTED_EDGE('',*,*,#593,.F.);
#775=ORIENTED_EDGE('',*,*,#594,.F.);
#776=ORIENTED_EDGE('',*,*,#595,.T.);
#777=ORIENTED_EDGE('',*,*,#596,.T.);
#778=ORIENTED_EDGE('',*,*,#597,.T.);
#779=ORIENTED_EDGE('',*,*,#598,.T.);
#780=ORIENTED_EDGE('',*,*,#599,.F.);
#781=ORIENTED_EDGE('',*,*,#600,.T.);
#782=ORIENTED_EDGE('',*,*,#601,.T.);
#783=ORIENTED_EDGE('',*,*,#602,.T.);
#784=ORIENTED_EDGE('',*,*,#603,.T.);
#785=ORIENTED_EDGE('',*,*,#586,.F.);
#786=ORIENTED_EDGE('',*,*,#604,.T.);
#787=ORIENTED_EDGE('',*,*,#605,.F.);
#788=ORIENTED_EDGE('',*,*,#587,.F.);
#789=ORIENTED_EDGE('',*,*,#606,.T.);
#790=ORIENTED_EDGE('',*,*,#607,.T.);
#791=ORIENTED_EDGE('',*,*,#588,.T.);
#792=ORIENTED_EDGE('',*,*,#605,.T.);
#793=ORIENTED_EDGE('',*,*,#593,.T.);
#794=ORIENTED_EDGE('',*,*,#608,.T.);
#795=ORIENTED_EDGE('',*,*,#563,.T.);
#796=ORIENTED_EDGE('',*,*,#609,.T.);
#797=ORIENTED_EDGE('',*,*,#610,.T.);
#798=ORIENTED_EDGE('',*,*,#609,.F.);
#799=ORIENTED_EDGE('',*,*,#562,.T.);
#800=ORIENTED_EDGE('',*,*,#611,.F.);
#801=ORIENTED_EDGE('',*,*,#612,.T.);
#802=ORIENTED_EDGE('',*,*,#580,.T.);
#803=ORIENTED_EDGE('',*,*,#613,.T.);
#804=ORIENTED_EDGE('',*,*,#590,.T.);
#805=ORIENTED_EDGE('',*,*,#614,.T.);
#806=ORIENTED_EDGE('',*,*,#615,.T.);
#807=ORIENTED_EDGE('',*,*,#616,.T.);
#808=ORIENTED_EDGE('',*,*,#616,.F.);
#809=ORIENTED_EDGE('',*,*,#617,.T.);
#810=ORIENTED_EDGE('',*,*,#618,.T.);
#811=ORIENTED_EDGE('',*,*,#619,.T.);
#812=ORIENTED_EDGE('',*,*,#581,.T.);
#813=ORIENTED_EDGE('',*,*,#615,.F.);
#814=ORIENTED_EDGE('',*,*,#620,.F.);
#815=ORIENTED_EDGE('',*,*,#617,.F.);
#816=ORIENTED_EDGE('',*,*,#613,.F.);
#817=ORIENTED_EDGE('',*,*,#579,.T.);
#818=ORIENTED_EDGE('',*,*,#571,.F.);
#819=ORIENTED_EDGE('',*,*,#591,.F.);
#820=ORIENTED_EDGE('',*,*,#608,.F.);
#821=ORIENTED_EDGE('',*,*,#592,.T.);
#822=ORIENTED_EDGE('',*,*,#569,.F.);
#823=ORIENTED_EDGE('',*,*,#564,.F.);
#824=ORIENTED_EDGE('',*,*,#543,.F.);
#825=ORIENTED_EDGE('',*,*,#582,.T.);
#826=ORIENTED_EDGE('',*,*,#619,.F.);
#827=ORIENTED_EDGE('',*,*,#621,.F.);
#828=ORIENTED_EDGE('',*,*,#620,.T.);
#829=ORIENTED_EDGE('',*,*,#622,.F.);
#830=ORIENTED_EDGE('',*,*,#623,.F.);
#831=ORIENTED_EDGE('',*,*,#624,.T.);
#832=ORIENTED_EDGE('',*,*,#625,.T.);
#833=ORIENTED_EDGE('',*,*,#626,.T.);
#834=ORIENTED_EDGE('',*,*,#627,.F.);
#835=ORIENTED_EDGE('',*,*,#628,.T.);
#836=ORIENTED_EDGE('',*,*,#629,.T.);
#837=ORIENTED_EDGE('',*,*,#548,.T.);
#838=ORIENTED_EDGE('',*,*,#525,.F.);
#839=ORIENTED_EDGE('',*,*,#549,.T.);
#840=ORIENTED_EDGE('',*,*,#621,.T.);
#841=ORIENTED_EDGE('',*,*,#618,.F.);
#842=ORIENTED_EDGE('',*,*,#630,.T.);
#843=ORIENTED_EDGE('',*,*,#607,.F.);
#844=ORIENTED_EDGE('',*,*,#631,.T.);
#845=ORIENTED_EDGE('',*,*,#632,.T.);
#846=ORIENTED_EDGE('',*,*,#622,.T.);
#847=ORIENTED_EDGE('',*,*,#614,.F.);
#848=ORIENTED_EDGE('',*,*,#589,.T.);
#849=ORIENTED_EDGE('',*,*,#584,.F.);
#850=ORIENTED_EDGE('',*,*,#594,.T.);
#851=ORIENTED_EDGE('',*,*,#610,.F.);
#852=ORIENTED_EDGE('',*,*,#612,.F.);
#853=ORIENTED_EDGE('',*,*,#633,.F.);
#854=ORIENTED_EDGE('',*,*,#628,.F.);
#855=ORIENTED_EDGE('',*,*,#634,.T.);
#856=ORIENTED_EDGE('',*,*,#635,.T.);
#857=ORIENTED_EDGE('',*,*,#636,.F.);
#858=ORIENTED_EDGE('',*,*,#637,.F.);
#859=ORIENTED_EDGE('',*,*,#623,.T.);
#860=ORIENTED_EDGE('',*,*,#632,.F.);
#861=ORIENTED_EDGE('',*,*,#585,.F.);
#862=ORIENTED_EDGE('',*,*,#635,.F.);
#863=ORIENTED_EDGE('',*,*,#638,.F.);
#864=ORIENTED_EDGE('',*,*,#639,.F.);
#865=ORIENTED_EDGE('',*,*,#640,.F.);
#866=ORIENTED_EDGE('',*,*,#641,.F.);
#867=ORIENTED_EDGE('',*,*,#636,.T.);
#868=ORIENTED_EDGE('',*,*,#631,.F.);
#869=ORIENTED_EDGE('',*,*,#606,.F.);
#870=ORIENTED_EDGE('',*,*,#604,.F.);
#871=ORIENTED_EDGE('',*,*,#638,.T.);
#872=ORIENTED_EDGE('',*,*,#634,.F.);
#873=ORIENTED_EDGE('',*,*,#627,.T.);
#874=ORIENTED_EDGE('',*,*,#642,.F.);
#875=ORIENTED_EDGE('',*,*,#520,.F.);
#876=ORIENTED_EDGE('',*,*,#629,.F.);
#877=ORIENTED_EDGE('',*,*,#633,.T.);
#878=ORIENTED_EDGE('',*,*,#611,.T.);
#879=ORIENTED_EDGE('',*,*,#561,.F.);
#880=ORIENTED_EDGE('',*,*,#643,.F.);
#881=ORIENTED_EDGE('',*,*,#644,.F.);
#882=ORIENTED_EDGE('',*,*,#645,.F.);
#883=ORIENTED_EDGE('',*,*,#597,.F.);
#884=ORIENTED_EDGE('',*,*,#646,.F.);
#885=ORIENTED_EDGE('',*,*,#599,.T.);
#886=ORIENTED_EDGE('',*,*,#647,.F.);
#887=ORIENTED_EDGE('',*,*,#648,.F.);
#888=ORIENTED_EDGE('',*,*,#647,.T.);
#889=ORIENTED_EDGE('',*,*,#598,.F.);
#890=ORIENTED_EDGE('',*,*,#645,.T.);
#891=ORIENTED_EDGE('',*,*,#649,.F.);
#892=ORIENTED_EDGE('',*,*,#555,.T.);
#893=ORIENTED_EDGE('',*,*,#650,.T.);
#894=ORIENTED_EDGE('',*,*,#541,.F.);
#895=ORIENTED_EDGE('',*,*,#650,.F.);
#896=ORIENTED_EDGE('',*,*,#595,.F.);
#897=ORIENTED_EDGE('',*,*,#651,.T.);
#898=ORIENTED_EDGE('',*,*,#652,.T.);
#899=ORIENTED_EDGE('',*,*,#651,.F.);
#900=ORIENTED_EDGE('',*,*,#652,.F.);
#901=ORIENTED_EDGE('',*,*,#646,.T.);
#902=ORIENTED_EDGE('',*,*,#653,.F.);
#903=ORIENTED_EDGE('',*,*,#643,.T.);
#904=ORIENTED_EDGE('',*,*,#596,.F.);
#905=ORIENTED_EDGE('',*,*,#648,.T.);
#906=ORIENTED_EDGE('',*,*,#649,.T.);
#907=ORIENTED_EDGE('',*,*,#644,.T.);
#908=ORIENTED_EDGE('',*,*,#653,.T.);
#909=ORIENTED_EDGE('',*,*,#576,.T.);
#910=ORIENTED_EDGE('',*,*,#578,.F.);
#911=ORIENTED_EDGE('',*,*,#557,.T.);
#912=ORIENTED_EDGE('',*,*,#537,.F.);
#913=ORIENTED_EDGE('',*,*,#559,.T.);
#914=ORIENTED_EDGE('',*,*,#567,.T.);
#915=ORIENTED_EDGE('',*,*,#553,.T.);
#916=ORIENTED_EDGE('',*,*,#531,.T.);
#917=ORIENTED_EDGE('',*,*,#641,.T.);
#918=ORIENTED_EDGE('',*,*,#654,.F.);
#919=ORIENTED_EDGE('',*,*,#601,.F.);
#920=ORIENTED_EDGE('',*,*,#655,.F.);
#921=ORIENTED_EDGE('',*,*,#624,.F.);
#922=ORIENTED_EDGE('',*,*,#637,.T.);
#923=ORIENTED_EDGE('',*,*,#640,.T.);
#924=ORIENTED_EDGE('',*,*,#656,.T.);
#925=ORIENTED_EDGE('',*,*,#602,.F.);
#926=ORIENTED_EDGE('',*,*,#654,.T.);
#927=ORIENTED_EDGE('',*,*,#639,.T.);
#928=ORIENTED_EDGE('',*,*,#642,.T.);
#929=ORIENTED_EDGE('',*,*,#626,.F.);
#930=ORIENTED_EDGE('',*,*,#657,.F.);
#931=ORIENTED_EDGE('',*,*,#603,.F.);
#932=ORIENTED_EDGE('',*,*,#656,.F.);
#933=ORIENTED_EDGE('',*,*,#630,.F.);
#934=ORIENTED_EDGE('',*,*,#658,.T.);
#935=ORIENTED_EDGE('',*,*,#556,.T.);
#936=ORIENTED_EDGE('',*,*,#658,.F.);
#937=ORIENTED_EDGE('',*,*,#657,.T.);
#938=ORIENTED_EDGE('',*,*,#625,.F.);
#939=ORIENTED_EDGE('',*,*,#655,.T.);
#940=ORIENTED_EDGE('',*,*,#600,.F.);
#941=CONICAL_SURFACE('',#1010,1.94996224714938,0.392699081698589);
#942=CONICAL_SURFACE('',#1019,1.94996224714939,0.39269908169861);
#943=ADVANCED_FACE('',(#277),#941,.F.);
#944=ADVANCED_FACE('',(#278),#263,.F.);
#945=ADVANCED_FACE('',(#279,#17),#22,.F.);
#946=ADVANCED_FACE('',(#280),#942,.F.);
#947=ADVANCED_FACE('',(#281),#264,.F.);
#948=ADVANCED_FACE('',(#282),#23,.F.);
#949=ADVANCED_FACE('',(#283),#24,.F.);
#950=ADVANCED_FACE('',(#284),#265,.F.);
#951=ADVANCED_FACE('',(#285),#25,.F.);
#952=ADVANCED_FACE('',(#286),#26,.F.);
#953=ADVANCED_FACE('',(#287),#27,.F.);
#954=ADVANCED_FACE('',(#288),#28,.T.);
#955=ADVANCED_FACE('',(#289),#29,.T.);
#956=ADVANCED_FACE('',(#290),#30,.F.);
#957=ADVANCED_FACE('',(#291),#31,.T.);
#958=ADVANCED_FACE('',(#292),#32,.F.);
#959=ADVANCED_FACE('',(#293),#266,.F.);
#960=ADVANCED_FACE('',(#294),#33,.F.);
#961=ADVANCED_FACE('',(#295),#267,.F.);
#962=ADVANCED_FACE('',(#296),#268,.T.);
#963=ADVANCED_FACE('',(#297,#18,#19,#20),#34,.T.);
#964=ADVANCED_FACE('',(#298),#35,.F.);
#965=ADVANCED_FACE('',(#299),#269,.T.);
#966=ADVANCED_FACE('',(#300),#36,.T.);
#967=ADVANCED_FACE('',(#301),#270,.F.);
#968=ADVANCED_FACE('',(#302),#37,.T.);
#969=ADVANCED_FACE('',(#303),#271,.F.);
#970=ADVANCED_FACE('',(#304),#38,.F.);
#971=ADVANCED_FACE('',(#305),#39,.T.);
#972=ADVANCED_FACE('',(#306),#40,.T.);
#973=ADVANCED_FACE('',(#307),#41,.F.);
#974=ADVANCED_FACE('',(#308,#21),#42,.T.);
#975=ADVANCED_FACE('',(#309),#43,.T.);
#976=ADVANCED_FACE('',(#310),#44,.T.);
#977=ADVANCED_FACE('',(#311),#45,.T.);
#978=ADVANCED_FACE('',(#312),#46,.F.);
#979=ADVANCED_FACE('',(#313),#47,.T.);
#980=ADVANCED_FACE('',(#314),#48,.F.);
#981=ADVANCED_FACE('',(#315),#49,.F.);
#982=ADVANCED_FACE('',(#316),#50,.T.);
#983=ADVANCED_FACE('',(#317),#51,.F.);
#984=ADVANCED_FACE('',(#318),#272,.F.);
#985=ADVANCED_FACE('',(#319),#273,.F.);
#986=ADVANCED_FACE('',(#320),#52,.T.);
#987=ADVANCED_FACE('',(#321),#53,.T.);
#988=ADVANCED_FACE('',(#322),#54,.T.);
#989=ADVANCED_FACE('',(#323),#274,.F.);
#990=ADVANCED_FACE('',(#324),#275,.F.);
#991=ADVANCED_FACE('',(#325),#55,.T.);
#992=ADVANCED_FACE('',(#326),#56,.T.);
#993=ADVANCED_FACE('',(#327),#57,.T.);
#994=ADVANCED_FACE('',(#328),#276,.F.);
#995=ADVANCED_FACE('',(#329),#58,.F.);
#996=CLOSED_SHELL('',(#943,#944,#945,#946,#947,#948,#949,#950,#951,#952,
#953,#954,#955,#956,#957,#958,#959,#960,#961,#962,#963,#964,#965,#966,#967,
#968,#969,#970,#971,#972,#973,#974,#975,#976,#977,#978,#979,#980,#981,#982,
#983,#984,#985,#986,#987,#988,#989,#990,#991,#992,#993,#994,#995));
#997=DERIVED_UNIT_ELEMENT(#999,1.);
#998=DERIVED_UNIT_ELEMENT(#1688,-3.);
#999=(
MASS_UNIT()
NAMED_UNIT(*)
SI_UNIT(.KILO.,.GRAM.)
);
#1000=DERIVED_UNIT((#997,#998));
#1001=MEASURE_REPRESENTATION_ITEM('density measure',
POSITIVE_RATIO_MEASURE(7850.),#1000);
#1002=PROPERTY_DEFINITION_REPRESENTATION(#1007,#1004);
#1003=PROPERTY_DEFINITION_REPRESENTATION(#1008,#1005);
#1004=REPRESENTATION('material name',(#1006),#1685);
#1005=REPRESENTATION('density',(#1001),#1685);
#1006=DESCRIPTIVE_REPRESENTATION_ITEM('Steel','Steel');
#1007=PROPERTY_DEFINITION('material property','material name',#1695);
#1008=PROPERTY_DEFINITION('material property','density of part',#1695);
#1009=AXIS2_PLACEMENT_3D('',#1372,#1096,#1097);
#1010=AXIS2_PLACEMENT_3D('',#1373,#1098,#1099);
#1011=AXIS2_PLACEMENT_3D('',#1385,#1100,#1101);
#1012=AXIS2_PLACEMENT_3D('',#1387,#1102,#1103);
#1013=AXIS2_PLACEMENT_3D('',#1394,#1104,#1105);
#1014=AXIS2_PLACEMENT_3D('',#1398,#1106,#1107);
#1015=AXIS2_PLACEMENT_3D('',#1403,#1109,#1110);
#1016=AXIS2_PLACEMENT_3D('',#1406,#1112,#1113);
#1017=AXIS2_PLACEMENT_3D('',#1415,#1114,#1115);
#1018=AXIS2_PLACEMENT_3D('',#1442,#1127,#1128);
#1019=AXIS2_PLACEMENT_3D('',#1443,#1129,#1130);
#1020=AXIS2_PLACEMENT_3D('',#1450,#1131,#1132);
#1021=AXIS2_PLACEMENT_3D('',#1451,#1133,#1134);
#1022=AXIS2_PLACEMENT_3D('',#1452,#1135,#1136);
#1023=AXIS2_PLACEMENT_3D('',#1453,#1137,#1138);
#1024=AXIS2_PLACEMENT_3D('',#1455,#1139,#1140);
#1025=AXIS2_PLACEMENT_3D('',#1457,#1142,#1143);
#1026=AXIS2_PLACEMENT_3D('',#1459,#1145,#1146);
#1027=AXIS2_PLACEMENT_3D('',#1461,#1148,#1149);
#1028=AXIS2_PLACEMENT_3D('',#1464,#1151,#1152);
#1029=AXIS2_PLACEMENT_3D('',#1465,#1153,#1154);
#1030=AXIS2_PLACEMENT_3D('',#1467,#1155,#1156);
#1031=AXIS2_PLACEMENT_3D('',#1469,#1157,#1158);
#1032=AXIS2_PLACEMENT_3D('',#1471,#1160,#1161);
#1033=AXIS2_PLACEMENT_3D('',#1473,#1162,#1163);
#1034=AXIS2_PLACEMENT_3D('',#1474,#1164,#1165);
#1035=AXIS2_PLACEMENT_3D('',#1476,#1166,#1167);
#1036=AXIS2_PLACEMENT_3D('',#1477,#1168,#1169);
#1037=AXIS2_PLACEMENT_3D('',#1479,#1170,#1171);
#1038=AXIS2_PLACEMENT_3D('',#1481,#1173,#1174);
#1039=AXIS2_PLACEMENT_3D('',#1483,#1175,#1176);
#1040=AXIS2_PLACEMENT_3D('',#1485,#1178,#1179);
#1041=AXIS2_PLACEMENT_3D('',#1498,#1187,#1188);
#1042=AXIS2_PLACEMENT_3D('',#1499,#1189,#1190);
#1043=AXIS2_PLACEMENT_3D('',#1508,#1195,#1196);
#1044=AXIS2_PLACEMENT_3D('',#1509,#1197,#1198);
#1045=AXIS2_PLACEMENT_3D('',#1511,#1199,#1200);
#1046=AXIS2_PLACEMENT_3D('',#1514,#1202,#1203);
#1047=AXIS2_PLACEMENT_3D('',#1515,#1204,#1205);
#1048=AXIS2_PLACEMENT_3D('',#1517,#1207,#1208);
#1049=AXIS2_PLACEMENT_3D('',#1526,#1214,#1215);
#1050=AXIS2_PLACEMENT_3D('',#1527,#1216,#1217);
#1051=AXIS2_PLACEMENT_3D('',#1530,#1218,#1219);
#1052=AXIS2_PLACEMENT_3D('',#1534,#1221,#1222);
#1053=AXIS2_PLACEMENT_3D('',#1536,#1224,#1225);
#1054=AXIS2_PLACEMENT_3D('',#1540,#1227,#1228);
#1055=AXIS2_PLACEMENT_3D('',#1552,#1235,#1236);
#1056=AXIS2_PLACEMENT_3D('',#1569,#1245,#1246);
#1057=AXIS2_PLACEMENT_3D('',#1573,#1249,#1250);
#1058=AXIS2_PLACEMENT_3D('',#1575,#1251,#1252);
#1059=AXIS2_PLACEMENT_3D('',#1577,#1254,#1255);
#1060=AXIS2_PLACEMENT_3D('',#1580,#1257,#1258);
#1061=AXIS2_PLACEMENT_3D('',#1582,#1260,#1261);
#1062=AXIS2_PLACEMENT_3D('',#1584,#1262,#1263);
#1063=AXIS2_PLACEMENT_3D('',#1586,#1265,#1266);
#1064=AXIS2_PLACEMENT_3D('',#1592,#1270,#1271);
#1065=AXIS2_PLACEMENT_3D('',#1593,#1272,#1273);
#1066=AXIS2_PLACEMENT_3D('',#1595,#1274,#1275);
#1067=AXIS2_PLACEMENT_3D('',#1598,#1277,#1278);
#1068=AXIS2_PLACEMENT_3D('',#1599,#1279,#1280);
#1069=AXIS2_PLACEMENT_3D('',#1601,#1282,#1283);
#1070=AXIS2_PLACEMENT_3D('',#1602,#1284,#1285);
#1071=AXIS2_PLACEMENT_3D('',#1603,#1286,#1287);
#1072=AXIS2_PLACEMENT_3D('',#1605,#1289,#1290);
#1073=AXIS2_PLACEMENT_3D('',#1622,#1299,#1300);
#1074=AXIS2_PLACEMENT_3D('',#1623,#1301,#1302);
#1075=AXIS2_PLACEMENT_3D('',#1627,#1305,#1306);
#1076=AXIS2_PLACEMENT_3D('',#1632,#1310,#1311);
#1077=AXIS2_PLACEMENT_3D('',#1636,#1314,#1315);
#1078=AXIS2_PLACEMENT_3D('',#1644,#1320,#1321);
#1079=AXIS2_PLACEMENT_3D('',#1646,#1323,#1324);
#1080=AXIS2_PLACEMENT_3D('',#1647,#1325,#1326);
#1081=AXIS2_PLACEMENT_3D('',#1653,#1330,#1331);
#1082=AXIS2_PLACEMENT_3D('',#1659,#1335,#1336);
#1083=AXIS2_PLACEMENT_3D('',#1661,#1338,#1339);
#1084=AXIS2_PLACEMENT_3D('',#1663,#1341,#1342);
#1085=AXIS2_PLACEMENT_3D('',#1666,#1344,#1345);
#1086=AXIS2_PLACEMENT_3D('',#1667,#1346,#1347);
#1087=AXIS2_PLACEMENT_3D('',#1668,#1348,#1349);
#1088=AXIS2_PLACEMENT_3D('',#1670,#1351,#1352);
#1089=AXIS2_PLACEMENT_3D('',#1671,#1353,#1354);
#1090=AXIS2_PLACEMENT_3D('',#1672,#1355,#1356);
#1091=AXIS2_PLACEMENT_3D('',#1673,#1357,#1358);
#1092=AXIS2_PLACEMENT_3D('',#1676,#1361,#1362);
#1093=AXIS2_PLACEMENT_3D('',#1678,#1364,#1365);
#1094=AXIS2_PLACEMENT_3D('',#1680,#1367,#1368);
#1095=AXIS2_PLACEMENT_3D('',#1682,#1370,#1371);
#1096=DIRECTION('axis',(0.,0.,1.));
#1097=DIRECTION('refdir',(1.,0.,0.));
#1098=DIRECTION('center_axis',(6.32415973853532E-16,0.,-1.));
#1099=DIRECTION('ref_axis',(-5.9370058791545E-15,1.,5.90145722545856E-15));
#1100=DIRECTION('center_axis',(2.01865659935573E-15,6.05596979806736E-15,
-1.));
#1101=DIRECTION('ref_axis',(-6.00865753401995E-15,1.,6.05596979806735E-15));
#1102=DIRECTION('center_axis',(2.01865659935573E-15,6.05596979806736E-15,
-1.));
#1103=DIRECTION('ref_axis',(-6.00865753401995E-15,1.,6.05596979806735E-15));
#1104=DIRECTION('center_axis',(-1.15278086753707E-15,-5.70150664124727E-15,
1.));
#1105=DIRECTION('ref_axis',(-5.84428339056888E-15,1.,5.70150664124727E-15));
#1106=DIRECTION('center_axis',(-1.,7.69060740986166E-17,-1.15278086753696E-15));
#1107=DIRECTION('ref_axis',(-7.69060740985908E-17,-1.,-2.34650750352495E-14));
#1108=DIRECTION('',(1.,-7.69060740986166E-17,1.15278086753696E-15));
#1109=DIRECTION('center_axis',(-1.,1.16573417584112E-15,2.91878534931774E-29));
#1110=DIRECTION('ref_axis',(-1.16573417584112E-15,-1.,-2.34650750352494E-14));
#1111=DIRECTION('',(-1.,7.69060740986166E-17,-1.15278086753696E-15));
#1112=DIRECTION('center_axis',(-1.,-5.70377078902921E-15,1.06939990518701E-15));
#1113=DIRECTION('ref_axis',(-7.69060740985908E-17,-1.,-2.34650750352495E-14));
#1114=DIRECTION('center_axis',(-1.,-6.28663787694977E-15,1.06939990518699E-15));
#1115=DIRECTION('ref_axis',(1.06939990518714E-15,-2.34650750352495E-14,
1.));
#1116=DIRECTION('',(-1.15278086753707E-15,-5.70150664124727E-15,1.));
#1117=DIRECTION('',(6.28663787694977E-15,-1.,-3.60294079856803E-17));
#1118=DIRECTION('',(4.25578429119448E-17,-9.59831506504015E-16,-1.));
#1119=DIRECTION('',(-6.28663787694974E-15,1.,2.34650750352494E-14));
#1120=DIRECTION('',(-1.19614895444317E-15,-2.34650750352494E-14,1.));
#1121=DIRECTION('',(-6.28663787694975E-15,1.,1.81360045170487E-14));
#1122=DIRECTION('',(1.19614895444317E-15,2.34650750352494E-14,-1.));
#1123=DIRECTION('',(6.28663787694974E-15,-1.,-2.34650750352494E-14));
#1124=DIRECTION('',(4.2557842911944E-17,-9.59831506504018E-16,-1.));
#1125=DIRECTION('',(6.28663787694977E-15,-1.,-3.60294079856803E-17));
#1126=DIRECTION('',(1.15278086753707E-15,5.70150664124727E-15,-1.));
#1127=DIRECTION('center_axis',(-1.,-5.70377078902921E-15,1.06939990518701E-15));
#1128=DIRECTION('ref_axis',(-2.81262450759774E-16,-1.,-2.34650750352494E-14));
#1129=DIRECTION('center_axis',(6.32415973853535E-16,0.,-1.));
#1130=DIRECTION('ref_axis',(-5.74128969784234E-15,1.,4.76274489782432E-15));
#1131=DIRECTION('center_axis',(-3.25997957289808E-29,4.03731319871153E-15,
-1.));
#1132=DIRECTION('ref_axis',(-5.66170093100563E-15,1.,4.03731319871153E-15));
#1133=DIRECTION('center_axis',(-3.25997957289808E-29,4.03731319871153E-15,
-1.));
#1134=DIRECTION('ref_axis',(-5.66170093100563E-15,1.,4.03731319871153E-15));
#1135=DIRECTION('center_axis',(-1.15278086753707E-15,-5.70150664124727E-15,
1.));
#1136=DIRECTION('ref_axis',(-5.84428339056888E-15,1.,5.70150664124726E-15));
#1137=DIRECTION('center_axis',(1.15278086753707E-15,5.70150664124727E-15,
-1.));
#1138=DIRECTION('ref_axis',(-5.84428339056888E-15,1.,5.70150664124726E-15));
#1139=DIRECTION('center_axis',(-6.90631235463323E-17,-3.60294079856934E-17,
1.));
#1140=DIRECTION('ref_axis',(-5.84428339056888E-15,1.,5.70150664124726E-15));
#1141=DIRECTION('',(-1.15278086753707E-15,-5.70150664124727E-15,1.));
#1142=DIRECTION('center_axis',(-6.90631235463471E-17,-3.60294079857502E-17,
1.));
#1143=DIRECTION('ref_axis',(-5.84428339056887E-15,1.,3.60294079857502E-17));
#1144=DIRECTION('',(6.28663787693998E-15,-1.,-3.60294079857498E-17));
#1145=DIRECTION('center_axis',(-6.90631235463471E-17,-3.60294079857502E-17,
1.));
#1146=DIRECTION('ref_axis',(-5.84428339056887E-15,1.,3.60294079857502E-17));
#1147=DIRECTION('',(6.28663787693998E-15,-1.,-3.60294079857498E-17));
#1148=DIRECTION('center_axis',(1.15278086753707E-15,5.70150664124727E-15,
-1.));
#1149=DIRECTION('ref_axis',(-5.84428339056888E-15,1.,5.70150664124727E-15));
#1150=DIRECTION('',(1.15278086753707E-15,5.70150664124727E-15,-1.));
#1151=DIRECTION('center_axis',(-6.90631235463323E-17,-3.60294079856966E-17,
1.));
#1152=DIRECTION('ref_axis',(-5.84428339056888E-15,1.,5.70150664124727E-15));
#1153=DIRECTION('center_axis',(-1.15278086755055E-15,-2.34650750352494E-14,
1.));
#1154=DIRECTION('ref_axis',(-5.8442833905689E-15,1.,2.34650750352494E-14));
#1155=DIRECTION('center_axis',(-1.15278086755055E-15,-2.34650750352494E-14,
1.));
#1156=DIRECTION('ref_axis',(-5.8442833905689E-15,1.,2.34650750352494E-14));
#1157=DIRECTION('center_axis',(-1.15278086755055E-15,-2.34650750352494E-14,
1.));
#1158=DIRECTION('ref_axis',(-5.84428339056887E-15,1.,-9.59831506504015E-16));
#1159=DIRECTION('',(6.28663787694974E-15,-1.,-2.34650750352494E-14));
#1160=DIRECTION('center_axis',(-1.,5.82867087923597E-16,-3.15348188158494E-23));
#1161=DIRECTION('ref_axis',(-5.82867087923596E-16,-1.,-2.34650742169133E-14));
#1162=DIRECTION('center_axis',(-1.,5.82867087923597E-16,-3.15348188158494E-23));
#1163=DIRECTION('ref_axis',(5.8442833905689E-15,-1.,-2.34650750352495E-14));
#1164=DIRECTION('center_axis',(-1.,5.82867087920576E-16,1.57772181044202E-29));
#1165=DIRECTION('ref_axis',(-5.82867087920576E-16,-1.,-2.34650750352494E-14));
#1166=DIRECTION('center_axis',(-1.,5.82867087920576E-16,1.57772181044202E-29));
#1167=DIRECTION('ref_axis',(-4.66062761766275E-16,2.34468604387517E-14,
-1.));
#1168=DIRECTION('center_axis',(-6.90631235463323E-17,-3.60294079856808E-17,
1.));
#1169=DIRECTION('ref_axis',(-5.26141630264831E-15,1.,3.60294079856808E-17));
#1170=DIRECTION('center_axis',(6.90631235463471E-17,3.60294079857628E-17,
-1.));
#1171=DIRECTION('ref_axis',(-5.84428339056887E-15,1.,3.60294079857628E-17));
#1172=DIRECTION('',(6.28663787694977E-15,-1.,-3.60294079856803E-17));
#1173=DIRECTION('center_axis',(-6.90631235463323E-17,-3.60294079856808E-17,
1.));
#1174=DIRECTION('ref_axis',(-5.26141630264831E-15,1.,3.60294079856808E-17));
#1175=DIRECTION('center_axis',(6.90631235463479E-17,3.6029407985766E-17,
-1.));
#1176=DIRECTION('ref_axis',(-5.84428339056887E-15,1.,3.6029407985766E-17));
#1177=DIRECTION('',(6.28663787694977E-15,-1.,-3.60294079856803E-17));
#1178=DIRECTION('center_axis',(-1.,-6.28663787694977E-15,1.06939990518699E-15));
#1179=DIRECTION('ref_axis',(1.06939990518714E-15,-2.34650750352495E-14,
1.));
#1180=DIRECTION('',(-6.28663787694977E-15,1.,3.60294079857498E-17));
#1181=DIRECTION('',(4.2557842911944E-17,-9.59831506504031E-16,-1.));
#1182=DIRECTION('',(3.68914434889718E-15,-0.707106781186517,-0.707106781186578));
#1183=DIRECTION('',(-2.9316826744008E-15,-1.77635683940025E-14,1.));
#1184=DIRECTION('',(-6.28663787694975E-15,1.,1.81360045170487E-14));
#1185=DIRECTION('',(1.19614895444317E-15,2.34650750352494E-14,-1.));
#1186=DIRECTION('',(-4.25578429119448E-17,9.59831506504015E-16,1.));
#1187=DIRECTION('center_axis',(-2.92913770693724E-15,-1.81360045170488E-14,
1.));
#1188=DIRECTION('ref_axis',(-5.84428339056889E-15,1.,1.81360045170488E-14));
#1189=DIRECTION('center_axis',(1.15278086755055E-15,2.34650750352494E-14,
-1.));
#1190=DIRECTION('ref_axis',(-5.8442833905689E-15,1.,2.34650750352494E-14));
#1191=DIRECTION('',(-1.,-5.26141630264828E-15,-2.92913770693733E-15));
#1192=DIRECTION('',(5.84428339056891E-15,-1.,-2.34650750352495E-14));
#1193=DIRECTION('',(1.,5.26141630264828E-15,2.92913770693733E-15));
#1194=DIRECTION('',(-6.28663787694975E-15,1.,1.81360045170487E-14));
#1195=DIRECTION('center_axis',(1.15278086755055E-15,2.34650750352494E-14,
-1.));
#1196=DIRECTION('ref_axis',(-5.8442833905689E-15,1.,2.34650750352494E-14));
#1197=DIRECTION('center_axis',(-1.15278086755055E-15,-2.34650750352494E-14,
1.));
#1198=DIRECTION('ref_axis',(-5.8442833905689E-15,1.,2.34650750352494E-14));
#1199=DIRECTION('center_axis',(-1.15278086755055E-15,-2.34650750352494E-14,
1.));
#1200=DIRECTION('ref_axis',(-5.8442833905689E-15,1.,2.34650750352494E-14));
#1201=DIRECTION('',(-6.28663787694974E-15,1.,2.34650750352494E-14));
#1202=DIRECTION('center_axis',(-1.15278086755055E-15,-2.34650750352494E-14,
1.));
#1203=DIRECTION('ref_axis',(-5.84428339056887E-15,1.,-9.59831506504018E-16));
#1204=DIRECTION('center_axis',(-1.19614895444317E-15,-2.34650750352494E-14,
1.));
#1205=DIRECTION('ref_axis',(-5.8442833905689E-15,1.,2.34650750352494E-14));
#1206=DIRECTION('',(-1.19614895444317E-15,-2.34650750352494E-14,1.));
#1207=DIRECTION('center_axis',(-1.,-6.28663787694977E-15,1.06939990518699E-15));
#1208=DIRECTION('ref_axis',(1.06939990518714E-15,-2.34650750352495E-14,
1.));
#1209=DIRECTION('',(-4.2557842911944E-17,9.59831506504018E-16,1.));
#1210=DIRECTION('',(1.06939990518714E-15,-2.34650750352494E-14,1.));
#1211=DIRECTION('',(5.20150419841321E-15,-0.707106781186519,0.707106781186576));
#1212=DIRECTION('',(-4.2557842911944E-17,9.59831506504031E-16,1.));
#1213=DIRECTION('',(6.28663787694977E-15,-1.,-3.60294079857498E-17));
#1214=DIRECTION('center_axis',(-1.19614895444317E-15,-2.34650750352494E-14,
1.));
#1215=DIRECTION('ref_axis',(-5.8442833905689E-15,1.,2.34650750352494E-14));
#1216=DIRECTION('center_axis',(-1.,-5.84428339056887E-15,-1.15278086753686E-15));
#1217=DIRECTION('ref_axis',(-3.45420340910436E-15,0.707106781186553,-0.707106781186542));
#1218=DIRECTION('center_axis',(1.,6.28663787694977E-15,-1.13846302873334E-15));
#1219=DIRECTION('ref_axis',(-3.45420340910436E-15,0.707106781186553,-0.707106781186542));
#1220=DIRECTION('',(1.,5.84428339056887E-15,1.15278086753686E-15));
#1221=DIRECTION('center_axis',(-1.,-6.28663787694977E-15,1.06939990518699E-15));
#1222=DIRECTION('ref_axis',(-3.45420340910436E-15,0.707106781186553,-0.707106781186542));
#1223=DIRECTION('',(-1.,-5.84428339056887E-15,-1.15278086753686E-15));
#1224=DIRECTION('center_axis',(-1.,-6.28663787694977E-15,1.13846302873334E-15));
#1225=DIRECTION('ref_axis',(6.28663787694974E-15,-1.,-2.34468604387517E-14));
#1226=DIRECTION('',(5.84428339056899E-15,-1.,-1.03734884642883E-13));
#1227=DIRECTION('center_axis',(1.,6.28663787694977E-15,-1.13846302873334E-15));
#1228=DIRECTION('ref_axis',(5.02429586778799E-15,-0.707106781186544,-0.707106781186551));
#1229=DIRECTION('',(-1.1384630287334E-15,5.70150664124693E-15,-1.));
#1230=DIRECTION('',(-5.25033920140276E-15,0.707106781186519,-0.707106781186576));
#1231=DIRECTION('',(-2.9316826744008E-15,-1.77635683940025E-14,1.));
#1232=DIRECTION('',(1.13846302873349E-15,-2.34650750352494E-14,1.));
#1233=DIRECTION('',(-3.64030934590764E-15,0.707106781186517,0.707106781186578));
#1234=DIRECTION('',(1.13846302873379E-15,-8.82498538839839E-14,1.));
#1235=DIRECTION('center_axis',(1.,6.28663787694977E-15,-1.13846302873334E-15));
#1236=DIRECTION('ref_axis',(-2.23006587943222E-15,-1.,-2.34650750352495E-14));
#1237=DIRECTION('',(-1.13846302873349E-15,2.34650750352495E-14,-1.));
#1238=DIRECTION('',(-6.28663787694974E-15,1.,2.34650750352495E-14));
#1239=DIRECTION('',(1.13846302873349E-15,-2.34650750352495E-14,1.));
#1240=DIRECTION('',(-5.70377078902918E-15,1.,2.34650750352494E-14));
#1241=DIRECTION('',(2.90171926989277E-17,-1.,-2.34468604387517E-14));
#1242=DIRECTION('',(9.7671386162921E-14,1.12264702408779E-13,-1.));
#1243=DIRECTION('',(2.8379693797007E-11,1.,1.05279016067178E-14));
#1244=DIRECTION('',(-7.81419091252229E-11,-1.12264702409267E-13,1.));
#1245=DIRECTION('center_axis',(-1.15278086753693E-15,1.20620617528086E-14,
1.));
#1246=DIRECTION('ref_axis',(-4.6075071535871E-11,-1.,1.20620617527555E-14));
#1247=DIRECTION('',(5.84428339056899E-15,-1.,-1.03734884642883E-13));
#1248=DIRECTION('',(1.,5.84428339056887E-15,1.15278086753686E-15));
#1249=DIRECTION('center_axis',(1.,5.84428339056887E-15,1.15278086753686E-15));
#1250=DIRECTION('ref_axis',(5.02429586778799E-15,-0.707106781186544,-0.707106781186551));
#1251=DIRECTION('center_axis',(-1.,-6.28663787694977E-15,1.06939990518699E-15));
#1252=DIRECTION('ref_axis',(5.02429586778799E-15,-0.707106781186544,-0.707106781186551));
#1253=DIRECTION('',(-1.,-5.84428339056887E-15,-1.15278086753686E-15));
#1254=DIRECTION('center_axis',(-3.31739324798982E-15,0.707106781186578,
-0.707106781186517));
#1255=DIRECTION('ref_axis',(-1.,0.,4.69150252303234E-15));
#1256=DIRECTION('',(1.,5.84428339056888E-15,1.15278086753704E-15));
#1257=DIRECTION('center_axis',(3.31739324798982E-15,-0.707106781186578,
0.707106781186517));
#1258=DIRECTION('ref_axis',(-4.16262535596268E-15,0.707106781186517,0.707106781186578));
#1259=DIRECTION('',(-1.,-5.84428339056887E-15,-1.15278086753704E-15));
#1260=DIRECTION('center_axis',(4.2557842911944E-17,-9.59831506504031E-16,
-1.));
#1261=DIRECTION('ref_axis',(-5.84428339056887E-15,1.,-9.59831506504031E-16));
#1262=DIRECTION('center_axis',(-6.90631235463471E-17,-3.60294079857502E-17,
1.));
#1263=DIRECTION('ref_axis',(-5.84428339056887E-15,1.,-9.59831506504031E-16));
#1264=DIRECTION('',(-4.2557842911944E-17,9.59831506504031E-16,1.));
#1265=DIRECTION('center_axis',(4.94767158530479E-15,-0.707106781186576,
-0.707106781186519));
#1266=DIRECTION('ref_axis',(-1.,0.,-6.99706425810631E-15));
#1267=DIRECTION('',(-1.,-5.84428339056888E-15,-1.15278086753696E-15));
#1268=DIRECTION('',(1.,5.84428339056887E-15,1.15278086753696E-15));
#1269=DIRECTION('',(1.,5.84428339056888E-15,1.15278086753696E-15));
#1270=DIRECTION('center_axis',(-4.94767158530479E-15,0.707106781186576,
0.707106781186519));
#1271=DIRECTION('ref_axis',(-4.10243947733129E-15,0.707106781186519,-0.707106781186576));
#1272=DIRECTION('center_axis',(4.2557842911944E-17,-9.59831506504031E-16,
-1.));
#1273=DIRECTION('ref_axis',(-5.84428339056887E-15,1.,-9.59831506504031E-16));
#1274=DIRECTION('center_axis',(-1.15278086753693E-15,-5.39237168181866E-15,
1.));
#1275=DIRECTION('ref_axis',(-5.84428339056887E-15,1.,-9.59831506504031E-16));
#1276=DIRECTION('',(-4.2557842911944E-17,9.59831506504031E-16,1.));
#1277=DIRECTION('center_axis',(-6.90631235463471E-17,-3.60294079857502E-17,
1.));
#1278=DIRECTION('ref_axis',(-5.84428339056887E-15,1.,-9.59831506504031E-16));
#1279=DIRECTION('center_axis',(-1.15278086753693E-15,-5.39237168181866E-15,
1.));
#1280=DIRECTION('ref_axis',(-5.05151476202899E-15,-1.,-5.39237168181867E-15));
#1281=DIRECTION('',(6.28663787693991E-15,-1.,-5.39237168181865E-15));
#1282=DIRECTION('center_axis',(5.84428339056891E-15,-1.,-2.34650750352495E-14));
#1283=DIRECTION('ref_axis',(-1.26380317000147E-15,-2.34650750352495E-14,
1.));
#1284=DIRECTION('center_axis',(-5.84428339056891E-15,1.,2.34650750352495E-14));
#1285=DIRECTION('ref_axis',(1.26380317000147E-15,2.34650750352495E-14,-1.));
#1286=DIRECTION('center_axis',(-6.90631235463471E-17,-3.60294079857502E-17,
1.));
#1287=DIRECTION('ref_axis',(-5.84428339056887E-15,1.,3.60294079857502E-17));
#1288=DIRECTION('',(6.28663787693998E-15,-1.,-3.60294079857498E-17));
#1289=DIRECTION('center_axis',(1.,6.28663787693998E-15,-1.17483291741731E-14));
#1290=DIRECTION('ref_axis',(-1.17483291741733E-14,2.35440049534075E-14,
-1.));
#1291=DIRECTION('',(1.17483291741736E-14,-1.00788843338554E-13,1.));
#1292=DIRECTION('',(5.84428339056899E-15,-1.,-1.03734884642883E-13));
#1293=DIRECTION('',(1.17483291741733E-14,-2.34468604387538E-14,1.));
#1294=DIRECTION('',(-6.2866378769397E-15,1.,2.34468604387539E-14));
#1295=DIRECTION('',(-1.17483291741733E-14,2.34468604387538E-14,-1.));
#1296=DIRECTION('',(6.28663787694067E-15,-1.,5.9135856969001E-14));
#1297=DIRECTION('',(-1.15278086753649E-15,-1.0373008777852E-13,1.));
#1298=DIRECTION('',(6.28663787693998E-15,-1.,-3.60294079857498E-17));
#1299=DIRECTION('center_axis',(-1.,-6.28663787693998E-15,1.17483291741731E-14));
#1300=DIRECTION('ref_axis',(-4.66062761766275E-16,2.34468604387517E-14,
-1.));
#1301=DIRECTION('center_axis',(5.8442833905689E-15,-1.,-2.34650750352495E-14));
#1302=DIRECTION('ref_axis',(-1.15278086753696E-15,-2.34650750352495E-14,
1.));
#1303=DIRECTION('',(1.06939990518714E-15,-2.34650750352495E-14,1.));
#1304=DIRECTION('',(-1.,2.73645956319218E-15,1.47053451827968E-14));
#1305=DIRECTION('center_axis',(-5.8442833905689E-15,1.,2.34650750352495E-14));
#1306=DIRECTION('ref_axis',(1.15278086753696E-15,2.34650750352495E-14,-1.));
#1307=DIRECTION('',(-1.,-5.8442833905689E-15,-6.90631235463473E-17));
#1308=DIRECTION('',(1.,-2.73645956319237E-15,-1.47053451827968E-14));
#1309=DIRECTION('',(-1.06939990518744E-15,8.82498538839839E-14,-1.));
#1310=DIRECTION('center_axis',(1.47053451827968E-14,5.91358569690011E-14,
1.));
#1311=DIRECTION('ref_axis',(-5.64172195187213E-11,-1.,5.91358569698307E-14));
#1312=DIRECTION('',(5.84428339056899E-15,-1.,-1.03734884642883E-13));
#1313=DIRECTION('',(1.,6.2883726004422E-15,-1.47053451827972E-14));
#1314=DIRECTION('center_axis',(-1.,-6.28663787694977E-15,1.06939990518699E-15));
#1315=DIRECTION('ref_axis',(1.06939990518714E-15,-2.34650750352495E-14,
1.));
#1316=DIRECTION('',(-6.28663787694983E-15,1.,-5.9135856969001E-14));
#1317=DIRECTION('',(1.06939990518714E-15,-2.34468604387517E-14,1.));
#1318=DIRECTION('',(-6.28663787694974E-15,1.,2.34468604387517E-14));
#1319=DIRECTION('',(-1.06939990518714E-15,2.34468604387517E-14,-1.));
#1320=DIRECTION('center_axis',(1.47053451827968E-14,5.91358569690011E-14,
1.));
#1321=DIRECTION('ref_axis',(-5.64172195187213E-11,-1.,5.91358569698307E-14));
#1322=DIRECTION('',(-1.,-6.2883726004422E-15,1.47053451827972E-14));
#1323=DIRECTION('center_axis',(-6.90631235463471E-17,-3.60294079857502E-17,
1.));
#1324=DIRECTION('ref_axis',(-5.84428339056887E-15,1.,3.60294079857502E-17));
#1325=DIRECTION('center_axis',(1.15278086753696E-15,2.34650750352495E-14,
-1.));
#1326=DIRECTION('ref_axis',(5.8442833905689E-15,-1.,-2.34650750352495E-14));
#1327=DIRECTION('',(-1.,-5.26141630264836E-15,1.1384630287335E-15));
#1328=DIRECTION('',(5.26141630264834E-15,-1.,-2.34650750352494E-14));
#1329=DIRECTION('',(1.,-1.16573417584112E-15,-1.36642833800022E-15));
#1330=DIRECTION('center_axis',(1.15278086753696E-15,2.34650750352495E-14,
-1.));
#1331=DIRECTION('ref_axis',(5.8442833905689E-15,-1.,-2.34650750352495E-14));
#1332=DIRECTION('',(1.,5.84428339056887E-15,1.1527808675371E-15));
#1333=DIRECTION('',(-1.,-5.84428339056887E-15,-1.1527808675371E-15));
#1334=DIRECTION('',(-5.0410323318158E-16,1.,2.34650750352495E-14));
#1335=DIRECTION('center_axis',(-5.8442833905689E-15,1.,2.34650750352495E-14));
#1336=DIRECTION('ref_axis',(1.15278086753696E-15,2.34650750352495E-14,-1.));
#1337=DIRECTION('',(1.15278086753696E-15,2.34650750352495E-14,-1.));
#1338=DIRECTION('center_axis',(1.,5.84428339056887E-15,1.1527808675371E-15));
#1339=DIRECTION('ref_axis',(5.8442833905689E-15,-1.,-2.34650750352495E-14));
#1340=DIRECTION('',(1.,5.84428339056887E-15,1.1527808675371E-15));
#1341=DIRECTION('center_axis',(1.,-2.23006587943224E-15,1.15278086753691E-15));
#1342=DIRECTION('ref_axis',(-2.23006587943222E-15,-1.,-2.34650750352495E-14));
#1343=DIRECTION('',(1.,-2.23006587943224E-15,1.15278086753691E-15));
#1344=DIRECTION('center_axis',(1.,-5.82867087920559E-16,-1.43967115202835E-29));
#1345=DIRECTION('ref_axis',(-5.8286708792056E-16,-1.,-2.34650750352495E-14));
#1346=DIRECTION('center_axis',(-1.,5.82867087920559E-16,1.43967115202835E-29));
#1347=DIRECTION('ref_axis',(-5.82867087920559E-16,-1.,-2.34650750352495E-14));
#1348=DIRECTION('center_axis',(-5.8442833905689E-15,1.,2.34650750352495E-14));
#1349=DIRECTION('ref_axis',(1.15278086753696E-15,2.34650750352495E-14,-1.));
#1350=DIRECTION('',(1.13846302873349E-15,-2.34650750352495E-14,1.));
#1351=DIRECTION('center_axis',(-1.,-5.04103233181607E-16,1.13846302873348E-15));
#1352=DIRECTION('ref_axis',(5.04103233181607E-16,-1.,2.58154072724178E-30));
#1353=DIRECTION('center_axis',(4.2557842911944E-17,-9.59831506504018E-16,
-1.));
#1354=DIRECTION('ref_axis',(-5.84428339056887E-15,1.,-9.59831506504018E-16));
#1355=DIRECTION('center_axis',(4.25578429119448E-17,-9.59831506504015E-16,
-1.));
#1356=DIRECTION('ref_axis',(-5.84428339056887E-15,1.,-9.59831506504015E-16));
#1357=DIRECTION('center_axis',(-6.31612817603507E-15,1.,2.34468604387517E-14));
#1358=DIRECTION('ref_axis',(3.00271205997484E-15,2.34468604387518E-14,-1.));
#1359=DIRECTION('',(1.,6.316128176035E-15,3.00271205997499E-15));
#1360=DIRECTION('',(-1.,-6.31612817603508E-15,4.07838914453728E-16));
#1361=DIRECTION('center_axis',(-3.00271205997484E-15,-2.34468604387518E-14,
1.));
#1362=DIRECTION('ref_axis',(-6.31612817603507E-15,1.,2.34468604387517E-14));
#1363=DIRECTION('',(-1.,-6.316128176035E-15,-3.00271205997499E-15));
#1364=DIRECTION('center_axis',(6.31612817603507E-15,-1.,-2.34468604387517E-14));
#1365=DIRECTION('ref_axis',(-3.00271205997484E-15,-2.34468604387518E-14,
1.));
#1366=DIRECTION('',(1.,8.88178419700125E-15,-1.11022302462516E-14));
#1367=DIRECTION('center_axis',(-1.,-5.13478148921267E-16,4.66062761766263E-16));
#1368=DIRECTION('ref_axis',(-4.66062761766275E-16,2.34468604387517E-14,
-1.));
#1369=DIRECTION('',(-1.,-5.13478148921267E-16,4.66062761766263E-16));
#1370=DIRECTION('center_axis',(4.07838914453876E-16,-2.34468604387539E-14,
1.));
#1371=DIRECTION('ref_axis',(6.28663787694105E-15,-1.,-2.34468604387539E-14));
#1372=CARTESIAN_POINT('',(0.,0.,0.));
#1373=CARTESIAN_POINT('Origin',(-0.240504400125925,105.321620923906,-21.2317286942245));
#1374=CARTESIAN_POINT('',(-0.240592800216039,103.349254844205,-21.2858163354021));
#1375=CARTESIAN_POINT('',(-2.25402820141979,104.43539355765,-21.8351930458608));
#1376=CARTESIAN_POINT('Ctrl Pts',(-0.240592800216039,103.349254844205,-21.2858163354021));
#1377=CARTESIAN_POINT('Ctrl Pts',(-0.597863603702186,103.349268614791,-21.2858217481809));
#1378=CARTESIAN_POINT('Ctrl Pts',(-0.968795063142065,103.438282514468,-21.3188650814631));
#1379=CARTESIAN_POINT('Ctrl Pts',(-1.6219755013722,103.768241211266,-21.4649781549285));
#1380=CARTESIAN_POINT('Ctrl Pts',(-1.9038113541068,104.008583106608,-21.5812421859504));
#1381=CARTESIAN_POINT('Ctrl Pts',(-2.16427055728385,104.316123994047,-21.7614440101389));
#1382=CARTESIAN_POINT('Ctrl Pts',(-2.21060823157152,104.375519433032,-21.7974839553356));
#1383=CARTESIAN_POINT('Ctrl Pts',(-2.25402443050407,104.43539021268,-21.8351909444682));
#1384=CARTESIAN_POINT('',(-2.44042889442468,105.321620923906,-21.835190941374));
#1385=CARTESIAN_POINT('Origin',(-0.240504400125924,105.321620923906,-21.835190941374));
#1386=CARTESIAN_POINT('',(-0.240592800216392,107.521545416429,-21.835190941374));
#1387=CARTESIAN_POINT('Origin',(-0.240504400125924,105.321620923906,-21.835190941374));
#1388=CARTESIAN_POINT('',(-0.240592800216347,107.021620921608,-20.628266447075));
#1389=CARTESIAN_POINT('Ctrl Pts',(-0.240592800216392,107.521545416429,-21.835190941374));
#1390=CARTESIAN_POINT('Ctrl Pts',(-0.240592800216391,107.367617727128,-21.4635766265397));
#1391=CARTESIAN_POINT('Ctrl Pts',(-0.240592800216348,107.12148847941,-20.869368059236));
#1392=CARTESIAN_POINT('Ctrl Pts',(-0.240592800216347,107.021620921608,-20.628266447075));
#1393=CARTESIAN_POINT('',(-0.240592800216061,103.621620926205,-20.628266447075));
#1394=CARTESIAN_POINT('Origin',(-0.240504400125925,105.321620923906,-20.628266447075));
#1395=CARTESIAN_POINT('Ctrl Pts',(-0.240592800216061,103.621620926205,-20.628266447075));
#1396=CARTESIAN_POINT('Ctrl Pts',(-0.240592800215802,103.495538087751,-20.9326573452408));
#1397=CARTESIAN_POINT('Ctrl Pts',(-0.240592800216039,103.349254844205,-21.2858163354021));
#1398=CARTESIAN_POINT('Origin',(1.95949999996276,100.971408476929,-27.335266447076));
#1399=CARTESIAN_POINT('',(-2.440509000037,97.5073068617928,-21.8352664470751));
#1400=CARTESIAN_POINT('',(-2.25402820141929,97.5074233962086,-21.8351930458608));
#1401=CARTESIAN_POINT('',(1.95949999996275,97.5073068617928,-21.8352664470753));
#1402=CARTESIAN_POINT('',(-2.440509000037,104.435510092066,-21.8352664470751));
#1403=CARTESIAN_POINT('Origin',(-2.440509000037,100.971408476929,-27.3352664470758));
#1404=CARTESIAN_POINT('',(1.95949999996275,104.435510092066,-21.8352664470753));
#1405=CARTESIAN_POINT('',(-0.240592800216039,98.5935621096527,-21.2858163354023));
#1406=CARTESIAN_POINT('Origin',(-0.240592800216045,100.971408476929,-27.335266447076));
#1407=CARTESIAN_POINT('Ctrl Pts',(-2.25402443050361,97.5074267411788,-21.8351909444682));
#1408=CARTESIAN_POINT('Ctrl Pts',(-2.21060823157115,97.5672975208265,-21.7974839553357));
#1409=CARTESIAN_POINT('Ctrl Pts',(-2.16427055728359,97.6266929598118,-21.761444010139));
#1410=CARTESIAN_POINT('Ctrl Pts',(-1.90381135410665,97.9342338472505,-21.5812421859507));
#1411=CARTESIAN_POINT('Ctrl Pts',(-1.62197550137203,98.1745757425923,-21.4649781549288));
#1412=CARTESIAN_POINT('Ctrl Pts',(-0.968795063141949,98.5045344393896,-21.3188650814634));
#1413=CARTESIAN_POINT('Ctrl Pts',(-0.597863603702127,98.5935483390676,-21.2858217481812));
#1414=CARTESIAN_POINT('Ctrl Pts',(-0.240592800216039,98.5935621096527,-21.2858163354023));
#1415=CARTESIAN_POINT('Origin',(-0.240592800216355,100.971408476929,-25.5852664470755));
#1416=CARTESIAN_POINT('',(-0.24059280021581,103.621620926184,-19.8352664470748));
#1417=CARTESIAN_POINT('',(-0.240592800216061,103.621620926205,-20.8352664470748));
#1418=CARTESIAN_POINT('',(-0.240592800216283,102.82162092547,-19.8352664470749));
#1419=CARTESIAN_POINT('',(-0.240592800216349,100.971408476929,-19.835266447075));
#1420=CARTESIAN_POINT('',(-0.240592800216274,102.821620925478,-10.835266447075));
#1421=CARTESIAN_POINT('',(-0.240592800216274,102.82162092547,-10.8352664470749));
#1422=CARTESIAN_POINT('',(-0.240592800216316,103.82162092652,-10.8352664470749));
#1423=CARTESIAN_POINT('',(-0.240592800216359,104.118014700422,-10.8352664470751));
#1424=CARTESIAN_POINT('',(-0.240592800216314,103.82162092652,-8.83526644707484));
#1425=CARTESIAN_POINT('',(-0.240592800216316,103.82162092652,-10.8352664470749));
#1426=CARTESIAN_POINT('',(-0.240592800216254,98.1211960273555,-8.83526644707498));
#1427=CARTESIAN_POINT('',(-0.240592800216386,107.719424646796,-8.83526644707541));
#1428=CARTESIAN_POINT('',(-0.240592800216256,98.1211960273555,-10.835266447075));
#1429=CARTESIAN_POINT('',(-0.240592800216256,98.1211960273555,-10.835266447075));
#1430=CARTESIAN_POINT('',(-0.240592800216262,99.1211960283974,-10.835266447075));
#1431=CARTESIAN_POINT('',(-0.240592800216319,97.8248022534443,-10.8352664470753));
#1432=CARTESIAN_POINT('',(-0.24059280021627,99.1211960283891,-19.8352664470747));
#1433=CARTESIAN_POINT('',(-0.240592800216262,99.1211960283891,-10.8352664470748));
#1434=CARTESIAN_POINT('',(-0.24059280021576,98.3211960276737,-19.8352664470747));
#1435=CARTESIAN_POINT('',(-0.240592800216349,100.971408476929,-19.835266447075));
#1436=CARTESIAN_POINT('',(-0.240592800216009,98.3211960276533,-20.628266447075));
#1437=CARTESIAN_POINT('',(-0.240592800216009,98.3211960276533,-20.8352664470747));
#1438=CARTESIAN_POINT('Ctrl Pts',(-0.240592800216039,98.5935621096527,-21.2858163354023));
#1439=CARTESIAN_POINT('Ctrl Pts',(-0.240592800216002,98.4472788661014,-20.9326573452275));
#1440=CARTESIAN_POINT('Ctrl Pts',(-0.240592800216009,98.3211960276533,-20.628266447075));
#1441=CARTESIAN_POINT('',(-0.240592800215431,102.671408476928,-17.5102664470749));
#1442=CARTESIAN_POINT('Origin',(-0.240592800216056,100.971408476928,-17.5102664470749));
#1443=CARTESIAN_POINT('Origin',(-0.2405044001258,96.6211960299517,-21.2317286942245));
#1444=CARTESIAN_POINT('',(-0.240592800216246,94.9211960322501,-20.628266447075));
#1445=CARTESIAN_POINT('',(-0.24059280021631,94.421271537429,-21.8351909413741));
#1446=CARTESIAN_POINT('Ctrl Pts',(-0.240592800216246,94.9211960322501,-20.628266447075));
#1447=CARTESIAN_POINT('Ctrl Pts',(-0.240592800216305,94.7032760077823,-21.1543719249445));
#1448=CARTESIAN_POINT('Ctrl Pts',(-0.24059280021631,94.421271537428,-21.8351909413746));
#1449=CARTESIAN_POINT('',(-2.44042889442458,96.6211960299516,-21.835190941374));
#1450=CARTESIAN_POINT('Origin',(-0.2405044001258,96.6211960299517,-21.835190941374));
#1451=CARTESIAN_POINT('Origin',(-0.2405044001258,96.6211960299517,-21.835190941374));
#1452=CARTESIAN_POINT('Origin',(-0.240504400125801,96.6211960299517,-20.628266447075));
#1453=CARTESIAN_POINT('Origin',(-0.240504400125801,96.6211960299517,-20.8352664470747));
#1454=CARTESIAN_POINT('',(-0.240592800215743,94.9211960322296,-19.8352664470747));
#1455=CARTESIAN_POINT('Origin',(-0.240504400125802,96.6211960299517,-19.8352664470748));
#1456=CARTESIAN_POINT('',(-0.240592800216246,94.9211960322501,-20.8352664470747));
#1457=CARTESIAN_POINT('Origin',(-0.240592949399971,100.971408476928,-21.8352664470753));
#1458=CARTESIAN_POINT('',(-2.4405088002166,100.953811992097,-21.8352664470747));
#1459=CARTESIAN_POINT('Origin',(-0.240592949399971,100.971408476928,-21.8352664470753));
#1460=CARTESIAN_POINT('',(-2.4405088002166,100.953811992097,-21.8352664470747));
#1461=CARTESIAN_POINT('Origin',(-0.240504400125925,105.321620923906,-20.8352664470748));
#1462=CARTESIAN_POINT('',(-0.240592800215828,107.021620921628,-19.8352664470748));
#1463=CARTESIAN_POINT('',(-0.240592800216347,107.021620921608,-20.8352664470748));
#1464=CARTESIAN_POINT('Origin',(-0.240504400125926,105.321620923906,-19.8352664470748));
#1465=CARTESIAN_POINT('Origin',(-1.49050440012561,107.264620923915,-10.835266447075));
#1466=CARTESIAN_POINT('',(-0.240592800216335,106.82162092131,-10.8352664470748));
#1467=CARTESIAN_POINT('Origin',(-0.240504400125552,105.321620923915,-10.8352664470748));
#1468=CARTESIAN_POINT('',(-0.240592800216306,107.821620922352,-10.8352664470748));
#1469=CARTESIAN_POINT('Origin',(-0.240504400126085,105.321620923907,-10.8352664470749));
#1470=CARTESIAN_POINT('',(-0.240592800216359,104.118014700422,-10.8352664470751));
#1471=CARTESIAN_POINT('Origin',(-3.84050880021616,100.971408476928,-17.5102664470749));
#1472=CARTESIAN_POINT('',(-3.84050880021614,102.671408476928,-17.5102664470748));
#1473=CARTESIAN_POINT('Origin',(-3.84050880021616,100.971408476928,-17.5102664470751));
#1474=CARTESIAN_POINT('Origin',(-4.0405088002164,100.971408476929,-27.3352664470762));
#1475=CARTESIAN_POINT('',(-4.04050880021641,100.971408476929,-25.8352664470763));
#1476=CARTESIAN_POINT('Origin',(-4.0405088002164,100.971408476929,-27.3352664470763));
#1477=CARTESIAN_POINT('Origin',(-0.240592949399723,100.971408476928,-19.835266447075));
#1478=CARTESIAN_POINT('',(-0.240592800215733,94.1211960315146,-19.8352664470744));
#1479=CARTESIAN_POINT('Origin',(-0.240504400125996,96.621196029952,-19.8352664470747));
#1480=CARTESIAN_POINT('',(-0.240592800216349,100.971408476929,-19.835266447075));
#1481=CARTESIAN_POINT('Origin',(-0.240592949399723,100.971408476928,-19.835266447075));
#1482=CARTESIAN_POINT('',(-0.240592800215822,107.821620922343,-19.8352664470746));
#1483=CARTESIAN_POINT('Origin',(-0.240504400126067,105.321620923907,-19.8352664470749));
#1484=CARTESIAN_POINT('',(-0.240592800216349,100.971408476929,-19.835266447075));
#1485=CARTESIAN_POINT('Origin',(-0.240592800216355,100.971408476929,-25.5852664470755));
#1486=CARTESIAN_POINT('',(-0.240592800216404,109.476363922152,-21.8352664470753));
#1487=CARTESIAN_POINT('',(-0.240592800216351,100.971408476929,-21.8352664470753));
#1488=CARTESIAN_POINT('',(-0.240592800216392,109.47636392214,-25.7949420854258));
#1489=CARTESIAN_POINT('',(-0.240592800216393,109.47636392214,-10.835266447075));
#1490=CARTESIAN_POINT('',(-0.240592800216176,112.436215476929,-22.8350905306365));
#1491=CARTESIAN_POINT('',(-0.240592800216398,107.63246974782,-27.6388362597465));
#1492=CARTESIAN_POINT('',(-0.240592800215917,112.436215476929,-8.83526644707476));
#1493=CARTESIAN_POINT('',(-0.240592800215911,112.436215476929,-10.8352664470748));
#1494=CARTESIAN_POINT('',(-0.240592800216333,106.82162092131,-8.83526644707477));
#1495=CARTESIAN_POINT('',(-0.240592800216386,107.719424646796,-8.83526644707541));
#1496=CARTESIAN_POINT('',(-0.240592800216335,106.82162092131,-10.8352664470748));
#1497=CARTESIAN_POINT('',(-0.240592800216306,107.821620922344,-10.8352664470749));
#1498=CARTESIAN_POINT('Origin',(34.4414911997833,114.467440816664,-8.83526644707518));
#1499=CARTESIAN_POINT('Origin',(-0.240504400125552,105.321620923915,-8.8352664470748));
#1500=CARTESIAN_POINT('',(-6.34050880021566,112.436215476929,-8.83526644707469));
#1501=CARTESIAN_POINT('',(13.5004911997838,112.436215476929,-8.83526644707511));
#1502=CARTESIAN_POINT('',(-6.34050880021555,89.4362154769289,-8.83526644707504));
#1503=CARTESIAN_POINT('',(-6.34050880021566,112.264620476929,-8.83526644707469));
#1504=CARTESIAN_POINT('',(-0.240592800215792,89.4362154769289,-8.83526644707511));
#1505=CARTESIAN_POINT('',(13.5004911997839,89.4362154769287,-8.83526644707547));
#1506=CARTESIAN_POINT('',(-0.240592800216235,95.1211960325652,-8.83526644707505));
#1507=CARTESIAN_POINT('',(-0.240592800216386,107.719424646796,-8.83526644707541));
#1508=CARTESIAN_POINT('Origin',(-0.24050440012541,96.6211960299603,-8.83526644707501));
#1509=CARTESIAN_POINT('Origin',(-1.49050440012546,94.6781960299604,-10.8352664470753));
#1510=CARTESIAN_POINT('',(-0.240592800216237,95.1211960325652,-10.8352664470751));
#1511=CARTESIAN_POINT('Origin',(-0.24050440012541,96.6211960299604,-10.835266447075));
#1512=CARTESIAN_POINT('',(-0.240592800216231,94.1211960315233,-10.8352664470751));
#1513=CARTESIAN_POINT('',(-0.240592800216319,97.8248022534443,-10.8352664470753));
#1514=CARTESIAN_POINT('Origin',(-0.240504400125996,96.621196029952,-10.835266447075));
#1515=CARTESIAN_POINT('Origin',(-0.24050440012541,96.6211960299604,-10.835266447075));
#1516=CARTESIAN_POINT('',(-0.240592800216237,95.1211960325652,-10.8352664470751));
#1517=CARTESIAN_POINT('Origin',(-0.240592800216355,100.971408476929,-25.5852664470755));
#1518=CARTESIAN_POINT('',(-0.240592800216231,94.1211960315149,-10.8352664470748));
#1519=CARTESIAN_POINT('',(-0.240592800216042,89.4362154769289,-22.8350905306371));
#1520=CARTESIAN_POINT('',(-0.240592800216053,89.4362154769291,-32.7987664470756));
#1521=CARTESIAN_POINT('',(-0.240592800216285,92.4664530317186,-25.8653280854267));
#1522=CARTESIAN_POINT('',(-0.240592800216315,94.2575577060384,-27.6564327597466));
#1523=CARTESIAN_POINT('',(-0.240592800216297,92.4664530317069,-21.8352664470753));
#1524=CARTESIAN_POINT('',(-0.240592800216286,92.4664530317186,-10.835266447075));
#1525=CARTESIAN_POINT('',(-0.240592800216351,100.971408476929,-21.8352664470753));
#1526=CARTESIAN_POINT('Origin',(-0.240504400125552,105.321620923915,-10.8352664470748));
#1527=CARTESIAN_POINT('Origin',(-6.34050880006094,102.436215507268,-35.335090530637));
#1528=CARTESIAN_POINT('',(-6.34050880041059,102.436215507268,-40.3350905306361));
#1529=CARTESIAN_POINT('',(-6.34050880021587,107.436215507268,-35.3350905306369));
#1530=CARTESIAN_POINT('Origin',(-6.34050880021655,102.436215507268,-35.335090530637));
#1531=CARTESIAN_POINT('',(-0.240592800215668,107.436215507268,-35.3350905306369));
#1532=CARTESIAN_POINT('',(-6.34050880006097,107.436215507268,-35.3350905306369));
#1533=CARTESIAN_POINT('',(-0.240592800216126,102.436215507268,-40.3350905306361));
#1534=CARTESIAN_POINT('Origin',(-0.240592800216353,102.436215507268,-35.335090530637));
#1535=CARTESIAN_POINT('',(-6.34050880006093,102.436215507268,-40.335090530637));
#1536=CARTESIAN_POINT('Origin',(-6.34050880021655,100.971408476968,-30.3352664470761));
#1537=CARTESIAN_POINT('',(-6.34050880041057,99.4362155072677,-40.3350905306364));
#1538=CARTESIAN_POINT('',(-6.34050880041055,95.9362155072683,-40.3350905306367));
#1539=CARTESIAN_POINT('',(-6.34050880021605,94.4362155072677,-35.3350905306371));
#1540=CARTESIAN_POINT('Origin',(-6.34050880021653,99.4362155072677,-35.335090530637));
#1541=CARTESIAN_POINT('',(-6.34050880029303,94.4362155072677,-27.8350905306367));
#1542=CARTESIAN_POINT('',(-6.34050880021604,94.4362155072677,-32.5851784888562));
#1543=CARTESIAN_POINT('',(-6.34050880021624,89.4362154769289,-22.8350905306371));
#1544=CARTESIAN_POINT('',(-6.34050880021651,95.4450577060484,-28.8439327597567));
#1545=CARTESIAN_POINT('',(-6.34050880021555,89.4362154769289,-10.835266447075));
#1546=CARTESIAN_POINT('',(-6.34050880021636,112.436215476929,-22.8350905306365));
#1547=CARTESIAN_POINT('',(-6.34050880021636,112.436215476929,-26.5761970591355));
#1548=CARTESIAN_POINT('',(-6.34050880029299,107.436215507268,-27.8350905306362));
#1549=CARTESIAN_POINT('',(-6.34050880021658,106.444969747829,-28.8263362597369));
#1550=CARTESIAN_POINT('',(-6.34050880021586,107.436215507268,-32.5851784888557));
#1551=CARTESIAN_POINT('',(-6.34050880021656,104.021408476929,-17.5102664470752));
#1552=CARTESIAN_POINT('Origin',(-6.34050880021656,100.971408476929,-17.5102664470753));
#1553=CARTESIAN_POINT('',(-6.34050880021578,98.1214084769296,-24.3852664470755));
#1554=CARTESIAN_POINT('',(-6.34050880021604,98.1214084769292,-30.2852664470757));
#1555=CARTESIAN_POINT('',(-6.34050880021653,98.1214084769292,-30.210266447076));
#1556=CARTESIAN_POINT('',(-6.34050880021608,103.821408476929,-30.2852664470757));
#1557=CARTESIAN_POINT('',(-6.34050880021656,102.346408476949,-30.2852664470756));
#1558=CARTESIAN_POINT('',(-6.34050880021581,103.82140847693,-24.3852664470756));
#1559=CARTESIAN_POINT('',(-6.34050880021657,103.821408476929,-30.2102664470758));
#1560=CARTESIAN_POINT('',(-6.34050880021631,102.346408476949,-24.3852664470757));
#1561=CARTESIAN_POINT('',(-6.34050880029418,102.936215507268,-34.8350905306376));
#1562=CARTESIAN_POINT('',(-6.3405088002942,98.9362155072681,-34.8350905306376));
#1563=CARTESIAN_POINT('',(-6.34050880029439,103.686215507268,-34.8350905306378));
#1564=CARTESIAN_POINT('',(-6.34050880029394,98.9362155072684,-37.3350905306371));
#1565=CARTESIAN_POINT('',(-6.3405088002942,98.9362155072681,-34.8350905306376));
#1566=CARTESIAN_POINT('',(-6.34050880013786,102.936215507268,-37.3350905306371));
#1567=CARTESIAN_POINT('',(-6.34050880029414,98.1862155072682,-37.3350905306374));
#1568=CARTESIAN_POINT('',(-6.3405088001379,102.936215507268,-36.8350905306373));
#1569=CARTESIAN_POINT('Origin',(-6.34050879995007,105.936215507268,-40.335090530637));
#1570=CARTESIAN_POINT('',(-0.240592800216109,99.4362155072677,-40.3350905306364));
#1571=CARTESIAN_POINT('',(-0.240592800216088,95.9362155072683,-40.3350905306367));
#1572=CARTESIAN_POINT('',(-6.34050880018006,99.4362155072677,-40.335090530637));
#1573=CARTESIAN_POINT('Origin',(-6.34050880018006,99.4362155072677,-35.335090530637));
#1574=CARTESIAN_POINT('',(-0.240592800216324,94.4362155072677,-35.3350905306371));
#1575=CARTESIAN_POINT('Origin',(-0.240592800216335,99.4362155072677,-35.3350905306369));
#1576=CARTESIAN_POINT('',(-6.34050880018004,94.4362155072677,-35.3350905306371));
#1577=CARTESIAN_POINT('Origin',(-6.89050880025477,109.936215476929,-25.3350905306367));
#1578=CARTESIAN_POINT('',(-6.89050880025479,112.436215476929,-22.8350905306365));
#1579=CARTESIAN_POINT('',(-2.4455809060621,107.436215507268,-27.8350905306368));
#1580=CARTESIAN_POINT('Origin',(-0.240504400126173,107.264620923907,-28.0066850836594));
#1581=CARTESIAN_POINT('',(-6.34050880023277,107.436215507268,-27.8350905306368));
#1582=CARTESIAN_POINT('Origin',(-0.240504400126174,107.264620923907,-10.835266447075));
#1583=CARTESIAN_POINT('',(-2.44558090606211,107.436215507268,-21.8352664470753));
#1584=CARTESIAN_POINT('Origin',(-0.240504400126173,107.264620923907,-21.8352664470753));
#1585=CARTESIAN_POINT('',(-2.44558090605747,107.436215507268,-10.835266447075));
#1586=CARTESIAN_POINT('Origin',(-6.89050880025475,91.9362154769291,-25.3350905306372));
#1587=CARTESIAN_POINT('',(-6.89050880025474,89.4362154769292,-22.8350905306371));
#1588=CARTESIAN_POINT('',(-2.44050880021588,94.4362155072673,-27.8350905306372));
#1589=CARTESIAN_POINT('',(-6.34050880035191,94.4362155072675,-27.8350905306373));
#1590=CARTESIAN_POINT('',(-2.43897034482651,94.436215476929,-27.8350905306372));
#1591=CARTESIAN_POINT('',(-6.89050880025476,94.436215476929,-27.8350905306373));
#1592=CARTESIAN_POINT('Origin',(-0.240504400126049,94.678196029952,-28.0770710836603));
#1593=CARTESIAN_POINT('Origin',(-0.240504400126049,94.678196029952,-10.835266447075));
#1594=CARTESIAN_POINT('',(-2.44050880021663,94.4506268368896,-27.8350905306372));
#1595=CARTESIAN_POINT('Origin',(-0.240504400126049,94.678196029952,-27.8350905306372));
#1596=CARTESIAN_POINT('',(-2.44050880021656,94.4506268368889,-21.8352664470747));
#1597=CARTESIAN_POINT('',(-2.44050880021643,94.4506268368877,-10.835266447075));
#1598=CARTESIAN_POINT('Origin',(-0.240504400126049,94.678196029952,-21.8352664470753));
#1599=CARTESIAN_POINT('Origin',(-6.34050880029376,95.9362155072677,-27.8350905306372));
#1600=CARTESIAN_POINT('',(-2.44050880021666,98.4362155072668,-27.8350905306372));
#1601=CARTESIAN_POINT('Origin',(-7.44050880021573,89.4362154769296,-40.0122664470757));
#1602=CARTESIAN_POINT('Origin',(-7.44050880021586,112.436215476929,-22.8171276711954));
#1603=CARTESIAN_POINT('Origin',(-0.240592949399971,100.971408476928,-21.8352664470753));
#1604=CARTESIAN_POINT('',(-2.4405088002166,100.953811992097,-21.8352664470747));
#1605=CARTESIAN_POINT('Origin',(-2.44050880021666,100.936215507266,-26.7647248189256));
#1606=CARTESIAN_POINT('',(-2.44050880021572,94.4362155072678,-34.8352664470762));
#1607=CARTESIAN_POINT('',(-2.44050880021595,94.4362155072676,-33.549907674781));
#1608=CARTESIAN_POINT('',(-2.44050880021646,98.936215507268,-34.8352664470767));
#1609=CARTESIAN_POINT('',(-2.44050880021621,95.9362155072678,-34.8352664470765));
#1610=CARTESIAN_POINT('',(-2.44050880021646,98.9362155072683,-34.8350905306379));
#1611=CARTESIAN_POINT('',(-2.44050880021645,98.936215507268,-34.5864076747815));
#1612=CARTESIAN_POINT('',(-2.44050880021647,102.936215507269,-34.8350905306377));
#1613=CARTESIAN_POINT('',(-2.44050880021678,104.686215507267,-34.8350905306381));
#1614=CARTESIAN_POINT('',(-2.44050880021647,102.936215507268,-34.8352664470771));
#1615=CARTESIAN_POINT('',(-2.44050880021649,102.936215507268,-37.0864076747815));
#1616=CARTESIAN_POINT('',(-2.44050880021604,107.436215507268,-34.8352664470769));
#1617=CARTESIAN_POINT('',(-2.44050880021679,106.883827660968,-34.8352664470777));
#1618=CARTESIAN_POINT('',(-2.44050880021579,107.436215507266,-21.8352664470753));
#1619=CARTESIAN_POINT('',(-2.44050880021577,107.436215507268,-34.8350905306362));
#1620=CARTESIAN_POINT('',(-2.4405088002166,100.953811992097,-21.8352664470747));
#1621=CARTESIAN_POINT('',(-2.44050880021666,100.971408476929,-25.8352664470763));
#1622=CARTESIAN_POINT('Origin',(-2.44050880021666,100.971408476929,-27.3352664470763));
#1623=CARTESIAN_POINT('Origin',(-6.34050880041006,94.4362155072678,-40.3350905306364));
#1624=CARTESIAN_POINT('',(-0.240592800215573,94.4362155072677,-34.8352664470765));
#1625=CARTESIAN_POINT('',(-0.240592800216322,94.4362155072677,-32.960178488856));
#1626=CARTESIAN_POINT('',(-5.3905088003129,94.4362155072677,-34.8352664470764));
#1627=CARTESIAN_POINT('Origin',(-6.34050880017185,107.436215507268,-34.8350905306364));
#1628=CARTESIAN_POINT('',(-3.29055087478593,107.436215507268,-21.8352664470753));
#1629=CARTESIAN_POINT('',(-0.240592800215644,107.436215507268,-34.8352664470769));
#1630=CARTESIAN_POINT('',(-5.39050880019385,107.436215507268,-34.8352664470769));
#1631=CARTESIAN_POINT('',(-0.240592800215662,107.436215507267,-30.2101784888553));
#1632=CARTESIAN_POINT('Origin',(-4.44050880021658,112.831439814671,-34.835266447078));
#1633=CARTESIAN_POINT('',(-0.240592800216352,98.936215507268,-34.8352664470767));
#1634=CARTESIAN_POINT('',(-0.240592800216071,95.9362155072677,-34.8352664470769));
#1635=CARTESIAN_POINT('',(-5.94050880025522,98.936215507268,-34.8352664470767));
#1636=CARTESIAN_POINT('Origin',(-0.240592800216355,100.971408476929,-25.5852664470755));
#1637=CARTESIAN_POINT('',(-0.240592800216377,102.936215507268,-34.8352664470772));
#1638=CARTESIAN_POINT('',(-0.240592800216402,106.9014241458,-34.8352664470777));
#1639=CARTESIAN_POINT('',(-0.240592800216379,102.936215507269,-37.3350905306377));
#1640=CARTESIAN_POINT('',(-0.240592800216379,102.936215507269,-36.4966784888566));
#1641=CARTESIAN_POINT('',(-0.240592800216354,98.9362155072684,-37.3350905306378));
#1642=CARTESIAN_POINT('',(-0.240592800216343,97.2038119920985,-37.3350905306378));
#1643=CARTESIAN_POINT('',(-0.240592800216351,98.9362155072683,-33.9966784888567));
#1644=CARTESIAN_POINT('Origin',(-4.44050880021658,112.831439814671,-34.835266447078));
#1645=CARTESIAN_POINT('',(-5.94050880017714,102.936215507268,-34.8352664470772));
#1646=CARTESIAN_POINT('Origin',(-0.240592949399971,100.971408476928,-21.8352664470753));
#1647=CARTESIAN_POINT('Origin',(-6.34050880021636,103.721408476929,-30.2852664470755));
#1648=CARTESIAN_POINT('',(-4.34050880021612,98.1214084769293,-30.2852664470757));
#1649=CARTESIAN_POINT('',(-6.34050880021622,98.1214084769292,-30.2852664470759));
#1650=CARTESIAN_POINT('',(-4.34050880021612,103.821408476929,-30.2852664470757));
#1651=CARTESIAN_POINT('',(-4.34050880021612,103.721408476929,-30.2852664470757));
#1652=CARTESIAN_POINT('',(-4.54050880021612,103.821408476929,-30.2852664470757));
#1653=CARTESIAN_POINT('Origin',(-6.34050880021606,103.72140847693,-24.3852664470754));
#1654=CARTESIAN_POINT('',(-4.34050880021585,98.1214084769296,-24.3852664470755));
#1655=CARTESIAN_POINT('',(-6.3405088002162,98.1214084769291,-24.3852664470755));
#1656=CARTESIAN_POINT('',(-4.34050880021585,103.82140847693,-24.3852664470756));
#1657=CARTESIAN_POINT('',(-6.3405088002162,103.821408476929,-24.3852664470754));
#1658=CARTESIAN_POINT('',(-4.3405088002166,100.971408476929,-24.3852664470754));
#1659=CARTESIAN_POINT('Origin',(-6.34050880021633,103.821408476929,-30.0852664470759));
#1660=CARTESIAN_POINT('',(-4.34050880021612,103.821408476929,-30.0852664470757));
#1661=CARTESIAN_POINT('Origin',(-4.14050880021566,100.971408476928,-17.5102664470751));
#1662=CARTESIAN_POINT('',(-4.14050880021567,102.671408476928,-17.510266447075));
#1663=CARTESIAN_POINT('Origin',(-6.34050880021586,100.971408476929,-17.5102664470753));
#1664=CARTESIAN_POINT('',(-4.14050880021584,104.021408476929,-17.5102664470752));
#1665=CARTESIAN_POINT('',(-6.34050880021586,104.021408476929,-17.5102664470752));
#1666=CARTESIAN_POINT('Origin',(-4.14050880021586,100.971408476929,-17.5102664470753));
#1667=CARTESIAN_POINT('Origin',(-4.14050880021632,100.971408476929,-25.5852664470753));
#1668=CARTESIAN_POINT('Origin',(-6.34050880021636,98.1214084769292,-30.0852664470759));
#1669=CARTESIAN_POINT('',(-4.3405088002166,98.1214084769292,-30.085266447076));
#1670=CARTESIAN_POINT('Origin',(-4.3405088002166,98.2214084769292,-30.0852664470761));
#1671=CARTESIAN_POINT('Origin',(-0.240504400125996,96.621196029952,-10.8352664470748));
#1672=CARTESIAN_POINT('Origin',(-0.240504400126085,105.321620923907,-10.8352664470749));
#1673=CARTESIAN_POINT('Origin',(-7.44050880029434,98.9362155072685,-42.4080905306378));
#1674=CARTESIAN_POINT('',(-7.44050880029435,98.9362155072684,-37.3350905306378));
#1675=CARTESIAN_POINT('',(-7.44050880029449,98.9362155072683,-34.8350905306382));
#1676=CARTESIAN_POINT('Origin',(-7.44050880029435,93.436215507268,-37.3350905306379));
#1677=CARTESIAN_POINT('',(-7.44050880021632,102.936215507269,-37.3350905306377));
#1678=CARTESIAN_POINT('Origin',(-7.44050880013824,102.936215507269,-47.4080905306378));
#1679=CARTESIAN_POINT('',(-4.44050880021647,102.936215507269,-34.8350905306376));
#1680=CARTESIAN_POINT('Origin',(0.959322901415378,100.971408476929,-27.3352664470763));
#1681=CARTESIAN_POINT('',(0.959322901415379,100.971408476929,-25.8352664470763));
#1682=CARTESIAN_POINT('Origin',(-7.44050880029469,108.436215507268,-34.835090530638));
#1683=UNCERTAINTY_MEASURE_WITH_UNIT(LENGTH_MEASURE(0.01),#1687,
'DISTANCE_ACCURACY_VALUE',
'Maximum model space distance between geometric entities at asserted c
onnectivities');
#1684=UNCERTAINTY_MEASURE_WITH_UNIT(LENGTH_MEASURE(0.01),#1687,
'DISTANCE_ACCURACY_VALUE',
'Maximum model space distance between geometric entities at asserted c
onnectivities');
#1685=(
GEOMETRIC_REPRESENTATION_CONTEXT(3)
GLOBAL_UNCERTAINTY_ASSIGNED_CONTEXT((#1683))
GLOBAL_UNIT_ASSIGNED_CONTEXT((#1687,#1689,#1690))
REPRESENTATION_CONTEXT('','3D')
);
#1686=(
GEOMETRIC_REPRESENTATION_CONTEXT(3)
GLOBAL_UNCERTAINTY_ASSIGNED_CONTEXT((#1684))
GLOBAL_UNIT_ASSIGNED_CONTEXT((#1687,#1689,#1690))
REPRESENTATION_CONTEXT('','3D')
);
#1687=(
LENGTH_UNIT()
NAMED_UNIT(*)
SI_UNIT(.MILLI.,.METRE.)
);
#1688=(
LENGTH_UNIT()
NAMED_UNIT(*)
SI_UNIT($,.METRE.)
);
#1689=(
NAMED_UNIT(*)
PLANE_ANGLE_UNIT()
SI_UNIT($,.RADIAN.)
);
#1690=(
NAMED_UNIT(*)
SI_UNIT($,.STERADIAN.)
SOLID_ANGLE_UNIT()
);
#1691=SHAPE_DEFINITION_REPRESENTATION(#1692,#1693);
#1692=PRODUCT_DEFINITION_SHAPE('',$,#1695);
#1693=SHAPE_REPRESENTATION('',(#1009),#1685);
#1694=PRODUCT_DEFINITION_CONTEXT('part definition',#1699,'design');
#1695=PRODUCT_DEFINITION('end-pulley-top','end-pulley-top',#1696,#1694);
#1696=PRODUCT_DEFINITION_FORMATION('',$,#1701);
#1697=PRODUCT_RELATED_PRODUCT_CATEGORY('end-pulley-top',
'end-pulley-top',(#1701));
#1698=APPLICATION_PROTOCOL_DEFINITION('international standard',
'automotive_design',2009,#1699);
#1699=APPLICATION_CONTEXT(
'Core Data for Automotive Mechanical Design Process');
#1700=PRODUCT_CONTEXT('part definition',#1699,'mechanical');
#1701=PRODUCT('end-pulley-top','end-pulley-top',$,(#1700));
#1702=PRESENTATION_STYLE_ASSIGNMENT((#1704));
#1703=PRESENTATION_STYLE_ASSIGNMENT((#1705));
#1704=SURFACE_STYLE_USAGE(.BOTH.,#1706);
#1705=SURFACE_STYLE_USAGE(.BOTH.,#1707);
#1706=SURFACE_SIDE_STYLE('',(#1708));
#1707=SURFACE_SIDE_STYLE('',(#1709));
#1708=SURFACE_STYLE_FILL_AREA(#1710);
#1709=SURFACE_STYLE_FILL_AREA(#1711);
#1710=FILL_AREA_STYLE('Steel - Satin',(#1712));
#1711=FILL_AREA_STYLE('ABS (White)',(#1713));
#1712=FILL_AREA_STYLE_COLOUR('Steel - Satin',#1714);
#1713=FILL_AREA_STYLE_COLOUR('ABS (White)',#1715);
#1714=COLOUR_RGB('Steel - Satin',0.627450980392157,0.627450980392157,0.627450980392157);
#1715=COLOUR_RGB('ABS (White)',0.964705882352941,0.964705882352941,0.952941176470588);
ENDSEC;
END-ISO-10303-21;
