ISO-10303-21;
HEADER;
/* Generated by software containing ST-Developer
 * from STEP Tools, Inc. (www.steptools.com) 
 */

FILE_DESCRIPTION(
/* description */ (''),
/* implementation_level */ '2;1');

FILE_NAME(
/* name */ 'end-pulley-bottom.step',
/* time_stamp */ '2026-03-29T11:13:30-07:00',
/* author */ (''),
/* organization */ (''),
/* preprocessor_version */ 'ST-DEVELOPER v20.1',
/* originating_system */ 'Autodesk Translation Framework v14.24.0.0',
/* authorisation */ '');

FILE_SCHEMA (('AUTOMOTIVE_DESIGN { 1 0 10303 214 3 1 1 }'));
ENDSEC;

DATA;
#10=MECHANICAL_DESIGN_GEOMETRIC_PRESENTATION_REPRESENTATION('',(#22,#23,
#24),#1641);
#11=SHAPE_REPRESENTATION_RELATIONSHIP('SRR','None',#1648,#12);
#12=ADVANCED_BREP_SHAPE_REPRESENTATION('',(#13),#1640);
#13=MANIFOLD_SOLID_BREP('Body1',#971);
#14=B_SPLINE_CURVE_WITH_KNOTS('',3,(#1493,#1494,#1495,#1496,#1497,#1498,
#1499,#1500,#1501,#1502),.UNSPECIFIED.,.F.,.F.,(4,2,2,2,4),(1.22069914839324,
1.24594983648626,1.35313924136604,1.46032864624582,1.46033748622698),
 .UNSPECIFIED.);
#15=B_SPLINE_CURVE_WITH_KNOTS('',3,(#1508,#1509,#1510,#1511,#1512,#1513,
#1514,#1515,#1516,#1517),.UNSPECIFIED.,.F.,.F.,(4,2,2,2,4),(1.46025696061038,
1.46026580059155,1.56745520547132,1.67464461035109,1.69989529844405),
 .UNSPECIFIED.);
#16=CONICAL_SURFACE('',#1012,1.94996224714938,0.392699081698596);
#17=CONICAL_SURFACE('',#1020,1.94996224714939,0.3926990816986);
#18=(
BOUNDED_CURVE()
B_SPLINE_CURVE(2,(#1453,#1454,#1455),.UNSPECIFIED.,.F.,.F.)
B_SPLINE_CURVE_WITH_KNOTS((3,3),(4.57940802707188E-7,4.23213782794685E-6),
 .UNSPECIFIED.)
CURVE()
GEOMETRIC_REPRESENTATION_ITEM()
RATIONAL_B_SPLINE_CURVE((1.01982409215312,1.1015158704309,1.18320706210324))
REPRESENTATION_ITEM('')
);
#19=(
BOUNDED_CURVE()
B_SPLINE_CURVE(2,(#1459,#1460,#1461),.UNSPECIFIED.,.F.,.F.)
B_SPLINE_CURVE_WITH_KNOTS((3,3),(1.05120027620864,1.05120405040567),
 .UNSPECIFIED.)
CURVE()
GEOMETRIC_REPRESENTATION_ITEM()
RATIONAL_B_SPLINE_CURVE((1.18320706210113,1.10151587043371,1.01982409216088))
REPRESENTATION_ITEM('')
);
#20=(
BOUNDED_CURVE()
B_SPLINE_CURVE(2,(#1474,#1475,#1476),.UNSPECIFIED.,.F.,.F.)
B_SPLINE_CURVE_WITH_KNOTS((3,3),(2.00686818496133,2.00688004225443),
 .UNSPECIFIED.)
CURVE()
GEOMETRIC_REPRESENTATION_ITEM()
RATIONAL_B_SPLINE_CURVE((2.25882108346257,2.00217865224611,1.74553318831576))
REPRESENTATION_ITEM('')
);
#21=(
BOUNDED_CURVE()
B_SPLINE_CURVE(2,(#1529,#1530,#1531,#1532),.UNSPECIFIED.,.F.,.F.)
B_SPLINE_CURVE_WITH_KNOTS((3,1,3),(1.75281943683046E-5,2.36278909859887E-5,
2.94755100304801E-5),.UNSPECIFIED.)
CURVE()
GEOMETRIC_REPRESENTATION_ITEM()
RATIONAL_B_SPLINE_CURVE((1.75878530873473,1.89081031839198,2.14940267935161,
2.27597009512731))
REPRESENTATION_ITEM('')
);
#22=STYLED_ITEM('',(#1659),#932);
#23=STYLED_ITEM('',(#1659),#934);
#24=STYLED_ITEM('',(#1658),#13);
#25=CYLINDRICAL_SURFACE('',#1000,1.5);
#26=CYLINDRICAL_SURFACE('',#1002,2.7);
#27=CYLINDRICAL_SURFACE('',#1008,2.7);
#28=CYLINDRICAL_SURFACE('',#1016,1.7);
#29=CYLINDRICAL_SURFACE('',#1018,6.5);
#30=CYLINDRICAL_SURFACE('',#1029,1.7);
#31=CYLINDRICAL_SURFACE('',#1037,1.5);
#32=CYLINDRICAL_SURFACE('',#1039,1.49999999999999);
#33=CYLINDRICAL_SURFACE('',#1042,5.);
#34=CYLINDRICAL_SURFACE('',#1046,5.);
#35=CYLINDRICAL_SURFACE('',#1049,2.211743);
#36=CYLINDRICAL_SURFACE('',#1052,2.211743);
#37=CYLINDRICAL_SURFACE('',#1061,1.25);
#38=FACE_BOUND('',#127,.T.);
#39=FACE_BOUND('',#128,.T.);
#40=FACE_BOUND('',#129,.T.);
#41=FACE_BOUND('',#140,.T.);
#42=FACE_BOUND('',#167,.T.);
#43=CIRCLE('',#989,4.99999999999991);
#44=CIRCLE('',#990,5.);
#45=CIRCLE('',#991,1.25);
#46=CIRCLE('',#995,1.5);
#47=CIRCLE('',#1001,1.5);
#48=CIRCLE('',#1003,2.7);
#49=CIRCLE('',#1004,2.7);
#50=CIRCLE('',#1006,6.5);
#51=CIRCLE('',#1007,1.25);
#52=CIRCLE('',#1009,2.7);
#53=CIRCLE('',#1010,2.7);
#54=CIRCLE('',#1013,2.19992449429876);
#55=CIRCLE('',#1014,2.19992449429876);
#56=CIRCLE('',#1015,1.7);
#57=CIRCLE('',#1017,1.7);
#58=CIRCLE('',#1019,6.5);
#59=CIRCLE('',#1021,2.19992449429878);
#60=CIRCLE('',#1022,2.19992449429878);
#61=CIRCLE('',#1023,1.7);
#62=CIRCLE('',#1025,2.211743);
#63=CIRCLE('',#1028,2.211743);
#64=CIRCLE('',#1030,1.7);
#65=CIRCLE('',#1032,1.5);
#66=CIRCLE('',#1036,1.49999999999999);
#67=CIRCLE('',#1038,1.5);
#68=CIRCLE('',#1040,1.49999999999999);
#69=CIRCLE('',#1043,5.);
#70=CIRCLE('',#1047,5.);
#71=CIRCLE('',#1053,2.211743);
#72=ELLIPSE('',#987,3.1278769470837,2.211743);
#73=ELLIPSE('',#1051,3.12787694708376,2.211743);
#74=FACE_OUTER_BOUND('',#124,.T.);
#75=FACE_OUTER_BOUND('',#125,.T.);
#76=FACE_OUTER_BOUND('',#126,.T.);
#77=FACE_OUTER_BOUND('',#130,.T.);
#78=FACE_OUTER_BOUND('',#131,.T.);
#79=FACE_OUTER_BOUND('',#132,.T.);
#80=FACE_OUTER_BOUND('',#133,.T.);
#81=FACE_OUTER_BOUND('',#134,.T.);
#82=FACE_OUTER_BOUND('',#135,.T.);
#83=FACE_OUTER_BOUND('',#136,.T.);
#84=FACE_OUTER_BOUND('',#137,.T.);
#85=FACE_OUTER_BOUND('',#138,.T.);
#86=FACE_OUTER_BOUND('',#139,.T.);
#87=FACE_OUTER_BOUND('',#141,.T.);
#88=FACE_OUTER_BOUND('',#142,.T.);
#89=FACE_OUTER_BOUND('',#143,.T.);
#90=FACE_OUTER_BOUND('',#144,.T.);
#91=FACE_OUTER_BOUND('',#145,.T.);
#92=FACE_OUTER_BOUND('',#146,.T.);
#93=FACE_OUTER_BOUND('',#147,.T.);
#94=FACE_OUTER_BOUND('',#148,.T.);
#95=FACE_OUTER_BOUND('',#149,.T.);
#96=FACE_OUTER_BOUND('',#150,.T.);
#97=FACE_OUTER_BOUND('',#151,.T.);
#98=FACE_OUTER_BOUND('',#152,.T.);
#99=FACE_OUTER_BOUND('',#153,.T.);
#100=FACE_OUTER_BOUND('',#154,.T.);
#101=FACE_OUTER_BOUND('',#155,.T.);
#102=FACE_OUTER_BOUND('',#156,.T.);
#103=FACE_OUTER_BOUND('',#157,.T.);
#104=FACE_OUTER_BOUND('',#158,.T.);
#105=FACE_OUTER_BOUND('',#159,.T.);
#106=FACE_OUTER_BOUND('',#160,.T.);
#107=FACE_OUTER_BOUND('',#161,.T.);
#108=FACE_OUTER_BOUND('',#162,.T.);
#109=FACE_OUTER_BOUND('',#163,.T.);
#110=FACE_OUTER_BOUND('',#164,.T.);
#111=FACE_OUTER_BOUND('',#165,.T.);
#112=FACE_OUTER_BOUND('',#166,.T.);
#113=FACE_OUTER_BOUND('',#168,.T.);
#114=FACE_OUTER_BOUND('',#169,.T.);
#115=FACE_OUTER_BOUND('',#170,.T.);
#116=FACE_OUTER_BOUND('',#171,.T.);
#117=FACE_OUTER_BOUND('',#172,.T.);
#118=FACE_OUTER_BOUND('',#173,.T.);
#119=FACE_OUTER_BOUND('',#174,.T.);
#120=FACE_OUTER_BOUND('',#175,.T.);
#121=FACE_OUTER_BOUND('',#176,.T.);
#122=FACE_OUTER_BOUND('',#177,.T.);
#123=FACE_OUTER_BOUND('',#178,.T.);
#124=EDGE_LOOP('',(#610,#611,#612,#613,#614,#615,#616,#617));
#125=EDGE_LOOP('',(#618,#619,#620,#621,#622));
#126=EDGE_LOOP('',(#623,#624,#625,#626,#627,#628,#629,#630,#631,#632));
#127=EDGE_LOOP('',(#633,#634,#635,#636));
#128=EDGE_LOOP('',(#637,#638,#639,#640));
#129=EDGE_LOOP('',(#641));
#130=EDGE_LOOP('',(#642,#643,#644,#645));
#131=EDGE_LOOP('',(#646,#647,#648,#649));
#132=EDGE_LOOP('',(#650));
#133=EDGE_LOOP('',(#651,#652,#653,#654));
#134=EDGE_LOOP('',(#655,#656,#657,#658));
#135=EDGE_LOOP('',(#659,#660,#661,#662));
#136=EDGE_LOOP('',(#663,#664,#665,#666));
#137=EDGE_LOOP('',(#667,#668,#669,#670));
#138=EDGE_LOOP('',(#671,#672,#673,#674));
#139=EDGE_LOOP('',(#675,#676,#677,#678,#679,#680,#681,#682,#683,#684,#685,
#686,#687,#688));
#140=EDGE_LOOP('',(#689));
#141=EDGE_LOOP('',(#690,#691,#692,#693));
#142=EDGE_LOOP('',(#694,#695,#696,#697,#698,#699,#700,#701,#702,#703,#704));
#143=EDGE_LOOP('',(#705,#706,#707,#708,#709,#710));
#144=EDGE_LOOP('',(#711,#712,#713,#714));
#145=EDGE_LOOP('',(#715,#716,#717,#718,#719,#720));
#146=EDGE_LOOP('',(#721,#722,#723,#724,#725,#726));
#147=EDGE_LOOP('',(#727,#728,#729,#730,#731));
#148=EDGE_LOOP('',(#732,#733,#734));
#149=EDGE_LOOP('',(#735,#736,#737,#738));
#150=EDGE_LOOP('',(#739,#740,#741,#742));
#151=EDGE_LOOP('',(#743,#744,#745,#746));
#152=EDGE_LOOP('',(#747,#748,#749,#750));
#153=EDGE_LOOP('',(#751,#752,#753,#754));
#154=EDGE_LOOP('',(#755,#756,#757,#758));
#155=EDGE_LOOP('',(#759,#760,#761,#762));
#156=EDGE_LOOP('',(#763,#764,#765,#766));
#157=EDGE_LOOP('',(#767,#768,#769,#770,#771,#772,#773,#774));
#158=EDGE_LOOP('',(#775,#776,#777,#778));
#159=EDGE_LOOP('',(#779,#780,#781,#782));
#160=EDGE_LOOP('',(#783,#784,#785,#786));
#161=EDGE_LOOP('',(#787,#788,#789,#790));
#162=EDGE_LOOP('',(#791,#792,#793,#794,#795,#796));
#163=EDGE_LOOP('',(#797,#798,#799,#800));
#164=EDGE_LOOP('',(#801,#802,#803,#804,#805,#806));
#165=EDGE_LOOP('',(#807,#808,#809,#810,#811));
#166=EDGE_LOOP('',(#812,#813,#814,#815,#816,#817,#818,#819,#820,#821,#822,
#823,#824,#825));
#167=EDGE_LOOP('',(#826));
#168=EDGE_LOOP('',(#827,#828,#829));
#169=EDGE_LOOP('',(#830,#831,#832,#833,#834,#835,#836,#837,#838,#839,#840));
#170=EDGE_LOOP('',(#841,#842,#843));
#171=EDGE_LOOP('',(#844,#845,#846,#847));
#172=EDGE_LOOP('',(#848,#849,#850,#851));
#173=EDGE_LOOP('',(#852,#853,#854,#855,#856,#857,#858,#859,#860,#861));
#174=EDGE_LOOP('',(#862,#863,#864,#865));
#175=EDGE_LOOP('',(#866,#867,#868,#869));
#176=EDGE_LOOP('',(#870,#871,#872,#873,#874,#875));
#177=EDGE_LOOP('',(#876,#877,#878,#879));
#178=EDGE_LOOP('',(#880,#881,#882,#883,#884,#885));
#179=LINE('',#1335,#280);
#180=LINE('',#1337,#281);
#181=LINE('',#1339,#282);
#182=LINE('',#1341,#283);
#183=LINE('',#1343,#284);
#184=LINE('',#1345,#285);
#185=LINE('',#1347,#286);
#186=LINE('',#1348,#287);
#187=LINE('',#1353,#288);
#188=LINE('',#1355,#289);
#189=LINE('',#1356,#290);
#190=LINE('',#1359,#291);
#191=LINE('',#1361,#292);
#192=LINE('',#1363,#293);
#193=LINE('',#1365,#294);
#194=LINE('',#1367,#295);
#195=LINE('',#1371,#296);
#196=LINE('',#1375,#297);
#197=LINE('',#1377,#298);
#198=LINE('',#1379,#299);
#199=LINE('',#1380,#300);
#200=LINE('',#1383,#301);
#201=LINE('',#1385,#302);
#202=LINE('',#1387,#303);
#203=LINE('',#1388,#304);
#204=LINE('',#1393,#305);
#205=LINE('',#1394,#306);
#206=LINE('',#1397,#307);
#207=LINE('',#1399,#308);
#208=LINE('',#1400,#309);
#209=LINE('',#1407,#310);
#210=LINE('',#1408,#311);
#211=LINE('',#1409,#312);
#212=LINE('',#1412,#313);
#213=LINE('',#1413,#314);
#214=LINE('',#1416,#315);
#215=LINE('',#1417,#316);
#216=LINE('',#1419,#317);
#217=LINE('',#1422,#318);
#218=LINE('',#1427,#319);
#219=LINE('',#1431,#320);
#220=LINE('',#1435,#321);
#221=LINE('',#1437,#322);
#222=LINE('',#1439,#323);
#223=LINE('',#1441,#324);
#224=LINE('',#1443,#325);
#225=LINE('',#1445,#326);
#226=LINE('',#1447,#327);
#227=LINE('',#1449,#328);
#228=LINE('',#1451,#329);
#229=LINE('',#1462,#330);
#230=LINE('',#1469,#331);
#231=LINE('',#1478,#332);
#232=LINE('',#1479,#333);
#233=LINE('',#1481,#334);
#234=LINE('',#1483,#335);
#235=LINE('',#1484,#336);
#236=LINE('',#1486,#337);
#237=LINE('',#1487,#338);
#238=LINE('',#1519,#339);
#239=LINE('',#1522,#340);
#240=LINE('',#1536,#341);
#241=LINE('',#1538,#342);
#242=LINE('',#1541,#343);
#243=LINE('',#1544,#344);
#244=LINE('',#1547,#345);
#245=LINE('',#1552,#346);
#246=LINE('',#1555,#347);
#247=LINE('',#1560,#348);
#248=LINE('',#1565,#349);
#249=LINE('',#1569,#350);
#250=LINE('',#1572,#351);
#251=LINE('',#1573,#352);
#252=LINE('',#1577,#353);
#253=LINE('',#1581,#354);
#254=LINE('',#1583,#355);
#255=LINE('',#1585,#356);
#256=LINE('',#1586,#357);
#257=LINE('',#1590,#358);
#258=LINE('',#1593,#359);
#259=LINE('',#1595,#360);
#260=LINE('',#1597,#361);
#261=LINE('',#1600,#362);
#262=LINE('',#1602,#363);
#263=LINE('',#1604,#364);
#264=LINE('',#1606,#365);
#265=LINE('',#1608,#366);
#266=LINE('',#1609,#367);
#267=LINE('',#1610,#368);
#268=LINE('',#1616,#369);
#269=LINE('',#1617,#370);
#270=LINE('',#1620,#371);
#271=LINE('',#1621,#372);
#272=LINE('',#1624,#373);
#273=LINE('',#1626,#374);
#274=LINE('',#1627,#375);
#275=LINE('',#1629,#376);
#276=LINE('',#1631,#377);
#277=LINE('',#1632,#378);
#278=LINE('',#1634,#379);
#279=LINE('',#1636,#380);
#280=VECTOR('',#1070,10.);
#281=VECTOR('',#1071,10.);
#282=VECTOR('',#1072,10.);
#283=VECTOR('',#1073,10.);
#284=VECTOR('',#1074,10.);
#285=VECTOR('',#1075,10.);
#286=VECTOR('',#1076,10.);
#287=VECTOR('',#1077,10.);
#288=VECTOR('',#1082,10.);
#289=VECTOR('',#1083,10.);
#290=VECTOR('',#1084,10.);
#291=VECTOR('',#1087,10.);
#292=VECTOR('',#1088,10.);
#293=VECTOR('',#1089,10.);
#294=VECTOR('',#1090,10.);
#295=VECTOR('',#1091,10.);
#296=VECTOR('',#1094,10.);
#297=VECTOR('',#1097,10.);
#298=VECTOR('',#1098,10.);
#299=VECTOR('',#1099,10.);
#300=VECTOR('',#1100,10.);
#301=VECTOR('',#1101,10.);
#302=VECTOR('',#1102,10.);
#303=VECTOR('',#1103,10.);
#304=VECTOR('',#1104,10.);
#305=VECTOR('',#1109,10.);
#306=VECTOR('',#1110,10.);
#307=VECTOR('',#1113,10.);
#308=VECTOR('',#1114,10.);
#309=VECTOR('',#1115,10.);
#310=VECTOR('',#1122,10.);
#311=VECTOR('',#1123,10.);
#312=VECTOR('',#1124,10.);
#313=VECTOR('',#1127,10.);
#314=VECTOR('',#1128,10.);
#315=VECTOR('',#1131,10.);
#316=VECTOR('',#1132,10.);
#317=VECTOR('',#1135,10.);
#318=VECTOR('',#1138,1.5);
#319=VECTOR('',#1143,10.);
#320=VECTOR('',#1146,10.);
#321=VECTOR('',#1151,10.);
#322=VECTOR('',#1152,10.);
#323=VECTOR('',#1153,10.);
#324=VECTOR('',#1154,10.);
#325=VECTOR('',#1155,10.);
#326=VECTOR('',#1156,10.);
#327=VECTOR('',#1157,10.);
#328=VECTOR('',#1158,10.);
#329=VECTOR('',#1159,10.);
#330=VECTOR('',#1162,10.);
#331=VECTOR('',#1169,10.);
#332=VECTOR('',#1174,10.);
#333=VECTOR('',#1175,10.);
#334=VECTOR('',#1176,10.);
#335=VECTOR('',#1177,10.);
#336=VECTOR('',#1178,10.);
#337=VECTOR('',#1179,10.);
#338=VECTOR('',#1180,10.);
#339=VECTOR('',#1195,10.);
#340=VECTOR('',#1198,10.);
#341=VECTOR('',#1211,10.);
#342=VECTOR('',#1214,10.);
#343=VECTOR('',#1217,10.);
#344=VECTOR('',#1220,10.);
#345=VECTOR('',#1223,10.);
#346=VECTOR('',#1230,10.);
#347=VECTOR('',#1235,10.);
#348=VECTOR('',#1242,10.);
#349=VECTOR('',#1251,10.);
#350=VECTOR('',#1256,10.);
#351=VECTOR('',#1259,10.);
#352=VECTOR('',#1260,10.);
#353=VECTOR('',#1265,10.);
#354=VECTOR('',#1270,10.);
#355=VECTOR('',#1271,10.);
#356=VECTOR('',#1272,10.);
#357=VECTOR('',#1273,10.);
#358=VECTOR('',#1278,10.);
#359=VECTOR('',#1281,10.);
#360=VECTOR('',#1284,10.);
#361=VECTOR('',#1285,10.);
#362=VECTOR('',#1290,10.);
#363=VECTOR('',#1291,10.);
#364=VECTOR('',#1292,10.);
#365=VECTOR('',#1293,10.);
#366=VECTOR('',#1294,10.);
#367=VECTOR('',#1295,10.);
#368=VECTOR('',#1296,10.);
#369=VECTOR('',#1305,10.);
#370=VECTOR('',#1306,10.);
#371=VECTOR('',#1309,10.);
#372=VECTOR('',#1310,10.);
#373=VECTOR('',#1313,10.);
#374=VECTOR('',#1314,10.);
#375=VECTOR('',#1315,10.);
#376=VECTOR('',#1318,1.25);
#377=VECTOR('',#1321,10.);
#378=VECTOR('',#1322,10.);
#379=VECTOR('',#1325,10.);
#380=VECTOR('',#1328,10.);
#381=VERTEX_POINT('',#1333);
#382=VERTEX_POINT('',#1334);
#383=VERTEX_POINT('',#1336);
#384=VERTEX_POINT('',#1338);
#385=VERTEX_POINT('',#1340);
#386=VERTEX_POINT('',#1342);
#387=VERTEX_POINT('',#1344);
#388=VERTEX_POINT('',#1346);
#389=VERTEX_POINT('',#1350);
#390=VERTEX_POINT('',#1352);
#391=VERTEX_POINT('',#1354);
#392=VERTEX_POINT('',#1358);
#393=VERTEX_POINT('',#1360);
#394=VERTEX_POINT('',#1362);
#395=VERTEX_POINT('',#1364);
#396=VERTEX_POINT('',#1366);
#397=VERTEX_POINT('',#1368);
#398=VERTEX_POINT('',#1370);
#399=VERTEX_POINT('',#1373);
#400=VERTEX_POINT('',#1374);
#401=VERTEX_POINT('',#1376);
#402=VERTEX_POINT('',#1378);
#403=VERTEX_POINT('',#1381);
#404=VERTEX_POINT('',#1382);
#405=VERTEX_POINT('',#1384);
#406=VERTEX_POINT('',#1386);
#407=VERTEX_POINT('',#1389);
#408=VERTEX_POINT('',#1392);
#409=VERTEX_POINT('',#1396);
#410=VERTEX_POINT('',#1398);
#411=VERTEX_POINT('',#1402);
#412=VERTEX_POINT('',#1405);
#413=VERTEX_POINT('',#1406);
#414=VERTEX_POINT('',#1411);
#415=VERTEX_POINT('',#1415);
#416=VERTEX_POINT('',#1421);
#417=VERTEX_POINT('',#1425);
#418=VERTEX_POINT('',#1426);
#419=VERTEX_POINT('',#1428);
#420=VERTEX_POINT('',#1430);
#421=VERTEX_POINT('',#1434);
#422=VERTEX_POINT('',#1436);
#423=VERTEX_POINT('',#1438);
#424=VERTEX_POINT('',#1440);
#425=VERTEX_POINT('',#1442);
#426=VERTEX_POINT('',#1444);
#427=VERTEX_POINT('',#1446);
#428=VERTEX_POINT('',#1448);
#429=VERTEX_POINT('',#1450);
#430=VERTEX_POINT('',#1452);
#431=VERTEX_POINT('',#1456);
#432=VERTEX_POINT('',#1458);
#433=VERTEX_POINT('',#1463);
#434=VERTEX_POINT('',#1466);
#435=VERTEX_POINT('',#1468);
#436=VERTEX_POINT('',#1472);
#437=VERTEX_POINT('',#1473);
#438=VERTEX_POINT('',#1477);
#439=VERTEX_POINT('',#1480);
#440=VERTEX_POINT('',#1482);
#441=VERTEX_POINT('',#1485);
#442=VERTEX_POINT('',#1489);
#443=VERTEX_POINT('',#1491);
#444=VERTEX_POINT('',#1507);
#445=VERTEX_POINT('',#1518);
#446=VERTEX_POINT('',#1520);
#447=VERTEX_POINT('',#1524);
#448=VERTEX_POINT('',#1526);
#449=VERTEX_POINT('',#1528);
#450=VERTEX_POINT('',#1540);
#451=VERTEX_POINT('',#1542);
#452=VERTEX_POINT('',#1546);
#453=VERTEX_POINT('',#1550);
#454=VERTEX_POINT('',#1559);
#455=VERTEX_POINT('',#1567);
#456=VERTEX_POINT('',#1571);
#457=VERTEX_POINT('',#1576);
#458=VERTEX_POINT('',#1580);
#459=VERTEX_POINT('',#1582);
#460=VERTEX_POINT('',#1584);
#461=VERTEX_POINT('',#1589);
#462=VERTEX_POINT('',#1591);
#463=VERTEX_POINT('',#1596);
#464=VERTEX_POINT('',#1601);
#465=VERTEX_POINT('',#1603);
#466=VERTEX_POINT('',#1605);
#467=VERTEX_POINT('',#1607);
#468=VERTEX_POINT('',#1615);
#469=VERTEX_POINT('',#1619);
#470=VERTEX_POINT('',#1623);
#471=VERTEX_POINT('',#1625);
#472=EDGE_CURVE('',#381,#382,#179,.T.);
#473=EDGE_CURVE('',#383,#381,#180,.T.);
#474=EDGE_CURVE('',#384,#383,#181,.T.);
#475=EDGE_CURVE('',#384,#385,#182,.T.);
#476=EDGE_CURVE('',#385,#386,#183,.T.);
#477=EDGE_CURVE('',#386,#387,#184,.T.);
#478=EDGE_CURVE('',#388,#387,#185,.T.);
#479=EDGE_CURVE('',#382,#388,#186,.F.);
#480=EDGE_CURVE('',#382,#389,#72,.T.);
#481=EDGE_CURVE('',#389,#390,#187,.T.);
#482=EDGE_CURVE('',#390,#391,#188,.T.);
#483=EDGE_CURVE('',#391,#381,#189,.T.);
#484=EDGE_CURVE('',#391,#392,#190,.T.);
#485=EDGE_CURVE('',#392,#393,#191,.T.);
#486=EDGE_CURVE('',#393,#394,#192,.T.);
#487=EDGE_CURVE('',#395,#394,#193,.T.);
#488=EDGE_CURVE('',#395,#396,#194,.T.);
#489=EDGE_CURVE('',#396,#397,#43,.T.);
#490=EDGE_CURVE('',#397,#398,#195,.T.);
#491=EDGE_CURVE('',#398,#383,#44,.T.);
#492=EDGE_CURVE('',#399,#400,#196,.T.);
#493=EDGE_CURVE('',#400,#401,#197,.T.);
#494=EDGE_CURVE('',#401,#402,#198,.T.);
#495=EDGE_CURVE('',#402,#399,#199,.T.);
#496=EDGE_CURVE('',#403,#404,#200,.T.);
#497=EDGE_CURVE('',#404,#405,#201,.T.);
#498=EDGE_CURVE('',#405,#406,#202,.T.);
#499=EDGE_CURVE('',#406,#403,#203,.T.);
#500=EDGE_CURVE('',#407,#407,#45,.T.);
#501=EDGE_CURVE('',#390,#408,#204,.T.);
#502=EDGE_CURVE('',#408,#392,#205,.T.);
#503=EDGE_CURVE('',#394,#409,#206,.T.);
#504=EDGE_CURVE('',#410,#393,#207,.T.);
#505=EDGE_CURVE('',#409,#410,#208,.T.);
#506=EDGE_CURVE('',#411,#411,#46,.T.);
#507=EDGE_CURVE('',#412,#413,#209,.T.);
#508=EDGE_CURVE('',#412,#403,#210,.T.);
#509=EDGE_CURVE('',#413,#406,#211,.T.);
#510=EDGE_CURVE('',#413,#414,#212,.T.);
#511=EDGE_CURVE('',#414,#405,#213,.T.);
#512=EDGE_CURVE('',#414,#415,#214,.T.);
#513=EDGE_CURVE('',#415,#404,#215,.T.);
#514=EDGE_CURVE('',#415,#412,#216,.T.);
#515=EDGE_CURVE('',#411,#416,#217,.T.);
#516=EDGE_CURVE('',#416,#416,#47,.T.);
#517=EDGE_CURVE('',#417,#418,#218,.T.);
#518=EDGE_CURVE('',#417,#419,#48,.F.);
#519=EDGE_CURVE('',#420,#419,#219,.T.);
#520=EDGE_CURVE('',#420,#418,#49,.T.);
#521=EDGE_CURVE('',#421,#420,#220,.T.);
#522=EDGE_CURVE('',#419,#422,#221,.T.);
#523=EDGE_CURVE('',#422,#423,#222,.T.);
#524=EDGE_CURVE('',#424,#423,#223,.T.);
#525=EDGE_CURVE('',#425,#424,#224,.T.);
#526=EDGE_CURVE('',#425,#426,#225,.T.);
#527=EDGE_CURVE('',#426,#427,#226,.T.);
#528=EDGE_CURVE('',#427,#428,#227,.T.);
#529=EDGE_CURVE('',#428,#429,#228,.T.);
#530=EDGE_CURVE('',#430,#429,#18,.T.);
#531=EDGE_CURVE('',#430,#431,#50,.T.);
#532=EDGE_CURVE('',#432,#431,#19,.T.);
#533=EDGE_CURVE('',#432,#421,#229,.T.);
#534=EDGE_CURVE('',#433,#433,#51,.T.);
#535=EDGE_CURVE('',#426,#434,#52,.F.);
#536=EDGE_CURVE('',#435,#434,#230,.T.);
#537=EDGE_CURVE('',#435,#427,#53,.T.);
#538=EDGE_CURVE('',#436,#437,#20,.T.);
#539=EDGE_CURVE('',#436,#438,#231,.T.);
#540=EDGE_CURVE('',#438,#435,#232,.T.);
#541=EDGE_CURVE('',#434,#439,#233,.T.);
#542=EDGE_CURVE('',#439,#440,#234,.T.);
#543=EDGE_CURVE('',#408,#440,#235,.T.);
#544=EDGE_CURVE('',#389,#441,#236,.F.);
#545=EDGE_CURVE('',#441,#437,#237,.T.);
#546=EDGE_CURVE('',#437,#442,#54,.T.);
#547=EDGE_CURVE('',#442,#443,#55,.T.);
#548=EDGE_CURVE('',#443,#430,#14,.T.);
#549=EDGE_CURVE('',#429,#436,#56,.T.);
#550=EDGE_CURVE('',#428,#438,#57,.T.);
#551=EDGE_CURVE('',#431,#444,#15,.T.);
#552=EDGE_CURVE('',#445,#443,#238,.T.);
#553=EDGE_CURVE('',#446,#445,#58,.T.);
#554=EDGE_CURVE('',#444,#446,#239,.T.);
#555=EDGE_CURVE('',#444,#447,#59,.T.);
#556=EDGE_CURVE('',#447,#448,#60,.T.);
#557=EDGE_CURVE('',#448,#449,#21,.T.);
#558=EDGE_CURVE('',#449,#432,#61,.T.);
#559=EDGE_CURVE('',#388,#441,#62,.T.);
#560=EDGE_CURVE('',#442,#387,#240,.T.);
#561=EDGE_CURVE('',#447,#446,#241,.T.);
#562=EDGE_CURVE('',#450,#447,#242,.T.);
#563=EDGE_CURVE('',#450,#451,#63,.F.);
#564=EDGE_CURVE('',#448,#451,#243,.T.);
#565=EDGE_CURVE('',#452,#449,#244,.F.);
#566=EDGE_CURVE('',#452,#421,#64,.T.);
#567=EDGE_CURVE('',#453,#422,#65,.T.);
#568=EDGE_CURVE('',#453,#417,#245,.T.);
#569=EDGE_CURVE('',#418,#452,#246,.T.);
#570=EDGE_CURVE('',#425,#439,#66,.T.);
#571=EDGE_CURVE('',#453,#454,#247,.T.);
#572=EDGE_CURVE('',#423,#454,#67,.T.);
#573=EDGE_CURVE('',#440,#424,#68,.T.);
#574=EDGE_CURVE('',#454,#410,#248,.T.);
#575=EDGE_CURVE('',#455,#384,#69,.T.);
#576=EDGE_CURVE('',#398,#455,#249,.T.);
#577=EDGE_CURVE('',#456,#397,#250,.T.);
#578=EDGE_CURVE('',#455,#456,#251,.T.);
#579=EDGE_CURVE('',#457,#396,#252,.T.);
#580=EDGE_CURVE('',#457,#456,#70,.T.);
#581=EDGE_CURVE('',#395,#458,#253,.T.);
#582=EDGE_CURVE('',#459,#458,#254,.T.);
#583=EDGE_CURVE('',#459,#460,#255,.T.);
#584=EDGE_CURVE('',#460,#457,#256,.T.);
#585=EDGE_CURVE('',#409,#461,#257,.T.);
#586=EDGE_CURVE('',#461,#462,#73,.T.);
#587=EDGE_CURVE('',#462,#458,#258,.T.);
#588=EDGE_CURVE('',#451,#461,#259,.F.);
#589=EDGE_CURVE('',#450,#463,#260,.T.);
#590=EDGE_CURVE('',#463,#462,#71,.F.);
#591=EDGE_CURVE('',#445,#442,#261,.T.);
#592=EDGE_CURVE('',#464,#386,#262,.T.);
#593=EDGE_CURVE('',#465,#464,#263,.T.);
#594=EDGE_CURVE('',#466,#465,#264,.T.);
#595=EDGE_CURVE('',#467,#466,#265,.T.);
#596=EDGE_CURVE('',#459,#467,#266,.T.);
#597=EDGE_CURVE('',#463,#458,#267,.T.);
#598=EDGE_CURVE('',#460,#468,#268,.T.);
#599=EDGE_CURVE('',#468,#467,#269,.T.);
#600=EDGE_CURVE('',#469,#385,#270,.T.);
#601=EDGE_CURVE('',#464,#469,#271,.T.);
#602=EDGE_CURVE('',#468,#470,#272,.T.);
#603=EDGE_CURVE('',#470,#471,#273,.T.);
#604=EDGE_CURVE('',#471,#469,#274,.T.);
#605=EDGE_CURVE('',#433,#407,#275,.T.);
#606=EDGE_CURVE('',#470,#400,#276,.T.);
#607=EDGE_CURVE('',#399,#471,#277,.T.);
#608=EDGE_CURVE('',#401,#466,#278,.T.);
#609=EDGE_CURVE('',#465,#402,#279,.T.);
#610=ORIENTED_EDGE('',*,*,#472,.F.);
#611=ORIENTED_EDGE('',*,*,#473,.F.);
#612=ORIENTED_EDGE('',*,*,#474,.F.);
#613=ORIENTED_EDGE('',*,*,#475,.T.);
#614=ORIENTED_EDGE('',*,*,#476,.T.);
#615=ORIENTED_EDGE('',*,*,#477,.T.);
#616=ORIENTED_EDGE('',*,*,#478,.F.);
#617=ORIENTED_EDGE('',*,*,#479,.F.);
#618=ORIENTED_EDGE('',*,*,#472,.T.);
#619=ORIENTED_EDGE('',*,*,#480,.T.);
#620=ORIENTED_EDGE('',*,*,#481,.T.);
#621=ORIENTED_EDGE('',*,*,#482,.T.);
#622=ORIENTED_EDGE('',*,*,#483,.T.);
#623=ORIENTED_EDGE('',*,*,#483,.F.);
#624=ORIENTED_EDGE('',*,*,#484,.T.);
#625=ORIENTED_EDGE('',*,*,#485,.T.);
#626=ORIENTED_EDGE('',*,*,#486,.T.);
#627=ORIENTED_EDGE('',*,*,#487,.F.);
#628=ORIENTED_EDGE('',*,*,#488,.T.);
#629=ORIENTED_EDGE('',*,*,#489,.T.);
#630=ORIENTED_EDGE('',*,*,#490,.T.);
#631=ORIENTED_EDGE('',*,*,#491,.T.);
#632=ORIENTED_EDGE('',*,*,#473,.T.);
#633=ORIENTED_EDGE('',*,*,#492,.T.);
#634=ORIENTED_EDGE('',*,*,#493,.T.);
#635=ORIENTED_EDGE('',*,*,#494,.T.);
#636=ORIENTED_EDGE('',*,*,#495,.T.);
#637=ORIENTED_EDGE('',*,*,#496,.T.);
#638=ORIENTED_EDGE('',*,*,#497,.T.);
#639=ORIENTED_EDGE('',*,*,#498,.T.);
#640=ORIENTED_EDGE('',*,*,#499,.T.);
#641=ORIENTED_EDGE('',*,*,#500,.T.);
#642=ORIENTED_EDGE('',*,*,#482,.F.);
#643=ORIENTED_EDGE('',*,*,#501,.T.);
#644=ORIENTED_EDGE('',*,*,#502,.T.);
#645=ORIENTED_EDGE('',*,*,#484,.F.);
#646=ORIENTED_EDGE('',*,*,#503,.F.);
#647=ORIENTED_EDGE('',*,*,#486,.F.);
#648=ORIENTED_EDGE('',*,*,#504,.F.);
#649=ORIENTED_EDGE('',*,*,#505,.F.);
#650=ORIENTED_EDGE('',*,*,#506,.F.);
#651=ORIENTED_EDGE('',*,*,#507,.F.);
#652=ORIENTED_EDGE('',*,*,#508,.T.);
#653=ORIENTED_EDGE('',*,*,#499,.F.);
#654=ORIENTED_EDGE('',*,*,#509,.F.);
#655=ORIENTED_EDGE('',*,*,#510,.F.);
#656=ORIENTED_EDGE('',*,*,#509,.T.);
#657=ORIENTED_EDGE('',*,*,#498,.F.);
#658=ORIENTED_EDGE('',*,*,#511,.F.);
#659=ORIENTED_EDGE('',*,*,#512,.F.);
#660=ORIENTED_EDGE('',*,*,#511,.T.);
#661=ORIENTED_EDGE('',*,*,#497,.F.);
#662=ORIENTED_EDGE('',*,*,#513,.F.);
#663=ORIENTED_EDGE('',*,*,#514,.F.);
#664=ORIENTED_EDGE('',*,*,#513,.T.);
#665=ORIENTED_EDGE('',*,*,#496,.F.);
#666=ORIENTED_EDGE('',*,*,#508,.F.);
#667=ORIENTED_EDGE('',*,*,#506,.T.);
#668=ORIENTED_EDGE('',*,*,#515,.T.);
#669=ORIENTED_EDGE('',*,*,#516,.F.);
#670=ORIENTED_EDGE('',*,*,#515,.F.);
#671=ORIENTED_EDGE('',*,*,#517,.F.);
#672=ORIENTED_EDGE('',*,*,#518,.T.);
#673=ORIENTED_EDGE('',*,*,#519,.F.);
#674=ORIENTED_EDGE('',*,*,#520,.T.);
#675=ORIENTED_EDGE('',*,*,#521,.T.);
#676=ORIENTED_EDGE('',*,*,#519,.T.);
#677=ORIENTED_EDGE('',*,*,#522,.T.);
#678=ORIENTED_EDGE('',*,*,#523,.T.);
#679=ORIENTED_EDGE('',*,*,#524,.F.);
#680=ORIENTED_EDGE('',*,*,#525,.F.);
#681=ORIENTED_EDGE('',*,*,#526,.T.);
#682=ORIENTED_EDGE('',*,*,#527,.T.);
#683=ORIENTED_EDGE('',*,*,#528,.T.);
#684=ORIENTED_EDGE('',*,*,#529,.T.);
#685=ORIENTED_EDGE('',*,*,#530,.F.);
#686=ORIENTED_EDGE('',*,*,#531,.T.);
#687=ORIENTED_EDGE('',*,*,#532,.F.);
#688=ORIENTED_EDGE('',*,*,#533,.T.);
#689=ORIENTED_EDGE('',*,*,#534,.T.);
#690=ORIENTED_EDGE('',*,*,#527,.F.);
#691=ORIENTED_EDGE('',*,*,#535,.T.);
#692=ORIENTED_EDGE('',*,*,#536,.F.);
#693=ORIENTED_EDGE('',*,*,#537,.T.);
#694=ORIENTED_EDGE('',*,*,#538,.F.);
#695=ORIENTED_EDGE('',*,*,#539,.T.);
#696=ORIENTED_EDGE('',*,*,#540,.T.);
#697=ORIENTED_EDGE('',*,*,#536,.T.);
#698=ORIENTED_EDGE('',*,*,#541,.T.);
#699=ORIENTED_EDGE('',*,*,#542,.T.);
#700=ORIENTED_EDGE('',*,*,#543,.F.);
#701=ORIENTED_EDGE('',*,*,#501,.F.);
#702=ORIENTED_EDGE('',*,*,#481,.F.);
#703=ORIENTED_EDGE('',*,*,#544,.T.);
#704=ORIENTED_EDGE('',*,*,#545,.T.);
#705=ORIENTED_EDGE('',*,*,#538,.T.);
#706=ORIENTED_EDGE('',*,*,#546,.T.);
#707=ORIENTED_EDGE('',*,*,#547,.T.);
#708=ORIENTED_EDGE('',*,*,#548,.T.);
#709=ORIENTED_EDGE('',*,*,#530,.T.);
#710=ORIENTED_EDGE('',*,*,#549,.T.);
#711=ORIENTED_EDGE('',*,*,#549,.F.);
#712=ORIENTED_EDGE('',*,*,#529,.F.);
#713=ORIENTED_EDGE('',*,*,#550,.T.);
#714=ORIENTED_EDGE('',*,*,#539,.F.);
#715=ORIENTED_EDGE('',*,*,#551,.F.);
#716=ORIENTED_EDGE('',*,*,#531,.F.);
#717=ORIENTED_EDGE('',*,*,#548,.F.);
#718=ORIENTED_EDGE('',*,*,#552,.F.);
#719=ORIENTED_EDGE('',*,*,#553,.F.);
#720=ORIENTED_EDGE('',*,*,#554,.F.);
#721=ORIENTED_EDGE('',*,*,#551,.T.);
#722=ORIENTED_EDGE('',*,*,#555,.T.);
#723=ORIENTED_EDGE('',*,*,#556,.T.);
#724=ORIENTED_EDGE('',*,*,#557,.T.);
#725=ORIENTED_EDGE('',*,*,#558,.T.);
#726=ORIENTED_EDGE('',*,*,#532,.T.);
#727=ORIENTED_EDGE('',*,*,#546,.F.);
#728=ORIENTED_EDGE('',*,*,#545,.F.);
#729=ORIENTED_EDGE('',*,*,#559,.F.);
#730=ORIENTED_EDGE('',*,*,#478,.T.);
#731=ORIENTED_EDGE('',*,*,#560,.F.);
#732=ORIENTED_EDGE('',*,*,#555,.F.);
#733=ORIENTED_EDGE('',*,*,#554,.T.);
#734=ORIENTED_EDGE('',*,*,#561,.F.);
#735=ORIENTED_EDGE('',*,*,#556,.F.);
#736=ORIENTED_EDGE('',*,*,#562,.F.);
#737=ORIENTED_EDGE('',*,*,#563,.T.);
#738=ORIENTED_EDGE('',*,*,#564,.F.);
#739=ORIENTED_EDGE('',*,*,#558,.F.);
#740=ORIENTED_EDGE('',*,*,#565,.F.);
#741=ORIENTED_EDGE('',*,*,#566,.T.);
#742=ORIENTED_EDGE('',*,*,#533,.F.);
#743=ORIENTED_EDGE('',*,*,#567,.T.);
#744=ORIENTED_EDGE('',*,*,#522,.F.);
#745=ORIENTED_EDGE('',*,*,#518,.F.);
#746=ORIENTED_EDGE('',*,*,#568,.F.);
#747=ORIENTED_EDGE('',*,*,#540,.F.);
#748=ORIENTED_EDGE('',*,*,#550,.F.);
#749=ORIENTED_EDGE('',*,*,#528,.F.);
#750=ORIENTED_EDGE('',*,*,#537,.F.);
#751=ORIENTED_EDGE('',*,*,#521,.F.);
#752=ORIENTED_EDGE('',*,*,#566,.F.);
#753=ORIENTED_EDGE('',*,*,#569,.F.);
#754=ORIENTED_EDGE('',*,*,#520,.F.);
#755=ORIENTED_EDGE('',*,*,#570,.T.);
#756=ORIENTED_EDGE('',*,*,#541,.F.);
#757=ORIENTED_EDGE('',*,*,#535,.F.);
#758=ORIENTED_EDGE('',*,*,#526,.F.);
#759=ORIENTED_EDGE('',*,*,#567,.F.);
#760=ORIENTED_EDGE('',*,*,#571,.T.);
#761=ORIENTED_EDGE('',*,*,#572,.F.);
#762=ORIENTED_EDGE('',*,*,#523,.F.);
#763=ORIENTED_EDGE('',*,*,#570,.F.);
#764=ORIENTED_EDGE('',*,*,#525,.T.);
#765=ORIENTED_EDGE('',*,*,#573,.F.);
#766=ORIENTED_EDGE('',*,*,#542,.F.);
#767=ORIENTED_EDGE('',*,*,#574,.T.);
#768=ORIENTED_EDGE('',*,*,#504,.T.);
#769=ORIENTED_EDGE('',*,*,#485,.F.);
#770=ORIENTED_EDGE('',*,*,#502,.F.);
#771=ORIENTED_EDGE('',*,*,#543,.T.);
#772=ORIENTED_EDGE('',*,*,#573,.T.);
#773=ORIENTED_EDGE('',*,*,#524,.T.);
#774=ORIENTED_EDGE('',*,*,#572,.T.);
#775=ORIENTED_EDGE('',*,*,#575,.T.);
#776=ORIENTED_EDGE('',*,*,#474,.T.);
#777=ORIENTED_EDGE('',*,*,#491,.F.);
#778=ORIENTED_EDGE('',*,*,#576,.T.);
#779=ORIENTED_EDGE('',*,*,#576,.F.);
#780=ORIENTED_EDGE('',*,*,#490,.F.);
#781=ORIENTED_EDGE('',*,*,#577,.F.);
#782=ORIENTED_EDGE('',*,*,#578,.F.);
#783=ORIENTED_EDGE('',*,*,#507,.T.);
#784=ORIENTED_EDGE('',*,*,#510,.T.);
#785=ORIENTED_EDGE('',*,*,#512,.T.);
#786=ORIENTED_EDGE('',*,*,#514,.T.);
#787=ORIENTED_EDGE('',*,*,#579,.F.);
#788=ORIENTED_EDGE('',*,*,#580,.T.);
#789=ORIENTED_EDGE('',*,*,#577,.T.);
#790=ORIENTED_EDGE('',*,*,#489,.F.);
#791=ORIENTED_EDGE('',*,*,#581,.T.);
#792=ORIENTED_EDGE('',*,*,#582,.F.);
#793=ORIENTED_EDGE('',*,*,#583,.T.);
#794=ORIENTED_EDGE('',*,*,#584,.T.);
#795=ORIENTED_EDGE('',*,*,#579,.T.);
#796=ORIENTED_EDGE('',*,*,#488,.F.);
#797=ORIENTED_EDGE('',*,*,#480,.F.);
#798=ORIENTED_EDGE('',*,*,#479,.T.);
#799=ORIENTED_EDGE('',*,*,#559,.T.);
#800=ORIENTED_EDGE('',*,*,#544,.F.);
#801=ORIENTED_EDGE('',*,*,#503,.T.);
#802=ORIENTED_EDGE('',*,*,#585,.T.);
#803=ORIENTED_EDGE('',*,*,#586,.T.);
#804=ORIENTED_EDGE('',*,*,#587,.T.);
#805=ORIENTED_EDGE('',*,*,#581,.F.);
#806=ORIENTED_EDGE('',*,*,#487,.T.);
#807=ORIENTED_EDGE('',*,*,#586,.F.);
#808=ORIENTED_EDGE('',*,*,#588,.F.);
#809=ORIENTED_EDGE('',*,*,#563,.F.);
#810=ORIENTED_EDGE('',*,*,#589,.T.);
#811=ORIENTED_EDGE('',*,*,#590,.T.);
#812=ORIENTED_EDGE('',*,*,#589,.F.);
#813=ORIENTED_EDGE('',*,*,#562,.T.);
#814=ORIENTED_EDGE('',*,*,#561,.T.);
#815=ORIENTED_EDGE('',*,*,#553,.T.);
#816=ORIENTED_EDGE('',*,*,#591,.T.);
#817=ORIENTED_EDGE('',*,*,#560,.T.);
#818=ORIENTED_EDGE('',*,*,#477,.F.);
#819=ORIENTED_EDGE('',*,*,#592,.F.);
#820=ORIENTED_EDGE('',*,*,#593,.F.);
#821=ORIENTED_EDGE('',*,*,#594,.F.);
#822=ORIENTED_EDGE('',*,*,#595,.F.);
#823=ORIENTED_EDGE('',*,*,#596,.F.);
#824=ORIENTED_EDGE('',*,*,#582,.T.);
#825=ORIENTED_EDGE('',*,*,#597,.F.);
#826=ORIENTED_EDGE('',*,*,#516,.T.);
#827=ORIENTED_EDGE('',*,*,#547,.F.);
#828=ORIENTED_EDGE('',*,*,#591,.F.);
#829=ORIENTED_EDGE('',*,*,#552,.T.);
#830=ORIENTED_EDGE('',*,*,#564,.T.);
#831=ORIENTED_EDGE('',*,*,#588,.T.);
#832=ORIENTED_EDGE('',*,*,#585,.F.);
#833=ORIENTED_EDGE('',*,*,#505,.T.);
#834=ORIENTED_EDGE('',*,*,#574,.F.);
#835=ORIENTED_EDGE('',*,*,#571,.F.);
#836=ORIENTED_EDGE('',*,*,#568,.T.);
#837=ORIENTED_EDGE('',*,*,#517,.T.);
#838=ORIENTED_EDGE('',*,*,#569,.T.);
#839=ORIENTED_EDGE('',*,*,#565,.T.);
#840=ORIENTED_EDGE('',*,*,#557,.F.);
#841=ORIENTED_EDGE('',*,*,#587,.F.);
#842=ORIENTED_EDGE('',*,*,#590,.F.);
#843=ORIENTED_EDGE('',*,*,#597,.T.);
#844=ORIENTED_EDGE('',*,*,#598,.F.);
#845=ORIENTED_EDGE('',*,*,#583,.F.);
#846=ORIENTED_EDGE('',*,*,#596,.T.);
#847=ORIENTED_EDGE('',*,*,#599,.F.);
#848=ORIENTED_EDGE('',*,*,#600,.F.);
#849=ORIENTED_EDGE('',*,*,#601,.F.);
#850=ORIENTED_EDGE('',*,*,#592,.T.);
#851=ORIENTED_EDGE('',*,*,#476,.F.);
#852=ORIENTED_EDGE('',*,*,#575,.F.);
#853=ORIENTED_EDGE('',*,*,#578,.T.);
#854=ORIENTED_EDGE('',*,*,#580,.F.);
#855=ORIENTED_EDGE('',*,*,#584,.F.);
#856=ORIENTED_EDGE('',*,*,#598,.T.);
#857=ORIENTED_EDGE('',*,*,#602,.T.);
#858=ORIENTED_EDGE('',*,*,#603,.T.);
#859=ORIENTED_EDGE('',*,*,#604,.T.);
#860=ORIENTED_EDGE('',*,*,#600,.T.);
#861=ORIENTED_EDGE('',*,*,#475,.F.);
#862=ORIENTED_EDGE('',*,*,#534,.F.);
#863=ORIENTED_EDGE('',*,*,#605,.T.);
#864=ORIENTED_EDGE('',*,*,#500,.F.);
#865=ORIENTED_EDGE('',*,*,#605,.F.);
#866=ORIENTED_EDGE('',*,*,#603,.F.);
#867=ORIENTED_EDGE('',*,*,#606,.T.);
#868=ORIENTED_EDGE('',*,*,#492,.F.);
#869=ORIENTED_EDGE('',*,*,#607,.T.);
#870=ORIENTED_EDGE('',*,*,#602,.F.);
#871=ORIENTED_EDGE('',*,*,#599,.T.);
#872=ORIENTED_EDGE('',*,*,#595,.T.);
#873=ORIENTED_EDGE('',*,*,#608,.F.);
#874=ORIENTED_EDGE('',*,*,#493,.F.);
#875=ORIENTED_EDGE('',*,*,#606,.F.);
#876=ORIENTED_EDGE('',*,*,#609,.T.);
#877=ORIENTED_EDGE('',*,*,#494,.F.);
#878=ORIENTED_EDGE('',*,*,#608,.T.);
#879=ORIENTED_EDGE('',*,*,#594,.T.);
#880=ORIENTED_EDGE('',*,*,#604,.F.);
#881=ORIENTED_EDGE('',*,*,#607,.F.);
#882=ORIENTED_EDGE('',*,*,#495,.F.);
#883=ORIENTED_EDGE('',*,*,#609,.F.);
#884=ORIENTED_EDGE('',*,*,#593,.T.);
#885=ORIENTED_EDGE('',*,*,#601,.T.);
#886=PLANE('',#985);
#887=PLANE('',#986);
#888=PLANE('',#988);
#889=PLANE('',#992);
#890=PLANE('',#993);
#891=PLANE('',#994);
#892=PLANE('',#996);
#893=PLANE('',#997);
#894=PLANE('',#998);
#895=PLANE('',#999);
#896=PLANE('',#1005);
#897=PLANE('',#1011);
#898=PLANE('',#1024);
#899=PLANE('',#1026);
#900=PLANE('',#1027);
#901=PLANE('',#1031);
#902=PLANE('',#1033);
#903=PLANE('',#1034);
#904=PLANE('',#1035);
#905=PLANE('',#1041);
#906=PLANE('',#1044);
#907=PLANE('',#1045);
#908=PLANE('',#1048);
#909=PLANE('',#1050);
#910=PLANE('',#1054);
#911=PLANE('',#1055);
#912=PLANE('',#1056);
#913=PLANE('',#1057);
#914=PLANE('',#1058);
#915=PLANE('',#1059);
#916=PLANE('',#1060);
#917=PLANE('',#1062);
#918=PLANE('',#1063);
#919=PLANE('',#1064);
#920=PLANE('',#1065);
#921=ADVANCED_FACE('',(#74),#886,.T.);
#922=ADVANCED_FACE('',(#75),#887,.T.);
#923=ADVANCED_FACE('',(#76,#38,#39,#40),#888,.T.);
#924=ADVANCED_FACE('',(#77),#889,.T.);
#925=ADVANCED_FACE('',(#78),#890,.T.);
#926=ADVANCED_FACE('',(#79),#891,.F.);
#927=ADVANCED_FACE('',(#80),#892,.T.);
#928=ADVANCED_FACE('',(#81),#893,.T.);
#929=ADVANCED_FACE('',(#82),#894,.T.);
#930=ADVANCED_FACE('',(#83),#895,.T.);
#931=ADVANCED_FACE('',(#84),#25,.F.);
#932=ADVANCED_FACE('',(#85),#26,.F.);
#933=ADVANCED_FACE('',(#86,#41),#896,.T.);
#934=ADVANCED_FACE('',(#87),#27,.F.);
#935=ADVANCED_FACE('',(#88),#897,.T.);
#936=ADVANCED_FACE('',(#89),#16,.F.);
#937=ADVANCED_FACE('',(#90),#28,.F.);
#938=ADVANCED_FACE('',(#91),#29,.F.);
#939=ADVANCED_FACE('',(#92),#17,.F.);
#940=ADVANCED_FACE('',(#93),#898,.F.);
#941=ADVANCED_FACE('',(#94),#899,.F.);
#942=ADVANCED_FACE('',(#95),#900,.F.);
#943=ADVANCED_FACE('',(#96),#30,.F.);
#944=ADVANCED_FACE('',(#97),#901,.F.);
#945=ADVANCED_FACE('',(#98),#902,.T.);
#946=ADVANCED_FACE('',(#99),#903,.T.);
#947=ADVANCED_FACE('',(#100),#904,.F.);
#948=ADVANCED_FACE('',(#101),#31,.F.);
#949=ADVANCED_FACE('',(#102),#32,.F.);
#950=ADVANCED_FACE('',(#103),#905,.T.);
#951=ADVANCED_FACE('',(#104),#33,.T.);
#952=ADVANCED_FACE('',(#105),#906,.F.);
#953=ADVANCED_FACE('',(#106),#907,.F.);
#954=ADVANCED_FACE('',(#107),#34,.T.);
#955=ADVANCED_FACE('',(#108),#908,.T.);
#956=ADVANCED_FACE('',(#109),#35,.F.);
#957=ADVANCED_FACE('',(#110),#909,.T.);
#958=ADVANCED_FACE('',(#111),#36,.F.);
#959=ADVANCED_FACE('',(#112,#42),#910,.F.);
#960=ADVANCED_FACE('',(#113),#911,.F.);
#961=ADVANCED_FACE('',(#114),#912,.T.);
#962=ADVANCED_FACE('',(#115),#913,.F.);
#963=ADVANCED_FACE('',(#116),#914,.T.);
#964=ADVANCED_FACE('',(#117),#915,.T.);
#965=ADVANCED_FACE('',(#118),#916,.T.);
#966=ADVANCED_FACE('',(#119),#37,.F.);
#967=ADVANCED_FACE('',(#120),#917,.T.);
#968=ADVANCED_FACE('',(#121),#918,.T.);
#969=ADVANCED_FACE('',(#122),#919,.F.);
#970=ADVANCED_FACE('',(#123),#920,.T.);
#971=CLOSED_SHELL('',(#921,#922,#923,#924,#925,#926,#927,#928,#929,#930,
#931,#932,#933,#934,#935,#936,#937,#938,#939,#940,#941,#942,#943,#944,#945,
#946,#947,#948,#949,#950,#951,#952,#953,#954,#955,#956,#957,#958,#959,#960,
#961,#962,#963,#964,#965,#966,#967,#968,#969,#970));
#972=DERIVED_UNIT_ELEMENT(#974,1.);
#973=DERIVED_UNIT_ELEMENT(#1643,-3.);
#974=(
MASS_UNIT()
NAMED_UNIT(*)
SI_UNIT(.KILO.,.GRAM.)
);
#975=DERIVED_UNIT((#972,#973));
#976=MEASURE_REPRESENTATION_ITEM('density measure',
POSITIVE_RATIO_MEASURE(7850.),#975);
#977=PROPERTY_DEFINITION_REPRESENTATION(#982,#979);
#978=PROPERTY_DEFINITION_REPRESENTATION(#983,#980);
#979=REPRESENTATION('material name',(#981),#1640);
#980=REPRESENTATION('density',(#976),#1640);
#981=DESCRIPTIVE_REPRESENTATION_ITEM('Steel','Steel');
#982=PROPERTY_DEFINITION('material property','material name',#1650);
#983=PROPERTY_DEFINITION('material property','density of part',#1650);
#984=AXIS2_PLACEMENT_3D('',#1331,#1066,#1067);
#985=AXIS2_PLACEMENT_3D('',#1332,#1068,#1069);
#986=AXIS2_PLACEMENT_3D('',#1349,#1078,#1079);
#987=AXIS2_PLACEMENT_3D('',#1351,#1080,#1081);
#988=AXIS2_PLACEMENT_3D('',#1357,#1085,#1086);
#989=AXIS2_PLACEMENT_3D('',#1369,#1092,#1093);
#990=AXIS2_PLACEMENT_3D('',#1372,#1095,#1096);
#991=AXIS2_PLACEMENT_3D('',#1390,#1105,#1106);
#992=AXIS2_PLACEMENT_3D('',#1391,#1107,#1108);
#993=AXIS2_PLACEMENT_3D('',#1395,#1111,#1112);
#994=AXIS2_PLACEMENT_3D('',#1401,#1116,#1117);
#995=AXIS2_PLACEMENT_3D('',#1403,#1118,#1119);
#996=AXIS2_PLACEMENT_3D('',#1404,#1120,#1121);
#997=AXIS2_PLACEMENT_3D('',#1410,#1125,#1126);
#998=AXIS2_PLACEMENT_3D('',#1414,#1129,#1130);
#999=AXIS2_PLACEMENT_3D('',#1418,#1133,#1134);
#1000=AXIS2_PLACEMENT_3D('',#1420,#1136,#1137);
#1001=AXIS2_PLACEMENT_3D('',#1423,#1139,#1140);
#1002=AXIS2_PLACEMENT_3D('',#1424,#1141,#1142);
#1003=AXIS2_PLACEMENT_3D('',#1429,#1144,#1145);
#1004=AXIS2_PLACEMENT_3D('',#1432,#1147,#1148);
#1005=AXIS2_PLACEMENT_3D('',#1433,#1149,#1150);
#1006=AXIS2_PLACEMENT_3D('',#1457,#1160,#1161);
#1007=AXIS2_PLACEMENT_3D('',#1464,#1163,#1164);
#1008=AXIS2_PLACEMENT_3D('',#1465,#1165,#1166);
#1009=AXIS2_PLACEMENT_3D('',#1467,#1167,#1168);
#1010=AXIS2_PLACEMENT_3D('',#1470,#1170,#1171);
#1011=AXIS2_PLACEMENT_3D('',#1471,#1172,#1173);
#1012=AXIS2_PLACEMENT_3D('',#1488,#1181,#1182);
#1013=AXIS2_PLACEMENT_3D('',#1490,#1183,#1184);
#1014=AXIS2_PLACEMENT_3D('',#1492,#1185,#1186);
#1015=AXIS2_PLACEMENT_3D('',#1503,#1187,#1188);
#1016=AXIS2_PLACEMENT_3D('',#1504,#1189,#1190);
#1017=AXIS2_PLACEMENT_3D('',#1505,#1191,#1192);
#1018=AXIS2_PLACEMENT_3D('',#1506,#1193,#1194);
#1019=AXIS2_PLACEMENT_3D('',#1521,#1196,#1197);
#1020=AXIS2_PLACEMENT_3D('',#1523,#1199,#1200);
#1021=AXIS2_PLACEMENT_3D('',#1525,#1201,#1202);
#1022=AXIS2_PLACEMENT_3D('',#1527,#1203,#1204);
#1023=AXIS2_PLACEMENT_3D('',#1533,#1205,#1206);
#1024=AXIS2_PLACEMENT_3D('',#1534,#1207,#1208);
#1025=AXIS2_PLACEMENT_3D('',#1535,#1209,#1210);
#1026=AXIS2_PLACEMENT_3D('',#1537,#1212,#1213);
#1027=AXIS2_PLACEMENT_3D('',#1539,#1215,#1216);
#1028=AXIS2_PLACEMENT_3D('',#1543,#1218,#1219);
#1029=AXIS2_PLACEMENT_3D('',#1545,#1221,#1222);
#1030=AXIS2_PLACEMENT_3D('',#1548,#1224,#1225);
#1031=AXIS2_PLACEMENT_3D('',#1549,#1226,#1227);
#1032=AXIS2_PLACEMENT_3D('',#1551,#1228,#1229);
#1033=AXIS2_PLACEMENT_3D('',#1553,#1231,#1232);
#1034=AXIS2_PLACEMENT_3D('',#1554,#1233,#1234);
#1035=AXIS2_PLACEMENT_3D('',#1556,#1236,#1237);
#1036=AXIS2_PLACEMENT_3D('',#1557,#1238,#1239);
#1037=AXIS2_PLACEMENT_3D('',#1558,#1240,#1241);
#1038=AXIS2_PLACEMENT_3D('',#1561,#1243,#1244);
#1039=AXIS2_PLACEMENT_3D('',#1562,#1245,#1246);
#1040=AXIS2_PLACEMENT_3D('',#1563,#1247,#1248);
#1041=AXIS2_PLACEMENT_3D('',#1564,#1249,#1250);
#1042=AXIS2_PLACEMENT_3D('',#1566,#1252,#1253);
#1043=AXIS2_PLACEMENT_3D('',#1568,#1254,#1255);
#1044=AXIS2_PLACEMENT_3D('',#1570,#1257,#1258);
#1045=AXIS2_PLACEMENT_3D('',#1574,#1261,#1262);
#1046=AXIS2_PLACEMENT_3D('',#1575,#1263,#1264);
#1047=AXIS2_PLACEMENT_3D('',#1578,#1266,#1267);
#1048=AXIS2_PLACEMENT_3D('',#1579,#1268,#1269);
#1049=AXIS2_PLACEMENT_3D('',#1587,#1274,#1275);
#1050=AXIS2_PLACEMENT_3D('',#1588,#1276,#1277);
#1051=AXIS2_PLACEMENT_3D('',#1592,#1279,#1280);
#1052=AXIS2_PLACEMENT_3D('',#1594,#1282,#1283);
#1053=AXIS2_PLACEMENT_3D('',#1598,#1286,#1287);
#1054=AXIS2_PLACEMENT_3D('',#1599,#1288,#1289);
#1055=AXIS2_PLACEMENT_3D('',#1611,#1297,#1298);
#1056=AXIS2_PLACEMENT_3D('',#1612,#1299,#1300);
#1057=AXIS2_PLACEMENT_3D('',#1613,#1301,#1302);
#1058=AXIS2_PLACEMENT_3D('',#1614,#1303,#1304);
#1059=AXIS2_PLACEMENT_3D('',#1618,#1307,#1308);
#1060=AXIS2_PLACEMENT_3D('',#1622,#1311,#1312);
#1061=AXIS2_PLACEMENT_3D('',#1628,#1316,#1317);
#1062=AXIS2_PLACEMENT_3D('',#1630,#1319,#1320);
#1063=AXIS2_PLACEMENT_3D('',#1633,#1323,#1324);
#1064=AXIS2_PLACEMENT_3D('',#1635,#1326,#1327);
#1065=AXIS2_PLACEMENT_3D('',#1637,#1329,#1330);
#1066=DIRECTION('axis',(0.,0.,1.));
#1067=DIRECTION('refdir',(1.,0.,0.));
#1068=DIRECTION('center_axis',(-5.8442833905689E-15,1.,2.34650750352495E-14));
#1069=DIRECTION('ref_axis',(1.15278086753696E-15,2.34650750352495E-14,-1.));
#1070=DIRECTION('',(-1.,-5.84428339056887E-15,-1.15278086753704E-15));
#1071=DIRECTION('',(4.73316543132607E-30,-1.87281234635159E-14,1.));
#1072=DIRECTION('',(1.,0.,0.));
#1073=DIRECTION('',(1.06939990518744E-15,-8.82498538839839E-14,1.));
#1074=DIRECTION('',(1.,-2.73645956319237E-15,-1.47053451827968E-14));
#1075=DIRECTION('',(-6.25364507681532E-15,-8.82498538839838E-14,1.));
#1076=DIRECTION('',(-1.,-5.8442833905689E-15,-6.90631235463473E-17));
#1077=DIRECTION('',(4.2557842911944E-17,-9.59831506504031E-16,-1.));
#1078=DIRECTION('center_axis',(-3.31739324798951E-15,0.707106781186533,
-0.707106781186562));
#1079=DIRECTION('ref_axis',(-1.,0.,4.6915025230316E-15));
#1080=DIRECTION('center_axis',(3.31739324798951E-15,-0.707106781186533,
0.707106781186562));
#1081=DIRECTION('ref_axis',(-4.16262535596294E-15,0.707106781186562,0.707106781186533));
#1082=DIRECTION('',(-3.68914434889751E-15,0.707106781186562,0.707106781186533));
#1083=DIRECTION('',(1.,5.84428339056888E-15,1.15278086753704E-15));
#1084=DIRECTION('',(-4.12149270399104E-16,-0.707106781186562,-0.707106781186533));
#1085=DIRECTION('center_axis',(1.,-5.82867087920565E-16,-1.27203820966888E-29));
#1086=DIRECTION('ref_axis',(5.82867087920565E-16,1.,2.34650750352494E-14));
#1087=DIRECTION('',(1.2688422574436E-15,-4.34569966447054E-13,1.));
#1088=DIRECTION('',(-5.82867087920564E-16,-1.,1.24945490423244E-15));
#1089=DIRECTION('',(2.62690681438597E-28,4.73983379068883E-13,-1.));
#1090=DIRECTION('',(-4.12149270399078E-16,-0.707106781186547,0.707106781186548));
#1091=DIRECTION('',(-1.03537993810258E-29,1.1030577159448E-14,-1.));
#1092=DIRECTION('center_axis',(1.,-5.82867087920563E-16,-1.27203820966888E-29));
#1093=DIRECTION('ref_axis',(-5.82867087920563E-16,-1.,-9.25422032004717E-15));
#1094=DIRECTION('',(5.82867087920565E-16,1.,-2.39044406820891E-14));
#1095=DIRECTION('center_axis',(1.,-5.82867087920565E-16,-1.27203820966888E-29));
#1096=DIRECTION('ref_axis',(-1.4791141972894E-29,-3.6243667656044E-15,-1.));
#1097=DIRECTION('',(-5.82867087920568E-16,-1.,-5.70150664124701E-15));
#1098=DIRECTION('',(-4.16124127504084E-29,-9.2742991771873E-14,1.));
#1099=DIRECTION('',(5.82867087920563E-16,1.,5.89922118232539E-14));
#1100=DIRECTION('',(4.04291213925769E-29,7.6755780217263E-14,-1.));
#1101=DIRECTION('',(1.35092430019098E-29,5.59423202540879E-16,1.));
#1102=DIRECTION('',(5.82867087920564E-16,1.,1.68591895573962E-16));
#1103=DIRECTION('',(-1.36078506150625E-29,-1.28743830065574E-15,-1.));
#1104=DIRECTION('',(-5.82867087920565E-16,-1.,-1.68591895573946E-16));
#1105=DIRECTION('center_axis',(-1.,5.82867087920565E-16,1.27203820966888E-29));
#1106=DIRECTION('ref_axis',(5.82867087920565E-16,1.,2.34650750352494E-14));
#1107=DIRECTION('center_axis',(-5.84428339056891E-15,1.,2.34650750352495E-14));
#1108=DIRECTION('ref_axis',(1.26380317000147E-15,2.34650750352495E-14,-1.));
#1109=DIRECTION('',(1.06939990518714E-15,-2.34650750352494E-14,1.));
#1110=DIRECTION('',(1.,0.,0.));
#1111=DIRECTION('center_axis',(5.84428339056891E-15,-1.,-2.34650750352495E-14));
#1112=DIRECTION('ref_axis',(-1.26380317000147E-15,-2.34650750352495E-14,
1.));
#1113=DIRECTION('',(-1.,-5.84428339056888E-15,-1.15278086753696E-15));
#1114=DIRECTION('',(1.,4.20622678284343E-15,6.90631235599313E-17));
#1115=DIRECTION('',(-6.93889390390723E-17,0.,1.));
#1116=DIRECTION('center_axis',(1.,-5.82867087920565E-16,-1.27203820966888E-29));
#1117=DIRECTION('ref_axis',(5.82867087920565E-16,1.,2.34650750352494E-14));
#1118=DIRECTION('center_axis',(1.,-5.82867087920565E-16,-1.27203820966888E-29));
#1119=DIRECTION('ref_axis',(-4.66062761766275E-16,2.34468604387517E-14,
-1.));
#1120=DIRECTION('center_axis',(0.,-1.68591895573946E-16,1.));
#1121=DIRECTION('ref_axis',(-5.82867087920565E-16,-1.,-1.68591895573946E-16));
#1122=DIRECTION('',(-5.13478148910322E-16,1.,1.68591895573972E-16));
#1123=DIRECTION('',(1.,0.,0.));
#1124=DIRECTION('',(1.,0.,0.));
#1125=DIRECTION('center_axis',(0.,-1.,1.28743830065574E-15));
#1126=DIRECTION('ref_axis',(-1.36078506150625E-29,-1.28743830065574E-15,
-1.));
#1127=DIRECTION('',(4.66062761766259E-16,1.28743830065571E-15,1.));
#1128=DIRECTION('',(1.,0.,0.));
#1129=DIRECTION('center_axis',(0.,1.68591895573962E-16,-1.));
#1130=DIRECTION('ref_axis',(5.82867087920564E-16,1.,1.68591895573962E-16));
#1131=DIRECTION('',(5.13478148910322E-16,-1.,-1.68591895573987E-16));
#1132=DIRECTION('',(1.,0.,0.));
#1133=DIRECTION('center_axis',(0.,1.,-5.59423202540879E-16));
#1134=DIRECTION('ref_axis',(1.35092430019098E-29,5.59423202540879E-16,1.));
#1135=DIRECTION('',(-4.66062761766259E-16,-5.59423202540854E-16,-1.));
#1136=DIRECTION('center_axis',(-1.,-5.13478148921267E-16,4.66062761766263E-16));
#1137=DIRECTION('ref_axis',(-4.66062761766275E-16,2.34468604387517E-14,
-1.));
#1138=DIRECTION('',(-1.,-5.13478148921267E-16,4.66062761766263E-16));
#1139=DIRECTION('center_axis',(1.,1.07523658928633E-27,6.25364507681521E-15));
#1140=DIRECTION('ref_axis',(-4.66062761766275E-16,2.34468604387517E-14,
-1.));
#1141=DIRECTION('center_axis',(4.38503554194811E-16,7.64697911394424E-16,
-1.));
#1142=DIRECTION('ref_axis',(1.,-2.40896022827532E-29,4.3850355419481E-16));
#1143=DIRECTION('',(4.38503554194811E-16,7.64697911394424E-16,-1.));
#1144=DIRECTION('center_axis',(1.02096839134315E-16,7.20588159849246E-17,
-1.));
#1145=DIRECTION('ref_axis',(1.,-2.40896022827532E-29,4.3850355419481E-16));
#1146=DIRECTION('',(-4.38503554194811E-16,-7.64697911394424E-16,1.));
#1147=DIRECTION('center_axis',(1.02096839134315E-16,7.20588159849246E-17,
-1.));
#1148=DIRECTION('ref_axis',(1.,-2.40896022827532E-29,4.3850355419481E-16));
#1149=DIRECTION('center_axis',(-1.,-6.28663787694977E-15,1.06939990518699E-15));
#1150=DIRECTION('ref_axis',(1.06939990518714E-15,-2.34650750352495E-14,
1.));
#1151=DIRECTION('',(-6.28663787694977E-15,1.,7.2058815984924E-17));
#1152=DIRECTION('',(6.28663787694977E-15,-1.,-7.2058815984924E-17));
#1153=DIRECTION('',(-6.93889390390723E-17,-1.26217744835362E-29,1.));
#1154=DIRECTION('',(6.8543561315764E-15,-1.,-3.60294079856334E-17));
#1155=DIRECTION('',(-6.93889390390723E-17,-1.26217744835362E-29,1.));
#1156=DIRECTION('',(6.28663787694977E-15,-1.,-7.20588159849112E-17));
#1157=DIRECTION('',(4.74532962180403E-16,7.64697911394411E-16,-1.));
#1158=DIRECTION('',(-6.28663787694977E-15,1.,7.20588159849112E-17));
#1159=DIRECTION('',(1.15278086753707E-15,5.70150664124727E-15,-1.));
#1160=DIRECTION('center_axis',(1.,6.28663787694977E-15,-1.06939990518699E-15));
#1161=DIRECTION('ref_axis',(-7.69060740985908E-17,-1.,-2.34650750352495E-14));
#1162=DIRECTION('',(-1.15278086753712E-15,3.18027755575386E-15,1.));
#1163=DIRECTION('center_axis',(1.,6.28663787694977E-15,-1.06939990518699E-15));
#1164=DIRECTION('ref_axis',(-3.72965547331979E-16,-1.,-2.34650750352495E-14));
#1165=DIRECTION('center_axis',(4.74532962180403E-16,7.64697911394411E-16,
-1.));
#1166=DIRECTION('ref_axis',(1.,-2.40955722145739E-29,4.74532962180402E-16));
#1167=DIRECTION('center_axis',(1.38126247119908E-16,7.2058815984912E-17,
-1.));
#1168=DIRECTION('ref_axis',(1.,-2.40955722145739E-29,4.74532962180402E-16));
#1169=DIRECTION('',(-4.74532962180403E-16,-7.64697911394411E-16,1.));
#1170=DIRECTION('center_axis',(1.38126247119908E-16,7.2058815984912E-17,
-1.));
#1171=DIRECTION('ref_axis',(1.,-2.40955722145739E-29,4.74532962180402E-16));
#1172=DIRECTION('center_axis',(-1.,-6.28663787694977E-15,1.06939990518699E-15));
#1173=DIRECTION('ref_axis',(1.06939990518714E-15,-2.34650750352495E-14,
1.));
#1174=DIRECTION('',(-1.15278086753712E-15,3.18027755575385E-15,1.));
#1175=DIRECTION('',(-6.28663787694977E-15,1.,7.20588159849112E-17));
#1176=DIRECTION('',(6.28663787694977E-15,-1.,-7.20588159849112E-17));
#1177=DIRECTION('',(-6.93889390390723E-17,-1.26217744835362E-29,1.));
#1178=DIRECTION('',(-1.80329144077471E-13,-1.,-3.60294079856587E-17));
#1179=DIRECTION('',(4.2557842911944E-17,-9.59831506504031E-16,-1.));
#1180=DIRECTION('',(5.70377078902921E-15,-1.,-3.60294079857502E-17));
#1181=DIRECTION('center_axis',(6.32415973853532E-16,0.,-1.));
#1182=DIRECTION('ref_axis',(1.,-1.48322762203785E-13,5.39516087167788E-15));
#1183=DIRECTION('center_axis',(2.01865659935575E-15,4.03731319871158E-15,
-1.));
#1184=DIRECTION('ref_axis',(-6.00865753401995E-15,1.,4.03731319871157E-15));
#1185=DIRECTION('center_axis',(2.01865659935575E-15,4.03731319871158E-15,
-1.));
#1186=DIRECTION('ref_axis',(-6.00865753401995E-15,1.,4.03731319871157E-15));
#1187=DIRECTION('center_axis',(-1.15278086753707E-15,-5.70150664124727E-15,
1.));
#1188=DIRECTION('ref_axis',(-5.84428339056888E-15,1.,5.70150664124727E-15));
#1189=DIRECTION('center_axis',(1.15278086753707E-15,5.70150664124727E-15,
-1.));
#1190=DIRECTION('ref_axis',(1.,-1.48415484692371E-13,1.15278086753622E-15));
#1191=DIRECTION('center_axis',(-6.90631235463323E-17,-3.60294079856966E-17,
1.));
#1192=DIRECTION('ref_axis',(-5.84428339056888E-15,1.,5.70150664124727E-15));
#1193=DIRECTION('center_axis',(-1.,7.69060740986166E-17,-1.15278086753696E-15));
#1194=DIRECTION('ref_axis',(-7.69060740985908E-17,-1.,-2.34650750352495E-14));
#1195=DIRECTION('',(-1.,7.69060740986166E-17,-1.15278086753696E-15));
#1196=DIRECTION('center_axis',(-1.,5.82867087920559E-16,1.43967115202835E-29));
#1197=DIRECTION('ref_axis',(-5.8286708792056E-16,-1.,-2.34650750352495E-14));
#1198=DIRECTION('',(1.,-7.69060740986166E-17,1.15278086753696E-15));
#1199=DIRECTION('center_axis',(4.31192709445595E-16,-1.47180444824096E-14,
-1.));
#1200=DIRECTION('ref_axis',(1.,-1.40453703087319E-13,1.99119820896816E-14));
#1201=DIRECTION('center_axis',(4.03731319871154E-15,4.03731319871156E-15,
-1.));
#1202=DIRECTION('ref_axis',(-5.78786696846536E-15,1.,4.03731319871153E-15));
#1203=DIRECTION('center_axis',(4.03731319871154E-15,4.03731319871156E-15,
-1.));
#1204=DIRECTION('ref_axis',(-5.78786696846536E-15,1.,4.03731319871153E-15));
#1205=DIRECTION('center_axis',(-1.15278086753707E-15,-5.70150664124727E-15,
1.));
#1206=DIRECTION('ref_axis',(-5.84428339056888E-15,1.,5.70150664124726E-15));
#1207=DIRECTION('center_axis',(-6.90631235463471E-17,-3.60294079857502E-17,
1.));
#1208=DIRECTION('ref_axis',(-5.84428339056887E-15,1.,3.60294079857502E-17));
#1209=DIRECTION('center_axis',(-6.90631235463471E-17,-3.60294079857502E-17,
1.));
#1210=DIRECTION('ref_axis',(-5.84428339056887E-15,1.,-9.59831506504031E-16));
#1211=DIRECTION('',(-1.0754619044162E-27,1.,3.60294079857502E-17));
#1212=DIRECTION('center_axis',(-6.90631235463471E-17,-3.60294079857502E-17,
1.));
#1213=DIRECTION('ref_axis',(-5.84428339056887E-15,1.,3.60294079857502E-17));
#1214=DIRECTION('',(-1.0754619044162E-27,1.,3.60294079857502E-17));
#1215=DIRECTION('center_axis',(-6.90631235463471E-17,-3.60294079857502E-17,
1.));
#1216=DIRECTION('ref_axis',(-5.84428339056887E-15,1.,3.60294079857502E-17));
#1217=DIRECTION('',(-1.0754619044162E-27,1.,3.60294079857502E-17));
#1218=DIRECTION('center_axis',(-6.90631235463471E-17,-3.60294079857502E-17,
1.));
#1219=DIRECTION('ref_axis',(-5.84428339056887E-15,1.,-9.59831506504031E-16));
#1220=DIRECTION('',(6.28663787694977E-15,-1.,-3.60294079857498E-17));
#1221=DIRECTION('center_axis',(1.15278086753707E-15,5.70150664124727E-15,
-1.));
#1222=DIRECTION('ref_axis',(1.,-1.40643923519994E-13,1.15278086753626E-15));
#1223=DIRECTION('',(-1.15278086753707E-15,-5.70150664124727E-15,1.));
#1224=DIRECTION('center_axis',(-6.90631235463323E-17,-3.60294079856934E-17,
1.));
#1225=DIRECTION('ref_axis',(-5.84428339056888E-15,1.,5.70150664124726E-15));
#1226=DIRECTION('center_axis',(-6.90631235599346E-17,-3.60294079856334E-17,
1.));
#1227=DIRECTION('ref_axis',(-5.84428339056888E-15,1.,3.60294079856334E-17));
#1228=DIRECTION('center_axis',(-6.90631235599299E-17,-3.60294079856492E-17,
1.));
#1229=DIRECTION('ref_axis',(-5.84428339056887E-15,1.,3.60294079856465E-17));
#1230=DIRECTION('',(6.28663787694977E-15,-1.,-7.2058815984924E-17));
#1231=DIRECTION('center_axis',(-6.90631235463323E-17,-3.60294079856808E-17,
1.));
#1232=DIRECTION('ref_axis',(-5.26141630264831E-15,1.,3.60294079856808E-17));
#1233=DIRECTION('center_axis',(-6.90631235463323E-17,-3.60294079856808E-17,
1.));
#1234=DIRECTION('ref_axis',(-5.26141630264831E-15,1.,3.60294079856808E-17));
#1235=DIRECTION('',(-6.28663787694977E-15,1.,7.2058815984924E-17));
#1236=DIRECTION('center_axis',(-6.90631235599346E-17,-3.60294079856334E-17,
1.));
#1237=DIRECTION('ref_axis',(-5.84428339056888E-15,1.,3.60294079856334E-17));
#1238=DIRECTION('center_axis',(-6.90631235599299E-17,-3.60294079856461E-17,
1.));
#1239=DIRECTION('ref_axis',(-5.84428339056887E-15,1.,3.60294079856469E-17));
#1240=DIRECTION('center_axis',(-6.93889390390723E-17,-1.26217744835362E-29,
1.));
#1241=DIRECTION('ref_axis',(1.,5.66058637069677E-15,6.93889390390723E-17));
#1242=DIRECTION('',(-6.93889390390723E-17,-1.26217744835362E-29,1.));
#1243=DIRECTION('center_axis',(6.90631235599299E-17,3.60294079856492E-17,
-1.));
#1244=DIRECTION('ref_axis',(-5.84428339056887E-15,1.,3.60294079856465E-17));
#1245=DIRECTION('center_axis',(-6.93889390390723E-17,-1.26217744835362E-29,
1.));
#1246=DIRECTION('ref_axis',(1.,5.66058637069677E-15,6.93889390390723E-17));
#1247=DIRECTION('center_axis',(6.90631235599299E-17,3.60294079856461E-17,
-1.));
#1248=DIRECTION('ref_axis',(-5.84428339056887E-15,1.,3.60294079856469E-17));
#1249=DIRECTION('center_axis',(-6.90631235599346E-17,-3.60294079856334E-17,
1.));
#1250=DIRECTION('ref_axis',(-5.84428339056888E-15,1.,3.60294079856334E-17));
#1251=DIRECTION('',(6.8543561315764E-15,-1.,-3.60294079856334E-17));
#1252=DIRECTION('center_axis',(-1.,-5.84428339056887E-15,-1.15278086753686E-15));
#1253=DIRECTION('ref_axis',(-3.45420340910436E-15,0.707106781186553,-0.707106781186542));
#1254=DIRECTION('center_axis',(1.,6.28663787694977E-15,-1.06939990518699E-15));
#1255=DIRECTION('ref_axis',(-3.45420340910436E-15,0.707106781186553,-0.707106781186542));
#1256=DIRECTION('',(-1.,-5.84428339056887E-15,-1.15278086753686E-15));
#1257=DIRECTION('center_axis',(-1.15278086753693E-15,1.20620617528086E-14,
1.));
#1258=DIRECTION('ref_axis',(-4.6075071535871E-11,-1.,1.20620617527555E-14));
#1259=DIRECTION('',(1.,5.84428339056887E-15,1.15278086753686E-15));
#1260=DIRECTION('',(6.28663787694978E-15,-1.,1.20620617528086E-14));
#1261=DIRECTION('center_axis',(-1.,-5.13478148910322E-16,4.6606276176626E-16));
#1262=DIRECTION('ref_axis',(4.66062761766271E-16,-2.37127888591783E-14,
1.));
#1263=DIRECTION('center_axis',(1.,5.84428339056887E-15,1.15278086753686E-15));
#1264=DIRECTION('ref_axis',(5.02429586778799E-15,-0.707106781186544,-0.707106781186551));
#1265=DIRECTION('',(1.,0.,0.));
#1266=DIRECTION('center_axis',(1.,6.28663787694977E-15,-1.06939990518699E-15));
#1267=DIRECTION('ref_axis',(5.02429586778799E-15,-0.707106781186544,-0.707106781186551));
#1268=DIRECTION('center_axis',(5.8442833905689E-15,-1.,-2.34650750352495E-14));
#1269=DIRECTION('ref_axis',(-1.15278086753696E-15,-2.34650750352495E-14,
1.));
#1270=DIRECTION('',(-1.,-5.84428339056887E-15,-1.15278086753697E-15));
#1271=DIRECTION('',(-1.15278086753649E-15,-1.04084346977261E-13,1.));
#1272=DIRECTION('',(-1.,2.73645956319218E-15,1.47053451827968E-14));
#1273=DIRECTION('',(-1.0693999051875E-15,1.00788843338554E-13,-1.));
#1274=DIRECTION('center_axis',(4.2557842911944E-17,-9.59831506504031E-16,
-1.));
#1275=DIRECTION('ref_axis',(-5.84428339056887E-15,1.,-9.59831506504031E-16));
#1276=DIRECTION('center_axis',(4.94767158530466E-15,-0.707106781186548,
-0.707106781186547));
#1277=DIRECTION('ref_axis',(-1.,0.,-6.99706425810586E-15));
#1278=DIRECTION('',(-5.20150419841335E-15,0.707106781186547,-0.707106781186548));
#1279=DIRECTION('center_axis',(-4.94767158530466E-15,0.707106781186548,
0.707106781186547));
#1280=DIRECTION('ref_axis',(-4.10243947733145E-15,0.707106781186547,-0.707106781186548));
#1281=DIRECTION('',(1.,5.84428339056888E-15,1.15278086753696E-15));
#1282=DIRECTION('center_axis',(4.2557842911944E-17,-9.59831506504031E-16,
-1.));
#1283=DIRECTION('ref_axis',(0.669727148649464,-0.742607262529703,7.41279990320807E-16));
#1284=DIRECTION('',(-4.2557842911944E-17,9.59831506504031E-16,1.));
#1285=DIRECTION('',(4.2557842911944E-17,-9.59831506504031E-16,-1.));
#1286=DIRECTION('center_axis',(-1.15278086753693E-15,-5.39237168181866E-15,
1.));
#1287=DIRECTION('ref_axis',(-5.84428339056887E-15,1.,-9.59831506504031E-16));
#1288=DIRECTION('center_axis',(1.,1.07523658928633E-27,6.25364507681521E-15));
#1289=DIRECTION('ref_axis',(-1.11301133532562E-27,1.,5.9475725928339E-15));
#1290=DIRECTION('',(-1.0754619044162E-27,1.,3.60294079857502E-17));
#1291=DIRECTION('',(4.18944281038524E-15,1.,1.03734884642883E-13));
#1292=DIRECTION('',(6.25364507681521E-15,2.34468604387539E-14,-1.));
#1293=DIRECTION('',(-1.22186493263592E-27,1.,2.34468604387539E-14));
#1294=DIRECTION('',(-6.25364507681521E-15,-2.34468604387539E-14,1.));
#1295=DIRECTION('',(-7.05421928488891E-28,1.,-5.91358569690011E-14));
#1296=DIRECTION('',(1.1089585679067E-27,-1.,-5.39237168181866E-15));
#1297=DIRECTION('center_axis',(-6.90631235463471E-17,-3.60294079857502E-17,
1.));
#1298=DIRECTION('ref_axis',(-5.84428339056887E-15,1.,3.60294079857502E-17));
#1299=DIRECTION('center_axis',(-1.,-6.28663787694977E-15,1.06939990518699E-15));
#1300=DIRECTION('ref_axis',(1.06939990518714E-15,-2.34650750352495E-14,
1.));
#1301=DIRECTION('center_axis',(-1.15278086753693E-15,-5.39237168181866E-15,
1.));
#1302=DIRECTION('ref_axis',(-5.05151476202899E-15,-1.,-5.39237168181867E-15));
#1303=DIRECTION('center_axis',(1.47053451827968E-14,5.91358569690011E-14,
1.));
#1304=DIRECTION('ref_axis',(-5.64172195187213E-11,-1.,5.91358569698307E-14));
#1305=DIRECTION('',(-6.28663787694983E-15,1.,-5.9135856969001E-14));
#1306=DIRECTION('',(1.,6.2883726004422E-15,-1.47053451827972E-14));
#1307=DIRECTION('center_axis',(1.47053451827968E-14,5.91358569690011E-14,
1.));
#1308=DIRECTION('ref_axis',(-5.64172195187213E-11,-1.,5.91358569698307E-14));
#1309=DIRECTION('',(-6.28663787694983E-15,1.,-5.9135856969001E-14));
#1310=DIRECTION('',(-1.,-6.2883726004422E-15,1.47053451827972E-14));
#1311=DIRECTION('center_axis',(-1.,-6.28663787694977E-15,1.06939990518699E-15));
#1312=DIRECTION('ref_axis',(1.06939990518714E-15,-2.34650750352495E-14,
1.));
#1313=DIRECTION('',(-1.06939990518714E-15,2.34468604387517E-14,-1.));
#1314=DIRECTION('',(-6.28663787694974E-15,1.,2.34468604387517E-14));
#1315=DIRECTION('',(1.06939990518714E-15,-2.34468604387517E-14,1.));
#1316=DIRECTION('center_axis',(1.,-3.72965547332006E-16,1.15278086753695E-15));
#1317=DIRECTION('ref_axis',(-3.72965547331979E-16,-1.,-2.34650750352495E-14));
#1318=DIRECTION('',(1.,-3.72965547332006E-16,1.15278086753695E-15));
#1319=DIRECTION('center_axis',(-3.00271205997484E-15,-2.34468604387518E-14,
1.));
#1320=DIRECTION('ref_axis',(-6.31612817603507E-15,1.,2.34468604387517E-14));
#1321=DIRECTION('',(1.,6.316128176035E-15,3.00271205997499E-15));
#1322=DIRECTION('',(-1.,-6.316128176035E-15,-3.00271205997499E-15));
#1323=DIRECTION('center_axis',(-6.31612817603507E-15,1.,2.34468604387517E-14));
#1324=DIRECTION('ref_axis',(3.00271205997484E-15,2.34468604387518E-14,-1.));
#1325=DIRECTION('',(-1.,-6.31612817603508E-15,4.07838914453728E-16));
#1326=DIRECTION('center_axis',(4.07838914453876E-16,-2.34468604387539E-14,
1.));
#1327=DIRECTION('ref_axis',(6.28663787694105E-15,-1.,-2.34468604387539E-14));
#1328=DIRECTION('',(1.,6.31612817603508E-15,-4.07838914453728E-16));
#1329=DIRECTION('center_axis',(6.31612817603507E-15,-1.,-2.34468604387517E-14));
#1330=DIRECTION('ref_axis',(-3.00271205997484E-15,-2.34468604387518E-14,
1.));
#1331=CARTESIAN_POINT('',(0.,0.,0.));
#1332=CARTESIAN_POINT('Origin',(-6.34050880017183,107.436215507268,-34.8350905306364));
#1333=CARTESIAN_POINT('',(7.25932290141548,107.436215507268,-27.835090530636));
#1334=CARTESIAN_POINT('',(1.96457210580977,107.436215507267,-27.8350905306368));
#1335=CARTESIAN_POINT('',(-6.34050880023276,107.436215507268,-27.8350905306368));
#1336=CARTESIAN_POINT('',(7.25932290141548,107.436215507268,-35.3350905306367));
#1337=CARTESIAN_POINT('',(7.25932290141548,107.436215507268,-35.3350905306367));
#1338=CARTESIAN_POINT('',(-0.24059280021565,107.436215507268,-35.3350905306369));
#1339=CARTESIAN_POINT('',(5.85932290141548,107.436215507268,-35.3350905306367));
#1340=CARTESIAN_POINT('',(-0.240592800215627,107.436215507268,-34.8352664470769));
#1341=CARTESIAN_POINT('',(-0.240592800215644,107.436215507267,-30.2101784888553));
#1342=CARTESIAN_POINT('',(1.9594999999635,107.436215507268,-34.835266447077));
#1343=CARTESIAN_POINT('',(-5.39050880019383,107.436215507268,-34.8352664470769));
#1344=CARTESIAN_POINT('',(1.95949999996342,107.436215507267,-21.8352664470753));
#1345=CARTESIAN_POINT('',(1.95949999996341,107.436215507267,-20.6126784888546));
#1346=CARTESIAN_POINT('',(1.96457210580978,107.436215507267,-21.8352664470753));
#1347=CARTESIAN_POINT('',(-3.29055087478592,107.436215507268,-21.8352664470753));
#1348=CARTESIAN_POINT('',(1.96457210580515,107.436215507267,-10.835266447075));
#1349=CARTESIAN_POINT('Origin',(-6.89050880025477,109.936215476929,-25.3350905306367));
#1350=CARTESIAN_POINT('',(-0.240592800216392,109.47636392214,-25.7949420854256));
#1351=CARTESIAN_POINT('Origin',(-0.240504400126173,107.264620923907,-28.0066850836589));
#1352=CARTESIAN_POINT('',(-0.240592800216176,112.436215476929,-22.8350905306365));
#1353=CARTESIAN_POINT('',(-0.240592800216398,107.632469747819,-27.6388362597465));
#1354=CARTESIAN_POINT('',(7.25932290141546,112.436215476929,-22.8350905306364));
#1355=CARTESIAN_POINT('',(-6.89050880025479,112.436215476929,-22.8350905306365));
#1356=CARTESIAN_POINT('',(7.25932290141547,107.873693487373,-27.3976125201923));
#1357=CARTESIAN_POINT('Origin',(7.25932290141546,100.936215476926,-24.5851784888558));
#1358=CARTESIAN_POINT('',(7.2593229014155,112.436215476923,-8.83526644707516));
#1359=CARTESIAN_POINT('',(7.25932290141546,112.436215476929,-22.8350905306364));
#1360=CARTESIAN_POINT('',(7.25932290141546,89.4362154769227,-8.83526644707509));
#1361=CARTESIAN_POINT('',(7.2593229014155,112.436215476923,-8.83526644707516));
#1362=CARTESIAN_POINT('',(7.25932290141546,89.4362154769293,-22.835090530637));
#1363=CARTESIAN_POINT('',(7.25932290141546,89.4362154769227,-8.83526644707509));
#1364=CARTESIAN_POINT('',(7.25932290141546,94.4362155072678,-27.8350905306367));
#1365=CARTESIAN_POINT('',(7.25932290141546,93.9987374664831,-27.397612520191));
#1366=CARTESIAN_POINT('',(7.25932290141546,94.4362155072679,-35.3350905306369));
#1367=CARTESIAN_POINT('',(7.25932290141546,94.4362155072678,-27.8350905306367));
#1368=CARTESIAN_POINT('',(7.25932290141546,99.4362155072678,-40.3350905306368));
#1369=CARTESIAN_POINT('Origin',(7.25932290141546,99.4362155072678,-35.3350905306369));
#1370=CARTESIAN_POINT('',(7.25932290141546,102.436215507268,-40.3350905306369));
#1371=CARTESIAN_POINT('',(7.25932290141546,99.4362155072678,-40.3350905306368));
#1372=CARTESIAN_POINT('Origin',(7.25932290141546,102.436215507268,-35.3350905306369));
#1373=CARTESIAN_POINT('',(7.25932290141546,102.936215507269,-37.3350905306371));
#1374=CARTESIAN_POINT('',(7.25932290141546,98.9362155072688,-37.3350905306371));
#1375=CARTESIAN_POINT('',(7.25932290141546,102.936215507269,-37.3350905306371));
#1376=CARTESIAN_POINT('',(7.25932290141546,98.9362155072685,-34.8350905306376));
#1377=CARTESIAN_POINT('',(7.25932290141546,98.9362155072688,-37.3350905306371));
#1378=CARTESIAN_POINT('',(7.25932290141546,102.936215507269,-34.8350905306373));
#1379=CARTESIAN_POINT('',(7.25932290141546,98.9362155072685,-34.8350905306376));
#1380=CARTESIAN_POINT('',(7.25932290141546,102.936215507269,-34.8350905306373));
#1381=CARTESIAN_POINT('',(7.25932290141546,97.9214084769147,-30.3852664470759));
#1382=CARTESIAN_POINT('',(7.25932290141546,97.9214084769147,-24.2852664470759));
#1383=CARTESIAN_POINT('',(7.25932290141546,97.9214084769147,-24.2852664470759));
#1384=CARTESIAN_POINT('',(7.25932290141546,104.021408476915,-24.2852664470759));
#1385=CARTESIAN_POINT('',(7.25932290141546,104.021408476915,-24.2852664470759));
#1386=CARTESIAN_POINT('',(7.25932290141546,104.021408476915,-30.3852664470759));
#1387=CARTESIAN_POINT('',(7.25932290141546,104.021408476915,-30.3852664470759));
#1388=CARTESIAN_POINT('',(7.25932290141546,97.9214084769147,-30.3852664470759));
#1389=CARTESIAN_POINT('',(7.25932290141546,102.221408476928,-17.5102664470748));
#1390=CARTESIAN_POINT('Origin',(7.25932290141546,100.971408476928,-17.5102664470747));
#1391=CARTESIAN_POINT('Origin',(-7.44050880021586,112.436215476929,-22.8171276711954));
#1392=CARTESIAN_POINT('',(-0.240592800216781,112.436215476922,-8.83526644707518));
#1393=CARTESIAN_POINT('',(-0.240592800216177,112.436215476929,-24.2011970591352));
#1394=CARTESIAN_POINT('',(5.8593229014155,112.436215476923,-8.83526644707516));
#1395=CARTESIAN_POINT('Origin',(-7.44050880021573,89.4362154769295,-40.0122664470757));
#1396=CARTESIAN_POINT('',(-0.240592800216042,89.4362154769292,-22.8350905306371));
#1397=CARTESIAN_POINT('',(-6.89050880025474,89.4362154769291,-22.8350905306371));
#1398=CARTESIAN_POINT('',(-0.240592800216657,89.4362154769226,-8.83526644707518));
#1399=CARTESIAN_POINT('',(-0.240592800216657,89.4362154769226,-8.83526644707518));
#1400=CARTESIAN_POINT('',(-0.240592800216657,89.4362154769226,-10.8352664470752));
#1401=CARTESIAN_POINT('Origin',(5.05932290141556,100.971408476929,-27.3352664470758));
#1402=CARTESIAN_POINT('',(5.05932290141556,100.971408476929,-25.8352664470763));
#1403=CARTESIAN_POINT('Origin',(5.05932290141556,100.971408476929,-27.3352664470763));
#1404=CARTESIAN_POINT('Origin',(5.85932290141546,104.021408476915,-30.3852664470759));
#1405=CARTESIAN_POINT('',(5.35932290141556,97.9214084769147,-30.3852664470755));
#1406=CARTESIAN_POINT('',(5.35932290141556,104.021408476915,-30.3852664470755));
#1407=CARTESIAN_POINT('',(5.35932290141535,90.4061998383889,-30.3852664470755));
#1408=CARTESIAN_POINT('',(5.85932290141546,97.9214084769147,-30.3852664470759));
#1409=CARTESIAN_POINT('',(5.85932290141546,104.021408476915,-30.3852664470759));
#1410=CARTESIAN_POINT('Origin',(5.85932290141546,104.021408476915,-24.2852664470759));
#1411=CARTESIAN_POINT('',(5.35932290141556,104.021408476915,-24.2852664470755));
#1412=CARTESIAN_POINT('',(5.35932290141534,104.021408476915,-30.8602664470756));
#1413=CARTESIAN_POINT('',(5.85932290141546,104.021408476915,-24.2852664470759));
#1414=CARTESIAN_POINT('Origin',(5.85932290141546,97.9214084769147,-24.2852664470759));
#1415=CARTESIAN_POINT('',(5.35932290141556,97.9214084769147,-24.2852664470755));
#1416=CARTESIAN_POINT('',(5.35932290141536,87.3561998383889,-24.2852664470755));
#1417=CARTESIAN_POINT('',(5.85932290141546,97.9214084769147,-24.2852664470759));
#1418=CARTESIAN_POINT('Origin',(5.85932290141546,97.9214084769147,-30.3852664470759));
#1419=CARTESIAN_POINT('',(5.35932290141535,97.9214084769147,-33.9102664470756));
#1420=CARTESIAN_POINT('Origin',(0.959322901415378,100.971408476929,-27.3352664470763));
#1421=CARTESIAN_POINT('',(1.95949999996256,100.971408476929,-25.8352664470763));
#1422=CARTESIAN_POINT('',(0.959322901415379,100.971408476929,-25.8352664470763));
#1423=CARTESIAN_POINT('Origin',(1.95949999996256,100.971408476929,-27.3352664470763));
#1424=CARTESIAN_POINT('Origin',(-0.24050440012708,96.6211960299455,-10.8352664470748));
#1425=CARTESIAN_POINT('',(-0.240592800216295,93.9211960313926,-10.835266447075));
#1426=CARTESIAN_POINT('',(-0.240592800216304,93.9211960313926,-19.835266447075));
#1427=CARTESIAN_POINT('',(-0.240592800216295,93.9211960313926,-10.8352664470748));
#1428=CARTESIAN_POINT('',(-0.240592800216329,99.3211960284983,-10.835266447075));
#1429=CARTESIAN_POINT('Origin',(-0.24050440012708,96.6211960299455,-10.835266447075));
#1430=CARTESIAN_POINT('',(-0.240592800216338,99.3211960284983,-19.835266447075));
#1431=CARTESIAN_POINT('',(-0.240592800216329,99.3211960284983,-10.8352664470748));
#1432=CARTESIAN_POINT('Origin',(-0.240504400127062,96.6211960299455,-19.835266447075));
#1433=CARTESIAN_POINT('Origin',(-0.240592800216355,100.971408476929,-25.5852664470755));
#1434=CARTESIAN_POINT('',(-0.240592800215769,98.3211960276737,-19.8352664470748));
#1435=CARTESIAN_POINT('',(-0.240592800216335,98.7963465280741,-19.835266447075));
#1436=CARTESIAN_POINT('',(-0.240592800217119,98.1211960273407,-10.8352664470749));
#1437=CARTESIAN_POINT('',(-0.240592800216325,98.7963465280741,-10.835266447075));
#1438=CARTESIAN_POINT('',(-0.240592800217119,98.1211960273407,-8.8352664470749));
#1439=CARTESIAN_POINT('',(-0.240592800217119,98.1211960273407,-10.8352664470749));
#1440=CARTESIAN_POINT('',(-0.24059280021719,103.821620926505,-8.83526644707497));
#1441=CARTESIAN_POINT('',(-0.240592800217261,109.764620922337,-8.83526644707518));
#1442=CARTESIAN_POINT('',(-0.24059280021719,103.821620926505,-10.835266447075));
#1443=CARTESIAN_POINT('',(-0.24059280021719,103.821620926505,-10.835266447075));
#1444=CARTESIAN_POINT('',(-0.240592800216349,102.621620925347,-10.8352664470749));
#1445=CARTESIAN_POINT('',(-0.240592800216353,103.146558975051,-10.8352664470749));
#1446=CARTESIAN_POINT('',(-0.240592800216359,102.621620925347,-19.8352664470749));
#1447=CARTESIAN_POINT('',(-0.240592800216349,102.621620925347,-10.8352664470746));
#1448=CARTESIAN_POINT('',(-0.240592800215822,103.621620926184,-19.8352664470749));
#1449=CARTESIAN_POINT('',(-0.240592800216363,103.146558975051,-19.8352664470749));
#1450=CARTESIAN_POINT('',(-0.240592800216326,103.621620926205,-20.628266447075));
#1451=CARTESIAN_POINT('',(-0.240592800216325,103.621620926205,-20.8352664470748));
#1452=CARTESIAN_POINT('',(-0.240592800216346,103.349254844205,-21.2858163354021));
#1453=CARTESIAN_POINT('Ctrl Pts',(-0.240592800216346,103.349254844205,-21.2858163354021));
#1454=CARTESIAN_POINT('Ctrl Pts',(-0.240592800216325,103.495538087757,-20.9326573452274));
#1455=CARTESIAN_POINT('Ctrl Pts',(-0.240592800216326,103.621620926205,-20.628266447075));
#1456=CARTESIAN_POINT('',(-0.240592800216347,98.5935621096526,-21.2858163354023));
#1457=CARTESIAN_POINT('Origin',(-0.240592800216353,100.971408476929,-27.335266447076));
#1458=CARTESIAN_POINT('',(-0.240592800215769,98.3211960276737,-20.628266447075));
#1459=CARTESIAN_POINT('Ctrl Pts',(-0.240592800215769,98.3211960276737,-20.628266447075));
#1460=CARTESIAN_POINT('Ctrl Pts',(-0.240592800215906,98.4472788661252,-20.9326573452466));
#1461=CARTESIAN_POINT('Ctrl Pts',(-0.240592800216347,98.5935621096526,-21.2858163354023));
#1462=CARTESIAN_POINT('',(-0.240592800215769,98.3211960276737,-20.8352664470748));
#1463=CARTESIAN_POINT('',(-0.240592800216364,102.221408476928,-17.5102664470748));
#1464=CARTESIAN_POINT('Origin',(-0.240592800216364,100.971408476928,-17.5102664470749));
#1465=CARTESIAN_POINT('Origin',(-0.240504400127222,105.3216209239,-10.8352664470746));
#1466=CARTESIAN_POINT('',(-0.240592800216383,108.021620922453,-10.8352664470749));
#1467=CARTESIAN_POINT('Origin',(-0.240504400127222,105.3216209239,-10.8352664470749));
#1468=CARTESIAN_POINT('',(-0.240592800216393,108.021620922453,-19.8352664470749));
#1469=CARTESIAN_POINT('',(-0.240592800216383,108.021620922453,-10.8352664470746));
#1470=CARTESIAN_POINT('Origin',(-0.240504400127204,105.3216209239,-19.8352664470749));
#1471=CARTESIAN_POINT('Origin',(-0.240592800216355,100.971408476929,-25.5852664470755));
#1472=CARTESIAN_POINT('',(-0.240592800215822,107.021620921628,-20.628266447075));
#1473=CARTESIAN_POINT('',(-0.240592800216126,107.521545416429,-21.835190941374));
#1474=CARTESIAN_POINT('Ctrl Pts',(-0.240592800215822,107.021620921628,-20.628266447075));
#1475=CARTESIAN_POINT('Ctrl Pts',(-0.24059280021607,107.239540946069,-21.1543719249329));
#1476=CARTESIAN_POINT('Ctrl Pts',(-0.240592800216126,107.521545416425,-21.835190941372));
#1477=CARTESIAN_POINT('',(-0.240592800215822,107.021620921628,-19.8352664470748));
#1478=CARTESIAN_POINT('',(-0.240592800215822,107.021620921628,-20.8352664470748));
#1479=CARTESIAN_POINT('',(-0.240592800216363,103.146558975051,-19.8352664470749));
#1480=CARTESIAN_POINT('',(-0.240592800217208,106.821620921295,-10.835266447075));
#1481=CARTESIAN_POINT('',(-0.240592800216353,103.146558975051,-10.8352664470749));
#1482=CARTESIAN_POINT('',(-0.240592800217208,106.821620921295,-8.83526644707497));
#1483=CARTESIAN_POINT('',(-0.240592800217208,106.821620921295,-10.835266447075));
#1484=CARTESIAN_POINT('',(-0.240592800216781,112.436215476922,-8.83526644707518));
#1485=CARTESIAN_POINT('',(-0.240592800216137,109.476363922152,-21.8352664470753));
#1486=CARTESIAN_POINT('',(-0.240592800216393,109.47636392214,-10.835266447075));
#1487=CARTESIAN_POINT('',(-0.240592800216071,97.82480225344,-21.8352664470753));
#1488=CARTESIAN_POINT('Origin',(-0.240504400125925,105.321620923906,-21.2317286942245));
#1489=CARTESIAN_POINT('',(1.95942009417284,105.321620923906,-21.835190941374));
#1490=CARTESIAN_POINT('Origin',(-0.240504400125924,105.321620923906,-21.835190941374));
#1491=CARTESIAN_POINT('',(1.7730194011679,104.43539355765,-21.8351930458608));
#1492=CARTESIAN_POINT('Origin',(-0.240504400125924,105.321620923906,-21.835190941374));
#1493=CARTESIAN_POINT('Ctrl Pts',(1.77301563025222,104.43539021268,-21.8351909444682));
#1494=CARTESIAN_POINT('Ctrl Pts',(1.72959943131967,104.375519433032,-21.7974839553356));
#1495=CARTESIAN_POINT('Ctrl Pts',(1.68326175703199,104.316123994047,-21.7614440101388));
#1496=CARTESIAN_POINT('Ctrl Pts',(1.42280255385495,104.008583106608,-21.5812421859504));
#1497=CARTESIAN_POINT('Ctrl Pts',(1.14096670112033,103.768241211266,-21.4649781549285));
#1498=CARTESIAN_POINT('Ctrl Pts',(0.487759327668116,103.438268907951,-21.3188590561937));
#1499=CARTESIAN_POINT('Ctrl Pts',(0.116793616140002,103.349254842502,-21.2858163347324));
#1500=CARTESIAN_POINT('Ctrl Pts',(-0.240533866729782,103.349254842502,-21.2858163347324));
#1501=CARTESIAN_POINT('Ctrl Pts',(-0.2405633334266,103.34925484307,-21.2858163349556));
#1502=CARTESIAN_POINT('Ctrl Pts',(-0.240592800216346,103.349254844205,-21.2858163354021));
#1503=CARTESIAN_POINT('Origin',(-0.240504400125925,105.321620923906,-20.628266447075));
#1504=CARTESIAN_POINT('Origin',(-0.240504400125925,105.321620923906,-20.8352664470748));
#1505=CARTESIAN_POINT('Origin',(-0.240504400125926,105.321620923906,-19.8352664470748));
#1506=CARTESIAN_POINT('Origin',(1.95949999996276,100.971408476929,-27.335266447076));
#1507=CARTESIAN_POINT('',(1.77301940116769,97.5074233962086,-21.8351930458608));
#1508=CARTESIAN_POINT('Ctrl Pts',(-0.240592800216347,98.5935621096526,-21.2858163354023));
#1509=CARTESIAN_POINT('Ctrl Pts',(-0.240563333426559,98.5935621107884,-21.2858163349559));
#1510=CARTESIAN_POINT('Ctrl Pts',(-0.2405338667297,98.5935621113563,-21.2858163347327));
#1511=CARTESIAN_POINT('Ctrl Pts',(0.116793616140099,98.5935621113563,-21.2858163347327));
#1512=CARTESIAN_POINT('Ctrl Pts',(0.487759327668236,98.5045480459067,-21.318859056194));
#1513=CARTESIAN_POINT('Ctrl Pts',(1.14096670112044,98.1745757425923,-21.4649781549288));
#1514=CARTESIAN_POINT('Ctrl Pts',(1.42280255385503,97.9342338472505,-21.5812421859507));
#1515=CARTESIAN_POINT('Ctrl Pts',(1.68326175703197,97.6266929598118,-21.761444010139));
#1516=CARTESIAN_POINT('Ctrl Pts',(1.72959943131952,97.5672975208265,-21.7974839553357));
#1517=CARTESIAN_POINT('Ctrl Pts',(1.77301563025198,97.5074267411788,-21.8351909444682));
#1518=CARTESIAN_POINT('',(1.95949999996268,104.435510092066,-21.835266447075));
#1519=CARTESIAN_POINT('',(1.95949999996275,104.435510092066,-21.8352664470753));
#1520=CARTESIAN_POINT('',(1.95949999996268,97.5073068617933,-21.835266447075));
#1521=CARTESIAN_POINT('Origin',(1.95949999996276,100.971408476929,-27.335266447076));
#1522=CARTESIAN_POINT('',(1.95949999996275,97.5073068617928,-21.8352664470753));
#1523=CARTESIAN_POINT('Origin',(-0.240504400125801,96.6211960299516,-21.2317286942245));
#1524=CARTESIAN_POINT('',(1.95942009417298,96.6211960299517,-21.835190941374));
#1525=CARTESIAN_POINT('Origin',(-0.2405044001258,96.6211960299516,-21.835190941374));
#1526=CARTESIAN_POINT('',(-0.24059280021631,94.421271537429,-21.835190941374));
#1527=CARTESIAN_POINT('Origin',(-0.2405044001258,96.6211960299516,-21.835190941374));
#1528=CARTESIAN_POINT('',(-0.240592800216246,94.9211960322501,-20.628266447075));
#1529=CARTESIAN_POINT('Ctrl Pts',(-0.24059280021631,94.421271537429,-21.835190941374));
#1530=CARTESIAN_POINT('Ctrl Pts',(-0.24059280021631,94.5748864828506,-21.4643316570534));
#1531=CARTESIAN_POINT('Ctrl Pts',(-0.240592800216246,94.8210864540181,-20.8699523482395));
#1532=CARTESIAN_POINT('Ctrl Pts',(-0.240592800216246,94.9211960322501,-20.628266447075));
#1533=CARTESIAN_POINT('Origin',(-0.240504400125801,96.6211960299517,-20.628266447075));
#1534=CARTESIAN_POINT('Origin',(-0.240592949399971,100.971408476928,-21.8352664470753));
#1535=CARTESIAN_POINT('Origin',(-0.240504400126173,107.264620923907,-21.8352664470753));
#1536=CARTESIAN_POINT('',(1.95949999996268,87.7857042384644,-21.835266447075));
#1537=CARTESIAN_POINT('Origin',(-0.240592949399971,100.971408476928,-21.8352664470753));
#1538=CARTESIAN_POINT('',(1.95949999996268,87.7857042384644,-21.835266447075));
#1539=CARTESIAN_POINT('Origin',(-0.240592949399971,100.971408476928,-21.8352664470753));
#1540=CARTESIAN_POINT('',(1.95949999996268,94.4506268368716,-21.835266447075));
#1541=CARTESIAN_POINT('',(1.95949999996268,87.7857042384644,-21.835266447075));
#1542=CARTESIAN_POINT('',(-0.240592800216297,92.4664530317069,-21.8352664470753));
#1543=CARTESIAN_POINT('Origin',(-0.240504400126049,94.678196029952,-21.8352664470753));
#1544=CARTESIAN_POINT('',(-0.240592800216351,100.971408476929,-21.8352664470753));
#1545=CARTESIAN_POINT('Origin',(-0.240504400125801,96.6211960299517,-20.8352664470747));
#1546=CARTESIAN_POINT('',(-0.240592800215733,94.9211960322297,-19.8352664470748));
#1547=CARTESIAN_POINT('',(-0.240592800216246,94.9211960322501,-20.8352664470747));
#1548=CARTESIAN_POINT('Origin',(-0.240504400125802,96.6211960299517,-19.8352664470748));
#1549=CARTESIAN_POINT('Origin',(2.80936505059907,100.936215476923,-10.8352664470752));
#1550=CARTESIAN_POINT('',(-0.240592800217101,95.1211960325504,-10.8352664470749));
#1551=CARTESIAN_POINT('Origin',(-0.240504400126849,96.6211960299456,-10.8352664470749));
#1552=CARTESIAN_POINT('',(-0.240592800216325,98.7963465280741,-10.835266447075));
#1553=CARTESIAN_POINT('Origin',(-0.240592949399723,100.971408476928,-19.835266447075));
#1554=CARTESIAN_POINT('Origin',(-0.240592949399723,100.971408476928,-19.835266447075));
#1555=CARTESIAN_POINT('',(-0.240592800216335,98.7963465280741,-19.835266447075));
#1556=CARTESIAN_POINT('Origin',(2.80936505059907,100.936215476923,-10.8352664470752));
#1557=CARTESIAN_POINT('Origin',(-0.240504400126991,105.3216209239,-10.835266447075));
#1558=CARTESIAN_POINT('Origin',(-0.240504400126849,96.6211960299456,-10.8352664470749));
#1559=CARTESIAN_POINT('',(-0.240592800217101,95.1211960325504,-8.8352664470749));
#1560=CARTESIAN_POINT('',(-0.240592800217101,95.1211960325504,-10.8352664470749));
#1561=CARTESIAN_POINT('Origin',(-0.240504400126849,96.6211960299456,-8.8352664470749));
#1562=CARTESIAN_POINT('Origin',(-0.240504400126991,105.3216209239,-10.835266447075));
#1563=CARTESIAN_POINT('Origin',(-0.240504400126991,105.3216209239,-8.83526644707497));
#1564=CARTESIAN_POINT('Origin',(2.80936505059907,100.936215476923,-8.83526644707518));
#1565=CARTESIAN_POINT('',(-0.240592800217261,109.764620922337,-8.83526644707518));
#1566=CARTESIAN_POINT('Origin',(-6.34050880006093,102.436215507268,-35.335090530637));
#1567=CARTESIAN_POINT('',(-0.24059280021638,102.436215507268,-40.335090530637));
#1568=CARTESIAN_POINT('Origin',(-0.240592800216353,102.436215507268,-35.335090530637));
#1569=CARTESIAN_POINT('',(-6.34050880006092,102.436215507268,-40.335090530637));
#1570=CARTESIAN_POINT('Origin',(-6.34050879995007,105.936215507268,-40.335090530637));
#1571=CARTESIAN_POINT('',(-0.240592800216361,99.4362155072677,-40.335090530637));
#1572=CARTESIAN_POINT('',(-6.34050880018006,99.4362155072677,-40.335090530637));
#1573=CARTESIAN_POINT('',(-0.240592800216386,103.453811992098,-40.335090530637));
#1574=CARTESIAN_POINT('Origin',(5.35932290141536,76.7909911998631,-37.4352664470758));
#1575=CARTESIAN_POINT('Origin',(-6.34050880018006,99.4362155072677,-35.335090530637));
#1576=CARTESIAN_POINT('',(-0.240592800215629,94.4362155072678,-35.3350905306371));
#1577=CARTESIAN_POINT('',(5.85932290141546,94.4362155072679,-35.3350905306369));
#1578=CARTESIAN_POINT('Origin',(-0.240592800216335,99.4362155072677,-35.3350905306369));
#1579=CARTESIAN_POINT('Origin',(-6.34050880041006,94.4362155072678,-40.3350905306364));
#1580=CARTESIAN_POINT('',(1.95949999996372,94.4362155072673,-27.8350905306372));
#1581=CARTESIAN_POINT('',(-6.61550880033242,94.4362155072675,-27.8350905609755));
#1582=CARTESIAN_POINT('',(1.95949999996349,94.4362155072677,-34.8352664470766));
#1583=CARTESIAN_POINT('',(1.95949999996373,94.4362155072678,-34.8350905306367));
#1584=CARTESIAN_POINT('',(-0.240592800215573,94.4362155072677,-34.8352664470765));
#1585=CARTESIAN_POINT('',(-5.3905088003129,94.4362155072677,-34.8352664470764));
#1586=CARTESIAN_POINT('',(-0.240592800215627,94.4362155072676,-32.9601784888559));
#1587=CARTESIAN_POINT('Origin',(-0.240504400126174,107.264620923907,-10.835266447075));
#1588=CARTESIAN_POINT('Origin',(-6.89050880025475,91.9362154769292,-25.3350905306372));
#1589=CARTESIAN_POINT('',(-0.240592800216285,92.4664530317186,-25.8653280854265));
#1590=CARTESIAN_POINT('',(-0.240592800216315,94.2575577060387,-27.6564327597466));
#1591=CARTESIAN_POINT('',(1.95796154457445,94.4362154769293,-27.8350905306372));
#1592=CARTESIAN_POINT('Origin',(-0.240504400126049,94.678196029952,-28.0770710836599));
#1593=CARTESIAN_POINT('',(-6.89050880025476,94.4362154769293,-27.8350905306373));
#1594=CARTESIAN_POINT('Origin',(-0.240504400126049,94.678196029952,-10.835266447075));
#1595=CARTESIAN_POINT('',(-0.240592800216286,92.4664530317186,-10.835266447075));
#1596=CARTESIAN_POINT('',(1.95949999996271,94.450626836872,-27.8350905306372));
#1597=CARTESIAN_POINT('',(1.95949999996261,94.450626836871,-10.835266447075));
#1598=CARTESIAN_POINT('Origin',(-0.240504400126049,94.678196029952,-27.8350905306372));
#1599=CARTESIAN_POINT('Origin',(1.95949999996258,74.6,-6.3902664470762));
#1600=CARTESIAN_POINT('',(1.95949999996268,87.7857042384644,-21.835266447075));
#1601=CARTESIAN_POINT('',(1.95949999996306,102.936215507268,-34.8352664470772));
#1602=CARTESIAN_POINT('',(1.95949999996301,105.936215507268,-34.8352664470775));
#1603=CARTESIAN_POINT('',(1.95949999996307,102.936215507268,-34.8350905306376));
#1604=CARTESIAN_POINT('',(1.95949999996301,102.936215507268,-26.8991784888564));
#1605=CARTESIAN_POINT('',(1.95949999996304,98.9362155072682,-34.835090530638));
#1606=CARTESIAN_POINT('',(1.95949999996276,91.5181077536342,-34.8350905306384));
#1607=CARTESIAN_POINT('',(1.95949999996304,98.936215507268,-34.8352664470769));
#1608=CARTESIAN_POINT('',(1.95949999996297,98.9362155072678,-24.3991784888566));
#1609=CARTESIAN_POINT('',(1.95949999996276,93.7157199073346,-34.835266447077));
#1610=CARTESIAN_POINT('',(1.95949999996271,85.2681077536339,-27.8350905306373));
#1611=CARTESIAN_POINT('Origin',(-0.240592949399971,100.971408476928,-21.8352664470753));
#1612=CARTESIAN_POINT('Origin',(-0.240592800216355,100.971408476929,-25.5852664470755));
#1613=CARTESIAN_POINT('Origin',(-6.34050880029376,95.9362155072677,-27.8350905306372));
#1614=CARTESIAN_POINT('Origin',(-4.44050880021658,112.831439814671,-34.835266447078));
#1615=CARTESIAN_POINT('',(-0.240592800216352,98.936215507268,-34.8352664470767));
#1616=CARTESIAN_POINT('',(-0.240592800216402,106.9014241458,-34.8352664470777));
#1617=CARTESIAN_POINT('',(-5.94050880025522,98.936215507268,-34.8352664470767));
#1618=CARTESIAN_POINT('Origin',(-4.44050880021658,112.831439814671,-34.835266447078));
#1619=CARTESIAN_POINT('',(-0.240592800216377,102.936215507268,-34.8352664470772));
#1620=CARTESIAN_POINT('',(-0.240592800216402,106.9014241458,-34.8352664470777));
#1621=CARTESIAN_POINT('',(-5.94050880017714,102.936215507268,-34.8352664470772));
#1622=CARTESIAN_POINT('Origin',(-0.240592800216355,100.971408476929,-25.5852664470755));
#1623=CARTESIAN_POINT('',(-0.240592800216354,98.9362155072684,-37.3350905306378));
#1624=CARTESIAN_POINT('',(-0.240592800216351,98.9362155072683,-33.9966784888567));
#1625=CARTESIAN_POINT('',(-0.240592800216379,102.936215507269,-37.3350905306377));
#1626=CARTESIAN_POINT('',(-0.240592800216343,97.2038119920985,-37.3350905306378));
#1627=CARTESIAN_POINT('',(-0.240592800216379,102.936215507269,-36.4966784888566));
#1628=CARTESIAN_POINT('Origin',(-3.14050880021549,100.971408476928,-17.5102664470749));
#1629=CARTESIAN_POINT('',(-3.14050880021549,102.221408476928,-17.5102664470748));
#1630=CARTESIAN_POINT('Origin',(-7.44050880029435,93.436215507268,-37.3350905306379));
#1631=CARTESIAN_POINT('',(-7.44050880029435,98.9362155072684,-37.3350905306378));
#1632=CARTESIAN_POINT('',(-7.44050880021632,102.936215507269,-37.3350905306377));
#1633=CARTESIAN_POINT('Origin',(-7.44050880029434,98.9362155072685,-42.4080905306378));
#1634=CARTESIAN_POINT('',(-7.44050880029449,98.9362155072683,-34.8350905306382));
#1635=CARTESIAN_POINT('Origin',(-7.44050880029469,108.436215507268,-34.835090530638));
#1636=CARTESIAN_POINT('',(-7.44050880021645,102.936215507269,-34.8350905306381));
#1637=CARTESIAN_POINT('Origin',(-7.44050880013824,102.936215507269,-47.4080905306378));
#1638=UNCERTAINTY_MEASURE_WITH_UNIT(LENGTH_MEASURE(0.01),#1642,
'DISTANCE_ACCURACY_VALUE',
'Maximum model space distance between geometric entities at asserted c
onnectivities');
#1639=UNCERTAINTY_MEASURE_WITH_UNIT(LENGTH_MEASURE(0.01),#1642,
'DISTANCE_ACCURACY_VALUE',
'Maximum model space distance between geometric entities at asserted c
onnectivities');
#1640=(
GEOMETRIC_REPRESENTATION_CONTEXT(3)
GLOBAL_UNCERTAINTY_ASSIGNED_CONTEXT((#1638))
GLOBAL_UNIT_ASSIGNED_CONTEXT((#1642,#1644,#1645))
REPRESENTATION_CONTEXT('','3D')
);
#1641=(
GEOMETRIC_REPRESENTATION_CONTEXT(3)
GLOBAL_UNCERTAINTY_ASSIGNED_CONTEXT((#1639))
GLOBAL_UNIT_ASSIGNED_CONTEXT((#1642,#1644,#1645))
REPRESENTATION_CONTEXT('','3D')
);
#1642=(
LENGTH_UNIT()
NAMED_UNIT(*)
SI_UNIT(.MILLI.,.METRE.)
);
#1643=(
LENGTH_UNIT()
NAMED_UNIT(*)
SI_UNIT($,.METRE.)
);
#1644=(
NAMED_UNIT(*)
PLANE_ANGLE_UNIT()
SI_UNIT($,.RADIAN.)
);
#1645=(
NAMED_UNIT(*)
SI_UNIT($,.STERADIAN.)
SOLID_ANGLE_UNIT()
);
#1646=SHAPE_DEFINITION_REPRESENTATION(#1647,#1648);
#1647=PRODUCT_DEFINITION_SHAPE('',$,#1650);
#1648=SHAPE_REPRESENTATION('',(#984),#1640);
#1649=PRODUCT_DEFINITION_CONTEXT('part definition',#1654,'design');
#1650=PRODUCT_DEFINITION('end-pulley-bottom','end-pulley-bottom',#1651,
#1649);
#1651=PRODUCT_DEFINITION_FORMATION('',$,#1656);
#1652=PRODUCT_RELATED_PRODUCT_CATEGORY('end-pulley-bottom',
'end-pulley-bottom',(#1656));
#1653=APPLICATION_PROTOCOL_DEFINITION('international standard',
'automotive_design',2009,#1654);
#1654=APPLICATION_CONTEXT(
'Core Data for Automotive Mechanical Design Process');
#1655=PRODUCT_CONTEXT('part definition',#1654,'mechanical');
#1656=PRODUCT('end-pulley-bottom','end-pulley-bottom',$,(#1655));
#1657=PRESENTATION_STYLE_ASSIGNMENT((#1660));
#1658=PRESENTATION_STYLE_ASSIGNMENT((#1661));
#1659=PRESENTATION_STYLE_ASSIGNMENT((#1662));
#1660=SURFACE_STYLE_USAGE(.BOTH.,#1663);
#1661=SURFACE_STYLE_USAGE(.BOTH.,#1664);
#1662=SURFACE_STYLE_USAGE(.BOTH.,#1665);
#1663=SURFACE_SIDE_STYLE('',(#1666));
#1664=SURFACE_SIDE_STYLE('',(#1667));
#1665=SURFACE_SIDE_STYLE('',(#1668));
#1666=SURFACE_STYLE_FILL_AREA(#1669);
#1667=SURFACE_STYLE_FILL_AREA(#1670);
#1668=SURFACE_STYLE_FILL_AREA(#1671);
#1669=FILL_AREA_STYLE('Steel - Satin',(#1672));
#1670=FILL_AREA_STYLE('ABS (White)',(#1673));
#1671=FILL_AREA_STYLE('Paint - Enamel Glossy (Red)',(#1674));
#1672=FILL_AREA_STYLE_COLOUR('Steel - Satin',#1675);
#1673=FILL_AREA_STYLE_COLOUR('ABS (White)',#1676);
#1674=FILL_AREA_STYLE_COLOUR('Paint - Enamel Glossy (Red)',#1677);
#1675=COLOUR_RGB('Steel - Satin',0.627450980392157,0.627450980392157,0.627450980392157);
#1676=COLOUR_RGB('ABS (White)',0.964705882352941,0.964705882352941,0.952941176470588);
#1677=COLOUR_RGB('Paint - Enamel Glossy (Red)',0.768627450980392,0.207843137254902,
0.152941176470588);
ENDSEC;
END-ISO-10303-21;
