ISO-10303-21;
HEADER;
/* Generated by software containing ST-Developer
 * from STEP Tools, Inc. (www.steptools.com) 
 */

FILE_DESCRIPTION(
/* description */ (''),
/* implementation_level */ '2;1');

FILE_NAME(
/* name */ 'mount-top-left.step',
/* time_stamp */ '2026-02-02T10:19:38-08:00',
/* author */ (''),
/* organization */ (''),
/* preprocessor_version */ 'ST-DEVELOPER v20.1',
/* originating_system */ 'Autodesk Translation Framework v14.24.0.0',
/* authorisation */ '');

FILE_SCHEMA (('AUTOMOTIVE_DESIGN { 1 0 10303 214 3 1 1 }'));
ENDSEC;

DATA;
#10=MECHANICAL_DESIGN_GEOMETRIC_PRESENTATION_REPRESENTATION('',(#13),#1408);
#11=SHAPE_REPRESENTATION_RELATIONSHIP('SRR','None',#1415,#12);
#12=ADVANCED_BREP_SHAPE_REPRESENTATION('',(#14),#1407);
#13=STYLED_ITEM('',(#1425),#14);
#14=MANIFOLD_SOLID_BREP('Body2',#848);
#15=CONICAL_SURFACE('',#916,2.49999999999999,0.785398163397433);
#16=CONICAL_SURFACE('',#932,2.50000000000012,0.785398163397468);
#17=CYLINDRICAL_SURFACE('',#886,3.00000000000001);
#18=CYLINDRICAL_SURFACE('',#908,1.7);
#19=CYLINDRICAL_SURFACE('',#912,2.75);
#20=CYLINDRICAL_SURFACE('',#913,1.5);
#21=CYLINDRICAL_SURFACE('',#914,2.);
#22=CYLINDRICAL_SURFACE('',#917,2.6);
#23=CYLINDRICAL_SURFACE('',#926,1.7);
#24=CYLINDRICAL_SURFACE('',#927,1.25);
#25=CYLINDRICAL_SURFACE('',#928,2.75);
#26=CYLINDRICAL_SURFACE('',#929,1.49999999999999);
#27=CYLINDRICAL_SURFACE('',#930,2.);
#28=CYLINDRICAL_SURFACE('',#933,2.6);
#29=FACE_BOUND('',#281,.T.);
#30=FACE_BOUND('',#282,.T.);
#31=FACE_BOUND('',#283,.T.);
#32=FACE_BOUND('',#288,.T.);
#33=FACE_BOUND('',#289,.T.);
#34=FACE_BOUND('',#290,.T.);
#35=FACE_BOUND('',#294,.T.);
#36=FACE_BOUND('',#296,.T.);
#37=FACE_BOUND('',#297,.T.);
#38=FACE_BOUND('',#300,.T.);
#39=FACE_BOUND('',#301,.T.);
#40=FACE_BOUND('',#305,.T.);
#41=FACE_BOUND('',#315,.T.);
#42=ELLIPSE('',#877,4.24264068716492,3.00000000000001);
#43=LINE('',#1176,#132);
#44=LINE('',#1178,#133);
#45=LINE('',#1180,#134);
#46=LINE('',#1181,#135);
#47=LINE('',#1184,#136);
#48=LINE('',#1186,#137);
#49=LINE('',#1188,#138);
#50=LINE('',#1189,#139);
#51=LINE('',#1192,#140);
#52=LINE('',#1194,#141);
#53=LINE('',#1196,#142);
#54=LINE('',#1198,#143);
#55=LINE('',#1200,#144);
#56=LINE('',#1202,#145);
#57=LINE('',#1204,#146);
#58=LINE('',#1205,#147);
#59=LINE('',#1208,#148);
#60=LINE('',#1210,#149);
#61=LINE('',#1211,#150);
#62=LINE('',#1214,#151);
#63=LINE('',#1216,#152);
#64=LINE('',#1217,#153);
#65=LINE('',#1220,#154);
#66=LINE('',#1222,#155);
#67=LINE('',#1223,#156);
#68=LINE('',#1226,#157);
#69=LINE('',#1228,#158);
#70=LINE('',#1229,#159);
#71=LINE('',#1232,#160);
#72=LINE('',#1234,#161);
#73=LINE('',#1236,#162);
#74=LINE('',#1238,#163);
#75=LINE('',#1240,#164);
#76=LINE('',#1242,#165);
#77=LINE('',#1244,#166);
#78=LINE('',#1246,#167);
#79=LINE('',#1247,#168);
#80=LINE('',#1250,#169);
#81=LINE('',#1251,#170);
#82=LINE('',#1254,#171);
#83=LINE('',#1259,#172);
#84=LINE('',#1260,#173);
#85=LINE('',#1265,#174);
#86=LINE('',#1266,#175);
#87=LINE('',#1268,#176);
#88=LINE('',#1270,#177);
#89=LINE('',#1277,#178);
#90=LINE('',#1279,#179);
#91=LINE('',#1280,#180);
#92=LINE('',#1286,#181);
#93=LINE('',#1288,#182);
#94=LINE('',#1290,#183);
#95=LINE('',#1291,#184);
#96=LINE('',#1294,#185);
#97=LINE('',#1296,#186);
#98=LINE('',#1298,#187);
#99=LINE('',#1300,#188);
#100=LINE('',#1301,#189);
#101=LINE('',#1304,#190);
#102=LINE('',#1307,#191);
#103=LINE('',#1311,#192);
#104=LINE('',#1312,#193);
#105=LINE('',#1319,#194);
#106=LINE('',#1320,#195);
#107=LINE('',#1322,#196);
#108=LINE('',#1323,#197);
#109=LINE('',#1325,#198);
#110=LINE('',#1326,#199);
#111=LINE('',#1328,#200);
#112=LINE('',#1333,#201);
#113=LINE('',#1336,#202);
#114=LINE('',#1338,#203);
#115=LINE('',#1345,#204);
#116=LINE('',#1347,#205);
#117=LINE('',#1348,#206);
#118=LINE('',#1350,#207);
#119=LINE('',#1353,#208);
#120=LINE('',#1363,#209);
#121=LINE('',#1368,#210);
#122=LINE('',#1372,#211);
#123=LINE('',#1375,#212);
#124=LINE('',#1379,#213);
#125=LINE('',#1382,#214);
#126=LINE('',#1384,#215);
#127=LINE('',#1392,#216);
#128=LINE('',#1394,#217);
#129=LINE('',#1396,#218);
#130=LINE('',#1400,#219);
#131=LINE('',#1403,#220);
#132=VECTOR('',#942,10.);
#133=VECTOR('',#943,10.);
#134=VECTOR('',#944,10.);
#135=VECTOR('',#945,10.);
#136=VECTOR('',#948,10.);
#137=VECTOR('',#949,10.);
#138=VECTOR('',#950,10.);
#139=VECTOR('',#951,10.);
#140=VECTOR('',#954,10.);
#141=VECTOR('',#955,10.);
#142=VECTOR('',#956,10.);
#143=VECTOR('',#957,10.);
#144=VECTOR('',#958,10.);
#145=VECTOR('',#959,10.);
#146=VECTOR('',#960,10.);
#147=VECTOR('',#961,10.);
#148=VECTOR('',#964,10.);
#149=VECTOR('',#965,10.);
#150=VECTOR('',#966,10.);
#151=VECTOR('',#969,10.);
#152=VECTOR('',#970,10.);
#153=VECTOR('',#971,10.);
#154=VECTOR('',#974,10.);
#155=VECTOR('',#975,10.);
#156=VECTOR('',#976,10.);
#157=VECTOR('',#979,10.);
#158=VECTOR('',#980,10.);
#159=VECTOR('',#981,10.);
#160=VECTOR('',#984,10.);
#161=VECTOR('',#985,10.);
#162=VECTOR('',#986,10.);
#163=VECTOR('',#987,10.);
#164=VECTOR('',#988,10.);
#165=VECTOR('',#989,10.);
#166=VECTOR('',#990,10.);
#167=VECTOR('',#991,10.);
#168=VECTOR('',#992,10.);
#169=VECTOR('',#995,10.);
#170=VECTOR('',#996,10.);
#171=VECTOR('',#999,10.);
#172=VECTOR('',#1004,10.);
#173=VECTOR('',#1005,10.);
#174=VECTOR('',#1012,10.);
#175=VECTOR('',#1013,10.);
#176=VECTOR('',#1016,10.);
#177=VECTOR('',#1019,10.);
#178=VECTOR('',#1024,10.);
#179=VECTOR('',#1025,10.);
#180=VECTOR('',#1026,10.);
#181=VECTOR('',#1031,10.);
#182=VECTOR('',#1032,10.);
#183=VECTOR('',#1033,10.);
#184=VECTOR('',#1034,10.);
#185=VECTOR('',#1037,10.);
#186=VECTOR('',#1038,10.);
#187=VECTOR('',#1039,10.);
#188=VECTOR('',#1040,10.);
#189=VECTOR('',#1041,10.);
#190=VECTOR('',#1044,3.00000000000001);
#191=VECTOR('',#1049,10.);
#192=VECTOR('',#1052,10.);
#193=VECTOR('',#1053,10.);
#194=VECTOR('',#1060,10.);
#195=VECTOR('',#1061,10.);
#196=VECTOR('',#1062,10.);
#197=VECTOR('',#1063,10.);
#198=VECTOR('',#1066,10.);
#199=VECTOR('',#1067,10.);
#200=VECTOR('',#1070,10.);
#201=VECTOR('',#1075,10.);
#202=VECTOR('',#1078,10.);
#203=VECTOR('',#1081,10.);
#204=VECTOR('',#1088,10.);
#205=VECTOR('',#1089,10.);
#206=VECTOR('',#1090,10.);
#207=VECTOR('',#1093,10.);
#208=VECTOR('',#1096,10.);
#209=VECTOR('',#1109,1.7);
#210=VECTOR('',#1116,2.75);
#211=VECTOR('',#1121,1.74999999999999);
#212=VECTOR('',#1126,2.5);
#213=VECTOR('',#1131,10.);
#214=VECTOR('',#1136,10.);
#215=VECTOR('',#1139,10.);
#216=VECTOR('',#1150,1.7);
#217=VECTOR('',#1153,1.4);
#218=VECTOR('',#1156,2.75);
#219=VECTOR('',#1161,1.74999999999999);
#220=VECTOR('',#1166,2.50000000000013);
#221=FACE_OUTER_BOUND('',#266,.T.);
#222=FACE_OUTER_BOUND('',#267,.T.);
#223=FACE_OUTER_BOUND('',#268,.T.);
#224=FACE_OUTER_BOUND('',#269,.T.);
#225=FACE_OUTER_BOUND('',#270,.T.);
#226=FACE_OUTER_BOUND('',#271,.T.);
#227=FACE_OUTER_BOUND('',#272,.T.);
#228=FACE_OUTER_BOUND('',#273,.T.);
#229=FACE_OUTER_BOUND('',#274,.T.);
#230=FACE_OUTER_BOUND('',#275,.T.);
#231=FACE_OUTER_BOUND('',#276,.T.);
#232=FACE_OUTER_BOUND('',#277,.T.);
#233=FACE_OUTER_BOUND('',#278,.T.);
#234=FACE_OUTER_BOUND('',#279,.T.);
#235=FACE_OUTER_BOUND('',#280,.T.);
#236=FACE_OUTER_BOUND('',#284,.T.);
#237=FACE_OUTER_BOUND('',#285,.T.);
#238=FACE_OUTER_BOUND('',#286,.T.);
#239=FACE_OUTER_BOUND('',#287,.T.);
#240=FACE_OUTER_BOUND('',#291,.T.);
#241=FACE_OUTER_BOUND('',#292,.T.);
#242=FACE_OUTER_BOUND('',#293,.T.);
#243=FACE_OUTER_BOUND('',#295,.T.);
#244=FACE_OUTER_BOUND('',#298,.T.);
#245=FACE_OUTER_BOUND('',#299,.T.);
#246=FACE_OUTER_BOUND('',#302,.T.);
#247=FACE_OUTER_BOUND('',#303,.T.);
#248=FACE_OUTER_BOUND('',#304,.T.);
#249=FACE_OUTER_BOUND('',#306,.T.);
#250=FACE_OUTER_BOUND('',#307,.T.);
#251=FACE_OUTER_BOUND('',#308,.T.);
#252=FACE_OUTER_BOUND('',#309,.T.);
#253=FACE_OUTER_BOUND('',#310,.T.);
#254=FACE_OUTER_BOUND('',#311,.T.);
#255=FACE_OUTER_BOUND('',#312,.T.);
#256=FACE_OUTER_BOUND('',#313,.T.);
#257=FACE_OUTER_BOUND('',#314,.T.);
#258=FACE_OUTER_BOUND('',#316,.T.);
#259=FACE_OUTER_BOUND('',#317,.T.);
#260=FACE_OUTER_BOUND('',#318,.T.);
#261=FACE_OUTER_BOUND('',#319,.T.);
#262=FACE_OUTER_BOUND('',#320,.T.);
#263=FACE_OUTER_BOUND('',#321,.T.);
#264=FACE_OUTER_BOUND('',#322,.T.);
#265=FACE_OUTER_BOUND('',#323,.T.);
#266=EDGE_LOOP('',(#540));
#267=EDGE_LOOP('',(#541,#542,#543,#544));
#268=EDGE_LOOP('',(#545,#546,#547,#548,#549));
#269=EDGE_LOOP('',(#550,#551,#552,#553,#554,#555,#556,#557,#558,#559));
#270=EDGE_LOOP('',(#560,#561,#562,#563));
#271=EDGE_LOOP('',(#564,#565,#566,#567,#568));
#272=EDGE_LOOP('',(#569,#570,#571,#572));
#273=EDGE_LOOP('',(#573,#574,#575,#576));
#274=EDGE_LOOP('',(#577,#578,#579,#580,#581,#582,#583,#584,#585,#586));
#275=EDGE_LOOP('',(#587,#588,#589,#590));
#276=EDGE_LOOP('',(#591,#592,#593,#594,#595,#596,#597));
#277=EDGE_LOOP('',(#598,#599,#600,#601,#602,#603));
#278=EDGE_LOOP('',(#604,#605,#606,#607));
#279=EDGE_LOOP('',(#608,#609,#610,#611));
#280=EDGE_LOOP('',(#612,#613,#614,#615,#616,#617));
#281=EDGE_LOOP('',(#618));
#282=EDGE_LOOP('',(#619,#620,#621,#622));
#283=EDGE_LOOP('',(#623));
#284=EDGE_LOOP('',(#624,#625,#626,#627));
#285=EDGE_LOOP('',(#628,#629,#630,#631,#632,#633));
#286=EDGE_LOOP('',(#634,#635,#636,#637,#638,#639));
#287=EDGE_LOOP('',(#640,#641,#642,#643,#644,#645));
#288=EDGE_LOOP('',(#646,#647,#648,#649));
#289=EDGE_LOOP('',(#650));
#290=EDGE_LOOP('',(#651));
#291=EDGE_LOOP('',(#652,#653,#654,#655,#656,#657));
#292=EDGE_LOOP('',(#658,#659,#660,#661,#662));
#293=EDGE_LOOP('',(#663,#664,#665,#666,#667,#668));
#294=EDGE_LOOP('',(#669));
#295=EDGE_LOOP('',(#670,#671,#672,#673,#674,#675,#676,#677));
#296=EDGE_LOOP('',(#678));
#297=EDGE_LOOP('',(#679));
#298=EDGE_LOOP('',(#680,#681,#682,#683,#684));
#299=EDGE_LOOP('',(#685,#686,#687,#688,#689,#690,#691,#692));
#300=EDGE_LOOP('',(#693));
#301=EDGE_LOOP('',(#694));
#302=EDGE_LOOP('',(#695,#696,#697,#698,#699));
#303=EDGE_LOOP('',(#700,#701,#702,#703));
#304=EDGE_LOOP('',(#704));
#305=EDGE_LOOP('',(#705));
#306=EDGE_LOOP('',(#706,#707,#708,#709));
#307=EDGE_LOOP('',(#710,#711,#712,#713));
#308=EDGE_LOOP('',(#714,#715,#716,#717));
#309=EDGE_LOOP('',(#718,#719,#720,#721));
#310=EDGE_LOOP('',(#722,#723,#724,#725));
#311=EDGE_LOOP('',(#726));
#312=EDGE_LOOP('',(#727,#728,#729,#730,#731));
#313=EDGE_LOOP('',(#732,#733,#734,#735,#736));
#314=EDGE_LOOP('',(#737));
#315=EDGE_LOOP('',(#738));
#316=EDGE_LOOP('',(#739,#740,#741,#742,#743));
#317=EDGE_LOOP('',(#744,#745,#746,#747));
#318=EDGE_LOOP('',(#748,#749,#750,#751));
#319=EDGE_LOOP('',(#752,#753,#754,#755));
#320=EDGE_LOOP('',(#756,#757,#758,#759));
#321=EDGE_LOOP('',(#760,#761,#762,#763));
#322=EDGE_LOOP('',(#764,#765,#766,#767));
#323=EDGE_LOOP('',(#768,#769,#770,#771));
#324=CIRCLE('',#863,1.25);
#325=CIRCLE('',#874,3.00000000000001);
#326=CIRCLE('',#875,3.00000000000001);
#327=CIRCLE('',#881,2.75);
#328=CIRCLE('',#882,1.49999999999999);
#329=CIRCLE('',#883,3.00000000000025);
#330=CIRCLE('',#887,3.00000000000001);
#331=CIRCLE('',#889,1.5);
#332=CIRCLE('',#890,2.75);
#333=CIRCLE('',#891,2.99999999999998);
#334=CIRCLE('',#895,1.25);
#335=CIRCLE('',#897,2.6);
#336=CIRCLE('',#898,1.5);
#337=CIRCLE('',#899,2.);
#338=CIRCLE('',#900,1.7);
#339=CIRCLE('',#903,1.49999999999999);
#340=CIRCLE('',#904,2.6);
#341=CIRCLE('',#905,2.);
#342=CIRCLE('',#906,1.7);
#343=CIRCLE('',#909,1.7);
#344=CIRCLE('',#911,2.75);
#345=CIRCLE('',#915,2.);
#346=CIRCLE('',#918,2.6);
#347=CIRCLE('',#923,2.75);
#348=CIRCLE('',#924,1.7);
#349=CIRCLE('',#931,2.);
#350=VERTEX_POINT('',#1171);
#351=VERTEX_POINT('',#1174);
#352=VERTEX_POINT('',#1175);
#353=VERTEX_POINT('',#1177);
#354=VERTEX_POINT('',#1179);
#355=VERTEX_POINT('',#1183);
#356=VERTEX_POINT('',#1185);
#357=VERTEX_POINT('',#1187);
#358=VERTEX_POINT('',#1191);
#359=VERTEX_POINT('',#1193);
#360=VERTEX_POINT('',#1195);
#361=VERTEX_POINT('',#1197);
#362=VERTEX_POINT('',#1199);
#363=VERTEX_POINT('',#1201);
#364=VERTEX_POINT('',#1203);
#365=VERTEX_POINT('',#1207);
#366=VERTEX_POINT('',#1209);
#367=VERTEX_POINT('',#1213);
#368=VERTEX_POINT('',#1215);
#369=VERTEX_POINT('',#1219);
#370=VERTEX_POINT('',#1221);
#371=VERTEX_POINT('',#1225);
#372=VERTEX_POINT('',#1227);
#373=VERTEX_POINT('',#1231);
#374=VERTEX_POINT('',#1233);
#375=VERTEX_POINT('',#1235);
#376=VERTEX_POINT('',#1237);
#377=VERTEX_POINT('',#1239);
#378=VERTEX_POINT('',#1241);
#379=VERTEX_POINT('',#1243);
#380=VERTEX_POINT('',#1245);
#381=VERTEX_POINT('',#1249);
#382=VERTEX_POINT('',#1253);
#383=VERTEX_POINT('',#1255);
#384=VERTEX_POINT('',#1257);
#385=VERTEX_POINT('',#1264);
#386=VERTEX_POINT('',#1271);
#387=VERTEX_POINT('',#1273);
#388=VERTEX_POINT('',#1274);
#389=VERTEX_POINT('',#1276);
#390=VERTEX_POINT('',#1278);
#391=VERTEX_POINT('',#1281);
#392=VERTEX_POINT('',#1284);
#393=VERTEX_POINT('',#1285);
#394=VERTEX_POINT('',#1287);
#395=VERTEX_POINT('',#1289);
#396=VERTEX_POINT('',#1293);
#397=VERTEX_POINT('',#1295);
#398=VERTEX_POINT('',#1297);
#399=VERTEX_POINT('',#1299);
#400=VERTEX_POINT('',#1303);
#401=VERTEX_POINT('',#1308);
#402=VERTEX_POINT('',#1310);
#403=VERTEX_POINT('',#1313);
#404=VERTEX_POINT('',#1315);
#405=VERTEX_POINT('',#1318);
#406=VERTEX_POINT('',#1321);
#407=VERTEX_POINT('',#1329);
#408=VERTEX_POINT('',#1332);
#409=VERTEX_POINT('',#1334);
#410=VERTEX_POINT('',#1339);
#411=VERTEX_POINT('',#1341);
#412=VERTEX_POINT('',#1344);
#413=VERTEX_POINT('',#1346);
#414=VERTEX_POINT('',#1352);
#415=VERTEX_POINT('',#1355);
#416=VERTEX_POINT('',#1357);
#417=VERTEX_POINT('',#1361);
#418=VERTEX_POINT('',#1365);
#419=VERTEX_POINT('',#1371);
#420=VERTEX_POINT('',#1377);
#421=VERTEX_POINT('',#1386);
#422=VERTEX_POINT('',#1388);
#423=VERTEX_POINT('',#1399);
#424=EDGE_CURVE('',#350,#350,#324,.T.);
#425=EDGE_CURVE('',#351,#352,#43,.T.);
#426=EDGE_CURVE('',#352,#353,#44,.T.);
#427=EDGE_CURVE('',#353,#354,#45,.T.);
#428=EDGE_CURVE('',#354,#351,#46,.T.);
#429=EDGE_CURVE('',#351,#355,#47,.T.);
#430=EDGE_CURVE('',#355,#356,#48,.T.);
#431=EDGE_CURVE('',#356,#357,#49,.T.);
#432=EDGE_CURVE('',#357,#352,#50,.T.);
#433=EDGE_CURVE('',#354,#358,#51,.T.);
#434=EDGE_CURVE('',#359,#358,#52,.T.);
#435=EDGE_CURVE('',#360,#359,#53,.T.);
#436=EDGE_CURVE('',#360,#361,#54,.T.);
#437=EDGE_CURVE('',#362,#361,#55,.T.);
#438=EDGE_CURVE('',#363,#362,#56,.T.);
#439=EDGE_CURVE('',#364,#363,#57,.T.);
#440=EDGE_CURVE('',#355,#364,#58,.T.);
#441=EDGE_CURVE('',#365,#363,#59,.T.);
#442=EDGE_CURVE('',#362,#366,#60,.T.);
#443=EDGE_CURVE('',#366,#365,#61,.T.);
#444=EDGE_CURVE('',#365,#367,#62,.T.);
#445=EDGE_CURVE('',#368,#367,#63,.T.);
#446=EDGE_CURVE('',#368,#364,#64,.T.);
#447=EDGE_CURVE('',#356,#369,#65,.T.);
#448=EDGE_CURVE('',#369,#370,#66,.T.);
#449=EDGE_CURVE('',#370,#357,#67,.T.);
#450=EDGE_CURVE('',#369,#371,#68,.T.);
#451=EDGE_CURVE('',#371,#372,#69,.T.);
#452=EDGE_CURVE('',#372,#370,#70,.T.);
#453=EDGE_CURVE('',#373,#371,#71,.T.);
#454=EDGE_CURVE('',#374,#373,#72,.T.);
#455=EDGE_CURVE('',#375,#374,#73,.T.);
#456=EDGE_CURVE('',#376,#375,#74,.T.);
#457=EDGE_CURVE('',#376,#377,#75,.T.);
#458=EDGE_CURVE('',#377,#378,#76,.T.);
#459=EDGE_CURVE('',#378,#379,#77,.T.);
#460=EDGE_CURVE('',#380,#379,#78,.T.);
#461=EDGE_CURVE('',#380,#372,#79,.T.);
#462=EDGE_CURVE('',#369,#381,#80,.T.);
#463=EDGE_CURVE('',#373,#381,#81,.T.);
#464=EDGE_CURVE('',#382,#356,#82,.T.);
#465=EDGE_CURVE('',#382,#383,#325,.T.);
#466=EDGE_CURVE('',#383,#384,#326,.T.);
#467=EDGE_CURVE('',#368,#384,#83,.T.);
#468=EDGE_CURVE('',#381,#368,#84,.T.);
#469=EDGE_CURVE('',#384,#382,#42,.T.);
#470=EDGE_CURVE('',#367,#385,#85,.T.);
#471=EDGE_CURVE('',#385,#381,#86,.T.);
#472=EDGE_CURVE('',#385,#374,#87,.T.);
#473=EDGE_CURVE('',#375,#366,#88,.T.);
#474=EDGE_CURVE('',#386,#386,#327,.T.);
#475=EDGE_CURVE('',#387,#388,#328,.T.);
#476=EDGE_CURVE('',#389,#388,#89,.T.);
#477=EDGE_CURVE('',#390,#389,#90,.T.);
#478=EDGE_CURVE('',#387,#390,#91,.T.);
#479=EDGE_CURVE('',#391,#391,#329,.T.);
#480=EDGE_CURVE('',#392,#393,#92,.T.);
#481=EDGE_CURVE('',#394,#393,#93,.T.);
#482=EDGE_CURVE('',#395,#394,#94,.T.);
#483=EDGE_CURVE('',#392,#395,#95,.T.);
#484=EDGE_CURVE('',#390,#396,#96,.T.);
#485=EDGE_CURVE('',#396,#397,#97,.T.);
#486=EDGE_CURVE('',#398,#397,#98,.T.);
#487=EDGE_CURVE('',#399,#398,#99,.T.);
#488=EDGE_CURVE('',#399,#387,#100,.T.);
#489=EDGE_CURVE('',#383,#400,#101,.T.);
#490=EDGE_CURVE('',#400,#400,#330,.T.);
#491=EDGE_CURVE('',#353,#380,#102,.T.);
#492=EDGE_CURVE('',#401,#397,#331,.T.);
#493=EDGE_CURVE('',#402,#396,#103,.T.);
#494=EDGE_CURVE('',#401,#402,#104,.T.);
#495=EDGE_CURVE('',#403,#403,#332,.T.);
#496=EDGE_CURVE('',#404,#404,#333,.T.);
#497=EDGE_CURVE('',#405,#359,#105,.T.);
#498=EDGE_CURVE('',#395,#405,#106,.T.);
#499=EDGE_CURVE('',#406,#394,#107,.T.);
#500=EDGE_CURVE('',#360,#406,#108,.T.);
#501=EDGE_CURVE('',#402,#392,#109,.T.);
#502=EDGE_CURVE('',#405,#401,#110,.T.);
#503=EDGE_CURVE('',#393,#389,#111,.T.);
#504=EDGE_CURVE('',#407,#407,#334,.T.);
#505=EDGE_CURVE('',#378,#408,#112,.T.);
#506=EDGE_CURVE('',#408,#409,#335,.T.);
#507=EDGE_CURVE('',#409,#398,#113,.T.);
#508=EDGE_CURVE('',#405,#398,#336,.T.);
#509=EDGE_CURVE('',#379,#358,#114,.T.);
#510=EDGE_CURVE('',#410,#410,#337,.F.);
#511=EDGE_CURVE('',#411,#411,#338,.T.);
#512=EDGE_CURVE('',#412,#377,#115,.T.);
#513=EDGE_CURVE('',#413,#412,#116,.T.);
#514=EDGE_CURVE('',#408,#413,#117,.T.);
#515=EDGE_CURVE('',#361,#376,#118,.T.);
#516=EDGE_CURVE('',#399,#406,#339,.T.);
#517=EDGE_CURVE('',#399,#414,#119,.T.);
#518=EDGE_CURVE('',#414,#412,#340,.T.);
#519=EDGE_CURVE('',#415,#415,#341,.F.);
#520=EDGE_CURVE('',#416,#416,#342,.T.);
#521=EDGE_CURVE('',#417,#417,#343,.T.);
#522=EDGE_CURVE('',#417,#411,#120,.T.);
#523=EDGE_CURVE('',#418,#418,#344,.T.);
#524=EDGE_CURVE('',#403,#418,#121,.T.);
#525=EDGE_CURVE('',#410,#419,#122,.T.);
#526=EDGE_CURVE('',#419,#419,#345,.T.);
#527=EDGE_CURVE('',#419,#404,#123,.T.);
#528=EDGE_CURVE('',#420,#413,#346,.T.);
#529=EDGE_CURVE('',#409,#420,#124,.T.);
#530=EDGE_CURVE('',#420,#414,#125,.T.);
#531=EDGE_CURVE('',#406,#388,#126,.T.);
#532=EDGE_CURVE('',#421,#421,#347,.T.);
#533=EDGE_CURVE('',#422,#422,#348,.T.);
#534=EDGE_CURVE('',#422,#416,#127,.T.);
#535=EDGE_CURVE('',#350,#407,#128,.T.);
#536=EDGE_CURVE('',#386,#421,#129,.T.);
#537=EDGE_CURVE('',#415,#423,#130,.T.);
#538=EDGE_CURVE('',#423,#423,#349,.T.);
#539=EDGE_CURVE('',#423,#391,#131,.T.);
#540=ORIENTED_EDGE('',*,*,#424,.F.);
#541=ORIENTED_EDGE('',*,*,#425,.T.);
#542=ORIENTED_EDGE('',*,*,#426,.T.);
#543=ORIENTED_EDGE('',*,*,#427,.T.);
#544=ORIENTED_EDGE('',*,*,#428,.T.);
#545=ORIENTED_EDGE('',*,*,#425,.F.);
#546=ORIENTED_EDGE('',*,*,#429,.T.);
#547=ORIENTED_EDGE('',*,*,#430,.T.);
#548=ORIENTED_EDGE('',*,*,#431,.T.);
#549=ORIENTED_EDGE('',*,*,#432,.T.);
#550=ORIENTED_EDGE('',*,*,#428,.F.);
#551=ORIENTED_EDGE('',*,*,#433,.T.);
#552=ORIENTED_EDGE('',*,*,#434,.F.);
#553=ORIENTED_EDGE('',*,*,#435,.F.);
#554=ORIENTED_EDGE('',*,*,#436,.T.);
#555=ORIENTED_EDGE('',*,*,#437,.F.);
#556=ORIENTED_EDGE('',*,*,#438,.F.);
#557=ORIENTED_EDGE('',*,*,#439,.F.);
#558=ORIENTED_EDGE('',*,*,#440,.F.);
#559=ORIENTED_EDGE('',*,*,#429,.F.);
#560=ORIENTED_EDGE('',*,*,#441,.T.);
#561=ORIENTED_EDGE('',*,*,#438,.T.);
#562=ORIENTED_EDGE('',*,*,#442,.T.);
#563=ORIENTED_EDGE('',*,*,#443,.T.);
#564=ORIENTED_EDGE('',*,*,#441,.F.);
#565=ORIENTED_EDGE('',*,*,#444,.T.);
#566=ORIENTED_EDGE('',*,*,#445,.F.);
#567=ORIENTED_EDGE('',*,*,#446,.T.);
#568=ORIENTED_EDGE('',*,*,#439,.T.);
#569=ORIENTED_EDGE('',*,*,#447,.T.);
#570=ORIENTED_EDGE('',*,*,#448,.T.);
#571=ORIENTED_EDGE('',*,*,#449,.T.);
#572=ORIENTED_EDGE('',*,*,#431,.F.);
#573=ORIENTED_EDGE('',*,*,#450,.T.);
#574=ORIENTED_EDGE('',*,*,#451,.T.);
#575=ORIENTED_EDGE('',*,*,#452,.T.);
#576=ORIENTED_EDGE('',*,*,#448,.F.);
#577=ORIENTED_EDGE('',*,*,#451,.F.);
#578=ORIENTED_EDGE('',*,*,#453,.F.);
#579=ORIENTED_EDGE('',*,*,#454,.F.);
#580=ORIENTED_EDGE('',*,*,#455,.F.);
#581=ORIENTED_EDGE('',*,*,#456,.F.);
#582=ORIENTED_EDGE('',*,*,#457,.T.);
#583=ORIENTED_EDGE('',*,*,#458,.T.);
#584=ORIENTED_EDGE('',*,*,#459,.T.);
#585=ORIENTED_EDGE('',*,*,#460,.F.);
#586=ORIENTED_EDGE('',*,*,#461,.T.);
#587=ORIENTED_EDGE('',*,*,#450,.F.);
#588=ORIENTED_EDGE('',*,*,#462,.T.);
#589=ORIENTED_EDGE('',*,*,#463,.F.);
#590=ORIENTED_EDGE('',*,*,#453,.T.);
#591=ORIENTED_EDGE('',*,*,#447,.F.);
#592=ORIENTED_EDGE('',*,*,#464,.F.);
#593=ORIENTED_EDGE('',*,*,#465,.T.);
#594=ORIENTED_EDGE('',*,*,#466,.T.);
#595=ORIENTED_EDGE('',*,*,#467,.F.);
#596=ORIENTED_EDGE('',*,*,#468,.F.);
#597=ORIENTED_EDGE('',*,*,#462,.F.);
#598=ORIENTED_EDGE('',*,*,#430,.F.);
#599=ORIENTED_EDGE('',*,*,#440,.T.);
#600=ORIENTED_EDGE('',*,*,#446,.F.);
#601=ORIENTED_EDGE('',*,*,#467,.T.);
#602=ORIENTED_EDGE('',*,*,#469,.T.);
#603=ORIENTED_EDGE('',*,*,#464,.T.);
#604=ORIENTED_EDGE('',*,*,#468,.T.);
#605=ORIENTED_EDGE('',*,*,#445,.T.);
#606=ORIENTED_EDGE('',*,*,#470,.T.);
#607=ORIENTED_EDGE('',*,*,#471,.T.);
#608=ORIENTED_EDGE('',*,*,#472,.T.);
#609=ORIENTED_EDGE('',*,*,#454,.T.);
#610=ORIENTED_EDGE('',*,*,#463,.T.);
#611=ORIENTED_EDGE('',*,*,#471,.F.);
#612=ORIENTED_EDGE('',*,*,#443,.F.);
#613=ORIENTED_EDGE('',*,*,#473,.F.);
#614=ORIENTED_EDGE('',*,*,#455,.T.);
#615=ORIENTED_EDGE('',*,*,#472,.F.);
#616=ORIENTED_EDGE('',*,*,#470,.F.);
#617=ORIENTED_EDGE('',*,*,#444,.F.);
#618=ORIENTED_EDGE('',*,*,#474,.F.);
#619=ORIENTED_EDGE('',*,*,#475,.T.);
#620=ORIENTED_EDGE('',*,*,#476,.F.);
#621=ORIENTED_EDGE('',*,*,#477,.F.);
#622=ORIENTED_EDGE('',*,*,#478,.F.);
#623=ORIENTED_EDGE('',*,*,#479,.T.);
#624=ORIENTED_EDGE('',*,*,#480,.T.);
#625=ORIENTED_EDGE('',*,*,#481,.F.);
#626=ORIENTED_EDGE('',*,*,#482,.F.);
#627=ORIENTED_EDGE('',*,*,#483,.F.);
#628=ORIENTED_EDGE('',*,*,#484,.T.);
#629=ORIENTED_EDGE('',*,*,#485,.T.);
#630=ORIENTED_EDGE('',*,*,#486,.F.);
#631=ORIENTED_EDGE('',*,*,#487,.F.);
#632=ORIENTED_EDGE('',*,*,#488,.T.);
#633=ORIENTED_EDGE('',*,*,#478,.T.);
#634=ORIENTED_EDGE('',*,*,#469,.F.);
#635=ORIENTED_EDGE('',*,*,#466,.F.);
#636=ORIENTED_EDGE('',*,*,#489,.T.);
#637=ORIENTED_EDGE('',*,*,#490,.F.);
#638=ORIENTED_EDGE('',*,*,#489,.F.);
#639=ORIENTED_EDGE('',*,*,#465,.F.);
#640=ORIENTED_EDGE('',*,*,#426,.F.);
#641=ORIENTED_EDGE('',*,*,#432,.F.);
#642=ORIENTED_EDGE('',*,*,#449,.F.);
#643=ORIENTED_EDGE('',*,*,#452,.F.);
#644=ORIENTED_EDGE('',*,*,#461,.F.);
#645=ORIENTED_EDGE('',*,*,#491,.F.);
#646=ORIENTED_EDGE('',*,*,#492,.T.);
#647=ORIENTED_EDGE('',*,*,#485,.F.);
#648=ORIENTED_EDGE('',*,*,#493,.F.);
#649=ORIENTED_EDGE('',*,*,#494,.F.);
#650=ORIENTED_EDGE('',*,*,#495,.F.);
#651=ORIENTED_EDGE('',*,*,#496,.T.);
#652=ORIENTED_EDGE('',*,*,#435,.T.);
#653=ORIENTED_EDGE('',*,*,#497,.F.);
#654=ORIENTED_EDGE('',*,*,#498,.F.);
#655=ORIENTED_EDGE('',*,*,#482,.T.);
#656=ORIENTED_EDGE('',*,*,#499,.F.);
#657=ORIENTED_EDGE('',*,*,#500,.F.);
#658=ORIENTED_EDGE('',*,*,#501,.T.);
#659=ORIENTED_EDGE('',*,*,#483,.T.);
#660=ORIENTED_EDGE('',*,*,#498,.T.);
#661=ORIENTED_EDGE('',*,*,#502,.T.);
#662=ORIENTED_EDGE('',*,*,#494,.T.);
#663=ORIENTED_EDGE('',*,*,#484,.F.);
#664=ORIENTED_EDGE('',*,*,#477,.T.);
#665=ORIENTED_EDGE('',*,*,#503,.F.);
#666=ORIENTED_EDGE('',*,*,#480,.F.);
#667=ORIENTED_EDGE('',*,*,#501,.F.);
#668=ORIENTED_EDGE('',*,*,#493,.T.);
#669=ORIENTED_EDGE('',*,*,#504,.T.);
#670=ORIENTED_EDGE('',*,*,#459,.F.);
#671=ORIENTED_EDGE('',*,*,#505,.T.);
#672=ORIENTED_EDGE('',*,*,#506,.T.);
#673=ORIENTED_EDGE('',*,*,#507,.T.);
#674=ORIENTED_EDGE('',*,*,#508,.F.);
#675=ORIENTED_EDGE('',*,*,#497,.T.);
#676=ORIENTED_EDGE('',*,*,#434,.T.);
#677=ORIENTED_EDGE('',*,*,#509,.F.);
#678=ORIENTED_EDGE('',*,*,#510,.F.);
#679=ORIENTED_EDGE('',*,*,#511,.F.);
#680=ORIENTED_EDGE('',*,*,#458,.F.);
#681=ORIENTED_EDGE('',*,*,#512,.F.);
#682=ORIENTED_EDGE('',*,*,#513,.F.);
#683=ORIENTED_EDGE('',*,*,#514,.F.);
#684=ORIENTED_EDGE('',*,*,#505,.F.);
#685=ORIENTED_EDGE('',*,*,#457,.F.);
#686=ORIENTED_EDGE('',*,*,#515,.F.);
#687=ORIENTED_EDGE('',*,*,#436,.F.);
#688=ORIENTED_EDGE('',*,*,#500,.T.);
#689=ORIENTED_EDGE('',*,*,#516,.F.);
#690=ORIENTED_EDGE('',*,*,#517,.T.);
#691=ORIENTED_EDGE('',*,*,#518,.T.);
#692=ORIENTED_EDGE('',*,*,#512,.T.);
#693=ORIENTED_EDGE('',*,*,#519,.F.);
#694=ORIENTED_EDGE('',*,*,#520,.F.);
#695=ORIENTED_EDGE('',*,*,#427,.F.);
#696=ORIENTED_EDGE('',*,*,#491,.T.);
#697=ORIENTED_EDGE('',*,*,#460,.T.);
#698=ORIENTED_EDGE('',*,*,#509,.T.);
#699=ORIENTED_EDGE('',*,*,#433,.F.);
#700=ORIENTED_EDGE('',*,*,#521,.T.);
#701=ORIENTED_EDGE('',*,*,#522,.T.);
#702=ORIENTED_EDGE('',*,*,#511,.T.);
#703=ORIENTED_EDGE('',*,*,#522,.F.);
#704=ORIENTED_EDGE('',*,*,#523,.F.);
#705=ORIENTED_EDGE('',*,*,#521,.F.);
#706=ORIENTED_EDGE('',*,*,#495,.T.);
#707=ORIENTED_EDGE('',*,*,#524,.T.);
#708=ORIENTED_EDGE('',*,*,#523,.T.);
#709=ORIENTED_EDGE('',*,*,#524,.F.);
#710=ORIENTED_EDGE('',*,*,#492,.F.);
#711=ORIENTED_EDGE('',*,*,#502,.F.);
#712=ORIENTED_EDGE('',*,*,#508,.T.);
#713=ORIENTED_EDGE('',*,*,#486,.T.);
#714=ORIENTED_EDGE('',*,*,#510,.T.);
#715=ORIENTED_EDGE('',*,*,#525,.T.);
#716=ORIENTED_EDGE('',*,*,#526,.T.);
#717=ORIENTED_EDGE('',*,*,#525,.F.);
#718=ORIENTED_EDGE('',*,*,#526,.F.);
#719=ORIENTED_EDGE('',*,*,#527,.T.);
#720=ORIENTED_EDGE('',*,*,#496,.F.);
#721=ORIENTED_EDGE('',*,*,#527,.F.);
#722=ORIENTED_EDGE('',*,*,#528,.F.);
#723=ORIENTED_EDGE('',*,*,#529,.F.);
#724=ORIENTED_EDGE('',*,*,#506,.F.);
#725=ORIENTED_EDGE('',*,*,#514,.T.);
#726=ORIENTED_EDGE('',*,*,#490,.T.);
#727=ORIENTED_EDGE('',*,*,#530,.T.);
#728=ORIENTED_EDGE('',*,*,#517,.F.);
#729=ORIENTED_EDGE('',*,*,#487,.T.);
#730=ORIENTED_EDGE('',*,*,#507,.F.);
#731=ORIENTED_EDGE('',*,*,#529,.T.);
#732=ORIENTED_EDGE('',*,*,#503,.T.);
#733=ORIENTED_EDGE('',*,*,#476,.T.);
#734=ORIENTED_EDGE('',*,*,#531,.F.);
#735=ORIENTED_EDGE('',*,*,#499,.T.);
#736=ORIENTED_EDGE('',*,*,#481,.T.);
#737=ORIENTED_EDGE('',*,*,#532,.F.);
#738=ORIENTED_EDGE('',*,*,#533,.F.);
#739=ORIENTED_EDGE('',*,*,#442,.F.);
#740=ORIENTED_EDGE('',*,*,#437,.T.);
#741=ORIENTED_EDGE('',*,*,#515,.T.);
#742=ORIENTED_EDGE('',*,*,#456,.T.);
#743=ORIENTED_EDGE('',*,*,#473,.T.);
#744=ORIENTED_EDGE('',*,*,#533,.T.);
#745=ORIENTED_EDGE('',*,*,#534,.T.);
#746=ORIENTED_EDGE('',*,*,#520,.T.);
#747=ORIENTED_EDGE('',*,*,#534,.F.);
#748=ORIENTED_EDGE('',*,*,#424,.T.);
#749=ORIENTED_EDGE('',*,*,#535,.T.);
#750=ORIENTED_EDGE('',*,*,#504,.F.);
#751=ORIENTED_EDGE('',*,*,#535,.F.);
#752=ORIENTED_EDGE('',*,*,#474,.T.);
#753=ORIENTED_EDGE('',*,*,#536,.T.);
#754=ORIENTED_EDGE('',*,*,#532,.T.);
#755=ORIENTED_EDGE('',*,*,#536,.F.);
#756=ORIENTED_EDGE('',*,*,#475,.F.);
#757=ORIENTED_EDGE('',*,*,#488,.F.);
#758=ORIENTED_EDGE('',*,*,#516,.T.);
#759=ORIENTED_EDGE('',*,*,#531,.T.);
#760=ORIENTED_EDGE('',*,*,#519,.T.);
#761=ORIENTED_EDGE('',*,*,#537,.T.);
#762=ORIENTED_EDGE('',*,*,#538,.T.);
#763=ORIENTED_EDGE('',*,*,#537,.F.);
#764=ORIENTED_EDGE('',*,*,#538,.F.);
#765=ORIENTED_EDGE('',*,*,#539,.T.);
#766=ORIENTED_EDGE('',*,*,#479,.F.);
#767=ORIENTED_EDGE('',*,*,#539,.F.);
#768=ORIENTED_EDGE('',*,*,#528,.T.);
#769=ORIENTED_EDGE('',*,*,#513,.T.);
#770=ORIENTED_EDGE('',*,*,#518,.F.);
#771=ORIENTED_EDGE('',*,*,#530,.F.);
#772=PLANE('',#862);
#773=PLANE('',#864);
#774=PLANE('',#865);
#775=PLANE('',#866);
#776=PLANE('',#867);
#777=PLANE('',#868);
#778=PLANE('',#869);
#779=PLANE('',#870);
#780=PLANE('',#871);
#781=PLANE('',#872);
#782=PLANE('',#873);
#783=PLANE('',#876);
#784=PLANE('',#878);
#785=PLANE('',#879);
#786=PLANE('',#880);
#787=PLANE('',#884);
#788=PLANE('',#885);
#789=PLANE('',#888);
#790=PLANE('',#892);
#791=PLANE('',#893);
#792=PLANE('',#894);
#793=PLANE('',#896);
#794=PLANE('',#901);
#795=PLANE('',#902);
#796=PLANE('',#907);
#797=PLANE('',#910);
#798=PLANE('',#919);
#799=PLANE('',#920);
#800=PLANE('',#921);
#801=PLANE('',#922);
#802=PLANE('',#925);
#803=ADVANCED_FACE('',(#221),#772,.F.);
#804=ADVANCED_FACE('',(#222),#773,.T.);
#805=ADVANCED_FACE('',(#223),#774,.T.);
#806=ADVANCED_FACE('',(#224),#775,.T.);
#807=ADVANCED_FACE('',(#225),#776,.T.);
#808=ADVANCED_FACE('',(#226),#777,.T.);
#809=ADVANCED_FACE('',(#227),#778,.T.);
#810=ADVANCED_FACE('',(#228),#779,.T.);
#811=ADVANCED_FACE('',(#229),#780,.T.);
#812=ADVANCED_FACE('',(#230),#781,.T.);
#813=ADVANCED_FACE('',(#231),#782,.T.);
#814=ADVANCED_FACE('',(#232),#783,.T.);
#815=ADVANCED_FACE('',(#233),#784,.T.);
#816=ADVANCED_FACE('',(#234),#785,.T.);
#817=ADVANCED_FACE('',(#235,#29,#30,#31),#786,.F.);
#818=ADVANCED_FACE('',(#236),#787,.T.);
#819=ADVANCED_FACE('',(#237),#788,.T.);
#820=ADVANCED_FACE('',(#238),#17,.F.);
#821=ADVANCED_FACE('',(#239,#32,#33,#34),#789,.F.);
#822=ADVANCED_FACE('',(#240),#790,.T.);
#823=ADVANCED_FACE('',(#241),#791,.F.);
#824=ADVANCED_FACE('',(#242,#35),#792,.F.);
#825=ADVANCED_FACE('',(#243,#36,#37),#793,.F.);
#826=ADVANCED_FACE('',(#244),#794,.T.);
#827=ADVANCED_FACE('',(#245,#38,#39),#795,.F.);
#828=ADVANCED_FACE('',(#246),#796,.T.);
#829=ADVANCED_FACE('',(#247),#18,.F.);
#830=ADVANCED_FACE('',(#248,#40),#797,.T.);
#831=ADVANCED_FACE('',(#249),#19,.F.);
#832=ADVANCED_FACE('',(#250),#20,.F.);
#833=ADVANCED_FACE('',(#251),#21,.F.);
#834=ADVANCED_FACE('',(#252),#15,.F.);
#835=ADVANCED_FACE('',(#253),#22,.F.);
#836=ADVANCED_FACE('',(#254),#798,.T.);
#837=ADVANCED_FACE('',(#255),#799,.T.);
#838=ADVANCED_FACE('',(#256),#800,.F.);
#839=ADVANCED_FACE('',(#257,#41),#801,.T.);
#840=ADVANCED_FACE('',(#258),#802,.T.);
#841=ADVANCED_FACE('',(#259),#23,.F.);
#842=ADVANCED_FACE('',(#260),#24,.F.);
#843=ADVANCED_FACE('',(#261),#25,.F.);
#844=ADVANCED_FACE('',(#262),#26,.F.);
#845=ADVANCED_FACE('',(#263),#27,.F.);
#846=ADVANCED_FACE('',(#264),#16,.F.);
#847=ADVANCED_FACE('',(#265),#28,.F.);
#848=CLOSED_SHELL('',(#803,#804,#805,#806,#807,#808,#809,#810,#811,#812,
#813,#814,#815,#816,#817,#818,#819,#820,#821,#822,#823,#824,#825,#826,#827,
#828,#829,#830,#831,#832,#833,#834,#835,#836,#837,#838,#839,#840,#841,#842,
#843,#844,#845,#846,#847));
#849=DERIVED_UNIT_ELEMENT(#851,1.);
#850=DERIVED_UNIT_ELEMENT(#1410,-3.);
#851=(
MASS_UNIT()
NAMED_UNIT(*)
SI_UNIT(.KILO.,.GRAM.)
);
#852=DERIVED_UNIT((#849,#850));
#853=MEASURE_REPRESENTATION_ITEM('density measure',
POSITIVE_RATIO_MEASURE(7850.),#852);
#854=PROPERTY_DEFINITION_REPRESENTATION(#859,#856);
#855=PROPERTY_DEFINITION_REPRESENTATION(#860,#857);
#856=REPRESENTATION('material name',(#858),#1407);
#857=REPRESENTATION('density',(#853),#1407);
#858=DESCRIPTIVE_REPRESENTATION_ITEM('Steel','Steel');
#859=PROPERTY_DEFINITION('material property','material name',#1417);
#860=PROPERTY_DEFINITION('material property','density of part',#1417);
#861=AXIS2_PLACEMENT_3D('',#1169,#934,#935);
#862=AXIS2_PLACEMENT_3D('',#1170,#936,#937);
#863=AXIS2_PLACEMENT_3D('',#1172,#938,#939);
#864=AXIS2_PLACEMENT_3D('',#1173,#940,#941);
#865=AXIS2_PLACEMENT_3D('',#1182,#946,#947);
#866=AXIS2_PLACEMENT_3D('',#1190,#952,#953);
#867=AXIS2_PLACEMENT_3D('',#1206,#962,#963);
#868=AXIS2_PLACEMENT_3D('',#1212,#967,#968);
#869=AXIS2_PLACEMENT_3D('',#1218,#972,#973);
#870=AXIS2_PLACEMENT_3D('',#1224,#977,#978);
#871=AXIS2_PLACEMENT_3D('',#1230,#982,#983);
#872=AXIS2_PLACEMENT_3D('',#1248,#993,#994);
#873=AXIS2_PLACEMENT_3D('',#1252,#997,#998);
#874=AXIS2_PLACEMENT_3D('',#1256,#1000,#1001);
#875=AXIS2_PLACEMENT_3D('',#1258,#1002,#1003);
#876=AXIS2_PLACEMENT_3D('',#1261,#1006,#1007);
#877=AXIS2_PLACEMENT_3D('',#1262,#1008,#1009);
#878=AXIS2_PLACEMENT_3D('',#1263,#1010,#1011);
#879=AXIS2_PLACEMENT_3D('',#1267,#1014,#1015);
#880=AXIS2_PLACEMENT_3D('',#1269,#1017,#1018);
#881=AXIS2_PLACEMENT_3D('',#1272,#1020,#1021);
#882=AXIS2_PLACEMENT_3D('',#1275,#1022,#1023);
#883=AXIS2_PLACEMENT_3D('',#1282,#1027,#1028);
#884=AXIS2_PLACEMENT_3D('',#1283,#1029,#1030);
#885=AXIS2_PLACEMENT_3D('',#1292,#1035,#1036);
#886=AXIS2_PLACEMENT_3D('',#1302,#1042,#1043);
#887=AXIS2_PLACEMENT_3D('',#1305,#1045,#1046);
#888=AXIS2_PLACEMENT_3D('',#1306,#1047,#1048);
#889=AXIS2_PLACEMENT_3D('',#1309,#1050,#1051);
#890=AXIS2_PLACEMENT_3D('',#1314,#1054,#1055);
#891=AXIS2_PLACEMENT_3D('',#1316,#1056,#1057);
#892=AXIS2_PLACEMENT_3D('',#1317,#1058,#1059);
#893=AXIS2_PLACEMENT_3D('',#1324,#1064,#1065);
#894=AXIS2_PLACEMENT_3D('',#1327,#1068,#1069);
#895=AXIS2_PLACEMENT_3D('',#1330,#1071,#1072);
#896=AXIS2_PLACEMENT_3D('',#1331,#1073,#1074);
#897=AXIS2_PLACEMENT_3D('',#1335,#1076,#1077);
#898=AXIS2_PLACEMENT_3D('',#1337,#1079,#1080);
#899=AXIS2_PLACEMENT_3D('',#1340,#1082,#1083);
#900=AXIS2_PLACEMENT_3D('',#1342,#1084,#1085);
#901=AXIS2_PLACEMENT_3D('',#1343,#1086,#1087);
#902=AXIS2_PLACEMENT_3D('',#1349,#1091,#1092);
#903=AXIS2_PLACEMENT_3D('',#1351,#1094,#1095);
#904=AXIS2_PLACEMENT_3D('',#1354,#1097,#1098);
#905=AXIS2_PLACEMENT_3D('',#1356,#1099,#1100);
#906=AXIS2_PLACEMENT_3D('',#1358,#1101,#1102);
#907=AXIS2_PLACEMENT_3D('',#1359,#1103,#1104);
#908=AXIS2_PLACEMENT_3D('',#1360,#1105,#1106);
#909=AXIS2_PLACEMENT_3D('',#1362,#1107,#1108);
#910=AXIS2_PLACEMENT_3D('',#1364,#1110,#1111);
#911=AXIS2_PLACEMENT_3D('',#1366,#1112,#1113);
#912=AXIS2_PLACEMENT_3D('',#1367,#1114,#1115);
#913=AXIS2_PLACEMENT_3D('',#1369,#1117,#1118);
#914=AXIS2_PLACEMENT_3D('',#1370,#1119,#1120);
#915=AXIS2_PLACEMENT_3D('',#1373,#1122,#1123);
#916=AXIS2_PLACEMENT_3D('',#1374,#1124,#1125);
#917=AXIS2_PLACEMENT_3D('',#1376,#1127,#1128);
#918=AXIS2_PLACEMENT_3D('',#1378,#1129,#1130);
#919=AXIS2_PLACEMENT_3D('',#1380,#1132,#1133);
#920=AXIS2_PLACEMENT_3D('',#1381,#1134,#1135);
#921=AXIS2_PLACEMENT_3D('',#1383,#1137,#1138);
#922=AXIS2_PLACEMENT_3D('',#1385,#1140,#1141);
#923=AXIS2_PLACEMENT_3D('',#1387,#1142,#1143);
#924=AXIS2_PLACEMENT_3D('',#1389,#1144,#1145);
#925=AXIS2_PLACEMENT_3D('',#1390,#1146,#1147);
#926=AXIS2_PLACEMENT_3D('',#1391,#1148,#1149);
#927=AXIS2_PLACEMENT_3D('',#1393,#1151,#1152);
#928=AXIS2_PLACEMENT_3D('',#1395,#1154,#1155);
#929=AXIS2_PLACEMENT_3D('',#1397,#1157,#1158);
#930=AXIS2_PLACEMENT_3D('',#1398,#1159,#1160);
#931=AXIS2_PLACEMENT_3D('',#1401,#1162,#1163);
#932=AXIS2_PLACEMENT_3D('',#1402,#1164,#1165);
#933=AXIS2_PLACEMENT_3D('',#1404,#1167,#1168);
#934=DIRECTION('axis',(0.,0.,1.));
#935=DIRECTION('refdir',(1.,0.,0.));
#936=DIRECTION('center_axis',(1.,-6.04737209932391E-21,1.81438008200833E-29));
#937=DIRECTION('ref_axis',(6.04737209339846E-21,1.,-1.27116629614482E-9));
#938=DIRECTION('center_axis',(1.,-6.04737209932391E-21,1.81438008200833E-29));
#939=DIRECTION('ref_axis',(1.20301204675762E-13,-1.27122052414763E-9,-1.));
#940=DIRECTION('center_axis',(4.1740257643857E-14,0.707106646451852,-0.707106915921218));
#941=DIRECTION('ref_axis',(-1.,0.,-5.90296272091723E-14));
#942=DIRECTION('',(-0.281084358828691,-0.678598531607597,-0.678598273002427));
#943=DIRECTION('',(-1.,4.24991627091209E-21,-5.90296229592577E-14));
#944=DIRECTION('',(-3.82180524143439E-14,0.707106915921218,0.707106646451852));
#945=DIRECTION('',(1.,-4.24991627091209E-21,5.90296229592577E-14));
#946=DIRECTION('center_axis',(0.499999998099503,0.499999997211327,-0.707106784502291));
#947=DIRECTION('ref_axis',(-0.816496583238456,0.,-0.577350265921761));
#948=DIRECTION('',(0.816496597094154,-4.15670994133418E-8,0.577350246326841));
#949=DIRECTION('',(0.707106781194151,-0.707106781178944,8.98930353993045E-10));
#950=DIRECTION('',(-0.67859834756756,-0.281084623987239,-0.678598347210284));
#951=DIRECTION('',(-0.707106781194151,0.707106781178944,-8.98930353993045E-10));
#952=DIRECTION('center_axis',(0.,0.999999999999997,7.19963309581933E-8));
#953=DIRECTION('ref_axis',(-1.,0.,0.));
#954=DIRECTION('',(-1.2126184642054E-13,-2.20721894114878E-8,1.));
#955=DIRECTION('',(-1.,2.72132144344123E-21,-1.23291867096106E-13));
#956=DIRECTION('',(1.22796231001647E-13,2.20721894114878E-8,-1.));
#957=DIRECTION('',(-1.,6.49674228566364E-14,-1.20584809806598E-13));
#958=DIRECTION('',(1.18766819521182E-13,-1.27121402429251E-9,-1.));
#959=DIRECTION('',(-1.,4.07028359728437E-21,-5.65345975706441E-14));
#960=DIRECTION('',(-0.816496566830327,-4.15671024947499E-8,0.577350289126357));
#961=DIRECTION('',(7.88471946512599E-30,1.27121402429251E-9,1.));
#962=DIRECTION('center_axis',(-3.99759674801028E-14,0.70710725798497,0.707106304387804));
#963=DIRECTION('ref_axis',(1.,0.,5.6534593500355E-14));
#964=DIRECTION('',(0.281085653197647,0.678597676656564,-0.678598591807237));
#965=DIRECTION('',(-1.29743595677197E-13,-0.707106304387804,0.70710725798497));
#966=DIRECTION('',(1.,-4.07028359728437E-21,5.65345975706441E-14));
#967=DIRECTION('center_axis',(0.499999999994593,0.500000000904275,0.707106780550952));
#968=DIRECTION('ref_axis',(0.816496580686028,0.,-0.577350269531438));
#969=DIRECTION('',(0.707106781194151,-0.707106781178944,8.98928589743674E-10));
#970=DIRECTION('',(-0.678598344545048,-0.281084636856117,0.678598344902333));
#971=DIRECTION('',(-0.707106781194151,0.707106781178944,-8.98928589743674E-10));
#972=DIRECTION('center_axis',(0.707106781186755,-8.98888613760038E-10,-0.707106781186341));
#973=DIRECTION('ref_axis',(-0.707106781186341,0.,-0.707106781186755));
#974=DIRECTION('',(-6.04737211194569E-21,-1.,1.27122046863652E-9));
#975=DIRECTION('',(-0.678598344629018,0.281084636450476,-0.678598344986384));
#976=DIRECTION('',(6.04737211194569E-21,1.,-1.27122046863652E-9));
#977=DIRECTION('center_axis',(0.500000000113652,-0.500000001012498,-0.707106780390239));
#978=DIRECTION('ref_axis',(-0.816496580559362,0.,-0.577350269710571));
#979=DIRECTION('',(-0.707106781186546,-0.707106781186548,8.98846873509341E-10));
#980=DIRECTION('',(-0.816496580927703,-1.10502399812741E-9,-0.577350269189658));
#981=DIRECTION('',(0.707106781186546,0.707106781186548,-8.98846873509341E-10));
#982=DIRECTION('center_axis',(0.,-1.,1.91395770833947E-9));
#983=DIRECTION('ref_axis',(-2.76101316827354E-30,-1.91395770833947E-9,-1.));
#984=DIRECTION('',(-1.17716296951608E-29,-1.91395770833947E-9,-1.));
#985=DIRECTION('',(0.816496580927747,-1.1050239981273E-9,-0.577350269189596));
#986=DIRECTION('',(1.,0.,0.));
#987=DIRECTION('',(-1.18766819521181E-13,1.27122397283231E-9,1.));
#988=DIRECTION('',(1.,2.30794226079918E-22,1.2058480972401E-13));
#989=DIRECTION('',(1.20301204650149E-13,-1.91395770833947E-9,-1.));
#990=DIRECTION('',(-1.,-2.35975419404158E-22,-1.23291867096106E-13));
#991=DIRECTION('',(-1.21261844909794E-13,1.27122397283231E-9,1.));
#992=DIRECTION('',(1.,0.,0.));
#993=DIRECTION('center_axis',(0.707106781186549,-0.707106781186547,1.3533724744711E-9));
#994=DIRECTION('ref_axis',(1.91395770833947E-9,0.,-1.));
#995=DIRECTION('',(1.17716296951608E-29,1.91395770833947E-9,1.));
#996=DIRECTION('',(0.707106781186546,0.707106781186548,-8.98848637758713E-10));
#997=DIRECTION('center_axis',(1.,-6.04737211194569E-21,-1.97215226305253E-31));
#998=DIRECTION('ref_axis',(6.04737210602023E-21,1.,-1.27116629614482E-9));
#999=DIRECTION('',(1.33281527470309E-28,2.20721894114878E-8,-1.));
#1000=DIRECTION('center_axis',(-1.,6.04737209932391E-21,-4.14151975241031E-30));
#1001=DIRECTION('ref_axis',(6.04737208498393E-21,1.,-1.27116629614482E-9));
#1002=DIRECTION('center_axis',(-1.,6.04737209932391E-21,-4.14151975241031E-30));
#1003=DIRECTION('ref_axis',(6.04737208498393E-21,1.,-1.27116629614482E-9));
#1004=DIRECTION('',(-7.88471946512599E-30,-1.27121402429251E-9,-1.));
#1005=DIRECTION('',(6.04737211194569E-21,1.,-1.27122046863652E-9));
#1006=DIRECTION('center_axis',(0.707106781178944,0.707106781194151,-8.98884056926337E-10));
#1007=DIRECTION('ref_axis',(-1.27121402431985E-9,0.,-1.));
#1008=DIRECTION('center_axis',(-0.707106781178944,-0.707106781194151,8.98884056926337E-10));
#1009=DIRECTION('ref_axis',(-0.707106781194151,0.707106781178944,-8.98850308010127E-10));
#1010=DIRECTION('center_axis',(0.707106783940945,8.98888610250303E-10,0.70710677843215));
#1011=DIRECTION('ref_axis',(0.70710677843215,0.,-0.707106783940945));
#1012=DIRECTION('',(-6.04737211194569E-21,-1.,1.27122046863652E-9));
#1013=DIRECTION('',(0.678598344462666,-0.28108463897918,-0.678598344105313));
#1014=DIRECTION('center_axis',(0.49999999988635,-0.4999999989875,0.707106781982855));
#1015=DIRECTION('ref_axis',(0.816496581296088,0.,-0.577350268668683));
#1016=DIRECTION('',(-0.707106781186546,-0.707106781186548,8.98848637758713E-10));
#1017=DIRECTION('center_axis',(5.65345975706441E-14,-1.27122046863652E-9,
-1.));
#1018=DIRECTION('ref_axis',(1.18009001922669E-13,1.,-1.27122046863652E-9));
#1019=DIRECTION('',(1.57940540410525E-14,1.,-1.27121649912398E-9));
#1020=DIRECTION('center_axis',(-5.65345975706441E-14,1.27122046863652E-9,
1.));
#1021=DIRECTION('ref_axis',(1.18009001922669E-13,1.,-1.27122046863652E-9));
#1022=DIRECTION('center_axis',(5.65345975706441E-14,-1.27122046863652E-9,
-1.));
#1023=DIRECTION('ref_axis',(1.18009001922669E-13,1.,-1.27122046863652E-9));
#1024=DIRECTION('',(-1.,5.00894755320506E-14,-1.4012786066507E-13));
#1025=DIRECTION('',(5.28759178113255E-14,1.,-1.27121454744706E-9));
#1026=DIRECTION('',(1.,-6.05386334042531E-14,1.45352439617774E-13));
#1027=DIRECTION('center_axis',(5.65345975706441E-14,-1.27122046863652E-9,
-1.));
#1028=DIRECTION('ref_axis',(1.18009001922669E-13,1.,-1.27122046863652E-9));
#1029=DIRECTION('center_axis',(-5.38076498070737E-14,-0.999999999999997,
-7.19963309581933E-8));
#1030=DIRECTION('ref_axis',(1.,-5.38076498070735E-14,-3.87395334861838E-21));
#1031=DIRECTION('',(-6.21724932157439E-14,-7.19963309581933E-8,0.999999999999998));
#1032=DIRECTION('',(1.,-5.38076498070734E-14,-3.90821672344283E-21));
#1033=DIRECTION('',(0.,-7.19963309581933E-8,0.999999999999998));
#1034=DIRECTION('',(-1.,5.38076498070735E-14,3.87395334861838E-21));
#1035=DIRECTION('center_axis',(5.35023384753017E-14,1.,-1.27122052414763E-9));
#1036=DIRECTION('ref_axis',(-5.61598486316091E-14,1.27122052414763E-9,1.));
#1037=DIRECTION('',(6.21724893112645E-14,-1.27122052414763E-9,-1.));
#1038=DIRECTION('',(-1.,6.05386335139267E-14,-5.90785547605187E-14));
#1039=DIRECTION('',(5.90893555307858E-14,-1.2712184651846E-9,-1.));
#1040=DIRECTION('',(1.2030120467595E-13,-1.27122052414763E-9,-1.));
#1041=DIRECTION('',(-5.82860985606482E-14,1.2712224831346E-9,1.));
#1042=DIRECTION('center_axis',(1.,0.,0.));
#1043=DIRECTION('ref_axis',(0.,1.,-1.27116629614482E-9));
#1044=DIRECTION('',(-1.,0.,0.));
#1045=DIRECTION('center_axis',(1.,-4.0143366255707E-14,1.20301204726793E-13));
#1046=DIRECTION('ref_axis',(0.,1.,-1.27116629614482E-9));
#1047=DIRECTION('center_axis',(-5.90296229592577E-14,1.27122046863652E-9,
1.));
#1048=DIRECTION('ref_axis',(-1.18009001922669E-13,-1.,1.27122046863652E-9));
#1049=DIRECTION('',(1.99315588103399E-14,-1.,1.27122052414763E-9));
#1050=DIRECTION('center_axis',(-5.90296229592577E-14,1.27122046863652E-9,
1.));
#1051=DIRECTION('ref_axis',(-1.18009001922669E-13,-1.,1.27122046863652E-9));
#1052=DIRECTION('',(-5.28759178113225E-14,-1.,1.27122052420279E-9));
#1053=DIRECTION('',(1.,-6.57632124534103E-14,5.90295743746331E-14));
#1054=DIRECTION('center_axis',(5.90296229592577E-14,-1.27122046863652E-9,
-1.));
#1055=DIRECTION('ref_axis',(-1.18009001922669E-13,-1.,1.27122046863652E-9));
#1056=DIRECTION('center_axis',(-5.90296229592577E-14,1.27122046863652E-9,
1.));
#1057=DIRECTION('ref_axis',(-1.18009001922669E-13,-1.,1.27122046863652E-9));
#1058=DIRECTION('center_axis',(-1.,4.01433662709709E-14,-1.22796230115595E-13));
#1059=DIRECTION('ref_axis',(-1.22796230064562E-13,1.27126837475999E-9,1.));
#1060=DIRECTION('',(4.01433664270724E-14,1.,-1.27122366244646E-9));
#1061=DIRECTION('',(1.24588243895244E-13,-1.27122542920867E-9,-1.));
#1062=DIRECTION('',(9.17424955638381E-14,-1.25060158104603E-9,-1.));
#1063=DIRECTION('',(-4.01433664270715E-14,-1.,1.27121727497316E-9));
#1064=DIRECTION('center_axis',(5.38076498070735E-14,1.,-1.27122052414763E-9));
#1065=DIRECTION('ref_axis',(-7.01364659571913E-14,1.27122052414763E-9,1.));
#1066=DIRECTION('',(-6.21724893112645E-14,1.27122052414763E-9,1.));
#1067=DIRECTION('',(5.90893555307858E-14,-1.2712184651846E-9,-1.));
#1068=DIRECTION('center_axis',(1.,-5.2875917739382E-14,5.65943302093887E-14));
#1069=DIRECTION('ref_axis',(-5.28759178113255E-14,-1.,1.27121454744706E-9));
#1070=DIRECTION('',(-1.18766819521182E-13,1.27121402429251E-9,1.));
#1071=DIRECTION('center_axis',(1.,-5.2875917739382E-14,5.65943302093887E-14));
#1072=DIRECTION('ref_axis',(1.20301204675762E-13,-1.27122052414763E-9,-1.));
#1073=DIRECTION('center_axis',(1.23291867096106E-13,-1.27122366244646E-9,
-1.));
#1074=DIRECTION('ref_axis',(-5.05648212799234E-14,-1.,1.27122366244646E-9));
#1075=DIRECTION('',(4.01433664270724E-14,1.,-1.27122366244646E-9));
#1076=DIRECTION('center_axis',(-5.90296229592577E-14,1.27122046863652E-9,
1.));
#1077=DIRECTION('ref_axis',(-1.07143457799745E-13,-1.,1.27122049035824E-9));
#1078=DIRECTION('',(4.01433664270724E-14,1.,-1.27122366244646E-9));
#1079=DIRECTION('center_axis',(-5.90296229592576E-14,1.27122046863652E-9,
1.));
#1080=DIRECTION('ref_axis',(-1.18009001904234E-13,-1.,1.27122046863652E-9));
#1081=DIRECTION('',(6.47182967406622E-14,1.,-1.27122366244646E-9));
#1082=DIRECTION('center_axis',(1.23291867096106E-13,-1.27122366244646E-9,
-1.));
#1083=DIRECTION('ref_axis',(-1.18009001922669E-13,-1.,1.2712229060767E-9));
#1084=DIRECTION('center_axis',(-1.23291867096106E-13,1.27122366244646E-9,
1.));
#1085=DIRECTION('ref_axis',(-1.18009001922669E-13,-1.,1.2712229060767E-9));
#1086=DIRECTION('center_axis',(-1.,4.01433662741425E-14,-1.20301204726981E-13));
#1087=DIRECTION('ref_axis',(-1.20301204675948E-13,1.27126837475999E-9,1.));
#1088=DIRECTION('',(-4.01433664270715E-14,-1.,1.27121727497316E-9));
#1089=DIRECTION('',(-1.21261844909795E-13,1.2712140242925E-9,1.));
#1090=DIRECTION('',(-1.21261844909795E-13,1.2712140242925E-9,1.));
#1091=DIRECTION('center_axis',(-1.2058480972401E-13,1.27121727497316E-9,
1.));
#1092=DIRECTION('ref_axis',(5.05648212799225E-14,1.,-1.27121727497316E-9));
#1093=DIRECTION('',(-6.47182967406613E-14,-1.,1.27121727497316E-9));
#1094=DIRECTION('center_axis',(5.65345975706441E-14,-1.27122046863652E-9,
-1.));
#1095=DIRECTION('ref_axis',(1.18009001922669E-13,1.,-1.27122046863652E-9));
#1096=DIRECTION('',(-4.01433664270715E-14,-1.,1.27121727497316E-9));
#1097=DIRECTION('center_axis',(5.65345975706441E-14,-1.27122046863652E-9,
-1.));
#1098=DIRECTION('ref_axis',(-1.07143457799745E-13,-1.,1.27122049035824E-9));
#1099=DIRECTION('center_axis',(-1.2058480972401E-13,1.27121727497316E-9,
1.));
#1100=DIRECTION('ref_axis',(1.18009001922669E-13,1.,-1.2712229060767E-9));
#1101=DIRECTION('center_axis',(1.2058480972401E-13,-1.27121727497316E-9,
-1.));
#1102=DIRECTION('ref_axis',(1.18009001922669E-13,1.,-1.27122046863652E-9));
#1103=DIRECTION('center_axis',(-1.,6.47182965896828E-14,-1.18766819603452E-13));
#1104=DIRECTION('ref_axis',(-1.18766819521182E-13,1.27121402429251E-9,1.));
#1105=DIRECTION('center_axis',(5.90893555307851E-14,-1.2712229060767E-9,
-1.));
#1106=DIRECTION('ref_axis',(-1.18009001922669E-13,-1.,1.2712229060767E-9));
#1107=DIRECTION('center_axis',(1.2269512222037E-13,-1.27122366244648E-9,
-1.));
#1108=DIRECTION('ref_axis',(-1.18009001922669E-13,-1.,1.2712229060767E-9));
#1109=DIRECTION('',(-5.90893555307851E-14,1.2712229060767E-9,1.));
#1110=DIRECTION('center_axis',(1.2269512222037E-13,-1.27122366244648E-9,
-1.));
#1111=DIRECTION('ref_axis',(-4.01433664096272E-14,-1.,1.27122366244648E-9));
#1112=DIRECTION('center_axis',(-1.2269512222037E-13,1.27122366244648E-9,
1.));
#1113=DIRECTION('ref_axis',(-1.18009001922669E-13,-1.,1.27122209864178E-9));
#1114=DIRECTION('center_axis',(-6.23190952387859E-14,1.27122209864178E-9,
1.));
#1115=DIRECTION('ref_axis',(-1.18009001922669E-13,-1.,1.27122209864178E-9));
#1116=DIRECTION('',(-6.23190952387859E-14,1.27122209864178E-9,1.));
#1117=DIRECTION('center_axis',(5.90893555307858E-14,-1.2712184651846E-9,
-1.));
#1118=DIRECTION('ref_axis',(-1.18009001922669E-13,-1.,1.2712184651846E-9));
#1119=DIRECTION('center_axis',(5.90893555307851E-14,-1.2712229060767E-9,
-1.));
#1120=DIRECTION('ref_axis',(-1.18009001922669E-13,-1.,1.2712229060767E-9));
#1121=DIRECTION('',(5.90893555307851E-14,-1.2712229060767E-9,-1.));
#1122=DIRECTION('center_axis',(5.90296229592577E-14,-1.27122046863652E-9,
-1.));
#1123=DIRECTION('ref_axis',(-1.18009001922669E-13,-1.,1.2712229060767E-9));
#1124=DIRECTION('center_axis',(5.90295742910337E-14,-1.27122052414763E-9,
-1.));
#1125=DIRECTION('ref_axis',(-1.18009001922669E-13,-1.,1.27122144361259E-9));
#1126=DIRECTION('',(1.25271773377943E-13,0.707106780287646,-0.707106782085449));
#1127=DIRECTION('center_axis',(5.67026913750858E-14,-1.27122049035824E-9,
-1.));
#1128=DIRECTION('ref_axis',(-1.07143457799745E-13,-1.,1.27122049035824E-9));
#1129=DIRECTION('center_axis',(9.52996377939838E-14,-1.25057013326575E-9,
-1.));
#1130=DIRECTION('ref_axis',(-1.07143457799745E-13,-1.,1.27122049035824E-9));
#1131=DIRECTION('',(-5.91977167636993E-14,1.27122049035824E-9,1.));
#1132=DIRECTION('center_axis',(1.,-4.0143366255707E-14,1.20301204726793E-13));
#1133=DIRECTION('ref_axis',(1.20301204675762E-13,-1.27122052414763E-9,-1.));
#1134=DIRECTION('center_axis',(-1.,4.01433662741425E-14,-1.20301204726981E-13));
#1135=DIRECTION('ref_axis',(-1.20301204675948E-13,1.27126837475999E-9,1.));
#1136=DIRECTION('',(-5.91977167636993E-14,1.27122049035824E-9,1.));
#1137=DIRECTION('center_axis',(5.38076498070734E-14,1.,-1.27122052414763E-9));
#1138=DIRECTION('ref_axis',(-6.76414405685777E-14,1.27122052414763E-9,1.));
#1139=DIRECTION('',(-5.82860985606482E-14,1.2712224831346E-9,1.));
#1140=DIRECTION('center_axis',(-1.19988064848274E-13,1.27121727497317E-9,
1.));
#1141=DIRECTION('ref_axis',(4.01433664096264E-14,1.,-1.27121727497317E-9));
#1142=DIRECTION('center_axis',(1.19988064848274E-13,-1.27121727497317E-9,
-1.));
#1143=DIRECTION('ref_axis',(1.18009001922669E-13,1.,-1.27122209864178E-9));
#1144=DIRECTION('center_axis',(-1.19988064848274E-13,1.27121727497317E-9,
1.));
#1145=DIRECTION('ref_axis',(1.18009001922669E-13,1.,-1.27122046863652E-9));
#1146=DIRECTION('center_axis',(-1.,6.47182965896828E-14,-1.18766819603452E-13));
#1147=DIRECTION('ref_axis',(-1.18766819521182E-13,1.27121402429251E-9,1.));
#1148=DIRECTION('center_axis',(-5.65345975706441E-14,1.27122046863652E-9,
1.));
#1149=DIRECTION('ref_axis',(1.18009001922669E-13,1.,-1.27122046863652E-9));
#1150=DIRECTION('',(5.65345975706441E-14,-1.27122046863652E-9,-1.));
#1151=DIRECTION('center_axis',(1.,-4.01433662748025E-14,1.20301204726793E-13));
#1152=DIRECTION('ref_axis',(1.20301204675762E-13,-1.27122052414763E-9,-1.));
#1153=DIRECTION('',(-1.,4.01433662748025E-14,-1.20301204726793E-13));
#1154=DIRECTION('center_axis',(5.98240698501724E-14,-1.27122209864178E-9,
-1.));
#1155=DIRECTION('ref_axis',(1.18009001922669E-13,1.,-1.27122209864178E-9));
#1156=DIRECTION('',(5.98240698501724E-14,-1.27122209864178E-9,-1.));
#1157=DIRECTION('center_axis',(-5.82860985606482E-14,1.2712224831346E-9,
1.));
#1158=DIRECTION('ref_axis',(1.18009001922669E-13,1.,-1.2712224831346E-9));
#1159=DIRECTION('center_axis',(-5.65943301421716E-14,1.2712229060767E-9,
1.));
#1160=DIRECTION('ref_axis',(1.18009001922669E-13,1.,-1.2712229060767E-9));
#1161=DIRECTION('',(-5.65943301421716E-14,1.2712229060767E-9,1.));
#1162=DIRECTION('center_axis',(-5.65345975706441E-14,1.27122046863652E-9,
1.));
#1163=DIRECTION('ref_axis',(1.18009001922669E-13,1.,-1.2712229060767E-9));
#1164=DIRECTION('center_axis',(-5.65345489024201E-14,1.27122052414763E-9,
1.));
#1165=DIRECTION('ref_axis',(1.18009001922669E-13,1.,-1.27122144361259E-9));
#1166=DIRECTION('',(-1.23334332795177E-13,-0.707106780287671,0.707106782085424));
#1167=DIRECTION('center_axis',(5.67026913750858E-14,-1.27122049035824E-9,
-1.));
#1168=DIRECTION('ref_axis',(-1.07143457799745E-13,-1.,1.27122049035824E-9));
#1169=CARTESIAN_POINT('',(0.,0.,0.));
#1170=CARTESIAN_POINT('Origin',(4.49881391772363,111.719131304603,93.5151329790835));
#1171=CARTESIAN_POINT('',(4.49881391772353,111.719131306192,94.7651329790807));
#1172=CARTESIAN_POINT('Origin',(4.49881391772363,111.719131304603,93.5151329790807));
#1173=CARTESIAN_POINT('Origin',(0.580313917739052,115.319132386305,56.216729904062));
#1174=CARTESIAN_POINT('',(3.38459961966393,116.319132766122,57.216729902792));
#1175=CARTESIAN_POINT('',(2.55617323057798,114.319132006488,55.2167299053323));
#1176=CARTESIAN_POINT('',(2.9103069480558,115.174087514061,56.0716850870926));
#1177=CARTESIAN_POINT('',(-10.9011860822485,114.319132006488,55.2167299053314));
#1178=CARTESIAN_POINT('',(0.580313917739111,114.319132006488,55.2167299053321));
#1179=CARTESIAN_POINT('',(-10.901186082248,116.319131962343,57.2167299027911));
#1180=CARTESIAN_POINT('',(-10.9011860822473,122.294122281855,63.1917171415322));
#1181=CARTESIAN_POINT('',(0.580313917738993,116.319132766122,57.2167299027918));
#1182=CARTESIAN_POINT('Origin',(4.41640371840473,114.580221880226,56.7167299050005));
#1183=CARTESIAN_POINT('',(4.79881391772356,116.319132042439,58.2167299027899));
#1184=CARTESIAN_POINT('',(7.87689446473609,116.319132537423,60.3932618621483));
#1185=CARTESIAN_POINT('',(6.99881391772356,114.119131940271,58.2167299055883));
#1186=CARTESIAN_POINT('',(5.47706389821354,115.640882061964,58.2167299036522));
#1187=CARTESIAN_POINT('',(3.99881391772358,112.876491319373,55.2167299071663));
#1188=CARTESIAN_POINT('',(6.99881391772356,114.119131940271,58.2167299055868));
#1189=CARTESIAN_POINT('',(3.35574353859592,113.519561698487,55.2167299063487));
#1190=CARTESIAN_POINT('Origin',(4.79881391772357,116.319131606981,73.3167304449523));
#1191=CARTESIAN_POINT('',(-10.9011860822483,116.319132011828,59.4167298560409));
#1192=CARTESIAN_POINT('',(-10.901186082248,116.319131960136,57.3167298794153));
#1193=CARTESIAN_POINT('',(-0.501186082238177,116.319132011827,59.4167298560413));
#1194=CARTESIAN_POINT('',(4.21181391774343,116.319131913784,59.4167299027908));
#1195=CARTESIAN_POINT('',(-0.501186082241701,116.319132096847,101.016695973231));
#1196=CARTESIAN_POINT('',(-0.50118608224125,116.319131808866,64.170137378102));
#1197=CARTESIAN_POINT('',(-10.9011860822522,116.319132096848,101.01669597323));
#1198=CARTESIAN_POINT('',(1.56181391775594,116.319132096847,101.016695973231));
#1199=CARTESIAN_POINT('',(-10.9011860822524,116.319132099646,103.216695926487));
#1200=CARTESIAN_POINT('',(-10.9011860822506,116.319132079688,87.5166961587236));
#1201=CARTESIAN_POINT('',(3.384603066791,116.319129454293,103.216695926487));
#1202=CARTESIAN_POINT('',(0.58031391773454,116.319129454293,103.216695926487));
#1203=CARTESIAN_POINT('',(4.79881391772356,116.319132098373,102.216695973231));
#1204=CARTESIAN_POINT('',(11.1295786042987,116.319129848583,97.7401709201232));
#1205=CARTESIAN_POINT('',(4.79881391772356,116.319132066465,77.1167046411156));
#1206=CARTESIAN_POINT('Origin',(0.580313917734484,115.31913077824,104.21669595113));
#1207=CARTESIAN_POINT('',(2.55617323060224,114.319132102186,105.216695975773));
#1208=CARTESIAN_POINT('',(2.91030835643152,115.174085995693,104.361740929283));
#1209=CARTESIAN_POINT('',(-10.9011860822532,114.319132102186,105.216695975772));
#1210=CARTESIAN_POINT('',(-10.9011860822532,111.894136849498,107.641694498787));
#1211=CARTESIAN_POINT('',(0.580313917734427,114.319132102186,105.216695975773));
#1212=CARTESIAN_POINT('Origin',(4.41640371840836,114.58022195605,103.716695975441));
#1213=CARTESIAN_POINT('',(3.99881391772356,112.876491415096,105.216695977607));
#1214=CARTESIAN_POINT('',(3.3557435466399,113.519561786165,105.216695976789));
#1215=CARTESIAN_POINT('',(6.99881391772356,114.11913209842,102.216695976027));
#1216=CARTESIAN_POINT('',(6.99881391772356,114.11913209842,102.216695976027));
#1217=CARTESIAN_POINT('',(5.47706389017682,115.640882125934,102.216695974093));
#1218=CARTESIAN_POINT('Origin',(5.49881391772357,107.36913212648,56.7167299141682));
#1219=CARTESIAN_POINT('',(6.99881391772356,100.619132232285,58.2167299227482));
#1220=CARTESIAN_POINT('',(6.99881391772356,107.369132128387,58.2167299141691));
#1221=CARTESIAN_POINT('',(3.99881391772358,101.861772913662,55.2167299211684));
#1222=CARTESIAN_POINT('',(6.99881391772356,100.619132232285,58.2167299227482));
#1223=CARTESIAN_POINT('',(3.99881391772358,107.369132124573,55.2167299141673));
#1224=CARTESIAN_POINT('Origin',(4.41640372398853,100.158042379238,56.7167299233342));
#1225=CARTESIAN_POINT('',(4.79881391772356,98.4191322322847,58.2167299255448));
#1226=CARTESIAN_POINT('',(5.47706389528626,99.0973822098474,58.2167299246826));
#1227=CARTESIAN_POINT('',(0.556173230604261,98.4191322265428,55.2167299255465));
#1228=CARTESIAN_POINT('',(15.3957887041315,98.4191322466263,65.7099226570774));
#1229=CARTESIAN_POINT('',(3.3557435526908,101.218702548629,55.2167299219858));
#1230=CARTESIAN_POINT('Origin',(4.79881391772356,98.4191323222406,105.216695995987));
#1231=CARTESIAN_POINT('',(4.79881391772356,98.4191323164987,102.216695995985));
#1232=CARTESIAN_POINT('',(4.79881391772356,98.4191322983162,92.7167044812533));
#1233=CARTESIAN_POINT('',(0.556173230604254,98.4191323222406,105.216695995987));
#1234=CARTESIAN_POINT('',(3.61068367874415,98.4191323181067,103.0568309449));
#1235=CARTESIAN_POINT('',(-10.9011860822535,98.4191323222975,105.216695995984));
#1236=CARTESIAN_POINT('',(4.79881391772356,98.4191323222406,105.216695995987));
#1237=CARTESIAN_POINT('',(-10.9011860822524,98.4191323169588,101.016695995985));
#1238=CARTESIAN_POINT('',(-10.9011860822529,98.4191323121408,97.2708941163038));
#1239=CARTESIAN_POINT('',(-0.501186082242575,98.4191323169017,101.016695995986));
#1240=CARTESIAN_POINT('',(4.21181391773978,98.419132314202,101.016695995987));
#1241=CARTESIAN_POINT('',(-0.501186082237755,98.4191322318822,59.416729925545));
#1242=CARTESIAN_POINT('',(-0.501186082246437,98.4191323055,96.4701036189902));
#1243=CARTESIAN_POINT('',(-10.901186082248,98.4191322318828,59.4167299255437));
#1244=CARTESIAN_POINT('',(4.2118139177465,98.4191322345814,59.4167299255457));
#1245=CARTESIAN_POINT('',(-10.9011860822482,98.4191322265432,55.2167299255439));
#1246=CARTESIAN_POINT('',(-10.9011860822506,98.4191322442826,69.1709277811125));
#1247=CARTESIAN_POINT('',(4.79881391772357,98.4191322265428,55.2167299255465));
#1248=CARTESIAN_POINT('Origin',(5.89881391772356,99.5191322983162,92.716704479148));
#1249=CARTESIAN_POINT('',(6.99881391772356,100.619132316499,102.216695969817));
#1250=CARTESIAN_POINT('',(6.99881391772356,100.619132298316,92.7167044770426));
#1251=CARTESIAN_POINT('',(5.47706388917828,99.0973822879535,102.216695995123));
#1252=CARTESIAN_POINT('Origin',(6.99881391772356,107.369132164412,80.2167129493895));
#1253=CARTESIAN_POINT('',(6.99881391772359,114.11913208507,91.7151340197054));
#1254=CARTESIAN_POINT('',(6.99881391772356,114.119131730585,67.7167214763048));
#1255=CARTESIAN_POINT('',(6.9988139177236,108.719131304603,93.5151329828956));
#1256=CARTESIAN_POINT('Origin',(6.99881391772359,111.719131304603,93.5151329790821));
#1257=CARTESIAN_POINT('',(6.99881391772359,114.119132089647,95.315131932357));
#1258=CARTESIAN_POINT('Origin',(6.99881391772359,111.719131304603,93.5151329790821));
#1259=CARTESIAN_POINT('',(6.99881391772356,114.119132066513,77.1167046439123));
#1260=CARTESIAN_POINT('',(6.99881391772356,107.36913220039,102.216695961236));
#1261=CARTESIAN_POINT('Origin',(5.89881391772356,115.219132066489,77.1167046425139));
#1262=CARTESIAN_POINT('Origin',(9.39881470053048,111.719131304603,93.5151329790821));
#1263=CARTESIAN_POINT('Origin',(5.49881391772356,107.369132202296,103.716695972922));
#1264=CARTESIAN_POINT('',(3.99881391772356,101.86177300936,105.216695991609));
#1265=CARTESIAN_POINT('',(3.99881391772356,107.369132204203,105.216695984608));
#1266=CARTESIAN_POINT('',(3.99881391772356,101.86177300936,105.216695991609));
#1267=CARTESIAN_POINT('Origin',(4.41640371691635,100.158042462122,103.716695993775));
#1268=CARTESIAN_POINT('',(3.35574354465443,101.218702636291,105.216695992427));
#1269=CARTESIAN_POINT('Origin',(-3.63818608225291,107.369132212214,105.216695984608));
#1270=CARTESIAN_POINT('',(-10.9011860822535,98.4191323222975,105.216695995984));
#1271=CARTESIAN_POINT('',(-6.63818608225216,104.619132212213,105.216695988103));
#1272=CARTESIAN_POINT('Origin',(-6.63818608225183,107.369132212213,105.216695984607));
#1273=CARTESIAN_POINT('',(-0.501186082243279,110.219132102185,105.216695980984));
#1274=CARTESIAN_POINT('',(-0.501186082242922,113.219132102185,105.21669597717));
#1275=CARTESIAN_POINT('Origin',(-0.501186082243109,111.719132102185,105.216695979077));
#1276=CARTESIAN_POINT('',(1.29881391767252,113.219132102185,105.216695977171));
#1277=CARTESIAN_POINT('',(0.298813917672524,113.219132102185,105.216695977171));
#1278=CARTESIAN_POINT('',(1.29881391767236,110.219132102185,105.216695980985));
#1279=CARTESIAN_POINT('',(1.29881391767236,110.219132102185,105.216695980985));
#1280=CARTESIAN_POINT('',(-3.10118608232152,110.219132102186,105.216695980985));
#1281=CARTESIAN_POINT('',(-0.501186082243221,100.019132769461,105.216695993951));
#1282=CARTESIAN_POINT('Origin',(-0.501186082242867,103.019132769462,105.216695990138));
#1283=CARTESIAN_POINT('Origin',(-0.501186082242491,113.219132029497,73.3167302217637));
#1284=CARTESIAN_POINT('',(1.29881391767764,113.219132029416,73.3167304339105));
#1285=CARTESIAN_POINT('',(1.29881391767473,113.219132079272,87.1166959187077));
#1286=CARTESIAN_POINT('',(1.29881391767707,113.219132601867,65.3667301741486));
#1287=CARTESIAN_POINT('',(-0.50118608224559,113.219132079271,87.1166960020208));
#1288=CARTESIAN_POINT('',(1.19881391770108,113.219132079176,87.1166956428851));
#1289=CARTESIAN_POINT('',(-0.501186082242491,113.219132029492,73.316730448827));
#1290=CARTESIAN_POINT('',(-0.501186082242491,113.219132029492,73.316730448827));
#1291=CARTESIAN_POINT('',(1.19881391770209,113.219132029497,73.3167302217637));
#1292=CARTESIAN_POINT('Origin',(-0.900843637259881,110.219132100258,103.700507190905));
#1293=CARTESIAN_POINT('',(1.29881391767754,110.219132006488,55.2167299105442));
#1294=CARTESIAN_POINT('',(1.29881391767596,110.21913207084,80.558618550725));
#1295=CARTESIAN_POINT('',(-0.501185757531915,110.219132006487,55.2167299105436));
#1296=CARTESIAN_POINT('',(0.298813917677544,110.219132006488,55.2167299105441));
#1297=CARTESIAN_POINT('',(-0.501186082236356,110.219132011827,59.4167299105447));
#1298=CARTESIAN_POINT('',(-0.501186082239287,110.219132006488,55.2167299105435));
#1299=CARTESIAN_POINT('',(-0.501186082241194,110.219132096847,101.016695980986));
#1300=CARTESIAN_POINT('',(-0.501186082245838,110.219132090103,95.7120092066336));
#1301=CARTESIAN_POINT('',(-0.50118608224319,110.219132102186,105.216695980984));
#1302=CARTESIAN_POINT('Origin',(4.79881391772359,111.719131304603,93.5151329790821));
#1303=CARTESIAN_POINT('',(4.79881391772359,108.719131304603,93.5151329828956));
#1304=CARTESIAN_POINT('',(4.79881391772359,108.719131304603,93.5151329828956));
#1305=CARTESIAN_POINT('Origin',(4.79881391775422,111.719131304603,93.5151329790821));
#1306=CARTESIAN_POINT('Origin',(-3.63818608224641,107.369132116515,55.2167299141669));
#1307=CARTESIAN_POINT('',(-10.9011860822486,116.319132006488,55.216729902789));
#1308=CARTESIAN_POINT('',(-0.50118608223902,113.219132006487,55.2167299067299));
#1309=CARTESIAN_POINT('Origin',(-0.501186082239207,111.719132006487,55.2167299086367));
#1310=CARTESIAN_POINT('',(1.2988139176777,113.219132006487,55.2167299067305));
#1311=CARTESIAN_POINT('',(1.2988139176777,113.219132006487,55.2167299067305));
#1312=CARTESIAN_POINT('',(-3.10118608231616,113.219132006488,55.2167299067302));
#1313=CARTESIAN_POINT('',(-6.63818608224645,110.119132116515,55.2167299106708));
#1314=CARTESIAN_POINT('Origin',(-6.63818608224677,107.369132116515,55.2167299141667));
#1315=CARTESIAN_POINT('',(-0.501186082238646,106.019132673764,55.2167299158832));
#1316=CARTESIAN_POINT('Origin',(-0.501186082239,103.019132673764,55.2167299196969));
#1317=CARTESIAN_POINT('Origin',(-0.501186082242679,108.094131639462,73.1235446718692));
#1318=CARTESIAN_POINT('',(-0.501186082236194,113.219132011827,59.416729906731));
#1319=CARTESIAN_POINT('',(-0.501186082240868,111.297131816932,59.4167299091743));
#1320=CARTESIAN_POINT('',(-0.501186082241601,113.219132012353,59.8303599067312));
#1321=CARTESIAN_POINT('',(-0.501186082241033,113.219132096847,101.016695977172));
#1322=CARTESIAN_POINT('',(-0.501186082246007,113.21913208497,91.6732590020208));
#1323=CARTESIAN_POINT('',(-0.50118608224669,104.891131511979,101.016695987759));
#1324=CARTESIAN_POINT('Origin',(-2.40118608231921,113.219131997473,48.1252339067322));
#1325=CARTESIAN_POINT('',(1.29881391767785,113.219132003378,52.7709819067316));
#1326=CARTESIAN_POINT('',(-0.501186082239126,113.219132006488,55.2167299067299));
#1327=CARTESIAN_POINT('Origin',(1.29881391767265,113.219132099389,103.016695977171));
#1328=CARTESIAN_POINT('',(1.29881391767366,113.219132096847,101.016695977172));
#1329=CARTESIAN_POINT('',(1.2988139176734,111.719131306192,94.7651329790802));
#1330=CARTESIAN_POINT('Origin',(1.29881391767355,111.719131304603,93.5151329790802));
#1331=CARTESIAN_POINT('Origin',(3.6248139177638,114.500132011827,59.4167299051031));
#1332=CARTESIAN_POINT('',(-0.501186082236901,100.419132679103,59.4167299230029));
#1333=CARTESIAN_POINT('',(-0.501186082240951,110.062695316932,59.4167299107436));
#1334=CARTESIAN_POINT('',(-0.501186082236621,105.619132679103,59.4167299163926));
#1335=CARTESIAN_POINT('Origin',(-0.501186082237116,103.019132679103,59.4167299196967));
#1336=CARTESIAN_POINT('',(-0.501186082240868,111.297131816932,59.4167299091743));
#1337=CARTESIAN_POINT('Origin',(-0.501186082240254,111.719132011826,59.4167299086366));
#1338=CARTESIAN_POINT('',(-10.9011860822484,115.409632011828,59.4167299039452));
#1339=CARTESIAN_POINT('',(-0.501186082239012,105.019132679103,59.4167299171553));
#1340=CARTESIAN_POINT('Origin',(-0.501186082239248,103.019132679103,59.4167299196978));
#1341=CARTESIAN_POINT('',(-6.63818608224611,109.069132121855,59.4167299120066));
#1342=CARTESIAN_POINT('Origin',(-6.63818608224631,107.369132121855,59.4167299141676));
#1343=CARTESIAN_POINT('Origin',(-0.501186082245095,105.625258690159,87.7235112282015));
#1344=CARTESIAN_POINT('',(-0.501186082241721,100.419132764123,101.016695993444));
#1345=CARTESIAN_POINT('',(-0.501186082246773,103.656695011979,101.016695989328));
#1346=CARTESIAN_POINT('',(-0.501186082243852,100.419132696773,73.3167300180282));
#1347=CARTESIAN_POINT('',(-0.50118608224544,100.419132713426,61.1363294402501));
#1348=CARTESIAN_POINT('',(-0.50118608224544,100.419132713426,86.4167294402501));
#1349=CARTESIAN_POINT('Origin',(3.6248139177555,101.688131316902,101.016695991831));
#1350=CARTESIAN_POINT('',(-10.9011860822532,100.053631816931,101.016695993907));
#1351=CARTESIAN_POINT('Origin',(-0.501186082242872,111.719132096846,101.016695979077));
#1352=CARTESIAN_POINT('',(-0.501186082241459,105.619132764123,101.016695986833));
#1353=CARTESIAN_POINT('',(-0.50118608224669,104.891131511979,101.016695987759));
#1354=CARTESIAN_POINT('Origin',(-0.501186082240964,103.019132764123,101.016695990137));
#1355=CARTESIAN_POINT('',(-0.501186082242865,101.019132764122,101.016695992681));
#1356=CARTESIAN_POINT('Origin',(-0.501186082242629,103.019132764122,101.016695990139));
#1357=CARTESIAN_POINT('',(-6.63818608225107,105.669132206874,101.016695986769));
#1358=CARTESIAN_POINT('Origin',(-6.63818608225086,107.369132206874,101.016695984608));
#1359=CARTESIAN_POINT('Origin',(-10.9011860822533,98.4191323169588,101.016695995985));
#1360=CARTESIAN_POINT('Origin',(-6.63818608224619,107.369132119312,57.4167299141665));
#1361=CARTESIAN_POINT('',(-6.63818608224599,109.069132119312,57.4167299120065));
#1362=CARTESIAN_POINT('Origin',(-6.63818608224619,107.369132119312,57.4167299141677));
#1363=CARTESIAN_POINT('',(-6.63818608224599,109.069132119312,57.4167299120054));
#1364=CARTESIAN_POINT('Origin',(3.62481391775791,114.500132009285,57.4167299051032));
#1365=CARTESIAN_POINT('',(-6.6381860822466,110.119132119312,57.4167299106708));
#1366=CARTESIAN_POINT('Origin',(-6.63818608224692,107.369132119312,57.4167299141676));
#1367=CARTESIAN_POINT('Origin',(-6.63818608224692,107.369132119312,57.4167299141667));
#1368=CARTESIAN_POINT('',(-6.6381860822466,110.119132119312,57.4167299106708));
#1369=CARTESIAN_POINT('Origin',(-0.501186082239207,111.719132006487,55.2167299086367));
#1370=CARTESIAN_POINT('Origin',(-0.50118608223913,103.019132676561,57.4167299196973));
#1371=CARTESIAN_POINT('',(-0.501186082238823,105.019132675035,56.2167299171544));
#1372=CARTESIAN_POINT('',(-0.501186082238893,105.019132676561,57.4167299171549));
#1373=CARTESIAN_POINT('Origin',(-0.501186082239059,103.019132675035,56.2167299196969));
#1374=CARTESIAN_POINT('Origin',(-0.501186082239029,103.019132674399,55.7167299196969));
#1375=CARTESIAN_POINT('',(-0.501186082238734,105.519132674399,55.7167299165188));
#1376=CARTESIAN_POINT('Origin',(-0.501186082239457,103.019132730326,99.7107264728906));
#1377=CARTESIAN_POINT('',(-0.501186082241978,105.619132696773,73.3167300115252));
#1378=CARTESIAN_POINT('Origin',(-0.50118608223796,103.019132696773,73.3167300148664));
#1379=CARTESIAN_POINT('',(-0.50118608224118,105.619132679629,59.8303599163916));
#1380=CARTESIAN_POINT('Origin',(4.79881391775422,111.728131309771,95.4285304142411));
#1381=CARTESIAN_POINT('Origin',(-0.501186082244962,108.094131690159,87.723511225063));
#1382=CARTESIAN_POINT('',(-0.50118608224118,105.619132679629,34.5499599163916));
#1383=CARTESIAN_POINT('Origin',(-2.40118608232155,113.21913204817,62.725200459926));
#1384=CARTESIAN_POINT('',(-0.501186082243029,113.219132102186,105.21669597717));
#1385=CARTESIAN_POINT('Origin',(3.62481391774928,101.688131319444,103.016695991831));
#1386=CARTESIAN_POINT('',(-6.63818608225203,104.619132209416,103.016695988103));
#1387=CARTESIAN_POINT('Origin',(-6.63818608225171,107.369132209416,103.016695984608));
#1388=CARTESIAN_POINT('',(-6.63818608225118,105.669132209416,103.01669598677));
#1389=CARTESIAN_POINT('Origin',(-6.63818608225098,107.369132209416,103.016695984609));
#1390=CARTESIAN_POINT('Origin',(-10.9011860822533,98.4191323169588,101.016695995985));
#1391=CARTESIAN_POINT('Origin',(-6.63818608225092,107.369132208145,102.016695984607));
#1392=CARTESIAN_POINT('',(-6.63818608225112,105.669132208145,102.016695986768));
#1393=CARTESIAN_POINT('Origin',(1.84881391775248,111.719131304603,93.5151329790803));
#1394=CARTESIAN_POINT('',(1.84881391775233,111.719131306192,94.7651329790803));
#1395=CARTESIAN_POINT('Origin',(-6.63818608225171,107.369132209416,103.016695984607));
#1396=CARTESIAN_POINT('',(-6.63818608225203,104.619132209416,103.016695988103));
#1397=CARTESIAN_POINT('Origin',(-0.501186082243109,111.719132102185,105.216695979077));
#1398=CARTESIAN_POINT('Origin',(-0.501186082242742,103.019132766665,103.016695990138));
#1399=CARTESIAN_POINT('',(-0.501186082243046,101.01913276819,104.21669599268));
#1400=CARTESIAN_POINT('',(-0.501186082242978,101.019132766665,103.01669599268));
#1401=CARTESIAN_POINT('Origin',(-0.50118608224281,103.01913276819,104.216695990137));
#1402=CARTESIAN_POINT('Origin',(-0.501186082242839,103.019132768826,104.716695990137));
#1403=CARTESIAN_POINT('',(-0.501186082243133,100.519132768826,104.716695993315));
#1404=CARTESIAN_POINT('Origin',(-0.501186082239457,103.019132730326,74.4303264728906));
#1405=UNCERTAINTY_MEASURE_WITH_UNIT(LENGTH_MEASURE(0.01),#1409,
'DISTANCE_ACCURACY_VALUE',
'Maximum model space distance between geometric entities at asserted c
onnectivities');
#1406=UNCERTAINTY_MEASURE_WITH_UNIT(LENGTH_MEASURE(0.01),#1409,
'DISTANCE_ACCURACY_VALUE',
'Maximum model space distance between geometric entities at asserted c
onnectivities');
#1407=(
GEOMETRIC_REPRESENTATION_CONTEXT(3)
GLOBAL_UNCERTAINTY_ASSIGNED_CONTEXT((#1405))
GLOBAL_UNIT_ASSIGNED_CONTEXT((#1409,#1411,#1412))
REPRESENTATION_CONTEXT('','3D')
);
#1408=(
GEOMETRIC_REPRESENTATION_CONTEXT(3)
GLOBAL_UNCERTAINTY_ASSIGNED_CONTEXT((#1406))
GLOBAL_UNIT_ASSIGNED_CONTEXT((#1409,#1411,#1412))
REPRESENTATION_CONTEXT('','3D')
);
#1409=(
LENGTH_UNIT()
NAMED_UNIT(*)
SI_UNIT(.MILLI.,.METRE.)
);
#1410=(
LENGTH_UNIT()
NAMED_UNIT(*)
SI_UNIT($,.METRE.)
);
#1411=(
NAMED_UNIT(*)
PLANE_ANGLE_UNIT()
SI_UNIT($,.RADIAN.)
);
#1412=(
NAMED_UNIT(*)
SI_UNIT($,.STERADIAN.)
SOLID_ANGLE_UNIT()
);
#1413=SHAPE_DEFINITION_REPRESENTATION(#1414,#1415);
#1414=PRODUCT_DEFINITION_SHAPE('',$,#1417);
#1415=SHAPE_REPRESENTATION('',(#861),#1407);
#1416=PRODUCT_DEFINITION_CONTEXT('part definition',#1421,'design');
#1417=PRODUCT_DEFINITION('mount-top-left','mount-top-left',#1418,#1416);
#1418=PRODUCT_DEFINITION_FORMATION('',$,#1423);
#1419=PRODUCT_RELATED_PRODUCT_CATEGORY('mount-top-left',
'mount-top-left',(#1423));
#1420=APPLICATION_PROTOCOL_DEFINITION('international standard',
'automotive_design',2009,#1421);
#1421=APPLICATION_CONTEXT(
'Core Data for Automotive Mechanical Design Process');
#1422=PRODUCT_CONTEXT('part definition',#1421,'mechanical');
#1423=PRODUCT('mount-top-left','mount-top-left',$,(#1422));
#1424=PRESENTATION_STYLE_ASSIGNMENT((#1426));
#1425=PRESENTATION_STYLE_ASSIGNMENT((#1427));
#1426=SURFACE_STYLE_USAGE(.BOTH.,#1428);
#1427=SURFACE_STYLE_USAGE(.BOTH.,#1429);
#1428=SURFACE_SIDE_STYLE('',(#1430));
#1429=SURFACE_SIDE_STYLE('',(#1431));
#1430=SURFACE_STYLE_FILL_AREA(#1432);
#1431=SURFACE_STYLE_FILL_AREA(#1433);
#1432=FILL_AREA_STYLE('Steel - Satin',(#1434));
#1433=FILL_AREA_STYLE('ABS (White)',(#1435));
#1434=FILL_AREA_STYLE_COLOUR('Steel - Satin',#1436);
#1435=FILL_AREA_STYLE_COLOUR('ABS (White)',#1437);
#1436=COLOUR_RGB('Steel - Satin',0.627450980392157,0.627450980392157,0.627450980392157);
#1437=COLOUR_RGB('ABS (White)',0.964705882352941,0.964705882352941,0.952941176470588);
ENDSEC;
END-ISO-10303-21;
