ISO-10303-21;
HEADER;
/* Generated by software containing ST-Developer
 * from STEP Tools, Inc. (www.steptools.com) 
 */

FILE_DESCRIPTION(
/* description */ (''),
/* implementation_level */ '2;1');

FILE_NAME(
/* name */ 'mount-bottom-left (1).step',
/* time_stamp */ '2026-01-16T10:05:06-08:00',
/* author */ (''),
/* organization */ (''),
/* preprocessor_version */ 'ST-DEVELOPER v20.1',
/* originating_system */ 'Autodesk Translation Framework v14.21.0.0',
/* authorisation */ '');

FILE_SCHEMA (('AUTOMOTIVE_DESIGN { 1 0 10303 214 3 1 1 }'));
ENDSEC;

DATA;
#10=MECHANICAL_DESIGN_GEOMETRIC_PRESENTATION_REPRESENTATION('',(#13),#1357);
#11=SHAPE_REPRESENTATION_RELATIONSHIP('SRR','None',#1364,#12);
#12=ADVANCED_BREP_SHAPE_REPRESENTATION('',(#14),#1356);
#13=STYLED_ITEM('',(#1374),#14);
#14=MANIFOLD_SOLID_BREP('Body2',#789);
#15=CONICAL_SURFACE('',#856,2.4,0.380506377112366);
#16=CONICAL_SURFACE('',#858,2.4,0.380506377112366);
#17=(
BOUNDED_CURVE()
B_SPLINE_CURVE(2,(#1316,#1317,#1318,#1319),.UNSPECIFIED.,.F.,.F.)
B_SPLINE_CURVE_WITH_KNOTS((3,1,3),(11647.7498834342,15179.4785378848,18125.7912597105),
 .UNSPECIFIED.)
CURVE()
GEOMETRIC_REPRESENTATION_ITEM()
RATIONAL_B_SPLINE_CURVE((13246.9774398225,12891.1565552643,9608.97528236217,
7118.48159596897))
REPRESENTATION_ITEM('')
);
#18=(
BOUNDED_CURVE()
B_SPLINE_CURVE(2,(#1322,#1323,#1324,#1325,#1326),.UNSPECIFIED.,.F.,.F.)
B_SPLINE_CURVE_WITH_KNOTS((3,1,1,3),(3416.51979875124,4868.65566042363,
8018.17436760559,9894.56117501474),.UNSPECIFIED.)
CURVE()
GEOMETRIC_REPRESENTATION_ITEM()
RATIONAL_B_SPLINE_CURVE((7118.48159600215,8345.95998567882,11467.6906999155,
13057.9318819951,13246.9774398239))
REPRESENTATION_ITEM('')
);
#19=(
BOUNDED_CURVE()
B_SPLINE_CURVE(2,(#1334,#1335,#1336,#1337,#1338),.UNSPECIFIED.,.F.,.F.)
B_SPLINE_CURVE_WITH_KNOTS((3,1,1,3),(3416.5230195578,4868.65190899964,8018.16654255211,
9894.59570743757),.UNSPECIFIED.)
CURVE()
GEOMETRIC_REPRESENTATION_ITEM()
RATIONAL_B_SPLINE_CURVE((7118.47961384682,8345.95029151396,11467.6722387438,
13057.928394695,13246.9705752914))
REPRESENTATION_ITEM('')
);
#20=(
BOUNDED_CURVE()
B_SPLINE_CURVE(2,(#1339,#1340,#1341,#1342),.UNSPECIFIED.,.F.,.F.)
B_SPLINE_CURVE_WITH_KNOTS((3,1,3),(11647.7153502736,15179.4732382996,18125.7880381355),
 .UNSPECIFIED.)
CURVE()
GEOMETRIC_REPRESENTATION_ITEM()
RATIONAL_B_SPLINE_CURVE((13246.9705752923,12891.161134157,9608.97136723992,
7118.47961388428))
REPRESENTATION_ITEM('')
);
#21=B_SPLINE_CURVE_WITH_KNOTS('',3,(#1261,#1262,#1263,#1264,#1265,#1266,
#1267,#1268,#1269,#1270,#1271,#1272,#1273,#1274,#1275,#1276,#1277,#1278,
#1279,#1280,#1281,#1282,#1283),.UNSPECIFIED.,.F.,.F.,(4,2,2,2,2,2,2,2,2,
3,4),(0.522708924988273,0.535132593805455,0.587455623599882,0.63977865339431,
0.691028802718294,0.742278952042279,0.793529102576258,0.844779253110238,
0.897102279835166,0.949425306560093,0.961848999454857),.UNSPECIFIED.);
#22=B_SPLINE_CURVE_WITH_KNOTS('',3,(#1289,#1290,#1291,#1292,#1293,#1294,
#1295,#1296,#1297,#1298,#1299,#1300,#1301,#1302,#1303,#1304,#1305,#1306,
#1307,#1308,#1309,#1310,#1311),.UNSPECIFIED.,.F.,.F.,(4,2,2,2,2,2,2,2,2,
3,4),(0.52270889919756,0.53513259380545,0.587455620530377,0.639778647255303,
0.691028797789282,0.742278948323262,0.793529097647243,0.844779246971224,
0.897102276765652,0.94942530656008,0.961848975377433),.UNSPECIFIED.);
#23=FACE_BOUND('',#115,.T.);
#24=FACE_BOUND('',#116,.T.);
#25=FACE_BOUND('',#117,.T.);
#26=FACE_BOUND('',#118,.T.);
#27=FACE_BOUND('',#120,.T.);
#28=FACE_BOUND('',#121,.T.);
#29=FACE_BOUND('',#122,.T.);
#30=FACE_BOUND('',#123,.T.);
#31=FACE_BOUND('',#132,.T.);
#32=FACE_BOUND('',#140,.T.);
#33=PLANE('',#806);
#34=PLANE('',#807);
#35=PLANE('',#808);
#36=PLANE('',#809);
#37=PLANE('',#813);
#38=PLANE('',#814);
#39=PLANE('',#815);
#40=PLANE('',#816);
#41=PLANE('',#817);
#42=PLANE('',#818);
#43=PLANE('',#819);
#44=PLANE('',#824);
#45=PLANE('',#825);
#46=PLANE('',#826);
#47=PLANE('',#827);
#48=PLANE('',#830);
#49=PLANE('',#834);
#50=PLANE('',#835);
#51=PLANE('',#836);
#52=PLANE('',#837);
#53=PLANE('',#841);
#54=PLANE('',#844);
#55=PLANE('',#845);
#56=PLANE('',#846);
#57=PLANE('',#851);
#58=PLANE('',#852);
#59=PLANE('',#855);
#60=PLANE('',#860);
#61=PLANE('',#861);
#62=PLANE('',#864);
#63=FACE_OUTER_BOUND('',#104,.T.);
#64=FACE_OUTER_BOUND('',#105,.T.);
#65=FACE_OUTER_BOUND('',#106,.T.);
#66=FACE_OUTER_BOUND('',#107,.T.);
#67=FACE_OUTER_BOUND('',#108,.T.);
#68=FACE_OUTER_BOUND('',#109,.T.);
#69=FACE_OUTER_BOUND('',#110,.T.);
#70=FACE_OUTER_BOUND('',#111,.T.);
#71=FACE_OUTER_BOUND('',#112,.T.);
#72=FACE_OUTER_BOUND('',#113,.T.);
#73=FACE_OUTER_BOUND('',#114,.T.);
#74=FACE_OUTER_BOUND('',#119,.T.);
#75=FACE_OUTER_BOUND('',#124,.T.);
#76=FACE_OUTER_BOUND('',#125,.T.);
#77=FACE_OUTER_BOUND('',#126,.T.);
#78=FACE_OUTER_BOUND('',#127,.T.);
#79=FACE_OUTER_BOUND('',#128,.T.);
#80=FACE_OUTER_BOUND('',#129,.T.);
#81=FACE_OUTER_BOUND('',#130,.T.);
#82=FACE_OUTER_BOUND('',#131,.T.);
#83=FACE_OUTER_BOUND('',#133,.T.);
#84=FACE_OUTER_BOUND('',#134,.T.);
#85=FACE_OUTER_BOUND('',#135,.T.);
#86=FACE_OUTER_BOUND('',#136,.T.);
#87=FACE_OUTER_BOUND('',#137,.T.);
#88=FACE_OUTER_BOUND('',#138,.T.);
#89=FACE_OUTER_BOUND('',#139,.T.);
#90=FACE_OUTER_BOUND('',#141,.T.);
#91=FACE_OUTER_BOUND('',#142,.T.);
#92=FACE_OUTER_BOUND('',#143,.T.);
#93=FACE_OUTER_BOUND('',#144,.T.);
#94=FACE_OUTER_BOUND('',#145,.T.);
#95=FACE_OUTER_BOUND('',#146,.T.);
#96=FACE_OUTER_BOUND('',#147,.T.);
#97=FACE_OUTER_BOUND('',#148,.T.);
#98=FACE_OUTER_BOUND('',#149,.T.);
#99=FACE_OUTER_BOUND('',#150,.T.);
#100=FACE_OUTER_BOUND('',#151,.T.);
#101=FACE_OUTER_BOUND('',#152,.T.);
#102=FACE_OUTER_BOUND('',#153,.T.);
#103=FACE_OUTER_BOUND('',#154,.T.);
#104=EDGE_LOOP('',(#521,#522,#523,#524));
#105=EDGE_LOOP('',(#525,#526,#527,#528));
#106=EDGE_LOOP('',(#529,#530,#531,#532));
#107=EDGE_LOOP('',(#533,#534,#535,#536));
#108=EDGE_LOOP('',(#537,#538,#539,#540));
#109=EDGE_LOOP('',(#541,#542,#543,#544));
#110=EDGE_LOOP('',(#545,#546,#547,#548));
#111=EDGE_LOOP('',(#549,#550,#551,#552));
#112=EDGE_LOOP('',(#553,#554,#555,#556));
#113=EDGE_LOOP('',(#557,#558,#559,#560));
#114=EDGE_LOOP('',(#561,#562,#563,#564,#565,#566,#567,#568));
#115=EDGE_LOOP('',(#569,#570,#571,#572));
#116=EDGE_LOOP('',(#573));
#117=EDGE_LOOP('',(#574,#575,#576,#577));
#118=EDGE_LOOP('',(#578));
#119=EDGE_LOOP('',(#579,#580,#581,#582,#583,#584,#585,#586,#587,#588,#589,
#590));
#120=EDGE_LOOP('',(#591));
#121=EDGE_LOOP('',(#592,#593,#594,#595));
#122=EDGE_LOOP('',(#596));
#123=EDGE_LOOP('',(#597,#598,#599,#600));
#124=EDGE_LOOP('',(#601,#602,#603,#604,#605));
#125=EDGE_LOOP('',(#606,#607,#608,#609));
#126=EDGE_LOOP('',(#610));
#127=EDGE_LOOP('',(#611,#612,#613,#614));
#128=EDGE_LOOP('',(#615,#616,#617,#618));
#129=EDGE_LOOP('',(#619,#620,#621,#622));
#130=EDGE_LOOP('',(#623,#624,#625,#626));
#131=EDGE_LOOP('',(#627,#628,#629,#630,#631,#632,#633,#634));
#132=EDGE_LOOP('',(#635));
#133=EDGE_LOOP('',(#636,#637,#638,#639));
#134=EDGE_LOOP('',(#640,#641,#642,#643));
#135=EDGE_LOOP('',(#644,#645,#646,#647,#648));
#136=EDGE_LOOP('',(#649,#650,#651,#652));
#137=EDGE_LOOP('',(#653,#654,#655,#656,#657));
#138=EDGE_LOOP('',(#658,#659,#660,#661));
#139=EDGE_LOOP('',(#662,#663,#664,#665,#666,#667,#668,#669));
#140=EDGE_LOOP('',(#670));
#141=EDGE_LOOP('',(#671,#672,#673,#674));
#142=EDGE_LOOP('',(#675,#676,#677,#678));
#143=EDGE_LOOP('',(#679,#680,#681,#682));
#144=EDGE_LOOP('',(#683,#684,#685,#686));
#145=EDGE_LOOP('',(#687,#688,#689,#690));
#146=EDGE_LOOP('',(#691,#692,#693,#694));
#147=EDGE_LOOP('',(#695,#696,#697,#698,#699,#700,#701,#702));
#148=EDGE_LOOP('',(#703,#704,#705,#706));
#149=EDGE_LOOP('',(#707,#708,#709,#710,#711,#712));
#150=EDGE_LOOP('',(#713,#714,#715,#716,#717,#718));
#151=EDGE_LOOP('',(#719,#720,#721,#722,#723,#724,#725,#726,#727,#728,#729));
#152=EDGE_LOOP('',(#730));
#153=EDGE_LOOP('',(#731,#732,#733,#734));
#154=EDGE_LOOP('',(#735,#736,#737,#738));
#155=LINE('',#1078,#237);
#156=LINE('',#1083,#238);
#157=LINE('',#1085,#239);
#158=LINE('',#1087,#240);
#159=LINE('',#1088,#241);
#160=LINE('',#1091,#242);
#161=LINE('',#1093,#243);
#162=LINE('',#1094,#244);
#163=LINE('',#1097,#245);
#164=LINE('',#1099,#246);
#165=LINE('',#1100,#247);
#166=LINE('',#1102,#248);
#167=LINE('',#1103,#249);
#168=LINE('',#1108,#250);
#169=LINE('',#1113,#251);
#170=LINE('',#1115,#252);
#171=LINE('',#1117,#253);
#172=LINE('',#1118,#254);
#173=LINE('',#1121,#255);
#174=LINE('',#1123,#256);
#175=LINE('',#1124,#257);
#176=LINE('',#1127,#258);
#177=LINE('',#1129,#259);
#178=LINE('',#1130,#260);
#179=LINE('',#1132,#261);
#180=LINE('',#1133,#262);
#181=LINE('',#1137,#263);
#182=LINE('',#1139,#264);
#183=LINE('',#1141,#265);
#184=LINE('',#1143,#266);
#185=LINE('',#1145,#267);
#186=LINE('',#1147,#268);
#187=LINE('',#1149,#269);
#188=LINE('',#1150,#270);
#189=LINE('',#1154,#271);
#190=LINE('',#1156,#272);
#191=LINE('',#1158,#273);
#192=LINE('',#1160,#274);
#193=LINE('',#1162,#275);
#194=LINE('',#1164,#276);
#195=LINE('',#1166,#277);
#196=LINE('',#1168,#278);
#197=LINE('',#1170,#279);
#198=LINE('',#1172,#280);
#199=LINE('',#1174,#281);
#200=LINE('',#1175,#282);
#201=LINE('',#1178,#283);
#202=LINE('',#1180,#284);
#203=LINE('',#1183,#285);
#204=LINE('',#1188,#286);
#205=LINE('',#1192,#287);
#206=LINE('',#1193,#288);
#207=LINE('',#1195,#289);
#208=LINE('',#1198,#290);
#209=LINE('',#1199,#291);
#210=LINE('',#1202,#292);
#211=LINE('',#1206,#293);
#212=LINE('',#1209,#294);
#213=LINE('',#1214,#295);
#214=LINE('',#1215,#296);
#215=LINE('',#1217,#297);
#216=LINE('',#1220,#298);
#217=LINE('',#1221,#299);
#218=LINE('',#1224,#300);
#219=LINE('',#1226,#301);
#220=LINE('',#1227,#302);
#221=LINE('',#1229,#303);
#222=LINE('',#1231,#304);
#223=LINE('',#1235,#305);
#224=LINE('',#1239,#306);
#225=LINE('',#1242,#307);
#226=LINE('',#1243,#308);
#227=LINE('',#1247,#309);
#228=LINE('',#1252,#310);
#229=LINE('',#1256,#311);
#230=LINE('',#1284,#312);
#231=LINE('',#1285,#313);
#232=LINE('',#1312,#314);
#233=LINE('',#1313,#315);
#234=LINE('',#1321,#316);
#235=LINE('',#1330,#317);
#236=LINE('',#1352,#318);
#237=VECTOR('',#871,1.25);
#238=VECTOR('',#876,10.);
#239=VECTOR('',#877,10.);
#240=VECTOR('',#878,10.);
#241=VECTOR('',#879,10.);
#242=VECTOR('',#882,10.);
#243=VECTOR('',#883,10.);
#244=VECTOR('',#884,10.);
#245=VECTOR('',#887,10.);
#246=VECTOR('',#888,10.);
#247=VECTOR('',#889,10.);
#248=VECTOR('',#892,10.);
#249=VECTOR('',#893,10.);
#250=VECTOR('',#898,1.25);
#251=VECTOR('',#903,10.);
#252=VECTOR('',#904,10.);
#253=VECTOR('',#905,10.);
#254=VECTOR('',#906,10.);
#255=VECTOR('',#909,10.);
#256=VECTOR('',#910,10.);
#257=VECTOR('',#911,10.);
#258=VECTOR('',#914,10.);
#259=VECTOR('',#915,10.);
#260=VECTOR('',#916,10.);
#261=VECTOR('',#919,10.);
#262=VECTOR('',#920,10.);
#263=VECTOR('',#923,10.);
#264=VECTOR('',#924,10.);
#265=VECTOR('',#925,10.);
#266=VECTOR('',#926,10.);
#267=VECTOR('',#927,10.);
#268=VECTOR('',#928,10.);
#269=VECTOR('',#929,10.);
#270=VECTOR('',#930,10.);
#271=VECTOR('',#933,10.);
#272=VECTOR('',#934,10.);
#273=VECTOR('',#935,10.);
#274=VECTOR('',#936,10.);
#275=VECTOR('',#937,10.);
#276=VECTOR('',#938,10.);
#277=VECTOR('',#939,10.);
#278=VECTOR('',#940,10.);
#279=VECTOR('',#941,10.);
#280=VECTOR('',#942,10.);
#281=VECTOR('',#943,10.);
#282=VECTOR('',#944,10.);
#283=VECTOR('',#947,10.);
#284=VECTOR('',#948,10.);
#285=VECTOR('',#951,10.);
#286=VECTOR('',#956,1.25);
#287=VECTOR('',#963,10.);
#288=VECTOR('',#964,10.);
#289=VECTOR('',#967,10.);
#290=VECTOR('',#970,10.);
#291=VECTOR('',#971,10.);
#292=VECTOR('',#974,10.);
#293=VECTOR('',#979,10.);
#294=VECTOR('',#982,10.);
#295=VECTOR('',#987,10.);
#296=VECTOR('',#988,10.);
#297=VECTOR('',#991,10.);
#298=VECTOR('',#994,10.);
#299=VECTOR('',#995,10.);
#300=VECTOR('',#998,10.);
#301=VECTOR('',#999,10.);
#302=VECTOR('',#1000,10.);
#303=VECTOR('',#1003,10.);
#304=VECTOR('',#1004,10.);
#305=VECTOR('',#1009,10.);
#306=VECTOR('',#1014,10.);
#307=VECTOR('',#1017,10.);
#308=VECTOR('',#1018,10.);
#309=VECTOR('',#1023,10.);
#310=VECTOR('',#1028,10.);
#311=VECTOR('',#1031,10.);
#312=VECTOR('',#1036,10.);
#313=VECTOR('',#1037,10.);
#314=VECTOR('',#1040,10.);
#315=VECTOR('',#1041,10.);
#316=VECTOR('',#1044,10.);
#317=VECTOR('',#1047,10.);
#318=VECTOR('',#1070,1.25);
#319=CIRCLE('',#804,1.25);
#320=CIRCLE('',#805,1.25);
#321=CIRCLE('',#811,1.25);
#322=CIRCLE('',#812,1.25);
#323=CIRCLE('',#820,1.49999999999998);
#324=CIRCLE('',#822,1.25);
#325=CIRCLE('',#823,1.25);
#326=CIRCLE('',#829,1.49999999999998);
#327=CIRCLE('',#831,2.59999999999998);
#328=CIRCLE('',#833,2.59999999999998);
#329=CIRCLE('',#838,1.49999999999998);
#330=CIRCLE('',#840,2.59999999999998);
#331=CIRCLE('',#842,1.49999999999999);
#332=CIRCLE('',#843,1.25);
#333=CIRCLE('',#847,1.52000000002156);
#334=CIRCLE('',#848,1.52000000002156);
#335=CIRCLE('',#853,4.1200000000308);
#336=CIRCLE('',#854,4.1200000000308);
#337=CIRCLE('',#857,4.1200000000308);
#338=CIRCLE('',#859,4.1200000000308);
#339=CIRCLE('',#862,1.25);
#340=VERTEX_POINT('',#1075);
#341=VERTEX_POINT('',#1077);
#342=VERTEX_POINT('',#1081);
#343=VERTEX_POINT('',#1082);
#344=VERTEX_POINT('',#1084);
#345=VERTEX_POINT('',#1086);
#346=VERTEX_POINT('',#1090);
#347=VERTEX_POINT('',#1092);
#348=VERTEX_POINT('',#1096);
#349=VERTEX_POINT('',#1098);
#350=VERTEX_POINT('',#1105);
#351=VERTEX_POINT('',#1107);
#352=VERTEX_POINT('',#1111);
#353=VERTEX_POINT('',#1112);
#354=VERTEX_POINT('',#1114);
#355=VERTEX_POINT('',#1116);
#356=VERTEX_POINT('',#1120);
#357=VERTEX_POINT('',#1122);
#358=VERTEX_POINT('',#1126);
#359=VERTEX_POINT('',#1128);
#360=VERTEX_POINT('',#1135);
#361=VERTEX_POINT('',#1136);
#362=VERTEX_POINT('',#1138);
#363=VERTEX_POINT('',#1140);
#364=VERTEX_POINT('',#1142);
#365=VERTEX_POINT('',#1144);
#366=VERTEX_POINT('',#1146);
#367=VERTEX_POINT('',#1148);
#368=VERTEX_POINT('',#1152);
#369=VERTEX_POINT('',#1153);
#370=VERTEX_POINT('',#1155);
#371=VERTEX_POINT('',#1157);
#372=VERTEX_POINT('',#1159);
#373=VERTEX_POINT('',#1161);
#374=VERTEX_POINT('',#1163);
#375=VERTEX_POINT('',#1165);
#376=VERTEX_POINT('',#1167);
#377=VERTEX_POINT('',#1169);
#378=VERTEX_POINT('',#1171);
#379=VERTEX_POINT('',#1173);
#380=VERTEX_POINT('',#1177);
#381=VERTEX_POINT('',#1179);
#382=VERTEX_POINT('',#1181);
#383=VERTEX_POINT('',#1185);
#384=VERTEX_POINT('',#1187);
#385=VERTEX_POINT('',#1197);
#386=VERTEX_POINT('',#1201);
#387=VERTEX_POINT('',#1205);
#388=VERTEX_POINT('',#1207);
#389=VERTEX_POINT('',#1211);
#390=VERTEX_POINT('',#1212);
#391=VERTEX_POINT('',#1219);
#392=VERTEX_POINT('',#1223);
#393=VERTEX_POINT('',#1225);
#394=VERTEX_POINT('',#1230);
#395=VERTEX_POINT('',#1234);
#396=VERTEX_POINT('',#1238);
#397=VERTEX_POINT('',#1240);
#398=VERTEX_POINT('',#1244);
#399=VERTEX_POINT('',#1250);
#400=VERTEX_POINT('',#1251);
#401=VERTEX_POINT('',#1253);
#402=VERTEX_POINT('',#1255);
#403=VERTEX_POINT('',#1259);
#404=VERTEX_POINT('',#1260);
#405=VERTEX_POINT('',#1287);
#406=VERTEX_POINT('',#1288);
#407=VERTEX_POINT('',#1315);
#408=VERTEX_POINT('',#1320);
#409=VERTEX_POINT('',#1328);
#410=VERTEX_POINT('',#1329);
#411=VERTEX_POINT('',#1349);
#412=EDGE_CURVE('',#340,#340,#319,.T.);
#413=EDGE_CURVE('',#340,#341,#155,.T.);
#414=EDGE_CURVE('',#341,#341,#320,.T.);
#415=EDGE_CURVE('',#342,#343,#156,.T.);
#416=EDGE_CURVE('',#344,#342,#157,.T.);
#417=EDGE_CURVE('',#345,#344,#158,.T.);
#418=EDGE_CURVE('',#345,#343,#159,.T.);
#419=EDGE_CURVE('',#343,#346,#160,.T.);
#420=EDGE_CURVE('',#347,#345,#161,.T.);
#421=EDGE_CURVE('',#347,#346,#162,.T.);
#422=EDGE_CURVE('',#346,#348,#163,.T.);
#423=EDGE_CURVE('',#349,#347,#164,.T.);
#424=EDGE_CURVE('',#349,#348,#165,.T.);
#425=EDGE_CURVE('',#348,#342,#166,.T.);
#426=EDGE_CURVE('',#344,#349,#167,.T.);
#427=EDGE_CURVE('',#350,#350,#321,.T.);
#428=EDGE_CURVE('',#350,#351,#168,.T.);
#429=EDGE_CURVE('',#351,#351,#322,.T.);
#430=EDGE_CURVE('',#352,#353,#169,.T.);
#431=EDGE_CURVE('',#354,#352,#170,.T.);
#432=EDGE_CURVE('',#355,#354,#171,.T.);
#433=EDGE_CURVE('',#355,#353,#172,.T.);
#434=EDGE_CURVE('',#353,#356,#173,.T.);
#435=EDGE_CURVE('',#357,#355,#174,.T.);
#436=EDGE_CURVE('',#357,#356,#175,.T.);
#437=EDGE_CURVE('',#356,#358,#176,.T.);
#438=EDGE_CURVE('',#359,#357,#177,.T.);
#439=EDGE_CURVE('',#359,#358,#178,.T.);
#440=EDGE_CURVE('',#358,#352,#179,.T.);
#441=EDGE_CURVE('',#354,#359,#180,.T.);
#442=EDGE_CURVE('',#360,#361,#181,.T.);
#443=EDGE_CURVE('',#362,#361,#182,.T.);
#444=EDGE_CURVE('',#363,#362,#183,.T.);
#445=EDGE_CURVE('',#364,#363,#184,.T.);
#446=EDGE_CURVE('',#364,#365,#185,.T.);
#447=EDGE_CURVE('',#365,#366,#186,.T.);
#448=EDGE_CURVE('',#366,#367,#187,.T.);
#449=EDGE_CURVE('',#360,#367,#188,.T.);
#450=EDGE_CURVE('',#368,#369,#189,.T.);
#451=EDGE_CURVE('',#370,#368,#190,.T.);
#452=EDGE_CURVE('',#371,#370,#191,.T.);
#453=EDGE_CURVE('',#372,#371,#192,.T.);
#454=EDGE_CURVE('',#372,#373,#193,.T.);
#455=EDGE_CURVE('',#373,#374,#194,.T.);
#456=EDGE_CURVE('',#375,#374,#195,.T.);
#457=EDGE_CURVE('',#376,#375,#196,.T.);
#458=EDGE_CURVE('',#377,#376,#197,.T.);
#459=EDGE_CURVE('',#378,#377,#198,.T.);
#460=EDGE_CURVE('',#378,#379,#199,.T.);
#461=EDGE_CURVE('',#379,#369,#200,.T.);
#462=EDGE_CURVE('',#375,#380,#201,.T.);
#463=EDGE_CURVE('',#381,#380,#202,.T.);
#464=EDGE_CURVE('',#382,#381,#323,.F.);
#465=EDGE_CURVE('',#376,#382,#203,.T.);
#466=EDGE_CURVE('',#383,#383,#324,.T.);
#467=EDGE_CURVE('',#383,#384,#204,.T.);
#468=EDGE_CURVE('',#384,#384,#325,.T.);
#469=EDGE_CURVE('',#379,#366,#205,.T.);
#470=EDGE_CURVE('',#378,#367,#206,.T.);
#471=EDGE_CURVE('',#369,#365,#207,.T.);
#472=EDGE_CURVE('',#385,#382,#208,.F.);
#473=EDGE_CURVE('',#385,#377,#209,.T.);
#474=EDGE_CURVE('',#386,#381,#210,.T.);
#475=EDGE_CURVE('',#386,#385,#326,.T.);
#476=EDGE_CURVE('',#387,#386,#211,.T.);
#477=EDGE_CURVE('',#388,#387,#327,.T.);
#478=EDGE_CURVE('',#360,#388,#212,.T.);
#479=EDGE_CURVE('',#389,#390,#328,.T.);
#480=EDGE_CURVE('',#389,#388,#213,.T.);
#481=EDGE_CURVE('',#387,#390,#214,.T.);
#482=EDGE_CURVE('',#368,#364,#215,.T.);
#483=EDGE_CURVE('',#391,#389,#216,.T.);
#484=EDGE_CURVE('',#361,#391,#217,.T.);
#485=EDGE_CURVE('',#380,#392,#218,.T.);
#486=EDGE_CURVE('',#392,#393,#219,.T.);
#487=EDGE_CURVE('',#381,#393,#220,.T.);
#488=EDGE_CURVE('',#392,#374,#221,.T.);
#489=EDGE_CURVE('',#373,#394,#222,.T.);
#490=EDGE_CURVE('',#394,#393,#329,.F.);
#491=EDGE_CURVE('',#390,#395,#223,.T.);
#492=EDGE_CURVE('',#395,#391,#330,.T.);
#493=EDGE_CURVE('',#395,#396,#224,.T.);
#494=EDGE_CURVE('',#396,#397,#331,.F.);
#495=EDGE_CURVE('',#397,#372,#225,.T.);
#496=EDGE_CURVE('',#371,#362,#226,.T.);
#497=EDGE_CURVE('',#398,#398,#332,.T.);
#498=EDGE_CURVE('',#370,#363,#227,.T.);
#499=EDGE_CURVE('',#399,#400,#228,.T.);
#500=EDGE_CURVE('',#401,#399,#333,.F.);
#501=EDGE_CURVE('',#402,#401,#229,.T.);
#502=EDGE_CURVE('',#400,#402,#334,.F.);
#503=EDGE_CURVE('',#403,#404,#21,.T.);
#504=EDGE_CURVE('',#397,#404,#230,.F.);
#505=EDGE_CURVE('',#396,#403,#231,.T.);
#506=EDGE_CURVE('',#405,#406,#22,.T.);
#507=EDGE_CURVE('',#393,#406,#232,.F.);
#508=EDGE_CURVE('',#394,#405,#233,.T.);
#509=EDGE_CURVE('',#407,#401,#17,.F.);
#510=EDGE_CURVE('',#408,#407,#234,.T.);
#511=EDGE_CURVE('',#402,#408,#18,.F.);
#512=EDGE_CURVE('',#409,#410,#235,.T.);
#513=EDGE_CURVE('',#409,#405,#335,.T.);
#514=EDGE_CURVE('',#404,#410,#336,.T.);
#515=EDGE_CURVE('',#409,#400,#19,.T.);
#516=EDGE_CURVE('',#399,#410,#20,.T.);
#517=EDGE_CURVE('',#406,#408,#337,.T.);
#518=EDGE_CURVE('',#407,#403,#338,.T.);
#519=EDGE_CURVE('',#411,#411,#339,.T.);
#520=EDGE_CURVE('',#398,#411,#236,.T.);
#521=ORIENTED_EDGE('',*,*,#412,.F.);
#522=ORIENTED_EDGE('',*,*,#413,.T.);
#523=ORIENTED_EDGE('',*,*,#414,.F.);
#524=ORIENTED_EDGE('',*,*,#413,.F.);
#525=ORIENTED_EDGE('',*,*,#415,.F.);
#526=ORIENTED_EDGE('',*,*,#416,.F.);
#527=ORIENTED_EDGE('',*,*,#417,.F.);
#528=ORIENTED_EDGE('',*,*,#418,.T.);
#529=ORIENTED_EDGE('',*,*,#419,.F.);
#530=ORIENTED_EDGE('',*,*,#418,.F.);
#531=ORIENTED_EDGE('',*,*,#420,.F.);
#532=ORIENTED_EDGE('',*,*,#421,.T.);
#533=ORIENTED_EDGE('',*,*,#422,.F.);
#534=ORIENTED_EDGE('',*,*,#421,.F.);
#535=ORIENTED_EDGE('',*,*,#423,.F.);
#536=ORIENTED_EDGE('',*,*,#424,.T.);
#537=ORIENTED_EDGE('',*,*,#425,.F.);
#538=ORIENTED_EDGE('',*,*,#424,.F.);
#539=ORIENTED_EDGE('',*,*,#426,.F.);
#540=ORIENTED_EDGE('',*,*,#416,.T.);
#541=ORIENTED_EDGE('',*,*,#427,.F.);
#542=ORIENTED_EDGE('',*,*,#428,.T.);
#543=ORIENTED_EDGE('',*,*,#429,.F.);
#544=ORIENTED_EDGE('',*,*,#428,.F.);
#545=ORIENTED_EDGE('',*,*,#430,.F.);
#546=ORIENTED_EDGE('',*,*,#431,.F.);
#547=ORIENTED_EDGE('',*,*,#432,.F.);
#548=ORIENTED_EDGE('',*,*,#433,.T.);
#549=ORIENTED_EDGE('',*,*,#434,.F.);
#550=ORIENTED_EDGE('',*,*,#433,.F.);
#551=ORIENTED_EDGE('',*,*,#435,.F.);
#552=ORIENTED_EDGE('',*,*,#436,.T.);
#553=ORIENTED_EDGE('',*,*,#437,.F.);
#554=ORIENTED_EDGE('',*,*,#436,.F.);
#555=ORIENTED_EDGE('',*,*,#438,.F.);
#556=ORIENTED_EDGE('',*,*,#439,.T.);
#557=ORIENTED_EDGE('',*,*,#440,.F.);
#558=ORIENTED_EDGE('',*,*,#439,.F.);
#559=ORIENTED_EDGE('',*,*,#441,.F.);
#560=ORIENTED_EDGE('',*,*,#431,.T.);
#561=ORIENTED_EDGE('',*,*,#442,.T.);
#562=ORIENTED_EDGE('',*,*,#443,.F.);
#563=ORIENTED_EDGE('',*,*,#444,.F.);
#564=ORIENTED_EDGE('',*,*,#445,.F.);
#565=ORIENTED_EDGE('',*,*,#446,.T.);
#566=ORIENTED_EDGE('',*,*,#447,.T.);
#567=ORIENTED_EDGE('',*,*,#448,.T.);
#568=ORIENTED_EDGE('',*,*,#449,.F.);
#569=ORIENTED_EDGE('',*,*,#437,.T.);
#570=ORIENTED_EDGE('',*,*,#440,.T.);
#571=ORIENTED_EDGE('',*,*,#430,.T.);
#572=ORIENTED_EDGE('',*,*,#434,.T.);
#573=ORIENTED_EDGE('',*,*,#429,.T.);
#574=ORIENTED_EDGE('',*,*,#422,.T.);
#575=ORIENTED_EDGE('',*,*,#425,.T.);
#576=ORIENTED_EDGE('',*,*,#415,.T.);
#577=ORIENTED_EDGE('',*,*,#419,.T.);
#578=ORIENTED_EDGE('',*,*,#414,.T.);
#579=ORIENTED_EDGE('',*,*,#450,.F.);
#580=ORIENTED_EDGE('',*,*,#451,.F.);
#581=ORIENTED_EDGE('',*,*,#452,.F.);
#582=ORIENTED_EDGE('',*,*,#453,.F.);
#583=ORIENTED_EDGE('',*,*,#454,.T.);
#584=ORIENTED_EDGE('',*,*,#455,.T.);
#585=ORIENTED_EDGE('',*,*,#456,.F.);
#586=ORIENTED_EDGE('',*,*,#457,.F.);
#587=ORIENTED_EDGE('',*,*,#458,.F.);
#588=ORIENTED_EDGE('',*,*,#459,.F.);
#589=ORIENTED_EDGE('',*,*,#460,.T.);
#590=ORIENTED_EDGE('',*,*,#461,.T.);
#591=ORIENTED_EDGE('',*,*,#412,.T.);
#592=ORIENTED_EDGE('',*,*,#423,.T.);
#593=ORIENTED_EDGE('',*,*,#420,.T.);
#594=ORIENTED_EDGE('',*,*,#417,.T.);
#595=ORIENTED_EDGE('',*,*,#426,.T.);
#596=ORIENTED_EDGE('',*,*,#427,.T.);
#597=ORIENTED_EDGE('',*,*,#435,.T.);
#598=ORIENTED_EDGE('',*,*,#432,.T.);
#599=ORIENTED_EDGE('',*,*,#441,.T.);
#600=ORIENTED_EDGE('',*,*,#438,.T.);
#601=ORIENTED_EDGE('',*,*,#462,.T.);
#602=ORIENTED_EDGE('',*,*,#463,.F.);
#603=ORIENTED_EDGE('',*,*,#464,.F.);
#604=ORIENTED_EDGE('',*,*,#465,.F.);
#605=ORIENTED_EDGE('',*,*,#457,.T.);
#606=ORIENTED_EDGE('',*,*,#466,.F.);
#607=ORIENTED_EDGE('',*,*,#467,.T.);
#608=ORIENTED_EDGE('',*,*,#468,.T.);
#609=ORIENTED_EDGE('',*,*,#467,.F.);
#610=ORIENTED_EDGE('',*,*,#468,.F.);
#611=ORIENTED_EDGE('',*,*,#448,.F.);
#612=ORIENTED_EDGE('',*,*,#469,.F.);
#613=ORIENTED_EDGE('',*,*,#460,.F.);
#614=ORIENTED_EDGE('',*,*,#470,.T.);
#615=ORIENTED_EDGE('',*,*,#447,.F.);
#616=ORIENTED_EDGE('',*,*,#471,.F.);
#617=ORIENTED_EDGE('',*,*,#461,.F.);
#618=ORIENTED_EDGE('',*,*,#469,.T.);
#619=ORIENTED_EDGE('',*,*,#472,.F.);
#620=ORIENTED_EDGE('',*,*,#473,.T.);
#621=ORIENTED_EDGE('',*,*,#458,.T.);
#622=ORIENTED_EDGE('',*,*,#465,.T.);
#623=ORIENTED_EDGE('',*,*,#474,.F.);
#624=ORIENTED_EDGE('',*,*,#475,.T.);
#625=ORIENTED_EDGE('',*,*,#472,.T.);
#626=ORIENTED_EDGE('',*,*,#464,.T.);
#627=ORIENTED_EDGE('',*,*,#449,.T.);
#628=ORIENTED_EDGE('',*,*,#470,.F.);
#629=ORIENTED_EDGE('',*,*,#459,.T.);
#630=ORIENTED_EDGE('',*,*,#473,.F.);
#631=ORIENTED_EDGE('',*,*,#475,.F.);
#632=ORIENTED_EDGE('',*,*,#476,.F.);
#633=ORIENTED_EDGE('',*,*,#477,.F.);
#634=ORIENTED_EDGE('',*,*,#478,.F.);
#635=ORIENTED_EDGE('',*,*,#466,.T.);
#636=ORIENTED_EDGE('',*,*,#479,.F.);
#637=ORIENTED_EDGE('',*,*,#480,.T.);
#638=ORIENTED_EDGE('',*,*,#477,.T.);
#639=ORIENTED_EDGE('',*,*,#481,.T.);
#640=ORIENTED_EDGE('',*,*,#446,.F.);
#641=ORIENTED_EDGE('',*,*,#482,.F.);
#642=ORIENTED_EDGE('',*,*,#450,.T.);
#643=ORIENTED_EDGE('',*,*,#471,.T.);
#644=ORIENTED_EDGE('',*,*,#483,.F.);
#645=ORIENTED_EDGE('',*,*,#484,.F.);
#646=ORIENTED_EDGE('',*,*,#442,.F.);
#647=ORIENTED_EDGE('',*,*,#478,.T.);
#648=ORIENTED_EDGE('',*,*,#480,.F.);
#649=ORIENTED_EDGE('',*,*,#485,.T.);
#650=ORIENTED_EDGE('',*,*,#486,.T.);
#651=ORIENTED_EDGE('',*,*,#487,.F.);
#652=ORIENTED_EDGE('',*,*,#463,.T.);
#653=ORIENTED_EDGE('',*,*,#488,.T.);
#654=ORIENTED_EDGE('',*,*,#455,.F.);
#655=ORIENTED_EDGE('',*,*,#489,.T.);
#656=ORIENTED_EDGE('',*,*,#490,.T.);
#657=ORIENTED_EDGE('',*,*,#486,.F.);
#658=ORIENTED_EDGE('',*,*,#479,.T.);
#659=ORIENTED_EDGE('',*,*,#491,.T.);
#660=ORIENTED_EDGE('',*,*,#492,.T.);
#661=ORIENTED_EDGE('',*,*,#483,.T.);
#662=ORIENTED_EDGE('',*,*,#492,.F.);
#663=ORIENTED_EDGE('',*,*,#493,.T.);
#664=ORIENTED_EDGE('',*,*,#494,.T.);
#665=ORIENTED_EDGE('',*,*,#495,.T.);
#666=ORIENTED_EDGE('',*,*,#453,.T.);
#667=ORIENTED_EDGE('',*,*,#496,.T.);
#668=ORIENTED_EDGE('',*,*,#443,.T.);
#669=ORIENTED_EDGE('',*,*,#484,.T.);
#670=ORIENTED_EDGE('',*,*,#497,.T.);
#671=ORIENTED_EDGE('',*,*,#444,.T.);
#672=ORIENTED_EDGE('',*,*,#496,.F.);
#673=ORIENTED_EDGE('',*,*,#452,.T.);
#674=ORIENTED_EDGE('',*,*,#498,.T.);
#675=ORIENTED_EDGE('',*,*,#445,.T.);
#676=ORIENTED_EDGE('',*,*,#498,.F.);
#677=ORIENTED_EDGE('',*,*,#451,.T.);
#678=ORIENTED_EDGE('',*,*,#482,.T.);
#679=ORIENTED_EDGE('',*,*,#499,.F.);
#680=ORIENTED_EDGE('',*,*,#500,.F.);
#681=ORIENTED_EDGE('',*,*,#501,.F.);
#682=ORIENTED_EDGE('',*,*,#502,.F.);
#683=ORIENTED_EDGE('',*,*,#503,.T.);
#684=ORIENTED_EDGE('',*,*,#504,.F.);
#685=ORIENTED_EDGE('',*,*,#494,.F.);
#686=ORIENTED_EDGE('',*,*,#505,.T.);
#687=ORIENTED_EDGE('',*,*,#506,.T.);
#688=ORIENTED_EDGE('',*,*,#507,.F.);
#689=ORIENTED_EDGE('',*,*,#490,.F.);
#690=ORIENTED_EDGE('',*,*,#508,.T.);
#691=ORIENTED_EDGE('',*,*,#501,.T.);
#692=ORIENTED_EDGE('',*,*,#509,.F.);
#693=ORIENTED_EDGE('',*,*,#510,.F.);
#694=ORIENTED_EDGE('',*,*,#511,.F.);
#695=ORIENTED_EDGE('',*,*,#512,.F.);
#696=ORIENTED_EDGE('',*,*,#513,.T.);
#697=ORIENTED_EDGE('',*,*,#508,.F.);
#698=ORIENTED_EDGE('',*,*,#489,.F.);
#699=ORIENTED_EDGE('',*,*,#454,.F.);
#700=ORIENTED_EDGE('',*,*,#495,.F.);
#701=ORIENTED_EDGE('',*,*,#504,.T.);
#702=ORIENTED_EDGE('',*,*,#514,.T.);
#703=ORIENTED_EDGE('',*,*,#499,.T.);
#704=ORIENTED_EDGE('',*,*,#515,.F.);
#705=ORIENTED_EDGE('',*,*,#512,.T.);
#706=ORIENTED_EDGE('',*,*,#516,.F.);
#707=ORIENTED_EDGE('',*,*,#502,.T.);
#708=ORIENTED_EDGE('',*,*,#511,.T.);
#709=ORIENTED_EDGE('',*,*,#517,.F.);
#710=ORIENTED_EDGE('',*,*,#506,.F.);
#711=ORIENTED_EDGE('',*,*,#513,.F.);
#712=ORIENTED_EDGE('',*,*,#515,.T.);
#713=ORIENTED_EDGE('',*,*,#500,.T.);
#714=ORIENTED_EDGE('',*,*,#516,.T.);
#715=ORIENTED_EDGE('',*,*,#514,.F.);
#716=ORIENTED_EDGE('',*,*,#503,.F.);
#717=ORIENTED_EDGE('',*,*,#518,.F.);
#718=ORIENTED_EDGE('',*,*,#509,.T.);
#719=ORIENTED_EDGE('',*,*,#487,.T.);
#720=ORIENTED_EDGE('',*,*,#507,.T.);
#721=ORIENTED_EDGE('',*,*,#517,.T.);
#722=ORIENTED_EDGE('',*,*,#510,.T.);
#723=ORIENTED_EDGE('',*,*,#518,.T.);
#724=ORIENTED_EDGE('',*,*,#505,.F.);
#725=ORIENTED_EDGE('',*,*,#493,.F.);
#726=ORIENTED_EDGE('',*,*,#491,.F.);
#727=ORIENTED_EDGE('',*,*,#481,.F.);
#728=ORIENTED_EDGE('',*,*,#476,.T.);
#729=ORIENTED_EDGE('',*,*,#474,.T.);
#730=ORIENTED_EDGE('',*,*,#519,.F.);
#731=ORIENTED_EDGE('',*,*,#497,.F.);
#732=ORIENTED_EDGE('',*,*,#520,.T.);
#733=ORIENTED_EDGE('',*,*,#519,.T.);
#734=ORIENTED_EDGE('',*,*,#520,.F.);
#735=ORIENTED_EDGE('',*,*,#485,.F.);
#736=ORIENTED_EDGE('',*,*,#462,.F.);
#737=ORIENTED_EDGE('',*,*,#456,.T.);
#738=ORIENTED_EDGE('',*,*,#488,.F.);
#739=CYLINDRICAL_SURFACE('',#803,1.25);
#740=CYLINDRICAL_SURFACE('',#810,1.25);
#741=CYLINDRICAL_SURFACE('',#821,1.25);
#742=CYLINDRICAL_SURFACE('',#828,1.49999999999998);
#743=CYLINDRICAL_SURFACE('',#832,2.59999999999998);
#744=CYLINDRICAL_SURFACE('',#839,2.59999999999998);
#745=CYLINDRICAL_SURFACE('',#849,1.49999999999998);
#746=CYLINDRICAL_SURFACE('',#850,1.49999999999998);
#747=CYLINDRICAL_SURFACE('',#863,1.25);
#748=ADVANCED_FACE('',(#63),#739,.F.);
#749=ADVANCED_FACE('',(#64),#33,.F.);
#750=ADVANCED_FACE('',(#65),#34,.F.);
#751=ADVANCED_FACE('',(#66),#35,.F.);
#752=ADVANCED_FACE('',(#67),#36,.F.);
#753=ADVANCED_FACE('',(#68),#740,.F.);
#754=ADVANCED_FACE('',(#69),#37,.F.);
#755=ADVANCED_FACE('',(#70),#38,.F.);
#756=ADVANCED_FACE('',(#71),#39,.F.);
#757=ADVANCED_FACE('',(#72),#40,.F.);
#758=ADVANCED_FACE('',(#73,#23,#24,#25,#26),#41,.T.);
#759=ADVANCED_FACE('',(#74,#27,#28,#29,#30),#42,.F.);
#760=ADVANCED_FACE('',(#75),#43,.T.);
#761=ADVANCED_FACE('',(#76),#741,.F.);
#762=ADVANCED_FACE('',(#77),#44,.F.);
#763=ADVANCED_FACE('',(#78),#45,.F.);
#764=ADVANCED_FACE('',(#79),#46,.T.);
#765=ADVANCED_FACE('',(#80),#47,.T.);
#766=ADVANCED_FACE('',(#81),#742,.F.);
#767=ADVANCED_FACE('',(#82,#31),#48,.T.);
#768=ADVANCED_FACE('',(#83),#743,.F.);
#769=ADVANCED_FACE('',(#84),#49,.F.);
#770=ADVANCED_FACE('',(#85),#50,.T.);
#771=ADVANCED_FACE('',(#86),#51,.F.);
#772=ADVANCED_FACE('',(#87),#52,.F.);
#773=ADVANCED_FACE('',(#88),#744,.F.);
#774=ADVANCED_FACE('',(#89,#32),#53,.T.);
#775=ADVANCED_FACE('',(#90),#54,.T.);
#776=ADVANCED_FACE('',(#91),#55,.F.);
#777=ADVANCED_FACE('',(#92),#56,.T.);
#778=ADVANCED_FACE('',(#93),#745,.F.);
#779=ADVANCED_FACE('',(#94),#746,.F.);
#780=ADVANCED_FACE('',(#95),#57,.T.);
#781=ADVANCED_FACE('',(#96),#58,.F.);
#782=ADVANCED_FACE('',(#97),#59,.F.);
#783=ADVANCED_FACE('',(#98),#15,.F.);
#784=ADVANCED_FACE('',(#99),#16,.F.);
#785=ADVANCED_FACE('',(#100),#60,.T.);
#786=ADVANCED_FACE('',(#101),#61,.F.);
#787=ADVANCED_FACE('',(#102),#747,.F.);
#788=ADVANCED_FACE('',(#103),#62,.T.);
#789=CLOSED_SHELL('',(#748,#749,#750,#751,#752,#753,#754,#755,#756,#757,
#758,#759,#760,#761,#762,#763,#764,#765,#766,#767,#768,#769,#770,#771,#772,
#773,#774,#775,#776,#777,#778,#779,#780,#781,#782,#783,#784,#785,#786,#787,
#788));
#790=DERIVED_UNIT_ELEMENT(#792,1.);
#791=DERIVED_UNIT_ELEMENT(#1359,-3.);
#792=(
MASS_UNIT()
NAMED_UNIT(*)
SI_UNIT(.KILO.,.GRAM.)
);
#793=DERIVED_UNIT((#790,#791));
#794=MEASURE_REPRESENTATION_ITEM('density measure',
POSITIVE_RATIO_MEASURE(7850.),#793);
#795=PROPERTY_DEFINITION_REPRESENTATION(#800,#797);
#796=PROPERTY_DEFINITION_REPRESENTATION(#801,#798);
#797=REPRESENTATION('material name',(#799),#1356);
#798=REPRESENTATION('density',(#794),#1356);
#799=DESCRIPTIVE_REPRESENTATION_ITEM('Steel','Steel');
#800=PROPERTY_DEFINITION('material property','material name',#1366);
#801=PROPERTY_DEFINITION('material property','density of part',#1366);
#802=AXIS2_PLACEMENT_3D('',#1073,#865,#866);
#803=AXIS2_PLACEMENT_3D('',#1074,#867,#868);
#804=AXIS2_PLACEMENT_3D('',#1076,#869,#870);
#805=AXIS2_PLACEMENT_3D('',#1079,#872,#873);
#806=AXIS2_PLACEMENT_3D('',#1080,#874,#875);
#807=AXIS2_PLACEMENT_3D('',#1089,#880,#881);
#808=AXIS2_PLACEMENT_3D('',#1095,#885,#886);
#809=AXIS2_PLACEMENT_3D('',#1101,#890,#891);
#810=AXIS2_PLACEMENT_3D('',#1104,#894,#895);
#811=AXIS2_PLACEMENT_3D('',#1106,#896,#897);
#812=AXIS2_PLACEMENT_3D('',#1109,#899,#900);
#813=AXIS2_PLACEMENT_3D('',#1110,#901,#902);
#814=AXIS2_PLACEMENT_3D('',#1119,#907,#908);
#815=AXIS2_PLACEMENT_3D('',#1125,#912,#913);
#816=AXIS2_PLACEMENT_3D('',#1131,#917,#918);
#817=AXIS2_PLACEMENT_3D('',#1134,#921,#922);
#818=AXIS2_PLACEMENT_3D('',#1151,#931,#932);
#819=AXIS2_PLACEMENT_3D('',#1176,#945,#946);
#820=AXIS2_PLACEMENT_3D('',#1182,#949,#950);
#821=AXIS2_PLACEMENT_3D('',#1184,#952,#953);
#822=AXIS2_PLACEMENT_3D('',#1186,#954,#955);
#823=AXIS2_PLACEMENT_3D('',#1189,#957,#958);
#824=AXIS2_PLACEMENT_3D('',#1190,#959,#960);
#825=AXIS2_PLACEMENT_3D('',#1191,#961,#962);
#826=AXIS2_PLACEMENT_3D('',#1194,#965,#966);
#827=AXIS2_PLACEMENT_3D('',#1196,#968,#969);
#828=AXIS2_PLACEMENT_3D('',#1200,#972,#973);
#829=AXIS2_PLACEMENT_3D('',#1203,#975,#976);
#830=AXIS2_PLACEMENT_3D('',#1204,#977,#978);
#831=AXIS2_PLACEMENT_3D('',#1208,#980,#981);
#832=AXIS2_PLACEMENT_3D('',#1210,#983,#984);
#833=AXIS2_PLACEMENT_3D('',#1213,#985,#986);
#834=AXIS2_PLACEMENT_3D('',#1216,#989,#990);
#835=AXIS2_PLACEMENT_3D('',#1218,#992,#993);
#836=AXIS2_PLACEMENT_3D('',#1222,#996,#997);
#837=AXIS2_PLACEMENT_3D('',#1228,#1001,#1002);
#838=AXIS2_PLACEMENT_3D('',#1232,#1005,#1006);
#839=AXIS2_PLACEMENT_3D('',#1233,#1007,#1008);
#840=AXIS2_PLACEMENT_3D('',#1236,#1010,#1011);
#841=AXIS2_PLACEMENT_3D('',#1237,#1012,#1013);
#842=AXIS2_PLACEMENT_3D('',#1241,#1015,#1016);
#843=AXIS2_PLACEMENT_3D('',#1245,#1019,#1020);
#844=AXIS2_PLACEMENT_3D('',#1246,#1021,#1022);
#845=AXIS2_PLACEMENT_3D('',#1248,#1024,#1025);
#846=AXIS2_PLACEMENT_3D('',#1249,#1026,#1027);
#847=AXIS2_PLACEMENT_3D('',#1254,#1029,#1030);
#848=AXIS2_PLACEMENT_3D('',#1257,#1032,#1033);
#849=AXIS2_PLACEMENT_3D('',#1258,#1034,#1035);
#850=AXIS2_PLACEMENT_3D('',#1286,#1038,#1039);
#851=AXIS2_PLACEMENT_3D('',#1314,#1042,#1043);
#852=AXIS2_PLACEMENT_3D('',#1327,#1045,#1046);
#853=AXIS2_PLACEMENT_3D('',#1331,#1048,#1049);
#854=AXIS2_PLACEMENT_3D('',#1332,#1050,#1051);
#855=AXIS2_PLACEMENT_3D('',#1333,#1052,#1053);
#856=AXIS2_PLACEMENT_3D('',#1343,#1054,#1055);
#857=AXIS2_PLACEMENT_3D('',#1344,#1056,#1057);
#858=AXIS2_PLACEMENT_3D('',#1345,#1058,#1059);
#859=AXIS2_PLACEMENT_3D('',#1346,#1060,#1061);
#860=AXIS2_PLACEMENT_3D('',#1347,#1062,#1063);
#861=AXIS2_PLACEMENT_3D('',#1348,#1064,#1065);
#862=AXIS2_PLACEMENT_3D('',#1350,#1066,#1067);
#863=AXIS2_PLACEMENT_3D('',#1351,#1068,#1069);
#864=AXIS2_PLACEMENT_3D('',#1353,#1071,#1072);
#865=DIRECTION('axis',(0.,0.,1.));
#866=DIRECTION('refdir',(1.,0.,0.));
#867=DIRECTION('center_axis',(0.,-1.,7.40148683083438E-16));
#868=DIRECTION('ref_axis',(-6.55031583150297E-14,7.40148683083438E-16,1.));
#869=DIRECTION('center_axis',(1.3907561775515E-15,-1.,2.54245417047013E-9));
#870=DIRECTION('ref_axis',(-6.55031583150297E-14,2.54245417047013E-9,1.));
#871=DIRECTION('',(0.,-1.,7.40148683083438E-16));
#872=DIRECTION('center_axis',(2.57399585216716E-15,1.,-1.27122696849157E-9));
#873=DIRECTION('ref_axis',(-6.55031583150297E-14,1.27122696849157E-9,1.));
#874=DIRECTION('center_axis',(1.,5.90002217676223E-29,7.97140130302321E-14));
#875=DIRECTION('ref_axis',(-7.97140130302321E-14,4.44089211918014E-16,1.));
#876=DIRECTION('',(7.97140130302321E-14,-1.27122696849157E-9,-1.));
#877=DIRECTION('',(0.,-1.,7.40148683083438E-16));
#878=DIRECTION('',(-7.97140130302321E-14,2.54245417047013E-9,1.));
#879=DIRECTION('',(0.,-1.,7.40148683083438E-16));
#880=DIRECTION('center_axis',(9.21485109060342E-14,-7.40148683083438E-16,
-1.));
#881=DIRECTION('ref_axis',(1.,-2.77555756156101E-16,9.21485109060342E-14));
#882=DIRECTION('',(-1.,2.57399573502548E-15,-9.21485109060342E-14));
#883=DIRECTION('',(1.,1.39075641183487E-15,9.21485109060342E-14));
#884=DIRECTION('',(0.,-1.,7.40148683083438E-16));
#885=DIRECTION('center_axis',(-1.,-6.42592944690958E-29,-8.68194403878333E-14));
#886=DIRECTION('ref_axis',(8.68194403878333E-14,-4.44089211918014E-16,-1.));
#887=DIRECTION('',(-8.68194403878333E-14,1.27122696849157E-9,1.));
#888=DIRECTION('',(8.68194403878333E-14,-2.54245417047013E-9,-1.));
#889=DIRECTION('',(0.,-1.,7.40148683083438E-16));
#890=DIRECTION('center_axis',(-9.21485109060341E-14,7.40148683083438E-16,
1.));
#891=DIRECTION('ref_axis',(-1.,-1.94725454826154E-28,-9.21485109060341E-14));
#892=DIRECTION('',(1.,-2.57399573502548E-15,9.21485109060341E-14));
#893=DIRECTION('',(-1.,-1.39075641183487E-15,-9.21485109060341E-14));
#894=DIRECTION('center_axis',(0.,-1.,7.40148683083438E-16));
#895=DIRECTION('ref_axis',(-6.55031583150297E-14,7.40148683083438E-16,1.));
#896=DIRECTION('center_axis',(1.3907561775515E-15,-1.,2.54245417047013E-9));
#897=DIRECTION('ref_axis',(-6.55031583150297E-14,2.54245417047013E-9,1.));
#898=DIRECTION('',(0.,-1.,7.40148683083438E-16));
#899=DIRECTION('center_axis',(2.57399585216716E-15,1.,-1.27122696849157E-9));
#900=DIRECTION('ref_axis',(-6.55031583150297E-14,1.27122696849157E-9,1.));
#901=DIRECTION('center_axis',(8.32667267090327E-14,-7.40148683083438E-16,
-1.));
#902=DIRECTION('ref_axis',(1.,1.9491030884774E-28,8.32667267090327E-14));
#903=DIRECTION('',(-1.,2.57399574631625E-15,-8.32667267090327E-14));
#904=DIRECTION('',(0.,-1.,7.40148683083438E-16));
#905=DIRECTION('',(1.,1.39075638925334E-15,8.32667267090327E-14));
#906=DIRECTION('',(0.,-1.,7.40148683083438E-16));
#907=DIRECTION('center_axis',(-1.,-6.16297581183589E-29,-8.32667267090324E-14));
#908=DIRECTION('ref_axis',(8.32667267090324E-14,4.44089207782111E-16,-1.));
#909=DIRECTION('',(-8.32667267090324E-14,1.27122696849157E-9,1.));
#910=DIRECTION('',(8.32667267090324E-14,-2.54245417047013E-9,-1.));
#911=DIRECTION('',(0.,-1.,7.40148683083438E-16));
#912=DIRECTION('center_axis',(-7.43849425120312E-14,7.40148683083438E-16,
1.));
#913=DIRECTION('ref_axis',(-1.,-2.77555756156491E-16,-7.43849425120312E-14));
#914=DIRECTION('',(1.,-2.57399575760701E-15,7.43849425120312E-14));
#915=DIRECTION('',(-1.,-1.39075636667181E-15,-7.43849425120312E-14));
#916=DIRECTION('',(0.,-1.,7.40148683083438E-16));
#917=DIRECTION('center_axis',(1.,6.42592944690958E-29,8.68194403878333E-14));
#918=DIRECTION('ref_axis',(-8.68194403878333E-14,2.06795153138257E-24,1.));
#919=DIRECTION('',(8.68194403878333E-14,-1.27122696849157E-9,-1.));
#920=DIRECTION('',(-8.68194403878333E-14,2.54245417047013E-9,1.));
#921=DIRECTION('center_axis',(-2.57399585216716E-15,-1.,1.27122696849157E-9));
#922=DIRECTION('ref_axis',(5.65345491064962E-14,-1.27122696849157E-9,-1.));
#923=DIRECTION('',(-5.65345491064962E-14,1.27122696849157E-9,1.));
#924=DIRECTION('',(1.,-2.57399578029891E-15,5.65345491097683E-14));
#925=DIRECTION('',(5.65345491064962E-14,-1.27122696849157E-9,-1.));
#926=DIRECTION('',(1.,-2.57399569823443E-15,1.21089881865817E-13));
#927=DIRECTION('',(5.65345491064962E-14,-1.27122696849157E-9,-1.));
#928=DIRECTION('',(1.,-2.57399569506269E-15,1.23584907254433E-13));
#929=DIRECTION('',(-1.8814024013517E-13,1.27122696849157E-9,1.));
#930=DIRECTION('',(-1.,2.5739956899728E-15,-1.27588822685777E-13));
#931=DIRECTION('center_axis',(1.3907561775515E-15,-1.,2.54245417047013E-9));
#932=DIRECTION('ref_axis',(1.,1.39075648131124E-15,1.19475012001737E-13));
#933=DIRECTION('',(5.65345491071817E-14,-2.54245417047013E-9,-1.));
#934=DIRECTION('',(-1.,-1.39075648541698E-15,-1.21089881855737E-13));
#935=DIRECTION('',(-5.65345490392431E-14,2.54245417047013E-9,1.));
#936=DIRECTION('',(-1.,-1.390756321288E-15,-5.65345491047282E-14));
#937=DIRECTION('',(1.83328492839507E-13,-2.54245417047013E-9,-1.));
#938=DIRECTION('',(-1.,-1.390756481532E-15,-1.19561836988468E-13));
#939=DIRECTION('',(-1.20831496136781E-13,2.54245417047013E-9,1.));
#940=DIRECTION('',(-1.,-1.39075649564545E-15,-1.25112952111622E-13));
#941=DIRECTION('',(-6.1346296267655E-14,2.54240552521476E-9,1.));
#942=DIRECTION('',(1.,1.39075650194024E-15,1.27588822680737E-13));
#943=DIRECTION('',(1.88140240067919E-13,-2.54240552521476E-9,-1.));
#944=DIRECTION('',(-1.,-1.39075656970403E-15,-1.23584907244353E-13));
#945=DIRECTION('center_axis',(-1.25112952115158E-13,2.54240647764778E-9,
1.));
#946=DIRECTION('ref_axis',(5.73372552073453E-14,-1.,2.54240647764778E-9));
#947=DIRECTION('',(-1.50540704503504E-22,-1.,2.54240647764778E-9));
#948=DIRECTION('',(-1.,-1.44939686243254E-14,-1.25112952078309E-13));
#949=DIRECTION('center_axis',(1.25112952115158E-13,-2.54240647764778E-9,
-1.));
#950=DIRECTION('ref_axis',(-6.91796341366805E-14,1.,-2.54240606350471E-9));
#951=DIRECTION('',(-4.22148056609944E-14,-1.,2.54240647764778E-9));
#952=DIRECTION('center_axis',(9.47390392734226E-26,-5.55111371691874E-17,
1.));
#953=DIRECTION('ref_axis',(-5.5305955982002E-14,1.,5.55111371691874E-17));
#954=DIRECTION('center_axis',(-1.27588822682505E-13,1.2712280787146E-9,
1.));
#955=DIRECTION('ref_axis',(-5.5305955982002E-14,1.,-1.2712280787146E-9));
#956=DIRECTION('',(9.47390392734226E-26,-5.55111371691874E-17,1.));
#957=DIRECTION('center_axis',(9.47390392734226E-26,-5.55111371691874E-17,
1.));
#958=DIRECTION('ref_axis',(-5.5305955982002E-14,1.,5.55111371691874E-17));
#959=DIRECTION('center_axis',(9.47390392734226E-26,-5.55111371691874E-17,
1.));
#960=DIRECTION('ref_axis',(-5.5305955982002E-14,1.,5.55111371691874E-17));
#961=DIRECTION('center_axis',(-1.,5.29041058171312E-14,-1.88140240202423E-13));
#962=DIRECTION('ref_axis',(-5.2904106534629E-14,-1.,3.81363278270447E-9));
#963=DIRECTION('',(-5.290410629546E-14,-1.,2.54240552521476E-9));
#964=DIRECTION('',(-5.29041060563004E-14,-1.,1.2712280787146E-9));
#965=DIRECTION('center_axis',(1.23584907247889E-13,-2.54240552521476E-9,
-1.));
#966=DIRECTION('ref_axis',(-1.34753240799764E-14,1.,-2.54240552521476E-9));
#967=DIRECTION('',(5.3925455267546E-16,-1.,2.54240552521476E-9));
#968=DIRECTION('center_axis',(1.,-4.22148055050272E-14,6.13462963749821E-14));
#969=DIRECTION('ref_axis',(-6.13462963749845E-14,-5.52085820396125E-14,
1.));
#970=DIRECTION('',(1.22239182369556E-13,-2.54240606350471E-9,-1.));
#971=DIRECTION('',(4.22148056609944E-14,1.,-2.54240652171651E-9));
#972=DIRECTION('center_axis',(1.22239182369556E-13,-2.54240606350471E-9,
-1.));
#973=DIRECTION('ref_axis',(-6.91796341366805E-14,1.,-2.54240606350471E-9));
#974=DIRECTION('',(-1.22239182369556E-13,2.54240606350471E-9,1.));
#975=DIRECTION('center_axis',(1.27588822682505E-13,-1.2712280787146E-9,
-1.));
#976=DIRECTION('ref_axis',(-6.91796342920683E-14,1.,-1.2712280787146E-9));
#977=DIRECTION('center_axis',(1.27588822682505E-13,-1.2712280787146E-9,
-1.));
#978=DIRECTION('ref_axis',(-5.41075154845218E-14,1.,-1.2712280787146E-9));
#979=DIRECTION('',(4.22148056609944E-14,1.,-2.54240652171651E-9));
#980=DIRECTION('center_axis',(1.27588822682505E-13,-1.2712280787146E-9,
-1.));
#981=DIRECTION('ref_axis',(-0.0384615384600536,-0.999260081289794,1.27028418946693E-9));
#982=DIRECTION('',(4.22148056609944E-14,1.,-2.54240652171651E-9));
#983=DIRECTION('center_axis',(5.65345491064962E-14,-1.27122696849157E-9,
-1.));
#984=DIRECTION('ref_axis',(-0.0384615384600536,-0.999260081289794,1.27028418946693E-9));
#985=DIRECTION('center_axis',(1.25112952115158E-13,-2.54240647764778E-9,
-1.));
#986=DIRECTION('ref_axis',(-0.0384615384600536,-0.999260081289794,2.5405204914894E-9));
#987=DIRECTION('',(5.65345491064962E-14,-1.27122696849157E-9,-1.));
#988=DIRECTION('',(-5.65345491064962E-14,1.27122696849157E-9,1.));
#989=DIRECTION('center_axis',(1.,5.39254618462417E-16,5.65345491058107E-14));
#990=DIRECTION('ref_axis',(-5.65345491064962E-14,1.27122696849157E-9,1.));
#991=DIRECTION('',(5.39254474725877E-16,-1.,2.54245417047013E-9));
#992=DIRECTION('center_axis',(1.,-4.22148055050272E-14,6.13462963749821E-14));
#993=DIRECTION('ref_axis',(-6.13462963749845E-14,-5.52085820396125E-14,
1.));
#994=DIRECTION('',(5.65345491064962E-14,-1.27122696849157E-9,-1.));
#995=DIRECTION('',(4.22148057389437E-14,1.,-2.54245317396838E-9));
#996=DIRECTION('center_axis',(1.44939684652784E-14,-1.,1.27122696849157E-9));
#997=DIRECTION('ref_axis',(5.65345491064962E-14,-1.27122696849157E-9,-1.));
#998=DIRECTION('',(-5.9211894646675E-14,1.27122696849157E-9,1.));
#999=DIRECTION('',(1.,1.44939686172687E-14,1.19561836955154E-13));
#1000=DIRECTION('',(-5.65345491064962E-14,1.27122696849157E-9,1.));
#1001=DIRECTION('center_axis',(-1.19561836992004E-13,2.54245321803711E-9,
1.));
#1002=DIRECTION('ref_axis',(5.73372551293959E-14,-1.,2.54245321803711E-9));
#1003=DIRECTION('',(1.50543472090513E-22,1.,-2.54245321803711E-9));
#1004=DIRECTION('',(-4.22148057389437E-14,-1.,2.54245321803711E-9));
#1005=DIRECTION('center_axis',(1.19561836992004E-13,-2.54245321803711E-9,
-1.));
#1006=DIRECTION('ref_axis',(-6.91796340587311E-14,1.,-2.54245363218018E-9));
#1007=DIRECTION('center_axis',(5.65345491064962E-14,-1.27122696849157E-9,
-1.));
#1008=DIRECTION('ref_axis',(-0.0384615384600536,-0.999260081289794,1.27028418946693E-9));
#1009=DIRECTION('',(-5.65345491064962E-14,1.27122696849157E-9,1.));
#1010=DIRECTION('center_axis',(-5.65345491064962E-14,1.27122696849157E-9,
1.));
#1011=DIRECTION('ref_axis',(-0.0384615384600536,-0.999260081289794,1.27028418946693E-9));
#1012=DIRECTION('center_axis',(-5.65345491064962E-14,1.27122696849157E-9,
1.));
#1013=DIRECTION('ref_axis',(1.,5.11499042846662E-16,5.6534549105846E-14));
#1014=DIRECTION('',(4.22148057389437E-14,1.,-2.54245317396838E-9));
#1015=DIRECTION('center_axis',(-1.1956183773063E-13,2.54245317396838E-9,
1.));
#1016=DIRECTION('ref_axis',(-5.73372521036932E-14,1.,-2.54245363218018E-9));
#1017=DIRECTION('',(4.22148057389437E-14,1.,-2.54245317396838E-9));
#1018=DIRECTION('',(-5.29041063015413E-14,-1.,1.27122691298042E-9));
#1019=DIRECTION('center_axis',(5.65345491064962E-14,-1.27122696849157E-9,
-1.));
#1020=DIRECTION('ref_axis',(5.5305955982002E-14,-1.,1.27122696849157E-9));
#1021=DIRECTION('center_axis',(1.,-5.29041062296731E-14,5.65345491737493E-14));
#1022=DIRECTION('ref_axis',(-5.29041063015413E-14,-1.,1.27122691298042E-9));
#1023=DIRECTION('',(-5.29041063734096E-14,-1.,2.54245417047013E-9));
#1024=DIRECTION('center_axis',(1.21089881859273E-13,-2.54245417047013E-9,
-1.));
#1025=DIRECTION('ref_axis',(-1.34753240020268E-14,1.,-2.54245417047013E-9));
#1026=DIRECTION('center_axis',(1.,1.43119342711148E-14,1.20831496100393E-13));
#1027=DIRECTION('ref_axis',(-1.20831496118587E-13,1.27122709095625E-9,1.));
#1028=DIRECTION('',(1.20831496154975E-13,-3.81368845827603E-9,-1.));
#1029=DIRECTION('center_axis',(1.,1.43119342711148E-14,1.20831496100393E-13));
#1030=DIRECTION('ref_axis',(-1.30613217669742E-13,3.81368858074071E-9,1.));
#1031=DIRECTION('',(-1.20831496154975E-13,3.81368845827603E-9,1.));
#1032=DIRECTION('center_axis',(1.,1.43119342711148E-14,1.20831496100393E-13));
#1033=DIRECTION('ref_axis',(-1.30613217669742E-13,3.81368858074071E-9,1.));
#1034=DIRECTION('center_axis',(1.22435606737607E-13,-2.54245363218018E-9,
-1.));
#1035=DIRECTION('ref_axis',(-6.91796340587311E-14,1.,-2.54245363218018E-9));
#1036=DIRECTION('',(-1.22435606737607E-13,2.54245363218018E-9,1.));
#1037=DIRECTION('',(1.22435606737607E-13,-2.54245363218018E-9,-1.));
#1038=DIRECTION('center_axis',(1.22435606737607E-13,-2.54245363218018E-9,
-1.));
#1039=DIRECTION('ref_axis',(-6.91796340587311E-14,1.,-2.54245363218018E-9));
#1040=DIRECTION('',(1.22435606737607E-13,-2.54245363218018E-9,-1.));
#1041=DIRECTION('',(-1.22435606737607E-13,2.54245363218018E-9,1.));
#1042=DIRECTION('center_axis',(5.58790893520697E-14,1.,-3.81368845827603E-9));
#1043=DIRECTION('ref_axis',(-1.19506326003584E-13,3.81368845827603E-9,1.));
#1044=DIRECTION('',(-1.83328492785843E-13,3.81368845827603E-9,1.));
#1045=DIRECTION('center_axis',(-1.,4.22148052728396E-14,-1.83328492946837E-13));
#1046=DIRECTION('ref_axis',(1.83328492732178E-13,-5.08491490426693E-9,-1.));
#1047=DIRECTION('',(-1.83328492785843E-13,3.81368845827603E-9,1.));
#1048=DIRECTION('center_axis',(-1.,4.22148052728396E-14,-1.83328492946837E-13));
#1049=DIRECTION('ref_axis',(-1.30613217669742E-13,3.81368858074071E-9,1.));
#1050=DIRECTION('center_axis',(-1.,4.22148052728396E-14,-1.83328492946837E-13));
#1051=DIRECTION('ref_axis',(-1.30613217669742E-13,3.81368858074071E-9,1.));
#1052=DIRECTION('center_axis',(5.58513337764539E-14,1.,-3.81368845827603E-9));
#1053=DIRECTION('ref_axis',(-1.30613217669742E-13,3.81368845827603E-9,1.));
#1054=DIRECTION('center_axis',(1.,-5.5879088855663E-14,1.30164467253091E-13));
#1055=DIRECTION('ref_axis',(1.29715894378864E-13,3.18108600839834E-6,-0.99999999999494));
#1056=DIRECTION('center_axis',(-1.,4.22148052728396E-14,-1.83328492946837E-13));
#1057=DIRECTION('ref_axis',(-1.30613217669742E-13,3.81368858074071E-9,1.));
#1058=DIRECTION('center_axis',(1.,-5.5879088855663E-14,1.30164467253091E-13));
#1059=DIRECTION('ref_axis',(-1.30613217669742E-13,3.81368858074071E-9,1.));
#1060=DIRECTION('center_axis',(-1.,4.22148052728396E-14,-1.83328492946837E-13));
#1061=DIRECTION('ref_axis',(-1.30613217669742E-13,3.81368858074071E-9,1.));
#1062=DIRECTION('center_axis',(1.,-4.22148055050272E-14,6.13462963749821E-14));
#1063=DIRECTION('ref_axis',(-6.13462963749845E-14,-5.52085820396125E-14,
1.));
#1064=DIRECTION('center_axis',(-9.47390392734226E-26,5.55111371691874E-17,
-1.));
#1065=DIRECTION('ref_axis',(5.5305955982002E-14,-1.,-5.55111371691874E-17));
#1066=DIRECTION('center_axis',(-9.47390392734226E-26,5.55111371691874E-17,
-1.));
#1067=DIRECTION('ref_axis',(5.5305955982002E-14,-1.,-5.55111371691874E-17));
#1068=DIRECTION('center_axis',(-9.47390392734226E-26,5.55111371691874E-17,
-1.));
#1069=DIRECTION('ref_axis',(5.5305955982002E-14,-1.,-5.55111371691874E-17));
#1070=DIRECTION('',(-9.47390392734226E-26,5.55111371691874E-17,-1.));
#1071=DIRECTION('center_axis',(1.,0.,5.9211894646675E-14));
#1072=DIRECTION('ref_axis',(5.9211894646675E-14,0.,-1.));
#1073=CARTESIAN_POINT('',(0.,0.,0.));
#1074=CARTESIAN_POINT('Origin',(-9.6626005829328,117.119168664399,120.900983956919));
#1075=CARTESIAN_POINT('',(-9.66260058293273,117.119168664399,119.650983956919));
#1076=CARTESIAN_POINT('Origin',(-9.6626005829328,117.119168019841,120.900983956919));
#1077=CARTESIAN_POINT('',(-9.66260058293271,99.219168206549,119.650983956919));
#1078=CARTESIAN_POINT('',(-9.66260058293271,117.119168664399,119.650983956919));
#1079=CARTESIAN_POINT('Origin',(-9.6626005829328,99.219168208138,120.900983956919));
#1080=CARTESIAN_POINT('Origin',(-10.9011860822455,117.119168664399,115.902502115331));
#1081=CARTESIAN_POINT('',(-10.9011860822457,99.2191682049619,118.402502115331));
#1082=CARTESIAN_POINT('',(-10.9011860822455,99.2191682017838,115.902502115331));
#1083=CARTESIAN_POINT('',(-10.9011860822447,99.2191681880992,105.137651528049));
#1084=CARTESIAN_POINT('',(-10.9011860822457,117.119168664399,118.402502115331));
#1085=CARTESIAN_POINT('',(-10.9011860822457,117.119168664399,118.402502115331));
#1086=CARTESIAN_POINT('',(-10.9011860822455,117.119168664399,115.902502115331));
#1087=CARTESIAN_POINT('',(-10.9011860822461,117.119168024816,122.857743022904));
#1088=CARTESIAN_POINT('',(-10.9011860822455,117.119168664399,115.902502115331));
#1089=CARTESIAN_POINT('Origin',(-14.9011860822454,117.119168664399,115.902502115331));
#1090=CARTESIAN_POINT('',(-14.9011860822454,99.2191682017838,115.902502115331));
#1091=CARTESIAN_POINT('',(-11.8257784997399,99.2191682017838,115.902502115331));
#1092=CARTESIAN_POINT('',(-14.9011860822454,117.119168664399,115.902502115331));
#1093=CARTESIAN_POINT('',(-15.9011860821318,117.119168007133,115.90250211533));
#1094=CARTESIAN_POINT('',(-14.9011860822454,117.119168664399,115.902502115331));
#1095=CARTESIAN_POINT('Origin',(-14.9011860822456,117.119168664399,118.40250211533));
#1096=CARTESIAN_POINT('',(-14.9011860822456,99.2191682049619,118.40250211533));
#1097=CARTESIAN_POINT('',(-14.9011860822446,99.2191681896883,106.387651528049));
#1098=CARTESIAN_POINT('',(-14.9011860822456,117.119168664399,118.40250211533));
#1099=CARTESIAN_POINT('',(-14.9011860822461,117.119168027994,124.107743022904));
#1100=CARTESIAN_POINT('',(-14.9011860822456,117.119168664399,118.40250211533));
#1101=CARTESIAN_POINT('Origin',(-10.9011860822457,117.119168664399,118.402502115331));
#1102=CARTESIAN_POINT('',(-9.82577849974022,99.2191682049619,118.402502115331));
#1103=CARTESIAN_POINT('',(-13.9011860821321,117.119168013489,118.402502115331));
#1104=CARTESIAN_POINT('Origin',(-9.66260058292971,117.119168664399,93.1250187963005));
#1105=CARTESIAN_POINT('',(-9.66260058292962,117.119168664399,91.8750187963005));
#1106=CARTESIAN_POINT('Origin',(-9.66260058292971,117.119167949222,93.1250187963005));
#1107=CARTESIAN_POINT('',(-9.66260058292962,99.2191681712394,91.8750187963005));
#1108=CARTESIAN_POINT('',(-9.66260058292962,117.119168664399,91.8750187963005));
#1109=CARTESIAN_POINT('Origin',(-9.66260058292971,99.2191681728285,93.1250187963005));
#1110=CARTESIAN_POINT('Origin',(-14.9011860822449,117.119168664399,123.399376160239));
#1111=CARTESIAN_POINT('',(-10.901186082245,99.219168211314,123.399376160239));
#1112=CARTESIAN_POINT('',(-14.9011860822449,99.219168211314,123.399376160239));
#1113=CARTESIAN_POINT('',(-11.8257784997399,99.219168211314,123.399376160239));
#1114=CARTESIAN_POINT('',(-10.901186082245,117.119168664399,123.399376160239));
#1115=CARTESIAN_POINT('',(-10.901186082245,117.119168664399,123.399376160239));
#1116=CARTESIAN_POINT('',(-14.9011860822449,117.119168664399,123.399376160239));
#1117=CARTESIAN_POINT('',(-15.9011860821319,117.119168026193,123.399376160238));
#1118=CARTESIAN_POINT('',(-14.9011860822449,117.119168664399,123.399376160239));
#1119=CARTESIAN_POINT('Origin',(-14.9011860822451,117.119168664399,125.899376160239));
#1120=CARTESIAN_POINT('',(-14.9011860822451,99.2191682144921,125.899376160239));
#1121=CARTESIAN_POINT('',(-14.9011860822438,99.2191681944534,110.136088550503));
#1122=CARTESIAN_POINT('',(-14.9011860822451,117.119168664399,125.899376160239));
#1123=CARTESIAN_POINT('',(-14.9011860822453,117.119168037525,127.856180045358));
#1124=CARTESIAN_POINT('',(-14.9011860822451,117.119168664399,125.899376160239));
#1125=CARTESIAN_POINT('Origin',(-10.9011860822452,117.119168664399,125.899376160239));
#1126=CARTESIAN_POINT('',(-10.9011860822452,99.2191682144921,125.899376160239));
#1127=CARTESIAN_POINT('',(-9.82577849974005,99.2191682144921,125.899376160239));
#1128=CARTESIAN_POINT('',(-10.9011860822452,117.119168664399,125.899376160239));
#1129=CARTESIAN_POINT('',(-13.9011860821322,117.11916803255,125.899376160239));
#1130=CARTESIAN_POINT('',(-10.9011860822452,117.119168664399,125.899376160239));
#1131=CARTESIAN_POINT('Origin',(-10.901186082245,117.119168664399,123.399376160239));
#1132=CARTESIAN_POINT('',(-10.9011860822437,99.2191681928644,108.886088550503));
#1133=CARTESIAN_POINT('',(-10.9011860822453,117.119168034347,126.606180045358));
#1134=CARTESIAN_POINT('Origin',(-8.75037091723246,99.2191681744147,94.372800918013));
#1135=CARTESIAN_POINT('',(-0.601186082225377,99.2191681144895,86.3130184680655));
#1136=CARTESIAN_POINT('',(-0.60118608222848,99.2191682343323,127.712983413472));
#1137=CARTESIAN_POINT('',(-0.601186082226992,99.2191681495746,74.8326179614518));
#1138=CARTESIAN_POINT('',(-11.0011860822566,99.2191680721997,127.712982987875));
#1139=CARTESIAN_POINT('',(-3.9511860822418,99.2191682167976,127.712982987875));
#1140=CARTESIAN_POINT('',(-11.0011860822569,99.219168077666,132.012983987875));
#1141=CARTESIAN_POINT('',(-11.0011860822553,99.2191681859193,103.422800974663));
#1142=CARTESIAN_POINT('',(-16.9011860822563,99.2191680776664,132.012983975541));
#1143=CARTESIAN_POINT('',(-7.20068608224528,99.2191682222639,132.012983975988));
#1144=CARTESIAN_POINT('',(-16.9011860822521,99.2191679359587,82.0130179059923));
#1145=CARTESIAN_POINT('',(-16.9011860822537,99.2191681796871,98.5202787290458));
#1146=CARTESIAN_POINT('',(-11.0011860822528,99.2191679359584,82.0130178936602));
#1147=CARTESIAN_POINT('',(-11.2752784997402,99.2191681265655,82.0130179055473));
#1148=CARTESIAN_POINT('',(-11.0011860822536,99.219167952357,86.3130188936602));
#1149=CARTESIAN_POINT('',(-11.0011860822563,99.2191681504901,100.833109383082));
#1150=CARTESIAN_POINT('',(-6.74518608223881,99.2191681320317,86.3130184559868));
#1151=CARTESIAN_POINT('Origin',(-16.9011860820194,117.1191680425,129.812983930477));
#1152=CARTESIAN_POINT('',(-16.9011860822557,117.119167707612,132.012983936945));
#1153=CARTESIAN_POINT('',(-16.9011860822515,117.119167565904,82.0130178535694));
#1154=CARTESIAN_POINT('',(-16.9011860822547,117.119168007992,116.240370218168));
#1155=CARTESIAN_POINT('',(-11.0011860822559,117.119167707612,132.01298396512));
#1156=CARTESIAN_POINT('',(-15.3506860821382,117.119168048093,132.012983930477));
#1157=CARTESIAN_POINT('',(-11.0011860822557,117.119167702145,127.71298296512));
#1158=CARTESIAN_POINT('',(-11.0011860822559,117.119168045296,130.912983947799));
#1159=CARTESIAN_POINT('',(-0.601186082227724,117.119168037161,127.712983367962));
#1160=CARTESIAN_POINT('',(-12.1011860821365,117.119168037161,127.71298296512));
#1161=CARTESIAN_POINT('',(-0.601186082225195,117.119168002075,113.912983886462));
#1162=CARTESIAN_POINT('',(-0.601186082227285,117.119168031059,125.312983923312));
#1163=CARTESIAN_POINT('',(-3.30118608224909,117.119168002075,113.912983886461));
#1164=CARTESIAN_POINT('',(-12.8257784996261,117.119168002075,113.91298388646));
#1165=CARTESIAN_POINT('',(-3.30118608224437,117.119167902715,100.113017904056));
#1166=CARTESIAN_POINT('',(-3.30118608224882,117.11916799637,111.66903805349));
#1167=CARTESIAN_POINT('',(-0.601186082225492,117.119167952403,100.113017904057));
#1168=CARTESIAN_POINT('',(-12.8257784996219,117.119167902715,100.113017904055));
#1169=CARTESIAN_POINT('',(-0.601186082224605,117.119167917318,86.3130184225564));
#1170=CARTESIAN_POINT('',(-0.601186082224776,117.11916792342,88.7130178672068));
#1171=CARTESIAN_POINT('',(-11.0011860822526,117.119167582303,86.3130188253962));
#1172=CARTESIAN_POINT('',(-14.8951860821315,117.119167867629,86.3130184332307));
#1173=CARTESIAN_POINT('',(-11.0011860822518,117.119167565904,82.0130178253962));
#1174=CARTESIAN_POINT('',(-11.001186082252,117.119167909182,83.1130178427174));
#1175=CARTESIAN_POINT('',(-15.350686082134,117.119167906385,82.0130178600377));
#1176=CARTESIAN_POINT('Origin',(-5.80118608223339,108.16916805099,100.113017926811));
#1177=CARTESIAN_POINT('',(-3.30118608224501,111.022505460669,100.113017946447));
#1178=CARTESIAN_POINT('',(-3.30118608224501,106.897168210771,100.113017930045));
#1179=CARTESIAN_POINT('',(-0.601186082225737,111.022504998774,100.113017919557));
#1180=CARTESIAN_POINT('',(-4.70118608223922,111.022505460669,100.113017919556));
#1181=CARTESIAN_POINT('',(-0.601186082225615,114.015830908194,100.113017911947));
#1182=CARTESIAN_POINT('Origin',(-0.501186082228032,112.519167953484,100.113017915752));
#1183=CARTESIAN_POINT('',(-0.601186082225843,108.531667797445,100.11301792589));
#1184=CARTESIAN_POINT('Origin',(-6.63818608224554,108.1691679774,91.3130184213316));
#1185=CARTESIAN_POINT('',(-6.63818608224547,106.9191679774,86.3130184430202));
#1186=CARTESIAN_POINT('Origin',(-6.63818608224554,108.1691679774,86.3130184446093));
#1187=CARTESIAN_POINT('',(-6.63818608224547,106.9191679774,96.3130184213316));
#1188=CARTESIAN_POINT('',(-6.63818608224547,106.9191679774,91.3130184213316));
#1189=CARTESIAN_POINT('Origin',(-6.63818608224553,108.1691679774,96.3130184213316));
#1190=CARTESIAN_POINT('Origin',(-6.63818608224553,108.1691679774,96.3130184213316));
#1191=CARTESIAN_POINT('Origin',(-11.0011860822518,117.119257715904,82.0130178253958));
#1192=CARTESIAN_POINT('',(-11.001186082252,114.194713137782,82.0130178674734));
#1193=CARTESIAN_POINT('',(-11.0011860822528,114.194713166888,86.3130184369489));
#1194=CARTESIAN_POINT('Origin',(-13.8001860822525,111.270168559659,82.0130178749084));
#1195=CARTESIAN_POINT('',(-16.9011860822515,109.68516845529,82.0130178789378));
#1196=CARTESIAN_POINT('Origin',(-0.601186082225399,108.894167526358,93.2130178952862));
#1197=CARTESIAN_POINT('',(-0.601186082224728,114.015830873108,86.3130184304463));
#1198=CARTESIAN_POINT('',(-0.601186082224758,114.015830872854,86.2130184304463));
#1199=CARTESIAN_POINT('',(-0.601186082224991,108.531667765904,86.3130184443893));
#1200=CARTESIAN_POINT('Origin',(-0.501186082228037,112.519167953738,100.213017915752));
#1201=CARTESIAN_POINT('',(-0.601186082224886,111.022504963689,86.3130184380566));
#1202=CARTESIAN_POINT('',(-0.60118608222488,111.022504963435,86.2130184380566));
#1203=CARTESIAN_POINT('Origin',(-0.501186082226338,112.519167918399,86.3130184390802));
#1204=CARTESIAN_POINT('Origin',(-12.8891860822524,111.270168612405,86.3130184406664));
#1205=CARTESIAN_POINT('',(-0.601186082225061,106.417243887478,86.313018449765));
#1206=CARTESIAN_POINT('',(-0.601186082224991,108.531667765904,86.3130184443893));
#1207=CARTESIAN_POINT('',(-0.601186082225307,101.221091464771,86.3130184629758));
#1208=CARTESIAN_POINT('Origin',(-0.50118608223,103.819167693667,86.313018450139));
#1209=CARTESIAN_POINT('',(-0.601186082224991,108.531667765904,86.3130184443893));
#1210=CARTESIAN_POINT('Origin',(-0.501186082230781,103.81916771121,100.113017955604));
#1211=CARTESIAN_POINT('',(-0.601186082226147,101.221091499856,100.113017944476));
#1212=CARTESIAN_POINT('',(-0.601186082225927,106.417243922563,100.113017931265));
#1213=CARTESIAN_POINT('Origin',(-0.501186082230781,103.81916771121,100.113017937871));
#1214=CARTESIAN_POINT('',(-0.601186082226147,101.221091499856,100.113017958907));
#1215=CARTESIAN_POINT('',(-0.601186082225927,106.417243922563,100.113017952301));
#1216=CARTESIAN_POINT('Origin',(-16.901186082254,108.100168427793,102.667756528789));
#1217=CARTESIAN_POINT('',(-16.9011860822557,109.685168596998,132.012983949378));
#1218=CARTESIAN_POINT('Origin',(-0.601186082225399,108.894167526358,67.9326178952862));
#1219=CARTESIAN_POINT('',(-0.601186082228396,101.221091584614,127.712983408382));
#1220=CARTESIAN_POINT('',(-0.601186082226147,101.221091499856,74.8326179589069));
#1221=CARTESIAN_POINT('',(-0.601186082228087,108.531667885747,127.712983389795));
#1222=CARTESIAN_POINT('Origin',(-3.60118608224501,111.022505460669,74.8326179464469));
#1223=CARTESIAN_POINT('',(-3.301186082249,111.022505510349,113.912983904889));
#1224=CARTESIAN_POINT('',(-3.30118608224557,111.02250547255,84.1788550726547));
#1225=CARTESIAN_POINT('',(-0.601186082225452,111.022505048446,113.912983901962));
#1226=CARTESIAN_POINT('',(-4.70118608224142,111.022505510349,113.912983901962));
#1227=CARTESIAN_POINT('',(-0.601186082226604,111.022505460669,74.8326179464471));
#1228=CARTESIAN_POINT('Origin',(-5.8011860822331,108.169168100662,113.912983909216));
#1229=CARTESIAN_POINT('',(-3.30118608224733,106.897168285287,113.91298391245));
#1230=CARTESIAN_POINT('',(-0.601186082225326,114.015830957865,113.912983894352));
#1231=CARTESIAN_POINT('',(-0.601186082225557,108.531667847117,113.912983908295));
#1232=CARTESIAN_POINT('Origin',(-0.501186082227729,112.519168003156,113.912983898157));
#1233=CARTESIAN_POINT('Origin',(-0.501186082230781,103.81916771121,74.8326179556041));
#1234=CARTESIAN_POINT('',(-0.601186082228176,106.417244007321,127.712983395171));
#1235=CARTESIAN_POINT('',(-0.601186082225927,106.417243922563,74.8326179523014));
#1236=CARTESIAN_POINT('Origin',(-0.50118608223377,103.819167778433,127.712982982028));
#1237=CARTESIAN_POINT('Origin',(-7.30118608225359,108.169212962173,127.712982976497));
#1238=CARTESIAN_POINT('',(-0.601186082227982,111.022505083532,127.712983383463));
#1239=CARTESIAN_POINT('',(-0.601186082228087,108.531667885747,127.712983389795));
#1240=CARTESIAN_POINT('',(-0.601186082227856,114.015830992951,127.712983375852));
#1241=CARTESIAN_POINT('Origin',(-0.501186082228667,112.519168038241,127.712983379657));
#1242=CARTESIAN_POINT('',(-0.601186082228087,108.531667885747,127.712983389795));
#1243=CARTESIAN_POINT('',(-11.0011860822551,127.757299765224,127.712982951596));
#1244=CARTESIAN_POINT('',(-6.63818608225444,109.41916814744,127.712982978087));
#1245=CARTESIAN_POINT('Origin',(-6.63818608225437,108.16916814744,127.712982976497));
#1246=CARTESIAN_POINT('Origin',(-11.0011860822559,117.119257857612,132.01298396512));
#1247=CARTESIAN_POINT('',(-11.0011860822561,114.194713279489,132.012983937913));
#1248=CARTESIAN_POINT('Origin',(-13.8001860822566,111.270168701367,132.012983945348));
#1249=CARTESIAN_POINT('Origin',(-7.10118608224651,105.625168418076,93.5250922057236));
#1250=CARTESIAN_POINT('',(-7.10118608224967,114.019168009548,120.55718028294));
#1251=CARTESIAN_POINT('',(-7.10118608224984,114.019168007535,120.065661610512));
#1252=CARTESIAN_POINT('',(-7.10118608224797,114.019167948678,104.596069530383));
#1253=CARTESIAN_POINT('',(-7.10118608224986,111.019168009548,120.557189848749));
#1254=CARTESIAN_POINT('Origin',(-7.10118608224961,112.519167225904,120.31142095121));
#1255=CARTESIAN_POINT('',(-7.1011860822498,111.019168007834,120.065652067248));
#1256=CARTESIAN_POINT('',(-7.10118608224771,111.01916794176,102.782268176002));
#1257=CARTESIAN_POINT('Origin',(-7.10118608224961,112.519167225904,120.31142095121));
#1258=CARTESIAN_POINT('Origin',(-0.501186082227717,112.519168002901,113.812983898157));
#1259=CARTESIAN_POINT('',(-0.601186082227549,111.022505074473,124.149962654088));
#1260=CARTESIAN_POINT('',(-0.601186082227426,114.015830983892,124.149962027685));
#1261=CARTESIAN_POINT('Ctrl Pts',(-0.601186082227549,111.022505074473,124.149962654088));
#1262=CARTESIAN_POINT('Ctrl Pts',(-0.640239558453257,111.025114444572,124.134213239849));
#1263=CARTESIAN_POINT('Ctrl Pts',(-0.679081833112893,111.029247583279,124.11914545589));
#1264=CARTESIAN_POINT('Ctrl Pts',(-0.879467834688389,111.058454782949,124.044501853165));
#1265=CARTESIAN_POINT('Ctrl Pts',(-1.05355135989867,111.112742189982,123.991481139866));
#1266=CARTESIAN_POINT('Ctrl Pts',(-1.37393891123911,111.285700236575,123.917837128865));
#1267=CARTESIAN_POINT('Ctrl Pts',(-1.52000543836287,111.404582312243,123.896678482515));
#1268=CARTESIAN_POINT('Ctrl Pts',(-1.74582103893593,111.664797851177,123.874575104728));
#1269=CARTESIAN_POINT('Ctrl Pts',(-1.84249014423876,111.823337064573,123.871472341175));
#1270=CARTESIAN_POINT('Ctrl Pts',(-1.97017149915293,112.165107071942,123.870251486648));
#1271=CARTESIAN_POINT('Ctrl Pts',(-2.00118606919358,112.348334082944,123.871420989476));
#1272=CARTESIAN_POINT('Ctrl Pts',(-2.00118609526278,112.690001749138,123.871420913007));
#1273=CARTESIAN_POINT('Ctrl Pts',(-1.97017155184325,112.873228768478,123.870251328021));
#1274=CARTESIAN_POINT('Ctrl Pts',(-1.84249024358671,113.214998801931,123.871472024897));
#1275=CARTESIAN_POINT('Ctrl Pts',(-1.74582115835353,113.373538033418,123.87457471271));
#1276=CARTESIAN_POINT('Ctrl Pts',(-1.52000559134039,113.63375360404,123.896677963493));
#1277=CARTESIAN_POINT('Ctrl Pts',(-1.37393908442212,113.752635697464,123.917836548872));
#1278=CARTESIAN_POINT('Ctrl Pts',(-1.05355156512282,113.925593786443,123.991480469487));
#1279=CARTESIAN_POINT('Ctrl Pts',(-0.879468051694798,113.979881218013,124.044501153787));
#1280=CARTESIAN_POINT('Ctrl Pts',(-0.717532349325933,114.00348413176,124.10482204515));
#1281=CARTESIAN_POINT('Ctrl Pts',(-0.679081985100919,114.009088458768,124.119144768363));
#1282=CARTESIAN_POINT('Ctrl Pts',(-0.640239634607508,114.013221608624,124.134212581287));
#1283=CARTESIAN_POINT('Ctrl Pts',(-0.601186082227195,114.015830983892,124.149962027685));
#1284=CARTESIAN_POINT('',(-0.601186082227874,114.015830993205,127.812983375852));
#1285=CARTESIAN_POINT('',(-0.601186082228,111.022505083786,127.812983383463));
#1286=CARTESIAN_POINT('Origin',(-0.501186082227717,112.519168002901,113.812983898157));
#1287=CARTESIAN_POINT('',(-0.601186082225638,114.015830964374,116.472879867127));
#1288=CARTESIAN_POINT('',(-0.601186082225759,111.022505054954,116.472879255944));
#1289=CARTESIAN_POINT('Ctrl Pts',(-0.601186082225662,114.015830964374,116.472879867127));
#1290=CARTESIAN_POINT('Ctrl Pts',(-0.64023963091767,114.013221589433,116.48862931205));
#1291=CARTESIAN_POINT('Ctrl Pts',(-0.679081979798786,114.009088440179,116.503697124508));
#1292=CARTESIAN_POINT('Ctrl Pts',(-0.879468051694675,113.979881199031,116.578340741209));
#1293=CARTESIAN_POINT('Ctrl Pts',(-1.0535515651227,113.92559376773,116.631361425785));
#1294=CARTESIAN_POINT('Ctrl Pts',(-1.373939084422,113.752635679126,116.705005347279));
#1295=CARTESIAN_POINT('Ctrl Pts',(-1.52000559134029,113.633753585809,116.726163933262));
#1296=CARTESIAN_POINT('Ctrl Pts',(-1.74582115835342,113.3735380153,116.748267185368));
#1297=CARTESIAN_POINT('Ctrl Pts',(-1.8424902435866,113.214998783829,116.751369873987));
#1298=CARTESIAN_POINT('Ctrl Pts',(-1.97017155184313,112.873228750381,116.752590572601));
#1299=CARTESIAN_POINT('Ctrl Pts',(-2.00118609526266,112.690001731036,116.751420988547));
#1300=CARTESIAN_POINT('Ctrl Pts',(-2.00118606919344,112.348334064842,116.751420913815));
#1301=CARTESIAN_POINT('Ctrl Pts',(-1.9701714991528,112.165107053846,116.752590417575));
#1302=CARTESIAN_POINT('Ctrl Pts',(-1.84249014423865,111.823337046471,116.751369564786));
#1303=CARTESIAN_POINT('Ctrl Pts',(-1.74582103893579,111.664797833059,116.748266802039));
#1304=CARTESIAN_POINT('Ctrl Pts',(-1.52000543836273,111.404582294012,116.726163425575));
#1305=CARTESIAN_POINT('Ctrl Pts',(-1.37393891123897,111.285700218237,116.705004779829));
#1306=CARTESIAN_POINT('Ctrl Pts',(-1.05355135989851,111.11274217127,116.631360769708));
#1307=CARTESIAN_POINT('Ctrl Pts',(-0.879467834688215,111.058454763967,116.578340056685));
#1308=CARTESIAN_POINT('Ctrl Pts',(-0.717532122819472,111.034851874072,116.518019151908));
#1309=CARTESIAN_POINT('Ctrl Pts',(-0.679081833112169,111.029247563917,116.503696454108));
#1310=CARTESIAN_POINT('Ctrl Pts',(-0.640239558452064,111.025114425134,116.488628670171));
#1311=CARTESIAN_POINT('Ctrl Pts',(-0.601186082225903,111.022505054954,116.472879255944));
#1312=CARTESIAN_POINT('',(-0.601186082225434,111.022505048192,113.812983901962));
#1313=CARTESIAN_POINT('',(-0.601186082225307,114.015830957611,113.812983894352));
#1314=CARTESIAN_POINT('Origin',(-0.900843637238118,111.019167977064,112.039444166852));
#1315=CARTESIAN_POINT('',(-0.601186082227329,111.019168023245,124.148659853375));
#1316=CARTESIAN_POINT('Ctrl Pts',(-7.10118608224986,111.019168009708,120.557189846452));
#1317=CARTESIAN_POINT('Ctrl Pts',(-6.8927915210855,111.019168011674,121.072730646477));
#1318=CARTESIAN_POINT('Ctrl Pts',(-4.24272223377446,111.01916801744,122.584709360544));
#1319=CARTESIAN_POINT('Ctrl Pts',(-0.601186072647676,111.019168023405,124.148659831069));
#1320=CARTESIAN_POINT('',(-0.601186082224476,111.019167993977,116.474182060488));
#1321=CARTESIAN_POINT('',(-0.601186082225913,111.019167993794,116.426214047901));
#1322=CARTESIAN_POINT('Ctrl Pts',(-0.601186072702695,111.019167994136,116.474182082659));
#1323=CARTESIAN_POINT('Ctrl Pts',(-2.66758332079177,111.019167997521,117.361649021183));
#1324=CARTESIAN_POINT('Ctrl Pts',(-5.92975484891541,111.019168003425,118.909800985112));
#1325=CARTESIAN_POINT('Ctrl Pts',(-6.99188136478133,111.019168006802,119.795246538546));
#1326=CARTESIAN_POINT('Ctrl Pts',(-7.1011860822498,111.019168007834,120.065652067248));
#1327=CARTESIAN_POINT('Origin',(-0.601186082226807,108.894167611115,120.812983937055));
#1328=CARTESIAN_POINT('',(-0.601186082225795,114.019167993977,116.474182660978));
#1329=CARTESIAN_POINT('',(-0.601186082225476,114.019168023245,124.148659230004));
#1330=CARTESIAN_POINT('',(-0.601186082226119,114.019168000711,118.240015402282));
#1331=CARTESIAN_POINT('Origin',(-0.601186082226539,112.519167225904,120.311420951211));
#1332=CARTESIAN_POINT('Origin',(-0.601186082226539,112.519167225904,120.311420951211));
#1333=CARTESIAN_POINT('Origin',(-2.40118608230339,114.019167990899,115.667046887054));
#1334=CARTESIAN_POINT('Ctrl Pts',(-0.601186072590034,114.019167993837,116.474182683414));
#1335=CARTESIAN_POINT('Ctrl Pts',(-2.66757331356381,114.019167997222,117.361645465642));
#1336=CARTESIAN_POINT('Ctrl Pts',(-5.92974472111019,114.019168003126,118.909796842901));
#1337=CARTESIAN_POINT('Ctrl Pts',(-6.99188323163721,114.019168006503,119.795250187669));
#1338=CARTESIAN_POINT('Ctrl Pts',(-7.10118608224984,114.019168007535,120.065661610512));
#1339=CARTESIAN_POINT('Ctrl Pts',(-7.1011860822499,114.019168009409,120.557180280664));
#1340=CARTESIAN_POINT('Ctrl Pts',(-6.89279818920922,114.019168011375,121.072724626896));
#1341=CARTESIAN_POINT('Ctrl Pts',(-4.2427219051739,114.019168017141,122.584708628954));
#1342=CARTESIAN_POINT('Ctrl Pts',(-0.60118607266252,114.019168023105,124.148659207738));
#1343=CARTESIAN_POINT('Origin',(-4.90118608230353,112.519167225904,120.311420951211));
#1344=CARTESIAN_POINT('Origin',(-0.601186082226539,112.519167225904,120.311420951211));
#1345=CARTESIAN_POINT('Origin',(-4.90118608230353,112.519167225904,120.311420951211));
#1346=CARTESIAN_POINT('Origin',(-0.601186082226539,112.519167225904,120.311420951211));
#1347=CARTESIAN_POINT('Origin',(-0.601186082225399,108.894167526358,67.9326178952862));
#1348=CARTESIAN_POINT('Origin',(-6.63818608225437,108.16916814744,117.712982953225));
#1349=CARTESIAN_POINT('',(-6.63818608225444,109.41916814744,117.712982953225));
#1350=CARTESIAN_POINT('Origin',(-6.63818608225437,108.16916814744,117.712982953225));
#1351=CARTESIAN_POINT('Origin',(-6.63818608225437,108.16916814744,122.712982953225));
#1352=CARTESIAN_POINT('',(-6.63818608225444,109.41916814744,122.712982953225));
#1353=CARTESIAN_POINT('Origin',(-3.30118608224612,105.625168418076,93.5250922057237));
#1354=UNCERTAINTY_MEASURE_WITH_UNIT(LENGTH_MEASURE(0.01),#1358,
'DISTANCE_ACCURACY_VALUE',
'Maximum model space distance between geometric entities at asserted c
onnectivities');
#1355=UNCERTAINTY_MEASURE_WITH_UNIT(LENGTH_MEASURE(0.01),#1358,
'DISTANCE_ACCURACY_VALUE',
'Maximum model space distance between geometric entities at asserted c
onnectivities');
#1356=(
GEOMETRIC_REPRESENTATION_CONTEXT(3)
GLOBAL_UNCERTAINTY_ASSIGNED_CONTEXT((#1354))
GLOBAL_UNIT_ASSIGNED_CONTEXT((#1358,#1360,#1361))
REPRESENTATION_CONTEXT('','3D')
);
#1357=(
GEOMETRIC_REPRESENTATION_CONTEXT(3)
GLOBAL_UNCERTAINTY_ASSIGNED_CONTEXT((#1355))
GLOBAL_UNIT_ASSIGNED_CONTEXT((#1358,#1360,#1361))
REPRESENTATION_CONTEXT('','3D')
);
#1358=(
LENGTH_UNIT()
NAMED_UNIT(*)
SI_UNIT(.MILLI.,.METRE.)
);
#1359=(
LENGTH_UNIT()
NAMED_UNIT(*)
SI_UNIT($,.METRE.)
);
#1360=(
NAMED_UNIT(*)
PLANE_ANGLE_UNIT()
SI_UNIT($,.RADIAN.)
);
#1361=(
NAMED_UNIT(*)
SI_UNIT($,.STERADIAN.)
SOLID_ANGLE_UNIT()
);
#1362=SHAPE_DEFINITION_REPRESENTATION(#1363,#1364);
#1363=PRODUCT_DEFINITION_SHAPE('',$,#1366);
#1364=SHAPE_REPRESENTATION('',(#802),#1356);
#1365=PRODUCT_DEFINITION_CONTEXT('part definition',#1370,'design');
#1366=PRODUCT_DEFINITION('mount-bottom-left (1)',
'mount-bottom-left (1)',#1367,#1365);
#1367=PRODUCT_DEFINITION_FORMATION('',$,#1372);
#1368=PRODUCT_RELATED_PRODUCT_CATEGORY('mount-bottom-left (1)',
'mount-bottom-left (1)',(#1372));
#1369=APPLICATION_PROTOCOL_DEFINITION('international standard',
'automotive_design',2009,#1370);
#1370=APPLICATION_CONTEXT(
'Core Data for Automotive Mechanical Design Process');
#1371=PRODUCT_CONTEXT('part definition',#1370,'mechanical');
#1372=PRODUCT('mount-bottom-left (1)','mount-bottom-left (1)',$,(#1371));
#1373=PRESENTATION_STYLE_ASSIGNMENT((#1375));
#1374=PRESENTATION_STYLE_ASSIGNMENT((#1376));
#1375=SURFACE_STYLE_USAGE(.BOTH.,#1377);
#1376=SURFACE_STYLE_USAGE(.BOTH.,#1378);
#1377=SURFACE_SIDE_STYLE('',(#1379));
#1378=SURFACE_SIDE_STYLE('',(#1380));
#1379=SURFACE_STYLE_FILL_AREA(#1381);
#1380=SURFACE_STYLE_FILL_AREA(#1382);
#1381=FILL_AREA_STYLE('Steel - Satin',(#1383));
#1382=FILL_AREA_STYLE('ABS (White)',(#1384));
#1383=FILL_AREA_STYLE_COLOUR('Steel - Satin',#1385);
#1384=FILL_AREA_STYLE_COLOUR('ABS (White)',#1386);
#1385=COLOUR_RGB('Steel - Satin',0.627450980392157,0.627450980392157,0.627450980392157);
#1386=COLOUR_RGB('ABS (White)',0.964705882352941,0.964705882352941,0.952941176470588);
ENDSEC;
END-ISO-10303-21;
