ISO-10303-21;
HEADER;
/* Generated by software containing ST-Developer
 * from STEP Tools, Inc. (www.steptools.com) 
 */

FILE_DESCRIPTION(
/* description */ (''),
/* implementation_level */ '2;1');

FILE_NAME(
/* name */ 'rope-right-angle-top.step',
/* time_stamp */ '2026-02-09T10:33:52-08:00',
/* author */ (''),
/* organization */ (''),
/* preprocessor_version */ 'ST-DEVELOPER v20.1',
/* originating_system */ 'Autodesk Translation Framework v14.24.0.0',
/* authorisation */ '');

FILE_SCHEMA (('AUTOMOTIVE_DESIGN { 1 0 10303 214 3 1 1 }'));
ENDSEC;

DATA;
#10=MECHANICAL_DESIGN_GEOMETRIC_PRESENTATION_REPRESENTATION('',(#13),#1623);
#11=SHAPE_REPRESENTATION_RELATIONSHIP('SRR','None',#1630,#12);
#12=ADVANCED_BREP_SHAPE_REPRESENTATION('',(#14),#1622);
#13=STYLED_ITEM('',(#1640),#14);
#14=MANIFOLD_SOLID_BREP('Body1',#845);
#15=FACE_BOUND('',#258,.T.);
#16=FACE_BOUND('',#273,.T.);
#17=FACE_BOUND('',#282,.T.);
#18=FACE_BOUND('',#283,.T.);
#19=FACE_BOUND('',#296,.T.);
#20=PLANE('',#882);
#21=PLANE('',#884);
#22=PLANE('',#892);
#23=PLANE('',#898);
#24=PLANE('',#903);
#25=PLANE('',#906);
#26=PLANE('',#910);
#27=PLANE('',#912);
#28=PLANE('',#913);
#29=PLANE('',#918);
#30=PLANE('',#919);
#31=PLANE('',#920);
#32=PLANE('',#921);
#33=PLANE('',#922);
#34=PLANE('',#923);
#35=PLANE('',#924);
#36=PLANE('',#925);
#37=PLANE('',#931);
#38=PLANE('',#933);
#39=PLANE('',#938);
#40=PLANE('',#940);
#41=PLANE('',#941);
#42=PLANE('',#942);
#43=LINE('',#1263,#115);
#44=LINE('',#1339,#116);
#45=LINE('',#1416,#117);
#46=LINE('',#1433,#118);
#47=LINE('',#1436,#119);
#48=LINE('',#1439,#120);
#49=LINE('',#1441,#121);
#50=LINE('',#1443,#122);
#51=LINE('',#1445,#123);
#52=LINE('',#1447,#124);
#53=LINE('',#1449,#125);
#54=LINE('',#1450,#126);
#55=LINE('',#1455,#127);
#56=LINE('',#1457,#128);
#57=LINE('',#1461,#129);
#58=LINE('',#1463,#130);
#59=LINE('',#1467,#131);
#60=LINE('',#1471,#132);
#61=LINE('',#1475,#133);
#62=LINE('',#1479,#134);
#63=LINE('',#1482,#135);
#64=LINE('',#1485,#136);
#65=LINE('',#1489,#137);
#66=LINE('',#1493,#138);
#67=LINE('',#1494,#139);
#68=LINE('',#1499,#140);
#69=LINE('',#1503,#141);
#70=LINE('',#1505,#142);
#71=LINE('',#1507,#143);
#72=LINE('',#1508,#144);
#73=LINE('',#1510,#145);
#74=LINE('',#1511,#146);
#75=LINE('',#1516,#147);
#76=LINE('',#1520,#148);
#77=LINE('',#1521,#149);
#78=LINE('',#1524,#150);
#79=LINE('',#1529,#151);
#80=LINE('',#1531,#152);
#81=LINE('',#1532,#153);
#82=LINE('',#1534,#154);
#83=LINE('',#1536,#155);
#84=LINE('',#1537,#156);
#85=LINE('',#1542,#157);
#86=LINE('',#1545,#158);
#87=LINE('',#1547,#159);
#88=LINE('',#1550,#160);
#89=LINE('',#1552,#161);
#90=LINE('',#1559,#162);
#91=LINE('',#1561,#163);
#92=LINE('',#1564,#164);
#93=LINE('',#1565,#165);
#94=LINE('',#1568,#166);
#95=LINE('',#1569,#167);
#96=LINE('',#1571,#168);
#97=LINE('',#1574,#169);
#98=LINE('',#1575,#170);
#99=LINE('',#1576,#171);
#100=LINE('',#1578,#172);
#101=LINE('',#1580,#173);
#102=LINE('',#1581,#174);
#103=LINE('',#1583,#175);
#104=LINE('',#1586,#176);
#105=LINE('',#1588,#177);
#106=LINE('',#1589,#178);
#107=LINE('',#1590,#179);
#108=LINE('',#1595,#180);
#109=LINE('',#1600,#181);
#110=LINE('',#1602,#182);
#111=LINE('',#1606,#183);
#112=LINE('',#1609,#184);
#113=LINE('',#1612,#185);
#114=LINE('',#1615,#186);
#115=VECTOR('',#963,1.7);
#116=VECTOR('',#968,1.7);
#117=VECTOR('',#971,10.);
#118=VECTOR('',#992,10.);
#119=VECTOR('',#995,10.);
#120=VECTOR('',#998,10.);
#121=VECTOR('',#999,10.);
#122=VECTOR('',#1000,10.);
#123=VECTOR('',#1001,10.);
#124=VECTOR('',#1002,10.);
#125=VECTOR('',#1003,10.);
#126=VECTOR('',#1004,10.);
#127=VECTOR('',#1009,10.);
#128=VECTOR('',#1010,10.);
#129=VECTOR('',#1013,10.);
#130=VECTOR('',#1014,10.);
#131=VECTOR('',#1017,10.);
#132=VECTOR('',#1020,10.);
#133=VECTOR('',#1023,10.);
#134=VECTOR('',#1028,10.);
#135=VECTOR('',#1031,10.);
#136=VECTOR('',#1034,10.);
#137=VECTOR('',#1037,10.);
#138=VECTOR('',#1040,10.);
#139=VECTOR('',#1041,10.);
#140=VECTOR('',#1046,10.);
#141=VECTOR('',#1051,10.);
#142=VECTOR('',#1052,10.);
#143=VECTOR('',#1053,10.);
#144=VECTOR('',#1054,10.);
#145=VECTOR('',#1055,10.);
#146=VECTOR('',#1056,10.);
#147=VECTOR('',#1063,10.);
#148=VECTOR('',#1068,10.);
#149=VECTOR('',#1069,10.);
#150=VECTOR('',#1072,10.);
#151=VECTOR('',#1077,10.);
#152=VECTOR('',#1078,10.);
#153=VECTOR('',#1079,10.);
#154=VECTOR('',#1080,10.);
#155=VECTOR('',#1081,10.);
#156=VECTOR('',#1082,10.);
#157=VECTOR('',#1087,10.);
#158=VECTOR('',#1092,10.);
#159=VECTOR('',#1093,10.);
#160=VECTOR('',#1096,10.);
#161=VECTOR('',#1099,10.);
#162=VECTOR('',#1108,3.05);
#163=VECTOR('',#1111,10.);
#164=VECTOR('',#1114,10.);
#165=VECTOR('',#1115,10.);
#166=VECTOR('',#1118,10.);
#167=VECTOR('',#1119,10.);
#168=VECTOR('',#1122,10.);
#169=VECTOR('',#1125,10.);
#170=VECTOR('',#1126,10.);
#171=VECTOR('',#1127,10.);
#172=VECTOR('',#1130,10.);
#173=VECTOR('',#1131,10.);
#174=VECTOR('',#1132,10.);
#175=VECTOR('',#1135,10.);
#176=VECTOR('',#1138,10.);
#177=VECTOR('',#1139,10.);
#178=VECTOR('',#1140,10.);
#179=VECTOR('',#1141,10.);
#180=VECTOR('',#1148,3.05);
#181=VECTOR('',#1155,10.);
#182=VECTOR('',#1158,10.);
#183=VECTOR('',#1163,10.);
#184=VECTOR('',#1168,10.);
#185=VECTOR('',#1171,10.);
#186=VECTOR('',#1176,10.);
#187=CYLINDRICAL_SURFACE('',#866,1.7);
#188=CYLINDRICAL_SURFACE('',#868,1.7);
#189=CYLINDRICAL_SURFACE('',#870,44.);
#190=CYLINDRICAL_SURFACE('',#872,44.);
#191=CYLINDRICAL_SURFACE('',#879,1.);
#192=CYLINDRICAL_SURFACE('',#890,1.);
#193=CYLINDRICAL_SURFACE('',#895,1.);
#194=CYLINDRICAL_SURFACE('',#899,1.);
#195=CYLINDRICAL_SURFACE('',#901,1.);
#196=CYLINDRICAL_SURFACE('',#904,1.);
#197=CYLINDRICAL_SURFACE('',#907,2.00000000000075);
#198=CYLINDRICAL_SURFACE('',#915,3.05);
#199=CYLINDRICAL_SURFACE('',#917,44.);
#200=CYLINDRICAL_SURFACE('',#927,3.05);
#201=CYLINDRICAL_SURFACE('',#929,2.00000000000002);
#202=CYLINDRICAL_SURFACE('',#932,44.);
#203=CYLINDRICAL_SURFACE('',#935,2.);
#204=CYLINDRICAL_SURFACE('',#936,1.99999999999999);
#205=CYLINDRICAL_SURFACE('',#939,44.);
#206=FACE_OUTER_BOUND('',#250,.T.);
#207=FACE_OUTER_BOUND('',#251,.T.);
#208=FACE_OUTER_BOUND('',#252,.T.);
#209=FACE_OUTER_BOUND('',#253,.T.);
#210=FACE_OUTER_BOUND('',#254,.T.);
#211=FACE_OUTER_BOUND('',#255,.T.);
#212=FACE_OUTER_BOUND('',#256,.T.);
#213=FACE_OUTER_BOUND('',#257,.T.);
#214=FACE_OUTER_BOUND('',#259,.T.);
#215=FACE_OUTER_BOUND('',#260,.T.);
#216=FACE_OUTER_BOUND('',#261,.T.);
#217=FACE_OUTER_BOUND('',#262,.T.);
#218=FACE_OUTER_BOUND('',#263,.T.);
#219=FACE_OUTER_BOUND('',#264,.T.);
#220=FACE_OUTER_BOUND('',#265,.T.);
#221=FACE_OUTER_BOUND('',#266,.T.);
#222=FACE_OUTER_BOUND('',#267,.T.);
#223=FACE_OUTER_BOUND('',#268,.T.);
#224=FACE_OUTER_BOUND('',#269,.T.);
#225=FACE_OUTER_BOUND('',#270,.T.);
#226=FACE_OUTER_BOUND('',#271,.T.);
#227=FACE_OUTER_BOUND('',#272,.T.);
#228=FACE_OUTER_BOUND('',#274,.T.);
#229=FACE_OUTER_BOUND('',#275,.T.);
#230=FACE_OUTER_BOUND('',#276,.T.);
#231=FACE_OUTER_BOUND('',#277,.T.);
#232=FACE_OUTER_BOUND('',#278,.T.);
#233=FACE_OUTER_BOUND('',#279,.T.);
#234=FACE_OUTER_BOUND('',#280,.T.);
#235=FACE_OUTER_BOUND('',#281,.T.);
#236=FACE_OUTER_BOUND('',#284,.T.);
#237=FACE_OUTER_BOUND('',#285,.T.);
#238=FACE_OUTER_BOUND('',#286,.T.);
#239=FACE_OUTER_BOUND('',#287,.T.);
#240=FACE_OUTER_BOUND('',#288,.T.);
#241=FACE_OUTER_BOUND('',#289,.T.);
#242=FACE_OUTER_BOUND('',#290,.T.);
#243=FACE_OUTER_BOUND('',#291,.T.);
#244=FACE_OUTER_BOUND('',#292,.T.);
#245=FACE_OUTER_BOUND('',#293,.T.);
#246=FACE_OUTER_BOUND('',#294,.T.);
#247=FACE_OUTER_BOUND('',#295,.T.);
#248=FACE_OUTER_BOUND('',#297,.T.);
#249=FACE_OUTER_BOUND('',#298,.T.);
#250=EDGE_LOOP('',(#553,#554,#555,#556,#557,#558,#559,#560));
#251=EDGE_LOOP('',(#561,#562,#563,#564,#565,#566,#567,#568));
#252=EDGE_LOOP('',(#569,#570,#571,#572,#573,#574,#575,#576,#577));
#253=EDGE_LOOP('',(#578,#579,#580,#581));
#254=EDGE_LOOP('',(#582,#583,#584,#585,#586));
#255=EDGE_LOOP('',(#587,#588,#589,#590,#591,#592,#593,#594,#595));
#256=EDGE_LOOP('',(#596,#597,#598,#599));
#257=EDGE_LOOP('',(#600,#601,#602,#603,#604,#605,#606,#607));
#258=EDGE_LOOP('',(#608));
#259=EDGE_LOOP('',(#609,#610,#611,#612,#613,#614,#615,#616,#617,#618,#619,
#620,#621,#622));
#260=EDGE_LOOP('',(#623,#624,#625,#626));
#261=EDGE_LOOP('',(#627,#628,#629,#630,#631,#632,#633,#634));
#262=EDGE_LOOP('',(#635,#636,#637,#638));
#263=EDGE_LOOP('',(#639,#640,#641,#642,#643,#644,#645,#646));
#264=EDGE_LOOP('',(#647,#648,#649,#650));
#265=EDGE_LOOP('',(#651,#652,#653,#654));
#266=EDGE_LOOP('',(#655,#656,#657,#658));
#267=EDGE_LOOP('',(#659,#660,#661,#662));
#268=EDGE_LOOP('',(#663,#664,#665,#666,#667,#668));
#269=EDGE_LOOP('',(#669,#670,#671,#672));
#270=EDGE_LOOP('',(#673,#674,#675,#676,#677,#678,#679,#680));
#271=EDGE_LOOP('',(#681,#682,#683,#684,#685));
#272=EDGE_LOOP('',(#686));
#273=EDGE_LOOP('',(#687));
#274=EDGE_LOOP('',(#688,#689,#690,#691));
#275=EDGE_LOOP('',(#692,#693,#694,#695,#696));
#276=EDGE_LOOP('',(#697,#698,#699,#700,#701));
#277=EDGE_LOOP('',(#702,#703,#704,#705));
#278=EDGE_LOOP('',(#706,#707,#708,#709,#710));
#279=EDGE_LOOP('',(#711,#712,#713,#714,#715));
#280=EDGE_LOOP('',(#716,#717,#718,#719,#720));
#281=EDGE_LOOP('',(#721,#722,#723,#724));
#282=EDGE_LOOP('',(#725));
#283=EDGE_LOOP('',(#726,#727,#728,#729));
#284=EDGE_LOOP('',(#730,#731,#732,#733,#734));
#285=EDGE_LOOP('',(#735,#736,#737,#738,#739,#740,#741,#742,#743,#744,#745,
#746,#747,#748));
#286=EDGE_LOOP('',(#749,#750,#751,#752));
#287=EDGE_LOOP('',(#753,#754,#755,#756));
#288=EDGE_LOOP('',(#757,#758,#759,#760));
#289=EDGE_LOOP('',(#761,#762,#763,#764));
#290=EDGE_LOOP('',(#765,#766,#767,#768));
#291=EDGE_LOOP('',(#769,#770,#771,#772));
#292=EDGE_LOOP('',(#773,#774,#775,#776));
#293=EDGE_LOOP('',(#777,#778,#779,#780));
#294=EDGE_LOOP('',(#781,#782,#783,#784));
#295=EDGE_LOOP('',(#785));
#296=EDGE_LOOP('',(#786));
#297=EDGE_LOOP('',(#787,#788,#789,#790,#791,#792));
#298=EDGE_LOOP('',(#793,#794,#795,#796,#797,#798));
#299=B_SPLINE_CURVE_WITH_KNOTS('',3,(#1199,#1200,#1201,#1202,#1203,#1204,
#1205,#1206,#1207,#1208,#1209,#1210,#1211,#1212,#1213,#1214,#1215,#1216,
#1217,#1218,#1219,#1220,#1221,#1222,#1223,#1224,#1225,#1226,#1227,#1228),
 .UNSPECIFIED.,.F.,.F.,(4,2,2,2,2,2,2,2,2,2,2,2,2,2,4),(0.0900870400630484,
0.0917104068454133,0.121253609855488,0.146344260961059,0.162969252338527,
0.168984311370528,0.172745965124139,0.176161466561614,0.180493416488863,
0.188472911434604,0.197491437944684,0.207391844149169,0.219881829419706,
0.237795522085835,0.24763213747302),.UNSPECIFIED.);
#300=B_SPLINE_CURVE_WITH_KNOTS('',3,(#1231,#1232,#1233,#1234,#1235,#1236,
#1237,#1238,#1239,#1240,#1241,#1242,#1243,#1244,#1245,#1246,#1247,#1248,
#1249,#1250,#1251,#1252,#1253,#1254,#1255,#1256,#1257,#1258),
 .UNSPECIFIED.,.F.,.F.,(4,2,2,2,2,2,2,2,2,2,2,2,2,4),(0.0602642330080201,
0.0741435426712735,0.0915582792674117,0.104636451069311,0.115630316405418,
0.125768145776822,0.13069041355502,0.134316890531145,0.138072682137995,
0.143623839005446,0.155702217376557,0.184301390252963,0.211378450450252,
0.218539484303141),.UNSPECIFIED.);
#301=B_SPLINE_CURVE_WITH_KNOTS('',3,(#1264,#1265,#1266,#1267,#1268,#1269,
#1270,#1271,#1272,#1273),.UNSPECIFIED.,.F.,.F.,(4,2,2,2,4),(0.8329171478413,
0.857902923831515,0.925283753531064,0.989118741767856,1.05295373000465),
 .UNSPECIFIED.);
#302=B_SPLINE_CURVE_WITH_KNOTS('',3,(#1275,#1276,#1277,#1278,#1279,#1280,
#1281,#1282,#1283,#1284,#1285,#1286,#1287,#1288,#1289,#1290,#1291,#1292),
 .UNSPECIFIED.,.F.,.F.,(4,2,2,2,2,2,2,2,4),(0.304611973408781,0.329500345581678,
0.396566666392165,0.461523842374033,0.5264810183559,0.590397324878792,0.654313631401683,
0.722417862766825,0.747980656086966),.UNSPECIFIED.);
#303=B_SPLINE_CURVE_WITH_KNOTS('',3,(#1294,#1295,#1296,#1297,#1298,#1299,
#1300,#1301,#1302,#1303,#1304,#1305,#1306,#1307,#1308,#1309,#1310,#1311,
#1312,#1313,#1314,#1315,#1316,#1317,#1318,#1319,#1320,#1321,#1322,#1323,
#1324),.UNSPECIFIED.,.F.,.F.,(4,2,2,2,3,2,2,2,2,2,2,2,2,2,4),(0.251781167573865,
0.268645072094587,0.289700424739861,0.302305811213298,0.318462386183535,
0.329263291572017,0.333958691973891,0.337319789641281,0.34071847607553,
0.345592481054567,0.355105381868089,0.363945967359122,0.374238731373958,
0.387999796235919,0.407817253944017),.UNSPECIFIED.);
#304=B_SPLINE_CURVE_WITH_KNOTS('',3,(#1325,#1326,#1327,#1328,#1329,#1330,
#1331,#1332,#1333,#1334),.UNSPECIFIED.,.F.,.F.,(4,2,2,2,4),(0.,0.0646310074406795,
0.129262014881359,0.195848019826275,0.220392705394373),.UNSPECIFIED.);
#305=B_SPLINE_CURVE_WITH_KNOTS('',3,(#1341,#1342,#1343,#1344,#1345,#1346,
#1347,#1348,#1349,#1350,#1351,#1352,#1353,#1354,#1355),.UNSPECIFIED.,.F.,
 .F.,(4,2,2,3,2,2,4),(0.288394352849193,0.29176374655996,0.297199171267024,
0.306383596930085,0.331690506847044,0.356322421016232,0.366231214502415),
 .UNSPECIFIED.);
#306=B_SPLINE_CURVE_WITH_KNOTS('',3,(#1357,#1358,#1359,#1360,#1361,#1362,
#1363,#1364,#1365,#1366),.UNSPECIFIED.,.F.,.F.,(4,2,2,2,4),(0.831386587532961,
0.857299855009842,0.925449053045674,0.98936392911713,1.05327880518858),
 .UNSPECIFIED.);
#307=B_SPLINE_CURVE_WITH_KNOTS('',3,(#1367,#1368,#1369,#1370,#1371,#1372,
#1373,#1374,#1375,#1376),.UNSPECIFIED.,.F.,.F.,(4,2,2,2,4),(0.,0.0649671361730971,
0.129934272346194,0.197034233892053,0.221602384263113),.UNSPECIFIED.);
#308=B_SPLINE_CURVE_WITH_KNOTS('',3,(#1378,#1379,#1380,#1381,#1382,#1383,
#1384,#1385,#1386,#1387,#1388,#1389,#1390,#1391,#1392,#1393,#1394,#1395),
 .UNSPECIFIED.,.F.,.F.,(4,2,2,2,2,2,2,2,4),(0.306526435792815,0.330750401804465,
0.39736660817102,0.462005129131699,0.526643650092379,0.590476527426527,
0.654309404760675,0.721730030867342,0.747060068807072),.UNSPECIFIED.);
#309=B_SPLINE_CURVE_WITH_KNOTS('',3,(#1396,#1397,#1398,#1399,#1400,#1401,
#1402,#1403,#1404,#1405,#1406,#1407,#1408,#1409,#1410,#1411,#1412,#1413),
 .UNSPECIFIED.,.F.,.F.,(4,2,2,2,2,2,2,2,4),(0.216440234090321,0.234695136480796,
0.250671551024347,0.262277626715502,0.272353229023287,0.280682207177714,
0.284932536190037,0.288233709910522,0.288394352849193),.UNSPECIFIED.);
#310=CIRCLE('',#860,44.);
#311=CIRCLE('',#861,2.7);
#312=CIRCLE('',#862,44.);
#313=CIRCLE('',#863,2.7);
#314=CIRCLE('',#864,44.);
#315=CIRCLE('',#865,44.);
#316=CIRCLE('',#867,1.7);
#317=CIRCLE('',#869,1.7);
#318=CIRCLE('',#871,44.);
#319=CIRCLE('',#873,44.);
#320=CIRCLE('',#875,2.7);
#321=CIRCLE('',#876,44.);
#322=CIRCLE('',#877,2.7);
#323=CIRCLE('',#878,44.);
#324=CIRCLE('',#880,1.);
#325=CIRCLE('',#881,1.);
#326=CIRCLE('',#883,3.05);
#327=CIRCLE('',#885,44.);
#328=CIRCLE('',#886,1.);
#329=CIRCLE('',#887,1.);
#330=CIRCLE('',#888,1.);
#331=CIRCLE('',#889,1.);
#332=CIRCLE('',#891,1.);
#333=CIRCLE('',#893,2.);
#334=CIRCLE('',#894,1.99999999999999);
#335=CIRCLE('',#896,1.);
#336=CIRCLE('',#897,1.);
#337=CIRCLE('',#900,1.);
#338=CIRCLE('',#902,1.);
#339=CIRCLE('',#905,1.);
#340=CIRCLE('',#908,2.00000000000075);
#341=CIRCLE('',#909,2.00000000000075);
#342=CIRCLE('',#911,2.00000000000002);
#343=CIRCLE('',#914,3.05);
#344=CIRCLE('',#916,3.05);
#345=CIRCLE('',#926,44.);
#346=CIRCLE('',#928,3.05);
#347=CIRCLE('',#930,2.00000000000002);
#348=CIRCLE('',#934,2.);
#349=CIRCLE('',#937,1.99999999999999);
#350=VERTEX_POINT('',#1187);
#351=VERTEX_POINT('',#1188);
#352=VERTEX_POINT('',#1190);
#353=VERTEX_POINT('',#1192);
#354=VERTEX_POINT('',#1194);
#355=VERTEX_POINT('',#1196);
#356=VERTEX_POINT('',#1198);
#357=VERTEX_POINT('',#1229);
#358=VERTEX_POINT('',#1260);
#359=VERTEX_POINT('',#1262);
#360=VERTEX_POINT('',#1274);
#361=VERTEX_POINT('',#1293);
#362=VERTEX_POINT('',#1336);
#363=VERTEX_POINT('',#1338);
#364=VERTEX_POINT('',#1340);
#365=VERTEX_POINT('',#1356);
#366=VERTEX_POINT('',#1377);
#367=VERTEX_POINT('',#1415);
#368=VERTEX_POINT('',#1421);
#369=VERTEX_POINT('',#1423);
#370=VERTEX_POINT('',#1425);
#371=VERTEX_POINT('',#1429);
#372=VERTEX_POINT('',#1430);
#373=VERTEX_POINT('',#1432);
#374=VERTEX_POINT('',#1434);
#375=VERTEX_POINT('',#1438);
#376=VERTEX_POINT('',#1440);
#377=VERTEX_POINT('',#1442);
#378=VERTEX_POINT('',#1444);
#379=VERTEX_POINT('',#1446);
#380=VERTEX_POINT('',#1448);
#381=VERTEX_POINT('',#1451);
#382=VERTEX_POINT('',#1454);
#383=VERTEX_POINT('',#1456);
#384=VERTEX_POINT('',#1458);
#385=VERTEX_POINT('',#1460);
#386=VERTEX_POINT('',#1462);
#387=VERTEX_POINT('',#1464);
#388=VERTEX_POINT('',#1466);
#389=VERTEX_POINT('',#1468);
#390=VERTEX_POINT('',#1470);
#391=VERTEX_POINT('',#1472);
#392=VERTEX_POINT('',#1474);
#393=VERTEX_POINT('',#1478);
#394=VERTEX_POINT('',#1480);
#395=VERTEX_POINT('',#1484);
#396=VERTEX_POINT('',#1486);
#397=VERTEX_POINT('',#1488);
#398=VERTEX_POINT('',#1490);
#399=VERTEX_POINT('',#1492);
#400=VERTEX_POINT('',#1496);
#401=VERTEX_POINT('',#1498);
#402=VERTEX_POINT('',#1502);
#403=VERTEX_POINT('',#1504);
#404=VERTEX_POINT('',#1506);
#405=VERTEX_POINT('',#1509);
#406=VERTEX_POINT('',#1515);
#407=VERTEX_POINT('',#1519);
#408=VERTEX_POINT('',#1523);
#409=VERTEX_POINT('',#1527);
#410=VERTEX_POINT('',#1528);
#411=VERTEX_POINT('',#1530);
#412=VERTEX_POINT('',#1533);
#413=VERTEX_POINT('',#1535);
#414=VERTEX_POINT('',#1539);
#415=VERTEX_POINT('',#1541);
#416=VERTEX_POINT('',#1546);
#417=VERTEX_POINT('',#1548);
#418=VERTEX_POINT('',#1554);
#419=VERTEX_POINT('',#1557);
#420=VERTEX_POINT('',#1563);
#421=VERTEX_POINT('',#1567);
#422=VERTEX_POINT('',#1573);
#423=VERTEX_POINT('',#1579);
#424=VERTEX_POINT('',#1585);
#425=VERTEX_POINT('',#1587);
#426=VERTEX_POINT('',#1594);
#427=VERTEX_POINT('',#1598);
#428=VERTEX_POINT('',#1605);
#429=VERTEX_POINT('',#1611);
#430=EDGE_CURVE('',#350,#351,#310,.T.);
#431=EDGE_CURVE('',#350,#352,#311,.F.);
#432=EDGE_CURVE('',#353,#352,#312,.T.);
#433=EDGE_CURVE('',#353,#354,#313,.T.);
#434=EDGE_CURVE('',#355,#354,#314,.T.);
#435=EDGE_CURVE('',#356,#355,#299,.T.);
#436=EDGE_CURVE('',#357,#356,#315,.T.);
#437=EDGE_CURVE('',#351,#357,#300,.T.);
#438=EDGE_CURVE('',#358,#358,#316,.T.);
#439=EDGE_CURVE('',#358,#359,#43,.T.);
#440=EDGE_CURVE('',#351,#359,#301,.T.);
#441=EDGE_CURVE('',#360,#357,#302,.T.);
#442=EDGE_CURVE('',#360,#361,#303,.T.);
#443=EDGE_CURVE('',#359,#361,#304,.T.);
#444=EDGE_CURVE('',#362,#362,#317,.T.);
#445=EDGE_CURVE('',#362,#363,#44,.T.);
#446=EDGE_CURVE('',#363,#364,#305,.T.);
#447=EDGE_CURVE('',#365,#364,#306,.F.);
#448=EDGE_CURVE('',#356,#365,#307,.F.);
#449=EDGE_CURVE('',#366,#355,#308,.F.);
#450=EDGE_CURVE('',#366,#363,#309,.T.);
#451=EDGE_CURVE('',#367,#354,#45,.T.);
#452=EDGE_CURVE('',#367,#366,#318,.T.);
#453=EDGE_CURVE('',#364,#360,#319,.T.);
#454=EDGE_CURVE('',#367,#368,#320,.T.);
#455=EDGE_CURVE('',#369,#368,#321,.T.);
#456=EDGE_CURVE('',#369,#370,#322,.F.);
#457=EDGE_CURVE('',#361,#370,#323,.T.);
#458=EDGE_CURVE('',#371,#372,#324,.T.);
#459=EDGE_CURVE('',#372,#373,#46,.T.);
#460=EDGE_CURVE('',#373,#374,#325,.T.);
#461=EDGE_CURVE('',#374,#371,#47,.T.);
#462=EDGE_CURVE('',#375,#374,#48,.T.);
#463=EDGE_CURVE('',#376,#375,#49,.T.);
#464=EDGE_CURVE('',#376,#377,#50,.T.);
#465=EDGE_CURVE('',#377,#378,#51,.T.);
#466=EDGE_CURVE('',#378,#379,#52,.T.);
#467=EDGE_CURVE('',#380,#379,#53,.T.);
#468=EDGE_CURVE('',#371,#380,#54,.T.);
#469=EDGE_CURVE('',#381,#381,#326,.T.);
#470=EDGE_CURVE('',#382,#373,#55,.T.);
#471=EDGE_CURVE('',#383,#382,#56,.T.);
#472=EDGE_CURVE('',#383,#384,#327,.T.);
#473=EDGE_CURVE('',#384,#385,#57,.T.);
#474=EDGE_CURVE('',#386,#385,#58,.T.);
#475=EDGE_CURVE('',#387,#386,#328,.T.);
#476=EDGE_CURVE('',#388,#387,#59,.T.);
#477=EDGE_CURVE('',#389,#388,#329,.T.);
#478=EDGE_CURVE('',#390,#389,#60,.T.);
#479=EDGE_CURVE('',#391,#390,#330,.T.);
#480=EDGE_CURVE('',#391,#392,#61,.T.);
#481=EDGE_CURVE('',#375,#392,#331,.T.);
#482=EDGE_CURVE('',#386,#393,#62,.T.);
#483=EDGE_CURVE('',#393,#394,#332,.T.);
#484=EDGE_CURVE('',#394,#387,#63,.T.);
#485=EDGE_CURVE('',#385,#395,#64,.T.);
#486=EDGE_CURVE('',#396,#395,#333,.T.);
#487=EDGE_CURVE('',#396,#397,#65,.T.);
#488=EDGE_CURVE('',#398,#397,#334,.T.);
#489=EDGE_CURVE('',#398,#399,#66,.T.);
#490=EDGE_CURVE('',#399,#393,#67,.T.);
#491=EDGE_CURVE('',#379,#400,#335,.T.);
#492=EDGE_CURVE('',#400,#401,#68,.T.);
#493=EDGE_CURVE('',#401,#380,#336,.T.);
#494=EDGE_CURVE('',#402,#400,#69,.T.);
#495=EDGE_CURVE('',#403,#402,#70,.T.);
#496=EDGE_CURVE('',#404,#403,#71,.T.);
#497=EDGE_CURVE('',#392,#404,#72,.T.);
#498=EDGE_CURVE('',#405,#391,#73,.T.);
#499=EDGE_CURVE('',#401,#405,#74,.T.);
#500=EDGE_CURVE('',#404,#376,#337,.T.);
#501=EDGE_CURVE('',#390,#406,#75,.T.);
#502=EDGE_CURVE('',#406,#405,#338,.T.);
#503=EDGE_CURVE('',#407,#389,#76,.T.);
#504=EDGE_CURVE('',#406,#407,#77,.T.);
#505=EDGE_CURVE('',#388,#408,#78,.T.);
#506=EDGE_CURVE('',#408,#407,#339,.T.);
#507=EDGE_CURVE('',#409,#410,#79,.T.);
#508=EDGE_CURVE('',#411,#409,#80,.T.);
#509=EDGE_CURVE('',#411,#368,#81,.T.);
#510=EDGE_CURVE('',#368,#412,#82,.T.);
#511=EDGE_CURVE('',#413,#412,#83,.T.);
#512=EDGE_CURVE('',#410,#413,#84,.T.);
#513=EDGE_CURVE('',#414,#413,#340,.T.);
#514=EDGE_CURVE('',#414,#415,#85,.T.);
#515=EDGE_CURVE('',#410,#415,#341,.T.);
#516=EDGE_CURVE('',#372,#409,#86,.T.);
#517=EDGE_CURVE('',#415,#416,#87,.T.);
#518=EDGE_CURVE('',#416,#417,#342,.T.);
#519=EDGE_CURVE('',#417,#382,#88,.T.);
#520=EDGE_CURVE('',#414,#367,#89,.T.);
#521=EDGE_CURVE('',#418,#418,#343,.T.);
#522=EDGE_CURVE('',#419,#419,#344,.T.);
#523=EDGE_CURVE('',#419,#418,#90,.T.);
#524=EDGE_CURVE('',#350,#370,#91,.T.);
#525=EDGE_CURVE('',#420,#378,#92,.T.);
#526=EDGE_CURVE('',#402,#420,#93,.T.);
#527=EDGE_CURVE('',#421,#420,#94,.T.);
#528=EDGE_CURVE('',#421,#403,#95,.T.);
#529=EDGE_CURVE('',#377,#421,#96,.T.);
#530=EDGE_CURVE('',#422,#353,#97,.T.);
#531=EDGE_CURVE('',#353,#383,#98,.T.);
#532=EDGE_CURVE('',#422,#417,#99,.T.);
#533=EDGE_CURVE('',#384,#352,#100,.T.);
#534=EDGE_CURVE('',#352,#423,#101,.T.);
#535=EDGE_CURVE('',#395,#423,#102,.T.);
#536=EDGE_CURVE('',#408,#394,#103,.T.);
#537=EDGE_CURVE('',#369,#424,#104,.T.);
#538=EDGE_CURVE('',#369,#425,#105,.T.);
#539=EDGE_CURVE('',#425,#399,#106,.T.);
#540=EDGE_CURVE('',#398,#424,#107,.T.);
#541=EDGE_CURVE('',#425,#411,#345,.T.);
#542=EDGE_CURVE('',#381,#426,#108,.T.);
#543=EDGE_CURVE('',#426,#426,#346,.T.);
#544=EDGE_CURVE('',#422,#427,#347,.T.);
#545=EDGE_CURVE('',#427,#416,#109,.T.);
#546=EDGE_CURVE('',#354,#427,#110,.T.);
#547=EDGE_CURVE('',#428,#350,#111,.T.);
#548=EDGE_CURVE('',#428,#423,#348,.T.);
#549=EDGE_CURVE('',#396,#428,#112,.T.);
#550=EDGE_CURVE('',#397,#429,#113,.T.);
#551=EDGE_CURVE('',#424,#429,#349,.T.);
#552=EDGE_CURVE('',#370,#429,#114,.T.);
#553=ORIENTED_EDGE('',*,*,#430,.F.);
#554=ORIENTED_EDGE('',*,*,#431,.T.);
#555=ORIENTED_EDGE('',*,*,#432,.F.);
#556=ORIENTED_EDGE('',*,*,#433,.T.);
#557=ORIENTED_EDGE('',*,*,#434,.F.);
#558=ORIENTED_EDGE('',*,*,#435,.F.);
#559=ORIENTED_EDGE('',*,*,#436,.F.);
#560=ORIENTED_EDGE('',*,*,#437,.F.);
#561=ORIENTED_EDGE('',*,*,#438,.F.);
#562=ORIENTED_EDGE('',*,*,#439,.T.);
#563=ORIENTED_EDGE('',*,*,#440,.F.);
#564=ORIENTED_EDGE('',*,*,#437,.T.);
#565=ORIENTED_EDGE('',*,*,#441,.F.);
#566=ORIENTED_EDGE('',*,*,#442,.T.);
#567=ORIENTED_EDGE('',*,*,#443,.F.);
#568=ORIENTED_EDGE('',*,*,#439,.F.);
#569=ORIENTED_EDGE('',*,*,#444,.F.);
#570=ORIENTED_EDGE('',*,*,#445,.T.);
#571=ORIENTED_EDGE('',*,*,#446,.T.);
#572=ORIENTED_EDGE('',*,*,#447,.F.);
#573=ORIENTED_EDGE('',*,*,#448,.F.);
#574=ORIENTED_EDGE('',*,*,#435,.T.);
#575=ORIENTED_EDGE('',*,*,#449,.F.);
#576=ORIENTED_EDGE('',*,*,#450,.T.);
#577=ORIENTED_EDGE('',*,*,#445,.F.);
#578=ORIENTED_EDGE('',*,*,#434,.T.);
#579=ORIENTED_EDGE('',*,*,#451,.F.);
#580=ORIENTED_EDGE('',*,*,#452,.T.);
#581=ORIENTED_EDGE('',*,*,#449,.T.);
#582=ORIENTED_EDGE('',*,*,#436,.T.);
#583=ORIENTED_EDGE('',*,*,#448,.T.);
#584=ORIENTED_EDGE('',*,*,#447,.T.);
#585=ORIENTED_EDGE('',*,*,#453,.T.);
#586=ORIENTED_EDGE('',*,*,#441,.T.);
#587=ORIENTED_EDGE('',*,*,#452,.F.);
#588=ORIENTED_EDGE('',*,*,#454,.T.);
#589=ORIENTED_EDGE('',*,*,#455,.F.);
#590=ORIENTED_EDGE('',*,*,#456,.T.);
#591=ORIENTED_EDGE('',*,*,#457,.F.);
#592=ORIENTED_EDGE('',*,*,#442,.F.);
#593=ORIENTED_EDGE('',*,*,#453,.F.);
#594=ORIENTED_EDGE('',*,*,#446,.F.);
#595=ORIENTED_EDGE('',*,*,#450,.F.);
#596=ORIENTED_EDGE('',*,*,#458,.T.);
#597=ORIENTED_EDGE('',*,*,#459,.T.);
#598=ORIENTED_EDGE('',*,*,#460,.T.);
#599=ORIENTED_EDGE('',*,*,#461,.T.);
#600=ORIENTED_EDGE('',*,*,#461,.F.);
#601=ORIENTED_EDGE('',*,*,#462,.F.);
#602=ORIENTED_EDGE('',*,*,#463,.F.);
#603=ORIENTED_EDGE('',*,*,#464,.T.);
#604=ORIENTED_EDGE('',*,*,#465,.T.);
#605=ORIENTED_EDGE('',*,*,#466,.T.);
#606=ORIENTED_EDGE('',*,*,#467,.F.);
#607=ORIENTED_EDGE('',*,*,#468,.F.);
#608=ORIENTED_EDGE('',*,*,#469,.T.);
#609=ORIENTED_EDGE('',*,*,#460,.F.);
#610=ORIENTED_EDGE('',*,*,#470,.F.);
#611=ORIENTED_EDGE('',*,*,#471,.F.);
#612=ORIENTED_EDGE('',*,*,#472,.T.);
#613=ORIENTED_EDGE('',*,*,#473,.T.);
#614=ORIENTED_EDGE('',*,*,#474,.F.);
#615=ORIENTED_EDGE('',*,*,#475,.F.);
#616=ORIENTED_EDGE('',*,*,#476,.F.);
#617=ORIENTED_EDGE('',*,*,#477,.F.);
#618=ORIENTED_EDGE('',*,*,#478,.F.);
#619=ORIENTED_EDGE('',*,*,#479,.F.);
#620=ORIENTED_EDGE('',*,*,#480,.T.);
#621=ORIENTED_EDGE('',*,*,#481,.F.);
#622=ORIENTED_EDGE('',*,*,#462,.T.);
#623=ORIENTED_EDGE('',*,*,#475,.T.);
#624=ORIENTED_EDGE('',*,*,#482,.T.);
#625=ORIENTED_EDGE('',*,*,#483,.T.);
#626=ORIENTED_EDGE('',*,*,#484,.T.);
#627=ORIENTED_EDGE('',*,*,#482,.F.);
#628=ORIENTED_EDGE('',*,*,#474,.T.);
#629=ORIENTED_EDGE('',*,*,#485,.T.);
#630=ORIENTED_EDGE('',*,*,#486,.F.);
#631=ORIENTED_EDGE('',*,*,#487,.T.);
#632=ORIENTED_EDGE('',*,*,#488,.F.);
#633=ORIENTED_EDGE('',*,*,#489,.T.);
#634=ORIENTED_EDGE('',*,*,#490,.T.);
#635=ORIENTED_EDGE('',*,*,#491,.T.);
#636=ORIENTED_EDGE('',*,*,#492,.T.);
#637=ORIENTED_EDGE('',*,*,#493,.T.);
#638=ORIENTED_EDGE('',*,*,#467,.T.);
#639=ORIENTED_EDGE('',*,*,#492,.F.);
#640=ORIENTED_EDGE('',*,*,#494,.F.);
#641=ORIENTED_EDGE('',*,*,#495,.F.);
#642=ORIENTED_EDGE('',*,*,#496,.F.);
#643=ORIENTED_EDGE('',*,*,#497,.F.);
#644=ORIENTED_EDGE('',*,*,#480,.F.);
#645=ORIENTED_EDGE('',*,*,#498,.F.);
#646=ORIENTED_EDGE('',*,*,#499,.F.);
#647=ORIENTED_EDGE('',*,*,#500,.T.);
#648=ORIENTED_EDGE('',*,*,#463,.T.);
#649=ORIENTED_EDGE('',*,*,#481,.T.);
#650=ORIENTED_EDGE('',*,*,#497,.T.);
#651=ORIENTED_EDGE('',*,*,#479,.T.);
#652=ORIENTED_EDGE('',*,*,#501,.T.);
#653=ORIENTED_EDGE('',*,*,#502,.T.);
#654=ORIENTED_EDGE('',*,*,#498,.T.);
#655=ORIENTED_EDGE('',*,*,#501,.F.);
#656=ORIENTED_EDGE('',*,*,#478,.T.);
#657=ORIENTED_EDGE('',*,*,#503,.F.);
#658=ORIENTED_EDGE('',*,*,#504,.F.);
#659=ORIENTED_EDGE('',*,*,#477,.T.);
#660=ORIENTED_EDGE('',*,*,#505,.T.);
#661=ORIENTED_EDGE('',*,*,#506,.T.);
#662=ORIENTED_EDGE('',*,*,#503,.T.);
#663=ORIENTED_EDGE('',*,*,#507,.F.);
#664=ORIENTED_EDGE('',*,*,#508,.F.);
#665=ORIENTED_EDGE('',*,*,#509,.T.);
#666=ORIENTED_EDGE('',*,*,#510,.T.);
#667=ORIENTED_EDGE('',*,*,#511,.F.);
#668=ORIENTED_EDGE('',*,*,#512,.F.);
#669=ORIENTED_EDGE('',*,*,#512,.T.);
#670=ORIENTED_EDGE('',*,*,#513,.F.);
#671=ORIENTED_EDGE('',*,*,#514,.T.);
#672=ORIENTED_EDGE('',*,*,#515,.F.);
#673=ORIENTED_EDGE('',*,*,#459,.F.);
#674=ORIENTED_EDGE('',*,*,#516,.T.);
#675=ORIENTED_EDGE('',*,*,#507,.T.);
#676=ORIENTED_EDGE('',*,*,#515,.T.);
#677=ORIENTED_EDGE('',*,*,#517,.T.);
#678=ORIENTED_EDGE('',*,*,#518,.T.);
#679=ORIENTED_EDGE('',*,*,#519,.T.);
#680=ORIENTED_EDGE('',*,*,#470,.T.);
#681=ORIENTED_EDGE('',*,*,#511,.T.);
#682=ORIENTED_EDGE('',*,*,#510,.F.);
#683=ORIENTED_EDGE('',*,*,#454,.F.);
#684=ORIENTED_EDGE('',*,*,#520,.F.);
#685=ORIENTED_EDGE('',*,*,#513,.T.);
#686=ORIENTED_EDGE('',*,*,#521,.F.);
#687=ORIENTED_EDGE('',*,*,#438,.T.);
#688=ORIENTED_EDGE('',*,*,#522,.F.);
#689=ORIENTED_EDGE('',*,*,#523,.T.);
#690=ORIENTED_EDGE('',*,*,#521,.T.);
#691=ORIENTED_EDGE('',*,*,#523,.F.);
#692=ORIENTED_EDGE('',*,*,#430,.T.);
#693=ORIENTED_EDGE('',*,*,#440,.T.);
#694=ORIENTED_EDGE('',*,*,#443,.T.);
#695=ORIENTED_EDGE('',*,*,#457,.T.);
#696=ORIENTED_EDGE('',*,*,#524,.F.);
#697=ORIENTED_EDGE('',*,*,#494,.T.);
#698=ORIENTED_EDGE('',*,*,#491,.F.);
#699=ORIENTED_EDGE('',*,*,#466,.F.);
#700=ORIENTED_EDGE('',*,*,#525,.F.);
#701=ORIENTED_EDGE('',*,*,#526,.F.);
#702=ORIENTED_EDGE('',*,*,#495,.T.);
#703=ORIENTED_EDGE('',*,*,#526,.T.);
#704=ORIENTED_EDGE('',*,*,#527,.F.);
#705=ORIENTED_EDGE('',*,*,#528,.T.);
#706=ORIENTED_EDGE('',*,*,#496,.T.);
#707=ORIENTED_EDGE('',*,*,#528,.F.);
#708=ORIENTED_EDGE('',*,*,#529,.F.);
#709=ORIENTED_EDGE('',*,*,#464,.F.);
#710=ORIENTED_EDGE('',*,*,#500,.F.);
#711=ORIENTED_EDGE('',*,*,#530,.T.);
#712=ORIENTED_EDGE('',*,*,#531,.T.);
#713=ORIENTED_EDGE('',*,*,#471,.T.);
#714=ORIENTED_EDGE('',*,*,#519,.F.);
#715=ORIENTED_EDGE('',*,*,#532,.F.);
#716=ORIENTED_EDGE('',*,*,#533,.T.);
#717=ORIENTED_EDGE('',*,*,#534,.T.);
#718=ORIENTED_EDGE('',*,*,#535,.F.);
#719=ORIENTED_EDGE('',*,*,#485,.F.);
#720=ORIENTED_EDGE('',*,*,#473,.F.);
#721=ORIENTED_EDGE('',*,*,#484,.F.);
#722=ORIENTED_EDGE('',*,*,#536,.F.);
#723=ORIENTED_EDGE('',*,*,#505,.F.);
#724=ORIENTED_EDGE('',*,*,#476,.T.);
#725=ORIENTED_EDGE('',*,*,#522,.T.);
#726=ORIENTED_EDGE('',*,*,#465,.F.);
#727=ORIENTED_EDGE('',*,*,#529,.T.);
#728=ORIENTED_EDGE('',*,*,#527,.T.);
#729=ORIENTED_EDGE('',*,*,#525,.T.);
#730=ORIENTED_EDGE('',*,*,#537,.F.);
#731=ORIENTED_EDGE('',*,*,#538,.T.);
#732=ORIENTED_EDGE('',*,*,#539,.T.);
#733=ORIENTED_EDGE('',*,*,#489,.F.);
#734=ORIENTED_EDGE('',*,*,#540,.T.);
#735=ORIENTED_EDGE('',*,*,#458,.F.);
#736=ORIENTED_EDGE('',*,*,#468,.T.);
#737=ORIENTED_EDGE('',*,*,#493,.F.);
#738=ORIENTED_EDGE('',*,*,#499,.T.);
#739=ORIENTED_EDGE('',*,*,#502,.F.);
#740=ORIENTED_EDGE('',*,*,#504,.T.);
#741=ORIENTED_EDGE('',*,*,#506,.F.);
#742=ORIENTED_EDGE('',*,*,#536,.T.);
#743=ORIENTED_EDGE('',*,*,#483,.F.);
#744=ORIENTED_EDGE('',*,*,#490,.F.);
#745=ORIENTED_EDGE('',*,*,#539,.F.);
#746=ORIENTED_EDGE('',*,*,#541,.T.);
#747=ORIENTED_EDGE('',*,*,#508,.T.);
#748=ORIENTED_EDGE('',*,*,#516,.F.);
#749=ORIENTED_EDGE('',*,*,#469,.F.);
#750=ORIENTED_EDGE('',*,*,#542,.T.);
#751=ORIENTED_EDGE('',*,*,#543,.T.);
#752=ORIENTED_EDGE('',*,*,#542,.F.);
#753=ORIENTED_EDGE('',*,*,#544,.F.);
#754=ORIENTED_EDGE('',*,*,#532,.T.);
#755=ORIENTED_EDGE('',*,*,#518,.F.);
#756=ORIENTED_EDGE('',*,*,#545,.F.);
#757=ORIENTED_EDGE('',*,*,#530,.F.);
#758=ORIENTED_EDGE('',*,*,#544,.T.);
#759=ORIENTED_EDGE('',*,*,#546,.F.);
#760=ORIENTED_EDGE('',*,*,#433,.F.);
#761=ORIENTED_EDGE('',*,*,#432,.T.);
#762=ORIENTED_EDGE('',*,*,#533,.F.);
#763=ORIENTED_EDGE('',*,*,#472,.F.);
#764=ORIENTED_EDGE('',*,*,#531,.F.);
#765=ORIENTED_EDGE('',*,*,#547,.F.);
#766=ORIENTED_EDGE('',*,*,#548,.T.);
#767=ORIENTED_EDGE('',*,*,#534,.F.);
#768=ORIENTED_EDGE('',*,*,#431,.F.);
#769=ORIENTED_EDGE('',*,*,#486,.T.);
#770=ORIENTED_EDGE('',*,*,#535,.T.);
#771=ORIENTED_EDGE('',*,*,#548,.F.);
#772=ORIENTED_EDGE('',*,*,#549,.F.);
#773=ORIENTED_EDGE('',*,*,#488,.T.);
#774=ORIENTED_EDGE('',*,*,#550,.T.);
#775=ORIENTED_EDGE('',*,*,#551,.F.);
#776=ORIENTED_EDGE('',*,*,#540,.F.);
#777=ORIENTED_EDGE('',*,*,#537,.T.);
#778=ORIENTED_EDGE('',*,*,#551,.T.);
#779=ORIENTED_EDGE('',*,*,#552,.F.);
#780=ORIENTED_EDGE('',*,*,#456,.F.);
#781=ORIENTED_EDGE('',*,*,#455,.T.);
#782=ORIENTED_EDGE('',*,*,#509,.F.);
#783=ORIENTED_EDGE('',*,*,#541,.F.);
#784=ORIENTED_EDGE('',*,*,#538,.F.);
#785=ORIENTED_EDGE('',*,*,#543,.F.);
#786=ORIENTED_EDGE('',*,*,#444,.T.);
#787=ORIENTED_EDGE('',*,*,#546,.T.);
#788=ORIENTED_EDGE('',*,*,#545,.T.);
#789=ORIENTED_EDGE('',*,*,#517,.F.);
#790=ORIENTED_EDGE('',*,*,#514,.F.);
#791=ORIENTED_EDGE('',*,*,#520,.T.);
#792=ORIENTED_EDGE('',*,*,#451,.T.);
#793=ORIENTED_EDGE('',*,*,#547,.T.);
#794=ORIENTED_EDGE('',*,*,#524,.T.);
#795=ORIENTED_EDGE('',*,*,#552,.T.);
#796=ORIENTED_EDGE('',*,*,#550,.F.);
#797=ORIENTED_EDGE('',*,*,#487,.F.);
#798=ORIENTED_EDGE('',*,*,#549,.T.);
#799=TOROIDAL_SURFACE('',#859,43.9999999999998,2.7);
#800=TOROIDAL_SURFACE('',#874,43.9999999999998,2.7);
#801=ADVANCED_FACE('',(#206),#799,.F.);
#802=ADVANCED_FACE('',(#207),#187,.F.);
#803=ADVANCED_FACE('',(#208),#188,.F.);
#804=ADVANCED_FACE('',(#209),#189,.F.);
#805=ADVANCED_FACE('',(#210),#190,.F.);
#806=ADVANCED_FACE('',(#211),#800,.F.);
#807=ADVANCED_FACE('',(#212),#191,.T.);
#808=ADVANCED_FACE('',(#213,#15),#20,.T.);
#809=ADVANCED_FACE('',(#214),#21,.F.);
#810=ADVANCED_FACE('',(#215),#192,.T.);
#811=ADVANCED_FACE('',(#216),#22,.F.);
#812=ADVANCED_FACE('',(#217),#193,.F.);
#813=ADVANCED_FACE('',(#218),#23,.F.);
#814=ADVANCED_FACE('',(#219),#194,.F.);
#815=ADVANCED_FACE('',(#220),#195,.T.);
#816=ADVANCED_FACE('',(#221),#24,.T.);
#817=ADVANCED_FACE('',(#222),#196,.T.);
#818=ADVANCED_FACE('',(#223),#25,.T.);
#819=ADVANCED_FACE('',(#224),#197,.F.);
#820=ADVANCED_FACE('',(#225),#26,.T.);
#821=ADVANCED_FACE('',(#226),#27,.F.);
#822=ADVANCED_FACE('',(#227,#16),#28,.F.);
#823=ADVANCED_FACE('',(#228),#198,.F.);
#824=ADVANCED_FACE('',(#229),#199,.F.);
#825=ADVANCED_FACE('',(#230),#29,.F.);
#826=ADVANCED_FACE('',(#231),#30,.F.);
#827=ADVANCED_FACE('',(#232),#31,.F.);
#828=ADVANCED_FACE('',(#233),#32,.T.);
#829=ADVANCED_FACE('',(#234),#33,.T.);
#830=ADVANCED_FACE('',(#235,#17,#18),#34,.T.);
#831=ADVANCED_FACE('',(#236),#35,.T.);
#832=ADVANCED_FACE('',(#237),#36,.F.);
#833=ADVANCED_FACE('',(#238),#200,.F.);
#834=ADVANCED_FACE('',(#239),#201,.F.);
#835=ADVANCED_FACE('',(#240),#37,.F.);
#836=ADVANCED_FACE('',(#241),#202,.F.);
#837=ADVANCED_FACE('',(#242),#38,.F.);
#838=ADVANCED_FACE('',(#243),#203,.F.);
#839=ADVANCED_FACE('',(#244),#204,.F.);
#840=ADVANCED_FACE('',(#245),#39,.F.);
#841=ADVANCED_FACE('',(#246),#205,.F.);
#842=ADVANCED_FACE('',(#247,#19),#40,.T.);
#843=ADVANCED_FACE('',(#248),#41,.T.);
#844=ADVANCED_FACE('',(#249),#42,.T.);
#845=CLOSED_SHELL('',(#801,#802,#803,#804,#805,#806,#807,#808,#809,#810,
#811,#812,#813,#814,#815,#816,#817,#818,#819,#820,#821,#822,#823,#824,#825,
#826,#827,#828,#829,#830,#831,#832,#833,#834,#835,#836,#837,#838,#839,#840,
#841,#842,#843,#844));
#846=DERIVED_UNIT_ELEMENT(#848,1.);
#847=DERIVED_UNIT_ELEMENT(#1625,-3.);
#848=(
MASS_UNIT()
NAMED_UNIT(*)
SI_UNIT(.KILO.,.GRAM.)
);
#849=DERIVED_UNIT((#846,#847));
#850=MEASURE_REPRESENTATION_ITEM('density measure',
POSITIVE_RATIO_MEASURE(7850.),#849);
#851=PROPERTY_DEFINITION_REPRESENTATION(#856,#853);
#852=PROPERTY_DEFINITION_REPRESENTATION(#857,#854);
#853=REPRESENTATION('material name',(#855),#1622);
#854=REPRESENTATION('density',(#850),#1622);
#855=DESCRIPTIVE_REPRESENTATION_ITEM('Steel','Steel');
#856=PROPERTY_DEFINITION('material property','material name',#1632);
#857=PROPERTY_DEFINITION('material property','density of part',#1632);
#858=AXIS2_PLACEMENT_3D('',#1185,#943,#944);
#859=AXIS2_PLACEMENT_3D('',#1186,#945,#946);
#860=AXIS2_PLACEMENT_3D('',#1189,#947,#948);
#861=AXIS2_PLACEMENT_3D('',#1191,#949,#950);
#862=AXIS2_PLACEMENT_3D('',#1193,#951,#952);
#863=AXIS2_PLACEMENT_3D('',#1195,#953,#954);
#864=AXIS2_PLACEMENT_3D('',#1197,#955,#956);
#865=AXIS2_PLACEMENT_3D('',#1230,#957,#958);
#866=AXIS2_PLACEMENT_3D('',#1259,#959,#960);
#867=AXIS2_PLACEMENT_3D('',#1261,#961,#962);
#868=AXIS2_PLACEMENT_3D('',#1335,#964,#965);
#869=AXIS2_PLACEMENT_3D('',#1337,#966,#967);
#870=AXIS2_PLACEMENT_3D('',#1414,#969,#970);
#871=AXIS2_PLACEMENT_3D('',#1417,#972,#973);
#872=AXIS2_PLACEMENT_3D('',#1418,#974,#975);
#873=AXIS2_PLACEMENT_3D('',#1419,#976,#977);
#874=AXIS2_PLACEMENT_3D('',#1420,#978,#979);
#875=AXIS2_PLACEMENT_3D('',#1422,#980,#981);
#876=AXIS2_PLACEMENT_3D('',#1424,#982,#983);
#877=AXIS2_PLACEMENT_3D('',#1426,#984,#985);
#878=AXIS2_PLACEMENT_3D('',#1427,#986,#987);
#879=AXIS2_PLACEMENT_3D('',#1428,#988,#989);
#880=AXIS2_PLACEMENT_3D('',#1431,#990,#991);
#881=AXIS2_PLACEMENT_3D('',#1435,#993,#994);
#882=AXIS2_PLACEMENT_3D('',#1437,#996,#997);
#883=AXIS2_PLACEMENT_3D('',#1452,#1005,#1006);
#884=AXIS2_PLACEMENT_3D('',#1453,#1007,#1008);
#885=AXIS2_PLACEMENT_3D('',#1459,#1011,#1012);
#886=AXIS2_PLACEMENT_3D('',#1465,#1015,#1016);
#887=AXIS2_PLACEMENT_3D('',#1469,#1018,#1019);
#888=AXIS2_PLACEMENT_3D('',#1473,#1021,#1022);
#889=AXIS2_PLACEMENT_3D('',#1476,#1024,#1025);
#890=AXIS2_PLACEMENT_3D('',#1477,#1026,#1027);
#891=AXIS2_PLACEMENT_3D('',#1481,#1029,#1030);
#892=AXIS2_PLACEMENT_3D('',#1483,#1032,#1033);
#893=AXIS2_PLACEMENT_3D('',#1487,#1035,#1036);
#894=AXIS2_PLACEMENT_3D('',#1491,#1038,#1039);
#895=AXIS2_PLACEMENT_3D('',#1495,#1042,#1043);
#896=AXIS2_PLACEMENT_3D('',#1497,#1044,#1045);
#897=AXIS2_PLACEMENT_3D('',#1500,#1047,#1048);
#898=AXIS2_PLACEMENT_3D('',#1501,#1049,#1050);
#899=AXIS2_PLACEMENT_3D('',#1512,#1057,#1058);
#900=AXIS2_PLACEMENT_3D('',#1513,#1059,#1060);
#901=AXIS2_PLACEMENT_3D('',#1514,#1061,#1062);
#902=AXIS2_PLACEMENT_3D('',#1517,#1064,#1065);
#903=AXIS2_PLACEMENT_3D('',#1518,#1066,#1067);
#904=AXIS2_PLACEMENT_3D('',#1522,#1070,#1071);
#905=AXIS2_PLACEMENT_3D('',#1525,#1073,#1074);
#906=AXIS2_PLACEMENT_3D('',#1526,#1075,#1076);
#907=AXIS2_PLACEMENT_3D('',#1538,#1083,#1084);
#908=AXIS2_PLACEMENT_3D('',#1540,#1085,#1086);
#909=AXIS2_PLACEMENT_3D('',#1543,#1088,#1089);
#910=AXIS2_PLACEMENT_3D('',#1544,#1090,#1091);
#911=AXIS2_PLACEMENT_3D('',#1549,#1094,#1095);
#912=AXIS2_PLACEMENT_3D('',#1551,#1097,#1098);
#913=AXIS2_PLACEMENT_3D('',#1553,#1100,#1101);
#914=AXIS2_PLACEMENT_3D('',#1555,#1102,#1103);
#915=AXIS2_PLACEMENT_3D('',#1556,#1104,#1105);
#916=AXIS2_PLACEMENT_3D('',#1558,#1106,#1107);
#917=AXIS2_PLACEMENT_3D('',#1560,#1109,#1110);
#918=AXIS2_PLACEMENT_3D('',#1562,#1112,#1113);
#919=AXIS2_PLACEMENT_3D('',#1566,#1116,#1117);
#920=AXIS2_PLACEMENT_3D('',#1570,#1120,#1121);
#921=AXIS2_PLACEMENT_3D('',#1572,#1123,#1124);
#922=AXIS2_PLACEMENT_3D('',#1577,#1128,#1129);
#923=AXIS2_PLACEMENT_3D('',#1582,#1133,#1134);
#924=AXIS2_PLACEMENT_3D('',#1584,#1136,#1137);
#925=AXIS2_PLACEMENT_3D('',#1591,#1142,#1143);
#926=AXIS2_PLACEMENT_3D('',#1592,#1144,#1145);
#927=AXIS2_PLACEMENT_3D('',#1593,#1146,#1147);
#928=AXIS2_PLACEMENT_3D('',#1596,#1149,#1150);
#929=AXIS2_PLACEMENT_3D('',#1597,#1151,#1152);
#930=AXIS2_PLACEMENT_3D('',#1599,#1153,#1154);
#931=AXIS2_PLACEMENT_3D('',#1601,#1156,#1157);
#932=AXIS2_PLACEMENT_3D('',#1603,#1159,#1160);
#933=AXIS2_PLACEMENT_3D('',#1604,#1161,#1162);
#934=AXIS2_PLACEMENT_3D('',#1607,#1164,#1165);
#935=AXIS2_PLACEMENT_3D('',#1608,#1166,#1167);
#936=AXIS2_PLACEMENT_3D('',#1610,#1169,#1170);
#937=AXIS2_PLACEMENT_3D('',#1613,#1172,#1173);
#938=AXIS2_PLACEMENT_3D('',#1614,#1174,#1175);
#939=AXIS2_PLACEMENT_3D('',#1616,#1177,#1178);
#940=AXIS2_PLACEMENT_3D('',#1617,#1179,#1180);
#941=AXIS2_PLACEMENT_3D('',#1618,#1181,#1182);
#942=AXIS2_PLACEMENT_3D('',#1619,#1183,#1184);
#943=DIRECTION('axis',(0.,0.,1.));
#944=DIRECTION('refdir',(1.,0.,0.));
#945=DIRECTION('center_axis',(1.83928064044407E-15,1.,-1.77225219273429E-14));
#946=DIRECTION('ref_axis',(1.,-1.82580574499384E-15,-9.67030405312051E-13));
#947=DIRECTION('center_axis',(1.34656595638173E-15,1.,1.79856167954304E-16));
#948=DIRECTION('ref_axis',(1.,-1.34656595638174E-15,2.8310687127931E-14));
#949=DIRECTION('center_axis',(-1.,1.83928064044406E-15,-2.77834581186619E-16));
#950=DIRECTION('ref_axis',(2.77834581186492E-16,-1.77225219273429E-14,-1.));
#951=DIRECTION('center_axis',(-1.34656595638173E-15,-1.,-1.79856167954304E-16));
#952=DIRECTION('ref_axis',(1.,-1.34656595638174E-15,2.8310687127931E-14));
#953=DIRECTION('center_axis',(-1.67133455069429E-15,1.77225219273429E-14,
1.));
#954=DIRECTION('ref_axis',(-1.,1.83928064044404E-15,-1.67133455069456E-15));
#955=DIRECTION('center_axis',(1.34656595638173E-15,1.,1.79856167954304E-16));
#956=DIRECTION('ref_axis',(1.,-1.34656595638174E-15,2.8310687127931E-14));
#957=DIRECTION('center_axis',(1.34656595638173E-15,1.,1.79856167954304E-16));
#958=DIRECTION('ref_axis',(1.,-1.34656595638174E-15,2.8310687127931E-14));
#959=DIRECTION('center_axis',(-6.6264316038565E-29,2.44249065427887E-15,
1.));
#960=DIRECTION('ref_axis',(-1.,-1.80318722916214E-14,-2.32017913300298E-29));
#961=DIRECTION('center_axis',(-6.6264316038565E-29,2.44249065427887E-15,
1.));
#962=DIRECTION('ref_axis',(-1.,-1.80318722916214E-14,-2.32017913300298E-29));
#963=DIRECTION('',(-6.6264316038565E-29,2.44249065427887E-15,1.));
#964=DIRECTION('center_axis',(1.,2.68303897619162E-16,1.66533453692767E-15));
#965=DIRECTION('ref_axis',(-2.68303897619189E-16,1.,1.55211197809564E-14));
#966=DIRECTION('center_axis',(1.,-4.92714684077597E-16,1.5279507840179E-16));
#967=DIRECTION('ref_axis',(-2.68303897619189E-16,1.,1.55211197809564E-14));
#968=DIRECTION('',(1.,2.68303897619162E-16,1.66533453692767E-15));
#969=DIRECTION('center_axis',(1.34656595638173E-15,1.,1.79856167954304E-16));
#970=DIRECTION('ref_axis',(1.,-1.34656595638174E-15,2.8310687127931E-14));
#971=DIRECTION('',(1.34656595638173E-15,1.,1.79856167954304E-16));
#972=DIRECTION('center_axis',(-1.34656595638173E-15,-1.,-1.79856167954304E-16));
#973=DIRECTION('ref_axis',(1.,-1.34656595638174E-15,2.8310687127931E-14));
#974=DIRECTION('center_axis',(1.34656595638173E-15,1.,1.79856167954304E-16));
#975=DIRECTION('ref_axis',(1.,-1.34656595638174E-15,2.8310687127931E-14));
#976=DIRECTION('center_axis',(-1.34656595638173E-15,-1.,-1.79856167954304E-16));
#977=DIRECTION('ref_axis',(1.,-1.34656595638174E-15,2.8310687127931E-14));
#978=DIRECTION('center_axis',(1.83928064047718E-15,1.,-1.77225219273231E-14));
#979=DIRECTION('ref_axis',(1.,-1.82580574499384E-15,2.89846662017773E-14));
#980=DIRECTION('center_axis',(-9.97692946804135E-13,1.77225219273249E-14,
1.));
#981=DIRECTION('ref_axis',(-1.,1.83928064045949E-15,-9.97692946804135E-13));
#982=DIRECTION('center_axis',(1.34656595638173E-15,1.,1.79856167954304E-16));
#983=DIRECTION('ref_axis',(1.,-1.34656595638174E-15,2.8310687127931E-14));
#984=DIRECTION('center_axis',(-1.,1.83928064045952E-15,-9.96299446834628E-13));
#985=DIRECTION('ref_axis',(9.96299446834627E-13,-1.77225219273249E-14,-1.));
#986=DIRECTION('center_axis',(-1.34656595638173E-15,-1.,-1.79856167954304E-16));
#987=DIRECTION('ref_axis',(1.,-1.34656595638174E-15,2.8310687127931E-14));
#988=DIRECTION('center_axis',(1.80318722916212E-14,-1.,6.88160890909562E-15));
#989=DIRECTION('ref_axis',(-0.707106781186548,-6.28036983473512E-15,0.707106781186548));
#990=DIRECTION('center_axis',(3.22841402175607E-15,1.,2.3698919794053E-14));
#991=DIRECTION('ref_axis',(-0.707106781186548,-6.28036983473512E-15,0.707106781186548));
#992=DIRECTION('',(-1.80318722916212E-14,1.,-6.88160890909562E-15));
#993=DIRECTION('center_axis',(5.79392319288104E-15,-1.,-1.17016260240726E-14));
#994=DIRECTION('ref_axis',(-0.707106781186548,-6.28036983473512E-15,0.707106781186548));
#995=DIRECTION('',(1.80318722916212E-14,-1.,6.88160890909562E-15));
#996=DIRECTION('center_axis',(-1.,-1.80318722916213E-14,-4.84871999182078E-15));
#997=DIRECTION('ref_axis',(-1.80318722916213E-14,1.,1.18924456064282E-14));
#998=DIRECTION('',(6.93889390322495E-17,-1.17016260240726E-14,1.));
#999=DIRECTION('',(-1.80318722916213E-14,1.,-2.24244861304664E-15));
#1000=DIRECTION('',(4.84871999182095E-15,-9.34787597064748E-15,-1.));
#1001=DIRECTION('',(-1.7121461745576E-14,-1.,1.74901615765663E-15));
#1002=DIRECTION('',(-4.84871999182095E-15,9.3478759706475E-15,1.));
#1003=DIRECTION('',(-1.80318722916213E-14,1.,-2.24244861304664E-15));
#1004=DIRECTION('',(-6.93889390532746E-17,2.3698919794053E-14,-1.));
#1005=DIRECTION('center_axis',(1.,1.80318722916213E-14,4.84871999182078E-15));
#1006=DIRECTION('ref_axis',(-2.68303897619187E-16,1.,1.55211197809564E-14));
#1007=DIRECTION('center_axis',(5.79392319288104E-15,-1.,-1.17016260240726E-14));
#1008=DIRECTION('ref_axis',(1.20396233056043E-14,-1.17016260240725E-14,
1.));
#1009=DIRECTION('',(-1.,-1.35318316590405E-14,2.14570166220115E-28));
#1010=DIRECTION('',(0.,8.88178419700125E-15,1.));
#1011=DIRECTION('center_axis',(5.79392319288104E-15,-1.,-1.17016260240726E-14));
#1012=DIRECTION('ref_axis',(1.,-1.34656595638174E-15,2.8310687127931E-14));
#1013=DIRECTION('',(1.,2.22044604925031E-15,9.96980276113391E-13));
#1014=DIRECTION('',(-2.84912377819577E-14,-1.17016260240728E-14,1.));
#1015=DIRECTION('center_axis',(5.79392319288104E-15,-1.,-1.17016260240726E-14));
#1016=DIRECTION('ref_axis',(0.707106781186908,0.,-0.707106781186187));
#1017=DIRECTION('',(1.,4.80849382472578E-15,3.904808511482E-15));
#1018=DIRECTION('center_axis',(5.79392319288104E-15,-1.,-1.17016260240726E-14));
#1019=DIRECTION('ref_axis',(-0.707106781186538,0.,-0.707106781186557));
#1020=DIRECTION('',(-1.04117910154463E-15,1.17016260240726E-14,-1.));
#1021=DIRECTION('center_axis',(5.79392319288104E-15,-1.,-1.17016260240726E-14));
#1022=DIRECTION('ref_axis',(-0.707106781186548,-1.25607396694702E-14,0.707106781186548));
#1023=DIRECTION('',(1.,5.79392319288113E-15,-7.21644966007379E-15));
#1024=DIRECTION('center_axis',(-5.79392319288104E-15,1.,1.17016260240726E-14));
#1025=DIRECTION('ref_axis',(0.707106781186548,1.25607396694702E-14,-0.707106781186548));
#1026=DIRECTION('center_axis',(-1.11418810685467E-15,1.,-1.74901615765717E-15));
#1027=DIRECTION('ref_axis',(0.707106781186908,0.,-0.707106781186187));
#1028=DIRECTION('',(1.11418810685467E-15,-1.,1.74901615765717E-15));
#1029=DIRECTION('center_axis',(3.22841402175607E-15,1.,2.3698919794053E-14));
#1030=DIRECTION('ref_axis',(0.707106781186908,0.,-0.707106781186187));
#1031=DIRECTION('',(-1.11418810685467E-15,1.,-1.74901615765717E-15));
#1032=DIRECTION('center_axis',(-1.,-1.11418810685641E-15,-9.96160529544032E-13));
#1033=DIRECTION('ref_axis',(-9.96160529544032E-13,-1.99074473381087E-14,
1.));
#1034=DIRECTION('',(-1.34656595638173E-15,-1.,-1.79856167954304E-16));
#1035=DIRECTION('center_axis',(1.,-4.92714684077609E-16,1.38917290593963E-16));
#1036=DIRECTION('ref_axis',(-4.9271468407761E-16,-1.,-1.55211197809564E-14));
#1037=DIRECTION('',(-4.92714682227513E-16,-1.,-5.27290724595494E-15));
#1038=DIRECTION('center_axis',(1.,-4.92714684077609E-16,1.38917290593963E-16));
#1039=DIRECTION('ref_axis',(-4.92714684077612E-16,-1.,-1.55211197809564E-14));
#1040=DIRECTION('',(-4.92714684077761E-16,-1.,1.0707894089292E-12));
#1041=DIRECTION('',(9.96160529544032E-13,2.36989197940497E-14,-1.));
#1042=DIRECTION('center_axis',(1.80318722916213E-14,-1.,2.24244861304664E-15));
#1043=DIRECTION('ref_axis',(0.707106781186548,1.25607396694702E-14,-0.707106781186548));
#1044=DIRECTION('center_axis',(-1.80318722916209E-14,1.,-5.87112278757427E-15));
#1045=DIRECTION('ref_axis',(0.707106781186548,1.25607396694702E-14,-0.707106781186548));
#1046=DIRECTION('',(1.80318722916213E-14,-1.,2.24244861304664E-15));
#1047=DIRECTION('center_axis',(-3.22841402175607E-15,-1.,-2.3698919794053E-14));
#1048=DIRECTION('ref_axis',(0.707106781186548,1.25607396694702E-14,-0.707106781186548));
#1049=DIRECTION('center_axis',(-7.21644966007377E-15,-2.24244861304677E-15,
-1.));
#1050=DIRECTION('ref_axis',(-1.,-1.80318722916216E-14,7.21644966007381E-15));
#1051=DIRECTION('',(1.,1.80318722916208E-14,-7.21644966007381E-15));
#1052=DIRECTION('',(1.80318722916215E-14,-1.,2.24244861304664E-15));
#1053=DIRECTION('',(-1.,-2.22044604925036E-14,7.21644966007382E-15));
#1054=DIRECTION('',(1.80318722916213E-14,-1.,2.24244861304664E-15));
#1055=DIRECTION('',(-6.18949336228679E-15,1.,-2.24244861304673E-15));
#1056=DIRECTION('',(-1.,3.2284140217559E-15,7.21644966007376E-15));
#1057=DIRECTION('center_axis',(1.80318722916213E-14,-1.,2.24244861304664E-15));
#1058=DIRECTION('ref_axis',(0.707106781186548,1.25607396694702E-14,-0.707106781186548));
#1059=DIRECTION('center_axis',(2.22044604925036E-14,-1.,1.24218649228355E-30));
#1060=DIRECTION('ref_axis',(0.707106781186548,1.25607396694702E-14,-0.707106781186548));
#1061=DIRECTION('center_axis',(-6.18949336228679E-15,1.,-2.24244861304673E-15));
#1062=DIRECTION('ref_axis',(-0.707106781186548,-1.25607396694702E-14,0.707106781186548));
#1063=DIRECTION('',(6.18949336228679E-15,-1.,2.24244861304673E-15));
#1064=DIRECTION('center_axis',(3.22841402175607E-15,1.,2.3698919794053E-14));
#1065=DIRECTION('ref_axis',(-0.707106781186548,-1.25607396694702E-14,0.707106781186548));
#1066=DIRECTION('center_axis',(-1.,-6.1894933622868E-15,-4.66756263269446E-15));
#1067=DIRECTION('ref_axis',(-6.18949336228687E-15,1.,1.55211197809563E-14));
#1068=DIRECTION('',(-6.18949336228679E-15,1.,-1.74901615765731E-15));
#1069=DIRECTION('',(1.05887520973613E-14,-2.20025637960627E-17,-1.));
#1070=DIRECTION('center_axis',(-6.18949336228679E-15,1.,-1.74901615765731E-15));
#1071=DIRECTION('ref_axis',(-0.707106781186538,0.,-0.707106781186557));
#1072=DIRECTION('',(6.18949336228679E-15,-1.,1.74901615765731E-15));
#1073=DIRECTION('center_axis',(3.22841402175607E-15,1.,2.3698919794053E-14));
#1074=DIRECTION('ref_axis',(-0.707106781186538,0.,-0.707106781186557));
#1075=DIRECTION('center_axis',(1.,-1.3637062736241E-10,1.2112144830426E-24));
#1076=DIRECTION('ref_axis',(1.3637062736241E-10,1.,1.99840082900786E-15));
#1077=DIRECTION('',(1.3637062736241E-10,1.,1.99840082900786E-15));
#1078=DIRECTION('',(0.,8.88178419700125E-15,1.));
#1079=DIRECTION('',(1.34656595638173E-15,1.,1.79856167954304E-16));
#1080=DIRECTION('',(1.34656595638173E-15,1.,1.79856167954304E-16));
#1081=DIRECTION('',(-1.3637062736241E-10,-1.,6.88160890909562E-15));
#1082=DIRECTION('',(0.,-8.88178419700125E-15,-1.));
#1083=DIRECTION('center_axis',(0.,8.88178419700125E-15,1.));
#1084=DIRECTION('ref_axis',(-1.80318722916209E-14,1.,-8.88178419700125E-15));
#1085=DIRECTION('center_axis',(-7.57306469012171E-29,2.44249065427887E-15,
1.));
#1086=DIRECTION('ref_axis',(-1.80318722916209E-14,1.,-2.44249065427887E-15));
#1087=DIRECTION('',(0.,8.88178419700125E-15,1.));
#1088=DIRECTION('center_axis',(7.57306469012171E-29,-2.44249065427887E-15,
-1.));
#1089=DIRECTION('ref_axis',(-1.80318722916209E-14,1.,-2.44249065427887E-15));
#1090=DIRECTION('center_axis',(1.23062301214478E-28,6.88160890909562E-15,
1.));
#1091=DIRECTION('ref_axis',(-1.80318722916209E-14,1.,-6.88160890909563E-15));
#1092=DIRECTION('',(1.,9.76825914882945E-14,-1.79860286390391E-28));
#1093=DIRECTION('',(-1.96280936657254E-11,1.,-2.44249065427887E-15));
#1094=DIRECTION('center_axis',(7.57306469012171E-29,-2.44249065427887E-15,
-1.));
#1095=DIRECTION('ref_axis',(-1.80318722916209E-14,1.,-2.44249065427887E-15));
#1096=DIRECTION('',(-1.96280936657254E-11,1.,-2.44249065427887E-15));
#1097=DIRECTION('center_axis',(1.23062301214478E-28,6.88160890909562E-15,
1.));
#1098=DIRECTION('ref_axis',(-1.80318722916209E-14,1.,-6.88160890909563E-15));
#1099=DIRECTION('',(1.34656595638173E-15,1.,1.79856167954304E-16));
#1100=DIRECTION('center_axis',(-6.6264316038565E-29,2.44249065427887E-15,
1.));
#1101=DIRECTION('ref_axis',(-1.,-1.80318722916214E-14,-2.20881053461883E-29));
#1102=DIRECTION('center_axis',(-6.6264316038565E-29,2.44249065427887E-15,
1.));
#1103=DIRECTION('ref_axis',(-1.,-1.80318722916214E-14,-2.06914335795675E-29));
#1104=DIRECTION('center_axis',(-6.6264316038565E-29,2.44249065427887E-15,
1.));
#1105=DIRECTION('ref_axis',(-1.,-1.80318722916214E-14,-2.06914335795675E-29));
#1106=DIRECTION('center_axis',(-2.83523204913638E-14,1.74901615765714E-15,
1.));
#1107=DIRECTION('ref_axis',(-1.,-1.80318722916214E-14,-2.06914335795675E-29));
#1108=DIRECTION('',(-6.6264316038565E-29,2.44249065427887E-15,1.));
#1109=DIRECTION('center_axis',(1.34656595638173E-15,1.,1.79856167954304E-16));
#1110=DIRECTION('ref_axis',(1.,-1.34656595638174E-15,2.8310687127931E-14));
#1111=DIRECTION('',(-1.34656595638173E-15,-1.,-1.79856167954304E-16));
#1112=DIRECTION('center_axis',(1.80318722916209E-14,-1.,5.87112278757427E-15));
#1113=DIRECTION('ref_axis',(-1.,-1.8031872291621E-14,-2.77694534034368E-14));
#1114=DIRECTION('',(1.,1.75391576075432E-14,-7.03589900604741E-15));
#1115=DIRECTION('',(1.05887520973613E-14,-2.20025637960627E-17,-1.));
#1116=DIRECTION('center_axis',(-1.,-1.80318722916215E-14,-4.08469554476674E-15));
#1117=DIRECTION('ref_axis',(1.80318722916176E-14,-1.,9.51379467546814E-13));
#1118=DIRECTION('',(1.75391576075439E-14,-1.,5.57311768692209E-15));
#1119=DIRECTION('',(-4.08469554476671E-15,-2.56657219957698E-15,1.));
#1120=DIRECTION('center_axis',(-2.22044604925036E-14,1.,-1.24218649228355E-30));
#1121=DIRECTION('ref_axis',(-1.38777878078302E-17,9.34037701181235E-31,
1.));
#1122=DIRECTION('',(-1.,-2.1711745808426E-14,7.03589900604743E-15));
#1123=DIRECTION('center_axis',(1.,1.96280936657254E-11,-1.743324921375E-25));
#1124=DIRECTION('ref_axis',(-1.96280936657254E-11,1.,-2.44249065427887E-15));
#1125=DIRECTION('',(1.34656595638173E-15,1.,1.79856167954304E-16));
#1126=DIRECTION('',(1.34656595638173E-15,1.,1.79856167954304E-16));
#1127=DIRECTION('',(0.,8.88178419700125E-15,1.));
#1128=DIRECTION('center_axis',(-9.96980276113391E-13,-1.79856167952962E-16,
1.));
#1129=DIRECTION('ref_axis',(-1.34656595638173E-15,-1.,-1.79856167954304E-16));
#1130=DIRECTION('',(-1.34656595638173E-15,-1.,-1.79856167954304E-16));
#1131=DIRECTION('',(-1.34656595638173E-15,-1.,-1.79856167954304E-16));
#1132=DIRECTION('',(-1.,0.,0.));
#1133=DIRECTION('center_axis',(2.83523204913638E-14,-1.74901615765714E-15,
-1.));
#1134=DIRECTION('ref_axis',(-1.,-1.8031872291621E-14,-2.83523204913638E-14));
#1135=DIRECTION('',(1.,2.22044604925031E-15,9.96980276113391E-13));
#1136=DIRECTION('center_axis',(-9.96980276113391E-13,-1.79856167952962E-16,
1.));
#1137=DIRECTION('ref_axis',(-1.34656595638173E-15,-1.,-1.79856167954304E-16));
#1138=DIRECTION('',(4.92714684077761E-16,1.,-1.0707894089292E-12));
#1139=DIRECTION('',(-1.34656595638173E-15,-1.,-1.79856167954304E-16));
#1140=DIRECTION('',(1.,2.22044604925031E-15,9.96980276113391E-13));
#1141=DIRECTION('',(-1.,0.,0.));
#1142=DIRECTION('center_axis',(3.22841402175607E-15,1.,2.3698919794053E-14));
#1143=DIRECTION('ref_axis',(1.,-3.22841402175606E-15,-5.82243711177398E-16));
#1144=DIRECTION('center_axis',(3.22841402175607E-15,1.,2.3698919794053E-14));
#1145=DIRECTION('ref_axis',(1.,-1.34656595638174E-15,2.8310687127931E-14));
#1146=DIRECTION('center_axis',(1.,2.68303897619162E-16,1.66533453692767E-15));
#1147=DIRECTION('ref_axis',(-2.68303897619187E-16,1.,1.55211197809564E-14));
#1148=DIRECTION('',(1.,2.68303897619162E-16,1.66533453692767E-15));
#1149=DIRECTION('center_axis',(1.,-4.92714684077597E-16,1.5279507840179E-16));
#1150=DIRECTION('ref_axis',(4.92714684077597E-16,1.,1.55211197809564E-14));
#1151=DIRECTION('center_axis',(0.,8.88178419700125E-15,1.));
#1152=DIRECTION('ref_axis',(-1.80318722916209E-14,1.,-8.88178419700125E-15));
#1153=DIRECTION('center_axis',(-7.57306469012171E-29,2.44249065427887E-15,
1.));
#1154=DIRECTION('ref_axis',(-1.80318722916209E-14,1.,-2.44249065427887E-15));
#1155=DIRECTION('',(0.,8.88178419700125E-15,1.));
#1156=DIRECTION('center_axis',(1.23062301214478E-28,6.88160890909562E-15,
1.));
#1157=DIRECTION('ref_axis',(-1.80318722916209E-14,1.,-6.88160890909563E-15));
#1158=DIRECTION('',(1.34656595638173E-15,1.,1.79856167954304E-16));
#1159=DIRECTION('center_axis',(1.34656595638173E-15,1.,1.79856167954304E-16));
#1160=DIRECTION('ref_axis',(1.,-1.34656595638174E-15,2.8310687127931E-14));
#1161=DIRECTION('center_axis',(1.,-4.92714684077609E-16,1.38917290593915E-16));
#1162=DIRECTION('ref_axis',(-4.92714684077609E-16,-1.,-1.55211197809564E-14));
#1163=DIRECTION('',(-1.34656595638173E-15,-1.,-1.79856167954304E-16));
#1164=DIRECTION('center_axis',(1.,-4.92714684077609E-16,1.38917290593963E-16));
#1165=DIRECTION('ref_axis',(-4.9271468407761E-16,-1.,-1.55211197809564E-14));
#1166=DIRECTION('center_axis',(-1.,0.,0.));
#1167=DIRECTION('ref_axis',(0.,-1.,-1.55211197809564E-14));
#1168=DIRECTION('',(-1.,0.,0.));
#1169=DIRECTION('center_axis',(-1.,0.,0.));
#1170=DIRECTION('ref_axis',(0.,-1.,-1.55211197809564E-14));
#1171=DIRECTION('',(-1.,0.,0.));
#1172=DIRECTION('center_axis',(1.,-4.92714684077609E-16,1.38917290593963E-16));
#1173=DIRECTION('ref_axis',(-4.92714684077612E-16,-1.,-1.55211197809564E-14));
#1174=DIRECTION('center_axis',(1.,-4.92714684077609E-16,1.38917290594013E-16));
#1175=DIRECTION('ref_axis',(-4.92714684077609E-16,-1.,-1.55211197809564E-14));
#1176=DIRECTION('',(-1.34656595638173E-15,-1.,-1.79856167954304E-16));
#1177=DIRECTION('center_axis',(1.34656595638173E-15,1.,1.79856167954304E-16));
#1178=DIRECTION('ref_axis',(1.,-1.34656595638174E-15,2.8310687127931E-14));
#1179=DIRECTION('center_axis',(-1.,4.92714684077597E-16,-1.5279507840179E-16));
#1180=DIRECTION('ref_axis',(4.92714684077597E-16,1.,1.55211197809564E-14));
#1181=DIRECTION('center_axis',(1.,1.96280936657254E-11,-1.743324921375E-25));
#1182=DIRECTION('ref_axis',(-1.96280936657254E-11,1.,-2.44249065427887E-15));
#1183=DIRECTION('center_axis',(-9.96980276113391E-13,-1.79856167952962E-16,
1.));
#1184=DIRECTION('ref_axis',(-1.34656595638173E-15,-1.,-1.79856167954304E-16));
#1185=CARTESIAN_POINT('',(0.,0.,0.));
#1186=CARTESIAN_POINT('Origin',(7.94377134993844,45.2361096272724,10.1647335529257));
#1187=CARTESIAN_POINT('',(7.94377134993844,42.5361096272716,-33.8352664470744));
#1188=CARTESIAN_POINT('',(-5.62036205938959,42.5361096272703,-31.6923362074754));
#1189=CARTESIAN_POINT('Origin',(7.94377134993844,42.5361096272724,10.1647335529257));
#1190=CARTESIAN_POINT('',(7.94377134993845,47.9361096272716,-33.8352664470744));
#1191=CARTESIAN_POINT('Origin',(7.94377134993844,45.2361096272716,-33.835266447074));
#1192=CARTESIAN_POINT('',(-36.0562288002034,47.9361096272725,10.1647335529256));
#1193=CARTESIAN_POINT('Origin',(7.94377134993845,47.9361096272724,10.1647335529257));
#1194=CARTESIAN_POINT('',(-36.0562288002047,42.5361096272725,10.1647335529257));
#1195=CARTESIAN_POINT('Origin',(-36.0562286500613,45.2361096272725,10.1647335529256));
#1196=CARTESIAN_POINT('',(-33.8894442300749,42.5361096272711,-3.47279139840147));
#1197=CARTESIAN_POINT('Origin',(7.94377134993844,42.5361096272724,10.1647335529257));
#1198=CARTESIAN_POINT('',(-33.611454891113,42.5361096272712,-4.2977414957476));
#1199=CARTESIAN_POINT('Ctrl Pts',(-33.611454891113,42.5361096272722,-4.29774149573915));
#1200=CARTESIAN_POINT('Ctrl Pts',(-33.6172347961023,42.5361096275589,-4.29774149459291));
#1201=CARTESIAN_POINT('Ctrl Pts',(-33.6230428142579,42.5361261858294,-4.29767530662816));
#1202=CARTESIAN_POINT('Ctrl Pts',(-33.7350538747204,42.536763287189,-4.29512667491524));
#1203=CARTESIAN_POINT('Ctrl Pts',(-33.8426102602075,42.5430899477624,-4.27101819264353));
#1204=CARTESIAN_POINT('Ctrl Pts',(-34.0226840336076,42.5587459752062,-4.19545270124174));
#1205=CARTESIAN_POINT('Ctrl Pts',(-34.0968815441197,42.5672006317358,-4.14915979164741));
#1206=CARTESIAN_POINT('Ctrl Pts',(-34.1978005920429,42.5784544381644,-4.05846814686873));
#1207=CARTESIAN_POINT('Ctrl Pts',(-34.2338667259988,42.5824102418156,-4.01708391356875));
#1208=CARTESIAN_POINT('Ctrl Pts',(-34.2720712083179,42.5855697922202,-3.95472865730812));
#1209=CARTESIAN_POINT('Ctrl Pts',(-34.2811814987616,42.5861957729491,-3.93756281633027));
#1210=CARTESIAN_POINT('Ctrl Pts',(-34.2939013661927,42.586780774418,-3.90885337786537));
#1211=CARTESIAN_POINT('Ctrl Pts',(-34.2982892066161,42.5869017316306,-3.89762119306263));
#1212=CARTESIAN_POINT('Ctrl Pts',(-34.3055800239079,42.5869141309225,-3.87590016573426));
#1213=CARTESIAN_POINT('Ctrl Pts',(-34.3085802015917,42.5868256601114,-3.86544477087985));
#1214=CARTESIAN_POINT('Ctrl Pts',(-34.314221732815,42.5863983434292,-3.84152609969361));
#1215=CARTESIAN_POINT('Ctrl Pts',(-34.3165479500242,42.5859986771554,-3.82802042473621));
#1216=CARTESIAN_POINT('Ctrl Pts',(-34.3205664620133,42.5843905077482,-3.78944938677483));
#1217=CARTESIAN_POINT('Ctrl Pts',(-34.3200525510038,42.5827894723236,-3.76445095614918));
#1218=CARTESIAN_POINT('Ctrl Pts',(-34.3115624729407,42.5782947593397,-3.71209023864586));
#1219=CARTESIAN_POINT('Ctrl Pts',(-34.3027510292262,42.575330541165,-3.68563618375838));
#1220=CARTESIAN_POINT('Ctrl Pts',(-34.2756626201724,42.5684308488127,-3.63380819761004));
#1221=CARTESIAN_POINT('Ctrl Pts',(-34.2570319241082,42.5645631096369,-3.60970739212197));
#1222=CARTESIAN_POINT('Ctrl Pts',(-34.2073941917218,42.5561203013343,-3.56206290972101));
#1223=CARTESIAN_POINT('Ctrl Pts',(-34.1750204930118,42.5517412348719,-3.54085477738646));
#1224=CARTESIAN_POINT('Ctrl Pts',(-34.0908559141108,42.5429783613814,-3.50052776260925));
#1225=CARTESIAN_POINT('Ctrl Pts',(-34.036469996003,42.5394036338885,-3.48612154314943));
#1226=CARTESIAN_POINT('Ctrl Pts',(-33.9518979123895,42.5366122444387,-3.4747853812005));
#1227=CARTESIAN_POINT('Ctrl Pts',(-33.9209727519565,42.5361096288571,-3.47279140474769));
#1228=CARTESIAN_POINT('Ctrl Pts',(-33.8894442300749,42.5361096272722,-3.47279139841091));
#1229=CARTESIAN_POINT('',(-6.44531215674673,42.5361096272704,-31.4159624508511));
#1230=CARTESIAN_POINT('Origin',(7.94377134993844,42.5361096272724,10.1647335529257));
#1231=CARTESIAN_POINT('Ctrl Pts',(-5.62036205940053,42.5361096272717,-31.6923362074754));
#1232=CARTESIAN_POINT('Ctrl Pts',(-5.62036206269378,42.5361096280953,-31.7428391257679));
#1233=CARTESIAN_POINT('Ctrl Pts',(-5.62547624521587,42.5374140484048,-31.7916109256258));
#1234=CARTESIAN_POINT('Ctrl Pts',(-5.64861712733616,42.5429732432012,-31.8945731396001));
#1235=CARTESIAN_POINT('Ctrl Pts',(-5.66936134025492,42.5478406373314,-31.9458375959716));
#1236=CARTESIAN_POINT('Ctrl Pts',(-5.71821991869957,42.5576786718088,-32.0207995555715));
#1237=CARTESIAN_POINT('Ctrl Pts',(-5.74405540162871,42.5624978710335,-32.0494863806383));
#1238=CARTESIAN_POINT('Ctrl Pts',(-5.801433137134,42.5712941617652,-32.0911903734855));
#1239=CARTESIAN_POINT('Ctrl Pts',(-5.83055546557466,42.5751301746504,-32.1053316051567));
#1240=CARTESIAN_POINT('Ctrl Pts',(-5.89134115236075,42.5812632378559,-32.1215394238521));
#1241=CARTESIAN_POINT('Ctrl Pts',(-5.92151713275614,42.5835341555799,-32.1241610153932));
#1242=CARTESIAN_POINT('Ctrl Pts',(-5.96678628709733,42.5856894532356,-32.1210460135308));
#1243=CARTESIAN_POINT('Ctrl Pts',(-5.98154315476055,42.5861975109767,-32.1189228187297));
#1244=CARTESIAN_POINT('Ctrl Pts',(-6.00695483828221,42.5867456668532,-32.1134896562373));
#1245=CARTESIAN_POINT('Ctrl Pts',(-6.01765903689443,42.5868737738226,-32.110640951332));
#1246=CARTESIAN_POINT('Ctrl Pts',(-6.03922938415225,42.5869319101876,-32.1038225739253));
#1247=CARTESIAN_POINT('Ctrl Pts',(-6.05008009277705,42.5868547138177,-32.0998189745884));
#1248=CARTESIAN_POINT('Ctrl Pts',(-6.07658394088978,42.5864190792931,-32.0886980937065));
#1249=CARTESIAN_POINT('Ctrl Pts',(-6.09202799266993,42.5859440813825,-32.0810179453172));
#1250=CARTESIAN_POINT('Ctrl Pts',(-6.13966688965645,42.5838630436895,-32.0538370301409));
#1251=CARTESIAN_POINT('Ctrl Pts',(-6.17020870532494,42.5815830399576,-32.0310602150583));
#1252=CARTESIAN_POINT('Ctrl Pts',(-6.2645806609287,42.5723578035783,-31.9453745993399));
#1253=CARTESIAN_POINT('Ctrl Pts',(-6.32192928545767,42.5627204407823,-31.8656502625178));
#1254=CARTESIAN_POINT('Ctrl Pts',(-6.405587952752,42.5460582305808,-31.6856243935346));
#1255=CARTESIAN_POINT('Ctrl Pts',(-6.43223471013855,42.539353565233,-31.5890178286594));
#1256=CARTESIAN_POINT('Ctrl Pts',(-6.44407831086996,42.5364197033071,-31.4662983410442));
#1257=CARTESIAN_POINT('Ctrl Pts',(-6.44531215502277,42.5361096277003,-31.4409053444666));
#1258=CARTESIAN_POINT('Ctrl Pts',(-6.44531215673656,42.5361096272717,-31.4159624508511));
#1259=CARTESIAN_POINT('Origin',(-6.03283710806856,40.8869085072665,-33.9352664470618));
#1260=CARTESIAN_POINT('',(-4.33283710806855,40.8869085072665,-36.7352664470618));
#1261=CARTESIAN_POINT('Origin',(-6.03283710806856,40.8869085072665,-36.7352664470618));
#1262=CARTESIAN_POINT('',(-4.33283710806856,40.8869085072665,-32.0878981811486));
#1263=CARTESIAN_POINT('',(-4.33283710806856,40.8869085072665,-33.9352664470618));
#1264=CARTESIAN_POINT('Ctrl Pts',(-5.62036205938959,42.5361096272689,-31.6923362074754));
#1265=CARTESIAN_POINT('Ctrl Pts',(-5.53892069810043,42.5157406564656,-31.718727961214));
#1266=CARTESIAN_POINT('Ctrl Pts',(-5.45819203472141,42.4890949023644,-31.7446228666054));
#1267=CARTESIAN_POINT('Ctrl Pts',(-5.1682158068532,42.3684363796911,-31.8367552454658));
#1268=CARTESIAN_POINT('Ctrl Pts',(-4.97378307940571,42.2347489665077,-31.896681822108));
#1269=CARTESIAN_POINT('Ctrl Pts',(-4.67402095007161,41.9294733340563,-31.987544462094));
#1270=CARTESIAN_POINT('Ctrl Pts',(-4.54590795105618,41.7409294157037,-32.0255001616386));
#1271=CARTESIAN_POINT('Ctrl Pts',(-4.37528795838084,41.3260450442676,-32.0756344330441));
#1272=CARTESIAN_POINT('Ctrl Pts',(-4.33283710806857,41.0996918013892,-32.0878981811486));
#1273=CARTESIAN_POINT('Ctrl Pts',(-4.33283710806856,40.8869085072665,-32.0878981811486));
#1274=CARTESIAN_POINT('',(-6.44210462436248,39.23690847693,-31.4170722853484));
#1275=CARTESIAN_POINT('Ctrl Pts',(-6.44210462436248,39.2369084769312,-31.4170722853484));
#1276=CARTESIAN_POINT('Ctrl Pts',(-6.52284015040152,39.2569341906349,-31.3891405678873));
#1277=CARTESIAN_POINT('Ctrl Pts',(-6.60279139314833,39.2830982712284,-31.36121372143));
#1278=CARTESIAN_POINT('Ctrl Pts',(-6.88972572369949,39.4013205117814,-31.2600972013164));
#1279=CARTESIAN_POINT('Ctrl Pts',(-7.08192400175009,39.5318323449138,-31.1904965023297));
#1280=CARTESIAN_POINT('Ctrl Pts',(-7.38310179667537,39.8330101398391,-31.0798041279466));
#1281=CARTESIAN_POINT('Ctrl Pts',(-7.51397385175148,40.0222115411624,-31.0307377731599));
#1282=CARTESIAN_POINT('Ctrl Pts',(-7.68889053351627,40.4408660474319,-30.9646796089251));
#1283=CARTESIAN_POINT('Ctrl Pts',(-7.73283710806856,40.670384587327,-30.9478430138844));
#1284=CARTESIAN_POINT('Ctrl Pts',(-7.73283710806856,41.0999628623428,-30.9478430138844));
#1285=CARTESIAN_POINT('Ctrl Pts',(-7.69027338192603,41.326082579012,-30.9641479521439));
#1286=CARTESIAN_POINT('Ctrl Pts',(-7.52039931188643,41.7396262945479,-31.0283201598097));
#1287=CARTESIAN_POINT('Ctrl Pts',(-7.393186969217,41.927113571847,-31.0760389311975));
#1288=CARTESIAN_POINT('Ctrl Pts',(-7.09538533717862,42.2320226327836,-31.1856058133852));
#1289=CARTESIAN_POINT('Ctrl Pts',(-6.90138866459503,42.3662175631309,-31.2559336918551));
#1290=CARTESIAN_POINT('Ctrl Pts',(-6.61006575701635,42.4882320283919,-31.3586687286278));
#1291=CARTESIAN_POINT('Ctrl Pts',(-6.52811435593413,42.5154003027809,-31.3873085835347));
#1292=CARTESIAN_POINT('Ctrl Pts',(-6.44531215674673,42.5361096272692,-31.4159624508511));
#1293=CARTESIAN_POINT('',(-5.62356959177357,39.2369084769301,-31.6912966439939));
#1294=CARTESIAN_POINT('Ctrl Pts',(-6.44210462435309,39.2369084769288,-31.4170722853484));
#1295=CARTESIAN_POINT('Ctrl Pts',(-6.44210462062613,39.2369084760044,-31.4708634298983));
#1296=CARTESIAN_POINT('Ctrl Pts',(-6.43632730987928,39.2354438750023,-31.5264650157228));
#1297=CARTESIAN_POINT('Ctrl Pts',(-6.41045993056341,39.2293141981067,-31.6515846345588));
#1298=CARTESIAN_POINT('Ctrl Pts',(-6.38745858948872,39.2240134149374,-31.7196993152613));
#1299=CARTESIAN_POINT('Ctrl Pts',(-6.3384173066557,39.2144938668894,-31.8210868136098));
#1300=CARTESIAN_POINT('Ctrl Pts',(-6.31714102230189,39.2106731757556,-31.8576985113381));
#1301=CARTESIAN_POINT('Ctrl Pts',(-6.2622044731662,39.2021634864553,-31.9360943926354));
#1302=CARTESIAN_POINT('Ctrl Pts',(-6.22624401497636,39.1974513014662,-31.977138002169));
#1303=CARTESIAN_POINT('Ctrl Pts',(-6.18552061143255,39.1937789352017,-32.0121880531205));
#1304=CARTESIAN_POINT('Ctrl Pts',(-6.15829642378239,39.1913239049339,-32.0356195220356));
#1305=CARTESIAN_POINT('Ctrl Pts',(-6.12874483101205,39.1893234958697,-32.0565281226117));
#1306=CARTESIAN_POINT('Ctrl Pts',(-6.08356276189126,39.1876102403999,-32.0809165642331));
#1307=CARTESIAN_POINT('Ctrl Pts',(-6.06949927259444,39.1872430611609,-32.0875697013174));
#1308=CARTESIAN_POINT('Ctrl Pts',(-6.04483026055898,39.1869196539722,-32.0974900656259));
#1309=CARTESIAN_POINT('Ctrl Pts',(-6.03438336772463,39.1868763227257,-32.1011798975627));
#1310=CARTESIAN_POINT('Ctrl Pts',(-6.01311647038471,39.1869892648059,-32.1075978124673));
#1311=CARTESIAN_POINT('Ctrl Pts',(-6.00230021758099,39.1871477792058,-32.1103126565342));
#1312=CARTESIAN_POINT('Ctrl Pts',(-5.9757515479849,39.187795195919,-32.1155524643518));
#1313=CARTESIAN_POINT('Ctrl Pts',(-5.95995580181204,39.1883973907412,-32.117476983175));
#1314=CARTESIAN_POINT('Ctrl Pts',(-5.91318995378105,39.1908414772718,-32.1193310497094));
#1315=CARTESIAN_POINT('Ctrl Pts',(-5.88270340620029,39.1932946346952,-32.1155949804997));
#1316=CARTESIAN_POINT('Ctrl Pts',(-5.82617688849718,39.1992944322545,-32.0980197672739));
#1317=CARTESIAN_POINT('Ctrl Pts',(-5.80093899976015,39.2026391712185,-32.085212990764));
#1318=CARTESIAN_POINT('Ctrl Pts',(-5.75121778796679,39.2101788223073,-32.049320391581));
#1319=CARTESIAN_POINT('Ctrl Pts',(-5.72834436760187,39.2142855222362,-32.0254874823626));
#1320=CARTESIAN_POINT('Ctrl Pts',(-5.68341783917453,39.2229999659524,-31.9630142756851));
#1321=CARTESIAN_POINT('Ctrl Pts',(-5.6644833842519,39.2272384979807,-31.9224882632558));
#1322=CARTESIAN_POINT('Ctrl Pts',(-5.63179367418728,39.234771664752,-31.8198864683434));
#1323=CARTESIAN_POINT('Ctrl Pts',(-5.62356959598297,39.2369084758873,-31.7551262449306));
#1324=CARTESIAN_POINT('Ctrl Pts',(-5.62356959178407,39.2369084769288,-31.6912966439939));
#1325=CARTESIAN_POINT('Ctrl Pts',(-4.33283710806856,40.8869085072665,-32.0878981811486));
#1326=CARTESIAN_POINT('Ctrl Pts',(-4.33283710806856,40.6714718157976,-32.0878981811486));
#1327=CARTESIAN_POINT('Ctrl Pts',(-4.37634388615467,40.4424974167847,-32.0753307898908));
#1328=CARTESIAN_POINT('Ctrl Pts',(-4.55085726872383,40.0236549451122,-32.0240390163341));
#1329=CARTESIAN_POINT('Ctrl Pts',(-4.68180795997757,39.8337745993232,-31.9852246730895));
#1330=CARTESIAN_POINT('Ctrl Pts',(-4.98420865713481,39.531373902166,-31.8934767306973));
#1331=CARTESIAN_POINT('Ctrl Pts',(-5.17723992928365,39.4005437674067,-31.8339261798548));
#1332=CARTESIAN_POINT('Ctrl Pts',(-5.46404317201364,39.2827116311888,-31.7427488792118));
#1333=CARTESIAN_POINT('Ctrl Pts',(-5.54347363403479,39.2567755515292,-31.7172591910763));
#1334=CARTESIAN_POINT('Ctrl Pts',(-5.62356959177357,39.2369084769314,-31.6912966439939));
#1335=CARTESIAN_POINT('Origin',(-38.9905088001923,40.8869085072661,-3.885266447075));
#1336=CARTESIAN_POINT('',(-38.9905088001923,39.1869085072661,-3.88526644707502));
#1337=CARTESIAN_POINT('Origin',(-38.9905088002124,40.8869085072661,-3.885266447075));
#1338=CARTESIAN_POINT('',(-34.2981384086793,39.1869085072661,-3.88526644718013));
#1339=CARTESIAN_POINT('',(-38.9905088001923,39.1869085072661,-3.88526644707502));
#1340=CARTESIAN_POINT('',(-33.6125710705738,39.2369084769308,-4.29453396337455));
#1341=CARTESIAN_POINT('Ctrl Pts',(-34.2981384086793,39.1869085072661,-3.88526644728525));
#1342=CARTESIAN_POINT('Ctrl Pts',(-34.2946531669027,39.1869085072674,-3.89574497172049));
#1343=CARTESIAN_POINT('Ctrl Pts',(-34.2906796025523,39.1870055384746,-3.90610550570669));
#1344=CARTESIAN_POINT('Ctrl Pts',(-34.2791378758781,39.1874931988371,-3.93279764185596));
#1345=CARTESIAN_POINT('Ctrl Pts',(-34.2708721620975,39.1880271052602,-3.94886625946328));
#1346=CARTESIAN_POINT('Ctrl Pts',(-34.2460968429874,39.1899795681185,-3.9907456353981));
#1347=CARTESIAN_POINT('Ctrl Pts',(-34.2278869484803,39.1917495550928,-4.01554970429949));
#1348=CARTESIAN_POINT('Ctrl Pts',(-34.2078953800919,39.1938414271668,-4.03864135468421));
#1349=CARTESIAN_POINT('Ctrl Pts',(-34.1528103003205,39.199605404151,-4.10226844880619));
#1350=CARTESIAN_POINT('Ctrl Pts',(-34.0796326894082,39.208387786398,-4.15827667752723));
#1351=CARTESIAN_POINT('Ctrl Pts',(-33.910374731691,39.2246832742752,-4.2442513674754));
#1352=CARTESIAN_POINT('Ctrl Pts',(-33.817752922193,39.2317516068491,-4.27339017953351));
#1353=CARTESIAN_POINT('Ctrl Pts',(-33.6862534957104,39.2362468237772,-4.29189385223891));
#1354=CARTESIAN_POINT('Ctrl Pts',(-33.6489431154768,39.2369084751247,-4.29453395608758));
#1355=CARTESIAN_POINT('Ctrl Pts',(-33.6125710705738,39.2369084769294,-4.29453396336336));
#1356=CARTESIAN_POINT('',(-33.1407453484128,40.8869085072661,-5.58526644707498));
#1357=CARTESIAN_POINT('Ctrl Pts',(-33.6125710705738,39.2369084769322,-4.29453396337455));
#1358=CARTESIAN_POINT('Ctrl Pts',(-33.583374345468,39.2577221383919,-4.37844617402458));
#1359=CARTESIAN_POINT('Ctrl Pts',(-33.5541848171953,39.2851680799387,-4.4615083126551));
#1360=CARTESIAN_POINT('Ctrl Pts',(-33.4504891375899,39.407644786595,-4.75390354954977));
#1361=CARTESIAN_POINT('Ctrl Pts',(-33.3797592568927,39.5418756385187,-4.94793237813782));
#1362=CARTESIAN_POINT('Ctrl Pts',(-33.2696041653369,39.846820597899,-5.24569473956748));
#1363=CARTESIAN_POINT('Ctrl Pts',(-33.2216410907888,40.0342692786017,-5.37286864728432));
#1364=CARTESIAN_POINT('Ctrl Pts',(-33.1571370087372,40.4477564549988,-5.54270403779178));
#1365=CARTESIAN_POINT('Ctrl Pts',(-33.1407453484128,40.6738589203612,-5.58526644707498));
#1366=CARTESIAN_POINT('Ctrl Pts',(-33.1407453484128,40.8869085072661,-5.58526644707498));
#1367=CARTESIAN_POINT('Ctrl Pts',(-33.1407453484128,40.8869085072661,-5.58526644707499));
#1368=CARTESIAN_POINT('Ctrl Pts',(-33.1407453484128,41.1034656278431,-5.58526644707499));
#1369=CARTESIAN_POINT('Ctrl Pts',(-33.1576773779686,41.3330033969401,-5.5413059868903));
#1370=CARTESIAN_POINT('Ctrl Pts',(-33.2240978435741,41.7516553868775,-5.36637431468199));
#1371=CARTESIAN_POINT('Ctrl Pts',(-33.2734301256289,41.9408357793151,-5.23550223106026));
#1372=CARTESIAN_POINT('Ctrl Pts',(-33.3847285849983,42.2420080912405,-4.93432991913485));
#1373=CARTESIAN_POINT('Ctrl Pts',(-33.4547196545586,42.3725168607615,-4.74211889900211));
#1374=CARTESIAN_POINT('Ctrl Pts',(-33.5560386339259,42.4903034849552,-4.45622374390621));
#1375=CARTESIAN_POINT('Ctrl Pts',(-33.5837404392985,42.5161931107435,-4.37737380676355));
#1376=CARTESIAN_POINT('Ctrl Pts',(-33.611454891113,42.5361096272701,-4.2977414957476));
#1377=CARTESIAN_POINT('',(-33.8883984464008,39.2369084769309,-3.47599893077446));
#1378=CARTESIAN_POINT('Ctrl Pts',(-33.8894442300749,42.5361096272699,-3.47279139840147));
#1379=CARTESIAN_POINT('Ctrl Pts',(-33.9151951918682,42.51635343679,-3.39380011984712));
#1380=CARTESIAN_POINT('Ctrl Pts',(-33.9404785767378,42.4906929268279,-3.31547495772843));
#1381=CARTESIAN_POINT('Ctrl Pts',(-34.0318757642253,42.3732991630844,-3.02971485040102));
#1382=CARTESIAN_POINT('Ctrl Pts',(-34.0918016610972,42.2424701837925,-2.83666506756716));
#1383=CARTESIAN_POINT('Ctrl Pts',(-34.1841266408039,41.9400663673415,-2.53426125111618));
#1384=CARTESIAN_POINT('Ctrl Pts',(-34.22318946399,41.7502021378732,-2.40330963243346));
#1385=CARTESIAN_POINT('Ctrl Pts',(-34.2748148354481,41.3313603499329,-2.22878387610917));
#1386=CARTESIAN_POINT('Ctrl Pts',(-34.2874672381192,41.1023702438017,-2.18526644707499));
#1387=CARTESIAN_POINT('Ctrl Pts',(-34.2874672381192,40.6741322494856,-2.18526644707499));
#1388=CARTESIAN_POINT('Ctrl Pts',(-34.2751241743743,40.4477946191812,-2.22771513523643));
#1389=CARTESIAN_POINT('Ctrl Pts',(-34.2246775030739,40.0329576841984,-2.39830131711014));
#1390=CARTESIAN_POINT('Ctrl Pts',(-34.1864888920754,39.8444453092882,-2.52638187294423));
#1391=CARTESIAN_POINT('Ctrl Pts',(-34.0950644684545,39.5391311875321,-2.826117306831));
#1392=CARTESIAN_POINT('Ctrl Pts',(-34.0347553680231,39.4054111174887,-3.02058547497595));
#1393=CARTESIAN_POINT('Ctrl Pts',(-33.9417230710756,39.2843009468861,-3.31162844862623));
#1394=CARTESIAN_POINT('Ctrl Pts',(-33.9153129967875,39.2573815554111,-3.39345981206724));
#1395=CARTESIAN_POINT('Ctrl Pts',(-33.8883984464008,39.2369084769324,-3.47599893077446));
#1396=CARTESIAN_POINT('Ctrl Pts',(-33.8883984464008,39.2369084769294,-3.47599893078657));
#1397=CARTESIAN_POINT('Ctrl Pts',(-33.9520782888592,39.2369084737275,-3.47599894369529));
#1398=CARTESIAN_POINT('Ctrl Pts',(-34.0127526088477,39.2348128305559,-3.48419622691088));
#1399=CARTESIAN_POINT('Ctrl Pts',(-34.1154682378278,39.2277419795369,-3.51461979186374));
#1400=CARTESIAN_POINT('Ctrl Pts',(-34.1617833662534,39.2229329263965,-3.53580840775837));
#1401=CARTESIAN_POINT('Ctrl Pts',(-34.2307497461425,39.2130105085429,-3.58767736210577));
#1402=CARTESIAN_POINT('Ctrl Pts',(-34.2560369692388,39.2084094845108,-3.61393924206951));
#1403=CARTESIAN_POINT('Ctrl Pts',(-34.2922572286629,39.2001511307361,-3.67175722224652));
#1404=CARTESIAN_POINT('Ctrl Pts',(-34.3040154718827,39.1966086805334,-3.70118791547648));
#1405=CARTESIAN_POINT('Ctrl Pts',(-34.3152550939834,39.1914273760281,-3.75867263081706));
#1406=CARTESIAN_POINT('Ctrl Pts',(-34.316354152123,39.1896408301679,-3.78528331200668));
#1407=CARTESIAN_POINT('Ctrl Pts',(-34.3125629210818,39.187900903331,-3.82560786004059));
#1408=CARTESIAN_POINT('Ctrl Pts',(-34.3103484624858,39.1874797879542,-3.83918642475785));
#1409=CARTESIAN_POINT('Ctrl Pts',(-34.3048983666609,39.1870207558703,-3.86310736609694));
#1410=CARTESIAN_POINT('Ctrl Pts',(-34.3020025380068,39.1869182342007,-3.87348956549103));
#1411=CARTESIAN_POINT('Ctrl Pts',(-34.2984696313634,39.1869087274896,-3.88426700772664));
#1412=CARTESIAN_POINT('Ctrl Pts',(-34.2983045749184,39.186908507266,-3.88476686157259));
#1413=CARTESIAN_POINT('Ctrl Pts',(-34.2981384086793,39.1869085072661,-3.88526644728525));
#1414=CARTESIAN_POINT('Origin',(7.94377119979529,49.8369088146707,10.1647335529255));
#1415=CARTESIAN_POINT('',(-36.0562288002047,39.2369084769296,10.1647335528791));
#1416=CARTESIAN_POINT('',(-36.0562288002047,49.8369088146708,10.1647335529246));
#1417=CARTESIAN_POINT('Origin',(7.94377134998598,39.2369084769296,10.1647335529231));
#1418=CARTESIAN_POINT('Origin',(7.94377119979529,49.8369088146707,10.1647335529255));
#1419=CARTESIAN_POINT('Origin',(7.94377134998598,39.2369084769296,10.1647335529231));
#1420=CARTESIAN_POINT('Origin',(7.94377134998598,36.5369084769296,10.1647335529231));
#1421=CARTESIAN_POINT('',(-36.0562287999422,33.8369084769296,10.1647335528792));
#1422=CARTESIAN_POINT('Origin',(-36.0562286500138,36.5369084769296,10.1647335528792));
#1423=CARTESIAN_POINT('',(7.94377135002974,33.8369084769288,-33.8352664470744));
#1424=CARTESIAN_POINT('Origin',(7.94377134998598,33.8369084769296,10.1647335529231));
#1425=CARTESIAN_POINT('',(7.94377135002975,39.2369084769288,-33.8352664470744));
#1426=CARTESIAN_POINT('Origin',(7.94377135002975,36.5369084769288,-33.8352664470767));
#1427=CARTESIAN_POINT('Origin',(7.94377134998598,39.2369084769296,10.1647335529231));
#1428=CARTESIAN_POINT('Origin',(-39.990508800216,37.7791584920975,11.1647335529248));
#1429=CARTESIAN_POINT('',(-40.990508800199,31.9369081998619,11.1647335529248));
#1430=CARTESIAN_POINT('',(-39.9905088002159,31.9369081998613,12.1647335529247));
#1431=CARTESIAN_POINT('Origin',(-39.9905088002159,31.9369081998622,11.1647335529248));
#1432=CARTESIAN_POINT('',(-39.9905088002162,49.8369088146698,12.1647335529247));
#1433=CARTESIAN_POINT('',(-39.990508800216,37.7791584920975,12.1647335529248));
#1434=CARTESIAN_POINT('',(-40.9905088001991,49.8369088146706,11.1647335529247));
#1435=CARTESIAN_POINT('Origin',(-39.9905088002162,49.8369088146711,11.1647335529247));
#1436=CARTESIAN_POINT('',(-40.990508800216,37.7791584920975,11.1647335529248));
#1437=CARTESIAN_POINT('Origin',(-40.9905088002157,34.6714084769292,-33.1352664470742));
#1438=CARTESIAN_POINT('',(-40.9905088001991,49.8369088146711,-27.5352664470749));
#1439=CARTESIAN_POINT('',(-40.9905088001991,49.8369088146711,-30.2352664470762));
#1440=CARTESIAN_POINT('',(-40.9905088002159,43.6869084769287,-27.5352664470749));
#1441=CARTESIAN_POINT('',(-40.9905088002158,37.7791584920982,-27.5352664470748));
#1442=CARTESIAN_POINT('',(-40.9905088001992,43.6869084769305,-38.9352664470723));
#1443=CARTESIAN_POINT('',(-40.9905088002159,43.6869084769288,-33.535266447073));
#1444=CARTESIAN_POINT('',(-40.9905088002125,38.0869084769288,-38.9352664470718));
#1445=CARTESIAN_POINT('',(-40.9905088002028,30.3359540999329,-38.9352664470742));
#1446=CARTESIAN_POINT('',(-40.9905088002158,38.0869084769287,-27.5352664470748));
#1447=CARTESIAN_POINT('',(-40.9905088002158,38.0869084769289,-33.535266447073));
#1448=CARTESIAN_POINT('',(-40.990508800199,31.9369081998628,-27.5352664470748));
#1449=CARTESIAN_POINT('',(-40.9905088002158,37.7791584920982,-27.5352664470748));
#1450=CARTESIAN_POINT('',(-40.990508800199,31.9369081998625,-13.6877664470755));
#1451=CARTESIAN_POINT('',(-40.9905088002158,37.8369085072663,-3.88526644707533));
#1452=CARTESIAN_POINT('Origin',(-40.9905088002158,40.8869085072663,-3.88526644707528));
#1453=CARTESIAN_POINT('Origin',(-1.77700880021298,49.8369088146715,-38.9352664470772));
#1454=CARTESIAN_POINT('',(-36.0562288002014,49.8369088146699,12.1647335529247));
#1455=CARTESIAN_POINT('',(-36.0562288002014,49.8369088146699,12.1647335529247));
#1456=CARTESIAN_POINT('',(-36.0562288002047,49.8369088146707,10.1647335529246));
#1457=CARTESIAN_POINT('',(-36.0562288002014,49.8369088146699,10.1647335529247));
#1458=CARTESIAN_POINT('',(7.94377119979325,49.8369088146715,-33.8352664470744));
#1459=CARTESIAN_POINT('Origin',(7.94377119979529,49.8369088146714,10.1647335529255));
#1460=CARTESIAN_POINT('',(9.94377119979325,49.8369088146715,-33.8352664470724));
#1461=CARTESIAN_POINT('',(7.94377119979325,49.8369088146715,-33.8352664470744));
#1462=CARTESIAN_POINT('',(9.94377119979337,49.8369088146716,-37.9352664470731));
#1463=CARTESIAN_POINT('',(9.94377119979309,49.8369088146715,-28.0827224160324));
#1464=CARTESIAN_POINT('',(8.94377135002814,49.8369088146723,-38.9352664470752));
#1465=CARTESIAN_POINT('Origin',(8.94377135002811,49.8369088146715,-37.935266447074));
#1466=CARTESIAN_POINT('',(-44.4905088002098,49.836908814672,-38.9352664470754));
#1467=CARTESIAN_POINT('',(-6.83869589472827,49.8369088146722,-38.9352664470753));
#1468=CARTESIAN_POINT('',(-45.4905088002133,49.8369088146716,-37.9352664470756));
#1469=CARTESIAN_POINT('Origin',(-44.4905088002099,49.8369088146712,-37.9352664470756));
#1470=CARTESIAN_POINT('',(-45.4905088002133,49.8369088146715,-29.5352664470749));
#1471=CARTESIAN_POINT('',(-45.4905088002133,49.8369088146716,-34.2852664470768));
#1472=CARTESIAN_POINT('',(-44.4905088002099,49.8369088146711,-28.5352664470749));
#1473=CARTESIAN_POINT('Origin',(-44.4905088002099,49.8369088146712,-29.5352664470749));
#1474=CARTESIAN_POINT('',(-41.990508800216,49.8369088146711,-28.5352664470749));
#1475=CARTESIAN_POINT('',(-4.00875880020577,49.8369088146713,-28.5352664470752));
#1476=CARTESIAN_POINT('Origin',(-41.990508800216,49.8369088146708,-27.5352664470749));
#1477=CARTESIAN_POINT('Origin',(8.94377135002814,30.3359540999321,-37.935266447074));
#1478=CARTESIAN_POINT('',(9.94377135002813,31.9369081998633,-37.935266447073));
#1479=CARTESIAN_POINT('',(9.94377135002814,30.3359540999321,-37.935266447073));
#1480=CARTESIAN_POINT('',(8.94377135002816,31.936908199864,-38.9352664470738));
#1481=CARTESIAN_POINT('Origin',(8.94377135002813,31.9369081998625,-37.935266447074));
#1482=CARTESIAN_POINT('',(8.94377135002817,30.3359540999321,-38.935266447074));
#1483=CARTESIAN_POINT('Origin',(9.94377135002335,31.9369081998631,-33.1352664470729));
#1484=CARTESIAN_POINT('',(9.94377134993535,47.2361096272717,-33.8352664470719));
#1485=CARTESIAN_POINT('',(9.94377135002403,49.8369088146707,-33.8352664470724));
#1486=CARTESIAN_POINT('',(9.94377134993535,43.2361096272717,-33.8352664470719));
#1487=CARTESIAN_POINT('Origin',(9.94377134993528,45.2361096272717,-33.8352664470747));
#1488=CARTESIAN_POINT('',(9.94377134993535,38.5369084769288,-33.8352664470768));
#1489=CARTESIAN_POINT('',(9.94377134993528,47.8361096272717,-33.8352664470719));
#1490=CARTESIAN_POINT('',(9.94377134993535,34.5369084769288,-33.8352664470726));
#1491=CARTESIAN_POINT('Origin',(9.94377134993528,36.5369084769288,-33.8352664470747));
#1492=CARTESIAN_POINT('',(9.94377135002405,31.9369081998632,-33.8352664470724));
#1493=CARTESIAN_POINT('',(9.94377134993535,39.1369084769288,-33.8352664470775));
#1494=CARTESIAN_POINT('',(9.94377135000976,31.9369081998628,-19.4877664470618));
#1495=CARTESIAN_POINT('Origin',(-41.9905088002158,37.7791584920982,-27.5352664470749));
#1496=CARTESIAN_POINT('',(-41.9905088002158,38.0869084769287,-28.5352664470749));
#1497=CARTESIAN_POINT('Origin',(-41.9905088002158,38.0869084769287,-27.5352664470749));
#1498=CARTESIAN_POINT('',(-41.9905088002157,31.9369081998632,-28.5352664470748));
#1499=CARTESIAN_POINT('',(-41.9905088002158,37.7791584920982,-28.5352664470749));
#1500=CARTESIAN_POINT('Origin',(-41.9905088002157,31.936908199862,-27.5352664470748));
#1501=CARTESIAN_POINT('Origin',(-6.24050880019858,40.8869085072679,-28.5352664470751));
#1502=CARTESIAN_POINT('',(-42.9905088001991,38.0869084769301,-28.5352664470748));
#1503=CARTESIAN_POINT('',(-5.96550880020738,38.0869084769294,-28.5352664470751));
#1504=CARTESIAN_POINT('',(-42.9905088001995,43.68690847693,-28.5352664470749));
#1505=CARTESIAN_POINT('',(-42.9905088002161,40.2791584920982,-28.5352664470749));
#1506=CARTESIAN_POINT('',(-41.9905088002159,43.6869084769286,-28.5352664470749));
#1507=CARTESIAN_POINT('',(-4.96550880020756,43.6869084769295,-28.5352664470751));
#1508=CARTESIAN_POINT('',(-41.9905088002158,37.7791584920982,-28.5352664470749));
#1509=CARTESIAN_POINT('',(-44.4905088002098,31.9369081998632,-28.5352664470748));
#1510=CARTESIAN_POINT('',(-44.4905088002099,59.4521482055684,-28.5352664470749));
#1511=CARTESIAN_POINT('',(-10.6154158508836,31.9369081998631,-28.5352664470751));
#1512=CARTESIAN_POINT('Origin',(-41.9905088002158,37.7791584920982,-27.5352664470749));
#1513=CARTESIAN_POINT('Origin',(-41.9905088002159,43.6869084769288,-27.5352664470749));
#1514=CARTESIAN_POINT('Origin',(-44.49050880021,59.4521482055684,-29.5352664470749));
#1515=CARTESIAN_POINT('',(-45.4905088002065,31.9369081998638,-29.5352664470748));
#1516=CARTESIAN_POINT('',(-45.49050880021,59.4521482055683,-29.5352664470749));
#1517=CARTESIAN_POINT('Origin',(-44.4905088002098,31.9369081998623,-29.5352664470748));
#1518=CARTESIAN_POINT('Origin',(-45.4905088002101,78.017387903869,-29.6352664470764));
#1519=CARTESIAN_POINT('',(-45.4905088002065,31.9369081998638,-37.9352664470755));
#1520=CARTESIAN_POINT('',(-45.4905088002099,53.376193951935,-37.9352664470756));
#1521=CARTESIAN_POINT('',(-45.4905088002065,31.9369081998638,-33.1352664470751));
#1522=CARTESIAN_POINT('Origin',(-44.4905088002099,53.376193951935,-37.9352664470756));
#1523=CARTESIAN_POINT('',(-44.4905088002097,31.9369081998639,-38.9352664471271));
#1524=CARTESIAN_POINT('',(-44.4905088002098,53.376193951935,-38.9352664470756));
#1525=CARTESIAN_POINT('Origin',(-44.4905088002097,31.9369081998623,-37.9352664470755));
#1526=CARTESIAN_POINT('Origin',(-36.0562288002014,31.9369081998617,10.1647335529247));
#1527=CARTESIAN_POINT('',(-36.0562288002014,31.9369081998617,12.1647335529247));
#1528=CARTESIAN_POINT('',(-36.0562287999404,34.5369084769287,12.1647335529247));
#1529=CARTESIAN_POINT('',(-36.0562288002014,31.9369081998617,12.1647335529247));
#1530=CARTESIAN_POINT('',(-36.0562288002047,31.9369081998624,10.1647335529237));
#1531=CARTESIAN_POINT('',(-36.0562288002014,31.9369081998617,10.1647335529247));
#1532=CARTESIAN_POINT('',(-36.0562288002047,49.8369088146708,10.1647335529246));
#1533=CARTESIAN_POINT('',(-36.0562288002046,33.9369084769302,10.1647335529251));
#1534=CARTESIAN_POINT('',(-36.0562288002047,49.8369088146708,10.1647335529246));
#1535=CARTESIAN_POINT('',(-36.0562287999404,34.5369084769287,10.1647335529247));
#1536=CARTESIAN_POINT('',(-36.0562287995911,36.4119083533954,10.1647335529248));
#1537=CARTESIAN_POINT('',(-36.0562287998468,34.5369084769287,10.1647335529247));
#1538=CARTESIAN_POINT('Origin',(-36.0562286500139,36.5369084769294,10.1647335529247));
#1539=CARTESIAN_POINT('',(-36.056228800019,38.5369084769302,10.1647335529247));
#1540=CARTESIAN_POINT('Origin',(-36.0562286500139,36.5369084769294,10.1647335529247));
#1541=CARTESIAN_POINT('',(-36.056228800019,38.5369084769302,12.1647335529247));
#1542=CARTESIAN_POINT('',(-36.056228800019,38.5369084769302,10.1647335529247));
#1543=CARTESIAN_POINT('Origin',(-36.0562286500139,36.5369084769294,12.1647335529247));
#1544=CARTESIAN_POINT('Origin',(-38.5233688000622,40.8869085072656,12.1647335529247));
#1545=CARTESIAN_POINT('',(-40.9905088001956,31.9369081998612,12.1647335529247));
#1546=CARTESIAN_POINT('',(-36.0562288001111,43.2361096272708,12.1647335529247));
#1547=CARTESIAN_POINT('',(-36.0562288002014,47.8361096272715,12.1647335529247));
#1548=CARTESIAN_POINT('',(-36.0562288001896,47.2361096272708,12.1647335529247));
#1549=CARTESIAN_POINT('Origin',(-36.056228650011,45.2361096272708,12.1647335529247));
#1550=CARTESIAN_POINT('',(-36.0562288002014,47.8361096272715,12.1647335529247));
#1551=CARTESIAN_POINT('Origin',(-38.5233688000622,40.8869085072655,10.1647335529247));
#1552=CARTESIAN_POINT('',(-36.0562288002047,49.8369088146708,10.1647335529246));
#1553=CARTESIAN_POINT('Origin',(-6.03283710806856,40.8869085072665,-36.7352664470618));
#1554=CARTESIAN_POINT('',(-2.98283710806856,40.8869085072666,-36.7352664470618));
#1555=CARTESIAN_POINT('Origin',(-6.03283710806856,40.8869085072665,-36.7352664470618));
#1556=CARTESIAN_POINT('Origin',(-6.03283710806856,40.8869085072665,-37.8352664470618));
#1557=CARTESIAN_POINT('',(-2.98283710806856,40.8869085072666,-38.9352664470746));
#1558=CARTESIAN_POINT('Origin',(-6.03283710806856,40.8869085072665,-38.9352664470746));
#1559=CARTESIAN_POINT('',(-2.98283710806856,40.8869085072666,-37.8352664470618));
#1560=CARTESIAN_POINT('Origin',(7.94377119979529,49.8369088146707,10.1647335529255));
#1561=CARTESIAN_POINT('',(7.94377135002403,49.8369088146707,-33.8352664470744));
#1562=CARTESIAN_POINT('Origin',(-5.69050880021626,38.0869084769294,-33.135266447074));
#1563=CARTESIAN_POINT('',(-42.9905088002126,38.0869084769288,-38.9352664470718));
#1564=CARTESIAN_POINT('',(-3.60693876264548,38.0869084769295,-38.935266447072));
#1565=CARTESIAN_POINT('',(-42.9905088002125,38.0869084769296,-33.1352664470738));
#1566=CARTESIAN_POINT('Origin',(-42.990508800216,39.6714084769291,-33.135266447079));
#1567=CARTESIAN_POINT('',(-42.9905088001994,43.6869084769305,-38.935266447077));
#1568=CARTESIAN_POINT('',(-42.9905088002127,40.2791584920988,-38.9352664470722));
#1569=CARTESIAN_POINT('',(-42.9905088002162,43.6869084769291,-33.1352664470789));
#1570=CARTESIAN_POINT('Origin',(-3.69050880021652,43.6869084769295,-33.135266447074));
#1571=CARTESIAN_POINT('',(-2.60693876264575,43.6869084769296,-38.9352664470721));
#1572=CARTESIAN_POINT('Origin',(-36.0562288001896,47.2361096272708,10.1647335529247));
#1573=CARTESIAN_POINT('',(-36.0562288001896,47.2361096272708,10.1647335529247));
#1574=CARTESIAN_POINT('',(-36.0562288002047,49.8369088146708,10.1647335529246));
#1575=CARTESIAN_POINT('',(-36.0562288002047,49.8369088146708,10.1647335529246));
#1576=CARTESIAN_POINT('',(-36.0562288001896,47.2361096272708,10.1647335529247));
#1577=CARTESIAN_POINT('Origin',(7.94377135002403,49.8369088146715,-33.8352664470744));
#1578=CARTESIAN_POINT('',(7.94377135002403,49.8369088146707,-33.8352664470744));
#1579=CARTESIAN_POINT('',(7.94377134993535,47.2361096272717,-33.8352664470719));
#1580=CARTESIAN_POINT('',(7.94377135002403,49.8369088146707,-33.8352664470744));
#1581=CARTESIAN_POINT('',(9.94377134993535,47.2361096272717,-33.8352664470719));
#1582=CARTESIAN_POINT('Origin',(-11.9003829892502,28.7350000000012,-38.9352664470746));
#1583=CARTESIAN_POINT('',(7.94377135002684,31.936908199864,-38.9352664470748));
#1584=CARTESIAN_POINT('Origin',(7.94377135002401,33.9369084769289,-33.8352664470744));
#1585=CARTESIAN_POINT('',(7.94377134993535,34.5369084769288,-33.8352664470726));
#1586=CARTESIAN_POINT('',(7.94377134993535,39.1369084769288,-33.8352664470775));
#1587=CARTESIAN_POINT('',(7.94377135002405,31.9369081998632,-33.8352664470744));
#1588=CARTESIAN_POINT('',(7.94377135002403,49.8369088146707,-33.8352664470744));
#1589=CARTESIAN_POINT('',(7.94377135002405,31.9369081998632,-33.8352664470744));
#1590=CARTESIAN_POINT('',(9.94377134993535,34.5369084769288,-33.8352664470726));
#1591=CARTESIAN_POINT('Origin',(-14.9903229015683,31.9369081998626,-5.84026644707546));
#1592=CARTESIAN_POINT('Origin',(7.94377119979527,31.9369081998625,10.1647335529255));
#1593=CARTESIAN_POINT('Origin',(-40.9905088001959,40.8869085072663,-3.88526644707528));
#1594=CARTESIAN_POINT('',(-38.9905088001959,37.8369085072663,-3.88526644707532));
#1595=CARTESIAN_POINT('',(-40.9905088001959,37.8369085072663,-3.88526644707533));
#1596=CARTESIAN_POINT('Origin',(-38.9905088001959,40.8869085072663,-3.88526644707528));
#1597=CARTESIAN_POINT('Origin',(-36.056228650011,45.2361096272708,10.1647335529247));
#1598=CARTESIAN_POINT('',(-36.0562288001111,43.2361096272707,10.1647335529247));
#1599=CARTESIAN_POINT('Origin',(-36.056228650011,45.2361096272708,10.1647335529247));
#1600=CARTESIAN_POINT('',(-36.0562288001111,43.2361096272707,10.1647335529247));
#1601=CARTESIAN_POINT('Origin',(-38.5233688000622,40.8869085072655,10.1647335529247));
#1602=CARTESIAN_POINT('',(-36.0562288002047,49.8369088146708,10.1647335529246));
#1603=CARTESIAN_POINT('Origin',(7.94377119979529,49.8369088146707,10.1647335529255));
#1604=CARTESIAN_POINT('Origin',(7.94377134993535,45.2361096272717,-35.1352664470733));
#1605=CARTESIAN_POINT('',(7.94377134993535,43.2361096272717,-33.8352664470719));
#1606=CARTESIAN_POINT('',(7.94377135002403,49.8369088146707,-33.8352664470744));
#1607=CARTESIAN_POINT('Origin',(7.94377134993528,45.2361096272717,-33.8352664470747));
#1608=CARTESIAN_POINT('Origin',(9.94377134993528,45.2361096272717,-33.8352664470747));
#1609=CARTESIAN_POINT('',(9.94377134993535,43.2361096272717,-33.8352664470719));
#1610=CARTESIAN_POINT('Origin',(9.94377134993528,36.5369084769288,-33.8352664470747));
#1611=CARTESIAN_POINT('',(7.94377134993535,38.5369084769288,-33.8352664470768));
#1612=CARTESIAN_POINT('',(9.94377134993535,38.5369084769288,-33.8352664470768));
#1613=CARTESIAN_POINT('Origin',(7.94377134993528,36.5369084769288,-33.8352664470747));
#1614=CARTESIAN_POINT('Origin',(7.94377134993535,36.5369084769288,-35.1352664470733));
#1615=CARTESIAN_POINT('',(7.94377135002403,49.8369088146707,-33.8352664470744));
#1616=CARTESIAN_POINT('Origin',(7.94377119979529,49.8369088146707,10.1647335529255));
#1617=CARTESIAN_POINT('Origin',(-38.9905088002124,40.8869085072673,-14.3852664470737));
#1618=CARTESIAN_POINT('Origin',(-36.0562288000189,38.5369084769302,10.1647335529247));
#1619=CARTESIAN_POINT('Origin',(7.94377135002402,42.6361096272718,-33.8352664470744));
#1620=UNCERTAINTY_MEASURE_WITH_UNIT(LENGTH_MEASURE(0.01),#1624,
'DISTANCE_ACCURACY_VALUE',
'Maximum model space distance between geometric entities at asserted c
onnectivities');
#1621=UNCERTAINTY_MEASURE_WITH_UNIT(LENGTH_MEASURE(0.01),#1624,
'DISTANCE_ACCURACY_VALUE',
'Maximum model space distance between geometric entities at asserted c
onnectivities');
#1622=(
GEOMETRIC_REPRESENTATION_CONTEXT(3)
GLOBAL_UNCERTAINTY_ASSIGNED_CONTEXT((#1620))
GLOBAL_UNIT_ASSIGNED_CONTEXT((#1624,#1626,#1627))
REPRESENTATION_CONTEXT('','3D')
);
#1623=(
GEOMETRIC_REPRESENTATION_CONTEXT(3)
GLOBAL_UNCERTAINTY_ASSIGNED_CONTEXT((#1621))
GLOBAL_UNIT_ASSIGNED_CONTEXT((#1624,#1626,#1627))
REPRESENTATION_CONTEXT('','3D')
);
#1624=(
LENGTH_UNIT()
NAMED_UNIT(*)
SI_UNIT(.MILLI.,.METRE.)
);
#1625=(
LENGTH_UNIT()
NAMED_UNIT(*)
SI_UNIT($,.METRE.)
);
#1626=(
NAMED_UNIT(*)
PLANE_ANGLE_UNIT()
SI_UNIT($,.RADIAN.)
);
#1627=(
NAMED_UNIT(*)
SI_UNIT($,.STERADIAN.)
SOLID_ANGLE_UNIT()
);
#1628=SHAPE_DEFINITION_REPRESENTATION(#1629,#1630);
#1629=PRODUCT_DEFINITION_SHAPE('',$,#1632);
#1630=SHAPE_REPRESENTATION('',(#858),#1622);
#1631=PRODUCT_DEFINITION_CONTEXT('part definition',#1636,'design');
#1632=PRODUCT_DEFINITION('rope-right-angle-top','rope-right-angle-top',
#1633,#1631);
#1633=PRODUCT_DEFINITION_FORMATION('',$,#1638);
#1634=PRODUCT_RELATED_PRODUCT_CATEGORY('rope-right-angle-top',
'rope-right-angle-top',(#1638));
#1635=APPLICATION_PROTOCOL_DEFINITION('international standard',
'automotive_design',2009,#1636);
#1636=APPLICATION_CONTEXT(
'Core Data for Automotive Mechanical Design Process');
#1637=PRODUCT_CONTEXT('part definition',#1636,'mechanical');
#1638=PRODUCT('rope-right-angle-top','rope-right-angle-top',$,(#1637));
#1639=PRESENTATION_STYLE_ASSIGNMENT((#1641));
#1640=PRESENTATION_STYLE_ASSIGNMENT((#1642));
#1641=SURFACE_STYLE_USAGE(.BOTH.,#1643);
#1642=SURFACE_STYLE_USAGE(.BOTH.,#1644);
#1643=SURFACE_SIDE_STYLE('',(#1645));
#1644=SURFACE_SIDE_STYLE('',(#1646));
#1645=SURFACE_STYLE_FILL_AREA(#1647);
#1646=SURFACE_STYLE_FILL_AREA(#1648);
#1647=FILL_AREA_STYLE('Steel - Satin',(#1649));
#1648=FILL_AREA_STYLE('ABS (White)',(#1650));
#1649=FILL_AREA_STYLE_COLOUR('Steel - Satin',#1651);
#1650=FILL_AREA_STYLE_COLOUR('ABS (White)',#1652);
#1651=COLOUR_RGB('Steel - Satin',0.627450980392157,0.627450980392157,0.627450980392157);
#1652=COLOUR_RGB('ABS (White)',0.964705882352941,0.964705882352941,0.952941176470588);
ENDSEC;
END-ISO-10303-21;
