ISO-10303-21;
HEADER;
/* Generated by software containing ST-Developer
 * from STEP Tools, Inc. (www.steptools.com) 
 */

FILE_DESCRIPTION(
/* description */ (''),
/* implementation_level */ '2;1');

FILE_NAME(
/* name */ 'rope-elbow-top.step',
/* time_stamp */ '2026-05-19T10:00:26-07:00',
/* author */ (''),
/* organization */ (''),
/* preprocessor_version */ 'ST-DEVELOPER v20.1',
/* originating_system */ 'Autodesk Translation Framework v15.8.0.0',
/* authorisation */ '');

FILE_SCHEMA (('AUTOMOTIVE_DESIGN { 1 0 10303 214 3 1 1 }'));
ENDSEC;

DATA;
#10=MECHANICAL_DESIGN_GEOMETRIC_PRESENTATION_REPRESENTATION('',(#13),#1530);
#11=SHAPE_REPRESENTATION_RELATIONSHIP('SRR','None',#1537,#12);
#12=ADVANCED_BREP_SHAPE_REPRESENTATION('',(#14),#1529);
#13=STYLED_ITEM('',(#1547),#14);
#14=MANIFOLD_SOLID_BREP('Body1',#836);
#15=TOROIDAL_SURFACE('',#932,44.,2.6);
#16=TOROIDAL_SURFACE('',#934,44.,2.6);
#17=PLANE('',#853);
#18=PLANE('',#872);
#19=PLANE('',#875);
#20=PLANE('',#878);
#21=PLANE('',#882);
#22=PLANE('',#883);
#23=PLANE('',#884);
#24=PLANE('',#885);
#25=PLANE('',#886);
#26=PLANE('',#888);
#27=PLANE('',#891);
#28=PLANE('',#894);
#29=PLANE('',#898);
#30=PLANE('',#900);
#31=PLANE('',#902);
#32=PLANE('',#910);
#33=PLANE('',#911);
#34=PLANE('',#912);
#35=PLANE('',#915);
#36=PLANE('',#919);
#37=PLANE('',#925);
#38=PLANE('',#929);
#39=PLANE('',#931);
#40=PLANE('',#933);
#41=FACE_BOUND('',#98,.T.);
#42=FACE_BOUND('',#114,.T.);
#43=FACE_BOUND('',#115,.T.);
#44=FACE_BOUND('',#125,.T.);
#45=FACE_BOUND('',#129,.T.);
#46=FACE_BOUND('',#130,.T.);
#47=FACE_BOUND('',#143,.T.);
#48=B_SPLINE_CURVE_WITH_KNOTS('',3,(#1196,#1197,#1198,#1199,#1200,#1201,
#1202,#1203,#1204,#1205,#1206,#1207,#1208,#1209,#1210,#1211,#1212,#1213,
#1214,#1215,#1216,#1217,#1218,#1219,#1220,#1221,#1222,#1223,#1224,#1225,
#1226,#1227,#1228,#1229,#1230),.UNSPECIFIED.,.F.,.F.,(4,2,2,2,2,2,2,2,3,
2,2,2,2,2,2,2,4),(1.01581814277656,1.04825781205908,1.16313082368947,1.28259661433154,
1.40206240497361,1.51973834531832,1.63741428566303,1.7520919432602,1.86676960085737,
1.98144725845455,2.09612491605172,2.21380085639643,2.33147679674114,2.45094258738321,
2.57040837802528,2.68528138965567,2.71772105893815),.UNSPECIFIED.);
#49=B_SPLINE_CURVE_WITH_KNOTS('',3,(#1395,#1396,#1397,#1398,#1399,#1400,
#1401,#1402,#1403,#1404,#1405,#1406,#1407,#1408,#1409,#1410,#1411,#1412,
#1413,#1414,#1415,#1416,#1417,#1418,#1419,#1420,#1421,#1422,#1423,#1424,
#1425,#1426,#1427,#1428),.UNSPECIFIED.,.T.,.F.,(4,2,2,2,2,2,2,2,2,2,2,2,
2,2,2,2,4),(0.,0.0646310074406795,0.129262014881359,0.195848019826275,0.262434024771191,
0.329500345581678,0.396566666392165,0.461523842374033,0.5264810183559,0.590397324878792,
0.654313631401683,0.722417862766825,0.790522094131966,0.857902923831515,
0.925283753531064,0.989118741767856,1.05295373000465),.UNSPECIFIED.);
#50=B_SPLINE_CURVE_WITH_KNOTS('',3,(#1439,#1440,#1441,#1442,#1443,#1444,
#1445,#1446,#1447,#1448),.UNSPECIFIED.,.F.,.F.,(4,2,2,2,4),(0.78915065697401,
0.857299855009842,0.925449053045674,0.98936392911713,1.05327880518858),
 .UNSPECIFIED.);
#51=B_SPLINE_CURVE_WITH_KNOTS('',3,(#1449,#1450,#1451,#1452,#1453,#1454,
#1455,#1456,#1457,#1458,#1459,#1460,#1461,#1462,#1463,#1464,#1465,#1466,
#1467,#1468,#1469,#1470,#1471,#1472,#1473,#1474),.UNSPECIFIED.,.F.,.F.,
(4,2,2,2,2,2,2,2,2,2,2,2,4),(0.,0.0649671361730971,0.129934272346194,0.197034233892053,
0.264134195437911,0.330750401804465,0.39736660817102,0.462005129131699,
0.526643650092379,0.590476527426527,0.654309404760675,0.721730030867342,
0.78915065697401),.UNSPECIFIED.);
#52=FACE_OUTER_BOUND('',#97,.T.);
#53=FACE_OUTER_BOUND('',#99,.T.);
#54=FACE_OUTER_BOUND('',#100,.T.);
#55=FACE_OUTER_BOUND('',#101,.T.);
#56=FACE_OUTER_BOUND('',#102,.T.);
#57=FACE_OUTER_BOUND('',#103,.T.);
#58=FACE_OUTER_BOUND('',#104,.T.);
#59=FACE_OUTER_BOUND('',#105,.T.);
#60=FACE_OUTER_BOUND('',#106,.T.);
#61=FACE_OUTER_BOUND('',#107,.T.);
#62=FACE_OUTER_BOUND('',#108,.T.);
#63=FACE_OUTER_BOUND('',#109,.T.);
#64=FACE_OUTER_BOUND('',#110,.T.);
#65=FACE_OUTER_BOUND('',#111,.T.);
#66=FACE_OUTER_BOUND('',#112,.T.);
#67=FACE_OUTER_BOUND('',#113,.T.);
#68=FACE_OUTER_BOUND('',#116,.T.);
#69=FACE_OUTER_BOUND('',#117,.T.);
#70=FACE_OUTER_BOUND('',#118,.T.);
#71=FACE_OUTER_BOUND('',#119,.T.);
#72=FACE_OUTER_BOUND('',#120,.T.);
#73=FACE_OUTER_BOUND('',#121,.T.);
#74=FACE_OUTER_BOUND('',#122,.T.);
#75=FACE_OUTER_BOUND('',#123,.T.);
#76=FACE_OUTER_BOUND('',#124,.T.);
#77=FACE_OUTER_BOUND('',#126,.T.);
#78=FACE_OUTER_BOUND('',#127,.T.);
#79=FACE_OUTER_BOUND('',#128,.T.);
#80=FACE_OUTER_BOUND('',#131,.T.);
#81=FACE_OUTER_BOUND('',#132,.T.);
#82=FACE_OUTER_BOUND('',#133,.T.);
#83=FACE_OUTER_BOUND('',#134,.T.);
#84=FACE_OUTER_BOUND('',#135,.T.);
#85=FACE_OUTER_BOUND('',#136,.T.);
#86=FACE_OUTER_BOUND('',#137,.T.);
#87=FACE_OUTER_BOUND('',#138,.T.);
#88=FACE_OUTER_BOUND('',#139,.T.);
#89=FACE_OUTER_BOUND('',#140,.T.);
#90=FACE_OUTER_BOUND('',#141,.T.);
#91=FACE_OUTER_BOUND('',#142,.T.);
#92=FACE_OUTER_BOUND('',#144,.T.);
#93=FACE_OUTER_BOUND('',#145,.T.);
#94=FACE_OUTER_BOUND('',#146,.T.);
#95=FACE_OUTER_BOUND('',#147,.T.);
#96=FACE_OUTER_BOUND('',#148,.T.);
#97=EDGE_LOOP('',(#534,#535,#536,#537));
#98=EDGE_LOOP('',(#538,#539));
#99=EDGE_LOOP('',(#540,#541,#542,#543,#544,#545,#546,#547,#548,#549,#550,
#551,#552,#553,#554,#555));
#100=EDGE_LOOP('',(#556,#557,#558,#559,#560,#561,#562,#563));
#101=EDGE_LOOP('',(#564,#565));
#102=EDGE_LOOP('',(#566,#567,#568,#569));
#103=EDGE_LOOP('',(#570,#571,#572,#573));
#104=EDGE_LOOP('',(#574,#575,#576,#577,#578,#579,#580,#581));
#105=EDGE_LOOP('',(#582,#583,#584,#585));
#106=EDGE_LOOP('',(#586,#587,#588,#589));
#107=EDGE_LOOP('',(#590,#591,#592,#593));
#108=EDGE_LOOP('',(#594,#595,#596,#597,#598,#599,#600,#601,#602,#603,#604,
#605,#606,#607,#608,#609));
#109=EDGE_LOOP('',(#610,#611,#612,#613));
#110=EDGE_LOOP('',(#614,#615,#616,#617));
#111=EDGE_LOOP('',(#618,#619,#620,#621,#622,#623));
#112=EDGE_LOOP('',(#624,#625,#626,#627,#628,#629));
#113=EDGE_LOOP('',(#630,#631,#632,#633));
#114=EDGE_LOOP('',(#634));
#115=EDGE_LOOP('',(#635,#636,#637,#638));
#116=EDGE_LOOP('',(#639,#640,#641,#642));
#117=EDGE_LOOP('',(#643,#644,#645,#646));
#118=EDGE_LOOP('',(#647,#648,#649,#650));
#119=EDGE_LOOP('',(#651,#652,#653,#654,#655,#656,#657,#658));
#120=EDGE_LOOP('',(#659,#660,#661,#662,#663));
#121=EDGE_LOOP('',(#664,#665,#666,#667));
#122=EDGE_LOOP('',(#668,#669,#670,#671,#672,#673,#674,#675));
#123=EDGE_LOOP('',(#676,#677,#678,#679));
#124=EDGE_LOOP('',(#680));
#125=EDGE_LOOP('',(#681));
#126=EDGE_LOOP('',(#682,#683,#684,#685));
#127=EDGE_LOOP('',(#686,#687,#688,#689));
#128=EDGE_LOOP('',(#690,#691,#692,#693));
#129=EDGE_LOOP('',(#694));
#130=EDGE_LOOP('',(#695,#696));
#131=EDGE_LOOP('',(#697,#698,#699,#700,#701));
#132=EDGE_LOOP('',(#702,#703,#704,#705,#706));
#133=EDGE_LOOP('',(#707,#708,#709,#710,#711));
#134=EDGE_LOOP('',(#712,#713,#714,#715));
#135=EDGE_LOOP('',(#716,#717,#718,#719));
#136=EDGE_LOOP('',(#720,#721,#722,#723));
#137=EDGE_LOOP('',(#724,#725,#726,#727));
#138=EDGE_LOOP('',(#728,#729,#730,#731));
#139=EDGE_LOOP('',(#732,#733,#734,#735));
#140=EDGE_LOOP('',(#736,#737,#738,#739));
#141=EDGE_LOOP('',(#740,#741,#742,#743));
#142=EDGE_LOOP('',(#744,#745));
#143=EDGE_LOOP('',(#746));
#144=EDGE_LOOP('',(#747,#748,#749,#750,#751,#752));
#145=EDGE_LOOP('',(#753,#754,#755,#756));
#146=EDGE_LOOP('',(#757,#758,#759,#760,#761,#762));
#147=EDGE_LOOP('',(#763,#764,#765,#766));
#148=EDGE_LOOP('',(#767,#768,#769,#770,#771));
#149=LINE('',#1190,#223);
#150=LINE('',#1193,#224);
#151=LINE('',#1231,#225);
#152=LINE('',#1238,#226);
#153=LINE('',#1242,#227);
#154=LINE('',#1246,#228);
#155=LINE('',#1250,#229);
#156=LINE('',#1252,#230);
#157=LINE('',#1256,#231);
#158=LINE('',#1258,#232);
#159=LINE('',#1261,#233);
#160=LINE('',#1266,#234);
#161=LINE('',#1270,#235);
#162=LINE('',#1273,#236);
#163=LINE('',#1281,#237);
#164=LINE('',#1285,#238);
#165=LINE('',#1288,#239);
#166=LINE('',#1289,#240);
#167=LINE('',#1291,#241);
#168=LINE('',#1293,#242);
#169=LINE('',#1294,#243);
#170=LINE('',#1299,#244);
#171=LINE('',#1300,#245);
#172=LINE('',#1303,#246);
#173=LINE('',#1304,#247);
#174=LINE('',#1309,#248);
#175=LINE('',#1313,#249);
#176=LINE('',#1315,#250);
#177=LINE('',#1319,#251);
#178=LINE('',#1321,#252);
#179=LINE('',#1324,#253);
#180=LINE('',#1327,#254);
#181=LINE('',#1329,#255);
#182=LINE('',#1330,#256);
#183=LINE('',#1332,#257);
#184=LINE('',#1335,#258);
#185=LINE('',#1336,#259);
#186=LINE('',#1339,#260);
#187=LINE('',#1340,#261);
#188=LINE('',#1342,#262);
#189=LINE('',#1345,#263);
#190=LINE('',#1348,#264);
#191=LINE('',#1350,#265);
#192=LINE('',#1353,#266);
#193=LINE('',#1357,#267);
#194=LINE('',#1360,#268);
#195=LINE('',#1363,#269);
#196=LINE('',#1365,#270);
#197=LINE('',#1367,#271);
#198=LINE('',#1368,#272);
#199=LINE('',#1373,#273);
#200=LINE('',#1377,#274);
#201=LINE('',#1380,#275);
#202=LINE('',#1384,#276);
#203=LINE('',#1391,#277);
#204=LINE('',#1394,#278);
#205=LINE('',#1433,#279);
#206=LINE('',#1436,#280);
#207=LINE('',#1477,#281);
#208=LINE('',#1479,#282);
#209=LINE('',#1480,#283);
#210=LINE('',#1483,#284);
#211=LINE('',#1485,#285);
#212=LINE('',#1486,#286);
#213=LINE('',#1489,#287);
#214=LINE('',#1491,#288);
#215=LINE('',#1492,#289);
#216=LINE('',#1496,#290);
#217=LINE('',#1499,#291);
#218=LINE('',#1504,#292);
#219=LINE('',#1508,#293);
#220=LINE('',#1511,#294);
#221=LINE('',#1514,#295);
#222=LINE('',#1526,#296);
#223=VECTOR('',#942,10.);
#224=VECTOR('',#945,10.);
#225=VECTOR('',#946,10.);
#226=VECTOR('',#953,10.);
#227=VECTOR('',#956,10.);
#228=VECTOR('',#959,10.);
#229=VECTOR('',#962,10.);
#230=VECTOR('',#963,10.);
#231=VECTOR('',#966,10.);
#232=VECTOR('',#967,10.);
#233=VECTOR('',#970,10.);
#234=VECTOR('',#975,10.);
#235=VECTOR('',#978,10.);
#236=VECTOR('',#981,10.);
#237=VECTOR('',#992,10.);
#238=VECTOR('',#997,10.);
#239=VECTOR('',#1000,10.);
#240=VECTOR('',#1001,10.);
#241=VECTOR('',#1002,10.);
#242=VECTOR('',#1003,10.);
#243=VECTOR('',#1004,10.);
#244=VECTOR('',#1009,10.);
#245=VECTOR('',#1010,10.);
#246=VECTOR('',#1013,10.);
#247=VECTOR('',#1014,10.);
#248=VECTOR('',#1021,10.);
#249=VECTOR('',#1024,10.);
#250=VECTOR('',#1025,10.);
#251=VECTOR('',#1028,10.);
#252=VECTOR('',#1029,10.);
#253=VECTOR('',#1032,10.);
#254=VECTOR('',#1035,10.);
#255=VECTOR('',#1036,10.);
#256=VECTOR('',#1037,10.);
#257=VECTOR('',#1040,10.);
#258=VECTOR('',#1043,10.);
#259=VECTOR('',#1044,10.);
#260=VECTOR('',#1047,10.);
#261=VECTOR('',#1048,10.);
#262=VECTOR('',#1051,10.);
#263=VECTOR('',#1054,10.);
#264=VECTOR('',#1059,10.);
#265=VECTOR('',#1062,10.);
#266=VECTOR('',#1065,10.);
#267=VECTOR('',#1068,10.);
#268=VECTOR('',#1071,10.);
#269=VECTOR('',#1074,10.);
#270=VECTOR('',#1075,10.);
#271=VECTOR('',#1076,10.);
#272=VECTOR('',#1077,10.);
#273=VECTOR('',#1082,10.);
#274=VECTOR('',#1087,10.);
#275=VECTOR('',#1090,10.);
#276=VECTOR('',#1095,10.);
#277=VECTOR('',#1104,3.05);
#278=VECTOR('',#1107,1.7);
#279=VECTOR('',#1112,10.);
#280=VECTOR('',#1115,10.);
#281=VECTOR('',#1118,10.);
#282=VECTOR('',#1119,10.);
#283=VECTOR('',#1120,10.);
#284=VECTOR('',#1123,10.);
#285=VECTOR('',#1124,10.);
#286=VECTOR('',#1125,10.);
#287=VECTOR('',#1128,10.);
#288=VECTOR('',#1129,10.);
#289=VECTOR('',#1130,10.);
#290=VECTOR('',#1135,10.);
#291=VECTOR('',#1140,10.);
#292=VECTOR('',#1147,10.);
#293=VECTOR('',#1154,10.);
#294=VECTOR('',#1157,10.);
#295=VECTOR('',#1162,10.);
#296=VECTOR('',#1183,1.7);
#297=CIRCLE('',#851,40.);
#298=CIRCLE('',#852,40.);
#299=CIRCLE('',#854,50.);
#300=CIRCLE('',#855,0.5);
#301=CIRCLE('',#856,1.);
#302=CIRCLE('',#857,1.);
#303=CIRCLE('',#858,1.);
#304=CIRCLE('',#859,44.);
#305=CIRCLE('',#860,1.);
#306=CIRCLE('',#862,50.);
#307=CIRCLE('',#863,50.);
#308=CIRCLE('',#864,50.);
#309=CIRCLE('',#866,3.05);
#310=CIRCLE('',#868,0.5);
#311=CIRCLE('',#869,0.5);
#312=CIRCLE('',#871,0.5);
#313=CIRCLE('',#874,1.);
#314=CIRCLE('',#877,1.);
#315=CIRCLE('',#879,1.);
#316=CIRCLE('',#880,44.);
#317=CIRCLE('',#881,1.);
#318=CIRCLE('',#887,3.05);
#319=CIRCLE('',#892,2.);
#320=CIRCLE('',#893,1.99999999999999);
#321=CIRCLE('',#896,2.00000000000075);
#322=CIRCLE('',#897,2.00000000000075);
#323=CIRCLE('',#899,2.00000000000002);
#324=CIRCLE('',#901,2.6);
#325=CIRCLE('',#903,3.05);
#326=CIRCLE('',#904,1.7);
#327=CIRCLE('',#908,44.);
#328=CIRCLE('',#909,44.);
#329=CIRCLE('',#914,2.00000000000002);
#330=CIRCLE('',#916,2.6);
#331=CIRCLE('',#918,44.);
#332=CIRCLE('',#920,2.);
#333=CIRCLE('',#921,2.6);
#334=CIRCLE('',#924,1.99999999999999);
#335=CIRCLE('',#926,2.6);
#336=CIRCLE('',#928,44.);
#337=CIRCLE('',#930,1.7);
#338=VERTEX_POINT('',#1186);
#339=VERTEX_POINT('',#1187);
#340=VERTEX_POINT('',#1189);
#341=VERTEX_POINT('',#1191);
#342=VERTEX_POINT('',#1194);
#343=VERTEX_POINT('',#1195);
#344=VERTEX_POINT('',#1233);
#345=VERTEX_POINT('',#1235);
#346=VERTEX_POINT('',#1237);
#347=VERTEX_POINT('',#1239);
#348=VERTEX_POINT('',#1241);
#349=VERTEX_POINT('',#1243);
#350=VERTEX_POINT('',#1245);
#351=VERTEX_POINT('',#1247);
#352=VERTEX_POINT('',#1249);
#353=VERTEX_POINT('',#1251);
#354=VERTEX_POINT('',#1253);
#355=VERTEX_POINT('',#1255);
#356=VERTEX_POINT('',#1257);
#357=VERTEX_POINT('',#1259);
#358=VERTEX_POINT('',#1263);
#359=VERTEX_POINT('',#1265);
#360=VERTEX_POINT('',#1267);
#361=VERTEX_POINT('',#1269);
#362=VERTEX_POINT('',#1271);
#363=VERTEX_POINT('',#1277);
#364=VERTEX_POINT('',#1279);
#365=VERTEX_POINT('',#1283);
#366=VERTEX_POINT('',#1287);
#367=VERTEX_POINT('',#1290);
#368=VERTEX_POINT('',#1292);
#369=VERTEX_POINT('',#1296);
#370=VERTEX_POINT('',#1297);
#371=VERTEX_POINT('',#1302);
#372=VERTEX_POINT('',#1308);
#373=VERTEX_POINT('',#1310);
#374=VERTEX_POINT('',#1312);
#375=VERTEX_POINT('',#1314);
#376=VERTEX_POINT('',#1316);
#377=VERTEX_POINT('',#1318);
#378=VERTEX_POINT('',#1320);
#379=VERTEX_POINT('',#1322);
#380=VERTEX_POINT('',#1326);
#381=VERTEX_POINT('',#1328);
#382=VERTEX_POINT('',#1334);
#383=VERTEX_POINT('',#1338);
#384=VERTEX_POINT('',#1343);
#385=VERTEX_POINT('',#1352);
#386=VERTEX_POINT('',#1354);
#387=VERTEX_POINT('',#1356);
#388=VERTEX_POINT('',#1358);
#389=VERTEX_POINT('',#1362);
#390=VERTEX_POINT('',#1364);
#391=VERTEX_POINT('',#1366);
#392=VERTEX_POINT('',#1370);
#393=VERTEX_POINT('',#1372);
#394=VERTEX_POINT('',#1376);
#395=VERTEX_POINT('',#1378);
#396=VERTEX_POINT('',#1382);
#397=VERTEX_POINT('',#1386);
#398=VERTEX_POINT('',#1388);
#399=VERTEX_POINT('',#1393);
#400=VERTEX_POINT('',#1430);
#401=VERTEX_POINT('',#1432);
#402=VERTEX_POINT('',#1434);
#403=VERTEX_POINT('',#1437);
#404=VERTEX_POINT('',#1438);
#405=VERTEX_POINT('',#1476);
#406=VERTEX_POINT('',#1478);
#407=VERTEX_POINT('',#1482);
#408=VERTEX_POINT('',#1484);
#409=VERTEX_POINT('',#1488);
#410=VERTEX_POINT('',#1490);
#411=VERTEX_POINT('',#1494);
#412=VERTEX_POINT('',#1503);
#413=VERTEX_POINT('',#1510);
#414=VERTEX_POINT('',#1519);
#415=EDGE_CURVE('',#338,#339,#297,.T.);
#416=EDGE_CURVE('',#339,#340,#149,.T.);
#417=EDGE_CURVE('',#340,#341,#298,.T.);
#418=EDGE_CURVE('',#341,#338,#150,.T.);
#419=EDGE_CURVE('',#342,#343,#48,.T.);
#420=EDGE_CURVE('',#343,#342,#151,.T.);
#421=EDGE_CURVE('',#338,#344,#299,.T.);
#422=EDGE_CURVE('',#345,#344,#300,.T.);
#423=EDGE_CURVE('',#345,#346,#152,.T.);
#424=EDGE_CURVE('',#347,#346,#301,.T.);
#425=EDGE_CURVE('',#347,#348,#153,.T.);
#426=EDGE_CURVE('',#349,#348,#302,.T.);
#427=EDGE_CURVE('',#349,#350,#154,.T.);
#428=EDGE_CURVE('',#351,#350,#303,.T.);
#429=EDGE_CURVE('',#352,#351,#155,.T.);
#430=EDGE_CURVE('',#353,#352,#156,.T.);
#431=EDGE_CURVE('',#353,#354,#304,.T.);
#432=EDGE_CURVE('',#354,#355,#157,.T.);
#433=EDGE_CURVE('',#356,#355,#158,.T.);
#434=EDGE_CURVE('',#357,#356,#305,.T.);
#435=EDGE_CURVE('',#357,#339,#159,.T.);
#436=EDGE_CURVE('',#358,#341,#306,.T.);
#437=EDGE_CURVE('',#359,#358,#160,.T.);
#438=EDGE_CURVE('',#359,#360,#307,.T.);
#439=EDGE_CURVE('',#361,#360,#161,.T.);
#440=EDGE_CURVE('',#361,#362,#308,.T.);
#441=EDGE_CURVE('',#344,#362,#162,.T.);
#442=EDGE_CURVE('',#342,#343,#309,.T.);
#443=EDGE_CURVE('',#359,#363,#310,.F.);
#444=EDGE_CURVE('',#358,#364,#311,.T.);
#445=EDGE_CURVE('',#364,#363,#163,.T.);
#446=EDGE_CURVE('',#362,#365,#312,.T.);
#447=EDGE_CURVE('',#365,#345,#164,.T.);
#448=EDGE_CURVE('',#366,#364,#165,.T.);
#449=EDGE_CURVE('',#346,#366,#166,.T.);
#450=EDGE_CURVE('',#367,#365,#167,.T.);
#451=EDGE_CURVE('',#368,#367,#168,.T.);
#452=EDGE_CURVE('',#363,#368,#169,.T.);
#453=EDGE_CURVE('',#369,#370,#313,.T.);
#454=EDGE_CURVE('',#370,#349,#170,.T.);
#455=EDGE_CURVE('',#348,#369,#171,.T.);
#456=EDGE_CURVE('',#371,#347,#172,.T.);
#457=EDGE_CURVE('',#371,#369,#173,.T.);
#458=EDGE_CURVE('',#366,#371,#314,.T.);
#459=EDGE_CURVE('',#340,#372,#174,.T.);
#460=EDGE_CURVE('',#373,#372,#315,.T.);
#461=EDGE_CURVE('',#374,#373,#175,.T.);
#462=EDGE_CURVE('',#375,#374,#176,.T.);
#463=EDGE_CURVE('',#375,#376,#316,.T.);
#464=EDGE_CURVE('',#376,#377,#177,.T.);
#465=EDGE_CURVE('',#378,#377,#178,.T.);
#466=EDGE_CURVE('',#379,#378,#317,.T.);
#467=EDGE_CURVE('',#370,#379,#179,.T.);
#468=EDGE_CURVE('',#360,#380,#180,.T.);
#469=EDGE_CURVE('',#380,#381,#181,.T.);
#470=EDGE_CURVE('',#381,#361,#182,.T.);
#471=EDGE_CURVE('',#372,#357,#183,.T.);
#472=EDGE_CURVE('',#382,#368,#184,.T.);
#473=EDGE_CURVE('',#380,#382,#185,.T.);
#474=EDGE_CURVE('',#383,#381,#186,.T.);
#475=EDGE_CURVE('',#367,#383,#187,.T.);
#476=EDGE_CURVE('',#350,#379,#188,.T.);
#477=EDGE_CURVE('',#384,#384,#318,.T.);
#478=EDGE_CURVE('',#382,#383,#189,.T.);
#479=EDGE_CURVE('',#356,#373,#190,.T.);
#480=EDGE_CURVE('',#378,#351,#191,.T.);
#481=EDGE_CURVE('',#377,#385,#192,.T.);
#482=EDGE_CURVE('',#386,#385,#319,.T.);
#483=EDGE_CURVE('',#386,#387,#193,.T.);
#484=EDGE_CURVE('',#388,#387,#320,.T.);
#485=EDGE_CURVE('',#388,#352,#194,.T.);
#486=EDGE_CURVE('',#355,#389,#195,.T.);
#487=EDGE_CURVE('',#354,#390,#196,.T.);
#488=EDGE_CURVE('',#391,#390,#197,.T.);
#489=EDGE_CURVE('',#389,#391,#198,.T.);
#490=EDGE_CURVE('',#392,#391,#321,.T.);
#491=EDGE_CURVE('',#392,#393,#199,.T.);
#492=EDGE_CURVE('',#389,#393,#322,.T.);
#493=EDGE_CURVE('',#393,#394,#200,.T.);
#494=EDGE_CURVE('',#394,#395,#323,.T.);
#495=EDGE_CURVE('',#395,#374,#201,.T.);
#496=EDGE_CURVE('',#390,#396,#324,.T.);
#497=EDGE_CURVE('',#396,#392,#202,.T.);
#498=EDGE_CURVE('',#397,#397,#325,.T.);
#499=EDGE_CURVE('',#398,#398,#326,.T.);
#500=EDGE_CURVE('',#384,#397,#203,.T.);
#501=EDGE_CURVE('',#398,#399,#204,.T.);
#502=EDGE_CURVE('',#399,#399,#49,.T.);
#503=EDGE_CURVE('',#396,#400,#327,.T.);
#504=EDGE_CURVE('',#401,#400,#205,.T.);
#505=EDGE_CURVE('',#401,#402,#328,.T.);
#506=EDGE_CURVE('',#396,#402,#206,.T.);
#507=EDGE_CURVE('',#403,#404,#50,.F.);
#508=EDGE_CURVE('',#404,#403,#51,.F.);
#509=EDGE_CURVE('',#405,#375,#207,.T.);
#510=EDGE_CURVE('',#406,#395,#208,.T.);
#511=EDGE_CURVE('',#405,#406,#209,.T.);
#512=EDGE_CURVE('',#376,#407,#210,.T.);
#513=EDGE_CURVE('',#408,#407,#211,.T.);
#514=EDGE_CURVE('',#385,#408,#212,.T.);
#515=EDGE_CURVE('',#409,#353,#213,.T.);
#516=EDGE_CURVE('',#388,#410,#214,.T.);
#517=EDGE_CURVE('',#409,#410,#215,.T.);
#518=EDGE_CURVE('',#406,#411,#329,.T.);
#519=EDGE_CURVE('',#411,#394,#216,.T.);
#520=EDGE_CURVE('',#402,#405,#330,.T.);
#521=EDGE_CURVE('',#411,#402,#217,.T.);
#522=EDGE_CURVE('',#405,#407,#331,.T.);
#523=EDGE_CURVE('',#401,#412,#218,.T.);
#524=EDGE_CURVE('',#412,#408,#332,.T.);
#525=EDGE_CURVE('',#407,#401,#333,.T.);
#526=EDGE_CURVE('',#386,#412,#219,.T.);
#527=EDGE_CURVE('',#387,#413,#220,.T.);
#528=EDGE_CURVE('',#410,#413,#334,.T.);
#529=EDGE_CURVE('',#413,#400,#221,.T.);
#530=EDGE_CURVE('',#400,#409,#335,.T.);
#531=EDGE_CURVE('',#390,#409,#336,.T.);
#532=EDGE_CURVE('',#414,#414,#337,.T.);
#533=EDGE_CURVE('',#414,#404,#222,.T.);
#534=ORIENTED_EDGE('',*,*,#415,.T.);
#535=ORIENTED_EDGE('',*,*,#416,.T.);
#536=ORIENTED_EDGE('',*,*,#417,.T.);
#537=ORIENTED_EDGE('',*,*,#418,.T.);
#538=ORIENTED_EDGE('',*,*,#419,.T.);
#539=ORIENTED_EDGE('',*,*,#420,.T.);
#540=ORIENTED_EDGE('',*,*,#415,.F.);
#541=ORIENTED_EDGE('',*,*,#421,.T.);
#542=ORIENTED_EDGE('',*,*,#422,.F.);
#543=ORIENTED_EDGE('',*,*,#423,.T.);
#544=ORIENTED_EDGE('',*,*,#424,.F.);
#545=ORIENTED_EDGE('',*,*,#425,.T.);
#546=ORIENTED_EDGE('',*,*,#426,.F.);
#547=ORIENTED_EDGE('',*,*,#427,.T.);
#548=ORIENTED_EDGE('',*,*,#428,.F.);
#549=ORIENTED_EDGE('',*,*,#429,.F.);
#550=ORIENTED_EDGE('',*,*,#430,.F.);
#551=ORIENTED_EDGE('',*,*,#431,.T.);
#552=ORIENTED_EDGE('',*,*,#432,.T.);
#553=ORIENTED_EDGE('',*,*,#433,.F.);
#554=ORIENTED_EDGE('',*,*,#434,.F.);
#555=ORIENTED_EDGE('',*,*,#435,.T.);
#556=ORIENTED_EDGE('',*,*,#418,.F.);
#557=ORIENTED_EDGE('',*,*,#436,.F.);
#558=ORIENTED_EDGE('',*,*,#437,.F.);
#559=ORIENTED_EDGE('',*,*,#438,.T.);
#560=ORIENTED_EDGE('',*,*,#439,.F.);
#561=ORIENTED_EDGE('',*,*,#440,.T.);
#562=ORIENTED_EDGE('',*,*,#441,.F.);
#563=ORIENTED_EDGE('',*,*,#421,.F.);
#564=ORIENTED_EDGE('',*,*,#419,.F.);
#565=ORIENTED_EDGE('',*,*,#442,.T.);
#566=ORIENTED_EDGE('',*,*,#443,.F.);
#567=ORIENTED_EDGE('',*,*,#437,.T.);
#568=ORIENTED_EDGE('',*,*,#444,.T.);
#569=ORIENTED_EDGE('',*,*,#445,.T.);
#570=ORIENTED_EDGE('',*,*,#446,.T.);
#571=ORIENTED_EDGE('',*,*,#447,.T.);
#572=ORIENTED_EDGE('',*,*,#422,.T.);
#573=ORIENTED_EDGE('',*,*,#441,.T.);
#574=ORIENTED_EDGE('',*,*,#445,.F.);
#575=ORIENTED_EDGE('',*,*,#448,.F.);
#576=ORIENTED_EDGE('',*,*,#449,.F.);
#577=ORIENTED_EDGE('',*,*,#423,.F.);
#578=ORIENTED_EDGE('',*,*,#447,.F.);
#579=ORIENTED_EDGE('',*,*,#450,.F.);
#580=ORIENTED_EDGE('',*,*,#451,.F.);
#581=ORIENTED_EDGE('',*,*,#452,.F.);
#582=ORIENTED_EDGE('',*,*,#453,.T.);
#583=ORIENTED_EDGE('',*,*,#454,.T.);
#584=ORIENTED_EDGE('',*,*,#426,.T.);
#585=ORIENTED_EDGE('',*,*,#455,.T.);
#586=ORIENTED_EDGE('',*,*,#455,.F.);
#587=ORIENTED_EDGE('',*,*,#425,.F.);
#588=ORIENTED_EDGE('',*,*,#456,.F.);
#589=ORIENTED_EDGE('',*,*,#457,.T.);
#590=ORIENTED_EDGE('',*,*,#458,.T.);
#591=ORIENTED_EDGE('',*,*,#456,.T.);
#592=ORIENTED_EDGE('',*,*,#424,.T.);
#593=ORIENTED_EDGE('',*,*,#449,.T.);
#594=ORIENTED_EDGE('',*,*,#417,.F.);
#595=ORIENTED_EDGE('',*,*,#459,.T.);
#596=ORIENTED_EDGE('',*,*,#460,.F.);
#597=ORIENTED_EDGE('',*,*,#461,.F.);
#598=ORIENTED_EDGE('',*,*,#462,.F.);
#599=ORIENTED_EDGE('',*,*,#463,.T.);
#600=ORIENTED_EDGE('',*,*,#464,.T.);
#601=ORIENTED_EDGE('',*,*,#465,.F.);
#602=ORIENTED_EDGE('',*,*,#466,.F.);
#603=ORIENTED_EDGE('',*,*,#467,.F.);
#604=ORIENTED_EDGE('',*,*,#453,.F.);
#605=ORIENTED_EDGE('',*,*,#457,.F.);
#606=ORIENTED_EDGE('',*,*,#458,.F.);
#607=ORIENTED_EDGE('',*,*,#448,.T.);
#608=ORIENTED_EDGE('',*,*,#444,.F.);
#609=ORIENTED_EDGE('',*,*,#436,.T.);
#610=ORIENTED_EDGE('',*,*,#439,.T.);
#611=ORIENTED_EDGE('',*,*,#468,.T.);
#612=ORIENTED_EDGE('',*,*,#469,.T.);
#613=ORIENTED_EDGE('',*,*,#470,.T.);
#614=ORIENTED_EDGE('',*,*,#416,.F.);
#615=ORIENTED_EDGE('',*,*,#435,.F.);
#616=ORIENTED_EDGE('',*,*,#471,.F.);
#617=ORIENTED_EDGE('',*,*,#459,.F.);
#618=ORIENTED_EDGE('',*,*,#452,.T.);
#619=ORIENTED_EDGE('',*,*,#472,.F.);
#620=ORIENTED_EDGE('',*,*,#473,.F.);
#621=ORIENTED_EDGE('',*,*,#468,.F.);
#622=ORIENTED_EDGE('',*,*,#438,.F.);
#623=ORIENTED_EDGE('',*,*,#443,.T.);
#624=ORIENTED_EDGE('',*,*,#450,.T.);
#625=ORIENTED_EDGE('',*,*,#446,.F.);
#626=ORIENTED_EDGE('',*,*,#440,.F.);
#627=ORIENTED_EDGE('',*,*,#470,.F.);
#628=ORIENTED_EDGE('',*,*,#474,.F.);
#629=ORIENTED_EDGE('',*,*,#475,.F.);
#630=ORIENTED_EDGE('',*,*,#454,.F.);
#631=ORIENTED_EDGE('',*,*,#467,.T.);
#632=ORIENTED_EDGE('',*,*,#476,.F.);
#633=ORIENTED_EDGE('',*,*,#427,.F.);
#634=ORIENTED_EDGE('',*,*,#477,.T.);
#635=ORIENTED_EDGE('',*,*,#469,.F.);
#636=ORIENTED_EDGE('',*,*,#473,.T.);
#637=ORIENTED_EDGE('',*,*,#478,.T.);
#638=ORIENTED_EDGE('',*,*,#474,.T.);
#639=ORIENTED_EDGE('',*,*,#451,.T.);
#640=ORIENTED_EDGE('',*,*,#475,.T.);
#641=ORIENTED_EDGE('',*,*,#478,.F.);
#642=ORIENTED_EDGE('',*,*,#472,.T.);
#643=ORIENTED_EDGE('',*,*,#434,.T.);
#644=ORIENTED_EDGE('',*,*,#479,.T.);
#645=ORIENTED_EDGE('',*,*,#460,.T.);
#646=ORIENTED_EDGE('',*,*,#471,.T.);
#647=ORIENTED_EDGE('',*,*,#466,.T.);
#648=ORIENTED_EDGE('',*,*,#480,.T.);
#649=ORIENTED_EDGE('',*,*,#428,.T.);
#650=ORIENTED_EDGE('',*,*,#476,.T.);
#651=ORIENTED_EDGE('',*,*,#480,.F.);
#652=ORIENTED_EDGE('',*,*,#465,.T.);
#653=ORIENTED_EDGE('',*,*,#481,.T.);
#654=ORIENTED_EDGE('',*,*,#482,.F.);
#655=ORIENTED_EDGE('',*,*,#483,.T.);
#656=ORIENTED_EDGE('',*,*,#484,.F.);
#657=ORIENTED_EDGE('',*,*,#485,.T.);
#658=ORIENTED_EDGE('',*,*,#429,.T.);
#659=ORIENTED_EDGE('',*,*,#486,.F.);
#660=ORIENTED_EDGE('',*,*,#432,.F.);
#661=ORIENTED_EDGE('',*,*,#487,.T.);
#662=ORIENTED_EDGE('',*,*,#488,.F.);
#663=ORIENTED_EDGE('',*,*,#489,.F.);
#664=ORIENTED_EDGE('',*,*,#489,.T.);
#665=ORIENTED_EDGE('',*,*,#490,.F.);
#666=ORIENTED_EDGE('',*,*,#491,.T.);
#667=ORIENTED_EDGE('',*,*,#492,.F.);
#668=ORIENTED_EDGE('',*,*,#479,.F.);
#669=ORIENTED_EDGE('',*,*,#433,.T.);
#670=ORIENTED_EDGE('',*,*,#486,.T.);
#671=ORIENTED_EDGE('',*,*,#492,.T.);
#672=ORIENTED_EDGE('',*,*,#493,.T.);
#673=ORIENTED_EDGE('',*,*,#494,.T.);
#674=ORIENTED_EDGE('',*,*,#495,.T.);
#675=ORIENTED_EDGE('',*,*,#461,.T.);
#676=ORIENTED_EDGE('',*,*,#488,.T.);
#677=ORIENTED_EDGE('',*,*,#496,.T.);
#678=ORIENTED_EDGE('',*,*,#497,.T.);
#679=ORIENTED_EDGE('',*,*,#490,.T.);
#680=ORIENTED_EDGE('',*,*,#498,.F.);
#681=ORIENTED_EDGE('',*,*,#499,.T.);
#682=ORIENTED_EDGE('',*,*,#477,.F.);
#683=ORIENTED_EDGE('',*,*,#500,.T.);
#684=ORIENTED_EDGE('',*,*,#498,.T.);
#685=ORIENTED_EDGE('',*,*,#500,.F.);
#686=ORIENTED_EDGE('',*,*,#499,.F.);
#687=ORIENTED_EDGE('',*,*,#501,.T.);
#688=ORIENTED_EDGE('',*,*,#502,.F.);
#689=ORIENTED_EDGE('',*,*,#501,.F.);
#690=ORIENTED_EDGE('',*,*,#503,.T.);
#691=ORIENTED_EDGE('',*,*,#504,.F.);
#692=ORIENTED_EDGE('',*,*,#505,.T.);
#693=ORIENTED_EDGE('',*,*,#506,.F.);
#694=ORIENTED_EDGE('',*,*,#502,.T.);
#695=ORIENTED_EDGE('',*,*,#507,.T.);
#696=ORIENTED_EDGE('',*,*,#508,.T.);
#697=ORIENTED_EDGE('',*,*,#509,.T.);
#698=ORIENTED_EDGE('',*,*,#462,.T.);
#699=ORIENTED_EDGE('',*,*,#495,.F.);
#700=ORIENTED_EDGE('',*,*,#510,.F.);
#701=ORIENTED_EDGE('',*,*,#511,.F.);
#702=ORIENTED_EDGE('',*,*,#512,.T.);
#703=ORIENTED_EDGE('',*,*,#513,.F.);
#704=ORIENTED_EDGE('',*,*,#514,.F.);
#705=ORIENTED_EDGE('',*,*,#481,.F.);
#706=ORIENTED_EDGE('',*,*,#464,.F.);
#707=ORIENTED_EDGE('',*,*,#515,.T.);
#708=ORIENTED_EDGE('',*,*,#430,.T.);
#709=ORIENTED_EDGE('',*,*,#485,.F.);
#710=ORIENTED_EDGE('',*,*,#516,.T.);
#711=ORIENTED_EDGE('',*,*,#517,.F.);
#712=ORIENTED_EDGE('',*,*,#518,.F.);
#713=ORIENTED_EDGE('',*,*,#510,.T.);
#714=ORIENTED_EDGE('',*,*,#494,.F.);
#715=ORIENTED_EDGE('',*,*,#519,.F.);
#716=ORIENTED_EDGE('',*,*,#520,.T.);
#717=ORIENTED_EDGE('',*,*,#511,.T.);
#718=ORIENTED_EDGE('',*,*,#518,.T.);
#719=ORIENTED_EDGE('',*,*,#521,.T.);
#720=ORIENTED_EDGE('',*,*,#522,.T.);
#721=ORIENTED_EDGE('',*,*,#512,.F.);
#722=ORIENTED_EDGE('',*,*,#463,.F.);
#723=ORIENTED_EDGE('',*,*,#509,.F.);
#724=ORIENTED_EDGE('',*,*,#523,.T.);
#725=ORIENTED_EDGE('',*,*,#524,.T.);
#726=ORIENTED_EDGE('',*,*,#513,.T.);
#727=ORIENTED_EDGE('',*,*,#525,.T.);
#728=ORIENTED_EDGE('',*,*,#482,.T.);
#729=ORIENTED_EDGE('',*,*,#514,.T.);
#730=ORIENTED_EDGE('',*,*,#524,.F.);
#731=ORIENTED_EDGE('',*,*,#526,.F.);
#732=ORIENTED_EDGE('',*,*,#484,.T.);
#733=ORIENTED_EDGE('',*,*,#527,.T.);
#734=ORIENTED_EDGE('',*,*,#528,.F.);
#735=ORIENTED_EDGE('',*,*,#516,.F.);
#736=ORIENTED_EDGE('',*,*,#517,.T.);
#737=ORIENTED_EDGE('',*,*,#528,.T.);
#738=ORIENTED_EDGE('',*,*,#529,.T.);
#739=ORIENTED_EDGE('',*,*,#530,.T.);
#740=ORIENTED_EDGE('',*,*,#531,.F.);
#741=ORIENTED_EDGE('',*,*,#487,.F.);
#742=ORIENTED_EDGE('',*,*,#431,.F.);
#743=ORIENTED_EDGE('',*,*,#515,.F.);
#744=ORIENTED_EDGE('',*,*,#420,.F.);
#745=ORIENTED_EDGE('',*,*,#442,.F.);
#746=ORIENTED_EDGE('',*,*,#532,.T.);
#747=ORIENTED_EDGE('',*,*,#521,.F.);
#748=ORIENTED_EDGE('',*,*,#519,.T.);
#749=ORIENTED_EDGE('',*,*,#493,.F.);
#750=ORIENTED_EDGE('',*,*,#491,.F.);
#751=ORIENTED_EDGE('',*,*,#497,.F.);
#752=ORIENTED_EDGE('',*,*,#506,.T.);
#753=ORIENTED_EDGE('',*,*,#505,.F.);
#754=ORIENTED_EDGE('',*,*,#525,.F.);
#755=ORIENTED_EDGE('',*,*,#522,.F.);
#756=ORIENTED_EDGE('',*,*,#520,.F.);
#757=ORIENTED_EDGE('',*,*,#504,.T.);
#758=ORIENTED_EDGE('',*,*,#529,.F.);
#759=ORIENTED_EDGE('',*,*,#527,.F.);
#760=ORIENTED_EDGE('',*,*,#483,.F.);
#761=ORIENTED_EDGE('',*,*,#526,.T.);
#762=ORIENTED_EDGE('',*,*,#523,.F.);
#763=ORIENTED_EDGE('',*,*,#503,.F.);
#764=ORIENTED_EDGE('',*,*,#496,.F.);
#765=ORIENTED_EDGE('',*,*,#531,.T.);
#766=ORIENTED_EDGE('',*,*,#530,.F.);
#767=ORIENTED_EDGE('',*,*,#532,.F.);
#768=ORIENTED_EDGE('',*,*,#533,.T.);
#769=ORIENTED_EDGE('',*,*,#507,.F.);
#770=ORIENTED_EDGE('',*,*,#508,.F.);
#771=ORIENTED_EDGE('',*,*,#533,.F.);
#772=CYLINDRICAL_SURFACE('',#850,40.);
#773=CYLINDRICAL_SURFACE('',#861,50.);
#774=CYLINDRICAL_SURFACE('',#865,3.05);
#775=CYLINDRICAL_SURFACE('',#867,0.5);
#776=CYLINDRICAL_SURFACE('',#870,0.5);
#777=CYLINDRICAL_SURFACE('',#873,1.);
#778=CYLINDRICAL_SURFACE('',#876,1.);
#779=CYLINDRICAL_SURFACE('',#889,1.);
#780=CYLINDRICAL_SURFACE('',#890,1.);
#781=CYLINDRICAL_SURFACE('',#895,2.00000000000075);
#782=CYLINDRICAL_SURFACE('',#905,3.05);
#783=CYLINDRICAL_SURFACE('',#906,1.7);
#784=CYLINDRICAL_SURFACE('',#907,44.);
#785=CYLINDRICAL_SURFACE('',#913,2.00000000000002);
#786=CYLINDRICAL_SURFACE('',#917,44.);
#787=CYLINDRICAL_SURFACE('',#922,2.);
#788=CYLINDRICAL_SURFACE('',#923,1.99999999999999);
#789=CYLINDRICAL_SURFACE('',#927,44.);
#790=CYLINDRICAL_SURFACE('',#935,1.7);
#791=ADVANCED_FACE('',(#52,#41),#772,.T.);
#792=ADVANCED_FACE('',(#53),#17,.F.);
#793=ADVANCED_FACE('',(#54),#773,.T.);
#794=ADVANCED_FACE('',(#55),#774,.F.);
#795=ADVANCED_FACE('',(#56),#775,.F.);
#796=ADVANCED_FACE('',(#57),#776,.F.);
#797=ADVANCED_FACE('',(#58),#18,.F.);
#798=ADVANCED_FACE('',(#59),#777,.T.);
#799=ADVANCED_FACE('',(#60),#19,.T.);
#800=ADVANCED_FACE('',(#61),#778,.T.);
#801=ADVANCED_FACE('',(#62),#20,.F.);
#802=ADVANCED_FACE('',(#63),#21,.T.);
#803=ADVANCED_FACE('',(#64),#22,.T.);
#804=ADVANCED_FACE('',(#65),#23,.F.);
#805=ADVANCED_FACE('',(#66),#24,.F.);
#806=ADVANCED_FACE('',(#67,#42,#43),#25,.T.);
#807=ADVANCED_FACE('',(#68),#26,.F.);
#808=ADVANCED_FACE('',(#69),#779,.T.);
#809=ADVANCED_FACE('',(#70),#780,.T.);
#810=ADVANCED_FACE('',(#71),#27,.F.);
#811=ADVANCED_FACE('',(#72),#28,.T.);
#812=ADVANCED_FACE('',(#73),#781,.F.);
#813=ADVANCED_FACE('',(#74),#29,.T.);
#814=ADVANCED_FACE('',(#75),#30,.F.);
#815=ADVANCED_FACE('',(#76,#44),#31,.F.);
#816=ADVANCED_FACE('',(#77),#782,.F.);
#817=ADVANCED_FACE('',(#78),#783,.F.);
#818=ADVANCED_FACE('',(#79,#45,#46),#784,.F.);
#819=ADVANCED_FACE('',(#80),#32,.T.);
#820=ADVANCED_FACE('',(#81),#33,.T.);
#821=ADVANCED_FACE('',(#82),#34,.T.);
#822=ADVANCED_FACE('',(#83),#785,.F.);
#823=ADVANCED_FACE('',(#84),#35,.F.);
#824=ADVANCED_FACE('',(#85),#786,.F.);
#825=ADVANCED_FACE('',(#86),#36,.F.);
#826=ADVANCED_FACE('',(#87),#787,.F.);
#827=ADVANCED_FACE('',(#88),#788,.F.);
#828=ADVANCED_FACE('',(#89),#37,.F.);
#829=ADVANCED_FACE('',(#90),#789,.F.);
#830=ADVANCED_FACE('',(#91,#47),#38,.T.);
#831=ADVANCED_FACE('',(#92),#39,.T.);
#832=ADVANCED_FACE('',(#93),#15,.F.);
#833=ADVANCED_FACE('',(#94),#40,.T.);
#834=ADVANCED_FACE('',(#95),#16,.F.);
#835=ADVANCED_FACE('',(#96),#790,.F.);
#836=CLOSED_SHELL('',(#791,#792,#793,#794,#795,#796,#797,#798,#799,#800,
#801,#802,#803,#804,#805,#806,#807,#808,#809,#810,#811,#812,#813,#814,#815,
#816,#817,#818,#819,#820,#821,#822,#823,#824,#825,#826,#827,#828,#829,#830,
#831,#832,#833,#834,#835));
#837=DERIVED_UNIT_ELEMENT(#839,1.);
#838=DERIVED_UNIT_ELEMENT(#1532,-3.);
#839=(
MASS_UNIT()
NAMED_UNIT(*)
SI_UNIT(.KILO.,.GRAM.)
);
#840=DERIVED_UNIT((#837,#838));
#841=MEASURE_REPRESENTATION_ITEM('density measure',
POSITIVE_RATIO_MEASURE(7850.),#840);
#842=PROPERTY_DEFINITION_REPRESENTATION(#847,#844);
#843=PROPERTY_DEFINITION_REPRESENTATION(#848,#845);
#844=REPRESENTATION('material name',(#846),#1529);
#845=REPRESENTATION('density',(#841),#1529);
#846=DESCRIPTIVE_REPRESENTATION_ITEM('Steel','Steel');
#847=PROPERTY_DEFINITION('material property','material name',#1539);
#848=PROPERTY_DEFINITION('material property','density of part',#1539);
#849=AXIS2_PLACEMENT_3D('',#1184,#936,#937);
#850=AXIS2_PLACEMENT_3D('',#1185,#938,#939);
#851=AXIS2_PLACEMENT_3D('',#1188,#940,#941);
#852=AXIS2_PLACEMENT_3D('',#1192,#943,#944);
#853=AXIS2_PLACEMENT_3D('',#1232,#947,#948);
#854=AXIS2_PLACEMENT_3D('',#1234,#949,#950);
#855=AXIS2_PLACEMENT_3D('',#1236,#951,#952);
#856=AXIS2_PLACEMENT_3D('',#1240,#954,#955);
#857=AXIS2_PLACEMENT_3D('',#1244,#957,#958);
#858=AXIS2_PLACEMENT_3D('',#1248,#960,#961);
#859=AXIS2_PLACEMENT_3D('',#1254,#964,#965);
#860=AXIS2_PLACEMENT_3D('',#1260,#968,#969);
#861=AXIS2_PLACEMENT_3D('',#1262,#971,#972);
#862=AXIS2_PLACEMENT_3D('',#1264,#973,#974);
#863=AXIS2_PLACEMENT_3D('',#1268,#976,#977);
#864=AXIS2_PLACEMENT_3D('',#1272,#979,#980);
#865=AXIS2_PLACEMENT_3D('',#1274,#982,#983);
#866=AXIS2_PLACEMENT_3D('',#1275,#984,#985);
#867=AXIS2_PLACEMENT_3D('',#1276,#986,#987);
#868=AXIS2_PLACEMENT_3D('',#1278,#988,#989);
#869=AXIS2_PLACEMENT_3D('',#1280,#990,#991);
#870=AXIS2_PLACEMENT_3D('',#1282,#993,#994);
#871=AXIS2_PLACEMENT_3D('',#1284,#995,#996);
#872=AXIS2_PLACEMENT_3D('',#1286,#998,#999);
#873=AXIS2_PLACEMENT_3D('',#1295,#1005,#1006);
#874=AXIS2_PLACEMENT_3D('',#1298,#1007,#1008);
#875=AXIS2_PLACEMENT_3D('',#1301,#1011,#1012);
#876=AXIS2_PLACEMENT_3D('',#1305,#1015,#1016);
#877=AXIS2_PLACEMENT_3D('',#1306,#1017,#1018);
#878=AXIS2_PLACEMENT_3D('',#1307,#1019,#1020);
#879=AXIS2_PLACEMENT_3D('',#1311,#1022,#1023);
#880=AXIS2_PLACEMENT_3D('',#1317,#1026,#1027);
#881=AXIS2_PLACEMENT_3D('',#1323,#1030,#1031);
#882=AXIS2_PLACEMENT_3D('',#1325,#1033,#1034);
#883=AXIS2_PLACEMENT_3D('',#1331,#1038,#1039);
#884=AXIS2_PLACEMENT_3D('',#1333,#1041,#1042);
#885=AXIS2_PLACEMENT_3D('',#1337,#1045,#1046);
#886=AXIS2_PLACEMENT_3D('',#1341,#1049,#1050);
#887=AXIS2_PLACEMENT_3D('',#1344,#1052,#1053);
#888=AXIS2_PLACEMENT_3D('',#1346,#1055,#1056);
#889=AXIS2_PLACEMENT_3D('',#1347,#1057,#1058);
#890=AXIS2_PLACEMENT_3D('',#1349,#1060,#1061);
#891=AXIS2_PLACEMENT_3D('',#1351,#1063,#1064);
#892=AXIS2_PLACEMENT_3D('',#1355,#1066,#1067);
#893=AXIS2_PLACEMENT_3D('',#1359,#1069,#1070);
#894=AXIS2_PLACEMENT_3D('',#1361,#1072,#1073);
#895=AXIS2_PLACEMENT_3D('',#1369,#1078,#1079);
#896=AXIS2_PLACEMENT_3D('',#1371,#1080,#1081);
#897=AXIS2_PLACEMENT_3D('',#1374,#1083,#1084);
#898=AXIS2_PLACEMENT_3D('',#1375,#1085,#1086);
#899=AXIS2_PLACEMENT_3D('',#1379,#1088,#1089);
#900=AXIS2_PLACEMENT_3D('',#1381,#1091,#1092);
#901=AXIS2_PLACEMENT_3D('',#1383,#1093,#1094);
#902=AXIS2_PLACEMENT_3D('',#1385,#1096,#1097);
#903=AXIS2_PLACEMENT_3D('',#1387,#1098,#1099);
#904=AXIS2_PLACEMENT_3D('',#1389,#1100,#1101);
#905=AXIS2_PLACEMENT_3D('',#1390,#1102,#1103);
#906=AXIS2_PLACEMENT_3D('',#1392,#1105,#1106);
#907=AXIS2_PLACEMENT_3D('',#1429,#1108,#1109);
#908=AXIS2_PLACEMENT_3D('',#1431,#1110,#1111);
#909=AXIS2_PLACEMENT_3D('',#1435,#1113,#1114);
#910=AXIS2_PLACEMENT_3D('',#1475,#1116,#1117);
#911=AXIS2_PLACEMENT_3D('',#1481,#1121,#1122);
#912=AXIS2_PLACEMENT_3D('',#1487,#1126,#1127);
#913=AXIS2_PLACEMENT_3D('',#1493,#1131,#1132);
#914=AXIS2_PLACEMENT_3D('',#1495,#1133,#1134);
#915=AXIS2_PLACEMENT_3D('',#1497,#1136,#1137);
#916=AXIS2_PLACEMENT_3D('',#1498,#1138,#1139);
#917=AXIS2_PLACEMENT_3D('',#1500,#1141,#1142);
#918=AXIS2_PLACEMENT_3D('',#1501,#1143,#1144);
#919=AXIS2_PLACEMENT_3D('',#1502,#1145,#1146);
#920=AXIS2_PLACEMENT_3D('',#1505,#1148,#1149);
#921=AXIS2_PLACEMENT_3D('',#1506,#1150,#1151);
#922=AXIS2_PLACEMENT_3D('',#1507,#1152,#1153);
#923=AXIS2_PLACEMENT_3D('',#1509,#1155,#1156);
#924=AXIS2_PLACEMENT_3D('',#1512,#1158,#1159);
#925=AXIS2_PLACEMENT_3D('',#1513,#1160,#1161);
#926=AXIS2_PLACEMENT_3D('',#1515,#1163,#1164);
#927=AXIS2_PLACEMENT_3D('',#1516,#1165,#1166);
#928=AXIS2_PLACEMENT_3D('',#1517,#1167,#1168);
#929=AXIS2_PLACEMENT_3D('',#1518,#1169,#1170);
#930=AXIS2_PLACEMENT_3D('',#1520,#1171,#1172);
#931=AXIS2_PLACEMENT_3D('',#1521,#1173,#1174);
#932=AXIS2_PLACEMENT_3D('',#1522,#1175,#1176);
#933=AXIS2_PLACEMENT_3D('',#1523,#1177,#1178);
#934=AXIS2_PLACEMENT_3D('',#1524,#1179,#1180);
#935=AXIS2_PLACEMENT_3D('',#1525,#1181,#1182);
#936=DIRECTION('axis',(0.,0.,1.));
#937=DIRECTION('refdir',(1.,0.,0.));
#938=DIRECTION('center_axis',(1.80318722916214E-14,-1.,-3.58636449499307E-14));
#939=DIRECTION('ref_axis',(-0.972992291850643,-9.24242316694959E-15,-0.230837605253637));
#940=DIRECTION('center_axis',(3.22841402175607E-15,1.,2.3698919794053E-14));
#941=DIRECTION('ref_axis',(-0.972992291850643,-9.24242316694959E-15,-0.230837605253637));
#942=DIRECTION('',(-1.80318722916214E-14,1.,3.58636449499307E-14));
#943=DIRECTION('center_axis',(5.79392319288104E-15,-1.,-1.17016260240726E-14));
#944=DIRECTION('ref_axis',(-0.972992291850643,-9.24242316694959E-15,-0.230837605253637));
#945=DIRECTION('',(0.,-1.,0.));
#946=DIRECTION('',(-1.80318722916214E-14,1.,3.58636449499307E-14));
#947=DIRECTION('center_axis',(3.22841402175607E-15,1.,2.3698919794053E-14));
#948=DIRECTION('ref_axis',(1.,-3.22841402175606E-15,-5.82243711177398E-16));
#949=DIRECTION('center_axis',(-3.22841402175607E-15,-1.,-2.3698919794053E-14));
#950=DIRECTION('ref_axis',(-1.,0.,-2.82968093401235E-14));
#951=DIRECTION('center_axis',(-3.22841402175607E-15,-1.,-2.3698919794053E-14));
#952=DIRECTION('ref_axis',(0.937132766358207,0.,-0.348973033654199));
#953=DIRECTION('',(-1.,3.2284140217559E-15,7.21644966007376E-15));
#954=DIRECTION('center_axis',(3.22841402175607E-15,1.,2.3698919794053E-14));
#955=DIRECTION('ref_axis',(-0.707106781186544,-1.25607396694703E-14,0.707106781186551));
#956=DIRECTION('',(1.05887520973613E-14,-2.20025637960633E-17,-1.));
#957=DIRECTION('center_axis',(3.22841402175607E-15,1.,2.3698919794053E-14));
#958=DIRECTION('ref_axis',(-0.707106781186538,0.,-0.707106781186557));
#959=DIRECTION('',(1.,2.22044604925031E-15,9.96980276113391E-13));
#960=DIRECTION('center_axis',(3.22841402175607E-15,1.,2.3698919794053E-14));
#961=DIRECTION('ref_axis',(0.707106781186908,0.,-0.707106781186187));
#962=DIRECTION('',(9.96160529544032E-13,2.36989197940497E-14,-1.));
#963=DIRECTION('',(1.,2.22044604925031E-15,9.96980276113391E-13));
#964=DIRECTION('center_axis',(3.22841402175607E-15,1.,2.3698919794053E-14));
#965=DIRECTION('ref_axis',(1.,-1.34656595638174E-15,2.8310687127931E-14));
#966=DIRECTION('',(0.,8.88178419700125E-15,1.));
#967=DIRECTION('',(1.,9.76825914882945E-14,-1.79860286390391E-28));
#968=DIRECTION('center_axis',(3.22841402175607E-15,1.,2.3698919794053E-14));
#969=DIRECTION('ref_axis',(-0.707106781186548,-6.28036983473512E-15,0.707106781186548));
#970=DIRECTION('',(-6.93889390532746E-17,2.3698919794053E-14,-1.));
#971=DIRECTION('center_axis',(0.,1.,0.));
#972=DIRECTION('ref_axis',(-1.,0.,-2.82968093401235E-14));
#973=DIRECTION('center_axis',(-5.79392319288104E-15,1.,1.17016260240726E-14));
#974=DIRECTION('ref_axis',(-1.,0.,-2.82968093401235E-14));
#975=DIRECTION('',(0.,1.,0.));
#976=DIRECTION('center_axis',(2.22044604925036E-14,-1.,1.24218649228355E-30));
#977=DIRECTION('ref_axis',(-1.,0.,-2.82968093401235E-14));
#978=DIRECTION('',(0.,1.,0.));
#979=DIRECTION('center_axis',(-1.80318722916209E-14,1.,-5.87112278757427E-15));
#980=DIRECTION('ref_axis',(-1.,0.,-2.82968093401235E-14));
#981=DIRECTION('',(0.,1.,0.));
#982=DIRECTION('center_axis',(1.,2.68303897619162E-16,1.66533453692767E-15));
#983=DIRECTION('ref_axis',(-1.66533453692767E-15,1.71577847280761E-14,1.));
#984=DIRECTION('center_axis',(1.,-4.92714684077597E-16,1.5279507840179E-16));
#985=DIRECTION('ref_axis',(4.92714684077597E-16,1.,1.55211197809564E-14));
#986=DIRECTION('center_axis',(0.,1.,0.));
#987=DIRECTION('ref_axis',(0.937132766358207,0.,-0.348973033654199));
#988=DIRECTION('center_axis',(2.22044604925036E-14,-1.,1.24218649228355E-30));
#989=DIRECTION('ref_axis',(0.937132766358207,0.,-0.348973033654199));
#990=DIRECTION('center_axis',(-5.79392319288104E-15,1.,1.17016260240726E-14));
#991=DIRECTION('ref_axis',(0.937132766358207,0.,-0.348973033654199));
#992=DIRECTION('',(1.61825175313543E-29,-1.,2.24244861304677E-15));
#993=DIRECTION('center_axis',(0.,1.,0.));
#994=DIRECTION('ref_axis',(0.937132766358207,0.,-0.348973033654199));
#995=DIRECTION('center_axis',(-1.80318722916209E-14,1.,-5.87112278757427E-15));
#996=DIRECTION('ref_axis',(0.937132766358207,0.,-0.348973033654199));
#997=DIRECTION('',(1.61825175313543E-29,-1.,2.24244861304677E-15));
#998=DIRECTION('center_axis',(-7.21644966007377E-15,-2.24244861304677E-15,
-1.));
#999=DIRECTION('ref_axis',(-1.,-1.80318722916216E-14,7.21644966007381E-15));
#1000=DIRECTION('',(1.,5.79392319288113E-15,-7.21644966007379E-15));
#1001=DIRECTION('',(-6.18949336228679E-15,1.,-2.24244861304673E-15));
#1002=DIRECTION('',(1.,1.80318722916208E-14,-7.21644966007381E-15));
#1003=DIRECTION('',(1.80318722916215E-14,-1.,2.24244861304664E-15));
#1004=DIRECTION('',(-1.,-2.22044604925036E-14,7.21644966007382E-15));
#1005=DIRECTION('center_axis',(-6.18949336228679E-15,1.,-1.74901615765731E-15));
#1006=DIRECTION('ref_axis',(-0.707106781186538,0.,-0.707106781186557));
#1007=DIRECTION('center_axis',(5.79392319288104E-15,-1.,-1.17016260240726E-14));
#1008=DIRECTION('ref_axis',(-0.707106781186538,0.,-0.707106781186557));
#1009=DIRECTION('',(6.18949336228679E-15,-1.,1.74901615765731E-15));
#1010=DIRECTION('',(-6.18949336228679E-15,1.,-1.74901615765731E-15));
#1011=DIRECTION('center_axis',(-1.,-6.1894933622868E-15,-4.66756263269446E-15));
#1012=DIRECTION('ref_axis',(-6.18949336228687E-15,1.,1.55211197809563E-14));
#1013=DIRECTION('',(6.18949336228679E-15,-1.,2.24244861304673E-15));
#1014=DIRECTION('',(-1.04117910154463E-15,1.17016260240726E-14,-1.));
#1015=DIRECTION('center_axis',(-6.18949336228679E-15,1.,-2.24244861304673E-15));
#1016=DIRECTION('ref_axis',(-0.707106781186544,-1.25607396694703E-14,0.707106781186551));
#1017=DIRECTION('center_axis',(5.79392319288104E-15,-1.,-1.17016260240726E-14));
#1018=DIRECTION('ref_axis',(-0.707106781186544,-1.25607396694703E-14,0.707106781186551));
#1019=DIRECTION('center_axis',(5.79392319288104E-15,-1.,-1.17016260240726E-14));
#1020=DIRECTION('ref_axis',(1.20396233056043E-14,-1.17016260240725E-14,
1.));
#1021=DIRECTION('',(6.93889390322495E-17,-1.17016260240726E-14,1.));
#1022=DIRECTION('center_axis',(5.79392319288104E-15,-1.,-1.17016260240726E-14));
#1023=DIRECTION('ref_axis',(-0.707106781186548,-6.28036983473512E-15,0.707106781186548));
#1024=DIRECTION('',(-1.,-1.35318316590405E-14,2.14570166220115E-28));
#1025=DIRECTION('',(0.,8.88178419700125E-15,1.));
#1026=DIRECTION('center_axis',(5.79392319288104E-15,-1.,-1.17016260240726E-14));
#1027=DIRECTION('ref_axis',(1.,-1.34656595638174E-15,2.8310687127931E-14));
#1028=DIRECTION('',(1.,2.22044604925031E-15,9.96980276113391E-13));
#1029=DIRECTION('',(-2.84912377819577E-14,-1.17016260240728E-14,1.));
#1030=DIRECTION('center_axis',(5.79392319288104E-15,-1.,-1.17016260240726E-14));
#1031=DIRECTION('ref_axis',(0.707106781186908,0.,-0.707106781186187));
#1032=DIRECTION('',(1.,4.80849382472578E-15,3.904808511482E-15));
#1033=DIRECTION('center_axis',(-1.,-1.80318722916213E-14,-4.84871999182079E-15));
#1034=DIRECTION('ref_axis',(-1.80318722916213E-14,1.,1.18924456064282E-14));
#1035=DIRECTION('',(4.84871999182096E-15,-9.34787597064748E-15,-1.));
#1036=DIRECTION('',(-1.7121461745576E-14,-1.,1.74901615765663E-15));
#1037=DIRECTION('',(-4.84871999182096E-15,9.3478759706475E-15,1.));
#1038=DIRECTION('center_axis',(-1.,-1.80318722916213E-14,-4.84871999182078E-15));
#1039=DIRECTION('ref_axis',(-1.80318722916213E-14,1.,1.18924456064282E-14));
#1040=DIRECTION('',(1.80318722916212E-14,-1.,6.88160890909562E-15));
#1041=DIRECTION('center_axis',(-2.22044604925036E-14,1.,-1.24218649228355E-30));
#1042=DIRECTION('ref_axis',(-1.38777878078302E-17,9.34037701181235E-31,
1.));
#1043=DIRECTION('',(-4.08469554476671E-15,-2.56657219957698E-15,1.));
#1044=DIRECTION('',(-1.,-2.1711745808426E-14,7.03589900604743E-15));
#1045=DIRECTION('center_axis',(1.80318722916209E-14,-1.,5.87112278757427E-15));
#1046=DIRECTION('ref_axis',(-1.,-1.8031872291621E-14,-2.77694534034368E-14));
#1047=DIRECTION('',(1.,1.75391576075432E-14,-7.03589900604741E-15));
#1048=DIRECTION('',(1.05887520973613E-14,-2.20025637960633E-17,-1.));
#1049=DIRECTION('center_axis',(2.83523204913638E-14,-1.74901615765714E-15,
-1.));
#1050=DIRECTION('ref_axis',(-1.,-1.8031872291621E-14,-2.83523204913638E-14));
#1051=DIRECTION('',(-1.11418810685467E-15,1.,-1.74901615765717E-15));
#1052=DIRECTION('center_axis',(-2.83523204913638E-14,1.74901615765714E-15,
1.));
#1053=DIRECTION('ref_axis',(-1.,-1.80318722916214E-14,-2.06914335795675E-29));
#1054=DIRECTION('',(1.75391576075439E-14,-1.,5.57311768692209E-15));
#1055=DIRECTION('center_axis',(-1.,-1.80318722916215E-14,-4.08469554476675E-15));
#1056=DIRECTION('ref_axis',(1.80318722916176E-14,-1.,9.51379467546814E-13));
#1057=DIRECTION('center_axis',(1.80318722916212E-14,-1.,6.88160890909562E-15));
#1058=DIRECTION('ref_axis',(-0.707106781186548,-6.28036983473512E-15,0.707106781186548));
#1059=DIRECTION('',(-1.80318722916212E-14,1.,-6.88160890909562E-15));
#1060=DIRECTION('center_axis',(-1.11418810685467E-15,1.,-1.74901615765717E-15));
#1061=DIRECTION('ref_axis',(0.707106781186908,0.,-0.707106781186187));
#1062=DIRECTION('',(1.11418810685467E-15,-1.,1.74901615765717E-15));
#1063=DIRECTION('center_axis',(-1.,-1.11418810685641E-15,-9.96160529544032E-13));
#1064=DIRECTION('ref_axis',(-9.96160529544032E-13,-1.99074473381087E-14,
1.));
#1065=DIRECTION('',(-1.34656595638173E-15,-1.,-1.79856167954304E-16));
#1066=DIRECTION('center_axis',(1.,-4.92714684077609E-16,1.38917290593963E-16));
#1067=DIRECTION('ref_axis',(-4.9271468407761E-16,-1.,-1.55211197809564E-14));
#1068=DIRECTION('',(-4.92714682227513E-16,-1.,-5.27290724595494E-15));
#1069=DIRECTION('center_axis',(1.,-4.92714684077609E-16,1.38917290593963E-16));
#1070=DIRECTION('ref_axis',(-4.92714684077612E-16,-1.,-1.55211197809564E-14));
#1071=DIRECTION('',(-4.92714684077761E-16,-1.,1.0707894089292E-12));
#1072=DIRECTION('center_axis',(1.,-1.3637062736241E-10,1.2112144830426E-24));
#1073=DIRECTION('ref_axis',(1.3637062736241E-10,1.,1.99840082900786E-15));
#1074=DIRECTION('',(1.3637062736241E-10,1.,1.99840082900786E-15));
#1075=DIRECTION('',(1.34656595638173E-15,1.,1.79856167954304E-16));
#1076=DIRECTION('',(-1.3637062736241E-10,-1.,6.88160890909562E-15));
#1077=DIRECTION('',(0.,-8.88178419700125E-15,-1.));
#1078=DIRECTION('center_axis',(0.,8.88178419700125E-15,1.));
#1079=DIRECTION('ref_axis',(-1.80318722916209E-14,1.,-8.88178419700125E-15));
#1080=DIRECTION('center_axis',(-7.57306469012171E-29,2.44249065427887E-15,
1.));
#1081=DIRECTION('ref_axis',(-1.80318722916209E-14,1.,-2.44249065427887E-15));
#1082=DIRECTION('',(0.,8.88178419700125E-15,1.));
#1083=DIRECTION('center_axis',(7.57306469012171E-29,-2.44249065427887E-15,
-1.));
#1084=DIRECTION('ref_axis',(-1.80318722916209E-14,1.,-2.44249065427887E-15));
#1085=DIRECTION('center_axis',(1.23062301214478E-28,6.88160890909562E-15,
1.));
#1086=DIRECTION('ref_axis',(-1.80318722916209E-14,1.,-6.88160890909563E-15));
#1087=DIRECTION('',(-1.96280936657254E-11,1.,-2.44249065427887E-15));
#1088=DIRECTION('center_axis',(7.57306469012171E-29,-2.44249065427887E-15,
-1.));
#1089=DIRECTION('ref_axis',(-1.80318722916209E-14,1.,-2.44249065427887E-15));
#1090=DIRECTION('',(-1.96280936657254E-11,1.,-2.44249065427887E-15));
#1091=DIRECTION('center_axis',(1.23062301214478E-28,6.88160890909562E-15,
1.));
#1092=DIRECTION('ref_axis',(-1.80318722916209E-14,1.,-6.88160890909563E-15));
#1093=DIRECTION('center_axis',(3.626973930258E-15,1.69161367644885E-14,
-1.));
#1094=DIRECTION('ref_axis',(-1.,-5.79392319283027E-15,-3.62697393025809E-15));
#1095=DIRECTION('',(1.96280936657254E-11,-1.,2.44249065427887E-15));
#1096=DIRECTION('center_axis',(-6.6264316038565E-29,2.44249065427887E-15,
1.));
#1097=DIRECTION('ref_axis',(-1.,-1.80318722916214E-14,-2.20881053461883E-29));
#1098=DIRECTION('center_axis',(-6.6264316038565E-29,2.44249065427887E-15,
1.));
#1099=DIRECTION('ref_axis',(-1.,-1.80318722916214E-14,-2.06914335795675E-29));
#1100=DIRECTION('center_axis',(-6.6264316038565E-29,2.44249065427887E-15,
1.));
#1101=DIRECTION('ref_axis',(-1.,-1.80318722916214E-14,-2.32017913300298E-29));
#1102=DIRECTION('center_axis',(-6.6264316038565E-29,2.44249065427887E-15,
1.));
#1103=DIRECTION('ref_axis',(-1.,-1.80318722916214E-14,-2.06914335795675E-29));
#1104=DIRECTION('',(-6.6264316038565E-29,2.44249065427887E-15,1.));
#1105=DIRECTION('center_axis',(-6.6264316038565E-29,2.44249065427887E-15,
1.));
#1106=DIRECTION('ref_axis',(-1.,-1.80318722916214E-14,-2.32017913300298E-29));
#1107=DIRECTION('',(-6.6264316038565E-29,2.44249065427887E-15,1.));
#1108=DIRECTION('center_axis',(1.34656595638173E-15,1.,1.79856167954304E-16));
#1109=DIRECTION('ref_axis',(1.,-1.34656595638174E-15,2.8310687127931E-14));
#1110=DIRECTION('center_axis',(-1.34656595638173E-15,-1.,-1.79856167954304E-16));
#1111=DIRECTION('ref_axis',(1.,-1.34656595638174E-15,2.8310687127931E-14));
#1112=DIRECTION('',(-1.34656595638173E-15,-1.,-1.79856167954304E-16));
#1113=DIRECTION('center_axis',(1.34656595638173E-15,1.,1.79856167954304E-16));
#1114=DIRECTION('ref_axis',(1.,-1.34656595638174E-15,2.8310687127931E-14));
#1115=DIRECTION('',(1.34656595638173E-15,1.,1.79856167954304E-16));
#1116=DIRECTION('center_axis',(1.,1.96280936657254E-11,-1.743324921375E-25));
#1117=DIRECTION('ref_axis',(-1.96280936657254E-11,1.,-2.44249065427887E-15));
#1118=DIRECTION('',(1.34656595638173E-15,1.,1.79856167954304E-16));
#1119=DIRECTION('',(0.,8.88178419700125E-15,1.));
#1120=DIRECTION('',(1.96280936657254E-11,-1.,2.44249065427887E-15));
#1121=DIRECTION('center_axis',(-9.96980276113391E-13,-1.79856167952962E-16,
1.));
#1122=DIRECTION('ref_axis',(-1.34656595638173E-15,-1.,-1.79856167954304E-16));
#1123=DIRECTION('',(-1.34656595638173E-15,-1.,-1.79856167954304E-16));
#1124=DIRECTION('',(4.92714682227513E-16,1.,5.27290724595494E-15));
#1125=DIRECTION('',(-1.,0.,0.));
#1126=DIRECTION('center_axis',(-9.96980276113391E-13,-1.79856167952962E-16,
1.));
#1127=DIRECTION('ref_axis',(-1.34656595638173E-15,-1.,-1.79856167954304E-16));
#1128=DIRECTION('',(-1.34656595638173E-15,-1.,-1.79856167954304E-16));
#1129=DIRECTION('',(-1.,0.,0.));
#1130=DIRECTION('',(4.92714684077761E-16,1.,-1.0707894089292E-12));
#1131=DIRECTION('center_axis',(0.,8.88178419700125E-15,1.));
#1132=DIRECTION('ref_axis',(-1.80318722916209E-14,1.,-8.88178419700125E-15));
#1133=DIRECTION('center_axis',(-7.57306469012171E-29,2.44249065427887E-15,
1.));
#1134=DIRECTION('ref_axis',(-1.80318722916209E-14,1.,-2.44249065427887E-15));
#1135=DIRECTION('',(0.,8.88178419700125E-15,1.));
#1136=DIRECTION('center_axis',(1.23062301214478E-28,6.88160890909562E-15,
1.));
#1137=DIRECTION('ref_axis',(-1.80318722916209E-14,1.,-6.88160890909563E-15));
#1138=DIRECTION('center_axis',(3.626973930258E-15,1.69161367644885E-14,
-1.));
#1139=DIRECTION('ref_axis',(-1.,-5.79392319284803E-15,-3.62697393025809E-15));
#1140=DIRECTION('',(1.96280936657254E-11,-1.,2.44249065427887E-15));
#1141=DIRECTION('center_axis',(1.34656595638173E-15,1.,1.79856167954304E-16));
#1142=DIRECTION('ref_axis',(1.,-1.34656595638174E-15,2.8310687127931E-14));
#1143=DIRECTION('center_axis',(-1.34656595638173E-15,-1.,-1.79856167954304E-16));
#1144=DIRECTION('ref_axis',(1.,-1.34656595638174E-15,2.8310687127931E-14));
#1145=DIRECTION('center_axis',(1.,-4.92714684077609E-16,1.38917290593915E-16));
#1146=DIRECTION('ref_axis',(-4.92714684077609E-16,-1.,-1.55211197809564E-14));
#1147=DIRECTION('',(4.92714682227513E-16,1.,5.27290724595494E-15));
#1148=DIRECTION('center_axis',(1.,-4.92714684077609E-16,1.38917290593963E-16));
#1149=DIRECTION('ref_axis',(-4.9271468407761E-16,-1.,-1.55211197809564E-14));
#1150=DIRECTION('center_axis',(-1.,-1.11418810685641E-15,-9.96160529544032E-13));
#1151=DIRECTION('ref_axis',(9.96160529544032E-13,-1.79023780952601E-14,
-1.));
#1152=DIRECTION('center_axis',(-1.,0.,0.));
#1153=DIRECTION('ref_axis',(0.,-1.,-1.55211197809564E-14));
#1154=DIRECTION('',(-1.,0.,0.));
#1155=DIRECTION('center_axis',(-1.,0.,0.));
#1156=DIRECTION('ref_axis',(0.,-1.,-1.55211197809564E-14));
#1157=DIRECTION('',(-1.,0.,0.));
#1158=DIRECTION('center_axis',(1.,-4.92714684077609E-16,1.38917290593963E-16));
#1159=DIRECTION('ref_axis',(-4.92714684077612E-16,-1.,-1.55211197809564E-14));
#1160=DIRECTION('center_axis',(1.,-4.92714684077609E-16,1.38917290594013E-16));
#1161=DIRECTION('ref_axis',(-4.92714684077609E-16,-1.,-1.55211197809564E-14));
#1162=DIRECTION('',(4.92714684077761E-16,1.,-1.0707894089292E-12));
#1163=DIRECTION('center_axis',(-1.,-1.11418810685641E-15,-9.96160529544032E-13));
#1164=DIRECTION('ref_axis',(9.96160529544032E-13,-3.58047561905375E-14,
-1.));
#1165=DIRECTION('center_axis',(1.34656595638173E-15,1.,1.79856167954304E-16));
#1166=DIRECTION('ref_axis',(1.,-1.34656595638174E-15,2.8310687127931E-14));
#1167=DIRECTION('center_axis',(-1.34656595638173E-15,-1.,-1.79856167954304E-16));
#1168=DIRECTION('ref_axis',(1.,-1.34656595638174E-15,2.8310687127931E-14));
#1169=DIRECTION('center_axis',(-1.,4.92714684077597E-16,-1.5279507840179E-16));
#1170=DIRECTION('ref_axis',(4.92714684077597E-16,1.,1.55211197809564E-14));
#1171=DIRECTION('center_axis',(1.,-4.92714684077597E-16,1.5279507840179E-16));
#1172=DIRECTION('ref_axis',(-2.68303897619189E-16,1.,1.55211197809564E-14));
#1173=DIRECTION('center_axis',(1.,1.96280936657254E-11,-1.743324921375E-25));
#1174=DIRECTION('ref_axis',(-1.96280936657254E-11,1.,-2.44249065427887E-15));
#1175=DIRECTION('center_axis',(-5.79392319284797E-15,1.,-1.79023780952659E-14));
#1176=DIRECTION('ref_axis',(1.,5.79412531306519E-15,9.96513315356252E-13));
#1177=DIRECTION('center_axis',(-9.96980276113391E-13,-1.79856167952962E-16,
1.));
#1178=DIRECTION('ref_axis',(-1.34656595638173E-15,-1.,-1.79856167954304E-16));
#1179=DIRECTION('center_axis',(-5.79392319283014E-15,1.,-3.58047561905433E-14));
#1180=DIRECTION('ref_axis',(1.,5.79412531306519E-15,9.96284599883368E-13));
#1181=DIRECTION('center_axis',(1.,2.68303897619162E-16,1.66533453692767E-15));
#1182=DIRECTION('ref_axis',(-2.68303897619189E-16,1.,1.55211197809564E-14));
#1183=DIRECTION('',(1.,2.68303897619162E-16,1.66533453692767E-15));
#1184=CARTESIAN_POINT('',(0.,0.,0.));
#1185=CARTESIAN_POINT('Origin',(-0.99050880021586,31.9369081998634,5.67266934130442));
#1186=CARTESIAN_POINT('',(-36.7276288002772,31.9369081998632,-12.2955875051794));
#1187=CARTESIAN_POINT('',(-40.990508800199,31.936908199862,5.67266934130423));
#1188=CARTESIAN_POINT('Origin',(-0.99050880021586,31.9369081998624,5.67266934130442));
#1189=CARTESIAN_POINT('',(-40.9905088001991,49.8369088146707,5.67266934130487));
#1190=CARTESIAN_POINT('',(-40.9905088002159,31.9369081998627,5.67266934130423));
#1191=CARTESIAN_POINT('',(-36.7276288002772,49.8369088146715,-12.2955875051794));
#1192=CARTESIAN_POINT('Origin',(-0.990508800216183,49.8369088146699,5.67266934130507));
#1193=CARTESIAN_POINT('',(-36.7276288002772,31.9369081998634,-12.2955875051794));
#1194=CARTESIAN_POINT('',(-38.9905088001959,41.7268626333109,-6.81732665555337));
#1195=CARTESIAN_POINT('',(-38.9905088001959,40.0469543812216,-6.81732665555334));
#1196=CARTESIAN_POINT('Ctrl Pts',(-38.9905088001959,41.726862633311,-6.81732665555336));
#1197=CARTESIAN_POINT('Ctrl Pts',(-39.0008001226434,41.8361600253887,-6.78601597674255));
#1198=CARTESIAN_POINT('Ctrl Pts',(-39.0130956635251,41.944005609428,-6.74848069047366));
#1199=CARTESIAN_POINT('Ctrl Pts',(-39.0771815601825,42.421784204821,-6.55154590436977));
#1200=CARTESIAN_POINT('Ctrl Pts',(-39.151016266312,42.7601976125943,-6.32112687250707));
#1201=CARTESIAN_POINT('Ctrl Pts',(-39.3153837492812,43.3043123430069,-5.78532323504451));
#1202=CARTESIAN_POINT('Ctrl Pts',(-39.4178929401603,43.5427676066829,-5.43995329978103));
#1203=CARTESIAN_POINT('Ctrl Pts',(-39.6286749708816,43.8590730757202,-4.683311962041));
#1204=CARTESIAN_POINT('Ctrl Pts',(-39.7366456401018,43.9369085072663,-4.2719502390233));
#1205=CARTESIAN_POINT('Ctrl Pts',(-39.9255277598949,43.9369085072663,-3.5043759964366));
#1206=CARTESIAN_POINT('Ctrl Pts',(-40.0195289020334,43.8611590160324,-3.09572470197067));
#1207=CARTESIAN_POINT('Ctrl Pts',(-40.1815517505105,43.5483590012114,-2.34052581679334));
#1208=CARTESIAN_POINT('Ctrl Pts',(-40.2498828002748,43.3111953538217,-1.99409148917261));
#1209=CARTESIAN_POINT('Ctrl Pts',(-40.3515866439299,42.7661631685393,-1.45329108910889));
#1210=CARTESIAN_POINT('Ctrl Pts',(-40.3923797313374,42.4250835077462,-1.22059830814967));
#1211=CARTESIAN_POINT('Ctrl Pts',(-40.4451959222487,41.6765798884998,-0.9115721266388));
#1212=CARTESIAN_POINT('Ctrl Pts',(-40.4575427877647,41.2691673659234,-0.835266447075269));
#1213=CARTESIAN_POINT('Ctrl Pts',(-40.4575427877647,40.8869085072662,-0.835266447075283));
#1214=CARTESIAN_POINT('Ctrl Pts',(-40.4575427877647,40.5046496486089,-0.835266447075296));
#1215=CARTESIAN_POINT('Ctrl Pts',(-40.4451959222487,40.0972371260326,-0.911572126638861));
#1216=CARTESIAN_POINT('Ctrl Pts',(-40.3923797313373,39.3487335067862,-1.22059830814979));
#1217=CARTESIAN_POINT('Ctrl Pts',(-40.3515866439298,39.0076538459932,-1.45329108910902));
#1218=CARTESIAN_POINT('Ctrl Pts',(-40.2498828002747,38.4626216607107,-1.99409148917278));
#1219=CARTESIAN_POINT('Ctrl Pts',(-40.1815517505104,38.2254580133211,-2.34052581679352));
#1220=CARTESIAN_POINT('Ctrl Pts',(-40.0195289020333,37.9126579985002,-3.09572470197088));
#1221=CARTESIAN_POINT('Ctrl Pts',(-39.9255277598948,37.8369085072663,-3.50437599643681));
#1222=CARTESIAN_POINT('Ctrl Pts',(-39.7366456401017,37.8369085072663,-4.27195023902351));
#1223=CARTESIAN_POINT('Ctrl Pts',(-39.6286749708815,37.9147439388124,-4.68331196204121));
#1224=CARTESIAN_POINT('Ctrl Pts',(-39.4178929401602,38.2310494078498,-5.43995329978122));
#1225=CARTESIAN_POINT('Ctrl Pts',(-39.3153837492811,38.4695046715258,-5.78532323504468));
#1226=CARTESIAN_POINT('Ctrl Pts',(-39.151016266312,39.0136194019385,-6.32112687250721));
#1227=CARTESIAN_POINT('Ctrl Pts',(-39.0771815601825,39.3520328097118,-6.55154590436988));
#1228=CARTESIAN_POINT('Ctrl Pts',(-39.013095663525,39.8298114051047,-6.7484806904737));
#1229=CARTESIAN_POINT('Ctrl Pts',(-39.0008001226434,39.9376569891439,-6.78601597674255));
#1230=CARTESIAN_POINT('Ctrl Pts',(-38.9905088001959,40.0469543812216,-6.81732665555334));
#1231=CARTESIAN_POINT('',(-38.9905088002124,31.9369081998632,-6.81732665550302));
#1232=CARTESIAN_POINT('Origin',(-14.9903229015683,31.9369081998626,-5.84026644707546));
#1233=CARTESIAN_POINT('',(-24.7596352414784,31.9369081998636,-27.6570486252928));
#1234=CARTESIAN_POINT('Origin',(7.94377119979949,31.9369081998626,10.1647335529254));
#1235=CARTESIAN_POINT('',(-25.0866693058912,31.9369081998632,-28.535266447075));
#1236=CARTESIAN_POINT('Origin',(-25.0866693058912,31.9369081998626,-28.035266447075));
#1237=CARTESIAN_POINT('',(-27.2155088002096,31.9369081998632,-28.5352664470749));
#1238=CARTESIAN_POINT('',(-10.6154158508836,31.9369081998631,-28.5352664470751));
#1239=CARTESIAN_POINT('',(-28.2155088002064,31.9369081998641,-29.5352664470749));
#1240=CARTESIAN_POINT('Origin',(-27.2155088002096,31.9369081998624,-29.5352664470749));
#1241=CARTESIAN_POINT('',(-28.2155088002063,31.9369081998641,-37.9352664470751));
#1242=CARTESIAN_POINT('',(-28.2155088002064,31.9369081998641,-33.135266447075));
#1243=CARTESIAN_POINT('',(-27.2155088002096,31.9369081998639,-38.9352664471099));
#1244=CARTESIAN_POINT('Origin',(-27.2155088002096,31.9369081998624,-37.935266447075));
#1245=CARTESIAN_POINT('',(8.94377135002816,31.936908199864,-38.9352664470738));
#1246=CARTESIAN_POINT('',(7.94377135002684,31.936908199864,-38.9352664470748));
#1247=CARTESIAN_POINT('',(9.94377135002813,31.9369081998633,-37.935266447073));
#1248=CARTESIAN_POINT('Origin',(8.94377135002813,31.9369081998625,-37.935266447074));
#1249=CARTESIAN_POINT('',(9.94377135002405,31.9369081998632,-33.8352664470724));
#1250=CARTESIAN_POINT('',(9.94377135000976,31.9369081998628,-19.4877664470618));
#1251=CARTESIAN_POINT('',(7.94377135002405,31.9369081998632,-33.8352664470744));
#1252=CARTESIAN_POINT('',(7.94377135002405,31.9369081998632,-33.8352664470744));
#1253=CARTESIAN_POINT('',(-36.0562288002047,31.9369081998624,10.1647335529237));
#1254=CARTESIAN_POINT('Origin',(7.94377119979527,31.9369081998625,10.1647335529255));
#1255=CARTESIAN_POINT('',(-36.0562288002014,31.9369081998617,12.1647335529247));
#1256=CARTESIAN_POINT('',(-36.0562288002014,31.9369081998617,10.1647335529247));
#1257=CARTESIAN_POINT('',(-39.9905088002159,31.9369081998613,12.1647335529247));
#1258=CARTESIAN_POINT('',(-40.9905088001956,31.9369081998612,12.1647335529247));
#1259=CARTESIAN_POINT('',(-40.990508800199,31.9369081998619,11.1647335529248));
#1260=CARTESIAN_POINT('Origin',(-39.9905088002159,31.9369081998622,11.1647335529248));
#1261=CARTESIAN_POINT('',(-40.990508800199,31.9369081998625,-13.6877664470755));
#1262=CARTESIAN_POINT('Origin',(7.94377119979949,31.9369081998634,10.1647335529254));
#1263=CARTESIAN_POINT('',(-24.7596352414784,49.8369088146717,-27.6570486252928));
#1264=CARTESIAN_POINT('Origin',(7.94377119979949,49.8369088146715,10.1647335529254));
#1265=CARTESIAN_POINT('',(-24.7596352414784,43.686908476929,-27.6570486252928));
#1266=CARTESIAN_POINT('',(-24.7596352414784,31.9369081998634,-27.6570486252928));
#1267=CARTESIAN_POINT('',(-23.7155088002158,43.6869084769292,-28.5352664470748));
#1268=CARTESIAN_POINT('Origin',(7.94377119979949,43.6869084769295,10.1647335529254));
#1269=CARTESIAN_POINT('',(-23.7155088002157,38.0869084769292,-28.5352664470746));
#1270=CARTESIAN_POINT('',(-23.7155086403989,31.9369081998634,-28.5352664470747));
#1271=CARTESIAN_POINT('',(-24.7596352414784,38.086908476929,-27.6570486252928));
#1272=CARTESIAN_POINT('Origin',(7.94377119979949,38.0869084769294,10.1647335529254));
#1273=CARTESIAN_POINT('',(-24.7596352414784,31.9369081998634,-27.6570486252928));
#1274=CARTESIAN_POINT('Origin',(-40.9905088001959,40.8869085072663,-3.88526644707528));
#1275=CARTESIAN_POINT('Origin',(-38.9905088001959,40.8869085072663,-3.88526644707528));
#1276=CARTESIAN_POINT('Origin',(-25.0866693058912,31.9369081998634,-28.035266447075));
#1277=CARTESIAN_POINT('',(-25.0866693058912,43.686908476929,-28.535266447075));
#1278=CARTESIAN_POINT('Origin',(-25.0866693058912,43.6869084769295,-28.035266447075));
#1279=CARTESIAN_POINT('',(-25.0866693058912,49.8369088146712,-28.535266447075));
#1280=CARTESIAN_POINT('Origin',(-25.0866693058912,49.8369088146715,-28.035266447075));
#1281=CARTESIAN_POINT('',(-25.0866693058912,31.9369081998634,-28.535266447075));
#1282=CARTESIAN_POINT('Origin',(-25.0866693058912,31.9369081998634,-28.035266447075));
#1283=CARTESIAN_POINT('',(-25.0866693058912,38.086908476929,-28.535266447075));
#1284=CARTESIAN_POINT('Origin',(-25.0866693058912,38.0869084769294,-28.035266447075));
#1285=CARTESIAN_POINT('',(-25.0866693058912,31.9369081998634,-28.535266447075));
#1286=CARTESIAN_POINT('Origin',(-6.24050880019858,40.8869085072679,-28.5352664470751));
#1287=CARTESIAN_POINT('',(-27.2155088002097,49.8369088146712,-28.535266447075));
#1288=CARTESIAN_POINT('',(-4.00875880020577,49.8369088146713,-28.5352664470752));
#1289=CARTESIAN_POINT('',(-27.2155088002098,59.4521482055686,-28.535266447075));
#1290=CARTESIAN_POINT('',(-25.7155088002159,38.086908476929,-28.5352664470748));
#1291=CARTESIAN_POINT('',(-5.96550880020738,38.0869084769294,-28.5352664470751));
#1292=CARTESIAN_POINT('',(-25.715508800216,43.6869084769289,-28.5352664470748));
#1293=CARTESIAN_POINT('',(-25.7155088002159,40.2791584920985,-28.5352664470748));
#1294=CARTESIAN_POINT('',(-4.96550880020757,43.6869084769295,-28.5352664470751));
#1295=CARTESIAN_POINT('Origin',(-27.2155088002097,53.3761939519352,-37.9352664470751));
#1296=CARTESIAN_POINT('',(-28.2155088002132,49.8369088146719,-37.9352664470751));
#1297=CARTESIAN_POINT('',(-27.2155088002097,49.8369088146721,-38.9352664470753));
#1298=CARTESIAN_POINT('Origin',(-27.2155088002097,49.8369088146713,-37.9352664470751));
#1299=CARTESIAN_POINT('',(-27.2155088002097,53.3761939519352,-38.9352664470751));
#1300=CARTESIAN_POINT('',(-28.2155088002097,53.3761939519352,-37.9352664470751));
#1301=CARTESIAN_POINT('Origin',(-28.2155088002099,78.0173879038693,-29.6352664470763));
#1302=CARTESIAN_POINT('',(-28.2155088002132,49.8369088146718,-29.535266447075));
#1303=CARTESIAN_POINT('',(-28.2155088002098,59.4521482055686,-29.535266447075));
#1304=CARTESIAN_POINT('',(-28.2155088002132,49.8369088146719,-34.2852664470767));
#1305=CARTESIAN_POINT('Origin',(-27.2155088002098,59.4521482055686,-29.535266447075));
#1306=CARTESIAN_POINT('Origin',(-27.2155088002098,49.8369088146713,-29.535266447075));
#1307=CARTESIAN_POINT('Origin',(-1.77700880021298,49.8369088146715,-38.9352664470772));
#1308=CARTESIAN_POINT('',(-40.9905088001991,49.8369088146706,11.1647335529247));
#1309=CARTESIAN_POINT('',(-40.9905088001991,49.8369088146711,-30.2352664470762));
#1310=CARTESIAN_POINT('',(-39.9905088002162,49.8369088146698,12.1647335529247));
#1311=CARTESIAN_POINT('Origin',(-39.9905088002162,49.8369088146711,11.1647335529247));
#1312=CARTESIAN_POINT('',(-36.0562288002014,49.8369088146699,12.1647335529247));
#1313=CARTESIAN_POINT('',(-36.0562288002014,49.8369088146699,12.1647335529247));
#1314=CARTESIAN_POINT('',(-36.0562288002047,49.8369088146707,10.1647335529246));
#1315=CARTESIAN_POINT('',(-36.0562288002014,49.8369088146699,10.1647335529247));
#1316=CARTESIAN_POINT('',(7.94377119979325,49.8369088146715,-33.8352664470744));
#1317=CARTESIAN_POINT('Origin',(7.94377119979529,49.8369088146714,10.1647335529255));
#1318=CARTESIAN_POINT('',(9.94377119979325,49.8369088146715,-33.8352664470724));
#1319=CARTESIAN_POINT('',(7.94377119979325,49.8369088146715,-33.8352664470744));
#1320=CARTESIAN_POINT('',(9.94377119979337,49.8369088146716,-37.9352664470731));
#1321=CARTESIAN_POINT('',(9.94377119979309,49.8369088146715,-28.0827224160324));
#1322=CARTESIAN_POINT('',(8.94377135002814,49.8369088146723,-38.9352664470752));
#1323=CARTESIAN_POINT('Origin',(8.94377135002811,49.8369088146715,-37.935266447074));
#1324=CARTESIAN_POINT('',(-6.83869589472827,49.8369088146722,-38.9352664470753));
#1325=CARTESIAN_POINT('Origin',(-23.7155088002156,34.6714084769295,-33.1352664470741));
#1326=CARTESIAN_POINT('',(-23.7155088001991,43.6869084769309,-38.9352664470722));
#1327=CARTESIAN_POINT('',(-23.7155088002157,43.6869084769291,-33.5352664470729));
#1328=CARTESIAN_POINT('',(-23.7155088002123,38.0869084769291,-38.9352664470717));
#1329=CARTESIAN_POINT('',(-23.7155088002027,30.3359540999332,-38.9352664470741));
#1330=CARTESIAN_POINT('',(-23.7155088002157,38.0869084769292,-33.5352664470729));
#1331=CARTESIAN_POINT('Origin',(-40.9905088002157,34.6714084769292,-33.1352664470742));
#1332=CARTESIAN_POINT('',(-40.990508800216,37.7791584920975,11.1647335529248));
#1333=CARTESIAN_POINT('Origin',(-3.69050880021652,43.6869084769295,-33.135266447074));
#1334=CARTESIAN_POINT('',(-25.7155088001993,43.6869084769308,-38.9352664470769));
#1335=CARTESIAN_POINT('',(-25.715508800216,43.6869084769295,-33.1352664470788));
#1336=CARTESIAN_POINT('',(-2.60693876264575,43.6869084769296,-38.9352664470721));
#1337=CARTESIAN_POINT('Origin',(-5.69050880021626,38.0869084769294,-33.135266447074));
#1338=CARTESIAN_POINT('',(-25.7155088002125,38.0869084769291,-38.9352664470717));
#1339=CARTESIAN_POINT('',(-3.60693876264548,38.0869084769295,-38.935266447072));
#1340=CARTESIAN_POINT('',(-25.7155088002123,38.0869084769299,-33.1352664470737));
#1341=CARTESIAN_POINT('Origin',(-11.9003829892502,28.7350000000012,-38.9352664470746));
#1342=CARTESIAN_POINT('',(8.94377135002817,30.3359540999321,-38.935266447074));
#1343=CARTESIAN_POINT('',(-2.98283710806856,40.8869085072666,-38.9352664470746));
#1344=CARTESIAN_POINT('Origin',(-6.03283710806856,40.8869085072665,-38.9352664470746));
#1345=CARTESIAN_POINT('',(-25.7155088002126,40.2791584920991,-38.9352664470721));
#1346=CARTESIAN_POINT('Origin',(-25.7155088002159,39.6714084769294,-33.1352664470789));
#1347=CARTESIAN_POINT('Origin',(-39.990508800216,37.7791584920975,11.1647335529248));
#1348=CARTESIAN_POINT('',(-39.990508800216,37.7791584920975,12.1647335529248));
#1349=CARTESIAN_POINT('Origin',(8.94377135002814,30.3359540999321,-37.935266447074));
#1350=CARTESIAN_POINT('',(9.94377135002814,30.3359540999321,-37.935266447073));
#1351=CARTESIAN_POINT('Origin',(9.94377135002335,31.9369081998631,-33.1352664470729));
#1352=CARTESIAN_POINT('',(9.94377134993535,47.2361096272717,-33.8352664470719));
#1353=CARTESIAN_POINT('',(9.94377135002403,49.8369088146707,-33.8352664470724));
#1354=CARTESIAN_POINT('',(9.94377134993535,43.2361096272717,-33.8352664470719));
#1355=CARTESIAN_POINT('Origin',(9.94377134993528,45.2361096272717,-33.8352664470747));
#1356=CARTESIAN_POINT('',(9.94377134993535,38.5369084769288,-33.8352664470768));
#1357=CARTESIAN_POINT('',(9.94377134993528,47.8361096272717,-33.8352664470719));
#1358=CARTESIAN_POINT('',(9.94377134993535,34.5369084769288,-33.8352664470726));
#1359=CARTESIAN_POINT('Origin',(9.94377134993528,36.5369084769288,-33.8352664470747));
#1360=CARTESIAN_POINT('',(9.94377134993535,39.1369084769288,-33.8352664470775));
#1361=CARTESIAN_POINT('Origin',(-36.0562288002014,31.9369081998617,10.1647335529247));
#1362=CARTESIAN_POINT('',(-36.0562287999404,34.5369084769287,12.1647335529247));
#1363=CARTESIAN_POINT('',(-36.0562288002014,31.9369081998617,12.1647335529247));
#1364=CARTESIAN_POINT('',(-36.0562288002046,33.9369084769302,10.1647335529251));
#1365=CARTESIAN_POINT('',(-36.0562288002047,49.8369088146708,10.1647335529246));
#1366=CARTESIAN_POINT('',(-36.0562287999404,34.5369084769287,10.1647335529247));
#1367=CARTESIAN_POINT('',(-36.0562287995911,36.4119083533954,10.1647335529248));
#1368=CARTESIAN_POINT('',(-36.0562287998468,34.5369084769287,10.1647335529247));
#1369=CARTESIAN_POINT('Origin',(-36.0562286500139,36.5369084769294,10.1647335529247));
#1370=CARTESIAN_POINT('',(-36.056228800019,38.5369084769302,10.1647335529247));
#1371=CARTESIAN_POINT('Origin',(-36.0562286500139,36.5369084769294,10.1647335529247));
#1372=CARTESIAN_POINT('',(-36.056228800019,38.5369084769302,12.1647335529247));
#1373=CARTESIAN_POINT('',(-36.056228800019,38.5369084769302,10.1647335529247));
#1374=CARTESIAN_POINT('Origin',(-36.0562286500139,36.5369084769294,12.1647335529247));
#1375=CARTESIAN_POINT('Origin',(-38.5233688000622,40.8869085072656,12.1647335529247));
#1376=CARTESIAN_POINT('',(-36.0562288001111,43.2361096272708,12.1647335529247));
#1377=CARTESIAN_POINT('',(-36.0562288002014,47.8361096272715,12.1647335529247));
#1378=CARTESIAN_POINT('',(-36.0562288001896,47.2361096272708,12.1647335529247));
#1379=CARTESIAN_POINT('Origin',(-36.056228650011,45.2361096272708,12.1647335529247));
#1380=CARTESIAN_POINT('',(-36.0562288002014,47.8361096272715,12.1647335529247));
#1381=CARTESIAN_POINT('Origin',(-38.5233688000622,40.8869085072655,10.1647335529247));
#1382=CARTESIAN_POINT('',(-36.0562288002047,39.1369084769302,10.1647335528789));
#1383=CARTESIAN_POINT('Origin',(-36.0562286500173,36.5369084769302,10.1647335529226));
#1384=CARTESIAN_POINT('',(-36.0562288002014,47.8361096272715,10.1647335529247));
#1385=CARTESIAN_POINT('Origin',(-6.03283710806856,40.8869085072665,-36.7352664470618));
#1386=CARTESIAN_POINT('',(-2.98283710806856,40.8869085072666,-36.7352664470618));
#1387=CARTESIAN_POINT('Origin',(-6.03283710806856,40.8869085072665,-36.7352664470618));
#1388=CARTESIAN_POINT('',(-4.33283710806855,40.8869085072665,-36.7352664470618));
#1389=CARTESIAN_POINT('Origin',(-6.03283710806856,40.8869085072665,-36.7352664470618));
#1390=CARTESIAN_POINT('Origin',(-6.03283710806856,40.8869085072665,-37.8352664470618));
#1391=CARTESIAN_POINT('',(-2.98283710806856,40.8869085072666,-37.8352664470618));
#1392=CARTESIAN_POINT('Origin',(-6.03283710806856,40.8869085072665,-33.9352664470618));
#1393=CARTESIAN_POINT('',(-4.33283710806856,40.8869085072665,-32.0878981811486));
#1394=CARTESIAN_POINT('',(-4.33283710806856,40.8869085072665,-33.9352664470618));
#1395=CARTESIAN_POINT('Ctrl Pts',(-4.33283710806856,40.8869085072665,-32.0878981811486));
#1396=CARTESIAN_POINT('Ctrl Pts',(-4.33283710806856,40.6714718157976,-32.0878981811486));
#1397=CARTESIAN_POINT('Ctrl Pts',(-4.37634388615467,40.4424974167847,-32.0753307898908));
#1398=CARTESIAN_POINT('Ctrl Pts',(-4.55085726872383,40.0236549451122,-32.0240390163341));
#1399=CARTESIAN_POINT('Ctrl Pts',(-4.68180795997757,39.8337745993232,-31.9852246730895));
#1400=CARTESIAN_POINT('Ctrl Pts',(-4.98420865713481,39.531373902166,-31.8934767306973));
#1401=CARTESIAN_POINT('Ctrl Pts',(-5.17723992928365,39.4005437674067,-31.8339261798548));
#1402=CARTESIAN_POINT('Ctrl Pts',(-5.59635410544387,39.2283521344737,-31.7006860571848));
#1403=CARTESIAN_POINT('Ctrl Pts',(-5.82237917243296,39.1869085072665,-31.6269207241989));
#1404=CARTESIAN_POINT('Ctrl Pts',(-6.24481317481302,39.1869085072665,-31.485405102493));
#1405=CARTESIAN_POINT('Ctrl Pts',(-6.47117982375801,39.2288718752928,-31.4075940338794));
#1406=CARTESIAN_POINT('Ctrl Pts',(-6.88972572369949,39.4013205117814,-31.2600972013164));
#1407=CARTESIAN_POINT('Ctrl Pts',(-7.08192400175009,39.5318323449138,-31.1904965023297));
#1408=CARTESIAN_POINT('Ctrl Pts',(-7.38310179667537,39.8330101398391,-31.0798041279466));
#1409=CARTESIAN_POINT('Ctrl Pts',(-7.51397385175148,40.0222115411624,-31.0307377731599));
#1410=CARTESIAN_POINT('Ctrl Pts',(-7.68889053351627,40.4408660474319,-30.9646796089251));
#1411=CARTESIAN_POINT('Ctrl Pts',(-7.73283710806856,40.670384587327,-30.9478430138844));
#1412=CARTESIAN_POINT('Ctrl Pts',(-7.73283710806856,41.0999628623428,-30.9478430138844));
#1413=CARTESIAN_POINT('Ctrl Pts',(-7.69027338192603,41.326082579012,-30.9641479521439));
#1414=CARTESIAN_POINT('Ctrl Pts',(-7.52039931188643,41.7396262945479,-31.0283201598097));
#1415=CARTESIAN_POINT('Ctrl Pts',(-7.393186969217,41.927113571847,-31.0760389311975));
#1416=CARTESIAN_POINT('Ctrl Pts',(-7.09538533717862,42.2320226327836,-31.1856058133852));
#1417=CARTESIAN_POINT('Ctrl Pts',(-6.90138866459503,42.3662175631309,-31.2559336918551));
#1418=CARTESIAN_POINT('Ctrl Pts',(-6.47775350021638,42.5436482309662,-31.4053286520811));
#1419=CARTESIAN_POINT('Ctrl Pts',(-6.24809369168571,42.5869085072665,-31.4843061275474));
#1420=CARTESIAN_POINT('Ctrl Pts',(-5.81986697520487,42.5869085072665,-31.6277623116435));
#1421=CARTESIAN_POINT('Ctrl Pts',(-5.5912872985681,42.5444755728028,-31.7023353199213));
#1422=CARTESIAN_POINT('Ctrl Pts',(-5.1682158068532,42.3684363796911,-31.8367552454658));
#1423=CARTESIAN_POINT('Ctrl Pts',(-4.97378307940571,42.2347489665077,-31.896681822108));
#1424=CARTESIAN_POINT('Ctrl Pts',(-4.67402095007161,41.9294733340563,-31.987544462094));
#1425=CARTESIAN_POINT('Ctrl Pts',(-4.54590795105618,41.7409294157037,-32.0255001616386));
#1426=CARTESIAN_POINT('Ctrl Pts',(-4.37528795838084,41.3260450442676,-32.0756344330441));
#1427=CARTESIAN_POINT('Ctrl Pts',(-4.33283710806857,41.0996918013892,-32.0878981811486));
#1428=CARTESIAN_POINT('Ctrl Pts',(-4.33283710806856,40.8869085072665,-32.0878981811486));
#1429=CARTESIAN_POINT('Origin',(7.94377119979529,49.8369088146707,10.1647335529255));
#1430=CARTESIAN_POINT('',(7.94377135002661,39.1369084769289,-33.8352664470744));
#1431=CARTESIAN_POINT('Origin',(7.94377134998271,39.1369084769305,10.1647335529228));
#1432=CARTESIAN_POINT('',(7.94377135002635,42.6361096272718,-33.8352664470744));
#1433=CARTESIAN_POINT('',(7.94377135002403,49.8369088146707,-33.8352664470744));
#1434=CARTESIAN_POINT('',(-36.0562288002047,42.6361096272723,10.164733552879));
#1435=CARTESIAN_POINT('Origin',(7.94377134998242,42.6361096272726,10.1647335529228));
#1436=CARTESIAN_POINT('',(-36.0562288002047,49.8369088146708,10.1647335529246));
#1437=CARTESIAN_POINT('',(-33.1407453484128,40.8869085072661,-5.58526644707498));
#1438=CARTESIAN_POINT('',(-33.7527214584606,39.1869085072661,-3.885266447075));
#1439=CARTESIAN_POINT('Ctrl Pts',(-33.7527214584606,39.1869085072661,-3.88526644707499));
#1440=CARTESIAN_POINT('Ctrl Pts',(-33.6801838650967,39.1869085072661,-4.10053785128462));
#1441=CARTESIAN_POINT('Ctrl Pts',(-33.6007462537812,39.2301735861284,-4.33021699625236));
#1442=CARTESIAN_POINT('Ctrl Pts',(-33.4504891375899,39.407644786595,-4.75390354954977));
#1443=CARTESIAN_POINT('Ctrl Pts',(-33.3797592568927,39.5418756385187,-4.94793237813782));
#1444=CARTESIAN_POINT('Ctrl Pts',(-33.2696041653369,39.846820597899,-5.24569473956748));
#1445=CARTESIAN_POINT('Ctrl Pts',(-33.2216410907888,40.0342692786017,-5.37286864728432));
#1446=CARTESIAN_POINT('Ctrl Pts',(-33.1571370087372,40.4477564549988,-5.54270403779178));
#1447=CARTESIAN_POINT('Ctrl Pts',(-33.1407453484128,40.6738589203612,-5.58526644707498));
#1448=CARTESIAN_POINT('Ctrl Pts',(-33.1407453484128,40.8869085072661,-5.58526644707498));
#1449=CARTESIAN_POINT('Ctrl Pts',(-33.1407453484128,40.8869085072661,-5.58526644707499));
#1450=CARTESIAN_POINT('Ctrl Pts',(-33.1407453484128,41.1034656278431,-5.58526644707499));
#1451=CARTESIAN_POINT('Ctrl Pts',(-33.1576773779686,41.3330033969401,-5.5413059868903));
#1452=CARTESIAN_POINT('Ctrl Pts',(-33.2240978435741,41.7516553868775,-5.36637431468199));
#1453=CARTESIAN_POINT('Ctrl Pts',(-33.2734301256289,41.9408357793151,-5.23550223106026));
#1454=CARTESIAN_POINT('Ctrl Pts',(-33.3847285849983,42.2420080912405,-4.93432991913485));
#1455=CARTESIAN_POINT('Ctrl Pts',(-33.4547196545586,42.3725168607615,-4.74211889900211));
#1456=CARTESIAN_POINT('Ctrl Pts',(-33.6030482167433,42.5449536610564,-4.32357523072042));
#1457=CARTESIAN_POINT('Ctrl Pts',(-33.6813006660576,42.5869085072661,-4.09722349661788));
#1458=CARTESIAN_POINT('Ctrl Pts',(-33.8236273447825,42.5869085072661,-3.67483749558378));
#1459=CARTESIAN_POINT('Ctrl Pts',(-33.897826395018,42.5454768898972,-3.44883017752294));
#1460=CARTESIAN_POINT('Ctrl Pts',(-34.0318757642253,42.3732991630844,-3.02971485040102));
#1461=CARTESIAN_POINT('Ctrl Pts',(-34.0918016610972,42.2424701837925,-2.83666506756716));
#1462=CARTESIAN_POINT('Ctrl Pts',(-34.1841266408039,41.9400663673415,-2.53426125111618));
#1463=CARTESIAN_POINT('Ctrl Pts',(-34.22318946399,41.7502021378732,-2.40330963243346));
#1464=CARTESIAN_POINT('Ctrl Pts',(-34.2748148354481,41.3313603499329,-2.22878387610917));
#1465=CARTESIAN_POINT('Ctrl Pts',(-34.2874672381192,41.1023702438017,-2.18526644707499));
#1466=CARTESIAN_POINT('Ctrl Pts',(-34.2874672381192,40.6741322494856,-2.18526644707499));
#1467=CARTESIAN_POINT('Ctrl Pts',(-34.2751241743743,40.4477946191812,-2.22771513523643));
#1468=CARTESIAN_POINT('Ctrl Pts',(-34.2246775030739,40.0329576841984,-2.39830131711014));
#1469=CARTESIAN_POINT('Ctrl Pts',(-34.1864888920754,39.8444453092882,-2.52638187294423));
#1470=CARTESIAN_POINT('Ctrl Pts',(-34.0950644684545,39.5391311875321,-2.826117306831));
#1471=CARTESIAN_POINT('Ctrl Pts',(-34.0347553680231,39.4054111174887,-3.02058547497595));
#1472=CARTESIAN_POINT('Ctrl Pts',(-33.8995046768754,39.2293407116568,-3.44370480698703));
#1473=CARTESIAN_POINT('Ctrl Pts',(-33.8244835642786,39.1869085072661,-3.67229647423623));
#1474=CARTESIAN_POINT('Ctrl Pts',(-33.7527214584606,39.1869085072661,-3.88526644707499));
#1475=CARTESIAN_POINT('Origin',(-36.0562288001896,47.2361096272708,10.1647335529247));
#1476=CARTESIAN_POINT('',(-36.0562288002047,47.8361096272723,10.1647335528789));
#1477=CARTESIAN_POINT('',(-36.0562288002047,49.8369088146708,10.1647335529246));
#1478=CARTESIAN_POINT('',(-36.0562288001896,47.2361096272708,10.1647335529247));
#1479=CARTESIAN_POINT('',(-36.0562288001896,47.2361096272708,10.1647335529247));
#1480=CARTESIAN_POINT('',(-36.0562288002014,47.8361096272715,10.1647335529247));
#1481=CARTESIAN_POINT('Origin',(7.94377135002403,49.8369088146715,-33.8352664470744));
#1482=CARTESIAN_POINT('',(7.94377135002632,47.8361096272718,-33.8352664470744));
#1483=CARTESIAN_POINT('',(7.94377135002403,49.8369088146707,-33.8352664470744));
#1484=CARTESIAN_POINT('',(7.94377134993535,47.2361096272717,-33.8352664470719));
#1485=CARTESIAN_POINT('',(7.94377134993528,47.8361096272717,-33.8352664470719));
#1486=CARTESIAN_POINT('',(9.94377134993535,47.2361096272717,-33.8352664470719));
#1487=CARTESIAN_POINT('Origin',(7.94377135002401,33.9369084769289,-33.8352664470744));
#1488=CARTESIAN_POINT('',(7.94377135002664,33.9369084769289,-33.8352664470744));
#1489=CARTESIAN_POINT('',(7.94377135002403,49.8369088146707,-33.8352664470744));
#1490=CARTESIAN_POINT('',(7.94377134993535,34.5369084769288,-33.8352664470726));
#1491=CARTESIAN_POINT('',(9.94377134993535,34.5369084769288,-33.8352664470726));
#1492=CARTESIAN_POINT('',(7.94377134993535,39.1369084769288,-33.8352664470775));
#1493=CARTESIAN_POINT('Origin',(-36.056228650011,45.2361096272708,10.1647335529247));
#1494=CARTESIAN_POINT('',(-36.0562288001111,43.2361096272707,10.1647335529247));
#1495=CARTESIAN_POINT('Origin',(-36.056228650011,45.2361096272708,10.1647335529247));
#1496=CARTESIAN_POINT('',(-36.0562288001111,43.2361096272707,10.1647335529247));
#1497=CARTESIAN_POINT('Origin',(-38.5233688000622,40.8869085072655,10.1647335529247));
#1498=CARTESIAN_POINT('Origin',(-36.0562286500176,45.2361096272723,10.1647335529227));
#1499=CARTESIAN_POINT('',(-36.0562288002014,47.8361096272715,10.1647335529247));
#1500=CARTESIAN_POINT('Origin',(7.94377119979529,49.8369088146707,10.1647335529255));
#1501=CARTESIAN_POINT('Origin',(7.94377134998243,47.8361096272726,10.1647335529228));
#1502=CARTESIAN_POINT('Origin',(7.94377134993535,45.2361096272717,-35.1352664470733));
#1503=CARTESIAN_POINT('',(7.94377134993535,43.2361096272717,-33.8352664470719));
#1504=CARTESIAN_POINT('',(7.94377134993528,47.8361096272717,-33.8352664470719));
#1505=CARTESIAN_POINT('Origin',(7.94377134993528,45.2361096272717,-33.8352664470747));
#1506=CARTESIAN_POINT('Origin',(7.94377135002626,45.2361096272718,-33.8352664470772));
#1507=CARTESIAN_POINT('Origin',(9.94377134993528,45.2361096272717,-33.8352664470747));
#1508=CARTESIAN_POINT('',(9.94377134993535,43.2361096272717,-33.8352664470719));
#1509=CARTESIAN_POINT('Origin',(9.94377134993528,36.5369084769288,-33.8352664470747));
#1510=CARTESIAN_POINT('',(7.94377134993535,38.5369084769288,-33.8352664470768));
#1511=CARTESIAN_POINT('',(9.94377134993535,38.5369084769288,-33.8352664470768));
#1512=CARTESIAN_POINT('Origin',(7.94377134993528,36.5369084769288,-33.8352664470747));
#1513=CARTESIAN_POINT('Origin',(7.94377134993535,36.5369084769288,-35.1352664470733));
#1514=CARTESIAN_POINT('',(7.94377134993535,39.1369084769288,-33.8352664470775));
#1515=CARTESIAN_POINT('Origin',(7.94377135002654,36.5369084769289,-33.8352664470772));
#1516=CARTESIAN_POINT('Origin',(7.94377119979529,49.8369088146707,10.1647335529255));
#1517=CARTESIAN_POINT('Origin',(7.94377134998271,33.9369084769305,10.1647335529228));
#1518=CARTESIAN_POINT('Origin',(-38.9905088002124,40.8869085072673,-14.3852664470737));
#1519=CARTESIAN_POINT('',(-38.9905088001923,39.1869085072661,-3.88526644707502));
#1520=CARTESIAN_POINT('Origin',(-38.9905088002124,40.8869085072661,-3.885266447075));
#1521=CARTESIAN_POINT('Origin',(-36.0562288000189,38.5369084769302,10.1647335529247));
#1522=CARTESIAN_POINT('Origin',(7.94377134998243,45.2361096272726,10.1647335529228));
#1523=CARTESIAN_POINT('Origin',(7.94377135002402,42.6361096272718,-33.8352664470744));
#1524=CARTESIAN_POINT('Origin',(7.94377134998271,36.5369084769305,10.1647335529228));
#1525=CARTESIAN_POINT('Origin',(-38.9905088001923,40.8869085072661,-3.885266447075));
#1526=CARTESIAN_POINT('',(-38.9905088001923,39.1869085072661,-3.88526644707502));
#1527=UNCERTAINTY_MEASURE_WITH_UNIT(LENGTH_MEASURE(0.01),#1531,
'DISTANCE_ACCURACY_VALUE',
'Maximum model space distance between geometric entities at asserted c
onnectivities');
#1528=UNCERTAINTY_MEASURE_WITH_UNIT(LENGTH_MEASURE(0.01),#1531,
'DISTANCE_ACCURACY_VALUE',
'Maximum model space distance between geometric entities at asserted c
onnectivities');
#1529=(
GEOMETRIC_REPRESENTATION_CONTEXT(3)
GLOBAL_UNCERTAINTY_ASSIGNED_CONTEXT((#1527))
GLOBAL_UNIT_ASSIGNED_CONTEXT((#1531,#1533,#1534))
REPRESENTATION_CONTEXT('','3D')
);
#1530=(
GEOMETRIC_REPRESENTATION_CONTEXT(3)
GLOBAL_UNCERTAINTY_ASSIGNED_CONTEXT((#1528))
GLOBAL_UNIT_ASSIGNED_CONTEXT((#1531,#1533,#1534))
REPRESENTATION_CONTEXT('','3D')
);
#1531=(
LENGTH_UNIT()
NAMED_UNIT(*)
SI_UNIT(.MILLI.,.METRE.)
);
#1532=(
LENGTH_UNIT()
NAMED_UNIT(*)
SI_UNIT($,.METRE.)
);
#1533=(
NAMED_UNIT(*)
PLANE_ANGLE_UNIT()
SI_UNIT($,.RADIAN.)
);
#1534=(
NAMED_UNIT(*)
SI_UNIT($,.STERADIAN.)
SOLID_ANGLE_UNIT()
);
#1535=SHAPE_DEFINITION_REPRESENTATION(#1536,#1537);
#1536=PRODUCT_DEFINITION_SHAPE('',$,#1539);
#1537=SHAPE_REPRESENTATION('',(#849),#1529);
#1538=PRODUCT_DEFINITION_CONTEXT('part definition',#1543,'design');
#1539=PRODUCT_DEFINITION('rope-elbow-top (1)','rope-elbow-top (1)',#1540,
#1538);
#1540=PRODUCT_DEFINITION_FORMATION('',$,#1545);
#1541=PRODUCT_RELATED_PRODUCT_CATEGORY('rope-elbow-top (1)',
'rope-elbow-top (1)',(#1545));
#1542=APPLICATION_PROTOCOL_DEFINITION('international standard',
'automotive_design',2009,#1543);
#1543=APPLICATION_CONTEXT(
'Core Data for Automotive Mechanical Design Process');
#1544=PRODUCT_CONTEXT('part definition',#1543,'mechanical');
#1545=PRODUCT('rope-elbow-top (1)','rope-elbow-top (1)',$,(#1544));
#1546=PRESENTATION_STYLE_ASSIGNMENT((#1548));
#1547=PRESENTATION_STYLE_ASSIGNMENT((#1549));
#1548=SURFACE_STYLE_USAGE(.BOTH.,#1550);
#1549=SURFACE_STYLE_USAGE(.BOTH.,#1551);
#1550=SURFACE_SIDE_STYLE('',(#1552));
#1551=SURFACE_SIDE_STYLE('',(#1553));
#1552=SURFACE_STYLE_FILL_AREA(#1554);
#1553=SURFACE_STYLE_FILL_AREA(#1555);
#1554=FILL_AREA_STYLE('Steel - Satin',(#1556));
#1555=FILL_AREA_STYLE('ABS (White)',(#1557));
#1556=FILL_AREA_STYLE_COLOUR('Steel - Satin',#1558);
#1557=FILL_AREA_STYLE_COLOUR('ABS (White)',#1559);
#1558=COLOUR_RGB('Steel - Satin',0.627450980392157,0.627450980392157,0.627450980392157);
#1559=COLOUR_RGB('ABS (White)',0.964705882352941,0.964705882352941,0.952941176470588);
ENDSEC;
END-ISO-10303-21;
