ISO-10303-21;
HEADER;
/* Generated by software containing ST-Developer
 * from STEP Tools, Inc. (www.steptools.com) 
 */

FILE_DESCRIPTION(
/* description */ (''),
/* implementation_level */ '2;1');

FILE_NAME(
/* name */ 'rope-right-angle-bottom.step',
/* time_stamp */ '2026-01-16T09:58:37-08:00',
/* author */ (''),
/* organization */ (''),
/* preprocessor_version */ 'ST-DEVELOPER v20.1',
/* originating_system */ 'Autodesk Translation Framework v14.21.0.0',
/* authorisation */ '');

FILE_SCHEMA (('AUTOMOTIVE_DESIGN { 1 0 10303 214 3 1 1 }'));
ENDSEC;

DATA;
#10=MECHANICAL_DESIGN_GEOMETRIC_PRESENTATION_REPRESENTATION('',(#13),#1013);
#11=SHAPE_REPRESENTATION_RELATIONSHIP('SRR','None',#1020,#12);
#12=ADVANCED_BREP_SHAPE_REPRESENTATION('',(#14),#1012);
#13=STYLED_ITEM('',(#1030),#14);
#14=MANIFOLD_SOLID_BREP('Body1',#520);
#15=TOROIDAL_SURFACE('',#568,44.,2.6);
#16=TOROIDAL_SURFACE('',#572,44.,2.6);
#17=PLANE('',#538);
#18=PLANE('',#544);
#19=PLANE('',#547);
#20=PLANE('',#548);
#21=PLANE('',#549);
#22=PLANE('',#550);
#23=PLANE('',#551);
#24=PLANE('',#556);
#25=PLANE('',#561);
#26=PLANE('',#563);
#27=PLANE('',#564);
#28=PLANE('',#565);
#29=PLANE('',#566);
#30=PLANE('',#567);
#31=PLANE('',#574);
#32=PLANE('',#577);
#33=FACE_BOUND('',#87,.T.);
#34=FACE_BOUND('',#88,.T.);
#35=FACE_BOUND('',#113,.T.);
#36=FACE_BOUND('',#114,.T.);
#37=CIRCLE('',#536,44.);
#38=CIRCLE('',#537,44.);
#39=CIRCLE('',#539,2.6);
#40=CIRCLE('',#540,2.00000000000003);
#41=CIRCLE('',#542,2.);
#42=CIRCLE('',#543,2.);
#43=CIRCLE('',#546,2.00000000000003);
#44=CIRCLE('',#552,2.6);
#45=CIRCLE('',#554,2.);
#46=CIRCLE('',#555,2.);
#47=CIRCLE('',#557,2.6);
#48=CIRCLE('',#559,2.);
#49=CIRCLE('',#560,2.);
#50=CIRCLE('',#562,2.6);
#51=CIRCLE('',#569,44.);
#52=CIRCLE('',#571,44.);
#53=CIRCLE('',#573,44.);
#54=CIRCLE('',#575,38.9999999999997);
#55=CIRCLE('',#576,44.);
#56=CIRCLE('',#578,38.9999999999997);
#57=FACE_OUTER_BOUND('',#85,.T.);
#58=FACE_OUTER_BOUND('',#86,.T.);
#59=FACE_OUTER_BOUND('',#89,.T.);
#60=FACE_OUTER_BOUND('',#90,.T.);
#61=FACE_OUTER_BOUND('',#91,.T.);
#62=FACE_OUTER_BOUND('',#92,.T.);
#63=FACE_OUTER_BOUND('',#93,.T.);
#64=FACE_OUTER_BOUND('',#94,.T.);
#65=FACE_OUTER_BOUND('',#95,.T.);
#66=FACE_OUTER_BOUND('',#96,.T.);
#67=FACE_OUTER_BOUND('',#97,.T.);
#68=FACE_OUTER_BOUND('',#98,.T.);
#69=FACE_OUTER_BOUND('',#99,.T.);
#70=FACE_OUTER_BOUND('',#100,.T.);
#71=FACE_OUTER_BOUND('',#101,.T.);
#72=FACE_OUTER_BOUND('',#102,.T.);
#73=FACE_OUTER_BOUND('',#103,.T.);
#74=FACE_OUTER_BOUND('',#104,.T.);
#75=FACE_OUTER_BOUND('',#105,.T.);
#76=FACE_OUTER_BOUND('',#106,.T.);
#77=FACE_OUTER_BOUND('',#107,.T.);
#78=FACE_OUTER_BOUND('',#108,.T.);
#79=FACE_OUTER_BOUND('',#109,.T.);
#80=FACE_OUTER_BOUND('',#110,.T.);
#81=FACE_OUTER_BOUND('',#111,.T.);
#82=FACE_OUTER_BOUND('',#112,.T.);
#83=FACE_OUTER_BOUND('',#115,.T.);
#84=FACE_OUTER_BOUND('',#116,.T.);
#85=EDGE_LOOP('',(#336,#337,#338,#339,#340));
#86=EDGE_LOOP('',(#341,#342,#343,#344));
#87=EDGE_LOOP('',(#345));
#88=EDGE_LOOP('',(#346,#347));
#89=EDGE_LOOP('',(#348,#349,#350,#351));
#90=EDGE_LOOP('',(#352,#353,#354,#355));
#91=EDGE_LOOP('',(#356,#357,#358,#359,#360,#361));
#92=EDGE_LOOP('',(#362,#363,#364,#365));
#93=EDGE_LOOP('',(#366,#367,#368,#369,#370));
#94=EDGE_LOOP('',(#371,#372,#373,#374));
#95=EDGE_LOOP('',(#375,#376,#377,#378,#379));
#96=EDGE_LOOP('',(#380,#381,#382,#383,#384,#385,#386,#387));
#97=EDGE_LOOP('',(#388,#389,#390,#391));
#98=EDGE_LOOP('',(#392,#393,#394,#395));
#99=EDGE_LOOP('',(#396,#397,#398,#399));
#100=EDGE_LOOP('',(#400,#401,#402,#403));
#101=EDGE_LOOP('',(#404,#405,#406,#407));
#102=EDGE_LOOP('',(#408,#409,#410,#411,#412));
#103=EDGE_LOOP('',(#413,#414,#415,#416));
#104=EDGE_LOOP('',(#417,#418,#419,#420,#421));
#105=EDGE_LOOP('',(#422,#423,#424,#425,#426,#427));
#106=EDGE_LOOP('',(#428,#429,#430,#431,#432,#433,#434,#435));
#107=EDGE_LOOP('',(#436,#437,#438,#439));
#108=EDGE_LOOP('',(#440,#441,#442,#443));
#109=EDGE_LOOP('',(#444,#445,#446,#447));
#110=EDGE_LOOP('',(#448,#449,#450,#451,#452,#453,#454,#455));
#111=EDGE_LOOP('',(#456,#457,#458,#459,#460,#461,#462,#463));
#112=EDGE_LOOP('',(#464,#465,#466,#467));
#113=EDGE_LOOP('',(#468,#469));
#114=EDGE_LOOP('',(#470,#471));
#115=EDGE_LOOP('',(#472,#473,#474,#475));
#116=EDGE_LOOP('',(#476,#477,#478,#479,#480,#481));
#117=LINE('',#764,#163);
#118=LINE('',#807,#164);
#119=LINE('',#810,#165);
#120=LINE('',#853,#166);
#121=LINE('',#856,#167);
#122=LINE('',#862,#168);
#123=LINE('',#865,#169);
#124=LINE('',#867,#170);
#125=LINE('',#869,#171);
#126=LINE('',#870,#172);
#127=LINE('',#874,#173);
#128=LINE('',#877,#174);
#129=LINE('',#879,#175);
#130=LINE('',#880,#176);
#131=LINE('',#884,#177);
#132=LINE('',#886,#178);
#133=LINE('',#888,#179);
#134=LINE('',#889,#180);
#135=LINE('',#892,#181);
#136=LINE('',#894,#182);
#137=LINE('',#896,#183);
#138=LINE('',#897,#184);
#139=LINE('',#899,#185);
#140=LINE('',#900,#186);
#141=LINE('',#908,#187);
#142=LINE('',#911,#188);
#143=LINE('',#915,#189);
#144=LINE('',#916,#190);
#145=LINE('',#922,#191);
#146=LINE('',#925,#192);
#147=LINE('',#929,#193);
#148=LINE('',#930,#194);
#149=LINE('',#933,#195);
#150=LINE('',#935,#196);
#151=LINE('',#936,#197);
#152=LINE('',#940,#198);
#153=LINE('',#942,#199);
#154=LINE('',#944,#200);
#155=LINE('',#945,#201);
#156=LINE('',#948,#202);
#157=LINE('',#950,#203);
#158=LINE('',#951,#204);
#159=LINE('',#953,#205);
#160=LINE('',#955,#206);
#161=LINE('',#956,#207);
#162=LINE('',#1009,#208);
#163=VECTOR('',#586,1.25);
#164=VECTOR('',#591,10.);
#165=VECTOR('',#594,10.);
#166=VECTOR('',#599,10.);
#167=VECTOR('',#602,10.);
#168=VECTOR('',#607,10.);
#169=VECTOR('',#610,10.);
#170=VECTOR('',#613,10.);
#171=VECTOR('',#614,10.);
#172=VECTOR('',#615,10.);
#173=VECTOR('',#620,10.);
#174=VECTOR('',#623,10.);
#175=VECTOR('',#624,10.);
#176=VECTOR('',#625,10.);
#177=VECTOR('',#628,10.);
#178=VECTOR('',#629,10.);
#179=VECTOR('',#630,10.);
#180=VECTOR('',#631,10.);
#181=VECTOR('',#634,10.);
#182=VECTOR('',#635,10.);
#183=VECTOR('',#636,10.);
#184=VECTOR('',#637,10.);
#185=VECTOR('',#640,10.);
#186=VECTOR('',#641,10.);
#187=VECTOR('',#650,10.);
#188=VECTOR('',#653,10.);
#189=VECTOR('',#658,10.);
#190=VECTOR('',#659,10.);
#191=VECTOR('',#664,10.);
#192=VECTOR('',#667,10.);
#193=VECTOR('',#672,10.);
#194=VECTOR('',#673,10.);
#195=VECTOR('',#676,10.);
#196=VECTOR('',#677,10.);
#197=VECTOR('',#678,10.);
#198=VECTOR('',#681,10.);
#199=VECTOR('',#682,10.);
#200=VECTOR('',#683,10.);
#201=VECTOR('',#684,10.);
#202=VECTOR('',#687,10.);
#203=VECTOR('',#688,10.);
#204=VECTOR('',#689,10.);
#205=VECTOR('',#692,10.);
#206=VECTOR('',#695,10.);
#207=VECTOR('',#696,10.);
#208=VECTOR('',#725,1.25);
#209=B_SPLINE_CURVE_WITH_KNOTS('',3,(#729,#730,#731,#732,#733,#734,#735,
#736,#737,#738,#739,#740,#741,#742,#743,#744,#745,#746,#747,#748,#749,#750,
#751,#752,#753,#754,#755,#756,#757,#758,#759,#760,#761,#762),
 .UNSPECIFIED.,.T.,.F.,(4,2,2,2,2,2,2,2,2,2,2,2,2,2,2,2,4),(0.,0.0469421456829779,
0.0938842913659558,0.143495298463414,0.193106305560872,0.243108272824708,
0.293110240088544,0.340096178907866,0.387082117727187,0.434808861101503,
0.482535604475818,0.531798727932614,0.58106185138941,0.630065391213422,
0.679068931037434,0.72661955549587,0.774170179954307),.UNSPECIFIED.);
#210=B_SPLINE_CURVE_WITH_KNOTS('',3,(#766,#767,#768,#769,#770,#771,#772,
#773,#774,#775,#776,#777,#778,#779,#780,#781,#782,#783),.UNSPECIFIED.,.F.,
 .F.,(4,2,2,2,2,2,2,2,4),(0.,0.0469614173811281,0.0939228347622562,0.144818269970621,
0.195713705178986,0.246086172234026,0.296458639289067,0.343359553824293,
0.390260468359519),.UNSPECIFIED.);
#211=B_SPLINE_CURVE_WITH_KNOTS('',3,(#784,#785,#786,#787,#788,#789,#790,
#791,#792,#793,#794,#795,#796,#797,#798,#799,#800,#801),.UNSPECIFIED.,.F.,
 .F.,(4,2,2,2,2,2,2,2,4),(0.390260468359519,0.437952267467492,0.485644066575465,
0.535227325140835,0.584810583706206,0.634741192237046,0.684671800767886,
0.732601435013629,0.780531069259373),.UNSPECIFIED.);
#212=B_SPLINE_CURVE_WITH_KNOTS('',3,(#813,#814,#815,#816,#817,#818,#819,
#820,#821,#822,#823,#824,#825,#826,#827,#828,#829,#830,#831,#832,#833,#834,
#835,#836,#837,#838),.UNSPECIFIED.,.F.,.F.,(4,2,2,2,2,2,2,2,2,2,2,2,4),
(0.194042624362719,0.243068690008624,0.292094755654528,0.339651120848084,
0.38720748604164,0.434148132984115,0.481088779926591,0.530729527977561,
0.580370276028531,0.630404777932058,0.680439279835586,0.727424086056365,
0.774408892277145),.UNSPECIFIED.);
#213=B_SPLINE_CURVE_WITH_KNOTS('',3,(#839,#840,#841,#842,#843,#844,#845,
#846,#847,#848),.UNSPECIFIED.,.F.,.F.,(4,2,2,2,4),(0.,0.0477338044557203,
0.0954676089114405,0.14475511663708,0.194042624362719),.UNSPECIFIED.);
#214=B_SPLINE_CURVE_WITH_KNOTS('',3,(#971,#972,#973,#974,#975,#976,#977,
#978,#979,#980,#981,#982,#983,#984,#985,#986,#987,#988,#989,#990,#991,#992,
#993,#994,#995,#996),.UNSPECIFIED.,.F.,.F.,(4,2,2,2,2,2,2,2,2,2,2,2,4),
(0.194625515870103,0.244588848756752,0.294552181643401,0.34249143741573,
0.390430693188059,0.437390725818488,0.484350758448918,0.535289846791479,
0.58622893513404,0.636641007451169,0.687053079768297,0.733952048239056,
0.780851016709814),.UNSPECIFIED.);
#215=B_SPLINE_CURVE_WITH_KNOTS('',3,(#997,#998,#999,#1000,#1001,#1002,#1003,
#1004,#1005,#1006),.UNSPECIFIED.,.F.,.F.,(4,2,2,2,4),(0.,0.0476994691452787,
0.0953989382905575,0.14501222708033,0.194625515870103),.UNSPECIFIED.);
#216=VERTEX_POINT('',#728);
#217=VERTEX_POINT('',#763);
#218=VERTEX_POINT('',#765);
#219=VERTEX_POINT('',#803);
#220=VERTEX_POINT('',#804);
#221=VERTEX_POINT('',#806);
#222=VERTEX_POINT('',#808);
#223=VERTEX_POINT('',#811);
#224=VERTEX_POINT('',#812);
#225=VERTEX_POINT('',#850);
#226=VERTEX_POINT('',#852);
#227=VERTEX_POINT('',#854);
#228=VERTEX_POINT('',#858);
#229=VERTEX_POINT('',#859);
#230=VERTEX_POINT('',#861);
#231=VERTEX_POINT('',#863);
#232=VERTEX_POINT('',#868);
#233=VERTEX_POINT('',#872);
#234=VERTEX_POINT('',#876);
#235=VERTEX_POINT('',#878);
#236=VERTEX_POINT('',#882);
#237=VERTEX_POINT('',#883);
#238=VERTEX_POINT('',#885);
#239=VERTEX_POINT('',#887);
#240=VERTEX_POINT('',#891);
#241=VERTEX_POINT('',#893);
#242=VERTEX_POINT('',#895);
#243=VERTEX_POINT('',#904);
#244=VERTEX_POINT('',#905);
#245=VERTEX_POINT('',#907);
#246=VERTEX_POINT('',#909);
#247=VERTEX_POINT('',#913);
#248=VERTEX_POINT('',#918);
#249=VERTEX_POINT('',#919);
#250=VERTEX_POINT('',#921);
#251=VERTEX_POINT('',#923);
#252=VERTEX_POINT('',#927);
#253=VERTEX_POINT('',#932);
#254=VERTEX_POINT('',#934);
#255=VERTEX_POINT('',#938);
#256=VERTEX_POINT('',#939);
#257=VERTEX_POINT('',#941);
#258=VERTEX_POINT('',#943);
#259=VERTEX_POINT('',#947);
#260=VERTEX_POINT('',#949);
#261=VERTEX_POINT('',#969);
#262=VERTEX_POINT('',#970);
#263=EDGE_CURVE('',#216,#216,#209,.T.);
#264=EDGE_CURVE('',#216,#217,#117,.T.);
#265=EDGE_CURVE('',#218,#217,#210,.T.);
#266=EDGE_CURVE('',#217,#218,#211,.T.);
#267=EDGE_CURVE('',#219,#220,#37,.T.);
#268=EDGE_CURVE('',#220,#221,#118,.T.);
#269=EDGE_CURVE('',#221,#222,#38,.T.);
#270=EDGE_CURVE('',#222,#219,#119,.T.);
#271=EDGE_CURVE('',#223,#224,#212,.F.);
#272=EDGE_CURVE('',#224,#223,#213,.F.);
#273=EDGE_CURVE('',#225,#221,#39,.T.);
#274=EDGE_CURVE('',#226,#221,#120,.T.);
#275=EDGE_CURVE('',#226,#227,#40,.T.);
#276=EDGE_CURVE('',#225,#227,#121,.T.);
#277=EDGE_CURVE('',#228,#229,#41,.T.);
#278=EDGE_CURVE('',#228,#230,#122,.T.);
#279=EDGE_CURVE('',#231,#230,#42,.T.);
#280=EDGE_CURVE('',#229,#231,#123,.T.);
#281=EDGE_CURVE('',#220,#229,#124,.T.);
#282=EDGE_CURVE('',#232,#231,#125,.T.);
#283=EDGE_CURVE('',#226,#232,#126,.T.);
#284=EDGE_CURVE('',#233,#232,#43,.T.);
#285=EDGE_CURVE('',#227,#233,#127,.T.);
#286=EDGE_CURVE('',#225,#234,#128,.T.);
#287=EDGE_CURVE('',#235,#233,#129,.T.);
#288=EDGE_CURVE('',#234,#235,#130,.T.);
#289=EDGE_CURVE('',#236,#237,#131,.T.);
#290=EDGE_CURVE('',#237,#238,#132,.T.);
#291=EDGE_CURVE('',#239,#238,#133,.T.);
#292=EDGE_CURVE('',#236,#239,#134,.T.);
#293=EDGE_CURVE('',#228,#240,#135,.T.);
#294=EDGE_CURVE('',#241,#240,#136,.T.);
#295=EDGE_CURVE('',#241,#242,#137,.T.);
#296=EDGE_CURVE('',#230,#242,#138,.T.);
#297=EDGE_CURVE('',#242,#239,#139,.T.);
#298=EDGE_CURVE('',#238,#235,#140,.T.);
#299=EDGE_CURVE('',#220,#240,#44,.T.);
#300=EDGE_CURVE('',#243,#244,#45,.T.);
#301=EDGE_CURVE('',#244,#245,#141,.T.);
#302=EDGE_CURVE('',#246,#245,#46,.T.);
#303=EDGE_CURVE('',#243,#246,#142,.T.);
#304=EDGE_CURVE('',#247,#219,#47,.T.);
#305=EDGE_CURVE('',#219,#246,#143,.T.);
#306=EDGE_CURVE('',#245,#247,#144,.T.);
#307=EDGE_CURVE('',#248,#249,#48,.T.);
#308=EDGE_CURVE('',#249,#250,#145,.T.);
#309=EDGE_CURVE('',#251,#250,#49,.T.);
#310=EDGE_CURVE('',#248,#251,#146,.T.);
#311=EDGE_CURVE('',#222,#252,#50,.T.);
#312=EDGE_CURVE('',#252,#251,#147,.T.);
#313=EDGE_CURVE('',#250,#222,#148,.T.);
#314=EDGE_CURVE('',#247,#253,#149,.T.);
#315=EDGE_CURVE('',#254,#244,#150,.T.);
#316=EDGE_CURVE('',#253,#254,#151,.T.);
#317=EDGE_CURVE('',#255,#256,#152,.T.);
#318=EDGE_CURVE('',#256,#257,#153,.T.);
#319=EDGE_CURVE('',#258,#257,#154,.T.);
#320=EDGE_CURVE('',#255,#258,#155,.T.);
#321=EDGE_CURVE('',#259,#252,#156,.T.);
#322=EDGE_CURVE('',#259,#260,#157,.T.);
#323=EDGE_CURVE('',#260,#248,#158,.T.);
#324=EDGE_CURVE('',#249,#243,#159,.T.);
#325=EDGE_CURVE('',#260,#258,#160,.T.);
#326=EDGE_CURVE('',#257,#254,#161,.T.);
#327=EDGE_CURVE('',#247,#240,#51,.T.);
#328=EDGE_CURVE('',#253,#241,#52,.T.);
#329=EDGE_CURVE('',#252,#225,#53,.T.);
#330=EDGE_CURVE('',#237,#255,#54,.T.);
#331=EDGE_CURVE('',#234,#259,#55,.T.);
#332=EDGE_CURVE('',#256,#236,#56,.T.);
#333=EDGE_CURVE('',#261,#262,#214,.F.);
#334=EDGE_CURVE('',#262,#261,#215,.F.);
#335=EDGE_CURVE('',#224,#262,#162,.T.);
#336=ORIENTED_EDGE('',*,*,#263,.F.);
#337=ORIENTED_EDGE('',*,*,#264,.T.);
#338=ORIENTED_EDGE('',*,*,#265,.F.);
#339=ORIENTED_EDGE('',*,*,#266,.F.);
#340=ORIENTED_EDGE('',*,*,#264,.F.);
#341=ORIENTED_EDGE('',*,*,#267,.T.);
#342=ORIENTED_EDGE('',*,*,#268,.T.);
#343=ORIENTED_EDGE('',*,*,#269,.T.);
#344=ORIENTED_EDGE('',*,*,#270,.T.);
#345=ORIENTED_EDGE('',*,*,#263,.T.);
#346=ORIENTED_EDGE('',*,*,#271,.T.);
#347=ORIENTED_EDGE('',*,*,#272,.T.);
#348=ORIENTED_EDGE('',*,*,#273,.T.);
#349=ORIENTED_EDGE('',*,*,#274,.F.);
#350=ORIENTED_EDGE('',*,*,#275,.T.);
#351=ORIENTED_EDGE('',*,*,#276,.F.);
#352=ORIENTED_EDGE('',*,*,#277,.F.);
#353=ORIENTED_EDGE('',*,*,#278,.T.);
#354=ORIENTED_EDGE('',*,*,#279,.F.);
#355=ORIENTED_EDGE('',*,*,#280,.F.);
#356=ORIENTED_EDGE('',*,*,#274,.T.);
#357=ORIENTED_EDGE('',*,*,#268,.F.);
#358=ORIENTED_EDGE('',*,*,#281,.T.);
#359=ORIENTED_EDGE('',*,*,#280,.T.);
#360=ORIENTED_EDGE('',*,*,#282,.F.);
#361=ORIENTED_EDGE('',*,*,#283,.F.);
#362=ORIENTED_EDGE('',*,*,#275,.F.);
#363=ORIENTED_EDGE('',*,*,#283,.T.);
#364=ORIENTED_EDGE('',*,*,#284,.F.);
#365=ORIENTED_EDGE('',*,*,#285,.F.);
#366=ORIENTED_EDGE('',*,*,#286,.F.);
#367=ORIENTED_EDGE('',*,*,#276,.T.);
#368=ORIENTED_EDGE('',*,*,#285,.T.);
#369=ORIENTED_EDGE('',*,*,#287,.F.);
#370=ORIENTED_EDGE('',*,*,#288,.F.);
#371=ORIENTED_EDGE('',*,*,#289,.T.);
#372=ORIENTED_EDGE('',*,*,#290,.T.);
#373=ORIENTED_EDGE('',*,*,#291,.F.);
#374=ORIENTED_EDGE('',*,*,#292,.F.);
#375=ORIENTED_EDGE('',*,*,#293,.T.);
#376=ORIENTED_EDGE('',*,*,#294,.F.);
#377=ORIENTED_EDGE('',*,*,#295,.T.);
#378=ORIENTED_EDGE('',*,*,#296,.F.);
#379=ORIENTED_EDGE('',*,*,#278,.F.);
#380=ORIENTED_EDGE('',*,*,#296,.T.);
#381=ORIENTED_EDGE('',*,*,#297,.T.);
#382=ORIENTED_EDGE('',*,*,#291,.T.);
#383=ORIENTED_EDGE('',*,*,#298,.T.);
#384=ORIENTED_EDGE('',*,*,#287,.T.);
#385=ORIENTED_EDGE('',*,*,#284,.T.);
#386=ORIENTED_EDGE('',*,*,#282,.T.);
#387=ORIENTED_EDGE('',*,*,#279,.T.);
#388=ORIENTED_EDGE('',*,*,#299,.T.);
#389=ORIENTED_EDGE('',*,*,#293,.F.);
#390=ORIENTED_EDGE('',*,*,#277,.T.);
#391=ORIENTED_EDGE('',*,*,#281,.F.);
#392=ORIENTED_EDGE('',*,*,#300,.T.);
#393=ORIENTED_EDGE('',*,*,#301,.T.);
#394=ORIENTED_EDGE('',*,*,#302,.F.);
#395=ORIENTED_EDGE('',*,*,#303,.F.);
#396=ORIENTED_EDGE('',*,*,#304,.T.);
#397=ORIENTED_EDGE('',*,*,#305,.T.);
#398=ORIENTED_EDGE('',*,*,#302,.T.);
#399=ORIENTED_EDGE('',*,*,#306,.T.);
#400=ORIENTED_EDGE('',*,*,#307,.T.);
#401=ORIENTED_EDGE('',*,*,#308,.T.);
#402=ORIENTED_EDGE('',*,*,#309,.F.);
#403=ORIENTED_EDGE('',*,*,#310,.F.);
#404=ORIENTED_EDGE('',*,*,#311,.T.);
#405=ORIENTED_EDGE('',*,*,#312,.T.);
#406=ORIENTED_EDGE('',*,*,#309,.T.);
#407=ORIENTED_EDGE('',*,*,#313,.T.);
#408=ORIENTED_EDGE('',*,*,#314,.F.);
#409=ORIENTED_EDGE('',*,*,#306,.F.);
#410=ORIENTED_EDGE('',*,*,#301,.F.);
#411=ORIENTED_EDGE('',*,*,#315,.F.);
#412=ORIENTED_EDGE('',*,*,#316,.F.);
#413=ORIENTED_EDGE('',*,*,#317,.T.);
#414=ORIENTED_EDGE('',*,*,#318,.T.);
#415=ORIENTED_EDGE('',*,*,#319,.F.);
#416=ORIENTED_EDGE('',*,*,#320,.F.);
#417=ORIENTED_EDGE('',*,*,#321,.F.);
#418=ORIENTED_EDGE('',*,*,#322,.T.);
#419=ORIENTED_EDGE('',*,*,#323,.T.);
#420=ORIENTED_EDGE('',*,*,#310,.T.);
#421=ORIENTED_EDGE('',*,*,#312,.F.);
#422=ORIENTED_EDGE('',*,*,#270,.F.);
#423=ORIENTED_EDGE('',*,*,#313,.F.);
#424=ORIENTED_EDGE('',*,*,#308,.F.);
#425=ORIENTED_EDGE('',*,*,#324,.T.);
#426=ORIENTED_EDGE('',*,*,#303,.T.);
#427=ORIENTED_EDGE('',*,*,#305,.F.);
#428=ORIENTED_EDGE('',*,*,#324,.F.);
#429=ORIENTED_EDGE('',*,*,#307,.F.);
#430=ORIENTED_EDGE('',*,*,#323,.F.);
#431=ORIENTED_EDGE('',*,*,#325,.T.);
#432=ORIENTED_EDGE('',*,*,#319,.T.);
#433=ORIENTED_EDGE('',*,*,#326,.T.);
#434=ORIENTED_EDGE('',*,*,#315,.T.);
#435=ORIENTED_EDGE('',*,*,#300,.F.);
#436=ORIENTED_EDGE('',*,*,#267,.F.);
#437=ORIENTED_EDGE('',*,*,#304,.F.);
#438=ORIENTED_EDGE('',*,*,#327,.T.);
#439=ORIENTED_EDGE('',*,*,#299,.F.);
#440=ORIENTED_EDGE('',*,*,#327,.F.);
#441=ORIENTED_EDGE('',*,*,#314,.T.);
#442=ORIENTED_EDGE('',*,*,#328,.T.);
#443=ORIENTED_EDGE('',*,*,#294,.T.);
#444=ORIENTED_EDGE('',*,*,#269,.F.);
#445=ORIENTED_EDGE('',*,*,#273,.F.);
#446=ORIENTED_EDGE('',*,*,#329,.F.);
#447=ORIENTED_EDGE('',*,*,#311,.F.);
#448=ORIENTED_EDGE('',*,*,#330,.T.);
#449=ORIENTED_EDGE('',*,*,#320,.T.);
#450=ORIENTED_EDGE('',*,*,#325,.F.);
#451=ORIENTED_EDGE('',*,*,#322,.F.);
#452=ORIENTED_EDGE('',*,*,#331,.F.);
#453=ORIENTED_EDGE('',*,*,#288,.T.);
#454=ORIENTED_EDGE('',*,*,#298,.F.);
#455=ORIENTED_EDGE('',*,*,#290,.F.);
#456=ORIENTED_EDGE('',*,*,#332,.T.);
#457=ORIENTED_EDGE('',*,*,#292,.T.);
#458=ORIENTED_EDGE('',*,*,#297,.F.);
#459=ORIENTED_EDGE('',*,*,#295,.F.);
#460=ORIENTED_EDGE('',*,*,#328,.F.);
#461=ORIENTED_EDGE('',*,*,#316,.T.);
#462=ORIENTED_EDGE('',*,*,#326,.F.);
#463=ORIENTED_EDGE('',*,*,#318,.F.);
#464=ORIENTED_EDGE('',*,*,#332,.F.);
#465=ORIENTED_EDGE('',*,*,#317,.F.);
#466=ORIENTED_EDGE('',*,*,#330,.F.);
#467=ORIENTED_EDGE('',*,*,#289,.F.);
#468=ORIENTED_EDGE('',*,*,#265,.T.);
#469=ORIENTED_EDGE('',*,*,#266,.T.);
#470=ORIENTED_EDGE('',*,*,#333,.T.);
#471=ORIENTED_EDGE('',*,*,#334,.T.);
#472=ORIENTED_EDGE('',*,*,#329,.T.);
#473=ORIENTED_EDGE('',*,*,#286,.T.);
#474=ORIENTED_EDGE('',*,*,#331,.T.);
#475=ORIENTED_EDGE('',*,*,#321,.T.);
#476=ORIENTED_EDGE('',*,*,#271,.F.);
#477=ORIENTED_EDGE('',*,*,#272,.F.);
#478=ORIENTED_EDGE('',*,*,#335,.T.);
#479=ORIENTED_EDGE('',*,*,#333,.F.);
#480=ORIENTED_EDGE('',*,*,#334,.F.);
#481=ORIENTED_EDGE('',*,*,#335,.F.);
#482=CYLINDRICAL_SURFACE('',#534,1.25);
#483=CYLINDRICAL_SURFACE('',#535,44.);
#484=CYLINDRICAL_SURFACE('',#541,2.);
#485=CYLINDRICAL_SURFACE('',#545,2.00000000000003);
#486=CYLINDRICAL_SURFACE('',#553,2.);
#487=CYLINDRICAL_SURFACE('',#558,2.);
#488=CYLINDRICAL_SURFACE('',#570,44.);
#489=CYLINDRICAL_SURFACE('',#579,38.9999999999997);
#490=CYLINDRICAL_SURFACE('',#580,44.);
#491=CYLINDRICAL_SURFACE('',#581,1.25);
#492=ADVANCED_FACE('',(#57),#482,.F.);
#493=ADVANCED_FACE('',(#58,#33,#34),#483,.T.);
#494=ADVANCED_FACE('',(#59),#17,.F.);
#495=ADVANCED_FACE('',(#60),#484,.F.);
#496=ADVANCED_FACE('',(#61),#18,.T.);
#497=ADVANCED_FACE('',(#62),#485,.F.);
#498=ADVANCED_FACE('',(#63),#19,.T.);
#499=ADVANCED_FACE('',(#64),#20,.T.);
#500=ADVANCED_FACE('',(#65),#21,.T.);
#501=ADVANCED_FACE('',(#66),#22,.T.);
#502=ADVANCED_FACE('',(#67),#23,.F.);
#503=ADVANCED_FACE('',(#68),#486,.F.);
#504=ADVANCED_FACE('',(#69),#24,.F.);
#505=ADVANCED_FACE('',(#70),#487,.F.);
#506=ADVANCED_FACE('',(#71),#25,.F.);
#507=ADVANCED_FACE('',(#72),#26,.T.);
#508=ADVANCED_FACE('',(#73),#27,.T.);
#509=ADVANCED_FACE('',(#74),#28,.T.);
#510=ADVANCED_FACE('',(#75),#29,.T.);
#511=ADVANCED_FACE('',(#76),#30,.F.);
#512=ADVANCED_FACE('',(#77),#15,.F.);
#513=ADVANCED_FACE('',(#78),#488,.T.);
#514=ADVANCED_FACE('',(#79),#16,.F.);
#515=ADVANCED_FACE('',(#80),#31,.F.);
#516=ADVANCED_FACE('',(#81),#32,.F.);
#517=ADVANCED_FACE('',(#82,#35,#36),#489,.F.);
#518=ADVANCED_FACE('',(#83),#490,.T.);
#519=ADVANCED_FACE('',(#84),#491,.F.);
#520=CLOSED_SHELL('',(#492,#493,#494,#495,#496,#497,#498,#499,#500,#501,
#502,#503,#504,#505,#506,#507,#508,#509,#510,#511,#512,#513,#514,#515,#516,
#517,#518,#519));
#521=DERIVED_UNIT_ELEMENT(#523,1.);
#522=DERIVED_UNIT_ELEMENT(#1015,-3.);
#523=(
MASS_UNIT()
NAMED_UNIT(*)
SI_UNIT(.KILO.,.GRAM.)
);
#524=DERIVED_UNIT((#521,#522));
#525=MEASURE_REPRESENTATION_ITEM('density measure',
POSITIVE_RATIO_MEASURE(7850.),#524);
#526=PROPERTY_DEFINITION_REPRESENTATION(#531,#528);
#527=PROPERTY_DEFINITION_REPRESENTATION(#532,#529);
#528=REPRESENTATION('material name',(#530),#1012);
#529=REPRESENTATION('density',(#525),#1012);
#530=DESCRIPTIVE_REPRESENTATION_ITEM('Steel','Steel');
#531=PROPERTY_DEFINITION('material property','material name',#1022);
#532=PROPERTY_DEFINITION('material property','density of part',#1022);
#533=AXIS2_PLACEMENT_3D('',#726,#582,#583);
#534=AXIS2_PLACEMENT_3D('',#727,#584,#585);
#535=AXIS2_PLACEMENT_3D('',#802,#587,#588);
#536=AXIS2_PLACEMENT_3D('',#805,#589,#590);
#537=AXIS2_PLACEMENT_3D('',#809,#592,#593);
#538=AXIS2_PLACEMENT_3D('',#849,#595,#596);
#539=AXIS2_PLACEMENT_3D('',#851,#597,#598);
#540=AXIS2_PLACEMENT_3D('',#855,#600,#601);
#541=AXIS2_PLACEMENT_3D('',#857,#603,#604);
#542=AXIS2_PLACEMENT_3D('',#860,#605,#606);
#543=AXIS2_PLACEMENT_3D('',#864,#608,#609);
#544=AXIS2_PLACEMENT_3D('',#866,#611,#612);
#545=AXIS2_PLACEMENT_3D('',#871,#616,#617);
#546=AXIS2_PLACEMENT_3D('',#873,#618,#619);
#547=AXIS2_PLACEMENT_3D('',#875,#621,#622);
#548=AXIS2_PLACEMENT_3D('',#881,#626,#627);
#549=AXIS2_PLACEMENT_3D('',#890,#632,#633);
#550=AXIS2_PLACEMENT_3D('',#898,#638,#639);
#551=AXIS2_PLACEMENT_3D('',#901,#642,#643);
#552=AXIS2_PLACEMENT_3D('',#902,#644,#645);
#553=AXIS2_PLACEMENT_3D('',#903,#646,#647);
#554=AXIS2_PLACEMENT_3D('',#906,#648,#649);
#555=AXIS2_PLACEMENT_3D('',#910,#651,#652);
#556=AXIS2_PLACEMENT_3D('',#912,#654,#655);
#557=AXIS2_PLACEMENT_3D('',#914,#656,#657);
#558=AXIS2_PLACEMENT_3D('',#917,#660,#661);
#559=AXIS2_PLACEMENT_3D('',#920,#662,#663);
#560=AXIS2_PLACEMENT_3D('',#924,#665,#666);
#561=AXIS2_PLACEMENT_3D('',#926,#668,#669);
#562=AXIS2_PLACEMENT_3D('',#928,#670,#671);
#563=AXIS2_PLACEMENT_3D('',#931,#674,#675);
#564=AXIS2_PLACEMENT_3D('',#937,#679,#680);
#565=AXIS2_PLACEMENT_3D('',#946,#685,#686);
#566=AXIS2_PLACEMENT_3D('',#952,#690,#691);
#567=AXIS2_PLACEMENT_3D('',#954,#693,#694);
#568=AXIS2_PLACEMENT_3D('',#957,#697,#698);
#569=AXIS2_PLACEMENT_3D('',#958,#699,#700);
#570=AXIS2_PLACEMENT_3D('',#959,#701,#702);
#571=AXIS2_PLACEMENT_3D('',#960,#703,#704);
#572=AXIS2_PLACEMENT_3D('',#961,#705,#706);
#573=AXIS2_PLACEMENT_3D('',#962,#707,#708);
#574=AXIS2_PLACEMENT_3D('',#963,#709,#710);
#575=AXIS2_PLACEMENT_3D('',#964,#711,#712);
#576=AXIS2_PLACEMENT_3D('',#965,#713,#714);
#577=AXIS2_PLACEMENT_3D('',#966,#715,#716);
#578=AXIS2_PLACEMENT_3D('',#967,#717,#718);
#579=AXIS2_PLACEMENT_3D('',#968,#719,#720);
#580=AXIS2_PLACEMENT_3D('',#1007,#721,#722);
#581=AXIS2_PLACEMENT_3D('',#1008,#723,#724);
#582=DIRECTION('axis',(0.,0.,1.));
#583=DIRECTION('refdir',(1.,0.,0.));
#584=DIRECTION('center_axis',(-6.6264316038565E-29,2.44249065427887E-15,
1.));
#585=DIRECTION('ref_axis',(-1.,-1.80318722916214E-14,-2.20881053461883E-29));
#586=DIRECTION('',(-6.6264316038565E-29,2.44249065427887E-15,1.));
#587=DIRECTION('center_axis',(1.34656595638173E-15,1.,1.79856167954304E-16));
#588=DIRECTION('ref_axis',(1.,-1.34656595638174E-15,2.8310687127931E-14));
#589=DIRECTION('center_axis',(1.34656595638173E-15,1.,1.79856167954304E-16));
#590=DIRECTION('ref_axis',(1.,-1.34656595638174E-15,2.8310687127931E-14));
#591=DIRECTION('',(1.34656595638173E-15,1.,1.79856167954304E-16));
#592=DIRECTION('center_axis',(-1.34656595638173E-15,-1.,-1.79856167954304E-16));
#593=DIRECTION('ref_axis',(1.,-1.34656595638174E-15,2.8310687127931E-14));
#594=DIRECTION('',(-1.34656595638173E-15,-1.,-1.79856167954304E-16));
#595=DIRECTION('center_axis',(-1.1264933726556E-27,-1.99840082901006E-15,
1.));
#596=DIRECTION('ref_axis',(-1.80318722916209E-14,1.,1.99840082901006E-15));
#597=DIRECTION('center_axis',(3.626973930258E-15,1.69161367644885E-14,-1.));
#598=DIRECTION('ref_axis',(-1.,-5.79392319284803E-15,-3.62697393025809E-15));
#599=DIRECTION('',(-7.52868791879857E-15,-1.,3.08150465953927E-15));
#600=DIRECTION('center_axis',(-7.57306469012171E-29,2.44249065427887E-15,
1.));
#601=DIRECTION('ref_axis',(-1.80318722916209E-14,1.,-2.44249065427887E-15));
#602=DIRECTION('',(1.80318722916209E-14,-1.,2.44249065427948E-15));
#603=DIRECTION('center_axis',(0.,-2.22044604925031E-15,1.));
#604=DIRECTION('ref_axis',(1.,-1.76789615162562E-14,-3.94430452610506E-29));
#605=DIRECTION('center_axis',(-7.57306469012171E-29,2.44249065427887E-15,
1.));
#606=DIRECTION('ref_axis',(-1.80318722916209E-14,1.,-2.44249065427887E-15));
#607=DIRECTION('',(0.,-2.22044604925031E-15,1.));
#608=DIRECTION('center_axis',(7.57306469012171E-29,-2.44249065427887E-15,
-1.));
#609=DIRECTION('ref_axis',(-1.80318722916209E-14,1.,-2.44249065427887E-15));
#610=DIRECTION('',(0.,-2.22044604925031E-15,1.));
#611=DIRECTION('center_axis',(-1.,7.52868791879857E-15,1.67170453453349E-29));
#612=DIRECTION('ref_axis',(-7.52868791879857E-15,-1.,3.08150465953927E-15));
#613=DIRECTION('',(-7.52868791879857E-15,-1.,3.08150465953927E-15));
#614=DIRECTION('',(-7.52868791879857E-15,-1.,3.08150465953927E-15));
#615=DIRECTION('',(0.,-2.22044604925031E-15,1.));
#616=DIRECTION('center_axis',(0.,-2.22044604925031E-15,1.));
#617=DIRECTION('ref_axis',(1.,-1.76789615162562E-14,-3.99360833268132E-29));
#618=DIRECTION('center_axis',(7.57306469012171E-29,-2.44249065427887E-15,
-1.));
#619=DIRECTION('ref_axis',(-1.80318722916209E-14,1.,-2.44249065427887E-15));
#620=DIRECTION('',(0.,-2.22044604925031E-15,1.));
#621=DIRECTION('center_axis',(-1.,-1.80318722916209E-14,-4.00387995905159E-29));
#622=DIRECTION('ref_axis',(1.80318722916209E-14,-1.,2.44249065427948E-15));
#623=DIRECTION('',(1.34656595638173E-15,1.,1.79856167954304E-16));
#624=DIRECTION('',(1.80318722916209E-14,-1.,2.44249065427948E-15));
#625=DIRECTION('',(0.,-2.22044604925031E-15,1.));
#626=DIRECTION('center_axis',(1.,2.15382287586253E-15,4.7824474954939E-30));
#627=DIRECTION('ref_axis',(-2.15382287586253E-15,1.,-2.44249065427887E-15));
#628=DIRECTION('',(7.76611890264E-16,1.,1.08611909689577E-16));
#629=DIRECTION('',(0.,-2.22044604925031E-15,1.));
#630=DIRECTION('',(-2.15382287586253E-15,1.,-2.44249065427887E-15));
#631=DIRECTION('',(0.,-2.22044604925031E-15,1.));
#632=DIRECTION('center_axis',(-1.,7.52868791879857E-15,1.67170453453349E-29));
#633=DIRECTION('ref_axis',(-7.52868791879857E-15,-1.,3.08150465953927E-15));
#634=DIRECTION('',(-7.52868791879857E-15,-1.,3.08150465953927E-15));
#635=DIRECTION('',(1.34656595638173E-15,1.,1.79856167954304E-16));
#636=DIRECTION('',(0.,-2.22044604925031E-15,1.));
#637=DIRECTION('',(-7.52868791879857E-15,-1.,3.08150465953927E-15));
#638=DIRECTION('center_axis',(-1.1264933726556E-27,-1.99840082901006E-15,
1.));
#639=DIRECTION('ref_axis',(-1.80318722916209E-14,1.,1.99840082901006E-15));
#640=DIRECTION('',(1.,-3.23722530263247E-14,1.06338450023792E-27));
#641=DIRECTION('',(-1.,-8.8197967447882E-14,1.57772181044202E-28));
#642=DIRECTION('center_axis',(-1.1264933726556E-27,-1.99840082901006E-15,
1.));
#643=DIRECTION('ref_axis',(-1.80318722916209E-14,1.,1.99840082901006E-15));
#644=DIRECTION('center_axis',(3.626973930258E-15,1.69161367644885E-14,-1.));
#645=DIRECTION('ref_axis',(-1.,-5.79392319283027E-15,-3.62697393025809E-15));
#646=DIRECTION('center_axis',(-1.,0.,0.));
#647=DIRECTION('ref_axis',(0.,-1.,-1.55211197809564E-14));
#648=DIRECTION('center_axis',(1.,-4.92714684077609E-16,1.38917290593963E-16));
#649=DIRECTION('ref_axis',(-4.92714684077607E-16,-1.,-1.55211197809564E-14));
#650=DIRECTION('',(-1.,0.,0.));
#651=DIRECTION('center_axis',(1.,-4.92714684077609E-16,1.38917290593963E-16));
#652=DIRECTION('ref_axis',(-4.92714684077607E-16,-1.,-1.55211197809564E-14));
#653=DIRECTION('',(-1.,0.,0.));
#654=DIRECTION('center_axis',(1.,-4.92714684077606E-16,1.38917290593975E-16));
#655=DIRECTION('ref_axis',(-4.92714684077606E-16,-1.,-1.55211197809564E-14));
#656=DIRECTION('center_axis',(-1.,-1.11418810685641E-15,-9.96160529544032E-13));
#657=DIRECTION('ref_axis',(9.96160529544032E-13,-3.58047561905375E-14,-1.));
#658=DIRECTION('',(-4.92714683922333E-16,-1.,-4.15264266260557E-13));
#659=DIRECTION('',(-4.92714683922333E-16,-1.,-4.15264266260557E-13));
#660=DIRECTION('center_axis',(-1.,0.,0.));
#661=DIRECTION('ref_axis',(0.,-1.,-1.55211197809564E-14));
#662=DIRECTION('center_axis',(1.,-4.92714684077609E-16,1.38917290593963E-16));
#663=DIRECTION('ref_axis',(-4.92714684077607E-16,-1.,-1.55211197809564E-14));
#664=DIRECTION('',(-1.,0.,0.));
#665=DIRECTION('center_axis',(1.,-4.92714684077609E-16,1.38917290593963E-16));
#666=DIRECTION('ref_axis',(-4.92714684077607E-16,-1.,-1.55211197809564E-14));
#667=DIRECTION('',(-1.,0.,0.));
#668=DIRECTION('center_axis',(1.,-4.92714684077609E-16,1.38917290593928E-16));
#669=DIRECTION('ref_axis',(-4.92714684077609E-16,-1.,-1.55211197809564E-14));
#670=DIRECTION('center_axis',(-1.,-1.11418810685641E-15,-9.96160529544032E-13));
#671=DIRECTION('ref_axis',(9.96160529544032E-13,-1.79023780952601E-14,-1.));
#672=DIRECTION('',(-4.92714683922333E-16,-1.,-4.15264266260557E-13));
#673=DIRECTION('',(-4.92714683922333E-16,-1.,-4.15264266260557E-13));
#674=DIRECTION('center_axis',(9.9698027611339E-13,1.79856167952962E-16,
-1.));
#675=DIRECTION('ref_axis',(1.34656595638173E-15,1.,1.79856167954304E-16));
#676=DIRECTION('',(-1.34656595638173E-15,-1.,-1.79856167954304E-16));
#677=DIRECTION('',(1.34656595638173E-15,1.,1.79856167954304E-16));
#678=DIRECTION('',(1.,2.22044604925031E-15,9.9698027611339E-13));
#679=DIRECTION('center_axis',(-9.9698027611339E-13,-1.08611909688803E-16,
1.));
#680=DIRECTION('ref_axis',(-7.76611890264E-16,-1.,-1.08611909689577E-16));
#681=DIRECTION('',(-7.76611890264E-16,-1.,-1.08611909689577E-16));
#682=DIRECTION('',(1.,2.22044604925031E-15,9.9698027611339E-13));
#683=DIRECTION('',(-7.76611890264E-16,-1.,-1.08611909689577E-16));
#684=DIRECTION('',(1.,2.22044604925031E-15,9.9698027611339E-13));
#685=DIRECTION('center_axis',(9.9698027611339E-13,1.79856167952962E-16,
-1.));
#686=DIRECTION('ref_axis',(1.34656595638173E-15,1.,1.79856167954304E-16));
#687=DIRECTION('',(-1.34656595638173E-15,-1.,-1.79856167954304E-16));
#688=DIRECTION('',(1.,2.22044604925031E-15,9.9698027611339E-13));
#689=DIRECTION('',(-4.92714683922333E-16,-1.,-4.15264266260557E-13));
#690=DIRECTION('center_axis',(9.9698027611339E-13,1.79856167952962E-16,
-1.));
#691=DIRECTION('ref_axis',(1.34656595638173E-15,1.,1.79856167954304E-16));
#692=DIRECTION('',(-4.92714683922333E-16,-1.,-4.15264266260557E-13));
#693=DIRECTION('center_axis',(-1.,-1.11418810685641E-15,-9.96160529544032E-13));
#694=DIRECTION('ref_axis',(-9.96160529544032E-13,-1.99074473381087E-14,
1.));
#695=DIRECTION('',(-2.84912377819577E-14,-1.17016260240728E-14,1.));
#696=DIRECTION('',(9.96160529544032E-13,2.36989197940497E-14,-1.));
#697=DIRECTION('center_axis',(-5.79392319283014E-15,1.,-3.58047561905433E-14));
#698=DIRECTION('ref_axis',(1.,5.79412531306519E-15,9.96284599883368E-13));
#699=DIRECTION('center_axis',(1.34656595638173E-15,1.,1.79856167954304E-16));
#700=DIRECTION('ref_axis',(1.,-1.34656595638174E-15,2.8310687127931E-14));
#701=DIRECTION('center_axis',(1.34656595638173E-15,1.,1.79856167954304E-16));
#702=DIRECTION('ref_axis',(1.,-1.34656595638174E-15,2.8310687127931E-14));
#703=DIRECTION('center_axis',(3.22841402175607E-15,1.,2.3698919794053E-14));
#704=DIRECTION('ref_axis',(1.,-1.34656595638174E-15,2.8310687127931E-14));
#705=DIRECTION('center_axis',(-5.79392319284797E-15,1.,-1.79023780952659E-14));
#706=DIRECTION('ref_axis',(1.,5.79412531306519E-15,9.96513315356252E-13));
#707=DIRECTION('center_axis',(1.34656595638173E-15,1.,1.79856167954304E-16));
#708=DIRECTION('ref_axis',(1.,-1.34656595638174E-15,2.8310687127931E-14));
#709=DIRECTION('center_axis',(5.79392319288104E-15,-1.,-1.17016260240726E-14));
#710=DIRECTION('ref_axis',(1.20396233056043E-14,-1.17016260240725E-14,1.));
#711=DIRECTION('center_axis',(5.79392319288104E-15,-1.,-1.17016260240726E-14));
#712=DIRECTION('ref_axis',(-4.63873953494134E-14,1.08611909689611E-16,-1.));
#713=DIRECTION('center_axis',(5.79392319288104E-15,-1.,-1.17016260240726E-14));
#714=DIRECTION('ref_axis',(1.,-1.34656595638174E-15,2.8310687127931E-14));
#715=DIRECTION('center_axis',(3.22841402175607E-15,1.,2.3698919794053E-14));
#716=DIRECTION('ref_axis',(1.,-3.22841402175606E-15,-5.82243711177398E-16));
#717=DIRECTION('center_axis',(3.22841402175607E-15,1.,2.3698919794053E-14));
#718=DIRECTION('ref_axis',(-4.63873953494134E-14,1.08611909689611E-16,-1.));
#719=DIRECTION('center_axis',(-7.76611890264E-16,-1.,-1.08611909689577E-16));
#720=DIRECTION('ref_axis',(-4.63873953494134E-14,1.08611909689611E-16,-1.));
#721=DIRECTION('center_axis',(1.34656595638173E-15,1.,1.79856167954304E-16));
#722=DIRECTION('ref_axis',(1.,-1.34656595638174E-15,2.8310687127931E-14));
#723=DIRECTION('center_axis',(1.,-4.14910271381156E-16,2.98906198927099E-16));
#724=DIRECTION('ref_axis',(4.14910271381153E-16,1.,1.55211197809564E-14));
#725=DIRECTION('',(1.,-4.14910271381156E-16,2.98906198927099E-16));
#726=CARTESIAN_POINT('',(0.,0.,0.));
#727=CARTESIAN_POINT('Origin',(-6.03283710806522,40.8869085072664,-29.4352664470618));
#728=CARTESIAN_POINT('',(-4.78283710806522,40.8869085072664,-31.9545428057477));
#729=CARTESIAN_POINT('Ctrl Pts',(-4.78283710806522,40.8869085072664,-31.9545428057477));
#730=CARTESIAN_POINT('Ctrl Pts',(-4.78283710806523,41.0433823262097,-31.9545428057477));
#731=CARTESIAN_POINT('Ctrl Pts',(-4.81405795849426,41.2097927968882,-31.9451475910455));
#732=CARTESIAN_POINT('Ctrl Pts',(-4.9394401688106,41.5147301313021,-31.9069571623773));
#733=CARTESIAN_POINT('Ctrl Pts',(-5.03355657893292,41.6532702290507,-31.8781200696244));
#734=CARTESIAN_POINT('Ctrl Pts',(-5.25379191198835,41.8777130162243,-31.8095249358308));
#735=CARTESIAN_POINT('Ctrl Pts',(-5.3967216756769,41.9760623119417,-31.7644682638859));
#736=CARTESIAN_POINT('Ctrl Pts',(-5.70785978091941,42.1056326689428,-31.664200054425));
#737=CARTESIAN_POINT('Ctrl Pts',(-5.87603193335663,42.1369085072664,-31.6089470199621));
#738=CARTESIAN_POINT('Ctrl Pts',(-6.19087798792836,42.1369085072664,-31.5034734195811));
#739=CARTESIAN_POINT('Ctrl Pts',(-6.35963384519343,42.1051855783424,-31.4458394895165));
#740=CARTESIAN_POINT('Ctrl Pts',(-6.67107659684728,41.9748632291118,-31.3374761314036));
#741=CARTESIAN_POINT('Ctrl Pts',(-6.81377080372376,41.8762396356095,-31.2867967988479));
#742=CARTESIAN_POINT('Ctrl Pts',(-7.03294664655583,41.6519946836923,-31.2080914723543));
#743=CARTESIAN_POINT('Ctrl Pts',(-7.1265763608953,41.5140255477542,-31.1739777622573));
#744=CARTESIAN_POINT('Ctrl Pts',(-7.25155539833816,41.2098125777788,-31.1282014165439));
#745=CARTESIAN_POINT('Ctrl Pts',(-7.28283710806522,41.0435283033308,-31.1166230071367));
#746=CARTESIAN_POINT('Ctrl Pts',(-7.28283710806522,40.7278193626854,-31.1166230071367));
#747=CARTESIAN_POINT('Ctrl Pts',(-7.25057141368372,40.5591129254005,-31.1285666241402));
#748=CARTESIAN_POINT('Ctrl Pts',(-7.12199832754429,40.2512555766083,-31.175649554884));
#749=CARTESIAN_POINT('Ctrl Pts',(-7.02575857083984,40.1120630170747,-31.2107011701023));
#750=CARTESIAN_POINT('Ctrl Pts',(-6.80417253705172,39.8904769832865,-31.2902113093108));
#751=CARTESIAN_POINT('Ctrl Pts',(-6.66276188831695,39.7944802232105,-31.3403955626033));
#752=CARTESIAN_POINT('Ctrl Pts',(-6.35495002320938,39.6677087445671,-31.4474416261968));
#753=CARTESIAN_POINT('Ctrl Pts',(-6.18854272930285,39.6369085072664,-31.5042557324971));
#754=CARTESIAN_POINT('Ctrl Pts',(-5.87795195106068,39.6369085072664,-31.6083038129817));
#755=CARTESIAN_POINT('Ctrl Pts',(-5.71172914689191,39.6674278866095,-31.6629308773765));
#756=CARTESIAN_POINT('Ctrl Pts',(-5.40361001127957,39.7940605877686,-31.7622698722267));
#757=CARTESIAN_POINT('Ctrl Pts',(-5.26174919336912,39.8902294689962,-31.8070211154148));
#758=CARTESIAN_POINT('Ctrl Pts',(-5.03950236707385,40.1124762952914,-31.8762910637317));
#759=CARTESIAN_POINT('Ctrl Pts',(-4.94322029919115,40.2520356295867,-31.9058018744036));
#760=CARTESIAN_POINT('Ctrl Pts',(-4.81486526409076,40.5599941895413,-31.9449054457342));
#761=CARTESIAN_POINT('Ctrl Pts',(-4.78283710806522,40.7284064257383,-31.9545428057477));
#762=CARTESIAN_POINT('Ctrl Pts',(-4.78283710806522,40.8869085072664,-31.9545428057477));
#763=CARTESIAN_POINT('',(-4.78283710806522,40.8869085072664,-26.7003371913192));
#764=CARTESIAN_POINT('',(-4.78283710806522,40.8869085072665,-29.4352664470618));
#765=CARTESIAN_POINT('',(-7.28283710806522,40.8869085072664,-25.7400070733323));
#766=CARTESIAN_POINT('Ctrl Pts',(-7.28283710806522,40.8869085072664,-25.7400070733323));
#767=CARTESIAN_POINT('Ctrl Pts',(-7.28283710806522,41.0434465652035,-25.7400070733323));
#768=CARTESIAN_POINT('Ctrl Pts',(-7.25157705965696,41.2093917725411,-25.7533111089423));
#769=CARTESIAN_POINT('Ctrl Pts',(-7.12736259271804,41.5124774670702,-25.8056079417861));
#770=CARTESIAN_POINT('Ctrl Pts',(-7.03449795068836,41.6496735387354,-25.844491725211));
#771=CARTESIAN_POINT('Ctrl Pts',(-6.81612260478154,41.8746078168262,-25.9345826480677));
#772=CARTESIAN_POINT('Ctrl Pts',(-6.67281953494859,41.9739353220812,-25.9930259298693));
#773=CARTESIAN_POINT('Ctrl Pts',(-6.36037405375899,42.1050728480151,-26.1177653148309));
#774=CARTESIAN_POINT('Ctrl Pts',(-6.19121995048145,42.1369085072664,-26.1840051706696));
#775=CARTESIAN_POINT('Ctrl Pts',(-5.87608170398954,42.1369085072664,-26.3049779744384));
#776=CARTESIAN_POINT('Ctrl Pts',(-5.70770131743266,42.1056637587449,-26.3683330151782));
#777=CARTESIAN_POINT('Ctrl Pts',(-5.39565436124834,41.9755203770934,-26.4834230234893));
#778=CARTESIAN_POINT('Ctrl Pts',(-5.2520330721412,41.8765529950436,-26.5352030013187));
#779=CARTESIAN_POINT('Ctrl Pts',(-5.03226731460052,41.6513544927817,-26.6134539467334));
#780=CARTESIAN_POINT('Ctrl Pts',(-4.93876006640312,41.5134040696792,-26.6461989241886));
#781=CARTESIAN_POINT('Ctrl Pts',(-4.81401498692252,41.2093583925465,-26.6896183372467));
#782=CARTESIAN_POINT('Ctrl Pts',(-4.78283710806522,41.0432448890505,-26.7003371913192));
#783=CARTESIAN_POINT('Ctrl Pts',(-4.78283710806522,40.8869085072664,-26.7003371913192));
#784=CARTESIAN_POINT('Ctrl Pts',(-4.78283710806522,40.8869085072664,-26.7003371913192));
#785=CARTESIAN_POINT('Ctrl Pts',(-4.78283710806522,40.7279358435732,-26.7003371913192));
#786=CARTESIAN_POINT('Ctrl Pts',(-4.81506542730222,40.5592297849715,-26.6892583964321));
#787=CARTESIAN_POINT('Ctrl Pts',(-4.94365231525536,40.2512846659604,-26.6444901532987));
#788=CARTESIAN_POINT('Ctrl Pts',(-5.03995099871105,40.1120276636542,-26.6107521489074));
#789=CARTESIAN_POINT('Ctrl Pts',(-5.26227931505462,39.8896993473107,-26.5315156252945));
#790=CARTESIAN_POINT('Ctrl Pts',(-5.404511090226,39.7935478821069,-26.4801887723477));
#791=CARTESIAN_POINT('Ctrl Pts',(-5.71266237860851,39.6671875661211,-26.3664694692471));
#792=CARTESIAN_POINT('Ctrl Pts',(-5.87853766262986,39.6369085072664,-26.3040352002561));
#793=CARTESIAN_POINT('Ctrl Pts',(-6.18821748098689,39.6369085072664,-26.1851577351617));
#794=CARTESIAN_POINT('Ctrl Pts',(-6.35434675354489,39.6675589762183,-26.1201292678724));
#795=CARTESIAN_POINT('Ctrl Pts',(-6.66209979340587,39.7941092595924,-25.9973457493066));
#796=CARTESIAN_POINT('Ctrl Pts',(-6.80373301500498,39.8900374612398,-25.9396436605521));
#797=CARTESIAN_POINT('Ctrl Pts',(-7.02518016559251,40.1114846118274,-25.8483787332683));
#798=CARTESIAN_POINT('Ctrl Pts',(-7.12141585869971,40.2502503008973,-25.8081037906918));
#799=CARTESIAN_POINT('Ctrl Pts',(-7.25028929213602,40.5580506194236,-25.7538607047367));
#800=CARTESIAN_POINT('Ctrl Pts',(-7.28283710806522,40.7271430597806,-25.7400070733323));
#801=CARTESIAN_POINT('Ctrl Pts',(-7.28283710806522,40.8869085072664,-25.7400070733323));
#802=CARTESIAN_POINT('Origin',(7.94377119979529,49.8369088146707,10.1647335529255));
#803=CARTESIAN_POINT('',(7.94377135002661,39.1369084769289,-33.8352664470744));
#804=CARTESIAN_POINT('',(-36.0562288002047,39.1369084769302,10.1647335528789));
#805=CARTESIAN_POINT('Origin',(7.94377134998271,39.1369084769305,10.1647335529228));
#806=CARTESIAN_POINT('',(-36.0562288002047,42.6361096272723,10.164733552879));
#807=CARTESIAN_POINT('',(-36.0562288002047,49.8369088146708,10.1647335529246));
#808=CARTESIAN_POINT('',(7.94377135002635,42.6361096272718,-33.8352664470744));
#809=CARTESIAN_POINT('Origin',(7.94377134998242,42.6361096272726,10.1647335529228));
#810=CARTESIAN_POINT('',(7.94377135002403,49.8369088146707,-33.8352664470744));
#811=CARTESIAN_POINT('',(-33.3104407063846,40.8869085072658,-5.13526644707469));
#812=CARTESIAN_POINT('',(-33.7527214584607,39.6369085072658,-3.8852664470747));
#813=CARTESIAN_POINT('Ctrl Pts',(-33.7527214584607,39.6369085072658,-3.88526644707469));
#814=CARTESIAN_POINT('Ctrl Pts',(-33.8049045056065,39.6369085072658,-3.73040167538775));
#815=CARTESIAN_POINT('Ctrl Pts',(-33.8598511719731,39.6674193766516,-3.56419167215118));
#816=CARTESIAN_POINT('Ctrl Pts',(-33.959787229672,39.7940420336494,-3.25607201825492));
#817=CARTESIAN_POINT('Ctrl Pts',(-34.004815814399,39.8902098795698,-3.11419812180437));
#818=CARTESIAN_POINT('Ctrl Pts',(-34.0745126009738,40.112458216166,-2.89194978520815));
#819=CARTESIAN_POINT('Ctrl Pts',(-34.1042076015411,40.2520052587121,-2.79566710513529));
#820=CARTESIAN_POINT('Ctrl Pts',(-34.1435588588271,40.5599631708263,-2.66730272388536));
#821=CARTESIAN_POINT('Ctrl Pts',(-34.1532595743578,40.728387289954,-2.63526644707469));
#822=CARTESIAN_POINT('Ctrl Pts',(-34.1532595743578,41.0433773304074,-2.63526644707469));
#823=CARTESIAN_POINT('Ctrl Pts',(-34.1438054486542,41.2097761674064,-2.6664857770934));
#824=CARTESIAN_POINT('Ctrl Pts',(-34.1053837296091,41.5146777848963,-2.79184266836522));
#825=CARTESIAN_POINT('Ctrl Pts',(-34.0763744350282,41.6531940393414,-2.88593466799965));
#826=CARTESIAN_POINT('Ctrl Pts',(-34.0073639435627,41.8776649138164,-3.1061492081163));
#827=CARTESIAN_POINT('Ctrl Pts',(-33.9620242682253,41.9760385283584,-3.24910473940322));
#828=CARTESIAN_POINT('Ctrl Pts',(-33.8611423829299,42.1056326980969,-3.56027835554397));
#829=CARTESIAN_POINT('Ctrl Pts',(-33.8055587698331,42.1369085072658,-3.72846000111578));
#830=CARTESIAN_POINT('Ctrl Pts',(-33.699465037874,42.1369085072658,-4.0433166926262));
#831=CARTESIAN_POINT('Ctrl Pts',(-33.6414940284502,42.1051826185413,-4.21208601174105));
#832=CARTESIAN_POINT('Ctrl Pts',(-33.5325000345963,41.9748314211262,-4.52356619174512));
#833=CARTESIAN_POINT('Ctrl Pts',(-33.4815271749854,41.8761817448206,-4.66628439231927));
#834=CARTESIAN_POINT('Ctrl Pts',(-33.4023922203575,41.6519101029406,-4.88543264790393));
#835=CARTESIAN_POINT('Ctrl Pts',(-33.3681001601124,41.5139686206551,-4.97903471474689));
#836=CARTESIAN_POINT('Ctrl Pts',(-33.322082018946,41.2097962840031,-5.10398580229786));
#837=CARTESIAN_POINT('Ctrl Pts',(-33.3104407063846,41.0435245280018,-5.13526644707469));
#838=CARTESIAN_POINT('Ctrl Pts',(-33.3104407063846,40.8869085072658,-5.13526644707469));
#839=CARTESIAN_POINT('Ctrl Pts',(-33.3104407063846,40.8869085072658,-5.13526644707469));
#840=CARTESIAN_POINT('Ctrl Pts',(-33.3104407063846,40.7277958257468,-5.13526644707469));
#841=CARTESIAN_POINT('Ctrl Pts',(-33.3224532985293,40.5590756003348,-5.10299088549683));
#842=CARTESIAN_POINT('Ctrl Pts',(-33.3697994038587,40.2512198855307,-4.97440703803699));
#843=CARTESIAN_POINT('Ctrl Pts',(-33.4050446289625,40.1120422602328,-4.878167153008));
#844=CARTESIAN_POINT('Ctrl Pts',(-33.4849972965307,39.8904593637461,-4.65658425652132));
#845=CARTESIAN_POINT('Ctrl Pts',(-33.5354670100523,39.7944646709763,-4.51516364628634));
#846=CARTESIAN_POINT('Ctrl Pts',(-33.6431222850452,39.667702119045,-4.20735309201236));
#847=CARTESIAN_POINT('Ctrl Pts',(-33.7002601339497,39.6369085072658,-4.0409570685918));
#848=CARTESIAN_POINT('Ctrl Pts',(-33.7527214584607,39.6369085072658,-3.88526644707469));
#849=CARTESIAN_POINT('Origin',(-33.5562288001996,40.8869085072659,10.1647335529247));
#850=CARTESIAN_POINT('',(-36.0562288002047,47.8361096272723,10.1647335528789));
#851=CARTESIAN_POINT('Origin',(-36.0562286500176,45.2361096272723,10.1647335529227));
#852=CARTESIAN_POINT('',(-36.0562288002014,43.2361096272715,10.1647335529247));
#853=CARTESIAN_POINT('',(-36.0562288002013,47.8361096272715,10.1647335529247));
#854=CARTESIAN_POINT('',(-36.0562288002013,47.2361096272716,10.1647335529247));
#855=CARTESIAN_POINT('Origin',(-36.0562286500143,45.2361096272716,10.1647335529247));
#856=CARTESIAN_POINT('',(-36.0562288002014,49.8369088146699,10.1647335529247));
#857=CARTESIAN_POINT('Origin',(-36.0562286500139,36.5369084769294,10.1647335529247));
#858=CARTESIAN_POINT('',(-36.0562288002014,34.5369084769294,10.1647335529247));
#859=CARTESIAN_POINT('',(-36.0562288002014,38.5369084769294,10.1647335529247));
#860=CARTESIAN_POINT('Origin',(-36.0562286500139,36.5369084769294,10.1647335529247));
#861=CARTESIAN_POINT('',(-36.0562288002014,34.5369084769294,12.1647335529247));
#862=CARTESIAN_POINT('',(-36.0562288002014,34.5369084769294,10.1647335529247));
#863=CARTESIAN_POINT('',(-36.0562288002014,38.5369084769294,12.1647335529247));
#864=CARTESIAN_POINT('Origin',(-36.0562286500139,36.5369084769294,12.1647335529247));
#865=CARTESIAN_POINT('',(-36.0562288002014,38.5369084769294,10.1647335529247));
#866=CARTESIAN_POINT('Origin',(-36.0562288002013,43.2361096272715,10.1647335529247));
#867=CARTESIAN_POINT('',(-36.0562288002013,47.8361096272715,10.1647335529247));
#868=CARTESIAN_POINT('',(-36.0562288002014,43.2361096272715,12.1647335529247));
#869=CARTESIAN_POINT('',(-36.0562288002013,47.8361096272715,12.1647335529247));
#870=CARTESIAN_POINT('',(-36.0562288002014,43.2361096272715,10.1647335529247));
#871=CARTESIAN_POINT('Origin',(-36.0562286500143,45.2361096272716,10.1647335529247));
#872=CARTESIAN_POINT('',(-36.0562288002013,47.2361096272716,12.1647335529247));
#873=CARTESIAN_POINT('Origin',(-36.0562286500143,45.2361096272716,12.1647335529247));
#874=CARTESIAN_POINT('',(-36.0562288002013,47.2361096272716,10.1647335529247));
#875=CARTESIAN_POINT('Origin',(-36.0562288002014,49.8369088146699,10.1647335529247));
#876=CARTESIAN_POINT('',(-36.0562288002047,49.8369088146707,10.1647335529246));
#877=CARTESIAN_POINT('',(-36.0562288002047,49.8369088146708,10.1647335529246));
#878=CARTESIAN_POINT('',(-36.0562288002014,49.8369088146699,12.1647335529247));
#879=CARTESIAN_POINT('',(-36.0562288002014,49.8369088146699,12.1647335529247));
#880=CARTESIAN_POINT('',(-36.0562288002014,49.8369088146699,10.1647335529247));
#881=CARTESIAN_POINT('Origin',(-31.0562288001978,31.9369081998615,10.1647335529247));
#882=CARTESIAN_POINT('',(-31.0562288002012,31.9369081998622,10.1647335529249));
#883=CARTESIAN_POINT('',(-31.0562288002011,49.8369088146711,10.1647335529249));
#884=CARTESIAN_POINT('',(-31.0562288002011,49.8369088146712,10.1647335529246));
#885=CARTESIAN_POINT('',(-31.0562288001979,49.8369088146703,12.1647335529247));
#886=CARTESIAN_POINT('',(-31.0562288001979,49.8369088146703,10.1647335529247));
#887=CARTESIAN_POINT('',(-31.0562288001978,31.9369081998615,12.1647335529247));
#888=CARTESIAN_POINT('',(-31.0562288001978,31.9369081998615,12.1647335529247));
#889=CARTESIAN_POINT('',(-31.0562288001978,31.9369081998615,10.1647335529247));
#890=CARTESIAN_POINT('Origin',(-36.0562288002014,34.5369084769294,10.1647335529247));
#891=CARTESIAN_POINT('',(-36.0562288002047,33.9369084769302,10.1647335528791));
#892=CARTESIAN_POINT('',(-36.0562288002013,47.8361096272715,10.1647335529247));
#893=CARTESIAN_POINT('',(-36.0562288002047,31.9369081998624,10.1647335529237));
#894=CARTESIAN_POINT('',(-36.0562288002047,49.8369088146708,10.1647335529246));
#895=CARTESIAN_POINT('',(-36.0562288002014,31.9369081998617,12.1647335529247));
#896=CARTESIAN_POINT('',(-36.0562288002014,31.9369081998617,10.1647335529247));
#897=CARTESIAN_POINT('',(-36.0562288002013,47.8361096272715,12.1647335529247));
#898=CARTESIAN_POINT('Origin',(-33.5562288001996,40.8869085072659,12.1647335529247));
#899=CARTESIAN_POINT('',(-36.0562288002014,31.9369081998617,12.1647335529247));
#900=CARTESIAN_POINT('',(-31.0562288001979,49.8369088146703,12.1647335529247));
#901=CARTESIAN_POINT('Origin',(-33.5562288001996,40.8869085072659,10.1647335529247));
#902=CARTESIAN_POINT('Origin',(-36.0562286500173,36.5369084769302,10.1647335529226));
#903=CARTESIAN_POINT('Origin',(9.94377134993528,36.5369084769288,-33.8352664470747));
#904=CARTESIAN_POINT('',(9.94377134993535,38.5369084769288,-33.8352664470747));
#905=CARTESIAN_POINT('',(9.94377134993535,34.5369084769288,-33.8352664470747));
#906=CARTESIAN_POINT('Origin',(9.94377134993528,36.5369084769288,-33.8352664470747));
#907=CARTESIAN_POINT('',(7.94377134993535,34.5369084769288,-33.8352664470747));
#908=CARTESIAN_POINT('',(9.94377134993535,34.5369084769288,-33.8352664470747));
#909=CARTESIAN_POINT('',(7.94377134993535,38.5369084769288,-33.8352664470747));
#910=CARTESIAN_POINT('Origin',(7.94377134993528,36.5369084769288,-33.8352664470747));
#911=CARTESIAN_POINT('',(9.94377134993535,38.5369084769288,-33.8352664470747));
#912=CARTESIAN_POINT('Origin',(7.94377134993535,36.5369084769288,-32.5352664470761));
#913=CARTESIAN_POINT('',(7.94377135002411,33.9369084769289,-33.835266447074));
#914=CARTESIAN_POINT('Origin',(7.94377135002654,36.5369084769289,-33.8352664470772));
#915=CARTESIAN_POINT('',(7.94377134993528,47.4014575774784,-33.8352664470719));
#916=CARTESIAN_POINT('',(7.94377134993528,47.4014575774784,-33.8352664470719));
#917=CARTESIAN_POINT('Origin',(9.94377134993528,45.2361096272717,-33.8352664470747));
#918=CARTESIAN_POINT('',(9.94377134993535,47.2361096272717,-33.8352664470746));
#919=CARTESIAN_POINT('',(9.94377134993535,43.2361096272717,-33.8352664470747));
#920=CARTESIAN_POINT('Origin',(9.94377134993528,45.2361096272717,-33.8352664470747));
#921=CARTESIAN_POINT('',(7.94377134993535,43.2361096272717,-33.8352664470747));
#922=CARTESIAN_POINT('',(9.94377134993535,43.2361096272717,-33.8352664470747));
#923=CARTESIAN_POINT('',(7.94377134993535,47.2361096272717,-33.8352664470746));
#924=CARTESIAN_POINT('Origin',(7.94377134993528,45.2361096272717,-33.8352664470747));
#925=CARTESIAN_POINT('',(9.94377134993535,47.2361096272717,-33.8352664470746));
#926=CARTESIAN_POINT('Origin',(7.94377134993528,45.2361096272717,-32.5352664470747));
#927=CARTESIAN_POINT('',(7.94377135002632,47.8361096272718,-33.8352664470744));
#928=CARTESIAN_POINT('Origin',(7.94377135002626,45.2361096272718,-33.8352664470772));
#929=CARTESIAN_POINT('',(7.94377134993528,47.4014575774784,-33.8352664470719));
#930=CARTESIAN_POINT('',(7.94377134993528,47.4014575774784,-33.8352664470719));
#931=CARTESIAN_POINT('Origin',(7.94377135002401,31.9369081998632,-33.8352664470744));
#932=CARTESIAN_POINT('',(7.94377135002405,31.9369081998632,-33.8352664470744));
#933=CARTESIAN_POINT('',(7.94377135002403,49.8369088146707,-33.8352664470744));
#934=CARTESIAN_POINT('',(9.94377135002405,31.9369081998632,-33.8352664470724));
#935=CARTESIAN_POINT('',(9.94377135002403,49.8369088146707,-33.8352664470724));
#936=CARTESIAN_POINT('',(7.94377135002405,31.9369081998632,-33.8352664470744));
#937=CARTESIAN_POINT('Origin',(7.94377135001905,49.8369088146715,-28.8352664470739));
#938=CARTESIAN_POINT('',(7.94377119979679,49.8369088146715,-28.8352664470739));
#939=CARTESIAN_POINT('',(7.94377119979677,31.936908199863,-28.8352664470739));
#940=CARTESIAN_POINT('',(7.94377135001905,49.8369088146712,-28.8352664470739));
#941=CARTESIAN_POINT('',(9.94377119979677,31.936908199863,-28.8352664470719));
#942=CARTESIAN_POINT('',(7.94377119979677,31.936908199863,-28.8352664470739));
#943=CARTESIAN_POINT('',(9.94377119979679,49.8369088146715,-28.8352664470719));
#944=CARTESIAN_POINT('',(9.94377135001905,49.8369088146712,-28.8352664470719));
#945=CARTESIAN_POINT('',(7.94377119979679,49.8369088146715,-28.8352664470739));
#946=CARTESIAN_POINT('Origin',(7.94377135002403,47.8361096272718,-33.8352664470744));
#947=CARTESIAN_POINT('',(7.94377119979325,49.8369088146715,-33.8352664470744));
#948=CARTESIAN_POINT('',(7.94377135002403,49.8369088146707,-33.8352664470744));
#949=CARTESIAN_POINT('',(9.94377119979325,49.8369088146715,-33.8352664470724));
#950=CARTESIAN_POINT('',(7.94377119979325,49.8369088146715,-33.8352664470744));
#951=CARTESIAN_POINT('',(9.94377134993528,47.4014575774784,-33.8352664470719));
#952=CARTESIAN_POINT('Origin',(7.94377135002402,39.1369084769289,-33.8352664470744));
#953=CARTESIAN_POINT('',(9.94377134993528,47.4014575774784,-33.8352664470719));
#954=CARTESIAN_POINT('Origin',(9.94377135002335,31.9369081998631,-33.1352664470729));
#955=CARTESIAN_POINT('',(9.94377119979309,49.8369088146715,-28.0827224160324));
#956=CARTESIAN_POINT('',(9.94377135000976,31.9369081998628,-19.4877664470618));
#957=CARTESIAN_POINT('Origin',(7.94377134998271,36.5369084769305,10.1647335529228));
#958=CARTESIAN_POINT('Origin',(7.94377134998271,33.9369084769305,10.1647335529228));
#959=CARTESIAN_POINT('Origin',(7.94377119979529,49.8369088146707,10.1647335529255));
#960=CARTESIAN_POINT('Origin',(7.94377119979527,31.9369081998625,10.1647335529255));
#961=CARTESIAN_POINT('Origin',(7.94377134998243,45.2361096272726,10.1647335529228));
#962=CARTESIAN_POINT('Origin',(7.94377134998243,47.8361096272726,10.1647335529228));
#963=CARTESIAN_POINT('Origin',(-1.77700880021298,49.8369088146715,-38.9352664470772));
#964=CARTESIAN_POINT('Origin',(7.94377119979856,49.8369088146714,10.1647335529258));
#965=CARTESIAN_POINT('Origin',(7.94377119979529,49.8369088146714,10.1647335529255));
#966=CARTESIAN_POINT('Origin',(-14.9903229015683,31.9369081998626,-5.84026644707546));
#967=CARTESIAN_POINT('Origin',(7.94377119979855,31.9369081998626,10.1647335529258));
#968=CARTESIAN_POINT('Origin',(7.94377119979856,49.8369088146712,10.1647335529258));
#969=CARTESIAN_POINT('',(-28.8958813501369,40.8869085072658,-2.63526644707469));
#970=CARTESIAN_POINT('',(-28.4375083269026,39.6369085072658,-3.8852664470747));
#971=CARTESIAN_POINT('Ctrl Pts',(-28.4375083269026,39.6369085072658,-3.88526644707469));
#972=CARTESIAN_POINT('Ctrl Pts',(-28.3775096237353,39.6369085072658,-4.04062798381271));
#973=CARTESIAN_POINT('Ctrl Pts',(-28.3120994739361,39.6675506226751,-4.20674280846952));
#974=CARTESIAN_POINT('Ctrl Pts',(-28.1885934220261,39.7940894305497,-4.51449387740564));
#975=CARTESIAN_POINT('Ctrl Pts',(-28.1305504755267,39.8900147197442,-4.65613961251939));
#976=CARTESIAN_POINT('Ctrl Pts',(-28.0387595499758,40.1114571527565,-4.87758204553171));
#977=CARTESIAN_POINT('Ctrl Pts',(-27.99825388988,40.2502026389262,-4.97381755433781));
#978=CARTESIAN_POINT('Ctrl Pts',(-27.9436947153737,40.5580002875417,-5.1027052428538));
#979=CARTESIAN_POINT('Ctrl Pts',(-27.9297566445599,40.7271109880247,-5.13526644707469));
#980=CARTESIAN_POINT('Ctrl Pts',(-27.9297566445599,41.0434419493673,-5.13526644707469));
#981=CARTESIAN_POINT('Ctrl Pts',(-27.943135686714,41.2093705177869,-5.104007728477));
#982=CARTESIAN_POINT('Ctrl Pts',(-27.9957159533549,41.5124022505593,-4.97983013666299));
#983=CARTESIAN_POINT('Ctrl Pts',(-28.0348073135153,41.6495616749746,-4.88700208304947));
#984=CARTESIAN_POINT('Ctrl Pts',(-28.1254052036238,41.8745315333353,-4.6686626289465));
#985=CARTESIAN_POINT('Ctrl Pts',(-28.1842017683581,41.9738931712969,-4.52532838059043));
#986=CARTESIAN_POINT('Ctrl Pts',(-28.3096962403993,42.1050687761985,-4.21283400775183));
#987=CARTESIAN_POINT('Ctrl Pts',(-28.3763378832092,42.1369085072658,-4.04366210620512));
#988=CARTESIAN_POINT('Ctrl Pts',(-28.4980459009244,42.1369085072658,-3.72850955010976));
#989=CARTESIAN_POINT('Ctrl Pts',(-28.5617925059089,42.1056639020405,-3.56011699510525));
#990=CARTESIAN_POINT('Ctrl Pts',(-28.6776111421153,41.975489546127,-3.2480237845622));
#991=CARTESIAN_POINT('Ctrl Pts',(-28.7297280567906,41.8764904807079,-3.104368703757));
#992=CARTESIAN_POINT('Ctrl Pts',(-28.8084638569214,41.6512543777925,-2.88462941090358));
#993=CARTESIAN_POINT('Ctrl Pts',(-28.8414070358367,41.5133352390965,-2.79115420444557));
#994=CARTESIAN_POINT('Ctrl Pts',(-28.8850937153718,41.2093365473817,-2.66644232617058));
#995=CARTESIAN_POINT('Ctrl Pts',(-28.8958813501369,41.0432384021684,-2.63526644707469));
#996=CARTESIAN_POINT('Ctrl Pts',(-28.8958813501369,40.8869085072658,-2.63526644707469));
#997=CARTESIAN_POINT('Ctrl Pts',(-28.8958813501369,40.8869085072658,-2.63526644707469));
#998=CARTESIAN_POINT('Ctrl Pts',(-28.8958813501369,40.7279102767816,-2.63526644707469));
#999=CARTESIAN_POINT('Ctrl Pts',(-28.8847270101073,40.5591885798096,-2.6675055981527));
#1000=CARTESIAN_POINT('Ctrl Pts',(-28.8396668076791,40.2512445413902,-2.79610478449596));
#1001=CARTESIAN_POINT('Ctrl Pts',(-28.8057126155858,40.1120039145657,-2.89240408680842));
#1002=CARTESIAN_POINT('Ctrl Pts',(-28.7259742768631,39.8896736470041,-3.11473435437001));
#1003=CARTESIAN_POINT('Ctrl Pts',(-28.6743190697167,39.793523715746,-3.25698308619547));
#1004=CARTESIAN_POINT('Ctrl Pts',(-28.5598960969621,39.6671765546866,-3.56513485226822));
#1005=CARTESIAN_POINT('Ctrl Pts',(-28.4970866779706,39.6369085072658,-3.73099337633113));
#1006=CARTESIAN_POINT('Ctrl Pts',(-28.4375083269026,39.6369085072658,-3.88526644707469));
#1007=CARTESIAN_POINT('Origin',(7.94377119979529,49.8369088146707,10.1647335529255));
#1008=CARTESIAN_POINT('Origin',(-37.9905088001887,40.8869085072658,-3.88526644707469));
#1009=CARTESIAN_POINT('',(-37.9905088001887,39.6369085072658,-3.88526644707471));
#1010=UNCERTAINTY_MEASURE_WITH_UNIT(LENGTH_MEASURE(0.01),#1014,
'DISTANCE_ACCURACY_VALUE',
'Maximum model space distance between geometric entities at asserted c
onnectivities');
#1011=UNCERTAINTY_MEASURE_WITH_UNIT(LENGTH_MEASURE(0.01),#1014,
'DISTANCE_ACCURACY_VALUE',
'Maximum model space distance between geometric entities at asserted c
onnectivities');
#1012=(
GEOMETRIC_REPRESENTATION_CONTEXT(3)
GLOBAL_UNCERTAINTY_ASSIGNED_CONTEXT((#1010))
GLOBAL_UNIT_ASSIGNED_CONTEXT((#1014,#1016,#1017))
REPRESENTATION_CONTEXT('','3D')
);
#1013=(
GEOMETRIC_REPRESENTATION_CONTEXT(3)
GLOBAL_UNCERTAINTY_ASSIGNED_CONTEXT((#1011))
GLOBAL_UNIT_ASSIGNED_CONTEXT((#1014,#1016,#1017))
REPRESENTATION_CONTEXT('','3D')
);
#1014=(
LENGTH_UNIT()
NAMED_UNIT(*)
SI_UNIT(.MILLI.,.METRE.)
);
#1015=(
LENGTH_UNIT()
NAMED_UNIT(*)
SI_UNIT($,.METRE.)
);
#1016=(
NAMED_UNIT(*)
PLANE_ANGLE_UNIT()
SI_UNIT($,.RADIAN.)
);
#1017=(
NAMED_UNIT(*)
SI_UNIT($,.STERADIAN.)
SOLID_ANGLE_UNIT()
);
#1018=SHAPE_DEFINITION_REPRESENTATION(#1019,#1020);
#1019=PRODUCT_DEFINITION_SHAPE('',$,#1022);
#1020=SHAPE_REPRESENTATION('',(#533),#1012);
#1021=PRODUCT_DEFINITION_CONTEXT('part definition',#1026,'design');
#1022=PRODUCT_DEFINITION('rope-right-angle-bottom',
'rope-right-angle-bottom',#1023,#1021);
#1023=PRODUCT_DEFINITION_FORMATION('',$,#1028);
#1024=PRODUCT_RELATED_PRODUCT_CATEGORY('rope-right-angle-bottom',
'rope-right-angle-bottom',(#1028));
#1025=APPLICATION_PROTOCOL_DEFINITION('international standard',
'automotive_design',2009,#1026);
#1026=APPLICATION_CONTEXT(
'Core Data for Automotive Mechanical Design Process');
#1027=PRODUCT_CONTEXT('part definition',#1026,'mechanical');
#1028=PRODUCT('rope-right-angle-bottom','rope-right-angle-bottom',$,(#1027));
#1029=PRESENTATION_STYLE_ASSIGNMENT((#1031));
#1030=PRESENTATION_STYLE_ASSIGNMENT((#1032));
#1031=SURFACE_STYLE_USAGE(.BOTH.,#1033);
#1032=SURFACE_STYLE_USAGE(.BOTH.,#1034);
#1033=SURFACE_SIDE_STYLE('',(#1035));
#1034=SURFACE_SIDE_STYLE('',(#1036));
#1035=SURFACE_STYLE_FILL_AREA(#1037);
#1036=SURFACE_STYLE_FILL_AREA(#1038);
#1037=FILL_AREA_STYLE('Steel - Satin',(#1039));
#1038=FILL_AREA_STYLE('ABS (White)',(#1040));
#1039=FILL_AREA_STYLE_COLOUR('Steel - Satin',#1041);
#1040=FILL_AREA_STYLE_COLOUR('ABS (White)',#1042);
#1041=COLOUR_RGB('Steel - Satin',0.627450980392157,0.627450980392157,0.627450980392157);
#1042=COLOUR_RGB('ABS (White)',0.964705882352941,0.964705882352941,0.952941176470588);
ENDSEC;
END-ISO-10303-21;
